<svg width="21" height="20" viewBox="0 0 21 20" fill="none" xmlns="http://www.w3.org/2000/svg">
<path d="M10.2075 1.80113C12.8815 1.80113 13.1981 1.81285 14.2497 1.85974C15.2271 1.90272 15.7548 2.06681 16.1067 2.20356C16.5719 2.38328 16.9081 2.60207 17.256 2.94979C17.6078 3.30143 17.8228 3.63352 18.0027 4.09846C18.1395 4.45009 18.3037 4.98144 18.3467 5.95429C18.3936 7.00918 18.4053 7.32565 18.4053 9.99414C18.4053 12.6665 18.3936 12.983 18.3467 14.034C18.3037 15.0107 18.1395 15.5382 18.0027 15.8898C17.8228 16.3548 17.6039 16.6908 17.256 17.0385C16.9042 17.3901 16.5719 17.605 16.1067 17.7847C15.7548 17.9215 15.2232 18.0856 14.2497 18.1285C13.1942 18.1754 12.8776 18.1871 10.2075 18.1871C7.53356 18.1871 7.21691 18.1754 6.16531 18.1285C5.18798 18.0856 4.66022 17.9215 4.30839 17.7847C3.84318 17.605 3.50698 17.3862 3.15905 17.0385C2.80721 16.6869 2.5922 16.3548 2.41237 15.8898C2.27555 15.5382 2.11136 15.0068 2.06835 14.034C2.02144 12.9791 2.00971 12.6626 2.00971 9.99414C2.00971 7.32174 2.02144 7.00527 2.06835 5.95429C2.11136 4.97753 2.27555 4.45009 2.41237 4.09846C2.5922 3.63352 2.81112 3.29752 3.15905 2.94979C3.51089 2.59816 3.84318 2.38328 4.30839 2.20356C4.66022 2.06681 5.19189 1.90272 6.16531 1.85974C7.21691 1.81285 7.53356 1.80113 10.2075 1.80113ZM10.2075 0C7.49056 0 7.15045 0.011721 6.08321 0.0586052C5.01988 0.105489 4.28884 0.277398 3.65553 0.52354C2.99486 0.781403 2.43583 1.12131 1.88071 1.68002C1.32168 2.23481 0.981568 2.79351 0.723554 3.44989C0.477268 4.08674 0.305258 4.81344 0.258347 5.87615C0.211435 6.94667 0.199707 7.28658 0.199707 10.002C0.199707 12.7173 0.211435 13.0572 0.258347 14.1239C0.305258 15.1866 0.477268 15.9172 0.723554 16.5501C0.981568 17.2104 1.32168 17.7691 1.88071 18.3239C2.43583 18.8787 2.99486 19.2225 3.65162 19.4765C4.28884 19.7226 5.01597 19.8945 6.0793 19.9414C7.14654 19.9883 7.48665 20 10.2036 20C12.9206 20 13.2607 19.9883 14.3279 19.9414C15.3913 19.8945 16.1223 19.7226 16.7556 19.4765C17.4124 19.2225 17.9714 18.8787 18.5265 18.3239C19.0816 17.7691 19.4257 17.2104 19.6798 16.554C19.9261 15.9172 20.0981 15.1905 20.145 14.1278C20.1919 13.0611 20.2036 12.7212 20.2036 10.0059C20.2036 7.29049 20.1919 6.95058 20.145 5.88396C20.0981 4.82125 19.9261 4.09064 19.6798 3.45771C19.4335 2.79351 19.0934 2.23481 18.5343 1.68002C17.9792 1.12522 17.4202 0.781403 16.7634 0.527447C16.1262 0.281305 15.3991 0.109396 14.3357 0.0625122C13.2646 0.011721 12.9245 0 10.2075 0Z" fill="white"/>
<path d="M10.2075 4.86426C7.36935 4.86426 5.06677 7.16549 5.06677 10.002C5.06677 12.8385 7.36935 15.1397 10.2075 15.1397C13.0457 15.1397 15.3482 12.8385 15.3482 10.002C15.3482 7.16549 13.0457 4.86426 10.2075 4.86426ZM10.2075 13.3347C8.36622 13.3347 6.87287 11.8422 6.87287 10.002C6.87287 8.16178 8.36622 6.6693 10.2075 6.6693C12.0488 6.6693 13.5421 8.16178 13.5421 10.002C13.5421 11.8422 12.0488 13.3347 10.2075 13.3347Z" fill="white"/>
<path d="M16.7518 4.66137C16.7518 5.32556 16.2123 5.86082 15.5516 5.86082C14.887 5.86082 14.3514 5.32165 14.3514 4.66137C14.3514 3.99718 14.8909 3.46191 15.5516 3.46191C16.2123 3.46191 16.7518 4.00108 16.7518 4.66137Z" fill="white"/>
</svg>
