<svg width="20" height="20" viewBox="0 0 20 20" fill="none" xmlns="http://www.w3.org/2000/svg">
<path d="M18.5234 0H1.48047C0.664062 0 0.00390625 0.644531 0.00390625 1.44141V18.5547C0.00390625 19.3516 0.664062 20 1.48047 20H18.5234C19.3398 20 20.0039 19.3516 20.0039 18.5586V1.44141C20.0039 0.644531 19.3398 0 18.5234 0ZM5.9375 17.043H2.96875V7.49609H5.9375V17.043ZM4.45312 6.19531C3.5 6.19531 2.73047 5.42578 2.73047 4.47656C2.73047 3.52734 3.5 2.75781 4.45312 2.75781C5.40234 2.75781 6.17187 3.52734 6.17187 4.47656C6.17187 5.42188 5.40234 6.19531 4.45312 6.19531ZM17.0469 17.043H14.082V12.4023C14.082 11.2969 14.0625 9.87109 12.5391 9.87109C10.9961 9.87109 10.7617 11.0781 10.7617 12.3242V17.043H7.80078V7.49609H10.6445V8.80078H10.6836C11.0781 8.05078 12.0469 7.25781 13.4883 7.25781C16.4922 7.25781 17.0469 9.23438 17.0469 11.8047V17.043Z" fill="#313131"/>
</svg>
