<svg width="20" height="20" viewBox="0 0 20 20" fill="none" xmlns="http://www.w3.org/2000/svg">
<path d="M14.1705 2.9165H5.8372C3.3372 2.9165 1.67053 4.1665 1.67053 7.08317V12.9165C1.67053 15.8332 3.3372 17.0832 5.8372 17.0832H14.1705C16.6705 17.0832 18.3372 15.8332 18.3372 12.9165V7.08317C18.3372 4.1665 16.6705 2.9165 14.1705 2.9165ZM14.5622 7.9915L11.9539 10.0748C11.4039 10.5165 10.7039 10.7332 10.0039 10.7332C9.30387 10.7332 8.59553 10.5165 8.05387 10.0748L5.44553 7.9915C5.17887 7.77484 5.1372 7.37484 5.34553 7.10817C5.5622 6.8415 5.95387 6.7915 6.22053 7.00817L8.82887 9.0915C9.4622 9.59984 10.5372 9.59984 11.1705 9.0915L13.7789 7.00817C14.0455 6.7915 14.4455 6.83317 14.6539 7.10817C14.8705 7.37484 14.8289 7.77484 14.5622 7.9915Z" fill="#ffffff"/>
</svg>
