<svg width="20" height="20" viewBox="0 0 20 20" fill="none" xmlns="http://www.w3.org/2000/svg">
<g clip-path="url(#clip0_83_1614)">
<path d="M11.2851 9.85626C11.2851 12.9985 8.75969 15.5458 5.6446 15.5458C2.52951 15.5458 0.00390625 12.9979 0.00390625 9.85626C0.00390625 6.71457 2.52932 4.1665 5.6446 4.1665C8.75988 4.1665 11.2851 6.71399 11.2851 9.85626Z" fill="#313131"/>
<path d="M17.4729 9.85646C17.4729 12.8142 16.2101 15.2129 14.6525 15.2129C13.0949 15.2129 11.8322 12.8142 11.8322 9.85646C11.8322 6.8987 13.0947 4.5 14.6523 4.5C16.21 4.5 17.4727 6.89793 17.4727 9.85646" fill="#313131"/>
<path d="M20.0039 9.85665C20.0039 12.5061 19.5599 14.6552 19.012 14.6552C18.4641 14.6552 18.0203 12.5067 18.0203 9.85665C18.0203 7.20664 18.4643 5.05811 19.012 5.05811C19.5597 5.05811 20.0039 7.20645 20.0039 9.85665Z" fill="#313131"/>
</g>
<defs>
<clipPath id="clip0_83_1614">
<rect width="20" height="20" fill="white" transform="translate(0.00390625)"/>
</clipPath>
</defs>
</svg>
