<svg width="21" height="20" viewBox="0 0 21 20" fill="none" xmlns="http://www.w3.org/2000/svg">
<g clip-path="url(#clip0_197_139)">
<path fill-rule="evenodd" clip-rule="evenodd" d="M20.4033 10C20.4033 15.5228 15.9262 20 10.4033 20C4.88047 20 0.40332 15.5228 0.40332 10C0.40332 4.47715 4.88047 0 10.4033 0C15.9262 0 20.4033 4.47715 20.4033 10ZM10.7617 7.38244C9.78903 7.787 7.8451 8.62433 4.9299 9.89443C4.45651 10.0827 4.20854 10.2668 4.18596 10.4469C4.14781 10.7512 4.52891 10.8711 5.04788 11.0343C5.11847 11.0565 5.19162 11.0795 5.2666 11.1038C5.77718 11.2698 6.46401 11.464 6.82106 11.4717C7.14494 11.4787 7.50643 11.3452 7.90552 11.0711C10.6293 9.2325 12.0353 8.30317 12.1236 8.28314C12.1859 8.26901 12.2722 8.25123 12.3306 8.3032C12.3891 8.35518 12.3833 8.4536 12.3772 8.48C12.3394 8.64095 10.8434 10.0318 10.0692 10.7515C9.82791 10.9759 9.65671 11.135 9.62172 11.1714C9.54332 11.2528 9.46343 11.3298 9.38664 11.4038C8.91229 11.8611 8.55658 12.204 9.40633 12.764C9.81468 13.0331 10.1414 13.2556 10.4674 13.4776C10.8235 13.7201 11.1786 13.9619 11.638 14.2631C11.7551 14.3398 11.8668 14.4195 11.9757 14.4971C12.39 14.7925 12.7623 15.0578 13.2221 15.0155C13.4894 14.9909 13.7654 14.7397 13.9056 13.9903C14.2368 12.2193 14.888 8.38205 15.0385 6.80081C15.0517 6.66227 15.0351 6.48498 15.0218 6.40715C15.0085 6.32931 14.9806 6.21842 14.8795 6.13633C14.7596 6.03911 14.5747 6.01861 14.492 6.02007C14.1158 6.0267 13.5388 6.22735 10.7617 7.38244Z" fill="white"/>
</g>
<defs>
<clipPath id="clip0_197_139">
<rect width="20" height="20" fill="white" transform="translate(0.40332)"/>
</clipPath>
</defs>
</svg>
