<svg width="20" height="20" viewBox="0 0 20 20" fill="none" xmlns="http://www.w3.org/2000/svg">
<path fill-rule="evenodd" clip-rule="evenodd" d="M20.0039 10C20.0039 15.5228 15.5268 20 10.0039 20C4.48106 20 0.00390625 15.5228 0.00390625 10C0.00390625 4.47715 4.48106 0 10.0039 0C15.5268 0 20.0039 4.47715 20.0039 10ZM10.3623 7.38244C9.38961 7.787 7.44569 8.62433 4.53048 9.89443C4.0571 10.0827 3.80912 10.2668 3.78655 10.4469C3.74839 10.7512 4.1295 10.8711 4.64847 11.0343C4.71906 11.0565 4.7922 11.0795 4.86719 11.1038C5.37777 11.2698 6.06459 11.464 6.42165 11.4717C6.74553 11.4787 7.10701 11.3452 7.50611 11.0711C10.2299 9.2325 11.6359 8.30317 11.7242 8.28314C11.7864 8.26901 11.8727 8.25123 11.9312 8.3032C11.9897 8.35518 11.9839 8.4536 11.9777 8.48C11.94 8.64095 10.444 10.0318 9.66983 10.7515C9.42849 10.9759 9.2573 11.135 9.22231 11.1714C9.14391 11.2528 9.06401 11.3298 8.98722 11.4038C8.51288 11.8611 8.15717 12.204 9.00692 12.764C9.41527 13.0331 9.74203 13.2556 10.068 13.4776C10.424 13.7201 10.7791 13.9619 11.2386 14.2631C11.3556 14.3398 11.4674 14.4195 11.5763 14.4971C11.9906 14.7925 12.3629 15.0578 12.8227 15.0155C13.0899 14.9909 13.366 14.7397 13.5061 13.9903C13.8374 12.2193 14.4886 8.38205 14.6391 6.80081C14.6523 6.66227 14.6357 6.48498 14.6224 6.40715C14.609 6.32931 14.5812 6.21842 14.48 6.13633C14.3602 6.03911 14.1753 6.01861 14.0925 6.02007C13.7164 6.0267 13.1394 6.22735 10.3623 7.38244Z" fill="#ffffff"/>
</svg>
