<svg width="21" height="20" viewBox="0 0 21 20" fill="none" xmlns="http://www.w3.org/2000/svg">
<g clip-path="url(#clip0_197_135)">
<path d="M19.8914 5.18921C19.6609 4.33239 18.9854 3.65699 18.1287 3.42627C16.5636 2.99805 10.3032 2.99805 10.3032 2.99805C10.3032 2.99805 4.0431 2.99805 2.47803 3.41005C1.63781 3.64052 0.945812 4.33255 0.715343 5.18921C0.303467 6.75415 0.303467 9.99969 0.303467 9.99969C0.303467 9.99969 0.303467 13.2615 0.715343 14.8101C0.946031 15.6668 1.62134 16.3422 2.47816 16.5729C4.05957 17.0013 10.3035 17.0013 10.3035 17.0013C10.3035 17.0013 16.5636 17.0013 18.1287 16.5893C18.9855 16.3587 19.6609 15.6833 19.8916 14.8266C20.3034 13.2615 20.3034 10.0161 20.3034 10.0161C20.3034 10.0161 20.3199 6.75412 19.8914 5.18921ZM8.31005 12.998V7.00131L13.5159 9.99962L8.31005 12.998Z" fill="white"/>
</g>
<defs>
<clipPath id="clip0_197_135">
<rect width="20" height="20" fill="white" transform="translate(0.303467)"/>
</clipPath>
</defs>
</svg>
