<svg xmlns="http://www.w3.org/2000/svg" width="171.213" height="15.49" viewBox="0 0 171.213 15.49">
  <g id="Group_47" data-name="Group 47" transform="translate(-140 -32.405)">
    <path id="Path_1198" data-name="Path 1198" d="M7.316,3.606A6.4,6.4,0,0,1,4.75,3.094a6.348,6.348,0,0,1-2.064-1.42A6.44,6.44,0,0,1,1.323-.447,7,7,0,0,1,.84-3.06a7.045,7.045,0,0,1,.473-2.6,6.236,6.236,0,0,1,1.354-2.1A6.479,6.479,0,0,1,4.713-9.177,6.266,6.266,0,0,1,7.26-9.688a6.343,6.343,0,0,1,2.623.53A6.564,6.564,0,0,1,11.956-7.7l-.7.7A5.008,5.008,0,0,0,9.513-8.268,5.487,5.487,0,0,0,7.26-8.722,5.33,5.33,0,0,0,5.12-8.3,5.173,5.173,0,0,0,3.406-7.1,5.4,5.4,0,0,0,2.279-5.3a6.189,6.189,0,0,0-.4,2.244A6.135,6.135,0,0,0,2.289-.807,5.693,5.693,0,0,0,3.415,1.011a4.986,4.986,0,0,0,1.714,1.2,5.4,5.4,0,0,0,2.149.426,5.615,5.615,0,0,0,2.31-.464A5.068,5.068,0,0,0,11.35.9l.7.682A6.277,6.277,0,0,1,9.977,3.066,6.424,6.424,0,0,1,7.316,3.606Zm6.1-.189L18.678-9.5h.8L24.719,3.416h-1.1L18.868-8.476h.4L14.474,3.416ZM15.705-.39v-.89h6.723v.89ZM27.749-2.511v-.852h4a3.041,3.041,0,0,0,2.178-.72A2.515,2.515,0,0,0,34.68-6a2.508,2.508,0,0,0-.748-1.894,3.035,3.035,0,0,0-2.187-.72h-4V-9.5h3.958a4.74,4.74,0,0,1,2.14.445A3.235,3.235,0,0,1,35.21-7.823,3.472,3.472,0,0,1,35.683-6a3.472,3.472,0,0,1-.473,1.827,3.175,3.175,0,0,1-1.363,1.221,4.828,4.828,0,0,1-2.14.436Zm-.606,5.927V-9.5h1V3.416Zm8.181,0-5-6.154,1-.265,5.3,6.42Zm4.109,0V2.488h4.015a5.672,5.672,0,0,0,2.869-.71,5.08,5.08,0,0,0,1.941-1.96,5.786,5.786,0,0,0,.7-2.878,5.747,5.747,0,0,0-.7-2.859,5,5,0,0,0-1.95-1.95,5.747,5.747,0,0,0-2.859-.7H39.49V-9.5h3.977a6.9,6.9,0,0,1,2.613.483,6.321,6.321,0,0,1,2.074,1.345,5.993,5.993,0,0,1,1.363,2.045A6.778,6.778,0,0,1,50-3.041a6.727,6.727,0,0,1-.483,2.566,6.164,6.164,0,0,1-1.354,2.055A6.141,6.141,0,0,1,46.1,2.933a6.85,6.85,0,0,1-2.594.483Zm-.53,0V-9.5h1V3.416Z" transform="translate(261.213 43.192)" fill="#111"/>
    <line id="Line_1" data-name="Line 1" y2="10" transform="translate(247.053 35.15)" fill="none" stroke="#111" stroke-linecap="round" stroke-width="1" opacity="0.5"/>
    <g id="logo" transform="translate(109.897 29.016)">
      <path id="Path_20" data-name="Path 20" d="M757.718,99.15v11.914h9.306V99.15h4.393v12.707a2.281,2.281,0,0,1-.31,1.191,3,3,0,0,1-.794.881,3.374,3.374,0,0,1-1.08.534,4.226,4.226,0,0,1-1.191.174H756.725a4.722,4.722,0,0,1-1.241-.163,3.48,3.48,0,0,1-1.08-.5,2.464,2.464,0,0,1-.77-.855,2.6,2.6,0,0,1-.285-1.266V99.15Z" transform="translate(-723.247 -95.76)" fill="#db312e"/>
      <path id="Path_21" data-name="Path 21" d="M1249.26,101.911a2.6,2.6,0,0,1,.285-1.266,2.466,2.466,0,0,1,.77-.855,3.48,3.48,0,0,1,1.079-.5,4.744,4.744,0,0,1,1.241-.163h11.318a4.242,4.242,0,0,1,1.192.174,3.378,3.378,0,0,1,1.08.534,3,3,0,0,1,.794.881,2.284,2.284,0,0,1,.311,1.192v9.928a1.944,1.944,0,0,1-.248,1.042l1.886,1.737h-16.331a4.726,4.726,0,0,1-1.241-.163,3.48,3.48,0,0,1-1.079-.5,2.466,2.466,0,0,1-.77-.855,2.6,2.6,0,0,1-.285-1.266Zm11.839,5.459,1.837,1.711V102.7h-9.307v8.34h4.815l-4.07-3.673Z" transform="translate(-1198.954 -95.741)" fill="#db312e"/>
      <path id="Path_22" data-name="Path 22" d="M1753.2,99.15v11.914h9.307V99.15h4.393v12.707a2.28,2.28,0,0,1-.31,1.191,2.994,2.994,0,0,1-.794.883,3.376,3.376,0,0,1-1.08.534,4.224,4.224,0,0,1-1.191.174h-11.317a4.726,4.726,0,0,1-1.241-.163,3.48,3.48,0,0,1-1.08-.5,2.464,2.464,0,0,1-.77-.855,2.6,2.6,0,0,1-.285-1.266V99.15Z" transform="translate(-1678.173 -95.76)" fill="#db312e"/>
      <path id="Path_23" data-name="Path 23" d="M2244.74,111.162h3.375v-8.537h-3.375V99.15h11.119v3.475h-3.375v8.537h3.375v3.475H2244.74Z" transform="translate(-2153.88 -95.76)" fill="#db312e"/>
      <path id="Path_24" data-name="Path 24" d="M2570.07,105.6h4.44v5.411h8.636l.4-.3v-7.793l-.4-.3H2570.07V99.15h15.859a1.573,1.573,0,0,1,.757.211,2.918,2.918,0,0,1,.7.534,3.329,3.329,0,0,1,.521.707,1.536,1.536,0,0,1,.211.733v10.349a3.564,3.564,0,0,1-.236,1.365,2.436,2.436,0,0,1-.633.919,2.534,2.534,0,0,1-.894.509,3.351,3.351,0,0,1-1.042.163H2570.07Z" transform="translate(-2465.957 -95.76)" fill="#db312e"/>
    </g>
  </g>
</svg>
