<svg xmlns="http://www.w3.org/2000/svg" width="41.418" height="39.973" viewBox="0 0 41.418 39.973">
  <g id="Group_114" data-name="Group 114" transform="translate(-332.997 79)">
    <g id="logo" transform="translate(332.997 -79)">
      <path id="Path_1" data-name="Path 1" d="M114.12,16.16a.075.075,0,0,1,.05.08V41.468a2.3,2.3,0,0,1,0,.245c.033.071.1.038.141.038H127.8c.141,0,.207-.033.184-.174a1.086,1.086,0,0,1,0-.141V16.444c0-.089-.05-.195.059-.261a.085.085,0,0,1,.125.023.841.841,0,0,1,.1.157c.513,1.018,1.033,2.03,1.536,3.048q.632,1.275,1.263,2.544.7,1.408,1.411,2.812.639,1.267,1.263,2.54c.372.764.769,1.517,1.134,2.283a2.61,2.61,0,0,1,.174.322,2.377,2.377,0,0,1,.016.431V54.929c0,.27,0,.27.261.315a.15.15,0,0,1,.089.047,2.476,2.476,0,0,1-.55.157,16.4,16.4,0,0,1-2.538.39c-.4.03-.8.037-1.192.044-2.051.031-4.1.024-6.156.023q-5.354-.005-10.695-.005a.132.132,0,1,1-.15-.07,1.275,1.275,0,0,1,.388-.026h13.032a2.485,2.485,0,0,0,.348-.012c.1-.047.066-.141.068-.217V42.362a1.978,1.978,0,0,1,0-.278,7.733,7.733,0,0,1-.44.966c-.574,1.2-1.138,2.4-1.71,3.6-.313.656-.628,1.312-.933,1.971a.418.418,0,0,1-.184.237.91.91,0,0,1-.306.028h-6.685a1.079,1.079,0,0,1-.266-.017c-.136-.042-.174-.174-.23-.275l-1.178-2.491-1.275-2.693c-.2-.425-.4-.858-.623-1.3V55.476a.576.576,0,0,1-.061.4c-.071,0-.136.01-.2.01h-3.043c-.261,0-.522-.012-.779-.021a.174.174,0,0,1-.137-.028c.047-.042.1-.024.157-.024h3.72a.7.7,0,0,1,.1,0h-3.765c-.071,0-.151-.026-.217.026a6.234,6.234,0,0,1-.941-.061c-.605-.061-1.206-.174-1.8-.284a.2.2,0,0,1-.054-.03,1.129,1.129,0,0,0,.061-.485V30.446a3.363,3.363,0,0,1,.01-.431,1.693,1.693,0,0,1,.174-.419c.425-.846.851-1.689,1.27-2.538,1.547-3.167,3.142-6.309,4.71-9.465.195-.393.4-.779.59-1.176.031-.064.052-.2.174-.082v.2C114.1,16.4,114.052,16.277,114.12,16.16Z" transform="translate(-100.396 -16.116)" fill="#e2e2e2"/>
      <path id="Path_2" data-name="Path 2" d="M20.091,32.67V58.089c0,.1-.054.113-.129.118a12.424,12.424,0,0,1-2.923-1.02,8.1,8.1,0,0,1-1.448-.9,5.724,5.724,0,0,1-2.262-3.828,1.565,1.565,0,0,1,0-.164.567.567,0,0,1-.016-.224V19.346a.593.593,0,0,1,.016-.226c.1.01.118.092.15.155.381.757.757,1.521,1.143,2.279q.7,1.368,1.374,2.74c.425.851.859,1.7,1.275,2.559.261.536.536,1.068.8,1.6.245.491.5.978.734,1.474q.425.889.889,1.764c.132.249.233.512.362.762A.249.249,0,0,1,20.091,32.67Z" transform="translate(-13.25 -18.867)" fill="#bebebe"/>
      <path id="Path_3" data-name="Path 3" d="M500.631,59.658a.779.779,0,0,0-.284.035c-.08.016-.136,0-.134-.106V34.2c-.066-.115.021-.2.064-.284q1.021-1.992,2.023-4c.016-.031.035-.061.054-.092a.426.426,0,0,1,.024-.042c.012-.021.023-.042.033-.064l.021-.043c.024-.045.042-.092.064-.137a.355.355,0,0,1,.03-.047c.348-.668.68-1.347,1.02-2.025.174-.348.358-.708.534-1.068.16-.317.32-.632.475-.95a.677.677,0,0,1,.038-.061c.522-1.02,1.02-2.055,1.545-3.071l.649-1.263c.038-.077.064-.174.174-.195a.493.493,0,0,1,.023.256V53.452a.712.712,0,0,1-.014.245,2.371,2.371,0,0,1-.153.842,5.486,5.486,0,0,1-1.3,2.277,7.431,7.431,0,0,1-1.538,1.354,11.483,11.483,0,0,1-2.316,1.16,8.042,8.042,0,0,1-1.028.327Z" transform="translate(-465.614 -20.484)" fill="#bebebe"/>
      <path id="Path_4" data-name="Path 4" d="M19.443,29.639a.539.539,0,0,0-.077-.19c-.188-.4-.4-.793-.592-1.2s-.409-.76-.581-1.155c-.157-.365-.376-.7-.531-1.063-.2-.461-.475-.87-.661-1.347a5.758,5.758,0,0,0-.278-.522c-.134-.27-.244-.553-.393-.814-.292-.522-.522-1.044-.8-1.576-.174-.348-.364-.677-.522-1.027-.174-.385-.4-.736-.56-1.119-.2-.466-.477-.893-.67-1.362-.092-.228-.242-.431-.348-.656-.221-.5-.508-.969-.762-1.472V49.254a2.283,2.283,0,0,1-.052-.7q0-4.364,0-8.725V16.5a5.407,5.407,0,0,0-.019-.616.379.379,0,0,1,.2-.019H26.18c.148,0,.092.075.049.141l-2.667,5.352L21.887,24.7c-.2.411-.395.826-.6,1.237l-1.7,3.4Z" transform="translate(-12.6 -15.834)" fill="#f6f6f6"/>
      <path id="Path_5" data-name="Path 5" d="M412.55,25.3a.348.348,0,0,1-.057.153c-.451.9-.891,1.808-1.355,2.7-.221.425-.435.851-.654,1.281a.47.47,0,0,0-.075.19c-.08,0-.1-.071-.122-.122-.091-.174-.174-.362-.256-.539-.108-.212-.226-.425-.332-.639-.195-.393-.4-.779-.585-1.178s-.433-.811-.616-1.23c-.2-.452-.458-.87-.654-1.326-.108-.249-.254-.485-.376-.731-.193-.386-.4-.766-.576-1.159-.2-.449-.458-.87-.654-1.326-.108-.249-.264-.482-.376-.731-.212-.475-.482-.922-.7-1.392-.11-.249-.254-.485-.378-.731l-1.178-2.354a.505.505,0,0,1-.083-.209l.033-.017h13.411a.433.433,0,0,1,.223.019c0,.056.071.108,0,.174a3.667,3.667,0,0,0-.428.79c-.682,1.321-1.343,2.655-2.006,3.984h0c-.174.311-.331.628-.482.95q-.277.522-.536,1.072c-.348.68-.68,1.378-1.044,2.055h0a.523.523,0,0,0-.084.165h0c-.026.023-.017.061-.042.084h0A.1.1,0,0,1,412.55,25.3Z" transform="translate(-375.808 -15.899)" fill="#f6f6f6"/>
      <path id="Path_6" data-name="Path 6" d="M562.13,23.085a5.326,5.326,0,0,1,.487-1.035c.061-.115.1-.237.162-.348.245-.48.484-.964.724-1.446.188-.379.371-.76.567-1.134.132-.247.252-.5.372-.75.026-.054.049-.1.118-.057v32.44a1.946,1.946,0,0,1-.037.552V18.516c-.063,0-.071.059-.089.1-.071.134-.134.271-.2.405-.675,1.294-1.322,2.61-1.977,3.909C562.22,22.984,562.2,23.057,562.13,23.085Z" transform="translate(-523.164 -18.097)" fill="#e34c37"/>
      <path id="Path_7" data-name="Path 7" d="M220.5,15.89a.153.153,0,0,0-.127.174,1.4,1.4,0,0,1,0,.165V41.2c0,.329.033.3-.3.3H206.8c-.089,0-.195.049-.263-.057a.438.438,0,0,0,.223.026h13.453c.1,0,.141-.031.134-.13V16.019c-.012-.118.047-.164.158-.153v.028Z" transform="translate(-192.778 -15.841)" fill="#e9654c"/>
      <path id="Path_8" data-name="Path 8" d="M26.083,15.786c0-.054.049-.13-.071-.124H12.449c.057-.075.141-.035.209-.035H25.9c.087,0,.174-.028.259.031V41.186c-.064-.031-.037-.08-.04-.117a1.391,1.391,0,0,1,0-.141V16.059C26.123,15.967,26.159,15.864,26.083,15.786Z" transform="translate(-12.446 -15.611)" fill="#e7563d"/>
      <path id="Path_9" data-name="Path 9" d="M403.492,15.593a.193.193,0,0,1,0-.028c.075,0,.15-.012.226-.012h13.223c.077,0,.164-.037.23.037Z" transform="translate(-375.768 -15.544)" fill="#e85c50"/>
      <path id="Path_10" data-name="Path 10" d="M219.826,484.052H205.953a.379.379,0,0,1,.042-.238c.348-.745.7-1.488,1.054-2.232.7-1.465,1.392-2.94,2.088-4.405a.316.316,0,0,1,.1-.151h7.33c.174.31.318.639.47.957.284.616.578,1.228.87,1.842q.934,1.973,1.865,3.944A.4.4,0,0,1,219.826,484.052Z" transform="translate(-192.227 -444.308)" fill="#bebebe"/>
      <path id="Path_11" data-name="Path 11" d="M208.65,386.447a1.432,1.432,0,0,1-.13.348c-.348.708-.7,1.418-1.021,2.13q-.348.725-.684,1.449c-.264.557-.522,1.115-.8,1.669-.2.412-.39.83-.583,1.246-.028.061-.05.127-.077.19l-.05.016h0V379.54a.3.3,0,0,1,.134.174c.137.3.27.6.411.9.217.458.445.91.661,1.369q.567,1.218,1.143,2.413c.23.475.444.957.677,1.43a3.9,3.9,0,0,0,.315.625Z" transform="translate(-191.636 -353.741)" fill="#f6f6f6"/>
      <path id="Path_12" data-name="Path 12" d="M359.131,393.6a4.012,4.012,0,0,0-.284-.679c-.118-.291-.264-.571-.4-.854-.318-.666-.644-1.331-.957-2q-.379-.809-.766-1.615c-.273-.567-.532-1.141-.8-1.712a.348.348,0,0,1-.047-.174c.412-.87.828-1.731,1.235-2.6.238-.51.48-1.016.72-1.524.266-.564.522-1.129.8-1.689.141-.3.273-.6.411-.9a.438.438,0,0,1,.125-.191v13.7C359.173,393.441,359.206,393.529,359.131,393.6Z" transform="translate(-331.533 -353.852)" fill="#f6f6f6"/>
      <path id="Path_13" data-name="Path 13" d="M146.54,575.226c.045-.057.111-.047.174-.047h3.85a.532.532,0,0,1,.083.016.511.511,0,0,1-.233.024h-3.869Z" transform="translate(-137.03 -535.514)" fill="#e75840"/>
      <path id="Path_14" data-name="Path 14" d="M533.07,116.272a.292.292,0,0,1,.045-.134l.913-1.827a.213.213,0,0,1,.071-.1q.021-.028.042,0l-.941,1.883C533.166,116.159,533.148,116.239,533.07,116.272Z" transform="translate(-496.164 -107.205)" fill="#e04437"/>
      <path id="Path_15" data-name="Path 15" d="M547.632,100.175h-.042a6.418,6.418,0,0,1,.348-.734,1.247,1.247,0,0,1,.186-.336c.014-.019.026-.019.042,0Z" transform="translate(-509.654 -93.168)" fill="#e24837"/>
      <path id="Path_16" data-name="Path 16" d="M555.192,86.878h-.042a4.291,4.291,0,0,1,.5-.948.222.222,0,0,1-.023.118C555.456,86.313,555.338,86.6,555.192,86.878Z" transform="translate(-516.678 -80.941)" fill="#e34c37"/>
      <path id="Path_17" data-name="Path 17" d="M531.856,143.629a.141.141,0,0,1,.083-.174.231.231,0,0,1-.083.174Z" transform="translate(-495.032 -134.397)" fill="#e04437"/>
      <path id="Path_18" data-name="Path 18" d="M531.322,145.914a.085.085,0,0,1,.042-.083.085.085,0,0,1-.042.083Z" transform="translate(-494.54 -136.596)" fill="#e04437"/>
      <path id="Path_19" data-name="Path 19" d="M530.742,147.036a.083.083,0,0,1,.042-.084A.087.087,0,0,1,530.742,147.036Z" transform="translate(-494 -137.635)" fill="#e04437"/>
    </g>
  </g>
</svg>
