<svg xmlns="http://www.w3.org/2000/svg" width="161.379" height="27.156" viewBox="0 0 161.379 27.156">
  <g id="logo" transform="translate(-30.103 -3.389)">
    <path id="Path_20" data-name="Path 20" d="M761.008,99.15v20.886h16.314V99.15h7.7v22.278a4,4,0,0,1-.544,2.088,5.252,5.252,0,0,1-1.393,1.545,5.915,5.915,0,0,1-1.893.936,7.409,7.409,0,0,1-2.088.3H759.267a8.28,8.28,0,0,1-2.175-.286,6.1,6.1,0,0,1-1.893-.871,4.32,4.32,0,0,1-1.349-1.5,4.564,4.564,0,0,1-.5-2.219V99.15Z" transform="translate(-723.247 -95.76)" fill="#db312e"/>
    <path id="Path_21" data-name="Path 21" d="M1249.26,104a4.563,4.563,0,0,1,.5-2.219,4.324,4.324,0,0,1,1.349-1.5,6.1,6.1,0,0,1,1.892-.871,8.319,8.319,0,0,1,2.176-.286h19.841a7.439,7.439,0,0,1,2.089.3,5.923,5.923,0,0,1,1.893.936,5.262,5.262,0,0,1,1.392,1.544,4,4,0,0,1,.544,2.089v17.405a3.41,3.41,0,0,1-.435,1.828l3.307,3.046h-28.63A8.287,8.287,0,0,1,1253,126a6.1,6.1,0,0,1-1.892-.871,4.324,4.324,0,0,1-1.349-1.5,4.563,4.563,0,0,1-.5-2.219Zm20.754,9.57,3.22,3V105.4h-16.317v14.62h8.441l-7.136-6.44Z" transform="translate(-1183.74 -95.741)" fill="#db312e"/>
    <path id="Path_22" data-name="Path 22" d="M1756.488,99.15v20.886H1772.8V99.15h7.7v22.278a4,4,0,0,1-.544,2.088,5.248,5.248,0,0,1-1.392,1.548,5.92,5.92,0,0,1-1.893.936,7.4,7.4,0,0,1-2.089.3h-19.841a8.285,8.285,0,0,1-2.176-.286,6.1,6.1,0,0,1-1.893-.871,4.321,4.321,0,0,1-1.349-1.5,4.566,4.566,0,0,1-.5-2.219V99.15Z" transform="translate(-1647.631 -95.76)" fill="#db312e"/>
    <path id="Path_23" data-name="Path 23" d="M2244.74,120.208h5.917V105.242h-5.917V99.15h19.492v6.092h-5.917v14.966h5.917V126.3H2244.74Z" transform="translate(-2108.124 -95.76)" fill="#db312e"/>
    <path id="Path_24" data-name="Path 24" d="M2570.07,110.463h7.784v9.486H2593l.7-.522V105.764l-.7-.522H2570.07V99.15h27.8a2.755,2.755,0,0,1,1.326.37,5.1,5.1,0,0,1,1.219.936,5.827,5.827,0,0,1,.914,1.24,2.69,2.69,0,0,1,.37,1.286v18.143a6.248,6.248,0,0,1-.413,2.393,4.276,4.276,0,0,1-1.109,1.61,4.439,4.439,0,0,1-1.567.892,5.874,5.874,0,0,1-1.827.286H2570.07Z" transform="translate(-2410.219 -95.76)" fill="#db312e"/>
  </g>
</svg>
