<svg width="185" height="44" viewBox="0 0 185 44" fill="none" xmlns="http://www.w3.org/2000/svg">
<path d="M0 10.7778V30.1404L2.62558 28.5995V15.4006L17.0444 23.867V40.1447L5.25116 33.2223L10.6859 30.0308V26.9489L0 33.2223L18.3558 44.0001L19.6817 43.2207L36.7115 33.2223L26.0256 26.9489V30.0308L31.4603 33.2223L19.6817 40.1388V23.8581L34.0859 15.4006V28.5995L36.7115 30.1404V10.7778L18.3558 21.5526L0 10.7778Z" fill="white"/>
<path d="M17.0444 3.85238V12.5469H19.67H19.6816V3.86127L31.4603 10.7778L34.0859 9.23681L18.3557 0L2.62555 9.23681L5.25113 10.7778L17.0444 3.85238Z" fill="white"/>
<path d="M62.4107 12.0639H49.9705V15.2643H62.4107C64.0542 15.2643 65.3918 16.6245 65.3918 18.2959C65.3918 19.9672 64.0542 21.3274 62.4107 21.3274H49.9705V24.5278H62.4107C64.0542 24.5278 65.3918 25.888 65.3918 27.5593C65.3918 29.2307 64.0542 30.5909 62.4107 30.5909H49.9705V33.7913H62.4107C65.791 33.7913 68.539 30.9968 68.539 27.5593C68.539 25.7132 67.7289 24.0685 66.47 22.9276C67.7289 21.7867 68.539 20.142 68.539 18.2959C68.539 14.8613 65.791 12.0639 62.4107 12.0639Z" fill="white"/>
<path d="M95.9575 12.0639H80.035V15.2643H95.9575V12.0639Z" fill="white"/>
<path d="M75.7951 12.1083H72.6479V34.0076H75.7951V12.1083Z" fill="white"/>
<path d="M103.418 12.1083H100.27V34.0076H103.418V12.1083Z" fill="white"/>
<path d="M89.5699 17.1638H86.4227V34.0075H89.5699V17.1638Z" fill="white"/>
<path d="M185 12.0639H169.078V15.2643H185V12.0639Z" fill="white"/>
<path d="M178.612 17.1638H175.465V34.0075H178.612V17.1638Z" fill="white"/>
<path d="M119.043 17.9373C119.043 14.6983 116.452 12.0639 113.267 12.0639H105.475V15.2643H113.267C114.715 15.2643 115.896 16.4645 115.896 17.9373C115.896 19.4101 114.715 20.6103 113.267 20.6103H105.475V23.8107H109.767L115.805 34.0076H119.477L113.43 23.7929C116.54 23.704 119.043 21.117 119.043 17.9343V17.9373Z" fill="white"/>
<path d="M132.287 12.0639C126.398 12.0639 121.604 16.9357 121.604 22.9276C121.604 28.9195 126.395 33.7913 132.287 33.7913C138.18 33.7913 142.967 28.9195 142.967 22.9276C142.967 16.9357 138.177 12.0639 132.287 12.0639ZM132.287 30.5879C128.132 30.5879 124.752 27.1504 124.752 22.9246C124.752 18.6989 128.132 15.2614 132.287 15.2614C136.443 15.2614 139.82 18.6989 139.82 22.9246C139.82 27.1504 136.44 30.5879 132.287 30.5879Z" fill="white"/>
<path d="M156.541 12.0639C150.652 12.0639 145.861 16.9357 145.861 22.9276C145.861 28.9195 150.652 33.7913 156.541 33.7913C162.431 33.7913 167.224 28.9195 167.224 22.9276C167.224 16.9357 162.431 12.0639 156.541 12.0639ZM156.541 30.5879C152.386 30.5879 149.008 27.1504 149.008 22.9246C149.008 18.6989 152.389 15.2614 156.541 15.2614C160.694 15.2614 164.077 18.6989 164.077 22.9246C164.077 27.1504 160.697 30.5879 156.541 30.5879Z" fill="white"/>
</svg>
