<svg width="185" height="58" viewBox="0 0 185 58" fill="none" xmlns="http://www.w3.org/2000/svg">
<path d="M37.3481 51.4146L32.874 54L23.2603 48.4508L27.6259 45.9297L27.7343 45.8656L27.901 45.9619L37.3481 51.4146Z" fill="white"/>
<path d="M54.5249 16.4994V21.7021L45.0624 16.2401L42.4963 14.7583L39.9301 16.2401L27.9014 23.1846L25.3352 24.6664V27.7297L20.7064 25.0578L18.1402 23.576L15.5741 25.0578L11.2224 27.5695V16.4994L32.8736 4L54.5249 16.4994Z" fill="white"/>
<path d="M54.5258 27.6305V41.5193L42.4971 48.4638L42.4816 48.4542L30.4692 41.5187V27.6305L42.4971 20.6829L54.5258 27.6305Z" fill="white"/>
<path d="M25.06 33.497V41.4838L18.1412 45.4806L11.2224 41.4838V33.497L18.1412 29.5029L25.06 33.497Z" fill="white"/>
<path d="M79.0503 18.6344V27.5444H95.3364V33.8038H79.0503V46.0876H70.9073V12.3723H97.4959V18.6344H79.0503Z" fill="white"/>
<path d="M101.065 12.3723H108.904V46.0878H101.065V12.3723Z" fill="white"/>
<path d="M142.258 19.0423V46.0877H134.819V42.8677C132.758 45.2301 129.744 46.4865 126.425 46.4865C119.639 46.4865 114.864 42.667 114.864 34.3232V19.0423H122.706V33.1669C122.706 37.6913 124.715 39.7026 128.183 39.7026C131.802 39.7026 134.415 37.3903 134.415 32.4119V19.0423H142.258Z" fill="white"/>
<path d="M164.882 46.0877L158.951 37.7914L152.827 46.0877H144.272L154.676 32.4621L144.626 19.0423H153.421L159.162 26.9347L165.043 19.0423H173.388L163.333 32.2614L173.778 46.0877H164.882Z" fill="white"/>
</svg>
