<svg width="185" height="44" viewBox="0 0 185 44" fill="none" xmlns="http://www.w3.org/2000/svg">
<mask id="mask0_26_2206" style="mask-type:luminance" maskUnits="userSpaceOnUse" x="0" y="0" width="185" height="44">
<path d="M0 0.817505H185V43.1825H0V0.817505Z" fill="white"/>
</mask>
<g mask="url(#mask0_26_2206)">
<path fill-rule="evenodd" clip-rule="evenodd" d="M153.156 13.4078H158.41V8.15265H153.156V13.4078ZM125.23 22.1594C126.234 19.4966 128.805 17.6008 131.819 17.6008C134.833 17.6008 137.404 19.4966 138.408 22.1594H125.23ZM131.819 12.7148C125.233 12.7148 119.893 18.0556 119.893 24.6441C119.893 31.2326 125.233 36.5726 131.819 36.5726C136.338 36.5726 140.27 34.0593 142.294 30.3546L137.887 28.2161C136.662 30.2926 134.404 31.6866 131.819 31.6866C128.553 31.6866 125.808 29.4629 125.012 26.4468H138.626C138.625 26.449 138.625 26.4521 138.624 26.4547H143.611C143.701 25.8641 143.747 25.2594 143.747 24.6441C143.747 18.0556 138.407 12.7148 131.819 12.7148ZM145.132 35.9367H150.386V30.6815H145.132V35.9367ZM153.156 35.9367H158.41V15.7181H153.156V35.9367ZM173.074 31.6866C169.185 31.6866 166.033 28.5334 166.033 24.6441C166.033 20.754 169.185 17.6008 173.074 17.6008C176.963 17.6008 180.115 20.754 180.115 24.6441C180.115 28.5334 176.963 31.6866 173.074 31.6866ZM173.072 12.7148C166.486 12.7148 161.145 18.0556 161.145 24.6441C161.145 31.2326 166.486 36.5726 173.072 36.5726C179.66 36.5726 185 31.2326 185 24.6441C185 18.0556 179.66 12.7148 173.072 12.7148ZM63.2243 20.2468V25.6804H70.5705C70.187 27.233 69.4286 28.6244 68.3412 29.7358C66.701 31.4124 64.4269 32.3361 61.937 32.3361C56.7705 32.3361 52.5666 28.1318 52.5666 22.9636C52.5666 17.7955 56.7705 13.5906 61.937 13.5906C64.7045 13.5906 67.2485 14.7754 69.0121 16.819L73.2181 13.3814C70.4295 10.1127 66.292 8.1566 61.937 8.1566C53.7749 8.1566 47.1343 14.7992 47.1343 22.9636C47.1343 31.128 53.7749 37.7702 61.937 37.7702C65.9001 37.7702 69.5534 36.3419 72.2243 33.6119C74.4655 31.3205 75.951 28.1243 76.2366 24.9223C76.3759 23.3604 76.3886 21.8091 76.3065 20.2468H63.2243ZM89.9852 31.6879C86.0964 31.6879 82.9435 28.5339 82.9435 24.6441C82.9435 20.7535 86.0964 17.6003 89.9852 17.6003C93.8745 17.6003 97.0274 20.7535 97.0274 24.6441C97.0274 28.5339 93.8745 31.6879 89.9852 31.6879ZM97.0283 15.0396C95.0542 13.5919 92.6201 12.735 89.9852 12.735C83.3996 12.735 78.0608 18.0754 78.0608 24.6626C78.0608 31.2507 83.3996 36.5902 89.9852 36.5902C92.6201 36.5902 95.0542 35.7337 97.0283 34.2861V35.9367H101.91V13.3889H97.0283V15.0396ZM112.39 8.15309H107.508V13.4078H104.581V18.0165H107.508V30.0773C107.508 31.3227 107.664 32.3704 107.974 33.1927C108.28 34.0061 108.748 34.6429 109.303 35.1404C109.867 35.6453 110.527 36.0387 111.311 36.2619C112.107 36.486 112.985 36.5726 113.914 36.5726C114.874 36.5726 115.731 36.4729 116.462 36.2755C117.141 36.0932 117.792 35.8352 118.397 35.5074V31.7938C117.434 32.2105 116.534 32.3612 115.507 32.4091C114.422 32.4601 113.781 32.1503 113.247 31.6413C112.688 31.1083 112.39 30.4135 112.39 29.248V18.0165H118.397V13.4078H112.39V8.15309Z" fill="white"/>
</g>
<mask id="mask1_26_2206" style="mask-type:luminance" maskUnits="userSpaceOnUse" x="0" y="1" width="47" height="42">
<path d="M0 1.32355H46.7941V42.6765H0V1.32355Z" fill="white"/>
</mask>
<g mask="url(#mask1_26_2206)">
<path fill-rule="evenodd" clip-rule="evenodd" d="M21.1779 33.6504C14.7451 33.6504 9.5303 28.4348 9.5303 22.0001C9.5303 15.5659 14.7451 10.3494 21.1779 10.3494V0.817322C9.48153 0.817322 0 10.301 0 22.0001C0 33.6988 9.48153 43.1825 21.1779 43.1825C32.8738 43.1825 42.3558 33.6988 42.3558 22.0001H32.8255C32.8255 28.4348 27.6107 33.6504 21.1779 33.6504Z" fill="#2354E6"/>
</g>
<mask id="mask2_26_2206" style="mask-type:luminance" maskUnits="userSpaceOnUse" x="0" y="1" width="44" height="42">
<path d="M0 1.32355H43.5294V42.6765H0V1.32355Z" fill="white"/>
</mask>
<g mask="url(#mask2_26_2206)">
<path fill-rule="evenodd" clip-rule="evenodd" d="M21.1778 21.9999H32.8254V10.3496H21.1778V21.9999Z" fill="#17E6A1"/>
</g>
</svg>
