<svg width="186" height="54" viewBox="0 0 186 54" fill="none" xmlns="http://www.w3.org/2000/svg">
<path d="M57.4677 36.7967V18.6833H61.1286V25.8115H68.3022V18.6833H71.9632V36.7967H68.3022V28.8771H61.1286V36.7967H57.4677Z" fill="white"/>
<path d="M101.232 36.7969V29.1737L94.5889 18.6835H98.8811L103.149 25.8499L107.329 18.6835H111.547L104.881 29.1976V36.7945H101.232V36.7969Z" fill="white"/>
<path d="M138.716 36.7969L132.234 18.6835H136.205L140.794 32.0886L145.235 18.6835H149.118L142.623 36.7969H138.716Z" fill="white"/>
<path d="M171.708 36.7969V18.6835H185.153V21.749H175.369V25.7638H184.472V28.815H175.369V33.7457H185.5V36.7969H171.708Z" fill="white"/>
<path d="M15.4761 29.903H3.39336C1.79603 29.903 0.5 28.595 0.5 27C0.5 25.4051 1.79603 24.0971 3.39336 24.0971H15.4785C14.8209 25.979 14.8209 28.0211 15.4761 29.903Z" fill="white"/>
<path d="M23.6732 21.2061C26.8798 21.2061 29.4718 23.7958 29.4718 27C29.4718 30.2042 26.8798 32.7939 23.6732 32.7939C20.4785 32.7939 17.8864 30.2042 17.8864 27C17.8841 23.7958 20.4785 21.2061 23.6732 21.2061Z" fill="white"/>
<path d="M28.6852 3.81485H18.6565C19.6895 2.02384 21.6025 0.923882 23.6709 0.911926C25.7392 0.923882 27.6522 2.02384 28.6852 3.81485Z" fill="white"/>
<path d="M18.764 50.1851H28.8692C27.8219 51.9761 25.897 53.088 23.8166 53.088C21.7339 53.0856 19.809 51.9761 18.764 50.1851Z" fill="white"/>
<path d="M43.9506 35.6944C43.9506 37.2893 42.6546 38.5973 41.0573 38.5973H35.2586C34.4599 38.5973 33.8191 39.2381 33.8191 40.0368C33.8191 40.8474 34.4599 41.4883 35.2586 41.4883C36.8679 41.4883 38.1639 42.7843 38.1639 44.3912C38.1639 45.9861 36.8679 47.2821 35.2586 47.2821H12.0854C10.4881 47.2821 9.19206 45.9861 9.19206 44.3912C9.19206 42.7843 10.4881 41.4883 12.0854 41.4883H26.5642C27.3772 41.4883 28.018 40.8474 28.018 40.0368C28.018 39.2381 27.3772 38.5973 26.5642 38.5973H6.28675C5.25375 38.5973 4.29727 38.0354 3.78555 37.1458C3.26187 36.242 3.26187 35.1444 3.78555 34.2429C4.29727 33.3534 5.25135 32.7914 6.28675 32.7914H17.1906C18.8406 34.6351 21.1959 35.6944 23.6708 35.6944C26.1457 35.6944 28.501 34.6351 30.151 32.7914H41.0549C42.6546 32.7914 43.9506 34.0875 43.9506 35.6944Z" fill="white"/>
<path d="M3.39343 18.3032C3.39343 16.7083 4.68946 15.4123 6.28679 15.4123H12.0855C12.8841 15.4123 13.5393 14.7595 13.5393 13.9608C13.5393 13.1621 12.8841 12.5093 12.0855 12.5093C10.4881 12.5093 9.19211 11.2133 9.19211 9.60642C9.19211 8.01149 10.4881 6.71545 12.0855 6.71545H35.2586C36.8679 6.71545 38.164 8.01149 38.164 9.60642C38.164 11.2133 36.8679 12.5093 35.2586 12.5093H20.7799C19.9812 12.5093 19.326 13.1645 19.326 13.9608C19.326 14.7571 19.9812 15.4123 20.7799 15.4123H41.0573C42.6546 15.4123 43.9507 16.7083 43.9507 18.3032C43.9507 19.9101 42.6546 21.2062 41.0573 21.2062H30.1534C28.5035 19.3625 26.1481 18.3032 23.6732 18.3032C21.1983 18.3032 18.843 19.3625 17.1931 21.2062H6.28918C4.68947 21.2062 3.39343 19.9125 3.39343 18.3032Z" fill="white"/>
<path d="M46.8559 27C46.8559 28.595 45.5599 29.903 43.9506 29.903H31.8679C32.535 28.0211 32.535 25.979 31.8679 24.0971H43.9506C45.5599 24.0971 46.8559 25.4051 46.8559 27Z" fill="white"/>
</svg>
