<svg width="188" height="68" viewBox="0 0 188 68" fill="none" xmlns="http://www.w3.org/2000/svg">
<g filter="url(#filter0_d_0_194)">
<rect x="4" width="180" height="60" rx="11" fill="#F7F7F7"/>
<g clip-path="url(#clip0_0_194)">
<path d="M58.0241 52C45.7615 51.944 35.9066 42.0771 36 29.8974C36.0933 18.0347 45.5562 7.94403 58.1547 7.99999C70.8093 8.05594 80.3095 18.2959 80.1229 30.3637C79.9362 42.6554 69.7827 52.1492 58.0241 52ZM58.1174 21.7465C55.971 21.7465 53.8246 21.7278 51.6782 21.7465C49.6251 21.7838 48.4679 23.7236 49.4011 25.5515C49.6624 26.0737 49.9797 26.5774 50.2783 27.081C52.5554 31.0352 54.8138 34.9894 57.0909 38.925C57.6695 39.9322 58.4534 39.9881 59.0133 39.0555C61.6077 34.6537 64.2021 30.2331 66.7218 25.794C67.8416 23.8169 66.5538 21.7465 64.2767 21.7092C62.2236 21.7278 60.1705 21.7465 58.1174 21.7465Z" fill="#1388C9"/>
<path d="M138.132 29.1886C137.89 29.6176 138.002 29.9906 138.002 30.345C137.983 33.721 137.983 37.0784 138.002 40.4544C138.002 41.0326 137.927 41.331 137.236 41.3124C135.967 41.2564 134.679 41.2751 133.41 41.3124C132.832 41.331 132.645 41.1445 132.645 40.5476C132.664 33.9262 132.664 27.2861 132.645 20.6646C132.645 20.0678 132.832 19.844 133.41 19.9186C133.485 19.9372 133.559 19.9372 133.634 19.9186C135.986 19.4896 137.535 20.4408 138.916 22.3806C141.193 25.5701 143.806 28.5171 146.27 31.576C146.382 31.7066 146.494 31.8372 146.774 32.1356C146.774 29.114 146.755 26.3162 146.793 23.5184C146.811 22.3433 146.289 20.7579 147.017 20.0864C147.651 19.5082 149.219 19.9186 150.376 19.8999C150.637 19.8999 150.899 19.9186 151.16 19.8999C151.757 19.8253 152 19.9932 152 20.6646C151.981 27.2861 151.981 33.9262 152 40.5476C152 41.1632 151.795 41.2751 151.235 41.2751C147.987 41.3497 147.968 41.3683 145.953 38.869C143.47 35.7727 140.988 32.6952 138.506 29.5989C138.394 29.487 138.282 29.3565 138.132 29.1886Z" fill="#1388C9"/>
<path d="M129.323 30.8486C129.323 35.4184 127.046 39.2793 123.089 40.7715C118.143 42.6367 111.367 41.6481 108.717 35.7914C106.496 30.8486 107.802 24.507 111.741 21.5413C113.476 20.2543 115.455 19.6948 117.583 19.5642C122.473 19.2658 126.784 21.2429 128.613 26.1484C129.155 27.6032 129.285 29.0767 129.323 30.8486ZM123.443 30.6062C123.481 29.3192 123.331 28.0695 122.809 26.8944C122.006 25.0665 120.401 24.1339 118.217 24.2085C116.257 24.2645 114.82 25.2904 114.13 27.1369C113.476 28.8902 113.458 30.6994 113.719 32.5273C114.074 35.1573 115.698 36.78 118.255 36.9292C120.83 37.0784 122.547 35.6982 123.201 33.0496C123.387 32.2475 123.425 31.4269 123.443 30.6062Z" fill="#1388C9"/>
<path d="M97.9102 19.9187C100.691 19.9187 103.454 19.9373 106.235 19.9C106.925 19.9 107.28 19.9933 107.186 20.7953C107.056 21.9704 107.672 23.5558 106.944 24.2273C106.309 24.8055 104.741 24.3951 103.584 24.4138C102.651 24.4324 101.419 24.0967 100.878 24.563C100.243 25.1039 100.691 26.3909 100.673 27.3421C100.654 31.6881 100.635 36.034 100.673 40.3612C100.673 41.1073 100.467 41.3125 99.7393 41.2752C98.4701 41.2192 97.1823 41.2006 95.9131 41.2752C95.1479 41.3125 94.9985 41.0513 94.9985 40.3426C95.0359 35.3625 94.9985 30.3824 95.0359 25.4023C95.0359 24.5444 94.7932 24.3392 93.972 24.3765C92.4042 24.4511 90.8177 24.3765 89.2499 24.4138C88.6899 24.4324 88.4473 24.2832 88.4846 23.6677C88.5406 22.7351 88.5593 21.7839 88.4846 20.8699C88.4286 20.1052 88.6339 19.8627 89.4552 19.8814C92.2922 19.956 95.0919 19.9187 97.9102 19.9187Z" fill="#1388C9"/>
<path d="M58.1175 21.7465C60.1706 21.7465 62.2237 21.7279 64.2767 21.7465C66.5538 21.7652 67.8603 23.8355 66.7218 25.8313C64.2021 30.2705 61.5891 34.6723 59.0134 39.0928C58.4721 40.0254 57.6695 39.9508 57.0909 38.9623C54.8138 35.0267 52.5554 31.0725 50.2784 27.1183C49.9797 26.6147 49.6624 26.1111 49.4011 25.5888C48.4679 23.7609 49.6251 21.8211 51.6782 21.7838C53.8246 21.7092 55.971 21.7465 58.1175 21.7465ZM59.032 34.8215C59.1067 34.8402 59.1627 34.8588 59.2373 34.8775C61.1784 31.5388 63.1382 28.2187 65.0607 24.8614C65.4339 24.2086 65.0607 23.649 64.2581 23.6304C62.7089 23.5931 61.1598 23.6304 59.6106 23.6117C59.144 23.6117 59.032 23.7982 59.032 24.2272C59.0507 27.7711 59.032 31.2963 59.032 34.8215ZM56.9416 34.8588C57.0162 34.8402 57.0909 34.8215 57.1469 34.8215C57.1469 31.259 57.1469 27.7151 57.1469 24.1526C57.1469 23.7982 57.0162 23.649 56.643 23.649C55.0191 23.649 53.414 23.6304 51.7902 23.6677C51.0436 23.6863 50.7823 24.1526 51.1556 24.7868C53.078 28.1441 55.0191 31.5015 56.9416 34.8588Z" fill="#FAFAFA"/>
<path d="M59.032 34.8216C59.032 31.2963 59.032 27.7711 59.032 24.2459C59.032 23.8355 59.144 23.6304 59.6106 23.6304C61.1598 23.649 62.7089 23.6117 64.2581 23.649C65.0607 23.6677 65.4526 24.2272 65.0607 24.8801C63.1382 28.2188 61.1784 31.5575 59.2373 34.8962C59.1627 34.8589 59.1067 34.8402 59.032 34.8216Z" fill="#1388C9"/>
<path d="M56.9416 34.8589C55.0191 31.5015 53.078 28.1442 51.1743 24.7868C50.801 24.1527 51.0809 23.6677 51.8088 23.6677C53.414 23.6304 55.0378 23.6677 56.6616 23.649C57.0162 23.649 57.1656 23.7983 57.1656 24.1527C57.1656 27.7152 57.1656 31.2591 57.1656 34.8216C57.0722 34.8216 57.0162 34.8402 56.9416 34.8589Z" fill="#1388C9"/>
</g>
</g>
<defs>
<filter id="filter0_d_0_194" x="0" y="0" width="188" height="68" filterUnits="userSpaceOnUse" color-interpolation-filters="sRGB">
<feFlood flood-opacity="0" result="BackgroundImageFix"/>
<feColorMatrix in="SourceAlpha" type="matrix" values="0 0 0 0 0 0 0 0 0 0 0 0 0 0 0 0 0 0 127 0" result="hardAlpha"/>
<feOffset dy="4"/>
<feGaussianBlur stdDeviation="2"/>
<feComposite in2="hardAlpha" operator="out"/>
<feColorMatrix type="matrix" values="0 0 0 0 0 0 0 0 0 0 0 0 0 0 0 0 0 0 0.25 0"/>
<feBlend mode="normal" in2="BackgroundImageFix" result="effect1_dropShadow_0_194"/>
<feBlend mode="normal" in="SourceGraphic" in2="effect1_dropShadow_0_194" result="shape"/>
</filter>
<clipPath id="clip0_0_194">
<rect width="116" height="44" fill="white" transform="translate(36 8)"/>
</clipPath>
</defs>
</svg>
