<svg id="graphics" xmlns="http://www.w3.org/2000/svg" width="152.799" height="41.584" viewBox="0 0 152.799 41.584">
  <g id="Group_13150" data-name="Group 13150" transform="translate(54.263 6.864)">
    <path id="Path_4818" data-name="Path 4818" d="M784.525,103.78v27.872h-6.35L767.1,116.527v15.13H759.66V103.78h6.72l10.7,14.623V103.78Z" transform="translate(-759.66 -103.78)" fill="#0b1623"/>
    <path id="Path_4819" data-name="Path 4819" d="M1145.618,110.728v4.436h8.957v6.72h-8.957v9.767h-7.747V103.78h17.738v6.948Z" transform="translate(-1110.503 -103.78)" fill="#0b1623"/>
    <path id="Path_4820" data-name="Path 4820" d="M1437.283,110.7h-7.572v20.959H1422V110.7h-7.572V103.78h22.856Z" transform="translate(-1367.051 -103.78)" fill="#0b1623"/>
    <path id="Path_4821" data-name="Path 4821" d="M1792.312,117.693c0,8.134-5.972,13.959-14.389,13.959h-11.281V103.78h11.281C1786.359,103.78,1792.312,109.549,1792.312,117.693Zm-7.872,0a6.5,6.5,0,0,0-6.878-6.882h-3.206v13.81h3.206a6.545,6.545,0,0,0,6.878-6.928Z" transform="translate(-1693.776 -103.78)" fill="#0b1623"/>
  </g>
  <g id="Group_13151" data-name="Group 13151" transform="translate(0 0)">
    <path id="Path_4822" data-name="Path 4822" d="M43.751,50.72A7.879,7.879,0,0,1,38,48.332Q27.65,37.953,17.287,27.59C15.5,25.8,13.707,24.032,11.94,22.23A7.665,7.665,0,0,1,14.752,9.688a7.293,7.293,0,0,1,8.086,1.737Q35.94,24.45,48.962,37.554a7.676,7.676,0,0,1-2.791,12.711,8.441,8.441,0,0,1-1.3.339C44.445,50.681,44.005,50.7,43.751,50.72Zm-.2-3.076a4.527,4.527,0,0,0,3.211-1.265,4.616,4.616,0,0,0-.01-6.681Q33.778,26.7,20.8,13.706c-.074-.074-.148-.148-.224-.218a4.611,4.611,0,0,0-6.362,6.675q3.547,3.575,7.118,7.129,9.441,9.448,18.882,18.9a4.64,4.64,0,0,0,3.343,1.45Z" transform="translate(-9.757 -9.137)" fill="#0b1623"/>
    <path id="Path_4823" data-name="Path 4823" d="M386.244,35.972a2.8,2.8,0,0,0-.2-.244q-6.357-6.361-12.719-12.719A7.688,7.688,0,0,1,378.505,9.78a7.685,7.685,0,0,1,7.749,6.552,7.9,7.9,0,0,1,.079,1.185q.008,9.073,0,18.145v.27Zm-2.993-7.418c.008-.083.014-.12.014-.157,0-3.713.037-7.427-.015-11.14a4.6,4.6,0,1,0-7.859,3.451c2.538,2.565,5.1,5.107,7.648,7.658.057.057.119.106.211.189Z" transform="translate(-344.834 -9.72)" fill="#0b1623"/>
    <path id="Path_4824" data-name="Path 4824" d="M9.823,221.23c.111.1.172.154.229.21q6.436,6.436,12.869,12.878a7.677,7.677,0,1,1-12.974,6.776,8.111,8.111,0,0,1-.12-1.336q-.012-9.1,0-18.206C9.823,221.47,9.823,221.388,9.823,221.23Zm3.091,7.438a1.165,1.165,0,0,0-.019.116c0,3.71-.031,7.421.01,11.131a4.606,4.606,0,1,0,7.883-3.383c-2.55-2.594-5.138-5.15-7.711-7.721-.041-.041-.088-.078-.162-.143Z" transform="translate(-9.817 -205.868)" fill="#0b1623"/>
  </g>
</svg>
