<svg width="92" height="16" viewBox="0 0 92 16" fill="none" xmlns="http://www.w3.org/2000/svg">
<path d="M4.36735 0.257V12.171H13.6671V0.257H18.0572V12.964C18.0649 13.3819 17.9578 13.7939 17.7474 14.155C17.5442 14.4986 17.2744 14.7981 16.9539 15.036C16.6291 15.2774 16.2635 15.4582 15.8746 15.57C15.4882 15.6845 15.0875 15.7431 14.6845 15.744H3.37496C2.95618 15.745 2.53915 15.6902 2.13482 15.581C1.74904 15.4776 1.38392 15.3084 1.05552 15.081C0.735191 14.8608 0.471486 14.5678 0.286016 14.226C0.0856715 13.8349 -0.0122905 13.3993 0.00123224 12.96V0.257H4.36735Z" fill="white"/>
<path d="M20.1918 3.037C20.1783 2.59769 20.2763 2.16212 20.4767 1.77099C20.6622 1.42926 20.9258 1.13629 21.246 0.915996C21.5741 0.688654 21.939 0.519518 22.3244 0.415996C22.7288 0.30709 23.1458 0.252278 23.5646 0.252994H34.875C35.2784 0.253994 35.6795 0.312589 36.0663 0.426997C36.4551 0.538841 36.8206 0.719714 37.1455 0.960994C37.4659 1.1989 37.7358 1.49842 37.939 1.842C38.1498 2.20335 38.2572 2.61567 38.2497 3.03399V12.962C38.2663 13.3257 38.1805 13.6867 38.002 14.004L39.8867 15.741H23.5665C23.1477 15.7419 22.7307 15.6871 22.3264 15.578C21.9409 15.4745 21.5762 15.3053 21.2481 15.078C20.9278 14.8577 20.6641 14.5647 20.4786 14.223C20.2783 13.8319 20.1802 13.3963 20.1938 12.957L20.1918 3.037ZM32.0229 8.496L33.8587 10.207V3.82599H24.5579V12.166H29.3697L25.3024 8.49299L32.0229 8.496Z" fill="white"/>
<path d="M44.8963 0.257V12.171H54.1971V0.257H58.5873V12.964C58.5951 13.3819 58.4878 13.7939 58.2774 14.155C58.0745 14.4994 57.8048 14.7996 57.484 15.038C57.1592 15.2793 56.7935 15.4602 56.4047 15.572C56.0183 15.6866 55.6175 15.7451 55.2145 15.746H43.905C43.4863 15.7469 43.0692 15.6921 42.6649 15.583C42.2791 15.4796 41.9139 15.3104 41.5855 15.083C41.2652 14.8628 41.0015 14.5698 40.816 14.228C40.6157 13.8369 40.5178 13.4013 40.5313 12.962V0.257H44.8963Z" fill="white"/>
<path d="M60.7188 12.269H64.0916V3.732H60.7188V0.257H71.8303V3.732H68.4576V12.269H71.8303V15.744H60.7188V12.269Z" fill="white"/>
<path d="M73.9631 6.707H78.4001V12.118H87.0303L87.43 11.818V4.025L87.0303 3.72499H73.9631V0.257H89.8114C90.0774 0.262154 90.3377 0.334751 90.568 0.467999C90.8268 0.60957 91.0626 0.789616 91.2675 1.002C91.4715 1.21362 91.6466 1.45135 91.7881 1.709C91.9189 1.9317 91.9914 2.18381 91.9989 2.442V12.791C92.0103 13.2571 91.9303 13.7208 91.7633 14.156C91.6263 14.5072 91.4097 14.8218 91.1306 15.075C90.8707 15.304 90.5666 15.4772 90.2372 15.584C89.9008 15.693 89.5494 15.748 89.1959 15.747H73.9631V6.707Z" fill="white"/>
</svg>
