<svg width="161" height="27" viewBox="0 0 161 27" fill="none" xmlns="http://www.w3.org/2000/svg">
<path d="M7.61563 0.00692368V20.7684H23.8323V0.00692368H31.4876V22.1502C31.5011 22.8785 31.3142 23.5964 30.9474 24.2257C30.5929 24.8244 30.1225 25.3463 29.5637 25.7609C28.9973 26.1815 28.3598 26.4967 27.6817 26.6915C27.0079 26.891 26.309 26.9932 25.6063 26.9947H5.88515C5.15488 26.9964 4.42769 26.9009 3.72263 26.7106C3.04992 26.5304 2.41324 26.2357 1.84059 25.8393C1.282 25.4555 0.822162 24.945 0.498745 24.3494C0.149391 23.6678 -0.0214318 22.9088 0.00214874 22.1433V0.00692368H7.61563Z" fill="#DE3431"/>
<path d="M35.2098 4.85144C35.1862 4.0859 35.3572 3.32687 35.7065 2.64529C36.03 2.04979 36.4896 1.53925 37.0481 1.15536C37.6203 0.759197 38.2565 0.46446 38.9286 0.284061C39.6337 0.0942813 40.3609 -0.00123503 41.0911 1.20549e-05H60.8139C61.5172 0.00175563 62.2167 0.103862 62.8912 0.303232C63.5692 0.498132 64.2066 0.813323 64.7731 1.23378C65.3319 1.64835 65.8024 2.1703 66.1568 2.76902C66.5243 3.39871 66.7116 4.11724 66.6986 4.8462V22.1468C66.7275 22.7806 66.5779 23.4098 66.2666 23.9626L69.5531 26.9895H41.0945C40.3643 26.9911 39.6371 26.8956 38.932 26.7055C38.2599 26.5251 37.6239 26.2303 37.0518 25.8342C36.4933 25.4503 36.0334 24.9397 35.7099 24.3442C35.3606 23.6627 35.1896 22.9036 35.2132 22.1381L35.2098 4.85144ZM55.8405 14.3643L59.0418 17.3459V6.22635H42.8233V20.7597H51.2139L44.1215 14.3591L55.8405 14.3643Z" fill="#DE3431"/>
<path d="M78.2887 0.00698471V20.7684H94.5072V0.00698471H102.163V22.1503C102.176 22.8786 101.989 23.5965 101.622 24.2257C101.268 24.8259 100.798 25.3491 100.239 25.7645C99.6723 26.185 99.0346 26.5002 98.3566 26.695C97.6828 26.8946 96.984 26.9968 96.2813 26.9982H76.5602C75.8299 26.9998 75.1027 26.9043 74.3976 26.7142C73.7249 26.534 73.0881 26.2392 72.5155 25.8429C71.9569 25.4591 71.4971 24.9485 71.1736 24.353C70.8243 23.6714 70.6536 22.9124 70.6772 22.1468V0.00698471H78.2887Z" fill="#DE3431"/>
<path d="M105.879 20.9392H111.761V6.06254H105.879V0.00698471H125.255V6.06254H119.374V20.9392H125.255V26.9948H105.879V20.9392Z" fill="#DE3431"/>
<path d="M128.974 11.2468H136.711V20.6761H151.761L152.457 20.1533V6.57313L151.761 6.05034H128.974V0.00698471H156.61C157.074 0.0159655 157.528 0.142474 157.93 0.374672C158.381 0.621377 158.792 0.935125 159.149 1.30522C159.505 1.674 159.81 2.08828 160.057 2.53724C160.285 2.92533 160.412 3.36466 160.425 3.81458V21.8488C160.445 22.661 160.305 23.4691 160.014 24.2275C159.775 24.8395 159.397 25.3877 158.911 25.8289C158.457 26.228 157.927 26.5299 157.353 26.7159C156.766 26.9059 156.153 27.0017 155.537 27H128.974V11.2468Z" fill="#DE3431"/>
</svg>
