<svg xmlns="http://www.w3.org/2000/svg" width="35" height="35" viewBox="0 0 35 35">
  <g id="Group_52" data-name="Group 52" transform="translate(-997 -8730)">
    <circle id="Ellipse_27" data-name="Ellipse 27" cx="17.5" cy="17.5" r="17.5" transform="translate(997 8730)" fill="#191919"/>
    <path id="Path_1242" data-name="Path 1242" d="M12.458,17.582a1.891,1.891,0,0,1,1.17.2,3.073,3.073,0,0,0,4.15-4.15,1.891,1.891,0,0,1-.2-1.17A6.146,6.146,0,0,0,10.56,5.436a1.891,1.891,0,0,1-1.17-.2,3.073,3.073,0,0,0-4.15,4.151,1.891,1.891,0,0,1,.2,1.17,6.146,6.146,0,0,0,7.022,7.022Zm-.949,1.964a8.037,8.037,0,0,1-7.942-9.275,4.964,4.964,0,0,1,6.7-6.7,8.037,8.037,0,0,1,9.181,9.181,4.964,4.964,0,0,1-6.7,6.7A8.109,8.109,0,0,1,11.509,19.546Zm.05-3.309c-2.65,0-3.832-1.3-3.832-2.282A.832.832,0,0,1,8.6,13.1c1.135,0,.839,1.631,2.955,1.631,1.081,0,1.679-.59,1.679-1.192,0-.363-.178-.764-.892-.942l-2.354-.589C8.1,11.533,7.752,10.5,7.752,9.54c0-2,1.883-2.758,3.653-2.758,1.626,0,3.551.9,3.551,2.107A.868.868,0,0,1,14,9.7c-.967,0-.789-1.341-2.742-1.341-.967,0-1.509.437-1.509,1.065s.759.828,1.42.979l1.736.387c1.9.427,2.386,1.544,2.386,2.6,0,1.63-1.253,2.847-3.768,2.847Z" transform="translate(1003.494 8736.494)" fill="#fff"/>
  </g>
</svg>
