<svg xmlns="http://www.w3.org/2000/svg" width="35" height="35" viewBox="0 0 35 35">
  <g id="Group_53" data-name="Group 53" transform="translate(-1154 -8730)">
    <g id="Group_48" data-name="Group 48">
      <circle id="Ellipse_28" data-name="Ellipse 28" cx="17.5" cy="17.5" r="17.5" transform="translate(1154 8730)" fill="#191919"/>
      <path id="Path_1243" data-name="Path 1243" d="M10.516,17.328a6.812,6.812,0,1,0-4.817-2A6.813,6.813,0,0,0,10.516,17.328Zm0,1.7a8.516,8.516,0,1,1,8.516-8.516A8.515,8.515,0,0,1,10.516,19.031ZM7.867,11.512,5.74,10.849c-.46-.141-.462-.457.1-.685l8.288-3.2c.481-.2.754.052.6.673l-1.411,6.659c-.1.474-.384.588-.78.369l-2.172-1.608-1.013.978A.584.584,0,0,1,9,14.24c-.159.022-.29-.026-.387-.29l-.741-2.445-.01.007Z" transform="translate(1161 8737)" fill="#fff"/>
    </g>
  </g>
</svg>
