<svg xmlns="http://www.w3.org/2000/svg" width="35" height="35" viewBox="0 0 35 35">
  <g id="Group_50" data-name="Group 50" transform="translate(-832 -8730)">
    <g id="Group_46" data-name="Group 46">
      <g id="Group_51" data-name="Group 51">
        <circle id="Ellipse_25" data-name="Ellipse 25" cx="17.5" cy="17.5" r="17.5" transform="translate(832 8730)" fill="#191919"/>
        <path id="Path_1240" data-name="Path 1240" d="M12.108,2.234a2.443,2.443,0,0,0-2.443,2.4L9.641,5.959a.505.505,0,0,1-.573.491L7.754,6.272A9.862,9.862,0,0,1,2.775,3.914a5.527,5.527,0,0,0,2.85,6.21l1.472.925a.505.505,0,0,1,.029.836l-1.341.98a8.728,8.728,0,0,0,2.183-.11c3.974-.793,6.616-3.784,6.616-8.716A2.544,2.544,0,0,0,12.108,2.234ZM7.98,4.6a4.127,4.127,0,0,1,7.063-2.826,3.248,3.248,0,0,0,2.248-.543,6.088,6.088,0,0,1-1.023,2.806c0,6.437-3.956,9.567-7.971,10.368-2.753.549-6.755-.353-7.9-1.551A9.725,9.725,0,0,0,4.728,11.55C3.566,10.784-1.057,8.063,1.981.749a11.831,11.831,0,0,0,4.338,3.4A4.951,4.951,0,0,0,7.981,4.6Z" transform="translate(841.499 8740.783)" fill="#fff"/>
      </g>
    </g>
  </g>
</svg>
