<svg xmlns="http://www.w3.org/2000/svg" width="43" height="42" viewBox="0 0 43 42">
  <g id="Group_44" data-name="Group 44" transform="translate(-2339 -1035)">
    <g id="Rectangle_22" data-name="Rectangle 22" transform="translate(2349 1035)" fill="#fff" stroke="#000" stroke-width="4">
      <path d="M11.5,0h0A11.5,11.5,0,0,1,23,11.5V20a0,0,0,0,1,0,0H0a0,0,0,0,1,0,0V11.5A11.5,11.5,0,0,1,11.5,0Z" stroke="none"/>
      <path d="M11.5,2h0A9.5,9.5,0,0,1,21,11.5V18a0,0,0,0,1,0,0H2a0,0,0,0,1,0,0V11.5A9.5,9.5,0,0,1,11.5,2Z" fill="none"/>
    </g>
    <rect id="Rectangle_19" data-name="Rectangle 19" width="43" height="8" transform="translate(2339 1069)" fill="#040404" opacity="0.4"/>
    <rect id="Rectangle_21" data-name="Rectangle 21" width="43" height="18" transform="translate(2339 1049)" fill="#040404"/>
  </g>
</svg>
