<svg xmlns="http://www.w3.org/2000/svg" width="43" height="41" viewBox="0 0 43 41">
  <g id="Group_6" data-name="Group 6" transform="translate(-35 -1036)">
    <path id="Polygon_8" data-name="Polygon 8" d="M21.5,0l5.375,15.247L43,15.661,30.2,25.5,34.788,41,21.5,31.832,8.212,41,12.8,25.5,0,15.661l16.125-.413Z" transform="translate(35 1036)" fill="#040404"/>
    <path id="Polygon_9" data-name="Polygon 9" d="M5,0,6.25,3.719l3.75.1-2.977,2.4L8.09,10,5,7.764,1.91,10,2.977,6.219,0,3.82l3.75-.1Z" transform="translate(68 1059)" fill="#040404" opacity="0.4"/>
    <path id="Polygon_10" data-name="Polygon 10" d="M5,0,6.25,3.719l3.75.1-2.977,2.4L8.09,10,5,7.764,1.91,10,2.977,6.219,0,3.82l3.75-.1Z" transform="translate(35 1059)" fill="#040404" opacity="0.4"/>
  </g>
</svg>
