<svg width="3" height="176" viewBox="0 0 3 176" fill="none" xmlns="http://www.w3.org/2000/svg">
<g opacity="0.22">
<path d="M1.5278 108.023L0.964355 108.023L0.964356 114.833L1.5278 114.833L1.5278 108.023Z" fill="#4A4A4A" stroke="#DDDDDD"/>
<path d="M1.5278 123.641L0.964355 123.641L0.964356 130.449L1.5278 130.449L1.5278 123.641Z" fill="#4A4A4A" stroke="#DDDDDD"/>
<path d="M1.5278 154.878L0.964355 154.878L0.964356 161.689L1.5278 161.689L1.5278 154.878Z" fill="#4A4A4A" stroke="#DDDDDD"/>
<path d="M1.5278 139.26L0.964355 139.26L0.964356 146.068L1.5278 146.068L1.5278 139.26Z" fill="#4A4A4A" stroke="#DDDDDD"/>
<path d="M1.5278 92.4065L0.964355 92.4065L0.964356 99.2145L1.5278 99.2145L1.5278 92.4065Z" fill="#4A4A4A" stroke="#DDDDDD"/>
<path d="M0.964356 175.399C1.16262 175.402 1.35056 175.42 1.52382 175.44C1.52514 175.441 1.52647 175.441 1.5278 175.441L1.5278 170.497L0.964355 170.497L0.964356 175.399Z" fill="#4A4A4A" stroke="#DDDDDD"/>
<path d="M1.5278 14.3113L0.964355 14.3113L0.964356 21.1218L1.5278 21.1218L1.5278 14.3113Z" fill="#4A4A4A" stroke="#DDDDDD"/>
<path d="M1.5278 76.7878L0.964355 76.7878L0.964356 83.596L1.5278 83.596L1.5278 76.7878Z" fill="#4A4A4A" stroke="#DDDDDD"/>
<path d="M1.5278 5.50546L1.5278 0.559943C1.3447 0.580289 1.15144 0.597889 0.964355 0.601412L0.964356 5.50546L1.5278 5.50546Z" fill="#4A4A4A" stroke="#DDDDDD"/>
<path d="M1.5278 29.9297L0.964355 29.9297L0.964356 36.7377L1.5278 36.7377L1.5278 29.9297Z" fill="#4A4A4A" stroke="#DDDDDD"/>
<path d="M1.5278 45.5482L0.964355 45.5482L0.964356 52.3563L1.5278 52.3563L1.5278 45.5482Z" fill="#4A4A4A" stroke="#DDDDDD"/>
<path d="M1.5278 61.1694L0.964355 61.1694L0.964356 67.9799L1.5278 67.9799L1.5278 61.1694Z" fill="#4A4A4A" stroke="#DDDDDD"/>
</g>
</svg>
