<svg width="51" height="51" viewBox="0 0 51 51" fill="none" xmlns="http://www.w3.org/2000/svg">
<g id="Frame" clip-path="url(#clip0_103_10104)">
<g id="Group">
<path id="Vector" opacity="0.6" d="M5.76506 28.7001L12.3154 5.59709C12.509 4.91421 12.966 4.33623 13.5858 3.99026C14.2056 3.6443 14.9374 3.55869 15.6203 3.75228L19.6156 4.885C19.9089 4.96484 20.1655 5.14369 20.342 5.3912C20.5184 5.63871 20.6038 5.93964 20.5837 6.24294C20.5039 7.24157 20.7058 8.24253 21.1664 9.13217C21.627 10.0218 22.3278 10.7645 23.1893 11.2758L24.5141 12.7899L7.00755 30.2965L5.76506 28.7001Z" fill="#F7C331"/>
<path id="Vector_2" d="M35.3964 17.9946C36.2724 18.8705 37.425 19.4157 38.6578 19.5373C39.8906 19.6589 41.1274 19.3495 42.1577 18.6617C42.412 18.4956 42.716 18.4227 43.0179 18.4555C43.3198 18.4883 43.6011 18.6247 43.8138 18.8415L46.752 21.7798C47.254 22.2817 47.536 22.9625 47.536 23.6724C47.536 24.3822 47.254 25.063 46.752 25.565L23.0945 49.2225C22.5926 49.7245 21.9118 50.0064 21.2019 50.0064C20.492 50.0064 19.8112 49.7245 19.3093 49.2225L4.16848 34.0817C3.66653 33.5797 3.38454 32.899 3.38454 32.1891C3.38454 31.4792 3.66653 30.7984 4.16848 30.2965L27.826 6.63896C28.328 6.13701 29.0087 5.85502 29.7186 5.85502C30.4285 5.85502 31.1093 6.13701 31.6112 6.63896L34.5495 9.57722C34.7663 9.78991 34.9027 10.0712 34.9355 10.3731C34.9682 10.675 34.8954 10.979 34.7293 11.2332C34.0415 12.2636 33.732 13.5004 33.8537 14.7332C33.9753 15.966 34.5205 17.1186 35.3964 17.9946Z" fill="#E5354B"/>
<g id="Group_2">
<path id="Vector_3" d="M40.1277 29.3503L41.5471 30.7698L40.6008 31.7161L39.1814 30.2966C39.0559 30.1711 38.9854 30.0009 38.9854 29.8235C38.9854 29.646 39.0559 29.4758 39.1814 29.3503C39.3069 29.2248 39.4771 29.1543 39.6545 29.1543C39.832 29.1543 40.0022 29.2248 40.1277 29.3503ZM36.3425 26.5114C36.217 26.6369 36.1465 26.8071 36.1465 26.9846C36.1465 27.162 36.217 27.3322 36.3425 27.4577L37.2888 28.404C37.4143 28.5295 37.5845 28.6 37.7619 28.6C37.9394 28.6 38.1096 28.5295 38.2351 28.404C38.3606 28.2785 38.4311 28.1083 38.4311 27.9309C38.4311 27.7534 38.3606 27.5832 38.2351 27.4577L37.2888 26.5114C37.1633 26.3859 36.9931 26.3154 36.8156 26.3154C36.6382 26.3154 36.468 26.3859 36.3425 26.5114ZM33.5036 23.6725C33.3781 23.798 33.3076 23.9682 33.3076 24.1457C33.3076 24.3231 33.3781 24.4933 33.5036 24.6188L34.4499 25.5651C34.5754 25.6906 34.7456 25.7611 34.923 25.7611C35.1005 25.7611 35.2707 25.6906 35.3962 25.5651C35.5217 25.4396 35.5922 25.2694 35.5922 25.092C35.5922 24.9145 35.5217 24.7443 35.3962 24.6188L34.4499 23.6725C34.3244 23.547 34.1542 23.4765 33.9767 23.4765C33.7993 23.4765 33.6291 23.547 33.5036 23.6725ZM30.6647 20.8336C30.5392 20.9591 30.4687 21.1293 30.4687 21.3067C30.4687 21.4842 30.5392 21.6544 30.6647 21.7799L31.611 22.7262C31.7365 22.8517 31.9067 22.9222 32.0841 22.9222C32.2616 22.9222 32.4318 22.8517 32.5573 22.7262C32.6828 22.6007 32.7533 22.4305 32.7533 22.253C32.7533 22.0756 32.6828 21.9054 32.5573 21.7799L31.611 20.8336C31.4855 20.7081 31.3153 20.6376 31.1378 20.6376C30.9603 20.6376 30.7902 20.7081 30.6647 20.8336ZM27.8258 17.9947C27.7003 18.1202 27.6298 18.2904 27.6298 18.4678C27.6298 18.6453 27.7003 18.8155 27.8258 18.941L28.7721 19.8873C28.8976 20.0128 29.0677 20.0833 29.2452 20.0833C29.4227 20.0833 29.5929 20.0128 29.7184 19.8873C29.8439 19.7618 29.9143 19.5916 29.9143 19.4141C29.9143 19.2367 29.8439 19.0665 29.7184 18.941L28.7721 17.9947C28.6466 17.8692 28.4764 17.7987 28.2989 17.7987C28.1214 17.7987 27.9512 17.8692 27.8258 17.9947ZM24.9869 15.1558C24.8614 15.2813 24.7909 15.4515 24.7909 15.6289C24.7909 15.8064 24.8614 15.9766 24.9869 16.1021L25.9332 17.0484C26.0586 17.1739 26.2288 17.2444 26.4063 17.2444C26.5838 17.2444 26.754 17.1739 26.8795 17.0484C27.0049 16.9229 27.0754 16.7527 27.0754 16.5752C27.0754 16.3978 27.0049 16.2276 26.8795 16.1021L25.9332 15.1558C25.8077 15.0303 25.6375 14.9598 25.46 14.9598C25.2825 14.9598 25.1123 15.0303 24.9869 15.1558ZM22.6211 11.8437L24.0406 13.2632C24.166 13.3887 24.2365 13.5589 24.2365 13.7363C24.2365 13.9138 24.166 14.084 24.0406 14.2095C23.9151 14.335 23.7449 14.4055 23.5674 14.4055C23.3899 14.4055 23.2197 14.335 23.0943 14.2095L21.6748 12.79L22.6211 11.8437Z" fill="#C12748"/>
</g>
<path id="Vector_4" d="M23.0949 42.5984C23.0013 42.6919 22.8821 42.7556 22.7523 42.7814C22.6225 42.8072 22.488 42.794 22.3657 42.7433C22.2435 42.6927 22.139 42.607 22.0655 42.4969C21.992 42.3869 21.9527 42.2576 21.9527 42.1253L21.9527 21.3066C21.9557 21.1312 22.0276 20.964 22.1527 20.841C22.2778 20.718 22.4463 20.6491 22.6217 20.6491C22.7972 20.6491 22.9656 20.718 23.0908 20.841C23.2159 20.964 23.2877 21.1312 23.2908 21.3066L23.2908 42.1253C23.2908 42.3027 23.2203 42.4729 23.0949 42.5984ZM18.3634 34.0817C17.8955 34.5496 17.2993 34.8682 16.6503 34.9973C16.0013 35.1264 15.3286 35.0602 14.7173 34.8069C14.1059 34.5537 13.5834 34.1249 13.2158 33.5747C12.8482 33.0245 12.6519 32.3777 12.6519 31.7159C12.6519 31.0542 12.8482 30.4074 13.2158 29.8572C13.5834 29.307 14.1059 28.8782 14.7173 28.6249C15.3286 28.3717 16.0013 28.3055 16.6503 28.4345C17.2993 28.5636 17.8955 28.8823 18.3634 29.3502C18.9898 29.9781 19.3416 30.8289 19.3416 31.7159C19.3416 32.6029 18.9898 33.4537 18.3634 34.0817ZM14.5782 30.2965C14.2974 30.5772 14.1062 30.9349 14.0288 31.3243C13.9513 31.7137 13.9911 32.1173 14.143 32.4841C14.295 32.8509 14.5522 33.1645 14.8824 33.385C15.2125 33.6056 15.6006 33.7233 15.9976 33.7233C16.3946 33.7233 16.7828 33.6056 17.1129 33.385C17.443 33.1645 17.7003 32.8509 17.8522 32.4841C18.0042 32.1173 18.0439 31.7137 17.9665 31.3243C17.889 30.9349 17.6978 30.5772 17.4171 30.2965C17.0406 29.92 16.53 29.7085 15.9976 29.7085C15.4652 29.7085 14.9546 29.92 14.5782 30.2965ZM31.6116 34.0817C31.1437 34.5496 30.5475 34.8682 29.8985 34.9973C29.2495 35.1264 28.5768 35.0602 27.9655 34.8069C27.3542 34.5537 26.8316 34.1249 26.464 33.5747C26.0964 33.0245 25.9002 32.3777 25.9002 31.7159C25.9002 31.0542 26.0964 30.4074 26.464 29.8572C26.8316 29.307 27.3542 28.8782 27.9655 28.6249C28.5768 28.3717 29.2495 28.3055 29.8985 28.4345C30.5475 28.5636 31.1437 28.8823 31.6116 29.3502C32.238 29.9781 32.5899 30.8289 32.5899 31.7159C32.5899 32.6029 32.238 33.4537 31.6116 34.0817ZM27.8264 30.2965C27.5456 30.5772 27.3545 30.9349 27.277 31.3243C27.1995 31.7137 27.2393 32.1173 27.3912 32.4841C27.5432 32.851 27.8005 33.1645 28.1306 33.385C28.4607 33.6056 28.8488 33.7233 29.2458 33.7233C29.6429 33.7233 30.031 33.6056 30.3611 33.385C30.6912 33.1645 30.9485 32.8509 31.1004 32.4841C31.2524 32.1173 31.2921 31.7137 31.2147 31.3243C31.1372 30.9349 30.946 30.5772 30.6653 30.2965C30.2888 29.92 29.7782 29.7085 29.2458 29.7085C28.7134 29.7085 28.2028 29.92 27.8264 30.2965Z" fill="white"/>
</g>
</g>
<defs>
<clipPath id="clip0_103_10104">
<rect width="50" height="50" fill="white" transform="translate(0.5 0.5)"/>
</clipPath>
</defs>
</svg>
