<svg width="36" height="37" viewBox="0 0 36 37" fill="none" xmlns="http://www.w3.org/2000/svg">
<rect width="36" height="37" fill="#1E1E1E"/>
<g id="Frame 23" clip-path="url(#clip0_0_1)">
<rect width="1920" height="7424" transform="translate(-876 -2750)" fill="#0E0909"/>
<g id="Frame 602">
<g id="Frame 600">
<g id="Frame 652">
<g id="Frame">
<g id="Group">
<g id="06-Flash sales">
<path id="Vector" d="M21.7794 35.9375C23.2154 35.9585 24.6392 35.6707 25.9543 35.0937C27.4483 34.4703 28.7213 33.4138 29.6094 32.0604C30.4976 30.707 30.9601 29.1186 30.9375 27.5C30.9375 22.4375 29.8125 21.3125 28.125 17.9375C26.4375 14.5625 28.125 11.1875 28.125 11.1875C26.7758 11.5295 25.5846 12.3236 24.75 13.4375C24.75 1.625 16.875 1.0625 16.875 1.0625C17.345 2.36718 17.4882 3.76713 17.2921 5.13994C17.096 6.51275 16.5665 7.81661 15.75 8.9375C12.9375 12.875 10.125 15.125 9 19.625C9 19.625 6.75 18.5 7.3125 16.25C7.3125 16.25 5.0625 20.1875 5.0625 26.375C5.0625 33.1599 10.4974 35.15 13.1726 35.7181C13.8841 35.8665 14.6092 35.94 15.336 35.9375H21.7794Z" fill="#FEBD55"/>
<path id="Vector_2" d="M13.9736 35.9375C13.9736 35.9375 8.1709 33.7618 8.1709 27.2334C8.1709 19.9805 13.2041 17.375 13.2041 17.375C13.2041 17.375 11.7979 19.9805 13.2486 20.7056C13.2486 20.7056 15.6758 12.8008 22.2041 10.625C22.2041 10.625 19.9243 13.0229 21.375 17.375C22.8257 21.7271 27.7403 22.7041 27.8291 27.5V28.0625C27.8862 29.6913 27.4552 31.3001 26.5916 32.6823C25.4734 34.4244 24.1825 35.9375 21.2271 35.9375H13.9736Z" fill="#FC9E20"/>
<path id="Vector_3" d="M14.625 35.9375C13.2934 35.3808 12.156 34.4431 11.3554 33.2422C10.5548 32.0414 10.1268 30.6308 10.125 29.1875C10.125 23.5625 12.9375 21.3125 12.9375 21.3125C12.9375 21.3125 12.9375 23.5625 14.0625 24.125C14.0625 24.125 15.1875 16.25 20.25 14.5625C20.25 14.5625 18.5625 15.6875 19.6875 19.0625C20.8125 22.4375 25.875 23.5625 25.875 29.1875V29.6774C25.8949 30.9954 25.5376 32.2915 24.8451 33.413C24.3701 34.2019 23.6948 34.8511 22.8877 35.2945C22.0806 35.7379 21.1706 35.9597 20.25 35.9375H14.625Z" fill="#E03E3E"/>
<g id="Group_2">
<path id="Vector_4" d="M14.6249 33.125C14.5136 33.125 14.4049 33.092 14.3124 33.0302C14.22 32.9684 14.1479 32.8805 14.1053 32.7777C14.0627 32.675 14.0516 32.5619 14.0733 32.4528C14.095 32.3437 14.1485 32.2435 14.2272 32.1648L20.9772 25.4148C21.0833 25.3123 21.2254 25.2557 21.3729 25.2569C21.5203 25.2582 21.6614 25.3174 21.7657 25.4217C21.87 25.526 21.9292 25.667 21.9304 25.8145C21.9317 25.962 21.875 26.1041 21.7726 26.2102L15.0226 32.9602C14.9171 33.0657 14.7741 33.125 14.6249 33.125ZM19.6874 33.6875C19.3536 33.6875 19.0274 33.5885 18.7499 33.4031C18.4723 33.2177 18.2561 32.9541 18.1283 32.6458C18.0006 32.3374 17.9672 31.9981 18.0323 31.6708C18.0974 31.3434 18.2581 31.0428 18.4941 30.8068C18.7301 30.5708 19.0308 30.41 19.3582 30.3449C19.6855 30.2798 20.0248 30.3132 20.3332 30.441C20.6415 30.5687 20.9051 30.785 21.0905 31.0625C21.2759 31.34 21.3749 31.6662 21.3749 32C21.3749 32.4476 21.1971 32.8768 20.8806 33.1932C20.5642 33.5097 20.1349 33.6875 19.6874 33.6875ZM19.6874 31.4375C19.5761 31.4375 19.4674 31.4705 19.3749 31.5323C19.2824 31.5941 19.2103 31.682 19.1677 31.7847C19.1251 31.8875 19.114 32.0006 19.1357 32.1097C19.1574 32.2189 19.211 32.3191 19.2896 32.3977C19.3683 32.4764 19.4685 32.53 19.5776 32.5517C19.6868 32.5734 19.7999 32.5623 19.9026 32.5197C20.0054 32.4771 20.0933 32.405 20.1551 32.3125C20.2169 32.22 20.2499 32.1113 20.2499 32C20.2499 31.8508 20.1906 31.7077 20.0851 31.6023C19.9796 31.4968 19.8366 31.4375 19.6874 31.4375ZM16.3124 28.0625C15.9786 28.0625 15.6524 27.9635 15.3749 27.7781C15.0973 27.5927 14.8811 27.3291 14.7533 27.0208C14.6256 26.7124 14.5922 26.3731 14.6573 26.0458C14.7224 25.7184 14.8831 25.4178 15.1191 25.1818C15.3551 24.9458 15.6558 24.785 15.9832 24.7199C16.3105 24.6548 16.6498 24.6882 16.9582 24.816C17.2665 24.9437 17.5301 25.16 17.7155 25.4375C17.9009 25.715 17.9999 26.0412 17.9999 26.375C17.9999 26.8226 17.8221 27.2518 17.5056 27.5682C17.1892 27.8847 16.7599 28.0625 16.3124 28.0625ZM16.3124 25.8125C16.2011 25.8125 16.0924 25.8455 15.9999 25.9073C15.9074 25.9691 15.8353 26.057 15.7927 26.1597C15.7501 26.2625 15.739 26.3756 15.7607 26.4847C15.7824 26.5939 15.836 26.6941 15.9146 26.7727C15.9933 26.8514 16.0935 26.905 16.2026 26.9267C16.3118 26.9484 16.4249 26.9373 16.5276 26.8947C16.6304 26.8521 16.7183 26.78 16.7801 26.6875C16.8419 26.595 16.8749 26.4863 16.8749 26.375C16.8749 26.2258 16.8156 26.0827 16.7101 25.9773C16.6046 25.8718 16.4616 25.8125 16.3124 25.8125Z" fill="#FBFBFB"/>
</g>
</g>
</g>
</g>
</g>
</g>
</g>
</g>
<defs>
<clipPath id="clip0_0_1">
<rect width="1920" height="7424" fill="white" transform="translate(-876 -2750)"/>
</clipPath>
</defs>
</svg>
