<svg xmlns="http://www.w3.org/2000/svg" version="1.1" xmlns:xlink="http://www.w3.org/1999/xlink" width="30" height="30" x="0" y="0" viewBox="0 0 40 40" style="enable-background:new 0 0 512 512" xml:space="preserve" class=""><g><g fill="#000" fill-rule="evenodd" clip-rule="evenodd"><path d="M3.75 10c0-.69.56-1.25 1.25-1.25h30a1.25 1.25 0 1 1 0 2.5H5c-.69 0-1.25-.56-1.25-1.25zM3.75 30c0-.69.56-1.25 1.25-1.25h30a1.25 1.25 0 1 1 0 2.5H5c-.69 0-1.25-.56-1.25-1.25zM10.417 20c0-.69.56-1.25 1.25-1.25H35a1.25 1.25 0 1 1 0 2.5H11.667c-.69 0-1.25-.56-1.25-1.25z" fill="#ffffff" opacity="1" data-original="#000000" class=""></path></g></g></svg>