<svg width="36" height="37" viewBox="0 0 36 37" fill="none" xmlns="http://www.w3.org/2000/svg">
<path fill-rule="evenodd" clip-rule="evenodd" d="M17.9861 12.6004C17.8152 12.5552 17.6338 12.5736 17.4755 12.6521C17.3172 12.7306 17.1927 12.8639 17.1252 13.0272L10.786 28.4236C10.7059 28.6173 10.7132 28.8373 10.8079 29.0252C10.9011 29.2131 11.0701 29.3515 11.2725 29.4054L20.1695 31.7622C20.3273 31.804 20.4945 31.7916 20.6444 31.7269C20.7942 31.6621 20.9178 31.5489 20.9954 31.4053L22.9881 27.7448L22.8628 31.8933C22.8579 32.0576 22.9088 32.2188 23.0072 32.3505C23.1056 32.4822 23.2457 32.5767 23.4047 32.6186L32.3002 34.9754C32.3998 35.002 32.5038 35.0071 32.6055 34.9904C32.7072 34.9737 32.8041 34.9356 32.8899 34.8786C32.9758 34.8215 33.0485 34.7469 33.1033 34.6597C33.158 34.5724 33.1936 34.4745 33.2077 34.3724L35.5033 17.9039C35.5279 17.7277 35.4871 17.5486 35.3886 17.4004C35.2901 17.2523 35.1408 17.1454 34.9688 17.0999L17.9861 12.6004Z" fill="#D99A26"/>
<path d="M15.3581 2.83915C15.4341 2.78075 15.5209 2.73791 15.6135 2.71307L19.7022 1.6308C19.8711 1.58553 20.0508 1.60313 20.2077 1.68033L27.5534 5.26652C27.705 5.34026 27.8263 5.46443 27.8964 5.61776C27.9666 5.77108 27.9813 5.94403 27.9379 6.10698L26.3633 12.0573C26.337 12.1568 26.2899 12.2497 26.2251 12.3297C26.1602 12.4098 26.0792 12.4751 25.9872 12.5215C25.8953 12.5679 25.7945 12.5943 25.6916 12.5989C25.5887 12.6034 25.486 12.5862 25.3903 12.5481L23.1719 11.6625L25.6875 20.9484C25.7125 21.0411 25.719 21.1378 25.7066 21.233C25.6942 21.3282 25.6632 21.42 25.6153 21.5032C25.5674 21.5864 25.5036 21.6594 25.4275 21.7179C25.3514 21.7764 25.2645 21.8193 25.1718 21.8443L11.0485 25.5848C10.8625 25.6343 10.6645 25.6081 10.4977 25.5121C10.3309 25.416 10.209 25.2578 10.1585 25.0721L7.63854 15.7731L6.16153 17.6405C6.09753 17.7208 6.01731 17.7867 5.9261 17.834C5.83489 17.8812 5.73475 17.9087 5.63221 17.9146C5.52966 17.9205 5.42703 17.9047 5.331 17.8683C5.23497 17.8318 5.1477 17.7755 5.0749 17.7031L0.702137 13.3289C0.582876 13.2092 0.508941 13.0518 0.492997 12.8835C0.477053 12.7153 0.520091 12.5468 0.61474 12.4068L5.16229 5.66854C5.26061 5.52263 5.4087 5.41751 5.57888 5.37285L9.6676 4.28913C9.85361 4.23975 10.0516 4.26615 10.2182 4.36254C10.3847 4.45893 10.5063 4.61744 10.5561 4.80331C10.9436 6.22788 12.2618 7.15866 13.5393 6.81927C14.8138 6.48279 15.4824 5.02909 15.0979 3.60743C15.073 3.51485 15.0666 3.41827 15.079 3.32321C15.0914 3.22815 15.1225 3.13647 15.1704 3.05341C15.2183 2.97035 15.282 2.89755 15.3581 2.83915Z" fill="#F51B29"/>
</svg>
