<svg width="24" height="24" viewBox="0 0 24 24" fill="none" xmlns="http://www.w3.org/2000/svg">
<path d="M19.7798 1.00002C19.3926 0.998674 19.0101 1.08528 18.6612 1.25329C18.3123 1.42131 18.0062 1.66635 17.7658 1.96994C17.5254 2.27352 17.3571 2.62773 17.2736 3.00583C17.1901 3.38394 17.1935 3.77608 17.2836 4.15268C16.2244 3.49987 14.8678 3.58931 13.9034 4.37551L11.382 6.42398L7.27624 4.4683L7.46251 4.09661C7.50594 4.00958 7.51304 3.90886 7.48224 3.8166C7.45143 3.72433 7.38524 3.64808 7.29823 3.6046C7.2112 3.56116 7.11048 3.55407 7.01821 3.58487C6.92595 3.61568 6.8497 3.68186 6.80622 3.76888L6.61307 4.15268L5.45712 3.60275C5.41336 3.57794 5.36497 3.56241 5.31495 3.55711C5.26493 3.55181 5.21435 3.55686 5.16637 3.57195C5.11839 3.58704 5.07403 3.61185 5.03604 3.64483C4.99806 3.6778 4.96727 3.71824 4.94559 3.76363C4.92392 3.80902 4.91181 3.85839 4.91004 3.90866C4.90826 3.95892 4.91685 4.00902 4.93527 4.05583C4.95369 4.10263 4.98155 4.14515 5.01711 4.18072C5.05267 4.2163 5.09517 4.24417 5.14197 4.26261L6.28495 4.80695L6.07114 5.23405C5.98071 5.41525 6.05421 5.63559 6.23542 5.72606C6.41662 5.81654 6.63683 5.74299 6.72747 5.56174L6.9473 5.12193L10.7514 6.93511L10.111 7.45535C9.88763 7.63775 9.69877 7.85872 9.55339 8.10778C9.04071 9.18799 9.3968 10.4808 10.3902 11.146L13.873 13.3764L10.2595 14.9831C9.96634 15.1093 9.72047 15.3248 9.55689 15.5988C9.39331 15.8729 9.32038 16.1916 9.34847 16.5095L4.75744 13.71C4.7025 13.6757 4.63944 13.6566 4.5747 13.6546C4.50996 13.6526 4.44585 13.6678 4.38889 13.6986C4.33195 13.7294 4.28417 13.7748 4.25042 13.83C4.21667 13.8853 4.19815 13.9485 4.19673 14.0132C4.19538 14.078 4.21121 14.1419 4.2426 14.1986C4.27399 14.2553 4.31983 14.3026 4.37545 14.3358L17.8409 22.5474C18.9127 23.2065 20.279 23.1411 21.2828 22.3824C21.4448 22.2609 21.4775 22.031 21.356 21.8691C21.2347 21.7071 21.0048 21.6743 20.8429 21.7958C20.0783 22.3727 19.0386 22.4224 18.2225 21.9211L11.3211 17.7121C11.3449 17.7028 11.3706 17.6988 11.3944 17.6882L16.5509 15.3951C17.5694 14.9361 18.0382 13.7506 17.6094 12.719C17.4503 12.3368 17.1776 12.0127 16.8283 11.7906L14.0745 9.84763L15.0277 9.37104L16.317 10.2676L17.4534 11.0592C18.0093 11.4581 18.7634 11.4353 19.2944 11.0035L20.5408 11.5962C20.5989 11.6239 20.6632 11.6358 20.7274 11.6307C20.7915 11.6256 20.8532 11.6037 20.9062 11.5672C20.9592 11.5307 21.0017 11.4809 21.0294 11.4228C21.057 11.3647 21.0689 11.3004 21.0638 11.2362C21.0588 11.1721 21.0369 11.1104 21.0004 11.0574C20.964 11.0044 20.9142 10.9619 20.856 10.9342L19.7148 10.3908C19.8018 10.1608 19.8287 9.9124 19.793 9.66909C19.7626 9.47244 19.6927 9.284 19.5874 9.11513C19.4822 8.94626 19.3438 8.80047 19.1806 8.68657L18.2033 8.00811L18.3134 7.98491C18.7091 7.89938 18.9605 7.50935 18.8749 7.1137L18.6551 6.09994C18.6353 6.00831 18.6044 5.92071 18.5765 5.83196C19.5196 6.33334 20.6745 6.1981 21.4763 5.49262C22.2781 4.78697 22.559 3.65864 22.1816 2.65945C21.8044 1.66056 20.8478 0.999543 19.7798 1.00002ZM18.7599 9.28783C18.8417 9.34475 18.9111 9.41775 18.9638 9.50237C19.0164 9.587 19.0513 9.68147 19.0662 9.78001C19.0811 9.87854 19.0757 9.97905 19.0505 10.0754C19.0252 10.1718 18.9806 10.2621 18.9193 10.3406C18.6545 10.6462 18.1995 10.6972 17.8734 10.458L16.9833 9.8384L16.446 9.46452L15.2663 8.64412H15.2645L14.9284 8.41017C14.7758 8.3042 14.6691 8.14423 14.63 7.96262L14.4895 7.31118C14.469 7.21703 14.4673 7.11976 14.4844 7.02494C14.5015 6.93012 14.5372 6.83961 14.5894 6.75859C14.6415 6.67757 14.709 6.60762 14.7882 6.55274C14.8674 6.49786 14.9566 6.45913 15.0507 6.43876L15.7946 6.27779C15.9925 6.235 16.1183 6.04001 16.0756 5.84218C16.0654 5.79511 16.0461 5.75049 16.0187 5.71088C15.9914 5.67127 15.9564 5.63745 15.916 5.61134C15.8755 5.58524 15.8303 5.56736 15.7829 5.55874C15.7355 5.55012 15.6869 5.55092 15.6399 5.5611L14.8962 5.72203C14.1051 5.89386 13.6024 6.67332 13.7722 7.46472L13.9125 8.1165C13.9781 8.41245 14.134 8.68072 14.3587 8.88422L13.6069 9.26063C13.5638 9.28224 13.5253 9.31201 13.4936 9.34827C13.4244 9.42823 13.3733 9.52222 13.3438 9.6238C13.3143 9.72537 13.3071 9.83212 13.3228 9.93673C13.3371 10.0381 13.3729 10.1353 13.4278 10.2217C13.4827 10.3082 13.5553 10.382 13.6409 10.4382L16.4219 12.4009C16.651 12.5442 16.8302 12.7549 16.9351 13.004C17.2103 13.667 16.9088 14.4289 16.2542 14.7239L11.0964 17.0198C11.0054 17.0603 10.907 17.0817 10.8074 17.0829C10.7078 17.0841 10.609 17.065 10.517 17.0267C10.425 16.9884 10.3418 16.9318 10.2724 16.8603C10.203 16.7888 10.149 16.7038 10.1136 16.6107C9.98921 16.2251 10.1827 15.8088 10.5576 15.6551L14.171 14.0461C14.2919 13.9922 14.3959 13.9066 14.4721 13.7984C14.5482 13.6902 14.5937 13.5635 14.6036 13.4315C14.6136 13.2996 14.5876 13.1674 14.5286 13.049C14.4695 12.9306 14.3795 12.8304 14.268 12.759L10.7855 10.5288C10.1154 10.0718 9.8672 9.20139 10.1956 8.4597C10.2953 8.29367 10.4232 8.14639 10.5737 8.02452L14.3657 4.94519C15.2393 4.23138 16.5122 4.29681 17.3079 5.09658C17.6259 5.4141 17.8453 5.81682 17.9396 6.25618L18.1594 7.26972L17.6392 7.37983C17.5342 7.40228 17.4382 7.45494 17.3628 7.53132C17.2874 7.60771 17.2361 7.70448 17.215 7.8097C17.194 7.91492 17.2042 8.024 17.2444 8.12348C17.2846 8.22297 17.3531 8.30851 17.4413 8.36957L18.7599 9.28783ZM19.7797 5.39897C18.7675 5.39897 17.9467 4.5784 17.9467 3.56615C17.9467 2.55377 18.7675 1.73316 19.7797 1.73316C20.792 1.73316 21.6127 2.55377 21.6127 3.56615C21.6114 4.57789 20.7914 5.39781 19.7797 5.39897Z" fill="#667EEA"/>
<path d="M5.29957 11.2645C5.3792 11.2645 5.45669 11.2387 5.52032 11.1908C5.58396 11.143 5.63029 11.0757 5.65231 10.9992C5.67429 10.9226 5.67075 10.841 5.64223 10.7666C5.6137 10.6923 5.56175 10.6292 5.49422 10.587L2.56164 8.75401C2.38945 8.64679 2.16293 8.69933 2.0557 8.87129C2.03016 8.91221 2.01293 8.95776 2.005 9.00534C1.99706 9.05292 1.99859 9.10159 2.00948 9.14859C2.02037 9.19558 2.04042 9.23996 2.06847 9.2792C2.09653 9.31844 2.13204 9.35176 2.17298 9.37727L5.10565 11.2103C5.164 11.246 5.23113 11.2648 5.29957 11.2645ZM4.73878 9.37576L7.6714 11.2088C7.75403 11.2603 7.85373 11.2768 7.94858 11.2548C8.04343 11.2328 8.12567 11.1741 8.1772 11.0915C8.20274 11.0506 8.21997 11.005 8.2279 10.9574C8.23582 10.9099 8.2343 10.8612 8.22341 10.8142C8.21252 10.7672 8.19247 10.7228 8.16442 10.6836C8.13637 10.6443 8.10086 10.611 8.05992 10.5855L5.12726 8.75268C4.95525 8.64528 4.72868 8.69778 4.62128 8.86996C4.59578 8.91088 4.57859 8.95643 4.57069 9.004C4.56279 9.05157 4.56434 9.10023 4.57525 9.1472C4.58616 9.19417 4.60622 9.23853 4.63428 9.27775C4.66234 9.31697 4.69784 9.35027 4.73878 9.37576Z" fill="#667EEA"/>
</svg>
