<svg width="24" height="24" viewBox="0 0 24 24" fill="none" xmlns="http://www.w3.org/2000/svg">
<path d="M5.74976 5.74978C-0.532685 12.0319 0.701536 20.1858 2.25621 21.7445C2.91434 22.4008 4.74883 22.9999 7.12242 22.9999C10.368 22.9999 14.6222 21.8785 18.2506 18.2502C24.5326 11.9681 23.2984 3.81422 21.7437 2.25551C20.1861 0.701564 12.0318 -0.532291 5.74976 5.74978ZM16.8358 1.75486C18.0777 1.75486 19.1442 1.92407 19.9298 2.1537C19.2013 2.20753 18.2513 2.34194 17.1306 2.6364L17.1057 2.61113C16.8096 2.31592 16.4986 2.03599 16.174 1.77244C16.3989 1.76182 16.6208 1.75486 16.8358 1.75486ZM21.7001 11.0606C20.9274 9.9183 19.0552 7.38174 15.6114 3.88856C16.0399 3.7287 16.4742 3.58491 16.9134 3.4575C19.6042 6.18414 21.1794 8.22958 22.0473 9.51251C21.9597 10.0344 21.8438 10.5512 21.7001 11.0606ZM15.0441 3.3198C14.6016 2.89898 14.1414 2.4971 13.6649 2.11524C14.1502 2.00537 14.6252 1.92223 15.0859 1.8651C15.5191 2.17183 15.9308 2.50798 16.3179 2.87116C15.8882 3.00578 15.4634 3.15542 15.0441 3.3198ZM6.26762 6.26764C8.36286 4.1724 10.6394 2.97773 12.7749 2.34963C13.303 2.75252 13.8127 3.17888 14.3025 3.62744C14.1491 3.69482 13.9919 3.76844 13.8348 3.84205C13.6715 3.68662 13.4635 3.58633 13.2402 3.55532C13.0169 3.52431 12.7895 3.56414 12.59 3.66919L12.453 3.74427C12.2724 3.5902 12.0457 3.50052 11.8086 3.48932C11.5714 3.47811 11.3373 3.54602 11.143 3.68237C10.9657 3.8058 10.8299 3.97987 10.7532 4.1818C10.6766 4.38373 10.6627 4.60409 10.7134 4.81405C10.5513 4.92433 10.391 5.03714 10.2325 5.15245C10.037 5.03086 9.80794 4.97459 9.57837 4.99177C9.3488 5.00896 9.13064 5.0987 8.95544 5.24804C8.79189 5.38952 8.67509 5.57726 8.62042 5.78649C8.56576 5.99572 8.57582 6.2166 8.64926 6.42C8.50936 6.54196 8.36982 6.66721 8.23138 6.79466C8.03033 6.69565 7.80332 6.66208 7.58222 6.69864C7.36111 6.73521 7.157 6.84009 6.99853 6.99856C6.84006 7.15703 6.73518 7.36114 6.69862 7.58224C6.66205 7.80335 6.69562 8.03036 6.79463 8.23141C6.66608 8.37058 6.5412 8.51012 6.41997 8.64892C6.21642 8.57574 5.99549 8.56589 5.78624 8.62067C5.57699 8.67545 5.38922 8.7923 5.24764 8.95583C5.0985 9.13107 5.0089 9.34917 4.99179 9.57865C4.97467 9.80813 5.03093 10.0371 5.15242 10.2325C5.03719 10.391 4.9245 10.5513 4.81439 10.7134C4.60429 10.6627 4.38377 10.6766 4.18172 10.7533C3.97966 10.83 3.80548 10.966 3.68198 11.1434C3.54571 11.3377 3.47788 11.5718 3.48915 11.8088C3.50042 12.0459 3.59015 12.2725 3.74424 12.453L3.66733 12.5933C3.44649 13.009 3.53255 13.506 3.84239 13.8341C3.76878 13.9912 3.6948 14.1487 3.62741 14.3025C3.17782 13.812 2.75071 13.3013 2.34741 12.772C2.97587 10.6372 4.17384 8.36143 6.26762 6.26764ZM12.861 5.5663C12.9029 5.63769 12.916 5.72236 12.8976 5.80307C12.8792 5.88377 12.8308 5.95443 12.7621 6.00066C12.6039 6.1098 12.3926 6.07097 12.2629 5.89042C12.207 5.81659 12.1252 5.76667 12.0339 5.7507C11.9427 5.73474 11.8488 5.7539 11.7711 5.80435C11.4781 5.99375 11.1928 6.19485 10.9159 6.40718C10.8774 6.43665 10.8452 6.47349 10.8211 6.51554C10.797 6.5576 10.7815 6.60403 10.7756 6.65213C10.7696 6.70023 10.7733 6.74904 10.7864 6.7957C10.7994 6.84237 10.8217 6.88596 10.8518 6.92394C10.904 6.99129 10.9288 7.07592 10.9211 7.1608C10.9135 7.24568 10.8739 7.3245 10.8104 7.38137C10.6658 7.5048 10.4504 7.48648 10.2962 7.31728C10.2319 7.25299 10.1459 7.21494 10.0551 7.21054C9.96423 7.20614 9.87499 7.2357 9.80474 7.29348C9.53135 7.51896 9.26661 7.75474 9.0111 8.00032C8.94116 8.06769 8.90071 8.16 8.89858 8.25709C8.89646 8.35418 8.93283 8.44817 8.99975 8.51854C9.06174 8.58313 9.09571 8.66958 9.09427 8.75909C9.09283 8.8486 9.0561 8.93392 8.99206 8.99648C8.92917 9.05892 8.84436 9.0943 8.75574 9.09505C8.66712 9.0958 8.58172 9.06187 8.51778 9.00051C8.44783 8.93312 8.35041 8.90382 8.25629 8.8987C8.20815 8.89974 8.1607 8.91027 8.11664 8.92969C8.07259 8.94911 8.0328 8.97704 7.99956 9.01186C7.75398 9.26737 7.5182 9.5321 7.29272 9.8055C7.1682 9.95676 7.19566 10.1897 7.34143 10.3208C7.48646 10.4512 7.50367 10.6669 7.38537 10.8061C7.32872 10.8712 7.24937 10.9122 7.16349 10.9209C7.07762 10.9295 6.99168 10.9051 6.92318 10.8526C6.84617 10.7924 6.74848 10.7651 6.65143 10.7768C6.60335 10.7826 6.55691 10.798 6.51484 10.822C6.47277 10.8461 6.43591 10.8782 6.40642 10.9167C6.19385 11.1933 5.99274 11.4786 5.80359 11.7718C5.69702 11.9359 5.75305 12.1663 5.91237 12.2805C5.98779 12.3325 6.03949 12.4124 6.0561 12.5024C6.07272 12.5925 6.0529 12.6855 6.001 12.761C5.95504 12.8302 5.88434 12.8792 5.80342 12.8978C5.72251 12.9165 5.63751 12.9034 5.56591 12.8614C5.48421 12.8127 5.38679 12.7977 5.29424 12.8196C5.2017 12.8415 5.12129 12.8985 5.07002 12.9786C5.01362 13.0665 4.96125 13.1624 4.90045 13.276C4.85502 13.3486 4.78403 13.4016 4.70146 13.4245C4.6189 13.4474 4.53075 13.4386 4.45437 13.3998C4.41477 13.379 4.37965 13.3506 4.35104 13.3163C4.32243 13.2819 4.30088 13.2423 4.28765 13.1995C4.27441 13.1568 4.26974 13.1119 4.2739 13.0674C4.27806 13.0229 4.29098 12.9796 4.31191 12.9401C4.37893 12.8167 4.44961 12.6893 4.52359 12.5662C4.57085 12.4875 4.5868 12.3938 4.56828 12.3039C4.54976 12.2139 4.49813 12.1342 4.42361 12.0806L4.3716 12.0428C4.29609 11.9906 4.24438 11.9106 4.22783 11.8203C4.21128 11.73 4.23125 11.6368 4.28334 11.5612C4.31555 11.5168 4.3579 11.4806 4.40688 11.4558C4.45586 11.4309 4.51006 11.4181 4.56498 11.4184C4.62797 11.4184 4.6906 11.4356 4.74334 11.4719C4.78352 11.4992 4.82872 11.5182 4.87632 11.528C4.92392 11.5377 4.97298 11.5378 5.02064 11.5284C5.0683 11.519 5.11363 11.5002 5.15398 11.4732C5.19433 11.4461 5.2289 11.4113 5.2557 11.3708C5.46433 11.0526 5.68334 10.7414 5.91237 10.4376C6.02737 10.2849 5.98049 10.048 5.83765 9.92087C5.76926 9.86052 5.7272 9.77579 5.72049 9.68482C5.71378 9.59385 5.74296 9.50387 5.80176 9.43414C5.85837 9.36791 5.93873 9.32658 6.02553 9.31904C6.11233 9.31151 6.19861 9.33837 6.26579 9.39385C6.3394 9.45611 6.43169 9.48468 6.53277 9.47955C6.58079 9.47554 6.62753 9.46209 6.67033 9.43997C6.71314 9.41784 6.75114 9.38749 6.78218 9.35063C7.02374 9.06583 7.27312 8.78775 7.53004 8.51671C7.66665 8.37241 7.65639 8.13875 7.51612 7.99848C7.45341 7.93401 7.41833 7.84762 7.41833 7.75768C7.41833 7.66774 7.45341 7.58135 7.51612 7.51688C7.64614 7.38614 7.86698 7.38577 8.01201 7.53043C8.08006 7.59504 8.17032 7.63106 8.26416 7.63106C8.358 7.63106 8.44826 7.59504 8.51632 7.53043C8.78771 7.27365 9.06591 7.02416 9.35061 6.78221C9.42463 6.71933 9.47071 6.62966 9.47875 6.53287C9.48678 6.43607 9.45611 6.34004 9.39346 6.26581C9.33796 6.19874 9.31104 6.11255 9.31851 6.02581C9.32597 5.93908 9.36723 5.85875 9.43338 5.80216C9.57658 5.6791 9.79412 5.69522 9.93695 5.85673C10.0622 6.00395 10.2809 6.02922 10.4372 5.91203C10.7409 5.68294 11.052 5.46394 11.37 5.25536C11.4106 5.22859 11.4454 5.19404 11.4725 5.1537C11.4996 5.11336 11.5184 5.06805 11.5279 5.02038C11.5373 4.97272 11.5372 4.92365 11.5275 4.87604C11.5178 4.82842 11.4988 4.7832 11.4715 4.743C11.3733 4.59907 11.4155 4.38445 11.5605 4.28337C11.7172 4.17386 11.9289 4.21342 12.0432 4.372L12.0802 4.42327C12.1337 4.498 12.2134 4.54979 12.3034 4.56833C12.3934 4.58686 12.4871 4.57076 12.5658 4.52325C12.6896 4.44891 12.817 4.37859 12.9375 4.31303C13.0167 4.27047 13.1094 4.26091 13.1956 4.28643C13.2818 4.31194 13.3543 4.37048 13.3975 4.44927C13.4313 4.51394 13.4437 4.58762 13.4331 4.65979C13.4224 4.73195 13.3892 4.79889 13.3382 4.85104C13.3125 4.8771 13.2821 4.89799 13.2485 4.91256L13.1954 4.94223C13.1221 4.98325 13.0481 5.02537 12.9786 5.06968C12.8985 5.12095 12.8415 5.20136 12.8196 5.2939C12.7977 5.38645 12.8127 5.48387 12.8614 5.56557L12.861 5.5663ZM2.11631 13.666C2.4979 14.1422 2.89941 14.6022 3.31977 15.0445C3.15539 15.4638 3.00575 15.8886 2.87113 16.3183C2.50783 15.931 2.17156 15.5193 1.86471 15.0859C1.92184 14.6259 2.00644 14.1502 2.11631 13.666ZM3.88817 15.6107C7.38171 19.0552 9.91864 20.9274 11.0609 21.7002C10.5516 21.8439 10.0348 21.9598 9.51285 22.0474C8.22992 21.179 6.18375 19.6035 3.45638 16.912C3.58378 16.473 3.72781 16.0387 3.88817 15.6107ZM1.77095 16.1722C2.03498 16.4974 2.3154 16.809 2.6111 17.1057L2.63637 17.1306C2.34228 18.2509 2.20787 19.201 2.15367 19.9294C1.88375 19.0072 1.69807 17.6976 1.77095 16.1722ZM2.8682 21.3065C2.8411 20.908 2.8063 19.602 3.24542 17.7287C5.10921 19.5471 6.8492 21.0439 8.43355 22.1862C5.70141 22.4334 3.54574 21.8393 2.8682 21.3065ZM17.7327 17.7324C15.8766 19.5884 13.8777 20.7384 11.9608 21.4141C11.3111 21.0091 8.472 19.1358 4.18153 14.8717C4.27968 14.6376 4.38662 14.3989 4.49979 14.1568C4.53751 14.1608 4.57523 14.1703 4.61295 14.1703C4.89056 14.1703 5.16341 14.0623 5.36997 13.8554C5.45017 13.7755 5.51024 13.6942 5.54649 13.621C5.74624 13.655 5.95155 13.6315 6.13845 13.5532C6.32535 13.475 6.48612 13.3451 6.60199 13.1789C6.73171 12.9942 6.79963 12.7732 6.79601 12.5475C6.79239 12.3219 6.71742 12.1032 6.58185 11.9227C6.65693 11.8125 6.73127 11.7066 6.80525 11.6048C7.00485 11.6671 7.21825 11.67 7.41948 11.6133C7.62071 11.5565 7.80112 11.4425 7.93876 11.2851C8.08411 11.1151 8.17293 10.9041 8.19288 10.6814C8.21283 10.4586 8.16293 10.2352 8.0501 10.0421C8.13689 9.94174 8.22772 9.83993 8.32294 9.73628C8.71811 9.90878 9.19532 9.83297 9.50992 9.51361C9.66323 9.36107 9.76688 9.16577 9.80727 8.9533C9.84766 8.74084 9.82291 8.52112 9.73625 8.32297C9.84027 8.22738 9.94208 8.13656 10.0428 8.04939C10.2367 8.16265 10.4612 8.21246 10.6848 8.19183C10.9084 8.17122 11.1199 8.0812 11.2898 7.93439C11.4459 7.79691 11.5588 7.61706 11.6146 7.41669C11.6704 7.21632 11.6669 7.00405 11.6044 6.80565C11.7059 6.73167 11.8114 6.65769 11.9216 6.58298C12.0931 6.71171 12.2993 6.78601 12.5135 6.79627C12.7277 6.80652 12.94 6.75225 13.123 6.64049C13.306 6.52873 13.4513 6.36461 13.54 6.16938C13.6287 5.97415 13.6568 5.75679 13.6206 5.54542C13.703 5.50294 13.7799 5.44544 13.8546 5.37036C13.9679 5.25732 14.0542 5.12015 14.1071 4.9691C14.16 4.81805 14.1781 4.65701 14.16 4.49798C14.395 4.3879 14.6322 4.2824 14.8713 4.18155C19.1343 8.4713 21.008 11.31 21.4134 11.9604C20.7377 13.8777 19.5881 15.8766 17.732 17.7327L17.7327 17.7324ZM22.1861 8.43284C21.0442 6.84923 19.5481 5.1096 17.7305 3.24655C19.5998 2.80963 20.9083 2.84259 21.3072 2.86859C21.84 3.54796 22.4334 5.70254 22.1861 8.43284Z" fill="#667EEA"/>
</svg>
