<svg width="24" height="24" viewBox="0 0 24 24" fill="none" xmlns="http://www.w3.org/2000/svg">
<path d="M2.21758 22.9998C1.98519 23.0041 1.76044 22.9169 1.59174 22.757C1.42305 22.5972 1.32391 22.3774 1.31571 22.1451L1.19944 19.1724C1.19134 18.9868 1.24578 18.8038 1.35404 18.6529C1.4623 18.5019 1.6181 18.3916 1.7965 18.3397L2.04475 18.2863C2.24401 18.2269 2.45832 18.2449 2.64494 18.3365C2.67081 18.3474 2.69858 18.353 2.72664 18.353C2.75471 18.353 2.78248 18.3474 2.80835 18.3365C2.83313 18.3285 2.85597 18.3154 2.87544 18.2981C2.89491 18.2808 2.91059 18.2597 2.92147 18.236C3.19036 17.6841 3.51914 17.1636 3.9019 16.6836L4.39525 17.0733C4.04121 17.5164 3.73669 17.9969 3.4871 18.5062C3.43876 18.6022 3.37196 18.6876 3.29054 18.7577C3.20912 18.8278 3.11467 18.8812 3.0126 18.9147C2.90808 18.9515 2.79731 18.967 2.68672 18.9606C2.57613 18.9541 2.46793 18.9257 2.36841 18.877C2.32096 18.8583 2.26817 18.8583 2.22072 18.877L1.98504 18.9462C1.94108 18.9577 1.90241 18.9839 1.87552 19.0205C1.84863 19.0571 1.83515 19.1019 1.83735 19.1473L1.94419 22.12C1.94593 22.1815 1.96938 22.2404 2.01038 22.2863C2.05139 22.3322 2.1073 22.3622 2.16824 22.3708C2.22918 22.3795 2.29122 22.3663 2.34338 22.3336C2.39553 22.3009 2.43446 22.2509 2.45326 22.1923C2.57581 21.8089 2.7675 21.1961 3.04717 20.4639C3.43997 19.3924 5.75905 17.1456 6.73633 16.2311C6.93514 16.0438 7.19849 15.9403 7.47165 15.942C7.55626 15.9418 7.63909 15.9178 7.71075 15.8728C7.7824 15.8278 7.84001 15.7636 7.87702 15.6875L8.031 15.3733C8.08953 15.2549 8.16943 15.1484 8.26668 15.059L11.2394 12.3157C11.281 12.2775 11.3321 12.2512 11.3874 12.2396C11.4427 12.2279 11.5001 12.2315 11.5536 12.2497L13.7533 13.0416C13.814 13.0636 13.8664 13.1038 13.9034 13.1566C13.9405 13.2095 13.9603 13.2725 13.9603 13.337C13.9603 13.4015 13.9405 13.4645 13.9034 13.5174C13.8664 13.5702 13.814 13.6104 13.7533 13.6324C12.8389 13.9592 11.7799 15.2381 11.3714 15.7724C11.2625 15.9112 11.1143 16.0139 10.9461 16.0672C10.7779 16.1205 10.5976 16.1217 10.4286 16.0709C10.3834 16.0554 10.3346 16.054 10.2886 16.0669C10.2425 16.0798 10.2015 16.1064 10.171 16.1432L10.017 16.3223C9.98487 16.3648 9.96749 16.4167 9.96749 16.47C9.96749 16.5233 9.98487 16.5751 10.017 16.6177L11.3714 18.5471C11.3769 18.5527 11.3835 18.5571 11.3908 18.5602C11.3981 18.5632 11.4059 18.5648 11.4138 18.5648C11.4217 18.5648 11.4295 18.5632 11.4368 18.5602C11.444 18.5571 11.4507 18.5527 11.4562 18.5471C11.4663 18.5409 11.4746 18.5321 11.4801 18.5215C11.4857 18.511 11.4882 18.4992 11.4876 18.4874L11.3494 16.8659C11.3444 16.8086 11.3553 16.7511 11.3808 16.6996C11.4063 16.648 11.4454 16.6045 11.4939 16.5737L15.2648 14.176C15.4111 14.0835 15.5346 13.9592 15.6264 13.8124C15.7181 13.6656 15.7756 13.5001 15.7946 13.3281C15.8136 13.156 15.7936 12.9819 15.7362 12.8186C15.6788 12.6553 15.5853 12.5071 15.4628 12.3849L13.0305 9.95579C12.9991 9.92293 12.9747 9.88392 12.959 9.84119C12.9433 9.79847 12.9367 9.75297 12.9394 9.70754C12.9434 9.66201 12.9573 9.61789 12.9801 9.57827C13.0029 9.53865 13.034 9.50448 13.0714 9.47815L15.8398 7.4953C15.9058 7.44821 15.9875 7.42846 16.0677 7.44017C16.148 7.45188 16.2206 7.49415 16.2703 7.55815L17.1439 8.67998C17.2624 8.82201 17.4309 8.91299 17.6146 8.93405C17.7984 8.95512 17.9831 8.90464 18.1306 8.79311L20.9808 6.50545C21.0119 6.48339 21.0457 6.46543 21.0813 6.45202L22.134 6.11579C22.1348 6.10218 22.1348 6.08854 22.134 6.07494C22.0741 5.93512 21.9759 5.815 21.8509 5.72831C21.7259 5.64162 21.579 5.59186 21.427 5.58472C21.2661 5.56548 21.103 5.59041 20.9552 5.65684C20.8074 5.72328 20.6804 5.8287 20.588 5.96181C20.5645 5.99558 20.5346 6.02441 20.5 6.04666L17.9861 7.65242C17.9383 7.68 17.8841 7.69452 17.829 7.69452C17.7738 7.69452 17.7196 7.68 17.6719 7.65242C17.6223 7.62528 17.5809 7.58527 17.5521 7.53661C17.5234 7.48794 17.5083 7.43242 17.5084 7.37589C17.5084 6.51173 16.3992 5.12594 15.9687 4.664C13.9858 2.70001 11.1231 2.88855 10.5669 2.93883L8.07814 5.33333C8.04425 5.36607 8.00344 5.39077 7.95872 5.40561L6.99715 5.71985V6.38918L7.52193 6.84797L7.73561 6.79454L8.06557 6.11265C8.08459 6.07057 8.11374 6.03387 8.15041 6.00581L10.6643 3.9444C10.7247 3.89521 10.8013 3.87022 10.8791 3.87429C10.9569 3.87835 11.0304 3.91118 11.0854 3.96639C11.6079 4.42628 12.275 4.68867 12.9708 4.708C13.0316 4.7084 13.091 4.72642 13.1418 4.75988C13.1925 4.79335 13.2325 4.84082 13.2568 4.89654C13.2811 4.9518 13.289 5.01289 13.2796 5.07252C13.2701 5.13215 13.2436 5.18779 13.2034 5.23278L9.4325 9.33674L7.62249 14.5154C7.60811 14.5549 7.58596 14.5911 7.55736 14.6218C7.52875 14.6526 7.49427 14.6773 7.45594 14.6945C6.63272 15.071 5.87522 15.577 5.21228 16.1934L4.77234 15.7252C5.44936 15.0867 6.22103 14.5567 7.06 14.154L8.87316 9.05707C8.88681 9.01763 8.90817 8.98131 8.93601 8.95022L12.3392 5.27049C11.8028 5.171 11.2983 4.94355 10.8686 4.60744L8.59977 6.45517L8.22897 7.20934C8.20872 7.25151 8.17931 7.28863 8.14289 7.31799C8.10646 7.34735 8.06394 7.3682 8.01843 7.37903L7.49994 7.50473C7.45118 7.51634 7.40036 7.51612 7.35171 7.5041C7.30306 7.49207 7.25799 7.46858 7.22026 7.43559L6.46609 6.77569C6.43217 6.7459 6.40507 6.70914 6.38663 6.66793C6.36819 6.62672 6.35885 6.58202 6.35925 6.53687V5.49988C6.35908 5.434 6.37962 5.36974 6.41796 5.31617C6.4563 5.2626 6.51052 5.22243 6.57293 5.20135L7.68534 4.83055L10.1992 2.41091C10.2477 2.36683 10.3076 2.33741 10.3721 2.32607C10.5166 2.30407 13.9858 1.817 16.4055 4.23664C16.5657 4.40633 17.7378 5.69785 18.0458 6.86053L20.1041 5.55016C20.2636 5.33959 20.4754 5.17432 20.7185 5.07071C20.9615 4.96709 21.2274 4.92872 21.4899 4.95939C21.752 4.98454 22.0021 5.08143 22.2127 5.23942C22.4234 5.39741 22.5864 5.61039 22.684 5.85497C22.7508 6.00997 22.7871 6.17642 22.7908 6.34518C22.7905 6.41184 22.7691 6.47669 22.7295 6.53035C22.69 6.58401 22.6344 6.62371 22.5708 6.64371L21.3139 7.04594L18.5077 9.29589C18.3706 9.40749 18.2124 9.49053 18.0427 9.54012C17.873 9.5897 17.695 9.60484 17.5193 9.58464C17.3437 9.56444 17.1738 9.5093 17.0197 9.42248C16.8657 9.33565 16.7306 9.21889 16.6223 9.07906L15.9341 8.19605L13.7219 9.80181L15.8901 11.9701C16.0787 12.1595 16.2222 12.3889 16.3101 12.6413C16.3979 12.8937 16.4279 13.1627 16.3977 13.4283C16.3675 13.6938 16.278 13.9492 16.1357 14.1755C15.9935 14.4017 15.8021 14.5931 15.5759 14.7354L11.9621 17.0293L12.0847 18.4591C12.0966 18.6104 12.0586 18.7613 11.9766 18.889C11.8946 19.0166 11.773 19.1139 11.6305 19.1659C11.4879 19.2179 11.3323 19.2219 11.1873 19.1771C11.0424 19.1323 10.9161 19.0412 10.8277 18.9179L9.48593 16.9759C9.37524 16.8184 9.3201 16.6285 9.3292 16.4362C9.33831 16.2439 9.41113 16.0601 9.5362 15.9138L9.69018 15.7315C9.80272 15.598 9.9528 15.5015 10.1209 15.4544C10.289 15.4074 10.4674 15.4119 10.6329 15.4675C10.6799 15.4834 10.7307 15.4841 10.7781 15.4694C10.8255 15.4548 10.8671 15.4255 10.8969 15.3858C11.4637 14.6221 12.1416 13.9474 12.908 13.3841L11.5568 12.9002L8.72861 15.5147C8.68658 15.5527 8.65242 15.5986 8.62805 15.6498L8.47722 15.964C8.38852 16.1463 8.25053 16.3 8.0789 16.4077C7.90727 16.5155 7.70887 16.573 7.50622 16.5737C7.44855 16.5718 7.39109 16.5814 7.33715 16.6019C7.28322 16.6224 7.23388 16.6534 7.19198 16.6931C5.67106 18.1166 3.94589 19.9109 3.66308 20.6808C3.38655 21.4004 3.20115 22.0069 3.06288 22.3714C3.00819 22.553 2.89645 22.7123 2.7442 22.8255C2.59195 22.9386 2.4073 22.9998 2.21758 22.9998Z" fill="#667EEA"/>
<path d="M9.13335 9.4926L9.22008 8.87041L13.2738 9.43541L13.1867 10.0576L9.13335 9.4926ZM18.8125 4.99081C18.4175 4.99268 18.0308 4.87724 17.7014 4.65912C17.372 4.441 17.1148 4.13001 16.9623 3.76556C16.8098 3.40112 16.769 2.99961 16.8449 2.61192C16.9208 2.22423 17.1101 1.8678 17.3888 1.58779C17.6675 1.30778 18.023 1.1168 18.4103 1.03904C18.7977 0.961277 19.1994 1.00024 19.5645 1.15099C19.9297 1.30173 20.2419 1.55748 20.4616 1.88583C20.6812 2.21417 20.7985 2.60034 20.7985 2.9954C20.7985 3.52298 20.5896 4.0291 20.2174 4.40305C19.8452 4.77699 19.3401 4.98832 18.8125 4.99081ZM18.8125 1.6316C18.5417 1.62973 18.2763 1.70839 18.0502 1.85759C17.8241 2.00679 17.6475 2.21981 17.5426 2.4696C17.4378 2.71938 17.4096 2.99468 17.4615 3.26055C17.5135 3.52641 17.6432 3.77085 17.8343 3.96284C18.0254 4.15483 18.2693 4.28571 18.5349 4.33887C18.8005 4.39203 19.0759 4.36506 19.3262 4.2614C19.5765 4.15774 19.7903 3.98206 19.9405 3.75665C20.0908 3.53125 20.1707 3.26628 20.17 2.9954C20.1692 2.63503 20.0261 2.28957 19.7719 2.03417C19.5177 1.77877 19.1729 1.63408 18.8125 1.6316Z" fill="#667EEA"/>
</svg>
