<svg width="24" height="24" viewBox="0 0 24 24" fill="none" xmlns="http://www.w3.org/2000/svg">
<path d="M16.6449 11.515L22.1375 6.02309C22.4112 5.75026 22.6283 5.4261 22.7765 5.0692C22.9246 4.7123 23.0009 4.32966 23.0009 3.94323C23.0009 3.55679 22.9246 3.17416 22.7765 2.81725C22.6283 2.46035 22.4112 2.13619 22.1375 1.86337C21.8646 1.58976 21.5403 1.37268 21.1834 1.22457C20.8264 1.07645 20.4438 1.00021 20.0573 1.00021C19.6708 1.00021 19.2881 1.07645 18.9312 1.22457C18.5742 1.37268 18.25 1.58976 17.9771 1.86337L16.082 3.75842C15.7497 2.92991 15.1726 2.2225 14.4277 1.73063C13.6828 1.23877 12.8056 0.985859 11.9131 1.00568C11.9067 1.00387 11.9002 1.0024 11.8937 1.00128C11.879 1.00263 11.8644 1.00508 11.8501 1.00862C10.9982 1.03495 10.1725 1.30914 9.47413 1.79761C8.77574 2.28609 8.23498 2.96764 7.91806 3.75878L6.02301 1.863C5.75005 1.58944 5.42581 1.3724 5.06885 1.22431C4.7119 1.07623 4.32924 1 3.94279 1C3.55633 1 3.17367 1.07623 2.81672 1.22431C2.45976 1.3724 2.13552 1.58944 1.86256 1.863C1.58879 2.13581 1.37156 2.45998 1.22334 2.81692C1.07512 3.17386 0.998826 3.55655 0.998826 3.94304C0.998826 4.32954 1.07512 4.71223 1.22334 5.06917C1.37156 5.42611 1.58879 5.75028 1.86256 6.02309L7.35372 11.5135C7.69611 11.8592 8.0717 12.1703 8.47506 12.4423L8.73687 12.6209L7.54183 14.3785L6.52794 15.3923L3.40522 18.5151L2.57614 19.3445C2.34201 19.2316 2.07547 19.2052 1.82376 19.2701C1.57206 19.335 1.35145 19.4869 1.20105 19.6989C1.05065 19.9109 0.980181 20.1693 1.00213 20.4283C1.02408 20.6873 1.13703 20.9301 1.32096 21.1138L2.88635 22.6792C3.06996 22.8634 3.3129 22.9766 3.57204 22.9987C3.83118 23.0208 4.08977 22.9503 4.30191 22.7999C4.51405 22.6494 4.66602 22.4286 4.73084 22.1768C4.79566 21.9249 4.76914 21.6582 4.65599 21.424L5.48398 20.5957L8.60597 17.4737L9.61986 16.4598L12 14.8408L14.3795 16.4583L15.3934 17.4722L18.5154 20.5942L19.3444 21.424C19.2315 21.6581 19.2052 21.9247 19.27 22.1764C19.3349 22.4281 19.4868 22.6487 19.6988 22.7991C19.9108 22.9495 20.1692 23.02 20.4282 22.998C20.6872 22.9761 20.9301 22.8631 21.1137 22.6792L22.6791 21.1138C22.8633 20.9302 22.9765 20.6873 22.9986 20.4281C23.0207 20.169 22.9503 19.9104 22.7998 19.6982C22.6493 19.4861 22.4286 19.3341 22.1767 19.2693C21.9248 19.2045 21.6581 19.231 21.4239 19.3442L20.5956 18.5162L17.4736 15.3942L16.4597 14.3803L15.2636 12.6209L15.5246 12.4431C15.9276 12.1712 16.3028 11.8603 16.6449 11.515ZM18.4974 2.38003C18.8067 2.07214 19.2001 1.86268 19.6282 1.77804C20.0563 1.69341 20.4999 1.73738 20.9031 1.90443C21.3062 2.07148 21.6509 2.35412 21.8937 2.71675C22.1365 3.07937 22.2665 3.50574 22.2673 3.94213C22.2682 4.2324 22.2113 4.51994 22.0999 4.78799C21.9885 5.05605 21.8249 5.29927 21.6186 5.50349L16.1249 10.998C15.8154 11.3097 15.4762 11.5905 15.1121 11.8362L9.43322 15.6989L8.30125 14.5669L9.54799 12.7335L11.56 9.77504C11.7067 9.78971 11.8534 9.79778 12 9.79778C12.029 9.79778 12.058 9.79411 12.0869 9.79375C12.0935 9.79375 12.0994 9.79815 12.1064 9.79815H12.117C12.1306 9.79631 12.1441 9.79338 12.1573 9.79008C13.27 9.7544 14.3273 9.296 15.1139 8.5082C15.9004 7.72039 16.3572 6.66243 16.3911 5.54969C16.3948 5.53502 16.3981 5.52072 16.4003 5.50605C16.4003 5.49909 16.3963 5.49322 16.3959 5.48662C16.4032 5.17567 16.3776 4.86508 16.3196 4.55963L18.4974 2.38003ZM8.34818 16.6937L7.30642 15.652L7.82859 15.1298L8.87145 16.1727L8.34818 16.6937ZM7.30642 17.7359L6.26429 16.6937L6.78682 16.1712L7.82969 17.2141L7.30642 17.7359ZM6.26613 18.7765L5.22363 17.734L5.74579 17.2115L6.78866 18.2544L6.26613 18.7765ZM5.22546 19.8175L4.1826 18.7747L4.70476 18.2525L5.74763 19.2972L5.22546 19.8175ZM12.6901 8.33542C12.7765 8.37305 12.8742 8.37487 12.9618 8.3405C13.0495 8.30612 13.1199 8.23835 13.1577 8.15208C13.1967 8.0675 13.2019 7.97117 13.1721 7.88291C13.1423 7.79464 13.0798 7.72116 12.9974 7.67758C13.0906 7.51844 13.1958 7.36663 13.312 7.22362C13.3811 7.28661 13.4718 7.32056 13.5653 7.31841C13.6587 7.31625 13.7478 7.27817 13.8139 7.21207C13.88 7.14597 13.918 7.05694 13.9202 6.96348C13.9223 6.87002 13.8884 6.77933 13.8254 6.71026C13.9684 6.59439 14.1195 6.48951 14.2783 6.39637C14.3223 6.47824 14.396 6.54013 14.4843 6.56934C14.5726 6.59855 14.6687 6.59286 14.7528 6.55344C14.837 6.51402 14.9029 6.44386 14.937 6.35737C14.9711 6.27087 14.9708 6.17461 14.9361 6.08836C15.1594 6.01006 15.3898 5.95369 15.624 5.92005C15.5147 6.70418 15.1527 7.43129 14.5929 7.99112C14.0331 8.55095 13.306 8.91295 12.5218 9.02223C12.5556 8.78839 12.6119 8.55837 12.6901 8.33542ZM15.6545 5.1797C15.3035 5.21967 14.9588 5.30181 14.6277 5.42428L14.6197 5.40705C14.5998 5.36268 14.5712 5.3227 14.5358 5.28946C14.5003 5.25621 14.4585 5.23036 14.413 5.2134C14.3674 5.19644 14.3189 5.18871 14.2703 5.19067C14.2217 5.19263 14.174 5.20423 14.1299 5.22481C14.0859 5.24538 14.0463 5.27451 14.0136 5.3105C13.9809 5.34649 13.9557 5.38863 13.9395 5.43446C13.9232 5.48029 13.9162 5.52889 13.9189 5.57744C13.9216 5.626 13.934 5.67353 13.9552 5.71727L13.9626 5.73304C13.7304 5.86578 13.5115 6.01905 13.3073 6.19176L13.2952 6.17966C13.226 6.11287 13.1334 6.07591 13.0373 6.07674C12.9411 6.07758 12.8491 6.11614 12.7811 6.18413C12.7132 6.25212 12.6746 6.34409 12.6738 6.44023C12.6729 6.53637 12.7099 6.629 12.7767 6.69816L12.7888 6.71026C12.6164 6.91377 12.4624 7.13232 12.3301 7.3637L12.3143 7.35637C12.2264 7.31698 12.1266 7.31372 12.0364 7.3473C11.9462 7.38088 11.8727 7.4486 11.832 7.53584C11.7913 7.62307 11.7865 7.72283 11.8187 7.81357C11.8509 7.90431 11.9175 7.97874 12.0041 8.02081L12.0213 8.02887C11.8988 8.36003 11.8166 8.70476 11.7767 9.0556C10.8828 9.00505 10.0388 8.62717 9.40568 7.99407C8.77258 7.36096 8.39471 6.51694 8.34415 5.62303C8.69499 5.58311 9.03972 5.50099 9.37088 5.37845L9.37895 5.39568C9.42101 5.48229 9.49544 5.54887 9.58618 5.58106C9.67692 5.61325 9.77668 5.60847 9.86391 5.56774C9.95115 5.52701 10.0189 5.4536 10.0525 5.36337C10.086 5.27313 10.0828 5.17331 10.0434 5.08546L10.0361 5.06969C10.2682 4.93695 10.4871 4.78368 10.6913 4.61097L10.7034 4.62307C10.7726 4.68986 10.8652 4.72682 10.9614 4.72599C11.0575 4.72515 11.1495 4.68659 11.2175 4.6186C11.2854 4.55061 11.324 4.45864 11.3248 4.3625C11.3257 4.26635 11.2887 4.17373 11.2219 4.10457L11.2098 4.09247C11.3829 3.88822 11.5369 3.66821 11.67 3.43573L11.6858 3.44306C11.7295 3.46431 11.7771 3.47664 11.8256 3.47934C11.8742 3.48205 11.9228 3.47506 11.9686 3.45881C12.0144 3.44255 12.0566 3.41734 12.0926 3.38464C12.1285 3.35194 12.1577 3.31241 12.1782 3.26835C12.1988 3.22429 12.2104 3.17657 12.2124 3.12799C12.2143 3.0794 12.2066 3.03091 12.1897 2.98533C12.1727 2.93976 12.1468 2.89801 12.1136 2.86253C12.0803 2.82704 12.0404 2.79852 11.996 2.77862L11.9788 2.77056C12.1012 2.43944 12.1834 2.09475 12.2233 1.74383C13.1175 1.79481 13.9616 2.1733 14.5945 2.80706C15.2274 3.44081 15.6047 4.28544 15.6545 5.1797ZM9.40718 2.80686C9.96713 2.24721 10.6942 1.88523 11.4782 1.77573C11.4446 2.00995 11.3882 2.24034 11.3099 2.46364C11.2237 2.42862 11.1274 2.42803 11.0408 2.46198C10.9542 2.49594 10.8839 2.56185 10.8445 2.64611C10.805 2.73038 10.7995 2.82656 10.8289 2.91481C10.8583 3.00306 10.9205 3.07665 11.0026 3.12038C10.9094 3.27944 10.8042 3.43119 10.688 3.57434C10.619 3.51135 10.5283 3.4774 10.4348 3.47956C10.3413 3.48171 10.2523 3.51979 10.1862 3.58589C10.1201 3.65199 10.082 3.74103 10.0799 3.83448C10.0777 3.92794 10.1117 4.01863 10.1747 4.0877C10.0317 4.20394 9.87984 4.30918 9.7207 4.40232C9.67697 4.32021 9.60338 4.25802 9.51513 4.22859C9.42688 4.19915 9.3307 4.20472 9.24643 4.24415C9.16217 4.28358 9.09626 4.35385 9.0623 4.44046C9.02835 4.52707 9.02894 4.62342 9.06396 4.70961C8.84066 4.7879 8.61027 4.84427 8.37605 4.87792C8.48555 4.09385 8.84753 3.3668 9.40718 2.80686ZM8.88685 11.8355C8.52259 11.5895 8.18325 11.3085 7.87369 10.9965L2.38032 5.50312C2.17463 5.29841 2.0114 5.05508 1.90002 4.7871C1.78865 4.51912 1.73131 4.23178 1.73131 3.94158C1.73131 3.65137 1.78865 3.36403 1.90002 3.09605C2.0114 2.82808 2.17463 2.58474 2.38032 2.38003C2.58513 2.17478 2.82841 2.01193 3.09624 1.90082C3.36406 1.78971 3.65118 1.73252 3.94114 1.73252C4.23109 1.73252 4.51821 1.78971 4.78603 1.90082C5.05386 2.01193 5.29714 2.17478 5.50195 2.38003L7.68081 4.5589C7.63864 4.78661 7.61407 5.01726 7.60747 5.24901C7.60417 5.26367 7.60197 5.27797 7.60014 5.29264C7.60014 5.29998 7.60417 5.30548 7.60454 5.31244C7.5828 6.2803 7.88203 7.22814 8.45554 8.00808C9.02906 8.78802 9.8446 9.35619 10.7749 9.62397L9.1494 12.0144L8.88685 11.8355ZM3.6641 19.2932L4.70696 20.336L4.18443 20.8586L3.14157 19.8157L3.6641 19.2932ZM3.92335 22.1603C3.85459 22.2291 3.76133 22.2677 3.6641 22.2677C3.56687 22.2677 3.47362 22.2291 3.40485 22.1603L1.83983 20.5953C1.77202 20.5258 1.73434 20.4323 1.73495 20.3352C1.73556 20.2381 1.77442 20.1451 1.84309 20.0764C1.91177 20.0077 2.00475 19.9689 2.10187 19.9683C2.199 19.9676 2.29245 20.0053 2.36199 20.0731V20.075L3.92335 21.6363C3.95822 21.6705 3.98592 21.7112 4.00484 21.7562C4.02375 21.8012 4.03349 21.8495 4.03349 21.8983C4.03349 21.9471 4.02375 21.9954 4.00484 22.0404C3.98592 22.0854 3.95822 22.1262 3.92335 22.1603ZM16.6937 15.652L15.6519 16.6937L15.1297 16.1716L16.1726 15.1287L16.6937 15.652ZM17.7358 16.6937L16.6937 17.7359L16.1711 17.2133L17.214 16.1705L17.7358 16.6937ZM18.7764 17.7348L17.7339 18.7765L17.2114 18.2544L18.2543 17.2115L18.7764 17.7348ZM19.8175 18.7754L18.7746 19.8183L18.2524 19.2972L19.2971 18.2525L19.8175 18.7754ZM22.1602 20.0775C22.229 20.1463 22.2676 20.2395 22.2676 20.3368C22.2676 20.434 22.229 20.5273 22.1602 20.596L20.5952 22.1603C20.5257 22.2281 20.4322 22.2658 20.3351 22.2652C20.238 22.2646 20.145 22.2257 20.0763 22.1571C20.0076 22.0884 19.9688 21.9954 19.9682 21.8983C19.9676 21.8012 20.0052 21.7077 20.0731 21.6382H20.0749L21.6362 20.0768V20.075C21.7062 20.0062 21.8005 19.9678 21.8986 19.9682C21.9967 19.9685 22.0907 20.0076 22.1602 20.0768V20.0775ZM19.8156 20.8593L19.2931 20.3368L20.336 19.2939L20.8585 19.8165L19.8156 20.8593ZM15.6988 14.5669L14.5669 15.6993L12.6524 14.3975L14.6574 13.0334L15.6988 14.5669Z" fill="#667EEA"/>
</svg>
