<svg width="24" height="24" viewBox="0 0 24 24" fill="none" xmlns="http://www.w3.org/2000/svg">
<path d="M12 1C5.93521 1 1 5.93521 1 12C1 18.0648 5.93521 23 12 23C18.0648 23 23 18.0648 23 12C23 5.93521 18.0648 1 12 1ZM20.3232 6.60469C20.9923 7.60834 21.4524 8.73755 21.7035 9.95059C20.616 9.90886 19.5286 10.1179 18.5666 10.578C18.2321 9.90886 17.8554 9.28148 17.4791 8.6541L20.3232 6.60469ZM19.6958 5.72621L16.8518 7.81734C16.3917 7.23207 15.9316 6.68814 15.4293 6.18631C16.1406 5.39166 16.6845 4.47183 16.9769 3.42569C18.0227 4.01134 18.9429 4.80638 19.6958 5.72621ZM12 2.08748C13.422 2.08748 14.7606 2.38031 16.015 2.92386C15.7643 3.84407 15.3042 4.72255 14.6768 5.43338C13.2548 4.1369 11.5816 3.09114 9.74159 2.33821C10.4524 2.17131 11.2053 2.08748 12 2.08748ZM8.11017 2.88214C10.2202 3.57297 12.1692 4.68246 13.8404 6.14421C12.8364 6.89752 11.6237 7.27379 10.4107 7.27379C7.60834 7.27379 4.93155 7.65007 2.75659 8.31955C3.76062 5.8931 5.68448 3.88579 8.11017 2.88214ZM3.67679 17.3953C2.67314 15.8477 2.08748 14.0077 2.08748 12C2.08748 11.1636 2.17093 10.369 2.38031 9.61603C4.55528 8.82138 7.39934 8.36128 10.4524 8.36128C12 8.36128 13.4641 7.81735 14.6768 6.89714C15.1786 7.39934 15.597 7.90117 16.0154 8.44472L3.67679 17.3953ZM11.2892 21.9129C9.93914 21.8107 8.6239 21.4355 7.42317 20.8099C6.22244 20.1844 5.16121 19.3216 4.30379 18.2738L16.6003 9.28148C16.9662 9.84844 17.3014 10.4347 17.6043 11.0377C16.3496 11.8744 15.3876 13.1292 14.8854 14.5933C14.0073 17.5209 12.7108 20.0721 11.2888 21.9125L11.2892 21.9129ZM19.3192 18.7339C17.6464 20.5743 15.2624 21.7873 12.6274 21.9125C13.9239 20.0721 15.0952 17.6464 15.9733 14.9696C16.3499 13.7983 17.1025 12.7529 18.1065 12.0417C18.9012 13.9656 19.3613 16.0988 19.3613 18.2738C19.3196 18.399 19.3192 18.5666 19.3192 18.7339ZM18.9846 11.4982C19.8631 11.0798 20.8668 10.9125 21.8708 10.9963C21.9125 11.3309 21.9125 11.6654 21.9125 12C21.9123 13.9008 21.3602 15.7606 20.3232 17.3536C20.2414 15.336 19.7876 13.3509 18.9846 11.4982Z" fill="#667EEA"/>
</svg>
