<svg width="24" height="24" viewBox="0 0 24 24" fill="none" xmlns="http://www.w3.org/2000/svg">
<path d="M8.04182 7.45339L9.5902 2.56011C9.65238 2.58262 9.71948 2.5879 9.78441 2.57541C9.84935 2.56291 9.9097 2.5331 9.95908 2.48912C10.0084 2.4451 10.045 2.38856 10.0648 2.32548C10.0847 2.2624 10.0871 2.19512 10.0719 2.13077C10.0566 2.06643 10.0242 2.00742 9.97815 1.95997C9.93208 1.91252 9.87406 1.8784 9.8102 1.86122L9.46078 1.75127C9.26793 1.69016 9.06181 1.79711 9.00071 1.98996L7.6539 6.24923C7.51456 6.14102 7.35102 6.06828 7.17734 6.0373C7.00366 6.00631 6.82505 6.01799 6.65689 6.07134C6.4887 6.1246 6.33598 6.21795 6.21188 6.34334C6.08778 6.46874 5.99602 6.62242 5.94451 6.79116L4.83854 10.2869C4.82402 10.3329 4.80058 10.3755 4.76957 10.4124C4.73855 10.4493 4.70058 10.4797 4.65781 10.5019C4.61503 10.5241 4.56831 10.5376 4.5203 10.5417C4.47229 10.5459 4.42393 10.5405 4.378 10.5259L3.68144 10.3059C3.29558 10.1835 2.88351 10.3968 2.76062 10.7826L2.54075 11.4821C2.41785 11.8677 2.63055 12.2799 3.01594 12.4033L3.71517 12.6233C3.7611 12.6378 3.80373 12.6612 3.84059 12.6922C3.87746 12.7232 3.90785 12.7612 3.93001 12.8039C3.95221 12.8467 3.96576 12.8933 3.96991 12.9413C3.97405 12.9892 3.9687 13.0375 3.95416 13.0834L3.84425 13.4329L3.40128 14.832L3.05151 14.7221C2.98934 14.6996 2.92223 14.6943 2.85729 14.7068C2.79234 14.7193 2.73199 14.7491 2.68263 14.7931C2.63327 14.8371 2.59673 14.8937 2.5769 14.9567C2.55706 15.0198 2.55467 15.0871 2.56996 15.1515C2.58521 15.2158 2.61756 15.2748 2.6636 15.3222C2.70963 15.3697 2.76764 15.4038 2.83147 15.421L3.53036 15.6409L5.62762 16.3042C5.72026 16.3335 5.82072 16.3248 5.90695 16.28C5.99318 16.2353 6.05812 16.1581 6.08751 16.0655C6.11686 15.9729 6.1082 15.8723 6.06344 15.7861C6.01868 15.6998 5.94148 15.6348 5.84882 15.6055L5.49889 15.4954L5.94121 14.0969L8.04182 7.45339ZM3.9362 11.9267L3.23667 11.7066L3.45851 11.0073L4.15727 11.2274C4.73636 11.4103 5.35417 11.0896 5.53747 10.5105L6.64323 7.0133C6.67489 6.92367 6.74012 6.84983 6.82517 6.80735C6.91022 6.76487 7.00844 6.75708 7.09912 6.78562C7.1898 6.81416 7.26586 6.87679 7.31125 6.96032C7.35665 7.04384 7.36784 7.14173 7.34246 7.23335L5.35241 13.526L4.65313 13.306C4.83558 12.7272 4.51482 12.1099 3.93624 11.9266L3.9362 11.9267ZM4.10004 15.0552L4.43021 14.0061L5.12931 14.226L4.79931 15.275L4.10004 15.0552Z" fill="#667EEA"/>
<path d="M21.0669 20.4333C21.0187 20.4333 20.971 20.4428 20.9266 20.4612C20.8821 20.4797 20.8417 20.5067 20.8076 20.5408C20.7736 20.5748 20.7466 20.6152 20.7282 20.6597C20.7098 20.7042 20.7003 20.7519 20.7003 20.8C20.7003 21.61 20.0437 22.2667 19.2337 22.2667H12.377C12.3865 22.2516 12.3993 22.2388 12.4085 22.2234L14.3518 18.8577C14.9183 17.877 14.7021 16.6314 13.8384 15.8987L12.3902 14.6698L14.9657 13.2698L15.5182 13.7387C15.5948 13.8029 15.6774 13.8594 15.765 13.9074C15.7891 13.921 15.8151 13.9306 15.8383 13.944C15.9024 13.9763 15.9687 14.0042 16.0367 14.0273C16.0671 14.0371 16.0974 14.0439 16.1283 14.0519C16.1938 14.0694 16.2603 14.0828 16.3274 14.0919C16.3611 14.0962 16.3948 14.0984 16.4293 14.1006C16.4638 14.1028 16.4917 14.109 16.5233 14.109C16.5787 14.109 16.6332 14.1058 16.6886 14.1003C16.7942 14.0888 16.8983 14.0667 16.9994 14.0343C17.3016 13.9373 17.5664 13.7495 17.7578 13.4963C17.9397 13.2573 18.0456 12.9691 18.0618 12.6692C18.0779 12.3706 18.0107 12.0734 17.8677 11.8109C17.8513 11.7808 17.8281 11.7536 17.8101 11.7246L19.4064 10.8571C19.4629 10.8263 19.5104 10.7812 19.544 10.7262C19.5776 10.6713 19.5961 10.6085 19.5977 10.5441C19.5994 10.4797 19.584 10.4161 19.5533 10.3595C19.5225 10.3029 19.4774 10.2554 19.4225 10.2218C19.3676 10.1882 19.3048 10.1697 19.2404 10.168C19.176 10.1664 19.1123 10.1817 19.0558 10.2124L17.2906 11.172L16.5793 10.5686C16.5076 10.5077 16.4469 10.4349 16.4001 10.3533L15.3535 8.54084C15.1219 8.13944 14.8039 7.79463 14.4225 7.53142C15.7401 7.20563 16.6659 6.02382 16.667 4.66661V4.35242C16.7949 4.22732 16.8897 4.07242 16.9429 3.90162C16.9962 3.73082 17.0062 3.54947 16.9721 3.37385C16.8041 2.48715 16.1584 1 13.7226 1C12.579 1 11.7235 1.33473 11.1794 1.99516C10.3591 2.99134 10.4952 4.46418 10.6488 5.25004C10.6799 5.42077 10.7516 5.58151 10.858 5.71865C10.9643 5.85579 11.1021 5.9653 11.2598 6.03791C11.3019 6.12755 11.343 6.21868 11.391 6.30093C11.0756 6.31289 10.7658 6.38868 10.4804 6.52372C10.195 6.65876 9.94001 6.85024 9.73072 7.08661C9.61543 7.21625 9.51471 7.35815 9.43037 7.50977L7.2363 11.4896L7.23446 11.494C6.61158 12.6351 6.8736 14.0568 7.86253 14.9007L8.86456 15.751L4.11084 18.3345L3.79696 17.7028C3.70651 17.5215 3.48612 17.448 3.30483 17.5385C3.26174 17.56 3.2233 17.5898 3.19172 17.6262C3.16015 17.6626 3.13605 17.7048 3.12081 17.7505C3.10556 17.7962 3.09947 17.8445 3.10289 17.8925C3.1063 17.9406 3.11915 17.9875 3.14069 18.0306L3.467 18.685L2.19164 19.3777C2.14931 19.4007 2.11192 19.4318 2.08162 19.4693C2.05132 19.5068 2.02869 19.5498 2.01504 19.596C2.00138 19.6422 1.99697 19.6907 2.00204 19.7386C2.00711 19.7865 2.02158 19.8329 2.0446 19.8752C2.0676 19.9176 2.09872 19.9549 2.13617 19.9852C2.17362 20.0156 2.21668 20.0382 2.26288 20.0518C2.30908 20.0655 2.35752 20.0699 2.40543 20.0648C2.45334 20.0598 2.49978 20.0453 2.5421 20.0223L3.79442 19.3418L4.23872 20.2306C4.2822 20.3176 4.35847 20.3838 4.45076 20.4146C4.54304 20.4454 4.64379 20.4383 4.73084 20.3949C4.91208 20.3044 4.98564 20.0841 4.89515 19.9028L4.43925 18.9912L9.46445 16.26L11.0744 17.6266C11.1502 17.6908 11.201 17.7795 11.2179 17.8774C11.2348 17.9753 11.2168 18.076 11.1669 18.1618L10.0786 20.0473L9.75346 20.6116C9.5972 20.8802 9.51896 21.1871 9.52753 21.4978C9.5366 21.7696 9.61563 22.0344 9.75698 22.2667H4.56687C4.46966 22.2668 4.37644 22.3054 4.3077 22.3741C4.23895 22.4428 4.20033 22.5361 4.2003 22.6333C4.20029 22.6814 4.20976 22.7291 4.22818 22.7736C4.2466 22.8181 4.27359 22.8585 4.30763 22.8925C4.34167 22.9266 4.38208 22.9536 4.42656 22.9721C4.47104 22.9905 4.51872 23 4.56687 23H19.2337C20.4482 22.9988 21.4324 22.0146 21.4337 20.8C21.4337 20.7518 21.4242 20.7041 21.4057 20.6597C21.3873 20.6152 21.3603 20.5747 21.3262 20.5407C21.2922 20.5066 21.2517 20.4796 21.2072 20.4612C21.1627 20.4428 21.115 20.4333 21.0669 20.4333ZM10.3881 20.979L10.541 20.7138L12.0099 21.4472L11.7737 21.8556C11.7181 21.9521 11.6434 22.0362 11.5541 22.1029C11.4648 22.1695 11.3629 22.2172 11.2546 22.243C11.1462 22.2689 11.0337 22.2725 10.924 22.2534C10.8142 22.2343 10.7095 22.193 10.6162 22.1321C10.2512 21.866 10.152 21.364 10.3881 20.979ZM11.3341 13.7731C11.2764 13.7233 11.2332 13.6588 11.2091 13.5865C11.185 13.5142 11.1808 13.4367 11.197 13.3622C11.197 13.353 11.2003 13.3441 11.2029 13.3347C11.2158 13.2861 11.2373 13.2402 11.2666 13.1994L13.0534 10.7628L13.8844 12.2016C13.9959 12.3954 14.1401 12.5685 14.3107 12.7132L14.3668 12.7608L11.7903 14.1607L11.3341 13.7731ZM16.6141 13.3698C16.5034 13.3822 16.3914 13.3718 16.285 13.3391C16.1785 13.3065 16.0799 13.2523 15.9952 13.18L15.516 12.7729L16.8605 11.7647L16.9796 11.8657C16.9882 11.8746 16.9981 11.8815 17.0071 11.8896C17.3578 12.173 17.4325 12.6779 17.1789 13.0506C17.1114 13.1397 17.0263 13.214 16.9289 13.2688C16.8315 13.3237 16.7239 13.3579 16.6127 13.3695L16.6141 13.3698ZM15.7708 10.7185C15.8596 10.8732 15.9746 11.0112 16.1107 11.1265L16.289 11.2781L14.9443 12.2867L14.7886 12.1544C14.6822 12.0644 14.5923 11.9566 14.523 11.8357L13.4072 9.90996C13.3768 9.85709 13.3337 9.81264 13.2818 9.78063C13.2299 9.74863 13.1708 9.73009 13.11 9.7267H13.0898C13.0846 9.7267 13.0806 9.73005 13.0754 9.73005C13.0239 9.73197 12.9734 9.74441 12.927 9.76661L12.9193 9.77134C12.8701 9.79681 12.8274 9.83308 12.7942 9.87743L10.6753 12.7667C10.627 12.834 10.586 12.9062 10.5531 12.9822C10.551 12.9874 10.5469 12.9915 10.5451 12.9967L7.77779 12.0733C7.80654 11.9947 7.84034 11.918 7.87899 11.8437L10.0728 7.86576C10.1193 7.78317 10.1729 7.70477 10.233 7.63145C10.2491 7.61182 10.2661 7.5927 10.2829 7.57353C10.3338 7.51604 10.3887 7.46226 10.4472 7.41257C10.4596 7.40234 10.4711 7.39061 10.4838 7.38069C10.5543 7.32532 10.6294 7.27602 10.7082 7.2333C10.7262 7.22342 10.745 7.21504 10.764 7.2058C10.83 7.17276 10.8982 7.14433 10.9682 7.12073C10.9873 7.11415 11.0048 7.10676 11.0246 7.10139C11.1112 7.07521 11.2 7.05657 11.2898 7.04566C11.3019 7.04566 11.3143 7.04566 11.3264 7.043C11.4093 7.03505 11.4927 7.03347 11.5758 7.03827C11.5901 7.03827 11.6044 7.03827 11.6191 7.0408C11.7096 7.04854 11.7992 7.06414 11.887 7.08747C11.9025 7.09151 11.9172 7.09619 11.9321 7.10057C12.0252 7.12709 12.1158 7.1618 12.2027 7.2043L12.5268 7.36642L12.5357 7.3708L13.7149 7.96042C14.136 8.17025 14.4857 8.49975 14.7203 8.90758L15.7708 10.7185ZM15.9337 4.66661C15.9343 5.8892 14.9452 6.88152 13.7226 6.88504C13.423 6.89619 13.1253 6.83464 12.8547 6.70565C12.5842 6.57666 12.3489 6.38407 12.169 6.14435H12.6227C13.2301 6.14435 13.7226 5.65188 13.7226 5.04426C13.7251 4.94489 13.7657 4.8503 13.836 4.78001C13.9063 4.70973 14.0009 4.66913 14.1003 4.66661H15.9337ZM11.7455 2.46111C12.1433 1.97823 12.8085 1.7333 13.7226 1.7333C15.1771 1.7333 16.0283 2.33134 16.2526 3.51101C16.267 3.58054 16.26 3.65282 16.2325 3.71828C16.2049 3.78374 16.1581 3.83928 16.0983 3.87753L16.0921 3.88161C16.0675 3.89822 16.0403 3.91063 16.0117 3.91835C15.9761 3.92924 15.939 3.93467 15.9017 3.93446H14.1002C13.4869 3.93498 12.9899 4.43213 12.9893 5.04542C12.9898 5.0937 12.9806 5.1416 12.9624 5.1863C12.9441 5.23101 12.9172 5.27162 12.883 5.30577C12.8489 5.33991 12.8083 5.3669 12.7636 5.38514C12.7189 5.40339 12.671 5.41253 12.6227 5.41203H11.7279C11.6933 5.41146 11.6589 5.4062 11.6256 5.39639C11.5606 5.37857 11.5019 5.34264 11.4565 5.29278C11.4111 5.24293 11.3808 5.1812 11.369 5.11477C11.2403 4.45078 11.1164 3.22462 11.7455 2.46111ZM11.8024 18.5286C12.0824 18.0442 11.976 17.429 11.5493 17.067L8.33742 14.3415C8.11455 14.1512 7.93608 13.9144 7.81457 13.6477C7.69306 13.381 7.63146 13.091 7.63411 12.7979L10.4959 13.7511C10.5551 13.9773 10.682 14.18 10.8596 14.3321L13.3644 16.4587C13.9581 16.962 14.1066 17.8179 13.717 18.4918L12.377 20.8118L10.9081 20.0785L11.8024 18.5286Z" fill="#667EEA"/>
</svg>
