<svg width="24" height="24" viewBox="0 0 24 24" fill="none" xmlns="http://www.w3.org/2000/svg">
<path d="M19.0858 21.4045L17.9906 21.8724C17.7639 21.9692 17.5178 22.0119 17.2717 21.9971C17.0256 21.9824 16.7864 21.9105 16.5729 21.7872L2.92495 13.9076C2.71147 13.7844 2.52962 13.6131 2.39379 13.4074C2.25797 13.2017 2.1719 12.9672 2.14241 12.7224L2 11.5401M12.716 16.8103L11.8689 19.0714M9.16366 14.7593L7.62897 16.6235M16.4403 18.9604L15.9369 21.4201M5.4394 12.6091L3.56097 14.2748M6.10938 8.35976C6.56471 7.4062 7.34221 6.7301 8.1833 6.47678M10.9597 7.60942C11.4169 8.43199 11.4911 9.55083 11.0714 10.6225C11.0077 10.7853 10.9337 10.9438 10.8497 11.0971" stroke="#667EEA" stroke-width="0.8" stroke-miterlimit="10" stroke-linecap="round" stroke-linejoin="round"/>
<path d="M9.40324 2.22137C9.74026 2.07883 10.1108 2 10.4997 2C12.0554 2 13.3166 3.26117 13.3166 4.8169C13.3166 6.37264 12.0554 7.6338 10.4997 7.6338C8.94397 7.6338 7.6828 6.37264 7.6828 4.8169C7.6828 4.16056 7.90727 3.55666 8.2836 3.07779M17.995 8.88475V9.27139M12.0956 4.70885V5.09549" stroke="#667EEA" stroke-width="0.8" stroke-miterlimit="10" stroke-linecap="round" stroke-linejoin="round"/>
<path d="M12.4915 2.82507C12.4915 2.82507 12.0659 4.27815 10.1844 4.12298C9.9298 4.10197 9.6828 4.20797 9.51181 4.39775C9.23596 4.70394 8.67862 5.07143 7.6828 4.8169M17.3544 10.8542C17.5496 11.2137 17.6724 11.6284 17.7138 12.0702M12.3312 11.9629C12.3443 11.9263 12.358 11.8898 12.3723 11.8534C12.8034 10.7525 13.651 9.96897 14.5738 9.69457" stroke="#667EEA" stroke-width="0.8" stroke-miterlimit="10" stroke-linecap="round" stroke-linejoin="round"/>
<path d="M19.5184 18.9745C20.3112 18.6545 21.0069 18.0771 21.4675 17.2792C22.5637 15.3806 21.9132 12.9528 20.0146 11.8567C19.0653 11.3086 17.8514 11.6338 17.3033 12.5831C16.7552 13.5324 15.5413 13.8577 14.592 13.3096L6.10068 8.40716C5.15138 7.85907 3.9375 8.18435 3.38941 9.13364C2.84132 10.0829 3.16659 11.2968 4.11589 11.8449L16.045 18.7322C16.7045 19.1129 17.4279 19.2829 18.1371 19.2631" stroke="#667EEA" stroke-width="0.8" stroke-miterlimit="10" stroke-linecap="round" stroke-linejoin="round"/>
<path d="M16.8811 10.8543C18.4368 10.8543 19.698 9.59316 19.698 8.03742C19.698 6.48169 18.4368 5.22052 16.8811 5.22052C15.3254 5.22052 14.0642 6.48169 14.0642 8.03742C14.0642 9.59316 15.3254 10.8543 16.8811 10.8543Z" stroke="#667EEA" stroke-width="0.8" stroke-miterlimit="10" stroke-linecap="round" stroke-linejoin="round"/>
<path d="M3.60803 8.82672L17.6108 16.9112C17.9958 17.1335 18.488 17.0016 18.7102 16.6167C18.9325 16.2317 18.8005 15.7395 18.4156 15.5173L14.592 13.3097M14.0642 8.03742C14.0642 8.03742 14.9976 7.90406 15.7293 7.24459C16.0493 6.95618 16.536 6.96857 16.8416 7.27219C17.3815 7.80845 18.3203 8.38704 19.698 8.03742" stroke="#667EEA" stroke-width="0.8" stroke-miterlimit="10" stroke-linecap="round" stroke-linejoin="round"/>
</svg>
