<svg width="24" height="24" viewBox="0 0 24 24" fill="none" xmlns="http://www.w3.org/2000/svg">
<path d="M22.0506 7.38936C21.2581 6.30862 20.0901 5.62225 18.7591 5.4516L16.8403 5.20891C15.7937 5.07619 14.7585 5.36059 13.9242 6.00525C13.8749 6.04317 13.8256 6.08488 13.7801 6.1266C13.7119 5.60329 13.6284 5.08377 13.5147 4.56805C13.2416 3.35079 12.506 2.32693 11.4442 1.67469C10.9269 1.35436 10.3501 1.14218 9.74849 1.05093C9.14693 0.959688 8.53311 0.991278 7.94409 1.1438L6.88989 1.41303C6.43864 1.5268 5.98738 1.64056 5.55508 1.75053C5.08062 1.86986 4.63455 2.08212 4.2427 2.37504C3.85085 2.66795 3.52099 3.03569 3.27224 3.45697C2.83164 4.19265 2.66133 5.05893 2.79065 5.90665L2.12704 6.31241C1.24348 6.85088 0.818766 7.89371 1.07284 8.90619L1.14868 9.19439C1.65698 11.2169 2.79667 13.0247 4.40229 14.3554L5.57404 15.33L6.24903 17.992C6.31338 18.2369 6.45681 18.4537 6.65705 18.6087C6.85729 18.7637 7.10312 18.8482 7.35632 18.849C7.44733 18.849 7.53834 18.8377 7.63314 18.8149L11.6452 17.7948L11.6641 17.829L11.319 20.5479C11.2394 21.1698 11.6831 21.7386 12.305 21.8182C12.305 21.8182 17.9855 22.5312 18.0348 22.5312C18.2851 22.5312 18.5278 22.4477 18.7288 22.2923C18.9677 22.1064 19.1232 21.8372 19.1611 21.5376L19.5213 18.6974C20.6817 17.2071 21.5842 15.5689 22.2061 13.8169C22.5133 12.9486 22.7522 12.0498 22.919 11.1473C23.1617 9.80871 22.8546 8.4701 22.0544 7.37798L22.0506 7.38936ZM1.88434 9.01237L1.8085 8.72417C1.63406 8.03781 1.92226 7.32869 2.52141 6.96465L2.96509 6.69162L2.97267 6.71816C3.05734 7.04951 3.21987 7.35587 3.44675 7.61178C3.67364 7.86768 3.95832 8.06574 4.27715 8.18949C4.43641 8.43218 5.18725 9.58498 5.57025 10.4951C5.58962 10.5409 5.61785 10.5825 5.65331 10.6174C5.68878 10.6524 5.73079 10.68 5.77693 10.6986C5.82308 10.7173 5.87245 10.7267 5.92223 10.7262C5.972 10.7258 6.02121 10.7155 6.06701 10.6961C6.26041 10.6164 6.35142 10.3927 6.26799 10.1993C5.99875 9.55843 5.57404 8.83035 5.26688 8.3298H5.31618C6.15044 8.3298 6.9809 8.21983 7.7962 8.00368C8.63425 7.77994 9.44576 7.44245 10.2042 7.00257C11.0384 6.51339 11.4404 5.55778 11.2053 4.62493L11.0953 4.18884C11.0681 4.09466 11.0055 4.01468 10.9206 3.96568C10.8357 3.91668 10.7351 3.90245 10.6399 3.926C10.5448 3.94954 10.4624 4.00902 10.4102 4.09196C10.3579 4.17491 10.3398 4.27486 10.3597 4.37086L10.4696 4.80695C10.6213 5.40989 10.3597 6.028 9.82118 6.34274C9.12343 6.75229 8.37639 7.06324 7.60281 7.26801C6.73821 7.49933 5.85086 7.59792 4.96731 7.5638C4.37574 7.54483 3.85623 7.11633 3.70833 6.53235L3.59836 6.09247C3.40497 5.32647 3.51873 4.53013 3.92448 3.85134C4.33024 3.17256 4.97489 2.68717 5.74089 2.49378C6.17319 2.38381 6.62066 2.27004 7.07571 2.15628L8.12991 1.88704C9.13102 1.63297 10.1663 1.78845 11.046 2.33072C11.4812 2.59579 11.8584 2.94606 12.1549 3.36049C12.4514 3.77493 12.6611 4.245 12.7714 4.74248C12.9269 5.44402 13.0369 6.16452 13.1013 6.87743C12.8548 7.23009 12.669 7.62068 12.5477 8.03781L11.7551 8.17811C10.7313 8.36013 9.95769 9.17543 9.82497 10.2069L9.78705 10.5065C9.64674 11.6024 9.69604 12.6983 9.91598 13.7563L6.03288 14.7422L4.88388 13.7866C3.40013 12.5586 2.3478 10.8884 1.88055 9.01996L1.88434 9.01237ZM7.44733 18.0868C7.24635 18.1361 7.03779 18.0148 6.9847 17.81L6.38175 15.4324L10.1018 14.4881C10.3028 15.1783 10.5758 15.8495 10.9285 16.4942L11.2698 17.1161L7.44733 18.0868ZM18.2624 21.7045C18.1827 21.7652 18.0841 21.7955 17.9817 21.7803L12.3998 21.075C12.1912 21.0485 12.0433 20.8588 12.0699 20.6503L12.377 18.2158L18.7136 19.0159L18.4065 21.4542C18.3951 21.5528 18.342 21.6438 18.2624 21.7045ZM22.1682 11.0222C22.0127 11.8868 21.7852 12.7438 21.4894 13.5743C20.8838 15.2692 20.0093 16.8556 18.8994 18.2726L12.3126 17.4422L11.5921 16.1301C10.6648 14.4437 10.297 12.5064 10.5417 10.5975L10.5796 10.2979C10.6668 9.59635 11.1939 9.0465 11.8879 8.92136L12.3998 8.83035L12.0775 11.3938C12.0712 11.4434 12.0748 11.4936 12.088 11.5418C12.1013 11.59 12.1238 11.635 12.1545 11.6745C12.1851 11.7139 12.2232 11.7469 12.2666 11.7717C12.31 11.7964 12.3578 11.8123 12.4074 11.8185C12.5074 11.8311 12.6084 11.8034 12.6881 11.7415C12.7677 11.6797 12.8195 11.5887 12.8321 11.4886L13.181 8.73934V8.73176C13.2327 8.31555 13.3662 7.91367 13.5738 7.54924C13.7814 7.1848 14.059 6.86499 14.3906 6.60819C14.7216 6.3501 15.1005 6.16024 15.5054 6.04958C15.9103 5.93892 16.3331 5.90968 16.7493 5.96354L18.6681 6.20623C19.7906 6.34654 20.7765 6.92672 21.4439 7.83682C22.1189 8.7583 22.3806 9.88834 22.1758 11.0222H22.1682Z" fill="#667EEA"/>
</svg>
