<svg width="24" height="24" viewBox="0 0 24 24" fill="none" xmlns="http://www.w3.org/2000/svg">
<path d="M16.4911 9.52928L16.7797 9.8179C17.2579 10.2961 17.2579 11.0714 16.7797 11.5496L6.6879 21.6413C6.20969 22.1196 5.4344 22.1196 4.95619 21.6413L2.35867 19.0438C1.88046 18.5656 1.88046 17.7903 2.35867 17.3121L12.4505 7.22034C12.9286 6.74213 13.7039 6.74213 14.1822 7.22034L14.4708 7.50896" stroke="#667EEA" stroke-width="0.7" stroke-miterlimit="10" stroke-linecap="round" stroke-linejoin="round"/>
<path d="M17.3471 4.63258L19.3674 6.65286M18.7902 3.18949L20.8105 5.20981M15.9041 6.07563L17.9244 8.09595M21.8207 3.3338L20.6662 2.17933C20.4271 1.94022 20.0395 1.94022 19.8003 2.17933L14.4707 7.50896L13.4606 10.5394L16.491 9.52924L21.8207 4.19965C22.0597 3.96055 22.0597 3.5729 21.8207 3.3338Z" stroke="#667EEA" stroke-width="0.7" stroke-miterlimit="10" stroke-linecap="round" stroke-linejoin="round"/>
<path d="M5.53354 14.1372L9.86268 18.4665L8.13096 20.1981L3.80182 15.8688L5.53354 14.1372Z" stroke="#667EEA" stroke-width="0.7" stroke-miterlimit="10" stroke-linecap="round" stroke-linejoin="round"/>
<path d="M18.5306 22C19.5906 22 20.5392 21.5245 21.1751 20.7755C21.6898 20.1706 22 19.3865 22 18.5306C22 16.6147 20.4465 15.0612 18.5306 15.0612C16.6147 15.0612 15.0612 16.6147 15.0612 18.5306C15.0612 19.3865 15.3714 20.1706 15.8861 20.7755C16.522 21.5245 17.4706 22 18.5306 22Z" stroke="#667EEA" stroke-width="0.7" stroke-miterlimit="10" stroke-linecap="round" stroke-linejoin="round"/>
<path d="M21.1751 20.7755C19.791 19.1453 17.2744 19.1404 15.8861 20.7755M21.1751 16.2857C20.5391 17.0347 19.5906 17.5102 18.5306 17.5102C17.4706 17.5102 16.522 17.0347 15.8861 16.2857" stroke="#667EEA" stroke-width="0.7" stroke-miterlimit="10" stroke-linecap="round" stroke-linejoin="round"/>
</svg>
