<svg width="24" height="24" viewBox="0 0 24 24" fill="none" xmlns="http://www.w3.org/2000/svg">
<path d="M15.4806 5.53426C18.1455 6.70222 20.1372 2.55241 17.6203 1.19538C17.1614 0.98933 16.6464 0.944728 16.159 1.06885C15.6716 1.19297 15.2406 1.47849 14.9362 1.87889C14.9028 1.91939 14.8777 1.96607 14.8623 2.01627C14.8469 2.06647 14.8416 2.1192 14.8466 2.17146C14.8516 2.22373 14.8669 2.27449 14.8915 2.32085C14.9161 2.36722 14.9497 2.40828 14.9902 2.44169C15.0306 2.4751 15.0773 2.5002 15.1275 2.51557C15.1777 2.53094 15.2305 2.53628 15.2827 2.53126C15.335 2.52625 15.3857 2.511 15.4321 2.48637C15.4785 2.46174 15.5195 2.42822 15.5529 2.38773C16.7721 0.960353 18.5888 2.31778 17.7873 3.97578C17.1518 5.3328 15.248 5.23168 15.1312 3.70158C15.1223 3.59649 15.0722 3.4992 14.9918 3.43091C14.9115 3.36261 14.8074 3.32885 14.7022 3.33697C14.597 3.34509 14.4994 3.39444 14.4304 3.47427C14.3615 3.55409 14.3269 3.65792 14.3342 3.76313C14.3545 4.13261 14.471 4.49038 14.6721 4.80102C14.8731 5.11167 15.1518 5.36442 15.4806 5.53426ZM11.2972 16.6527L12.4152 14.4646L13.6599 16.2705C13.7626 16.398 13.7331 16.9281 13.7582 17.0819C13.7669 17.1859 13.8158 17.2823 13.8946 17.3506C13.9733 17.4189 14.0757 17.4538 14.1798 17.4478C14.2839 17.4417 14.3815 17.3952 14.4518 17.3182C14.5221 17.2412 14.5595 17.1398 14.5561 17.0356L14.5201 16.4176C14.5096 16.2024 14.4397 15.9944 14.3182 15.8165L11.4523 11.6606C11.3786 11.5538 11.3364 11.4283 11.3306 11.2986C11.3248 11.1689 11.3556 11.0402 11.4195 10.9272L12.8585 8.36982C12.9119 8.27451 12.9431 8.16839 12.9498 8.05936C12.9565 7.95033 12.9385 7.84119 12.8972 7.74006C12.8559 7.63893 12.7924 7.5484 12.7113 7.47522C12.6302 7.40204 12.5336 7.34809 12.4288 7.31737C12.105 7.24263 11.6282 7.0032 11.3204 7.24183L8.82619 8.79111C8.7381 8.84224 8.63393 8.85814 8.5346 8.83562C8.43527 8.81311 8.34813 8.75385 8.2907 8.66974C8.23326 8.58563 8.20977 8.4829 8.22495 8.38219C8.24012 8.28148 8.29284 8.19024 8.37252 8.12679L10.449 6.53714C10.723 6.32954 11.0373 6.18127 11.3717 6.10179C11.7062 6.0223 12.0535 6.01334 12.3916 6.07547L14.0552 6.39124C14.7699 6.52795 15.42 6.89527 15.9059 7.43689L17.4036 9.10569C17.5714 9.29543 17.7836 9.44064 18.0213 9.52831C18.2589 9.61599 18.5146 9.64341 18.7654 9.60813L20.2436 9.40107C20.3161 9.39127 20.3897 9.4086 20.4503 9.44975C20.5108 9.4909 20.554 9.55296 20.5716 9.62402C20.5892 9.69508 20.5799 9.77013 20.5456 9.83477C20.5112 9.89942 20.4542 9.94909 20.3855 9.97426L18.0312 10.7345C17.9123 10.7739 17.7852 10.7821 17.6623 10.7583C17.5393 10.7345 17.4245 10.6795 17.3289 10.5986L16.1157 9.60013C16.0289 9.52875 15.9267 9.47841 15.8172 9.45304C15.7077 9.42767 15.5937 9.42797 15.4844 9.45389C15.375 9.47982 15.273 9.53068 15.1865 9.6025C15.1001 9.67433 15.0313 9.76517 14.9858 9.86794L14.0292 12.0604C13.9722 12.1939 13.9505 12.3398 13.9662 12.4842C13.9819 12.6285 14.0344 12.7664 14.1188 12.8846L16.0162 15.5614C16.0665 15.6351 16.0895 15.7241 16.081 15.8129L15.8251 18.7603C15.7572 19.1944 16.1329 19.6197 16.354 19.9523H14.5697L14.6696 19.2276C14.6756 19.0294 14.6696 18.8311 14.6516 18.6336C14.6431 18.5295 14.5941 18.4329 14.5153 18.3644C14.4364 18.296 14.3339 18.2611 14.2296 18.2672C14.1254 18.2734 14.0277 18.3201 13.9574 18.3974C13.8872 18.4747 13.85 18.5764 13.8538 18.6808L13.877 19.0649C13.877 19.0905 13.8778 19.1165 13.877 19.1301L13.7494 20.0446C13.7371 20.1323 13.7436 20.2217 13.7686 20.3067C13.7936 20.3916 13.8366 20.4703 13.8945 20.5373C13.9524 20.6043 14.024 20.6582 14.1045 20.6952C14.185 20.7323 14.2724 20.7517 14.361 20.7521H16.6953C16.8072 20.7509 16.9167 20.7197 17.0123 20.6616C17.1079 20.6035 17.1861 20.5207 17.2387 20.4219C17.2912 20.3231 17.3162 20.212 17.311 20.1003C17.3057 19.9885 17.2705 19.8802 17.209 19.7868L16.6597 18.983C16.6298 18.937 16.6164 18.8821 16.6218 18.8275L16.8776 15.882C16.9024 15.6051 16.8286 15.3284 16.6693 15.1006L14.7691 12.4197C14.7649 12.4136 14.7622 12.4067 14.7612 12.3994C14.7601 12.3921 14.7608 12.3847 14.7631 12.3777L15.6793 10.2764L16.8176 11.2126C17.0166 11.3801 17.2551 11.494 17.5104 11.5433C17.7658 11.5927 18.0295 11.576 18.2766 11.4948L19.8135 10.9971L17.6358 20.2625C17.6116 20.3657 17.6293 20.4743 17.6851 20.5644C17.7409 20.6546 17.8302 20.7188 17.9334 20.7431C18.0366 20.7674 18.1453 20.7497 18.2354 20.6939C18.3255 20.6381 18.3898 20.5487 18.4141 20.4455L20.7044 10.7017C20.951 10.6008 21.1522 10.4132 21.2702 10.1743C21.3881 9.93538 21.4148 9.6616 21.345 9.40444C21.2753 9.14728 21.114 8.92445 20.8915 8.77786C20.669 8.63127 20.4007 8.57102 20.1368 8.60844L18.6547 8.8163C18.5339 8.83318 18.4107 8.81981 18.2963 8.7774C18.1819 8.73498 18.0798 8.66485 17.9992 8.57327L16.5011 6.90327C15.8978 6.23102 15.0907 5.77523 14.2035 5.60581L12.5391 5.28964C12.0911 5.20696 11.6308 5.21861 11.1876 5.32384C10.7444 5.42907 10.328 5.62557 9.96497 5.90079L7.89926 7.48166L1.64536 2.61596C1.56172 2.55082 1.45563 2.52157 1.35042 2.53465C1.24521 2.54773 1.14951 2.60207 1.08437 2.68571C1.01922 2.76935 0.989975 2.87545 1.00306 2.98065C1.01614 3.08586 1.07047 3.18156 1.15412 3.24671L7.45678 8.15037C7.40453 8.34544 7.40318 8.55065 7.45287 8.74638C7.50255 8.94212 7.60161 9.12184 7.74057 9.26837C7.9322 9.46846 8.18628 9.59728 8.46093 9.63361C8.73559 9.66994 9.01443 9.61161 9.25148 9.46823L11.7089 7.94173L12.1158 8.05924L10.7228 10.5359C10.5854 10.7789 10.5192 11.0558 10.5318 11.3347C10.5443 11.6137 10.6352 11.8834 10.794 12.1131L11.8996 13.7164L10.5853 16.2889C10.5338 16.3902 10.4544 16.4746 10.3564 16.5321C10.2585 16.5896 10.146 16.6179 10.0325 16.6135L7.16858 16.5108C6.65735 16.4728 6.41593 17.0384 6.1701 17.3821L5.3463 15.7193L8.76863 15.2621C8.97248 15.2351 9.16782 15.1633 9.3406 15.0518C9.51338 14.9403 9.65932 14.7919 9.76791 14.6173L10.5246 13.4054C10.5807 13.3154 10.5988 13.2068 10.5748 13.1034C10.5509 13.0001 10.4869 12.9105 10.3969 12.8544C10.3069 12.7983 10.1982 12.7802 10.0949 12.8041C9.99157 12.8281 9.90199 12.8921 9.84586 12.9821L9.0896 14.194C9.0432 14.2687 8.98081 14.3322 8.90692 14.3799C8.83303 14.4276 8.74949 14.4583 8.66231 14.4698L5.13485 14.9415C5.02149 14.9579 4.9136 15.0008 4.81992 15.0667C4.72624 15.1326 4.64942 15.2197 4.59569 15.3208C4.54196 15.422 4.51283 15.5344 4.51067 15.6489C4.50851 15.7634 4.53337 15.8768 4.58325 15.9799L5.51178 17.8538C5.56885 17.9663 5.65422 18.0621 5.7595 18.1317C5.86478 18.2013 5.98635 18.2423 6.11226 18.2507C6.23818 18.259 6.36411 18.2345 6.47769 18.1795C6.59127 18.1245 6.68858 18.0409 6.76008 17.9369L7.18178 17.311L10.0037 17.4125C10.2693 17.4218 10.5319 17.3553 10.761 17.2207C10.9901 17.0862 11.1761 16.8891 11.2972 16.6527Z" fill="#667EEA"/>
<path d="M7.42322 20.6901H6.88761C6.6975 20.6897 6.51141 20.6354 6.35085 20.5336C6.19029 20.4318 6.06181 20.2867 5.98026 20.115L2.48678 12.7303C2.44111 12.635 2.35958 12.5617 2.26002 12.5264C2.16046 12.491 2.05096 12.4965 1.95546 12.5417C1.85995 12.5869 1.78621 12.668 1.75035 12.7674C1.71449 12.8668 1.71944 12.9763 1.7641 13.072L5.25678 20.4567C5.40349 20.7651 5.63441 21.0257 5.92291 21.2085C6.2114 21.3912 6.5457 21.4887 6.88721 21.4896H7.42282C7.52883 21.4896 7.6305 21.4475 7.70546 21.3725C7.78042 21.2975 7.82253 21.1959 7.82253 21.0899C7.82253 20.9838 7.78042 20.8822 7.70546 20.8072C7.6305 20.7323 7.52923 20.6901 7.42322 20.6901ZM22.7354 20.2549C22.6928 20.2242 22.6446 20.2022 22.5936 20.1902C22.5425 20.1781 22.4896 20.1763 22.4378 20.1847C22.386 20.1931 22.3364 20.2117 22.2918 20.2393C22.2472 20.2669 22.2084 20.303 22.1778 20.3456L21.8612 20.7837C21.7681 20.9125 21.6457 21.0175 21.5042 21.09C21.3627 21.1624 21.206 21.2003 21.047 21.2006H11.4363C11.3303 21.2006 11.2287 21.2427 11.1537 21.3176C11.0787 21.3926 11.0366 21.4943 11.0366 21.6003C11.0366 21.7063 11.0787 21.808 11.1537 21.8829C11.2287 21.9579 11.3303 22 11.4363 22H21.047C21.3326 21.9997 21.6141 21.9317 21.8683 21.8015C22.1225 21.6714 22.3423 21.4828 22.5096 21.2513L22.8257 20.8133C22.8565 20.7707 22.8786 20.7224 22.8907 20.6713C22.9028 20.6202 22.9047 20.5672 22.8963 20.5153C22.8879 20.4635 22.8694 20.4138 22.8418 20.3691C22.8142 20.3244 22.778 20.2856 22.7354 20.2549Z" fill="#667EEA"/>
</svg>
