<svg width="24" height="24" viewBox="0 0 24 24" fill="none" xmlns="http://www.w3.org/2000/svg">
<path d="M19.7981 11.5118C19.7662 11.2551 19.6418 11.0188 19.4482 10.8472C19.2546 10.6756 19.005 10.5805 18.7464 10.5797H18.555C18.0587 9.98249 17.3961 9.54623 16.6514 9.32631L16.2903 8.84555C15.9617 8.4061 15.5504 8.03508 15.0795 7.75335L14.2881 7.27755C14.2273 7.24084 14.1802 7.18525 14.154 7.11928C14.1278 7.05331 14.1239 6.98057 14.1429 6.91216C14.1619 6.84376 14.2027 6.78345 14.2592 6.74043C14.3157 6.69742 14.3847 6.67406 14.4557 6.67393C14.8919 6.67453 15.3228 6.76924 15.719 6.9516L19.3596 8.63179C19.6062 8.74508 19.8743 8.80393 20.1457 8.80436C20.4732 8.80422 20.7909 8.69254 21.0464 8.48771C21.302 8.28289 21.4802 7.99713 21.5516 7.67751C21.6231 7.35788 21.5835 7.02346 21.4395 6.72932C21.2954 6.43518 21.0555 6.19887 20.7593 6.0593L16.3368 3.97787C15.6371 3.65009 14.874 3.47956 14.1013 3.47829C13.3 3.47654 12.5171 3.71846 11.8564 4.17193C11.1958 4.62541 10.6886 5.26903 10.4022 6.0174C10.1133 6.74236 9.59318 7.35169 8.9226 7.75086C8.44581 8.03582 8.02961 8.41161 7.6976 8.85691L7.34857 9.32667C6.6039 9.54649 5.94135 9.98263 5.44503 10.5797H5.25365C4.99495 10.5805 4.74542 10.6756 4.55181 10.8472C4.35821 11.0188 4.23381 11.2551 4.20192 11.5118C3.15522 11.8486 2.26314 12.548 1.68627 13.4841C1.1094 14.4202 0.885639 15.5315 1.05527 16.6179C1.2249 17.7043 1.77677 18.6945 2.61155 19.4101C3.44632 20.1258 4.50915 20.52 5.60872 20.5217H18.3913C19.4908 20.52 20.5537 20.1258 21.3885 19.4101C22.2232 18.6945 22.7751 17.7043 22.9447 16.6179C23.1144 15.5315 22.8906 14.4202 22.3137 13.4841C21.7369 12.548 20.8448 11.8486 19.7981 11.5118ZM22.1472 14.8406H1.85277C1.92217 14.5953 2.01541 14.3575 2.13115 14.1304H21.8689C21.9846 14.3575 22.0778 14.5953 22.1472 14.8406ZM9.31069 8.34667C10.1139 7.86051 10.734 7.12269 11.0747 6.24785C11.3122 5.63906 11.7284 5.11645 12.2687 4.74885C12.8089 4.38124 13.4479 4.18586 14.1013 4.18843C14.7695 4.18942 15.4293 4.33693 16.0343 4.62055L20.4571 6.70163C20.6075 6.77239 20.7292 6.89228 20.8023 7.04153C20.8754 7.19078 20.8955 7.36048 20.8592 7.52266C20.823 7.68485 20.7325 7.82984 20.6028 7.93374C20.4731 8.03763 20.3119 8.09424 20.1457 8.09422C19.9769 8.09433 19.8102 8.05799 19.6568 7.98769L16.0166 6.30679C15.5265 6.08141 14.9936 5.96442 14.4543 5.96379C14.2279 5.96387 14.0078 6.03814 13.8276 6.17522C13.6475 6.31231 13.5172 6.50466 13.4568 6.72282C13.3964 6.94098 13.4091 7.17294 13.4931 7.38317C13.577 7.5934 13.7276 7.77033 13.9216 7.88685L14.7138 8.36194C15.0649 8.57367 15.3761 8.84526 15.6334 9.1644C15.6054 9.1644 15.5777 9.15943 15.5493 9.15943H8.44929C8.42053 9.15943 8.39283 9.16369 8.36407 9.1644C8.62927 8.83847 8.94968 8.56169 9.31069 8.34667ZM8.44929 9.86957H15.5507C16.2796 9.87202 16.986 10.1225 17.5537 10.5797H6.44633C7.014 10.1225 7.72037 9.87202 8.44929 9.86957ZM4.35283 12.2074C4.4479 12.3608 4.5805 12.4875 4.73811 12.5754C4.89572 12.6634 5.07315 12.7098 5.25365 12.7101H18.7464C18.9269 12.7098 19.1043 12.6634 19.2619 12.5755C19.4195 12.4875 19.5521 12.3608 19.6472 12.2074C20.3341 12.4399 20.9422 12.8601 21.4026 13.4203H2.597C3.05758 12.86 3.6658 12.4398 4.35283 12.2074ZM18.3913 19.8116H5.60872C5.03319 19.8116 4.46479 19.6843 3.94428 19.4387C3.42377 19.1931 2.96404 18.8355 2.59807 18.3913H21.4019C21.036 18.8355 20.5762 19.1931 20.0557 19.4387C19.5352 19.6843 18.9668 19.8116 18.3913 19.8116ZM21.866 17.6811H2.13399C1.85105 17.1321 1.70327 16.5234 1.70293 15.9058C1.70293 15.7861 1.70932 15.6679 1.71962 15.5507H22.2804C22.2907 15.6679 22.2971 15.7861 22.2971 15.9058C22.2967 16.5234 22.1489 17.1321 21.866 17.6811Z" fill="#667EEA"/>
</svg>
