<svg width="24" height="24" viewBox="0 0 24 24" fill="none" xmlns="http://www.w3.org/2000/svg">
<path d="M22.6467 5.70228L20.2281 4.77184L19.2279 3.77166L18.2977 1.35254C18.1887 1.06916 17.8705 0.927836 17.5872 1.03676C17.5154 1.06446 17.4501 1.10689 17.3957 1.16133L16.2285 2.32749C16.168 2.38782 16.1225 2.46141 16.0955 2.54241C16.0684 2.62341 16.0606 2.70959 16.0727 2.79413L16.4229 5.24518L12.5033 8.39047C12.3943 8.47787 12.3225 8.60334 12.3024 8.74157L11.9395 11.2823L10.5145 12.7074C10.2965 12.9187 10.2911 13.2669 10.5026 13.4849C10.7141 13.7028 11.0622 13.7081 11.2801 13.4966C11.2841 13.4928 11.288 13.4889 11.2918 13.4849L12.7171 12.0597L15.2565 11.6968C15.3948 11.6772 15.5204 11.6055 15.6076 11.4964L18.7547 7.57588L21.2057 7.92603C21.2901 7.93793 21.3761 7.93007 21.457 7.90308C21.5379 7.87608 21.6114 7.83067 21.6718 7.77044L22.8379 6.60423C23.0526 6.38956 23.0528 6.04143 22.8381 5.82659C22.7837 5.77217 22.7185 5.72984 22.6467 5.70228ZM17.5751 2.53705L18.0989 3.90027L17.4195 4.44545L17.2001 2.91083L17.5751 2.53705ZM14.8861 10.6388L13.1057 10.8932L13.3602 9.11222L18.7153 4.81468L19.1845 5.28402L14.8861 10.6388ZM21.0886 6.79866L19.5547 6.57944L20.0993 5.90097L21.4621 6.42501L21.0886 6.79866Z" fill="#667EEA"/>
<path d="M10.5006 10.9384C10.7992 10.8825 10.9959 10.5953 10.9401 10.2965C10.8845 9.99791 10.5971 9.8012 10.2985 9.85693C8.50826 10.1891 7.32646 11.9097 7.65865 13.6999C7.99079 15.49 9.71138 16.6719 11.5016 16.3396C12.8435 16.0907 13.8932 15.0405 14.1417 13.6986C14.1969 13.4003 13.9997 13.1138 13.7014 13.0586C13.4031 13.0034 13.1166 13.2006 13.0614 13.4989C12.8404 14.6921 11.694 15.4801 10.5008 15.2592C9.30752 15.0382 8.51952 13.8916 8.74059 12.6986C8.90624 11.8041 9.60598 11.1042 10.5003 10.9384H10.5006Z" fill="#667EEA"/>
<path d="M12.049 7.13209C12.0788 6.82985 11.8577 6.56078 11.5556 6.53126H11.5551C11.3385 6.50973 11.121 6.4988 10.9033 6.49852C7.2594 6.49852 4.30549 9.45243 4.30566 13.0963C4.30566 16.7401 7.25958 19.6941 10.9035 19.6941C14.5472 19.6939 17.5012 16.7401 17.5012 13.0962V13.096C17.5012 12.8753 17.4894 12.6573 17.4689 12.4426C17.4372 12.1403 17.1663 11.921 16.864 11.9528C16.5647 11.9842 16.3464 12.2502 16.3736 12.5499C16.3922 12.7313 16.4015 12.9136 16.4015 13.096C16.4015 16.1325 13.94 18.5941 10.9033 18.5941C7.86685 18.5941 5.40523 16.1325 5.40523 13.096C5.40523 10.0594 7.86685 7.59774 10.9033 7.59774C11.087 7.59774 11.2686 7.60745 11.4477 7.62524C11.7497 7.65428 12.0183 7.4339 12.0491 7.13213L12.049 7.13209Z" fill="#667EEA"/>
<path d="M19.2588 8.87438C18.9805 8.99538 18.8526 9.31898 18.9729 9.59763C20.9072 14.0566 18.8605 19.2393 14.4015 21.1736C9.94254 23.1079 4.75977 21.0612 2.8255 16.6022C0.891316 12.1431 2.93799 6.9604 7.39696 5.02613C8.50215 4.54675 9.69399 4.29935 10.8987 4.29927C12.1033 4.29918 13.2952 4.54639 14.4005 5.02561C14.6766 5.15185 15.0029 5.03034 15.1291 4.75405C15.2552 4.47794 15.1337 4.15163 14.8574 4.02543C14.8512 4.02258 14.8449 4.0199 14.8385 4.0174C9.82301 1.84281 3.99424 4.14579 1.81944 9.16137C-0.3552 14.1771 1.94791 20.0059 6.96362 22.1805C11.9792 24.3553 17.8079 22.0521 19.9827 17.0365C20.5216 15.7936 20.7996 14.4533 20.7996 13.0985C20.7995 11.7438 20.5214 10.4035 19.9823 9.16055C19.8612 8.88225 19.5376 8.7542 19.2588 8.87438Z" fill="#667EEA"/>
</svg>
