<svg width="24" height="24" viewBox="0 0 24 24" fill="none" xmlns="http://www.w3.org/2000/svg">
<path d="M13.8947 12.4737C14.1563 12.4737 14.3684 12.2616 14.3684 12C14.3684 11.7384 14.1563 11.5263 13.8947 11.5263C13.6331 11.5263 13.421 11.7384 13.421 12C13.421 12.2616 13.6331 12.4737 13.8947 12.4737Z" fill="#667EEA"/>
<path d="M6.78957 12.9473H5.84222V12C5.84222 11.8744 5.79232 11.7539 5.70349 11.6651C5.61465 11.5762 5.49417 11.5263 5.36855 11.5263C5.24292 11.5263 5.12244 11.5762 5.03361 11.6651C4.94478 11.7539 4.89487 11.8744 4.89487 12V12.9473H3.94752C3.8219 12.9473 3.70141 12.9973 3.61258 13.0861C3.52375 13.1749 3.47385 13.2954 3.47385 13.421C3.47385 13.5466 3.52375 13.6671 3.61258 13.756C3.70141 13.8448 3.8219 13.8947 3.94752 13.8947H4.89487V14.842C4.89487 14.9677 4.94478 15.0882 5.03361 15.177C5.12244 15.2658 5.24292 15.3157 5.36855 15.3157C5.49417 15.3157 5.61465 15.2658 5.70349 15.177C5.79232 15.0882 5.84222 14.9677 5.84222 14.842V13.8947H6.78957C6.9152 13.8947 7.03568 13.8448 7.12451 13.756C7.21334 13.6671 7.26325 13.5466 7.26325 13.421C7.26325 13.2954 7.21334 13.1749 7.12451 13.0861C7.03568 12.9973 6.9152 12.9473 6.78957 12.9473Z" fill="#667EEA"/>
<path d="M12.4737 13.8947C12.7353 13.8947 12.9474 13.6826 12.9474 13.421C12.9474 13.1594 12.7353 12.9473 12.4737 12.9473C12.2121 12.9473 12 13.1594 12 13.421C12 13.6826 12.2121 13.8947 12.4737 13.8947Z" fill="#667EEA"/>
<path d="M15.3157 13.8947C15.5773 13.8947 15.7894 13.6826 15.7894 13.421C15.7894 13.1594 15.5773 12.9473 15.3157 12.9473C15.0541 12.9473 14.842 13.1594 14.842 13.421C14.842 13.6826 15.0541 13.8947 15.3157 13.8947Z" fill="#667EEA"/>
<path d="M13.8947 15.3157C14.1563 15.3157 14.3684 15.1036 14.3684 14.842C14.3684 14.5804 14.1563 14.3684 13.8947 14.3684C13.6331 14.3684 13.421 14.5804 13.421 14.842C13.421 15.1036 13.6331 15.3157 13.8947 15.3157Z" fill="#667EEA"/>
<path d="M10.1053 14.3684H9.15794C9.03231 14.3684 8.91183 14.4183 8.823 14.5071C8.73417 14.5959 8.68427 14.7164 8.68427 14.842C8.68427 14.9677 8.73417 15.0882 8.823 15.177C8.91183 15.2658 9.03231 15.3157 9.15794 15.3157H10.1053C10.2309 15.3157 10.3514 15.2658 10.4402 15.177C10.5291 15.0882 10.579 14.9677 10.579 14.842C10.579 14.7164 10.5291 14.5959 10.4402 14.5071C10.3514 14.4183 10.2309 14.3684 10.1053 14.3684Z" fill="#667EEA"/>
<path d="M22.3313 5.54901C21.976 4.58844 21.2574 3.80601 20.3304 3.37049C19.4035 2.93496 18.3424 2.88123 17.3762 3.2209C16.7027 3.45428 16.107 3.86975 15.6554 4.42119H13.0814C12.6298 3.86976 12.0341 3.45442 11.3605 3.22137C10.3943 2.88169 9.33319 2.9354 8.40614 3.37092C7.4791 3.80644 6.76037 4.58888 6.40496 5.54949C6.03996 6.57262 5.76637 7.62609 5.58739 8.69753C4.74823 8.63959 3.9129 8.85524 3.20664 9.31212C2.50038 9.76901 1.96126 10.4425 1.6701 11.2317C0.516702 14.4318 0.304496 17.911 1.15285 19.6934C1.26404 19.9668 1.42961 20.2148 1.63953 20.4222C1.84944 20.6297 2.09931 20.7924 2.37398 20.9004C2.56605 20.967 2.768 21.0006 2.97129 20.9998C4.21184 20.9998 5.69018 19.8156 7.06716 17.6841H12.1961C13.8033 20.1685 15.5474 21.3664 16.8893 20.9004C17.164 20.7924 17.4138 20.6297 17.6237 20.4222C17.8337 20.2148 17.9992 19.9668 18.1104 19.6934C18.7371 18.378 18.784 16.1409 18.3032 13.7692C19.2506 14.7715 20.1932 15.3148 21.0264 15.3148C21.2302 15.3154 21.4327 15.2813 21.6251 15.2139C21.9 15.1062 22.1501 14.9438 22.3602 14.7364C22.5703 14.529 22.736 14.2809 22.8472 14.0074C23.695 12.2264 23.4838 8.74822 22.3313 5.54901ZM17.2545 19.2856C17.1949 19.4444 17.1044 19.5898 16.9882 19.7134C16.872 19.837 16.7325 19.9363 16.5776 20.0056C15.6852 20.3177 14.1898 19.0928 12.8588 16.9598C12.8162 16.8916 12.757 16.8353 12.6866 16.7962C12.6162 16.7572 12.5371 16.7367 12.4566 16.7367H6.80663C6.72625 16.7368 6.6472 16.7573 6.57693 16.7963C6.50666 16.8354 6.44748 16.8916 6.40496 16.9598C5.07346 19.0914 3.57854 20.3163 2.68566 20.0056C2.53081 19.9363 2.39124 19.837 2.27504 19.7134C2.15885 19.5898 2.06835 19.4444 2.00878 19.2856C1.27174 17.739 1.50431 14.4868 2.56108 11.5528C2.76967 10.9868 3.14749 10.4988 3.64319 10.1551C4.13888 9.81132 4.7284 9.62856 5.33161 9.63162C5.66565 9.63166 5.99729 9.68803 6.31259 9.79835C6.88203 9.99555 7.37623 10.3646 7.72699 10.8546C7.77087 10.9158 7.82869 10.9656 7.89566 11C7.96263 11.0343 8.03682 11.0522 8.11208 11.0522H11.1512C11.2264 11.0522 11.3006 11.0343 11.3676 11C11.4346 10.9656 11.4924 10.9158 11.5363 10.8546C11.8868 10.3644 12.3811 9.9953 12.9507 9.79835C13.6809 9.5401 14.4833 9.57909 15.1851 9.90693C15.8868 10.2348 16.4317 10.8252 16.7022 11.551C17.759 14.4868 17.9915 17.739 17.2545 19.2856ZM21.9912 13.6015C21.9314 13.7605 21.8405 13.9061 21.7239 14.0297C21.6073 14.1533 21.4673 14.2525 21.312 14.3215C20.4319 14.6332 18.9498 13.4272 17.623 11.3203C17.6126 11.2914 17.6041 11.2625 17.5936 11.2336C17.2378 10.2736 16.5192 9.49181 15.5926 9.05646C14.666 8.62111 13.6055 8.56706 12.6395 8.90595C11.9655 9.13851 11.3694 9.55373 10.9177 10.1053H8.3456C7.89408 9.55327 7.29818 9.13742 6.62427 8.90405C6.58922 8.89174 6.55369 8.88416 6.51817 8.87327C6.6876 7.85105 6.94805 6.84602 7.29641 5.87017C7.56703 5.14448 8.11188 4.55413 8.81359 4.22631C9.5153 3.8985 10.3177 3.85944 11.0479 4.11757C11.6176 4.31409 12.112 4.6829 12.4628 5.17292C12.5069 5.23372 12.5648 5.28317 12.6317 5.31718C12.6987 5.35119 12.7728 5.3688 12.8479 5.36854H15.8889C15.9641 5.36858 16.0383 5.35069 16.1053 5.31634C16.1723 5.28199 16.2301 5.23217 16.274 5.17102C16.6248 4.68101 17.1192 4.31207 17.6888 4.1152C18.4191 3.85746 19.2213 3.89669 19.9229 4.22446C20.6245 4.55223 21.1694 5.14234 21.4404 5.8678C22.4967 8.80269 22.7278 12.0535 21.9908 13.5996L21.9912 13.6015Z" fill="#667EEA"/>
<path d="M18.6315 6.78957C18.8931 6.78957 19.1051 6.5775 19.1051 6.31589C19.1051 6.05429 18.8931 5.84222 18.6315 5.84222C18.3698 5.84222 18.1578 6.05429 18.1578 6.31589C18.1578 6.5775 18.3698 6.78957 18.6315 6.78957Z" fill="#667EEA"/>
<path d="M11.5263 7.26324H10.579V6.31589C10.579 6.19027 10.5291 6.06979 10.4402 5.98096C10.3514 5.89212 10.2309 5.84222 10.1053 5.84222C9.97968 5.84222 9.85919 5.89212 9.77036 5.98096C9.68153 6.06979 9.63163 6.19027 9.63163 6.31589V7.26324H8.68428C8.55865 7.26324 8.43817 7.31315 8.34934 7.40198C8.26051 7.49081 8.2106 7.61129 8.2106 7.73692C8.2106 7.86255 8.26051 7.98303 8.34934 8.07186C8.43817 8.16069 8.55865 8.21059 8.68428 8.21059H9.63163V9.15794C9.63163 9.28357 9.68153 9.40405 9.77036 9.49288C9.85919 9.58172 9.97968 9.63162 10.1053 9.63162C10.2309 9.63162 10.3514 9.58172 10.4402 9.49288C10.5291 9.40405 10.579 9.28357 10.579 9.15794V8.21059H11.5263C11.652 8.21059 11.7724 8.16069 11.8613 8.07186C11.9501 7.98303 12 7.86255 12 7.73692C12 7.61129 11.9501 7.49081 11.8613 7.40198C11.7724 7.31315 11.652 7.26324 11.5263 7.26324Z" fill="#667EEA"/>
<path d="M17.2104 8.21059C17.472 8.21059 17.6841 7.99852 17.6841 7.73692C17.6841 7.47532 17.472 7.26324 17.2104 7.26324C16.9488 7.26324 16.7368 7.47532 16.7368 7.73692C16.7368 7.99852 16.9488 8.21059 17.2104 8.21059Z" fill="#667EEA"/>
<path d="M20.0525 8.21059C20.3141 8.21059 20.5261 7.99852 20.5261 7.73692C20.5261 7.47532 20.3141 7.26324 20.0525 7.26324C19.7909 7.26324 19.5788 7.47532 19.5788 7.73692C19.5788 7.99852 19.7909 8.21059 20.0525 8.21059Z" fill="#667EEA"/>
<path d="M18.6315 9.63162C18.8931 9.63162 19.1051 9.41955 19.1051 9.15795C19.1051 8.89634 18.8931 8.68427 18.6315 8.68427C18.3698 8.68427 18.1578 8.89634 18.1578 9.15795C18.1578 9.41955 18.3698 9.63162 18.6315 9.63162Z" fill="#667EEA"/>
</svg>
