<svg width="24" height="24" viewBox="0 0 24 24" fill="none" xmlns="http://www.w3.org/2000/svg">
<path d="M21.0476 18.1905C21.0476 19.2381 20.1905 20.0952 19.1429 20.0952H17.2381V18.1905" stroke="#667EEA" stroke-width="0.8" stroke-linecap="round" stroke-linejoin="round"/>
<path d="M4.85713 17.2381V20.0952H1.99999C1.42856 20.0952 1.04761 20.4762 1.04761 21.0476C1.04761 21.619 1.42856 22 1.99999 22H19.1428C21.2381 22 22.9524 20.2857 22.9524 18.1905" stroke="#667EEA" stroke-width="0.8" stroke-linecap="round" stroke-linejoin="round"/>
<path d="M15.3333 18.0952V20.0952H6.7619V17.2381" stroke="#667EEA" stroke-width="0.8" stroke-linecap="round" stroke-linejoin="round"/>
<path d="M8.66669 17.2381H3.90479C3.23812 15.9048 2.85717 14.4762 2.95241 12.9524C2.95241 10.0952 3.90479 10.5714 3.90479 7.71429V3.90476H6.76193C8.1905 3.90476 9.14289 2 9.14289 2H12.4762C12.4762 6.7619 14.8572 12.381 19.1429 13.4286C21.0476 13.9048 22.9524 14.8571 22.9524 16.2857V18.1905H16.2857C13.9048 18.1905 12.4762 16.2857 11.0476 15.8095C10.2857 15.5238 9.52384 15.3333 8.66669 15.3333V17.2381Z" stroke="#667EEA" stroke-width="0.8" stroke-linecap="round" stroke-linejoin="round"/>
<path d="M8.66666 15.3333C6.76189 15.2381 4.95237 14.9524 3.04761 14.5714M12.7619 4.85714L10.5714 5.80952M13.4286 7.23809L11.5238 8.19048M14.2857 9.33333L12.4762 10.5714" stroke="#667EEA" stroke-width="0.8" stroke-linecap="round" stroke-linejoin="round"/>
</svg>
