<svg width="24" height="24" viewBox="0 0 24 24" fill="none" xmlns="http://www.w3.org/2000/svg">
<path d="M22.9959 19.6115C22.944 18.7661 22.4357 18.0503 21.6941 17.708C20.19 16.9974 18.4162 18.2007 18.5251 19.8656C18.5666 21.017 19.6039 21.9973 20.7553 21.9765C22.0364 21.9817 23.0737 20.8874 22.9959 19.6115ZM20.8538 21.349C19.9773 21.4164 19.163 20.6799 19.1475 19.7982C19.163 19.7982 19.1786 19.793 19.189 19.7878L19.8165 19.4196C19.8425 19.404 19.858 19.3833 19.8632 19.3573L20.0603 18.6157C20.0655 18.5897 20.0655 18.5586 20.0499 18.5379C20.0344 18.5119 20.0136 18.4964 19.9877 18.4912L19.8062 18.4445C20.0707 18.2474 20.4182 18.1281 20.7657 18.1281L20.7138 18.2837C20.6982 18.3252 20.7138 18.3719 20.7501 18.3978L21.3777 18.8698C21.3932 18.8854 21.4192 18.8905 21.4399 18.8905H21.4503L22.0675 18.8179C22.0727 18.8179 22.0831 18.8179 22.0882 18.8127C22.8092 19.8241 22.1038 21.2919 20.8538 21.349Z" fill="#667EEA"/>
<path d="M21.3414 19.5026C21.3154 19.4662 21.2688 19.4507 21.2273 19.4662L20.3767 19.7619C20.3352 19.7774 20.3041 19.8189 20.3093 19.8656L20.3352 20.711C20.3352 20.7525 20.3611 20.7888 20.4026 20.8044C20.4078 20.8044 20.4234 20.8148 21.2325 21.0326C21.274 21.043 21.3154 21.0274 21.3414 20.9963L21.86 20.2961C21.886 20.2598 21.886 20.2079 21.86 20.1716L21.3414 19.5026ZM16.1444 18.1852C16.4919 17.1738 16.8394 16.1676 17.1869 15.1614C17.2855 14.8658 17.4048 14.5338 17.3996 14.176C17.3529 13.1957 16.6683 12.6148 16.0874 11.982C15.4754 11.3441 14.6507 10.4987 14.6352 9.66884C14.6559 9.57548 14.7389 9.47175 14.8271 9.36283C15.102 9.02052 15.3613 8.66783 15.605 8.29958C15.714 8.6419 15.9059 8.95309 16.1652 9.21242C16.4193 9.48212 16.7513 9.58585 17.1403 9.43025C18.3591 9.02052 19.5624 8.52261 20.7086 7.95209C20.8694 7.87429 21.0872 7.76537 21.2273 7.54753C21.3258 7.38156 21.3777 7.19485 21.3725 7.00295C21.3829 6.31313 20.9783 5.87746 20.5427 5.50922C20.4545 5.42104 20.3404 5.36918 20.2159 5.35362C19.8943 5.33806 19.7595 5.5922 19.6817 5.71668C19.6609 5.72705 19.635 5.73743 19.6039 5.75299C19.5468 5.7841 19.4794 5.77892 19.469 5.76336C19.4016 5.68556 19.3031 5.64407 19.2045 5.65444C19.106 5.66481 19.0126 5.72187 18.9659 5.81004C18.8363 6.04343 18.7792 6.30795 18.7896 6.57246C18.4162 6.63989 18.0427 6.72806 17.6745 6.8266C17.5967 6.33907 17.3944 5.88265 17.0936 5.49366C17.5396 5.28101 17.8353 4.75717 17.939 4.28C18.1516 3.67318 18.2709 3.03523 18.2554 2.45433C18.245 1.99273 18.0946 1.39109 17.3737 1.20437C15.5221 0.556054 14.3499 1.50519 14.5055 3.27381C13.3178 3.13377 12.1093 3.49683 10.9475 3.38791C10.8438 3.37236 10.7401 3.38273 10.6467 3.42941C9.7961 3.37236 8.95588 3.23232 8.13122 3.01448C7.14577 2.7759 6.1707 2.51657 5.16969 3.17527C4.92074 3.33086 4.79107 3.62131 4.82738 3.91176C4.86369 4.46153 5.16451 4.80384 5.44458 5.18765C5.62092 5.46772 5.95805 5.54034 6.23294 5.36399C6.45596 5.23952 6.5545 5.13578 6.6323 5.03724C6.79827 5.10985 7.00055 5.12023 7.16133 5.0528C7.31174 4.99575 7.44141 4.86608 7.57107 4.8194C7.62293 4.81422 7.67999 4.82978 7.73185 4.84534C7.98081 4.91276 8.25569 5.01649 8.54614 5.12022C9.12185 5.33287 9.7183 5.55071 10.2836 5.58183C10.3044 5.70112 10.3926 5.79966 10.5067 5.83078C10.8386 5.91896 11.1654 5.93451 11.4921 5.98638C11.4039 6.60358 11.3106 7.35045 11.3002 8.08694C11.3002 8.18548 11.3002 8.30477 11.2639 8.3722C11.2276 8.43962 11.129 8.49667 11.0201 8.55891C10.2629 8.9894 9.79092 9.66365 9.72868 10.5194C9.7183 10.6283 9.7183 10.7839 9.682 10.8669C9.64051 10.9447 9.58345 11.0173 9.51603 11.0744L8.11047 12.537C7.87708 12.7808 7.63849 13.0297 7.35323 13.1801C7.16652 13.2735 6.96943 13.3409 6.76715 13.3928C5.66242 13.6677 4.74958 14.3627 3.84193 14.9902C3.77969 15.0369 3.71227 15.0784 3.63447 15.0836C3.57223 15.0836 3.49443 15.0577 3.40626 15.0266C3.28697 14.9902 3.15731 14.9436 3.00171 14.9384C2.74238 14.928 2.47787 15.0369 2.27041 15.234C2.22373 15.2081 2.16149 15.1977 2.10444 15.2029C1.81399 15.2029 1.68433 15.5763 1.90735 15.7579C1.77768 16.012 1.76212 16.261 1.74138 16.5203C1.70507 16.9404 1.67395 17.2879 1.58578 17.6354C1.27977 17.625 1.15011 18.0244 1.37832 18.2111C1.31608 18.3356 1.2694 18.4393 1.2331 18.6053C0.937461 18.6779 0.916715 19.1239 1.20716 19.2225C1.25384 19.487 1.4613 19.71 1.73619 19.7048C1.81918 19.7048 1.92291 19.6893 2.00071 19.6426C2.59716 19.264 2.92391 18.8646 3.30253 18.403C3.44257 18.2318 3.58779 18.0503 3.76414 17.8532C3.87824 17.7184 3.95085 17.5576 3.9716 17.3864C4.92074 16.5981 6.18107 16.2973 7.30137 16.0587C7.74223 15.9653 8.19864 15.8668 8.6395 15.6852C9.51603 15.3118 10.211 14.622 10.8179 13.9996C11.0668 14.1967 11.3365 14.1189 11.5129 13.9529L11.99 13.5484L13.0118 14.1656C13.323 14.3679 13.6705 14.4768 14.0543 14.3316C14.2202 14.4716 14.4121 14.622 14.4277 14.788C14.4381 14.9643 14.2514 15.2081 14.1684 15.3948C13.9505 15.846 13.935 16.3284 13.9246 16.7952C13.909 17.3968 13.852 18.0036 13.7431 18.6001C13.6445 18.626 13.5356 18.6831 13.4267 18.792C13.0325 19.1862 12.8717 19.876 13.1259 20.3531C12.9029 20.5347 13.0325 20.9081 13.323 20.9029C13.4215 20.9081 13.5149 20.8718 13.5771 20.8044C13.9661 21.0326 14.5833 21.1571 14.9671 21.4008C14.8841 21.5979 15.0397 21.8313 15.2575 21.8261C15.3613 21.8313 15.465 21.7898 15.5272 21.712C15.6362 21.7691 15.7451 21.8261 15.8592 21.8832C15.771 22.2411 16.2534 22.4226 16.4505 22.1321C16.5023 22.1529 16.5594 22.1684 16.6061 22.1633C16.7409 22.1633 16.8239 22.101 16.8758 22.0699C17.2492 21.9454 17.3529 21.4216 17.1455 21.1311C16.6475 20.4154 15.9111 19.653 15.9837 18.7868C16.0096 18.5897 16.0667 18.3823 16.1444 18.1852ZM16.772 14.1863C16.7772 14.4301 16.689 14.6842 16.6061 14.9332C16.103 14.622 15.5376 14.4405 14.9515 14.399C14.8789 14.2538 14.77 14.1293 14.6507 14.0255C15.1642 13.6988 15.6258 13.2891 16.0148 12.8171C16.3519 13.1905 16.7565 13.6469 16.772 14.1863ZM18.8881 7.18966C18.9971 7.16892 19.1838 7.13261 19.3083 6.95627C19.4535 6.73843 19.386 6.58802 19.412 6.39093C19.5935 6.42205 19.801 6.35981 19.9669 6.26645C20.0966 6.2094 20.1433 6.14716 20.2055 6.04343C20.553 6.34944 20.7501 6.61395 20.7449 6.99776C20.7501 7.07556 20.7346 7.14817 20.6931 7.21559C20.6412 7.28821 20.5219 7.35044 20.4234 7.39712C19.2356 7.96246 18.0064 8.53298 16.7409 8.88048C16.7202 8.87529 16.6735 8.85455 16.5957 8.77156C16.4142 8.59003 16.2793 8.3722 16.1963 8.1388C16.8291 7.64089 18.0168 7.35044 18.8881 7.18966ZM15.2368 4.99056C15.5169 5.23433 15.8073 5.41067 16.0926 5.50922C16.0407 5.58701 15.9785 5.65963 15.9007 5.71668C15.7606 5.81004 15.548 5.83597 15.4235 5.77892C15.1746 5.61813 15.1279 5.23952 15.0968 4.87127C15.1434 4.91276 15.1901 4.95425 15.2368 4.99056ZM17.3322 4.10885C17.2388 4.56008 16.9536 5.04761 16.5283 4.96981C16.0511 4.91795 15.5013 4.48228 15.2939 4.10885C15.4961 3.92732 15.6206 3.67836 15.688 3.41385C15.8696 3.67836 16.2326 3.6265 16.3104 3.35161C16.409 2.99374 16.5749 2.6618 16.9172 2.66698C17.1351 2.70329 17.3581 2.88482 17.6019 2.93668C17.5656 3.3153 17.467 3.73541 17.3322 4.10885ZM15.1383 2.57881C15.3613 1.56743 16.0822 1.45333 17.1818 1.80083C17.4307 1.86825 17.5656 1.97198 17.6071 2.27799C17.4152 2.18982 17.2336 2.0809 16.995 2.04978C16.5646 1.99273 16.1133 2.28836 15.9059 2.69292C15.5376 2.55807 15.2005 2.82777 15.1123 3.17008C15.0968 2.98336 15.0968 2.78109 15.1383 2.57881ZM7.89782 4.23851C7.46734 4.10366 7.26506 4.24888 6.93831 4.46153C6.88126 4.2437 6.58562 4.16071 6.42484 4.3215C6.30036 4.44079 6.22775 4.52896 6.1707 4.60157C6.09809 4.68974 6.06697 4.73642 5.92693 4.81422C5.67798 4.47191 5.38234 4.15034 5.43939 3.75097C6.14995 3.14933 7.17689 3.42941 7.96006 3.62131C8.73804 3.82359 9.53159 3.96362 10.3303 4.03105C10.2836 4.31631 10.2577 4.65343 10.2473 4.94907C9.53159 4.89202 8.63431 4.44079 7.89782 4.23851ZM11.2483 5.31731C11.1239 5.30175 10.9994 5.28619 10.8853 5.26545C10.8749 4.88683 10.9008 4.36817 10.9786 4.01549C12.1664 4.11403 13.3904 3.74579 14.5418 3.90657C14.4277 4.40448 14.4277 5.33806 14.7233 5.89821C14.8789 6.21459 15.2264 6.43761 15.5791 6.42724C16.02 6.42205 16.3623 6.21459 16.5957 5.87746C16.8498 6.20422 17.0106 6.59321 17.0677 7.00813C16.7046 7.13261 16.3934 7.27783 16.1289 7.43862C16.2015 7.30895 16.2741 7.16891 16.3571 7.01332C16.5334 6.63989 16.0044 6.37018 15.8021 6.72806C15.631 7.06 15.4858 7.31933 15.3457 7.55272C15.0397 8.04544 14.7026 8.52261 14.3343 8.97902C14.1839 9.16055 13.9868 9.44581 14.0076 9.73626C13.1362 9.74145 12.3012 9.44063 11.627 8.89604C11.8811 8.68858 11.9382 8.34108 11.9278 8.08694C11.9382 7.27265 12.0523 6.42724 12.156 5.7841C12.1819 5.62851 12.0834 5.4781 11.933 5.4366C11.6996 5.37437 11.4662 5.34325 11.2483 5.31731ZM3.29734 17.4383C2.77869 18.014 2.43638 18.5949 1.81399 19.0202C1.8088 18.8905 1.84511 18.6883 1.90735 18.5638C2.26003 17.8532 2.3119 17.262 2.37414 16.5773C2.38451 16.4892 2.3897 16.3958 2.40007 16.3024C2.41563 16.1468 2.49343 15.9705 2.63347 15.7786C2.73201 15.6438 2.86686 15.5608 2.98096 15.5608C3.05358 15.5608 3.15212 15.5971 3.24548 15.6282C3.11582 16.0846 3.13138 16.567 3.28697 17.0182C3.32846 17.153 3.41145 17.3138 3.29734 17.4383ZM7.17689 15.4467C6.07215 15.6801 4.85331 15.9705 3.83156 16.7018C3.7382 16.3595 3.75376 16.0016 3.87824 15.6697C4.13238 15.5867 4.32947 15.4 4.55249 15.2599C5.24749 14.7776 5.901 14.3212 6.65305 14.0774C6.85532 14.01 7.05241 13.9685 7.2495 13.9011C7.36361 13.9737 7.49327 14.1345 7.58144 14.233C7.84077 14.5079 8.08972 14.8191 8.18827 15.1925C7.8667 15.3014 7.52958 15.3741 7.17689 15.4467ZM8.75879 14.928C8.59282 14.4094 8.21939 13.9996 7.85633 13.6054C8.22458 13.3513 8.49946 13.0349 8.78991 12.7341C9.27745 13.0764 9.82203 13.315 10.3148 13.621C9.85315 14.093 9.34487 14.5909 8.75879 14.928ZM13.686 13.7766C13.5667 13.7766 13.463 13.704 13.3385 13.6314L12.0782 12.8689C11.6218 12.5889 11.1602 12.2829 11.0098 11.8368C10.9579 11.676 10.7815 11.5879 10.6156 11.6397C10.4548 11.6916 10.3666 11.8679 10.4185 12.0339C10.5896 12.5526 11.0046 12.9104 11.4351 13.2009L11.1394 13.4498C10.5637 12.9623 9.83241 12.6874 9.22039 12.2829L9.96207 11.5101C10.0762 11.4011 10.1695 11.2819 10.2421 11.1418C10.3355 10.9447 10.3355 10.7528 10.3511 10.5661C10.3977 10.006 10.6311 9.58585 11.0876 9.25391C11.9226 9.99559 13.0118 10.395 14.1373 10.3535C14.4277 11.147 15.0086 11.7642 15.5791 12.3607C15.1746 12.8689 14.6715 13.2994 14.1061 13.621C13.9817 13.6936 13.8209 13.7766 13.686 13.7766ZM16.4142 21.2037C16.4816 21.2971 16.5542 21.3905 16.6216 21.4838V21.5046C16.6061 21.5097 16.5957 21.5201 16.5801 21.5253C15.9889 21.3075 15.5687 21.0118 15.0293 20.7318C14.7389 20.5762 14.1321 20.4206 13.8675 20.2598C13.6808 20.1405 13.629 20.0523 13.6186 19.8086C13.6082 19.6167 13.7898 19.2588 13.8987 19.2017H13.9298C14.4018 19.5233 14.9619 19.7567 15.5376 19.7982C15.7399 20.2961 16.0822 20.7577 16.4142 21.2037ZM15.5584 17.9673C15.4183 18.3459 15.3094 18.7453 15.3613 19.1499C15.0034 19.0773 14.6559 18.9372 14.3499 18.7349C14.4536 18.154 14.5159 17.5576 14.5366 16.9663C14.5522 16.5151 14.547 16.0276 14.7285 15.6593C14.8323 15.4518 14.9619 15.2703 15.0242 15.0214C15.5169 15.0732 15.9785 15.2599 16.3986 15.5245C16.1185 16.3439 15.8384 17.1582 15.5584 17.9673Z" fill="#667EEA"/>
</svg>
