<svg width="24" height="24" viewBox="0 0 24 24" fill="none" xmlns="http://www.w3.org/2000/svg">
<path fill-rule="evenodd" clip-rule="evenodd" d="M21.4844 14.6053C21.4912 14.3185 21.2391 14.0989 20.946 14.1558C20.8227 14.1797 20.7437 14.2729 20.7487 14.3954C20.8083 15.8605 19.7707 17.1866 18.3354 17.4805L2.78588 20.6618C2.60317 20.6989 2.48313 20.8812 2.52059 21.0637L2.53135 21.1158C2.56899 21.2999 2.74928 21.4186 2.9331 21.3815L18.4826 18.1996C20.1805 17.8524 21.4429 16.3405 21.4844 14.6053ZM11.3254 18.2898V17.0365C11.3254 16.9907 11.343 16.9468 11.3744 16.9136C11.4058 16.8804 11.4487 16.8605 11.4943 16.8579L15.1928 16.6527C15.4271 16.6401 15.6282 16.8047 15.6613 17.0365L15.7122 17.3924L11.3254 18.2898ZM12.4312 16.1929L12.7891 15.3344L14.206 15.7139L14.0103 16.1056L12.4312 16.1929ZM13.0804 13.3243L10.3239 14.2063C9.79668 14.3751 9.25313 14.2126 8.90543 13.7817C8.68742 13.5116 8.58878 13.1883 8.61345 12.8669L12.818 11.743L15.264 11.1619C15.8146 11.0308 16.264 11.5982 16.0109 12.1043L14.4853 15.1552L13.0266 14.7644L13.4561 13.7335C13.5559 13.4938 13.328 13.2452 13.0804 13.3243ZM9.39111 10.0341L10.0786 8.84019C9.61029 8.83781 9.08895 8.78676 8.51566 8.68763C8.40661 8.92672 8.46102 9.22054 8.66742 9.40069L9.39111 10.0341ZM7.5879 6.95005L10.0833 5.79822C10.1286 5.77738 10.1783 5.76788 10.2281 5.77054C10.2779 5.7732 10.3263 5.78793 10.3691 5.81347L11.7154 6.62124C11.7842 6.66256 11.834 6.72923 11.8542 6.8069C11.8743 6.88456 11.8632 6.96704 11.8231 7.03658L11.2084 8.1042C11.5477 8.00924 11.8192 7.86089 12.0208 7.65943C12.4361 7.24544 12.5691 6.56942 12.4184 5.65145L10.8159 4.5299C10.5972 4.37658 10.3291 4.36603 10.099 4.50151L7.06069 6.28879L7.5879 6.95005ZM7.35231 7.63602L6.73964 8.09577L6.3888 7.74435C6.3413 7.6969 6.27951 7.6664 6.21296 7.65756C6.14641 7.64871 6.0788 7.66201 6.02056 7.69541L5.07961 8.23303C4.90588 8.33217 4.72923 8.34931 4.53948 8.28615C4.27876 8.19903 4.196 8.04791 4.10148 7.82716C3.96852 7.51705 4.08923 7.1572 4.3822 6.98966L5.43103 6.39022L6.44236 6.49465L7.35231 7.63602ZM13.1727 5.43236L14.9438 6.67228L15.1872 6.36797L13.7122 4.89289L13.1727 5.43236ZM14.7318 5.0473L15.4303 4.11537L16.8998 5.04227L16.4725 6.03942H15.7239L14.7318 5.0473ZM15.2468 3.27629L17.8681 4.92945C18.1394 4.22908 17.8756 3.42913 17.2365 3.02617C16.5946 2.6215 15.7592 2.73181 15.2468 3.27629ZM10.4329 8.22442C10.0051 8.24838 9.51039 8.21944 8.95061 8.13762L10.3321 6.50501L11.1428 6.99158L10.4329 8.22442ZM15.1048 7.79387C15.0788 7.5995 14.9882 7.45035 14.8277 7.33802L13.085 6.11811C13.1286 6.96691 12.9174 7.62947 12.4532 8.09294C12.0707 8.4746 11.5203 8.70974 10.8083 8.79892L8.87062 12.1644L12.5695 11.176L14.9573 8.30629C15.0825 8.15552 15.1308 7.98797 15.1048 7.79387ZM22.0963 14.6197V14.62C22.0731 15.5911 21.7168 16.5425 21.0934 17.2992C20.4601 18.0678 19.5765 18.6007 18.6053 18.7992L3.05579 21.9809C2.54553 22.0844 2.0376 21.7583 1.93174 21.2386C1.87486 20.9594 1.89679 20.7177 2.05976 20.4708C2.20012 20.2583 2.41441 20.1131 2.66319 20.0621L10.7134 18.415V17.0365C10.7134 16.6172 11.0415 16.2702 11.4603 16.2471L11.7526 16.2308L12.6366 14.1089L10.5103 14.7894C9.73675 15.0369 8.9393 14.7978 8.42917 14.166C7.91905 13.5339 7.85391 12.7038 8.25912 11.9999L9.07966 10.5748L8.26437 9.86148C7.76563 9.4251 7.70821 8.65865 8.13625 8.15283L9.22186 6.86975L7.98077 7.44236C8.04994 7.52934 8.10835 7.59888 8.09153 7.7304C8.0863 7.77103 8.07299 7.8102 8.0524 7.84562C8.03181 7.88103 8.00434 7.91197 7.97162 7.93661L6.89444 8.74437C6.83549 8.78849 6.76261 8.80987 6.68916 8.80461C6.61572 8.79934 6.54664 8.76778 6.49458 8.71571L6.12118 8.34249L5.3886 8.76097L7.9147 17.528C7.97108 17.7236 7.82422 17.9189 7.62056 17.9189C7.55423 17.9188 7.48972 17.8972 7.43672 17.8573C7.38373 17.8174 7.34512 17.7614 7.3267 17.6977L4.80154 8.93359C4.65171 8.94148 4.49399 8.91627 4.34502 8.86625C3.99046 8.74765 3.72517 8.50277 3.57794 8.15924L3.53891 8.06849C3.28349 7.4722 3.51545 6.78044 4.07856 6.45849L4.08699 6.45351L2.91624 2.39097C2.89376 2.31296 2.90318 2.22921 2.94243 2.15814C2.98168 2.08707 3.04755 2.03449 3.12555 2.01197C3.28789 1.9654 3.45754 2.0588 3.50428 2.22132L4.63377 6.14098L5.21275 5.81011C5.26832 5.77852 5.33238 5.76509 5.39595 5.77171L6.53293 5.88902L9.78865 3.97388C10.2246 3.7177 10.7526 3.73847 11.1668 4.02861L12.6636 5.07627L13.4958 4.24402C13.5242 4.21552 13.5579 4.1929 13.595 4.17747C13.6322 4.16203 13.672 4.15409 13.7122 4.15409C13.7524 4.15409 13.7922 4.16203 13.8294 4.17747C13.8665 4.1929 13.9002 4.21552 13.9286 4.24402L14.2946 4.60988L14.911 3.7879L14.6366 3.61484C14.568 3.57158 14.5193 3.50282 14.5014 3.42371C14.4835 3.34459 14.4977 3.26159 14.5409 3.19295C15.186 2.17063 16.5402 1.86353 17.5629 2.50828C18.585 3.15267 18.8928 4.5085 18.2474 5.53046C18.204 5.59904 18.1352 5.6476 18.0561 5.66546C17.977 5.68332 17.894 5.66902 17.8254 5.6257L17.4239 5.37292L16.9555 6.4658C16.9319 6.52088 16.8927 6.56784 16.8427 6.60086C16.7927 6.63387 16.7342 6.65148 16.6742 6.65151H15.7442L15.4211 7.05501C15.8152 7.51306 15.8315 8.21186 15.4276 8.69736L13.5646 10.9368L15.1224 10.5665C15.6099 10.451 16.1058 10.6228 16.4169 11.0152C16.7281 11.4076 16.7821 11.9298 16.5581 12.3777L14.714 16.0664L15.1588 16.0414C15.7123 16.0096 16.1887 16.4012 16.267 16.9499L16.3127 17.2695L18.2126 16.8805C19.3573 16.6464 20.1846 15.5885 20.1371 14.4201C20.1201 14.003 20.4097 13.6327 20.8219 13.5566C21.1454 13.4895 21.4626 13.5695 21.7158 13.781C21.969 13.9922 22.1041 14.2899 22.0963 14.6197ZM3.17969 16.0761C3.10921 16.076 3.04093 16.0516 2.98637 16.007C2.9318 15.9624 2.89429 15.9003 2.88017 15.8312C2.87212 15.7919 2.8719 15.7513 2.87953 15.7119C2.88716 15.6725 2.90248 15.6349 2.92463 15.6014C2.94677 15.5679 2.9753 15.5391 3.00859 15.5166C3.04188 15.4941 3.07928 15.4784 3.11864 15.4704L5.18602 15.0472C5.26557 15.031 5.34827 15.0471 5.41598 15.0919C5.48368 15.1367 5.53086 15.2065 5.54717 15.286C5.58108 15.4514 5.47432 15.6129 5.3087 15.6469L3.24133 16.0698C3.2206 16.074 3.19992 16.0761 3.17969 16.0761ZM1.95053 18.1393C1.94246 18.1 1.94223 18.0594 1.94984 18.02C1.95746 17.9805 1.97277 17.9429 1.99491 17.9094C2.01704 17.8759 2.04557 17.847 2.07886 17.8245C2.11214 17.802 2.14954 17.7863 2.18891 17.7782L5.57243 17.0859C5.73818 17.0525 5.89967 17.1591 5.93358 17.3245C5.94976 17.404 5.93374 17.4867 5.88903 17.5544C5.84433 17.6221 5.77459 17.6693 5.69511 17.6856L2.31159 18.3779C2.14916 18.4111 1.98489 18.3073 1.95053 18.1393Z" fill="#667EEA"/>
</svg>
