<svg width="24" height="24" viewBox="0 0 24 24" fill="none" xmlns="http://www.w3.org/2000/svg">
<path d="M20.2603 10.3461L22.979 1.97986L22.3654 1.7804L21.4734 4.52512L18.9571 3.70902L19.8249 1.2118L19.2154 1L16.8236 7.88301C16.7348 8.14754 16.5364 8.3664 16.2649 8.49927C15.9758 8.6407 15.6437 8.66354 15.3538 8.56203C13.7576 8.00259 10.9121 7.29737 8.15342 6.98281C4.90315 6.61233 2.81014 6.8742 1.93252 7.76124C1.26215 8.43875 0.951332 9.45078 1.03362 10.6879C1.16507 12.6638 2.28016 14.8858 3.68517 15.9713C4.40251 16.5256 5.74214 16.8063 7.66891 16.8063C7.7342 16.8063 7.80027 16.8059 7.8669 16.8053C9.35346 16.7909 11.197 16.6096 13.0869 16.2936C13.3261 17.0867 13.7586 17.8112 14.3551 18.4049V20.2041L16.4198 21.0644V23H17.065V20.6343L15.0003 19.774V18.8492H20.8502V19.774L18.7855 20.6343V23H19.4307V21.0644L21.4954 20.2041V18.4049C22.4445 17.4603 22.9794 16.1845 22.9794 14.8274C22.9793 12.8824 21.8748 11.1908 20.2603 10.3461ZM12.9401 15.6641C9.45949 16.2427 5.39902 16.4803 4.07965 15.4607C2.82846 14.494 1.79574 12.4237 1.67741 10.6451C1.62884 9.91473 1.71324 8.9002 2.39118 8.21499C3.10194 7.49657 5.12235 7.28653 8.08034 7.62389C10.7893 7.93273 13.5782 8.62341 15.1405 9.17093C15.5923 9.32927 16.1056 9.29567 16.5486 9.07875C16.9763 8.86945 17.2913 8.51764 17.4342 8.09145L18.7453 4.31857L21.2741 5.13872L19.6675 10.0828C19.1242 9.8826 18.5372 9.77321 17.9252 9.77321C15.1384 9.77321 12.8711 12.0405 12.8711 14.8274C12.871 15.1077 12.8941 15.3876 12.9401 15.6641ZM20.7596 18.2039H15.0908C14.0887 17.3628 13.5163 16.1386 13.5163 14.8274C13.5163 12.3962 15.4941 10.4184 17.9252 10.4184C20.3563 10.4184 22.3341 12.3962 22.3341 14.8274C22.3341 16.1386 21.7616 17.3628 20.7596 18.2039Z" fill="#667EEA"/>
<path d="M15.4734 13.1641H16.1186V13.8093H15.4734V13.1641ZM17.6671 13.1641H18.3123V13.8093H17.6671V13.1641ZM19.8608 13.1641H20.506V13.8093H19.8608V13.1641ZM15.4734 16.5479H16.1186V17.1931H15.4734V16.5479ZM17.6671 16.5479H18.3123V17.1931H17.6671V16.5479ZM19.8608 16.5479H20.506V17.1931H19.8608V16.5479ZM16.5917 11.4723H17.2369V12.1175H16.5917V11.4723ZM18.7854 11.4723H19.4307V12.1175H18.7854V11.4723ZM14.398 14.856H15.0432V15.5013H14.398V14.856ZM16.5917 14.856H17.2369V15.5013H16.5917V14.856ZM18.7854 14.856H19.4307V15.5013H18.7854V14.856ZM20.9792 14.856H21.6244V15.5013H20.9792V14.856ZM7.06414 9.4291H7.70935V10.0743H7.06414V9.4291ZM8.35456 9.4291H8.99977V10.0743H8.35456V9.4291ZM2.80576 9.4291H6.41893V10.0743H2.80576V9.4291ZM9.64497 9.4291H10.8064V10.0743H9.64497V9.4291ZM2.80576 11.1927H10.3332V11.8379H2.80576V11.1927ZM10.9784 11.1927H11.6236V11.8379H10.9784V11.1927ZM8.87072 12.9562H9.51593V13.6015H8.87072V12.9562ZM3.66603 12.9562H8.22551V13.6015H3.66603V12.9562ZM10.1611 12.9562H10.8064V13.6015H10.1611V12.9562Z" fill="#667EEA"/>
</svg>
