<svg width="24" height="24" viewBox="0 0 24 24" fill="none" xmlns="http://www.w3.org/2000/svg">
<path d="M4.84827 9.34477L3.79984 9.75485C3.65753 9.81056 3.50218 9.82407 3.35239 9.79377C3.2026 9.76346 3.06472 9.69063 2.95525 9.58398C2.79324 9.42595 2.71577 9.22101 2.71577 9.01783C2.71577 8.73718 2.86362 8.45964 3.14028 8.31445L8.66109 5.4146C8.97936 5.24728 9.3295 5.15034 9.6885 5.12953L10.1466 5.10342M12.4148 4.97328L12.7928 4.95159C13.193 4.92857 13.5923 5.00116 13.9584 5.16318L17.0224 6.5208C17.1092 6.55931 17.211 6.52523 17.257 6.44245L18.3814 4.41996C18.5456 4.1247 18.8957 3.98571 19.218 4.08796C19.5248 4.18491 19.7142 4.46732 19.7142 4.76567C19.7142 4.87102 19.6908 4.97815 19.6403 5.07996L18.4433 7.49642C18.083 8.2237 17.234 8.56676 16.4687 8.29408L14.1832 7.4796C14.0438 7.43002 13.9061 7.55795 13.9455 7.70048L15.1991 12.2466L10.9434 12.6689L9.73896 7.82C9.69248 7.63275 9.49151 7.52873 9.31135 7.59911L6.30483 8.77507" stroke="#667EEA" stroke-width="0.8" stroke-miterlimit="10" stroke-linecap="round" stroke-linejoin="round"/>
<path d="M11.1047 5.4266L11.1069 5.42669C12.1287 5.47715 12.998 4.6898 13.0486 3.66802L13.0844 2.94427C13.135 1.92231 12.3474 1.05289 11.3255 1.00238L11.3233 1.0023C10.3015 0.951834 9.43224 1.73919 9.38165 2.76097L9.34584 3.48471C9.29524 4.50667 10.0828 5.37614 11.1047 5.4266Z" stroke="#667EEA" stroke-width="0.8" stroke-miterlimit="10" stroke-linecap="round" stroke-linejoin="round"/>
<path d="M9.67924 1.84171L11.2408 2.1818C11.3643 2.20869 11.4774 2.27059 11.5667 2.36008C11.6559 2.44957 11.7175 2.56287 11.744 2.68643L11.8297 3.08544C11.8556 3.20609 11.915 3.31702 12.0009 3.40557L12.8933 4.32456M16.0221 17.6081L14.2407 15.3185C14.1767 15.2362 14.2782 15.1282 14.3645 15.1867L19.2022 18.4665L19.7347 16.889L16.177 14.4232C16.0101 14.3075 15.8833 14.1427 15.8143 13.9516L15.199 12.2465L10.9435 12.669L11.9462 15.4454C12.0349 15.6907 12.171 15.9162 12.3468 16.109L16.9148 21.1169L17.9144 20.0405L16.9799 18.8393" stroke="#667EEA" stroke-width="0.8" stroke-miterlimit="10" stroke-linecap="round" stroke-linejoin="round"/>
<path d="M15.7595 5.96137L15.3162 7.88325M6.60252 6.49575L7.52041 8.29962M19.2016 4.08309C19.5301 3.79493 19.7527 3.38547 19.7943 2.91625C19.8807 1.94816 19.1649 1.09339 18.1959 1.00708C17.2265 0.920759 16.3704 1.63565 16.2841 2.60374C16.1978 3.57183 16.9135 4.4266 17.8825 4.51291C18.0388 4.52664 18.1919 4.52 18.3398 4.49476M21.2309 18.2643L20.485 19.7858C20.4012 19.9567 20.1624 19.9702 20.0599 19.8097L19.2021 18.4665L19.7346 16.889L21.0098 17.5759C21.2566 17.7088 21.3543 18.0127 21.2309 18.2643ZM18.7627 21.8866L17.6443 22.8925C17.3802 23.1301 16.9587 22.9487 16.9502 22.5938L16.9148 21.1169L17.9144 20.0404L18.8171 21.1186C19.0088 21.3475 18.9848 21.6869 18.7627 21.8866Z" stroke="#667EEA" stroke-width="0.8" stroke-miterlimit="10" stroke-linecap="round" stroke-linejoin="round"/>
</svg>
