<svg width="24" height="24" viewBox="0 0 24 24" fill="none" xmlns="http://www.w3.org/2000/svg">
<path d="M17.0418 1.5C16.9884 1.50257 16.9364 1.51771 16.89 1.54418C14.9791 2.54104 14.3937 3.91898 14.0209 5.38251C11.0441 5.73321 6.97933 8.08591 4.9 11.4631C3.45028 13.8213 1.29363 18.7725 1.29363 18.7725C1.05891 19.2336 1.7824 19.5457 1.96189 19.0624C1.96189 19.0624 4.14615 14.0892 5.52408 11.8469C7.50952 8.62714 11.6903 6.2413 14.3274 6.01763C14.4046 6.01139 14.4778 5.98072 14.5364 5.93007C14.5949 5.87943 14.6359 5.81144 14.6532 5.73597C14.957 4.47401 15.5175 3.01876 16.959 2.37812C17.4809 3.259 17.4008 4.50439 17.2793 5.4405C17.2683 5.52334 17.2876 5.60618 17.3345 5.67798C17.3345 5.67798 18.4336 7.47288 18.9361 8.3731C19.5354 9.45556 20.049 10.6153 20.6813 11.7337C20.9796 12.2611 21.4186 12.7913 21.7555 13.3132C22.0924 13.8379 22.3078 14.3377 22.2664 14.7491C22.1697 15.6825 21.3413 16.4722 20.4107 16.4861C20.3058 16.4861 20.1346 16.417 19.9385 16.2596C19.721 16.0736 19.5255 15.8633 19.3559 15.6328C18.9969 15.1606 18.7401 14.6773 18.7401 14.6773C18.7065 14.6135 18.6547 14.561 18.5913 14.5266C18.5279 14.4922 18.4557 14.4774 18.3839 14.484C18.3839 14.484 17.7929 14.5338 17.0418 14.473C16.288 14.4123 15.3933 14.2328 14.83 13.8462C13.3333 12.8189 13.0986 10.8694 13.0986 10.8694C13.0433 10.3861 12.3171 10.4662 12.3696 10.9522C12.3696 10.9522 12.5988 13.1972 14.413 14.4454C15.1724 14.9701 16.172 15.1357 16.9866 15.202C17.6714 15.2572 18.0553 15.2241 18.2182 15.2131C18.2955 15.3566 18.4419 15.6411 18.7705 16.0746C18.9748 16.3397 19.2123 16.6131 19.4801 16.8312C19.7383 17.0676 20.072 17.2046 20.4218 17.2178C21.7472 17.2013 22.8518 16.1298 22.9899 14.8237C23.0617 14.1278 22.7413 13.4927 22.3685 12.9183C22.0013 12.3467 21.5677 11.8138 21.3192 11.3775C20.7117 10.3005 20.2009 9.14076 19.5768 8.01688C19.0553 7.10828 18.5195 6.20796 17.9697 5.31624C18.1022 4.1316 18.0801 2.90555 17.376 1.68501C17.3425 1.6268 17.2935 1.57898 17.2346 1.54681C17.1756 1.51465 17.1089 1.49941 17.0418 1.50276V1.5Z" fill="#667EEA"/>
<path d="M21.032 11.6205L18.1243 14.5586L18.6434 15.0722L21.5511 12.1313L21.032 11.6205Z" fill="#667EEA"/>
<path d="M11.6267 3.95211L10.9309 4.17855C12.3364 8.48355 14.2804 12.5373 19.1322 14.2245L19.378 13.5341C14.8051 11.9436 13.013 8.19637 11.6267 3.95211Z" fill="#667EEA"/>
<path d="M18.1215 6.14465C15.4623 7.19398 14.1423 8.84529 14.1451 10.7148H14.8741C14.8713 9.17942 15.8958 7.80701 18.3894 6.82672L18.1215 6.14465ZM16.9645 8.53049C16.8773 8.57297 16.8106 8.64833 16.779 8.73999C16.7474 8.83165 16.7536 8.93211 16.796 9.01926C16.8385 9.10641 16.9139 9.17312 17.0055 9.20471C17.0972 9.2363 17.1976 9.23018 17.2848 9.1877C17.4698 9.09658 17.6051 9.138 17.6714 9.20427C17.7377 9.27055 17.8012 9.39205 17.6493 9.70132C17.6281 9.74466 17.6156 9.79174 17.6126 9.8399C17.6096 9.88805 17.6161 9.93633 17.6317 9.98197C17.6474 10.0276 17.6718 10.0697 17.7038 10.1059C17.7357 10.1421 17.7744 10.1716 17.8177 10.1928C17.8611 10.2141 17.9082 10.2265 17.9563 10.2295C18.0045 10.2326 18.0528 10.2261 18.0984 10.2104C18.144 10.1948 18.1862 10.1703 18.2223 10.1384C18.2585 10.1065 18.2881 10.0677 18.3093 10.0244C18.555 9.52183 18.4943 8.99441 18.185 8.68789C18.0232 8.53797 17.8187 8.44223 17.5999 8.41402C17.3811 8.3858 17.159 8.42652 16.9645 8.53049ZM13.278 12.3743C13.1995 12.3827 13.1259 12.4163 13.0681 12.47C13.0104 12.5238 12.9716 12.5949 12.9577 12.6726C12.5021 14.9286 12.9605 16.5717 13.5459 18.049C14.1313 19.5263 14.8161 20.838 14.9376 22.586C14.9409 22.6338 14.9535 22.6806 14.9749 22.7236C14.9962 22.7665 15.0258 22.8049 15.062 22.8364C15.0981 22.868 15.1401 22.8921 15.1856 22.9074C15.2311 22.9227 15.2791 22.9289 15.327 22.9256C15.3748 22.9223 15.4216 22.9097 15.4646 22.8884C15.5075 22.867 15.5459 22.8374 15.5774 22.8013C15.609 22.7651 15.6331 22.7231 15.6484 22.6776C15.6637 22.6322 15.6699 22.5841 15.6666 22.5363C15.5368 20.6226 14.7913 19.2088 14.2252 17.7784C13.6591 16.348 13.2504 14.9203 13.6757 12.8162C13.6884 12.7594 13.6873 12.7004 13.6726 12.6441C13.6579 12.5878 13.6299 12.5358 13.5909 12.4926C13.552 12.4493 13.5033 12.416 13.4488 12.3955C13.3944 12.3749 13.3358 12.3676 13.278 12.3743Z" fill="#667EEA"/>
<path d="M6.51819 9.46937C6.51819 9.46937 6.289 11.0296 6.17302 12.9487C6.05704 14.8679 6.04047 17.1322 6.532 18.6758C6.95173 20.0041 7.79119 21.2853 8.95098 22.1055C9.92298 22.7903 11.2319 23.0609 12.3917 22.8013C14.1258 22.4092 15.8351 21.2715 16.658 19.5926C17.2517 18.3776 17.2434 16.5661 17.133 15.017C17.0647 14.0718 16.9476 13.1307 16.7823 12.1976L16.0643 12.3329C16.0643 12.3329 16.299 13.5673 16.404 15.0667C16.5117 16.5661 16.4592 18.3417 16.0008 19.2723C15.2994 20.7082 13.7641 21.7437 12.2315 22.0889C11.3009 22.2988 10.1577 22.0613 9.37071 21.5063C8.37108 20.7993 7.60342 19.6423 7.22511 18.4549C6.80262 17.1212 6.78881 14.8734 6.90203 12.9901C7.01248 11.1069 7.24168 9.57706 7.24168 9.57706L6.51819 9.46937Z" fill="#667EEA"/>
<path d="M9.80423 3.95211C8.30479 4.36632 6.89096 5.1616 5.42466 6.00106C5.36754 6.03335 5.32019 6.08046 5.28762 6.13741C5.25504 6.19437 5.23844 6.25906 5.23957 6.32467C5.2407 6.39028 5.25952 6.45436 5.29404 6.51016C5.32856 6.56596 5.37751 6.61141 5.43571 6.6417L6.05702 6.97307C4.71499 7.50602 3.77335 8.2157 3.11614 8.96127C2.32915 9.8532 1.84314 10.7865 1.1528 11.6094C1.10469 11.6654 1.07468 11.7345 1.06673 11.8079C1.05877 11.8812 1.07326 11.9552 1.10826 12.0202C1.14327 12.0851 1.19715 12.1379 1.26279 12.1715C1.32842 12.2052 1.40273 12.2181 1.47588 12.2087L2.85105 12.0347C1.92046 13.1006 1.11138 13.9953 1.00092 15.6963C0.970545 16.1878 1.70231 16.2348 1.73545 15.746C1.90113 14.2107 2.56939 13.3325 3.81754 11.9988C4.04673 11.7475 3.76231 11.1869 3.42266 11.2256L2.2325 11.3775C2.7047 10.7148 3.141 10.041 3.66842 9.44451C4.38086 8.63543 5.31973 7.91194 7.05941 7.38728C7.12926 7.36667 7.19133 7.32561 7.23763 7.2694C7.28393 7.21318 7.31232 7.14439 7.31916 7.07188C7.32599 6.99938 7.31095 6.92649 7.27597 6.86261C7.241 6.79873 7.18769 6.7468 7.12292 6.7135L6.42153 6.34071C7.64482 5.65313 8.82393 4.98211 9.99752 4.65627C11.4409 4.22765 12.989 4.31952 14.3716 4.91584C14.8438 5.15608 15.153 4.39946 14.6477 4.24206C13.1148 3.59054 11.4039 3.48812 9.80423 3.95211ZM5.57102 12.946C5.54052 12.9511 5.51185 12.964 5.48769 12.9833C5.46354 13.0026 5.4447 13.0278 5.43295 13.0564L2.64947 18.9851C2.63735 19.0072 2.62988 19.0316 2.62754 19.0568C2.62519 19.0819 2.62802 19.1072 2.63583 19.1312C2.64365 19.1552 2.65629 19.1774 2.67299 19.1963C2.68968 19.2153 2.71007 19.2306 2.73291 19.2413C2.75574 19.2521 2.78054 19.2581 2.80576 19.2589C2.83099 19.2597 2.85612 19.2553 2.8796 19.2461C2.90308 19.2368 2.92442 19.2229 2.94231 19.205C2.96019 19.1872 2.97424 19.166 2.9836 19.1425L5.76431 13.2083C5.78043 13.1781 5.7877 13.1439 5.78531 13.1098C5.78291 13.0756 5.77094 13.0428 5.75076 13.0151C5.73059 12.9875 5.70302 12.9661 5.67123 12.9533C5.63944 12.9406 5.60471 12.9398 5.57102 12.946ZM16.7684 2.93592C16.7647 2.93764 16.761 2.93948 16.7574 2.94144L16.288 3.04362C16.2646 3.04887 16.2425 3.05869 16.2229 3.0725C16.2033 3.08631 16.1866 3.10384 16.1738 3.1241C16.1609 3.14435 16.1522 3.16694 16.1481 3.19056C16.144 3.21418 16.1446 3.23838 16.1499 3.26177C16.1552 3.28516 16.165 3.30728 16.1788 3.32688C16.1926 3.34647 16.2101 3.36316 16.2304 3.37598C16.2506 3.3888 16.2732 3.39751 16.2968 3.4016C16.3205 3.40569 16.3447 3.40509 16.368 3.39984L16.832 3.2949C16.8796 3.28648 16.9219 3.25949 16.9496 3.21988C16.9773 3.18026 16.9881 3.13126 16.9797 3.08366C16.9713 3.03605 16.9443 2.99374 16.9047 2.96604C16.8651 2.93833 16.8161 2.9275 16.7684 2.93592ZM16.5558 3.55447C16.5521 3.55619 16.5484 3.55803 16.5448 3.56L15.9842 3.64284C15.959 3.64456 15.9345 3.65148 15.9121 3.66318C15.8898 3.67487 15.8701 3.69108 15.8543 3.71078C15.8386 3.73048 15.8271 3.75323 15.8206 3.77761C15.814 3.80198 15.8127 3.82744 15.8165 3.85238C15.8203 3.87731 15.8293 3.90118 15.8428 3.92247C15.8564 3.94376 15.8742 3.96201 15.8952 3.97605C15.9161 3.9901 15.9398 3.99964 15.9646 4.00408C15.9894 4.00851 16.0149 4.00774 16.0394 4.00182L16.6 3.91898C16.6438 3.90804 16.682 3.8815 16.7076 3.84435C16.7331 3.8072 16.7442 3.76199 16.7388 3.71722C16.7334 3.67245 16.7118 3.63121 16.6781 3.60124C16.6444 3.57127 16.6009 3.55464 16.5558 3.55447ZM16.2493 4.1675L15.6887 4.24758C15.6636 4.2493 15.639 4.25623 15.6167 4.26792C15.5943 4.27962 15.5746 4.29583 15.5589 4.31552C15.5431 4.33522 15.5316 4.35798 15.5251 4.38235C15.5186 4.40672 15.5172 4.43219 15.521 4.45712C15.5249 4.48206 15.5338 4.50593 15.5474 4.52721C15.5609 4.5485 15.5787 4.56675 15.5997 4.5808C15.6206 4.59484 15.6443 4.60439 15.6691 4.60882C15.694 4.61326 15.7194 4.61249 15.744 4.60656L16.3045 4.53477C16.3286 4.53114 16.3518 4.5228 16.3727 4.51022C16.3936 4.49764 16.4118 4.48107 16.4263 4.46145C16.4408 4.44184 16.4513 4.41956 16.4571 4.39589C16.463 4.37223 16.4642 4.34763 16.4606 4.32352C16.4569 4.2994 16.4486 4.27624 16.436 4.25535C16.4234 4.23446 16.4069 4.21625 16.3872 4.20176C16.3676 4.18727 16.3453 4.17679 16.3217 4.17091C16.298 4.16503 16.2734 4.16387 16.2493 4.1675ZM16.0174 4.77224C16.0062 4.77306 15.9951 4.77491 15.9842 4.77777L15.4319 4.85785C15.4062 4.8582 15.3809 4.86399 15.3575 4.87484C15.3342 4.88569 15.3135 4.90135 15.2966 4.92079C15.2798 4.94024 15.2673 4.96303 15.2599 4.98766C15.2525 5.01229 15.2504 5.03821 15.2537 5.06371C15.257 5.08922 15.2657 5.11373 15.2792 5.13563C15.2927 5.15753 15.3107 5.17633 15.3319 5.19079C15.3532 5.20525 15.3773 5.21505 15.4026 5.21954C15.4279 5.22403 15.4539 5.2231 15.4789 5.21683L16.0394 5.13951C16.0845 5.13194 16.1251 5.10798 16.1535 5.07225C16.182 5.03651 16.1962 4.99153 16.1934 4.94595C16.1907 4.90037 16.1712 4.85741 16.1387 4.82535C16.1062 4.79328 16.063 4.77437 16.0174 4.77224ZM15.7357 5.38251C15.7319 5.38423 15.7283 5.38607 15.7246 5.38803L15.1641 5.46259C15.14 5.46622 15.1168 5.47456 15.0959 5.48714C15.075 5.49972 15.0568 5.51629 15.0423 5.5359C15.0278 5.55552 15.0174 5.5778 15.0115 5.60146C15.0056 5.62513 15.0044 5.64972 15.0081 5.67384C15.0117 5.69795 15.02 5.72112 15.0326 5.74201C15.0452 5.7629 15.0618 5.78111 15.0814 5.7956C15.101 5.81009 15.1233 5.82057 15.1469 5.82645C15.1706 5.83232 15.1952 5.83348 15.2193 5.82986L15.7771 5.74701C15.8207 5.73616 15.8588 5.70985 15.8844 5.67298C15.9099 5.63611 15.9213 5.5912 15.9162 5.5466C15.9111 5.50201 15.89 5.46078 15.8568 5.4306C15.8236 5.40041 15.7806 5.38332 15.7357 5.38251ZM20.952 13.2C20.9032 13.2022 20.8574 13.2237 20.8245 13.2596C20.7916 13.2956 20.7744 13.3432 20.7766 13.3919C20.7788 13.4406 20.8003 13.4865 20.8362 13.5193C20.8722 13.5522 20.9198 13.5695 20.9685 13.5673H21.2226C21.2713 13.5673 21.318 13.5479 21.3524 13.5135C21.3869 13.479 21.4062 13.4323 21.4062 13.3836C21.4062 13.3349 21.3869 13.2882 21.3524 13.2538C21.318 13.2193 21.2713 13.2 21.2226 13.2H20.9658C20.9602 13.1997 20.9575 13.1997 20.952 13.2ZM21.2916 13.6694C21.2429 13.6716 21.1971 13.6931 21.1642 13.7291C21.1313 13.7651 21.1141 13.8127 21.1163 13.8614C21.1185 13.9101 21.1399 13.9559 21.1759 13.9888C21.2119 14.0217 21.2595 14.0389 21.3082 14.0367H21.5622C21.6109 14.0367 21.6576 14.0174 21.6921 13.9829C21.7265 13.9485 21.7458 13.9018 21.7458 13.8531C21.7458 13.8044 21.7265 13.7577 21.6921 13.7232C21.6576 13.6888 21.6109 13.6694 21.5622 13.6694H21.3082C21.3027 13.6692 21.2971 13.6692 21.2916 13.6694ZM21.5015 14.2024C21.4774 14.2035 21.4537 14.2093 21.4318 14.2195C21.41 14.2298 21.3903 14.2442 21.374 14.262C21.3578 14.2798 21.3451 14.3007 21.3369 14.3234C21.3287 14.3461 21.325 14.3702 21.3261 14.3943C21.3272 14.4184 21.333 14.4421 21.3433 14.4639C21.3535 14.4858 21.3679 14.5054 21.3858 14.5217C21.4036 14.538 21.4244 14.5506 21.4471 14.5588C21.4698 14.5671 21.4939 14.5707 21.518 14.5696H21.7721C21.8208 14.5696 21.8675 14.5503 21.9019 14.5159C21.9364 14.4814 21.9557 14.4347 21.9557 14.386C21.9557 14.3373 21.9364 14.2906 21.9019 14.2562C21.8675 14.2217 21.8208 14.2024 21.7721 14.2024H21.518C21.5125 14.2021 21.507 14.2021 21.5015 14.2024ZM21.5125 14.7215C21.4698 14.7322 21.4324 14.758 21.4072 14.794C21.3821 14.8301 21.3708 14.8741 21.3755 14.9179C21.3802 14.9616 21.4006 15.0022 21.4329 15.0321C21.4652 15.062 21.5072 15.0792 21.5512 15.0805H21.8025C21.8287 15.0851 21.8556 15.0839 21.8813 15.077C21.907 15.0702 21.9308 15.0577 21.9512 15.0406C21.9716 15.0235 21.988 15.0021 21.9992 14.978C22.0105 14.9539 22.0163 14.9276 22.0163 14.901C22.0163 14.8744 22.0105 14.8481 21.9992 14.824C21.988 14.7999 21.9716 14.7785 21.9512 14.7614C21.9308 14.7443 21.907 14.7319 21.8813 14.725C21.8556 14.7181 21.8287 14.7169 21.8025 14.7215H21.5512C21.5383 14.7202 21.5254 14.7202 21.5125 14.7215ZM21.3192 15.2241C21.2767 15.2346 21.2394 15.2602 21.2141 15.296C21.1888 15.3318 21.1773 15.3755 21.1817 15.4191C21.1861 15.4627 21.206 15.5033 21.2378 15.5334C21.2697 15.5635 21.3113 15.5812 21.3551 15.5831H21.6092C21.6354 15.5877 21.6623 15.5865 21.688 15.5796C21.7137 15.5727 21.7376 15.5603 21.7579 15.5432C21.7783 15.5261 21.7947 15.5047 21.8059 15.4806C21.8172 15.4565 21.823 15.4302 21.823 15.4036C21.823 15.377 21.8172 15.3507 21.8059 15.3266C21.7947 15.3025 21.7783 15.2811 21.7579 15.264C21.7376 15.2469 21.7137 15.2344 21.688 15.2276C21.6623 15.2207 21.6354 15.2195 21.6092 15.2241H21.3551C21.3432 15.2229 21.3312 15.2229 21.3192 15.2241ZM20.9575 15.6714C20.9124 15.679 20.8718 15.703 20.8434 15.7387C20.8149 15.7744 20.8007 15.8194 20.8035 15.865C20.8062 15.9106 20.8257 15.9535 20.8582 15.9856C20.8907 16.0177 20.934 16.0366 20.9796 16.0387H21.2281C21.2768 16.0387 21.3235 16.0194 21.3579 15.9849C21.3924 15.9505 21.4117 15.9038 21.4117 15.8551C21.4117 15.8064 21.3924 15.7597 21.3579 15.7252C21.3235 15.6908 21.2768 15.6714 21.2281 15.6714H20.9796C20.9722 15.671 20.9648 15.671 20.9575 15.6714Z" fill="#667EEA"/>
</svg>
