<svg width="24" height="24" viewBox="0 0 24 24" fill="none" xmlns="http://www.w3.org/2000/svg">
<path d="M13.5039 20.4219H10.4961C10.2588 20.4219 10.0664 20.6143 10.0664 20.8516V22.5704C10.0664 22.8077 10.2588 23.0001 10.4961 23.0001H13.5039C13.7413 23.0001 13.9336 22.8077 13.9336 22.5704V20.8516C13.9336 20.6143 13.7413 20.4219 13.5039 20.4219ZM13.0742 22.1407H10.9258V21.2813H13.0742V22.1407Z" fill="#667EEA"/>
<path d="M21.7111 18.2735H17.2591C16.7851 18.2735 16.3437 18.0183 16.1072 17.6075L13.4849 13.0519L19.6341 2.37476C19.7564 2.16253 19.6641 1.87404 19.444 1.771L17.8834 1.04052C17.7859 0.994874 17.6748 0.987505 17.5721 1.01988C17.4694 1.05225 17.3826 1.122 17.3289 1.21532L12.0001 10.4725L6.67136 1.21532C6.61764 1.122 6.53084 1.05225 6.42814 1.01988C6.32544 0.987505 6.21433 0.994874 6.1168 1.04052L4.55616 1.771C4.33234 1.87576 4.24305 2.1612 4.36594 2.37463L10.5153 13.0519L7.89293 17.6075C7.65647 18.0183 7.21509 18.2735 6.74106 18.2735H2.28907C1.57828 18.2735 1 18.8518 1 19.5626V21.711C1 22.4218 1.57828 23.0001 2.28907 23.0001H7.01477C7.2602 22.9999 7.50051 22.9299 7.70757 22.7981C7.91463 22.6664 8.07988 22.4783 8.18396 22.2561L12.0001 15.6299L15.8163 22.2561C15.9203 22.4783 16.0856 22.6664 16.2926 22.7981C16.4997 22.9299 16.74 22.9999 16.9854 23.0001H21.7111C22.4219 23.0001 23.0002 22.4218 23.0002 21.711V19.5626C23.0002 18.8518 22.4219 18.2735 21.7111 18.2735ZM17.8766 1.98623L18.6561 2.35104L17.7387 3.94394L16.9964 3.51537L17.8766 1.98623ZM16.5677 4.26015L17.3098 4.68864L16.8809 5.43334L16.1389 5.00498L16.5677 4.26015ZM5.34409 2.35104L6.12355 1.98623L7.00377 3.51537L6.26148 3.94394L5.34409 2.35104ZM6.6904 4.68864L7.43252 4.26015L7.86126 5.00498L7.11927 5.43334L6.6904 4.68864ZM7.54819 6.17804L8.29001 5.74976L11.5043 11.3338L11.0111 12.1907L7.54819 6.17804ZM7.42916 21.8447C7.42173 21.8576 7.41494 21.8709 7.40884 21.8846C7.37492 21.9608 7.31965 22.0255 7.24971 22.071C7.17976 22.1164 7.09814 22.1407 7.01473 22.1407H2.28907C2.05214 22.1407 1.85938 21.9479 1.85938 21.711V19.5626C1.85938 19.3256 2.05214 19.1329 2.28907 19.1329H6.74106C7.52155 19.1329 8.24833 18.7127 8.63771 18.0362L8.92999 17.5284L9.66918 17.9552L7.42916 21.8447ZM10.0981 17.2105L9.35873 16.7836L9.78748 16.0388L10.527 16.4657L10.0981 17.2105ZM10.9559 15.7211L10.2162 15.294L15.7102 5.74976L16.452 6.17804L10.9559 15.7211ZM12.4959 14.769L12.989 13.913L13.7839 15.2941L13.0443 15.7211L12.4959 14.769ZM13.4732 16.4658L14.2127 16.0388L14.6414 16.7837L13.9021 17.2105L13.4732 16.4658ZM22.1408 21.711C22.1408 21.9479 21.948 22.1407 21.7111 22.1407H16.9854C16.8152 22.1407 16.6604 22.0402 16.5913 21.8846C16.5852 21.8709 16.5784 21.8576 16.571 21.8447L14.3309 17.9552L15.0701 17.5284L15.3624 18.0362C15.7518 18.7127 16.4786 19.1329 17.2591 19.1329H21.7111C21.948 19.1329 22.1408 19.3256 22.1408 19.5626V21.711Z" fill="#667EEA"/>
</svg>
