<svg width="24" height="24" viewBox="0 0 24 24" fill="none" xmlns="http://www.w3.org/2000/svg">
<path d="M17.8868 12.7755C16.5341 12.7772 15.2374 13.3153 14.281 14.2718C13.3245 15.2283 12.7865 16.5251 12.785 17.8777C13.0651 24.646 22.7096 24.6441 22.9889 17.8777C22.9874 16.525 22.4493 15.2281 21.4928 14.2716C20.5363 13.3151 19.2395 12.7771 17.8868 12.7755ZM19.584 17.2656L18.9345 19.2598H16.839L16.1896 17.2656L17.8868 16.0328L19.584 17.2656ZM17.4943 13.5805V15.348L15.6014 16.7231L13.9215 16.1738C14.2292 15.4605 14.7234 14.8433 15.3521 14.3869C15.9808 13.9306 16.7207 13.652 17.4943 13.5805ZM13.5695 17.8777C13.5705 17.5555 13.6077 17.2345 13.6803 16.9207L15.4392 17.4954L16.1322 19.6236L15.0451 21.1196C14.5821 20.7158 14.2109 20.2176 13.9565 19.6584C13.702 19.0992 13.5698 18.4921 13.5695 17.8777ZM15.68 21.5813L16.7962 20.0448H18.9774L20.0939 21.5809C19.4261 21.9777 18.6637 22.1872 17.887 22.1872C17.1102 22.1872 16.3478 21.9781 15.68 21.5813ZM20.7284 21.1196L19.6417 19.6236L20.3347 17.4954L22.0932 16.9207C22.2646 17.6786 22.2283 18.4688 21.988 19.2078C21.7478 19.9468 21.3126 20.6073 20.7284 21.1196ZM20.1725 16.7231L18.2792 15.348V13.5801C19.0528 13.6517 19.7928 13.9303 20.4215 14.3867C21.0502 14.8431 21.5443 15.4605 21.852 16.1738L20.1725 16.7231Z" fill="#667EEA"/>
<path d="M13.5467 22.0771C11.5153 22.3965 9.43477 22.0908 7.58104 21.2006C5.72732 20.3105 4.18797 18.8778 3.16713 17.0927H4.15048C4.66982 17.0891 5.16687 16.8812 5.53411 16.514C5.90135 16.1468 6.10926 15.6497 6.11286 15.1304C6.11471 14.8187 6.23936 14.5203 6.45977 14.2999C6.68018 14.0794 6.97858 13.9548 7.29029 13.9529C9.88007 13.8744 9.88597 10.1111 7.29029 10.0282H5.72038C4.18741 9.99558 4.15363 7.70791 5.72038 7.67334C6.23973 7.66973 6.73677 7.46183 7.10401 7.09459C7.47125 6.72735 7.67916 6.2303 7.68276 5.71096C7.6825 5.55628 7.71278 5.40308 7.77187 5.26013C7.83095 5.11718 7.91768 4.98731 8.02707 4.87795C8.13646 4.7686 8.26636 4.68192 8.40933 4.62288C8.55229 4.56384 8.70551 4.53361 8.86019 4.53393C9.17592 4.53054 9.48623 4.45141 9.76503 4.30319C10.0438 4.15497 10.283 3.94198 10.4624 3.68214C10.6418 3.42229 10.7561 3.12318 10.7959 2.80995C10.8357 2.49671 10.7997 2.1785 10.691 1.88206C13.2786 1.53533 15.9 2.20444 18.005 3.74897H14.7473C14.4896 3.74897 14.2344 3.79973 13.9963 3.89835C13.7583 3.99697 13.5419 4.14152 13.3597 4.32374C13.1775 4.50596 13.0329 4.7223 12.9343 4.96038C12.8357 5.19847 12.7849 5.45365 12.7849 5.71135C12.7849 5.96905 12.8357 6.22423 12.9343 6.46232C13.0329 6.70041 13.1775 6.91674 13.3597 7.09896C13.5419 7.28118 13.7583 7.42573 13.9963 7.52435C14.2344 7.62297 14.4896 7.67373 14.7473 7.67373C15.0589 7.67579 15.357 7.80046 15.5773 8.02075C15.7976 8.24104 15.9223 8.53923 15.9244 8.85076C15.928 9.3701 16.1359 9.86715 16.5031 10.2344C16.8703 10.6016 17.3674 10.8095 17.8867 10.8131C18.1728 10.8148 18.4486 10.9198 18.6633 11.1088C18.8781 11.2978 19.0172 11.5581 19.0551 11.8417C19.0667 11.9367 19.1126 12.0243 19.1843 12.0879C19.2559 12.1515 19.3483 12.1867 19.4441 12.187C20.2506 12.0621 19.6267 10.9522 19.2732 10.6006C18.9049 10.234 18.4064 10.0282 17.8867 10.0282C17.732 10.0285 17.5788 9.99826 17.4358 9.93919C17.2928 9.88013 17.1629 9.79342 17.0535 9.68402C16.9441 9.57462 16.8574 9.4447 16.7983 9.30171C16.7392 9.15872 16.709 9.00547 16.7093 8.85076C16.7056 8.33149 16.4976 7.83454 16.1304 7.46738C15.7632 7.10023 15.2662 6.89238 14.7469 6.88878C13.1884 6.86128 13.2108 4.56221 14.7469 4.53393H18.9577C20.1711 5.6678 21.09 7.08011 21.6352 8.64879C22.1803 10.2175 22.3352 11.8953 22.0865 13.5373C22.0742 13.6388 22.102 13.7411 22.1639 13.8225C22.2258 13.9038 22.317 13.9579 22.4181 13.973C22.5193 13.9882 22.6223 13.9634 22.7054 13.9038C22.7885 13.8442 22.8451 13.7546 22.8632 13.654C22.9461 13.1034 22.9882 12.5474 22.9889 11.9906C23.0997 6.09361 17.9048 0.881822 11.9996 1.00204C9.08676 1.00692 6.29462 2.16621 4.23493 4.2259C2.17524 6.28559 1.01595 9.07773 1.01107 11.9906C0.898712 18.5908 7.16143 23.966 13.6634 22.8538C13.7628 22.8345 13.851 22.7775 13.9094 22.6947C13.9679 22.612 13.9921 22.5099 13.9771 22.4097C13.962 22.3095 13.9088 22.219 13.8286 22.1571C13.7484 22.0952 13.6474 22.0663 13.5467 22.0771ZM1.79602 11.991C1.79351 9.65053 2.59775 7.38076 4.07326 5.56405C5.54878 3.74733 7.60538 2.49471 9.89657 2.01721C9.99309 2.19639 10.0414 2.39756 10.0368 2.60103C10.0321 2.80449 9.97473 3.00326 9.87016 3.17786C9.76559 3.35246 9.61745 3.49689 9.44027 3.59701C9.26308 3.69713 9.06292 3.74949 8.8594 3.74897C8.34013 3.75268 7.84318 3.96063 7.47602 4.32786C7.10887 4.69509 6.90102 5.19208 6.89742 5.71135C6.89556 6.02305 6.77092 6.32146 6.55051 6.54187C6.3301 6.76228 6.03169 6.88692 5.71999 6.88878C3.13452 6.95281 3.13138 10.7471 5.71999 10.8135H7.28989C7.59839 10.8192 7.89235 10.9457 8.10852 11.1658C8.3247 11.386 8.44581 11.6822 8.44581 11.9908C8.44581 12.2993 8.3247 12.5955 8.10852 12.8157C7.89235 13.0358 7.59839 13.1624 7.28989 13.168C6.77055 13.1716 6.2735 13.3795 5.90626 13.7467C5.53902 14.114 5.33112 14.611 5.32752 15.1304C5.32556 15.442 5.20088 15.7404 4.98049 15.9608C4.76011 16.1812 4.46176 16.3058 4.15009 16.3078H2.75659C2.12045 14.9577 1.79222 13.4831 1.79563 11.9906L1.79602 11.991Z" fill="#667EEA"/>
</svg>
