<svg width="24" height="24" viewBox="0 0 24 24" fill="none" xmlns="http://www.w3.org/2000/svg">
<path d="M12 22.2143C10.2081 22.2129 8.448 21.7403 6.8964 20.8439C5.34479 19.9475 4.05621 18.6588 3.15993 17.1071H4.14286C4.66271 17.1035 5.16024 16.8954 5.52784 16.5278C5.89544 16.1602 6.10354 15.6627 6.10715 15.1429C6.1091 14.8309 6.2339 14.5322 6.4545 14.3116C6.67511 14.091 6.97374 13.9662 7.28572 13.9643C9.87857 13.8841 9.88447 10.1198 7.28572 10.0357H5.71429C4.17665 10.0011 4.14836 7.71236 5.71429 7.67857C6.23414 7.67497 6.73167 7.46687 7.09927 7.09927C7.46687 6.73167 7.67497 6.23414 7.67857 5.71429C7.68053 5.40232 7.80533 5.10368 8.02593 4.88308C8.24653 4.66247 8.54517 4.53767 8.85714 4.53572C10.2164 4.586 11.1671 3.07311 10.6981 1.87136C13.2873 1.53225 15.9076 2.20519 18.0131 3.75H14.75C12.1532 3.8329 12.156 7.59882 14.75 7.67857C15.062 7.68053 15.3606 7.80533 15.5812 8.02593C15.8018 8.24653 15.9266 8.54517 15.9286 8.85714C15.9176 9.195 16.0229 9.75325 16.4797 9.63657C16.8828 9.50614 16.7367 9.16554 16.7143 8.85714C16.7145 8.59912 16.6639 8.34357 16.5653 8.10514C16.4667 7.8667 16.322 7.65006 16.1395 7.46761C15.9571 7.28516 15.7404 7.14048 15.502 7.04186C15.2636 6.94323 15.008 6.8926 14.75 6.89286C14.4374 6.89286 14.1376 6.76869 13.9166 6.54766C13.6956 6.32664 13.5714 6.02686 13.5714 5.71429C13.5714 5.40171 13.6956 5.10194 13.9166 4.88091C14.1376 4.65989 14.4374 4.53572 14.75 4.53572H18.9339C18.9426 4.53572 18.9485 4.5314 18.9575 4.53061C19.9852 5.48444 20.8049 6.64018 21.3653 7.92545C21.9257 9.21073 22.2148 10.5979 22.2143 12C22.2143 12.0318 22.2147 12.0633 22.2119 12.0951C22.2044 12.1979 22.2377 12.2996 22.3045 12.3782C22.3714 12.4567 22.4664 12.5058 22.5692 12.5149C22.6719 12.524 22.7741 12.4923 22.8537 12.4267C22.9332 12.3611 22.9838 12.2668 22.9945 12.1642C23 12.1092 23 12.055 23 12C23 9.82441 22.3549 7.69767 21.1462 5.88873C19.9375 4.07979 18.2195 2.66989 16.2095 1.83733C14.1995 1.00477 11.9878 0.78693 9.85401 1.21137C7.72022 1.6358 5.76021 2.68345 4.22183 4.22183C2.68345 5.76021 1.6358 7.72022 1.21137 9.85401C0.78693 11.9878 1.00477 14.1995 1.83733 16.2095C2.66989 18.2195 4.07979 19.9375 5.88873 21.1462C7.69767 22.3549 9.82441 23 12 23C12.1042 23 12.2041 22.9586 12.2778 22.8849C12.3515 22.8113 12.3929 22.7113 12.3929 22.6071C12.3929 22.5029 12.3515 22.403 12.2778 22.3293C12.2041 22.2557 12.1042 22.2143 12 22.2143ZM1.78572 12C1.78876 9.65802 2.59523 7.38798 4.07043 5.569C5.54563 3.75003 7.60025 2.49224 9.89114 2.00572C9.98602 2.18564 10.0332 2.38688 10.0281 2.59022C10.023 2.79356 9.96591 2.9922 9.86219 3.16717C9.75847 3.34214 9.61162 3.48759 9.43566 3.58963C9.2597 3.69167 9.06052 3.74688 8.85714 3.75C8.3373 3.7536 7.83976 3.96171 7.47217 4.32931C7.10457 4.69691 6.89646 5.19444 6.89286 5.71429C6.8909 6.02626 6.7661 6.3249 6.5455 6.5455C6.3249 6.7661 6.02626 6.8909 5.71429 6.89286C5.19333 6.89286 4.6937 7.09981 4.32533 7.46819C3.95695 7.83656 3.75 8.33618 3.75 8.85714C3.75 9.37811 3.95695 9.87773 4.32533 10.2461C4.6937 10.6145 5.19333 10.8214 5.71429 10.8214H7.28572C7.59829 10.8214 7.89807 10.9456 8.11909 11.1666C8.34012 11.3876 8.46429 11.6874 8.46429 12C8.46429 12.3126 8.34012 12.6123 8.11909 12.8334C7.89807 13.0544 7.59829 13.1786 7.28572 13.1786C7.02769 13.1783 6.77215 13.2289 6.53371 13.3276C6.29528 13.4262 6.07863 13.5709 5.89618 13.7533C5.71373 13.9358 5.56905 14.1524 5.47043 14.3909C5.3718 14.6293 5.32117 14.8848 5.32143 15.1429C5.31947 15.4548 5.19468 15.7535 4.97407 15.9741C4.75347 16.1947 4.45483 16.3195 4.14286 16.3214H2.74783C2.11309 14.9693 1.78458 13.4937 1.78572 12Z" fill="#667EEA"/>
<path d="M16.7143 10.4286C15.4711 10.4286 14.2558 10.7972 13.2221 11.4879C12.1885 12.1786 11.3828 13.1603 10.9071 14.3088C10.4313 15.4574 10.3068 16.7213 10.5494 17.9406C10.7919 19.1599 11.3906 20.2799 12.2696 21.159C13.1487 22.038 14.2687 22.6367 15.488 22.8792C16.7073 23.1218 17.9712 22.9973 19.1197 22.5215C20.2683 22.0458 21.25 21.2401 21.9407 20.2064C22.6314 19.1728 23 17.9575 23 16.7143C22.9981 15.0478 22.3353 13.4501 21.1569 12.2717C19.9785 11.0933 18.3808 10.4304 16.7143 10.4286ZM16.2397 11.2383C16.3965 11.2249 16.554 11.2143 16.7143 11.2143C18.0366 11.2144 19.3141 11.6934 20.3105 12.5626L16.7143 16.1588L16.3175 15.762C16.9048 14.9095 16.6546 13.8834 16.4287 12.9649C16.2417 12.4097 16.1772 11.8207 16.2397 11.2383ZM15.4253 11.373C15.4089 11.9753 15.4901 12.5763 15.6658 13.1526C15.8591 13.9387 16.0233 14.6337 15.7404 15.1853L13.1181 12.5626C13.7809 11.9871 14.5721 11.5791 15.4253 11.373ZM12.5626 13.1181L15.1853 15.7408C14.6337 16.0236 13.9388 15.8598 13.1531 15.6661C12.5768 15.4898 11.9758 15.4079 11.3734 15.4237C11.5796 14.571 11.9874 13.7805 12.5626 13.1181ZM11.2143 16.7143C11.2143 16.554 11.2249 16.3961 11.2383 16.2389C11.8209 16.1769 12.41 16.2416 12.9653 16.4287C13.4683 16.5739 13.9869 16.6588 14.51 16.6817C14.9549 16.6931 15.3924 16.5657 15.7616 16.3171L16.1584 16.7143L12.5626 20.3105C11.6934 19.3141 11.2144 18.0366 11.2143 16.7143ZM17.1897 22.1903C17.0325 22.2037 16.875 22.2143 16.7143 22.2143C15.392 22.2142 14.1145 21.7352 13.1181 20.866L16.7143 17.2698L17.1111 17.6666C16.5238 18.5191 16.774 19.5456 16.9999 20.4637C17.1869 21.0188 17.2516 21.6078 17.1897 22.1903ZM18.0048 22.0552C18.0206 21.4528 17.9389 20.8518 17.7628 20.2755C17.5696 19.4898 17.4053 18.7952 17.6882 18.2433L20.3105 20.866C19.6482 21.4411 18.8575 21.8489 18.0048 22.0552ZM20.866 20.3109L18.2433 17.6878C18.7953 17.4049 19.4898 17.5695 20.2756 17.7624C20.8518 17.9387 21.4528 18.0209 22.0552 18.0056C21.8488 18.858 21.441 19.6488 20.866 20.3109ZM22.1899 17.19C21.6074 17.2519 21.0184 17.187 20.4633 16.9999C19.5448 16.7736 18.5179 16.5237 17.6662 17.1111L17.2702 16.7143L20.8664 13.1181C21.7355 14.1146 22.2143 15.3921 22.2143 16.7143C22.2143 16.875 22.2037 17.0325 22.1903 17.1896L22.1899 17.19Z" fill="#667EEA"/>
</svg>
