<svg width="24" height="24" viewBox="0 0 24 24" fill="none" xmlns="http://www.w3.org/2000/svg">
<path d="M22.2247 16.0746L19.7725 15.073C19.7725 15.0384 18.391 11.6883 18.4946 11.93C18.46 11.8955 18.4255 11.7573 18.2874 11.6192L18.2528 11.5847C17.7693 11.0666 18.1147 11.3774 9.27298 7.71642L6.99348 2.77751C6.68264 2.12129 5.92281 1.81045 5.26659 2.12129C4.61037 2.43213 4.33407 3.19196 4.61037 3.84818L7.54609 10.3758C7.71878 10.9284 8.0987 11.3429 8.61676 11.5501L16.0769 14.5894C16.2842 14.6931 16.5259 14.7276 16.7677 14.7276L17.5275 16.5581C17.6657 16.8689 17.9074 17.1453 18.2528 17.2834L19.1508 17.6633L18.3219 18.3541C18.1837 18.4577 18.0456 18.4922 17.8729 18.4231L2.64172 12.2063C2.46903 12.1373 2.2618 12.2063 2.19272 12.379C2.12365 12.5517 2.19272 12.7589 2.36541 12.828L17.6311 19.0794C18.0111 19.2521 18.46 19.183 18.7709 18.9067L19.8761 17.9742L21.2231 18.5268C21.8793 18.8031 22.6737 18.4922 22.95 17.8015C23.2263 17.1453 22.9154 16.3509 22.2247 16.0746ZM16.3532 13.9678L8.89307 10.9284C8.54769 10.7903 8.30592 10.514 8.20231 10.1686V10.1341L5.23205 3.57188C5.0939 3.26104 5.23205 2.88112 5.54289 2.74297C5.85374 2.60482 6.23365 2.74297 6.3718 3.05381L8.6513 8.13087C8.68584 8.19995 8.75491 8.26902 8.82399 8.30356C13.1067 10.065 15.5934 11.0666 16.5259 11.4465C16.0079 11.7919 15.8352 12.4481 16.0769 13.0352L16.4914 14.0368C16.4569 14.0023 16.3878 13.9678 16.3532 13.9678ZM22.3283 17.5252C22.1901 17.836 21.8448 18.0087 21.5339 17.8705L18.5291 16.6617C18.391 16.5926 18.2528 16.489 18.1837 16.3163L16.7332 12.7589C16.4569 12.0682 17.4585 11.481 17.8729 12.2754C19.6689 16.6617 19.0472 15.1421 19.1853 15.4874C19.2199 15.5565 19.289 15.6256 19.358 15.6601L21.9484 16.7308C22.2937 16.8689 22.4319 17.2143 22.3283 17.5252ZM20.0833 12.31C21.154 12.7244 22.3628 12.2409 22.8118 11.1702C23.2608 10.0995 22.7427 8.89071 21.6721 8.44171C20.6014 8.02726 19.3926 8.51079 18.9436 9.58146C18.4946 10.6521 19.0127 11.861 20.0833 12.31ZM19.5998 9.82323C19.9106 9.09793 20.705 8.75255 21.4303 9.0634C22.1556 9.3397 22.501 10.1686 22.1901 10.8939C21.8793 11.6192 21.0849 11.9646 20.3596 11.6537C19.6343 11.3774 19.289 10.5485 19.5998 9.82323ZM3.57424 15.9364C3.64331 15.7637 3.57424 15.5565 3.40155 15.4874L1.57104 14.7276C1.39835 14.6585 1.19113 14.7276 1.12205 14.9003C1.05298 15.073 1.12205 15.2802 1.29474 15.3493L3.12525 16.1091C3.29794 16.1782 3.47062 16.1091 3.57424 15.9364ZM11.3798 18.734L10.0328 18.1814C9.86012 18.1123 9.6529 18.1814 9.58382 18.3541C9.51475 18.5268 9.58382 18.734 9.75651 18.8031L11.1035 19.3557C11.2762 19.4247 11.4834 19.3557 11.5525 19.183C11.6216 19.0103 11.5525 18.8031 11.3798 18.734ZM16.8368 20.979L13.6593 19.6665C13.4866 19.5974 13.2794 19.6665 13.2103 19.8392C13.1412 20.0119 13.2103 20.2191 13.383 20.2882L16.5605 21.6006C16.7332 21.6697 16.9404 21.6006 17.0095 21.4279C17.0785 21.2553 17.0095 21.048 16.8368 20.979ZM4.88668 19.1139L3.5397 18.5613C3.36701 18.4922 3.15978 18.5613 3.09071 18.734C3.02163 18.9067 3.09071 19.1139 3.2634 19.183L4.61037 19.7356C4.78306 19.8047 4.99029 19.7356 5.05937 19.5629C5.12844 19.3902 5.05937 19.183 4.88668 19.1139Z" fill="#667EEA"/>
<path d="M2.22724 8.23449C2.15816 8.40718 2.22724 8.6144 2.39993 8.68348L3.7469 9.23608C3.91959 9.30516 4.12682 9.23608 4.19589 9.06339C4.26497 8.89071 4.19589 8.68348 4.02321 8.6144L2.67623 8.0618C2.50354 7.99272 2.29631 8.0618 2.22724 8.23449ZM2.53808 5.92045C2.71077 5.98953 2.91799 5.92045 2.98707 5.74776C3.05615 5.57507 2.98707 5.36785 2.81438 5.29877L1.46741 4.74616C1.29472 4.67709 1.08749 4.74616 1.01841 4.91885C0.949338 5.09154 1.01841 5.29877 1.1911 5.36785L2.53808 5.92045ZM10.3436 21.3243L7.16615 20.0119C6.99346 19.9428 6.78623 20.0119 6.71716 20.1846C6.64808 20.3573 6.71716 20.5645 6.88985 20.6336L10.0673 21.946C10.24 22.0151 10.4472 21.946 10.5163 21.7733C10.5854 21.6006 10.5163 21.3934 10.3436 21.3243Z" fill="#667EEA"/>
</svg>
