<svg width="24" height="24" viewBox="0 0 24 24" fill="none" xmlns="http://www.w3.org/2000/svg">
<path d="M22.8519 2.66001C21.3238 1.13146 18.8363 1.13146 17.3073 2.66001C17.2927 2.67463 17.278 2.69019 17.2648 2.70622L16.1149 4.08201C15.8603 4.38659 15.906 4.84157 16.2172 5.0891C16.5175 5.32814 16.9541 5.28382 17.2002 4.98914L18.329 3.63929C19.3082 2.68312 20.8825 2.69019 21.8519 3.66003C22.3258 4.13387 22.5865 4.7633 22.586 5.4314V5.43234C22.5865 6.09195 22.3333 6.71242 21.8727 7.18343L10.8423 16.4057L9.10674 14.6701L15.385 7.16033C15.6396 6.85575 15.5939 6.40077 15.2827 6.15324C14.9824 5.9142 14.5458 5.95852 14.2997 6.25272L7.60601 14.2585C7.37121 14.5395 7.3896 14.9535 7.64844 15.2123L10.2991 17.863C10.4368 18.0002 10.6179 18.07 10.7994 18.07C10.9601 18.07 11.1209 18.0158 11.2529 17.9055L22.8053 8.24663C22.8213 8.23343 22.8364 8.21928 22.8515 8.20467C23.5926 7.46397 24.0009 6.47904 24 5.4314C24.0009 4.38565 23.5931 3.40119 22.8519 2.65954V2.66001Z" fill="#667EEA"/>
<path d="M7.43056 21.3836C7.24291 21.3836 7.06328 21.3091 6.93032 21.1766L4.33527 18.5816C4.05898 18.3053 4.05898 17.8578 4.33527 17.5816L7.67621 14.2406C7.9525 13.9643 8.40041 13.9643 8.67623 14.2406L11.2713 16.8357C11.4038 16.9682 11.4783 17.1483 11.4783 17.3359C11.4783 17.5236 11.4038 17.7032 11.2713 17.8362L7.93034 21.1771C7.79761 21.3097 7.61768 21.3841 7.43009 21.3841L7.43056 21.3836ZM5.83553 18.0813L7.43056 19.6764L9.77101 17.3359L8.17598 15.7409L5.83553 18.0813Z" fill="#667EEA"/>
<path d="M5.56782 22.4864C4.88888 22.4864 4.25049 22.2219 3.77005 21.7419C3.29008 21.262 3.02557 20.6231 3.02557 19.9442C3.02557 19.2652 3.29008 18.6268 3.77005 18.1464L4.33536 17.5811C4.46784 17.4486 4.64795 17.3741 4.8356 17.3741C5.02325 17.3741 5.20289 17.4486 5.33585 17.5811L7.9309 20.1761C8.06338 20.3086 8.13788 20.4887 8.13788 20.6764C8.13788 20.864 8.06338 21.0437 7.9309 21.1766L7.36559 21.7419C6.88562 22.2219 6.24723 22.4864 5.56782 22.4864ZM4.8356 19.0813L4.77054 19.1464C4.55743 19.3595 4.44003 19.6429 4.44003 19.9442C4.44003 20.2454 4.55743 20.5288 4.77054 20.7419C4.98365 20.955 5.26701 21.0724 5.56829 21.0724C5.86957 21.0724 6.15293 20.955 6.36557 20.7419L6.43063 20.6768L4.8356 19.0818V19.0813Z" fill="#667EEA"/>
<path d="M3.02882 7.57147C1.35882 7.57147 0 6.21265 0 4.54265C0 2.87265 1.35835 1.51383 3.02882 1.51383C4.69928 1.51383 6.05763 2.87265 6.05763 4.54265C6.05763 6.21265 4.69881 7.57147 3.02882 7.57147ZM3.02882 2.92829C2.13865 2.92829 1.41445 3.65249 1.41445 4.54265C1.41445 5.43281 2.13865 6.15701 3.02882 6.15701C3.91898 6.15701 4.64318 5.43281 4.64318 4.54265C4.64318 3.65249 3.91898 2.92829 3.02882 2.92829Z" fill="#667EEA"/>
</svg>
