<svg width="24" height="24" viewBox="0 0 24 24" fill="none" xmlns="http://www.w3.org/2000/svg">
<g clip-path="url(#clip0_139_33598)">
<path d="M10.3222 18.8666H7.25286M6.02515 18.8666H-7.85104M-14.2316 18.8666L-18 18.2528V11.5003L-16.2403 9.12676L-8.44435 8.20598L-6.37771 10.2726H10.8511C15.0309 10.2726 21.181 11.6158 22.6781 15.0608V17.6389C22.6781 18.3142 22.1256 18.8666 21.4504 18.8666H16.7028" stroke="#667EEA" stroke-width="0.8" stroke-miterlimit="22.9256"/>
<path d="M20.2226 15.0608H22.678M7.16774 12.7279H8.39544M4.71232 12.7279H5.94003M-15.5447 5.74713L-13.8105 8.83972M-12.4754 5.74713L-10.9256 8.49899M-8.44443 8.20598L-4.61767 5.74713H-1.54841M-0.3207 5.74713H3.73073L10.851 10.2726M-6.3778 12.7279H-3.92238M13.5125 13.342C15.5467 13.342 17.1956 14.9909 17.1956 17.0251C17.1956 19.0592 15.5467 20.7082 13.5125 20.7082C11.4784 20.7082 9.8294 19.0592 9.8294 17.0251C9.8294 14.9909 11.4784 13.342 13.5125 13.342ZM13.5125 15.7974C12.8337 15.7974 12.2848 16.3463 12.2848 17.0251C12.2848 17.7039 12.8337 18.2528 13.5125 18.2528C14.1914 18.2528 14.7402 17.7038 14.7402 17.0251C14.7402 16.3462 14.1913 15.7974 13.5125 15.7974ZM-11.0414 15.7974C-11.7202 15.7974 -12.2691 16.3463 -12.2691 17.0251C-12.2691 17.7039 -11.7201 18.2528 -11.0414 18.2528C-10.3626 18.2528 -9.81365 17.7038 -9.81365 17.0251C-9.81357 16.3462 -10.3625 15.7974 -11.0414 15.7974ZM-11.0414 13.342C-9.00721 13.342 -7.35824 14.9909 -7.35824 17.0251C-7.35824 19.0592 -9.00721 20.7082 -11.0414 20.7082C-13.0755 20.7082 -14.7245 19.0592 -14.7245 17.0251C-14.7245 14.9909 -13.0754 13.342 -11.0414 13.342ZM-18 3.2918H-11.8615C-11.1862 3.2918 -10.6338 3.84435 -10.6338 4.5195V5.74721H-15.5447C-16.8951 5.74713 -18 4.64227 -18 3.2918Z" stroke="#667EEA" stroke-width="0.8" stroke-miterlimit="22.9256"/>
</g>
<defs>
<clipPath id="clip0_139_33598">
<rect width="24" height="24" fill="white"/>
</clipPath>
</defs>
</svg>
