<svg width="24" height="24" viewBox="0 0 24 24" fill="none" xmlns="http://www.w3.org/2000/svg">
<path d="M22.0981 11.6294H1.90196C1.40841 11.6294 1 12.0289 1 12.5225V12.5185C1 13.012 1.40841 13.4082 1.90196 13.4082H2.47976C3.3336 14.8124 5.26295 18.4923 5.26295 22.7211C5.26295 22.9796 5.47252 23.191 5.73104 23.191C5.98956 23.191 6.19913 22.9823 6.19913 22.7238C6.19913 22.716 6.19889 22.7086 6.19889 22.7008L8.21672 21.6727C8.24864 22.3285 8.25515 22.7161 8.25533 22.7298C8.25903 22.986 8.46785 23.1911 8.72323 23.1911H8.73007C8.98854 23.1911 9.19511 22.975 9.19141 22.7165C9.19118 22.7014 9.18341 22.2324 9.14264 21.4491L11.5319 22.637V22.7231C11.5319 22.9816 11.7415 23.1912 12 23.1912C12.2585 23.1912 12.4681 22.9816 12.4681 22.7231V22.6434L14.7706 21.5455C14.7341 22.2707 14.7269 22.7021 14.7267 22.7166C14.723 22.9751 14.9296 23.1912 15.1881 23.1912H15.1949C15.4503 23.1912 15.6591 22.9861 15.6628 22.7299C15.663 22.716 15.6697 22.3116 15.7034 21.6288L17.7196 22.6563C17.7195 22.6792 17.719 22.7019 17.719 22.7248C17.719 22.9833 17.9285 23.1929 18.187 23.1929C18.4456 23.1929 18.6551 22.9833 18.6551 22.7248C18.6551 19.9151 19.5168 17.3659 20.2397 15.7251C20.5908 14.9289 20.9908 14.1551 21.4375 13.4082H22.098C22.5916 13.4082 23 13.0117 23 12.5181V12.5206C23 12.0271 22.5916 11.6294 22.0981 11.6294ZM18.2207 18.7527L16.2913 17.5581L19.0496 16.1524C18.7528 16.9079 18.4575 17.7865 18.2207 18.7527ZM12.4681 16.017L14.8614 17.4987L12.4681 18.7184V16.017ZM11.5319 18.7149L9.21131 17.5322L11.5319 16.0342V18.7149ZM11.5319 15.1985L8.74678 16.9928C8.60434 15.8622 8.41664 14.6252 8.16958 13.4082H11.5319V15.1985ZM8.88079 18.1518L11.2304 19.3492L9.0816 20.4442C9.02867 19.6789 8.96172 18.9146 8.88079 18.1518ZM8.12273 20.1579L6.43986 19.3213L7.95969 18.3402C8.02299 18.9453 8.07734 19.5512 8.12273 20.1579ZM15.0323 18.1997C14.9552 18.9321 14.8909 19.6658 14.8396 20.4005L12.7767 19.3492L15.0323 18.1997ZM15.9744 18.1878L17.8045 19.3209L15.786 20.2834C15.8369 19.5839 15.8997 18.8852 15.9744 18.1878ZM12.4681 15.1911V13.4082H15.7486C15.5104 14.6252 15.3274 15.7747 15.1869 16.8708L12.4681 15.1911ZM7.21431 13.4082C7.45224 14.5784 7.6361 15.7205 7.77812 16.7982L4.4175 15.0838C4.11549 14.4216 3.81905 13.8763 3.56624 13.4082H7.21431ZM4.84617 16.0957L7.80564 17.6039L5.74143 18.9364C5.49194 17.8732 5.16915 16.911 4.84617 16.0957ZM5.93213 19.853L8.1136 20.9375L6.17741 21.9242C6.1393 21.2092 6.05229 20.5157 5.93213 19.853ZM9.67518 20.9297L11.5319 19.9835V21.8529L9.67518 20.9297ZM12.4681 19.98L14.3795 20.954L12.4681 21.8655V19.98ZM15.9669 20.975L17.955 20.027C17.8531 20.623 17.7788 21.243 17.743 21.8801L15.9669 20.975ZM19.4737 15.1446L16.1335 16.845C16.2763 15.7536 16.4623 14.5784 16.7039 13.4082H20.3519C20.0916 13.8763 19.785 14.4567 19.4737 15.1446Z" fill="#667EEA"/>
<path d="M7.60432 3.52761C10.055 3.67404 12.7696 4.91457 14.9803 7.12527C15.2601 7.4052 15.5282 7.69742 15.783 8.00027C15.5244 8.27817 15.2604 8.55108 14.992 8.81961C14.6324 9.17909 14.2639 9.53046 13.8875 9.87234C13.6581 9.55484 13.4039 9.2557 13.1268 8.97879C11.6362 7.48818 9.60274 6.7221 7.4012 6.82058L7.1219 6.83718C5.7296 6.94564 4.38268 7.39631 3.18147 8.14285C3.5331 6.42348 4.3784 4.8837 5.56233 3.67801C6.05958 3.56749 6.58101 3.51297 7.118 3.51297L7.60432 3.52761ZM7.118 4.51297C6.75425 4.51297 6.40304 4.5423 6.06721 4.5989C5.61331 5.09756 5.22214 5.65386 4.90608 6.25515C5.69758 6.00567 6.52082 5.859 7.35725 5.82156C9.82466 5.7113 12.1348 6.57276 13.8338 8.27176L13.9725 8.41629C14.0767 8.31505 14.1822 8.21527 14.285 8.11258L14.4149 7.97976L14.2733 7.8323C12.0701 5.62913 9.38281 4.513 7.118 4.51297Z" fill="#667EEA"/>
<path d="M8.10446 7.6122C9.76451 7.68737 11.3556 8.32728 12.5693 9.54088C12.8392 9.81077 13.0809 10.1042 13.2939 10.4081C13.1677 10.5169 13.0409 10.5997 12.914 10.7401H3.0332L3.00879 10.3397L3 9.95493C3.00007 9.82867 3.00259 9.70216 3.00781 9.57603L3.03125 9.19909C4.46501 8.1405 6.14115 7.60538 7.77146 7.60536L8.10446 7.6122ZM16.2782 8.63366C16.7836 9.31116 17.209 9.99115 17.5517 10.7401H14.415C14.3837 10.6465 14.3522 10.6145 14.3193 10.5565C14.527 10.3694 14.7334 10.1767 14.9384 9.98032L15.5488 9.3817C15.7972 9.13329 16.0408 8.88685 16.2782 8.63366ZM18.08 6.52725C18.8927 7.12849 19.7646 7.61191 20.6659 7.95789C20.8115 8.59819 20.8886 9.26961 20.8886 9.95396L20.8798 10.3397C20.8741 10.4684 20.8654 10.5996 20.8544 10.7401H18.4218C18.0088 9.80392 17.4698 8.89466 16.8193 8.04285C17.2622 7.54617 17.6834 7.03428 18.08 6.52725ZM18.2802 7.87196C18.2177 7.94763 18.1543 8.02296 18.0907 8.09852C18.4517 8.6293 18.7736 9.1784 19.0546 9.74009H19.8827C19.8731 9.3782 19.8401 9.02176 19.7841 8.6737C19.2686 8.44527 18.7659 8.17697 18.2802 7.87196ZM7.77146 8.60534C6.49841 8.60536 5.18098 8.98291 4.00781 9.74009H11.2753C10.2722 8.98687 9.04839 8.60534 7.77146 8.60534ZM12.2148 1.00391C12.8451 1.02269 13.472 1.1083 14.0849 1.25878C14.6237 2.74649 15.5303 4.15919 16.7382 5.36712C16.9706 5.5994 17.2122 5.82252 17.4628 6.03507C17.0949 6.50511 16.713 6.96411 16.3173 7.41103C16.1929 7.26556 16.0654 7.12283 15.9355 6.98232L15.537 6.56827C13.6403 4.67155 11.3373 3.38816 9.00485 2.91989L8.53805 2.83688C7.88599 2.73669 7.25342 2.70465 6.64744 2.73728C8.13027 1.64567 9.96172 1 11.9443 1L12.2148 1.00391ZM19.2939 4.84759C19.7519 5.5065 20.1197 6.22423 20.3856 6.98135C19.7528 6.6911 19.1387 6.32735 18.5565 5.89738C18.8107 5.55346 19.0566 5.20339 19.2939 4.84759ZM15.0546 1.55566C16.5179 2.09841 17.7999 3.01368 18.787 4.1855C18.5166 4.60076 18.2345 5.00837 17.9403 5.40715C17.7195 5.21814 17.5036 5.01925 17.2948 4.81048C16.3071 3.82268 15.5568 2.70563 15.0546 1.55566ZM11.6152 2.00682C11.1357 2.02634 10.6675 2.08865 10.2138 2.18943C11.7855 2.65121 13.3076 3.4429 14.6894 4.49994C14.148 3.7497 13.6979 2.95212 13.3505 2.12498C12.8868 2.04199 12.416 1.9998 11.9443 1.99998L11.6152 2.00682Z" fill="#667EEA"/>
</svg>
