<svg width="24" height="24" viewBox="0 0 24 24" fill="none" xmlns="http://www.w3.org/2000/svg">
<g clip-path="url(#clip0_138_33574)">
<path d="M6.5 16C6.091 16 2.5 15.958 2.5 14.5C2.5 13.042 6.091 13 6.5 13C6.909 13 10.5 13.042 10.5 14.5C10.5 15.958 6.909 16 6.5 16ZM3.585 14.5C3.922 14.708 4.932 15 6.5 15C8.068 15 9.078 14.708 9.415 14.5C9.078 14.292 8.068 14 6.5 14C4.932 14 3.922 14.292 3.585 14.5Z" fill="#667EEA"/>
<path d="M6.5 18C6.091 18 2.502 17.958 2.5 16.501C2.49987 16.4353 2.51267 16.3703 2.53768 16.3096C2.56268 16.2489 2.5994 16.1937 2.64574 16.1472C2.69208 16.1006 2.74712 16.0637 2.80774 16.0384C2.86835 16.0132 2.93334 16.0001 2.999 16C3.13144 16 3.25946 16.0525 3.3532 16.1461C3.44694 16.2396 3.49974 16.3666 3.5 16.499C3.621 16.609 4.687 16.999 6.5 16.999C8.313 16.999 9.379 16.608 9.522 16.409C9.522 16.133 9.734 15.954 10.011 15.954C10.287 15.954 10.5 16.223 10.5 16.499C10.5 17.958 6.909 18 6.5 18Z" fill="#667EEA"/>
<path d="M3 17C2.86739 17 2.74021 16.9473 2.64645 16.8536C2.55268 16.7598 2.5 16.6326 2.5 16.5V14.5C2.5 14.3674 2.55268 14.2402 2.64645 14.1464C2.74021 14.0527 2.86739 14 3 14C3.13261 14 3.25979 14.0527 3.35355 14.1464C3.44732 14.2402 3.5 14.3674 3.5 14.5V16.5C3.5 16.6326 3.44732 16.7598 3.35355 16.8536C3.25979 16.9473 3.13261 17 3 17ZM10 17C9.86739 17 9.74021 16.9473 9.64645 16.8536C9.55268 16.7598 9.5 16.6326 9.5 16.5V14.5C9.5 14.3674 9.55268 14.2402 9.64645 14.1464C9.74021 14.0527 9.86739 14 10 14C10.1326 14 10.2598 14.0527 10.3536 14.1464C10.4473 14.2402 10.5 14.3674 10.5 14.5V16.5C10.5 16.6326 10.4473 16.7598 10.3536 16.8536C10.2598 16.9473 10.1326 17 10 17Z" fill="#667EEA"/>
<path d="M11.588 24H6.22101C5.90627 24 5.59949 23.9011 5.34411 23.7171C5.08872 23.5332 4.89767 23.2735 4.79801 22.975L4.46501 21.975C4.31101 21.512 4.38601 21.019 4.67101 20.623C4.95601 20.227 5.39901 20 5.88701 20H10.614C11.236 20 11.801 19.609 12.019 19.026L19.032 0.324C19.0772 0.202726 19.1678 0.1038 19.2846 0.0481753C19.4015 -0.00744922 19.5354 -0.0154027 19.658 0.0259996L21.158 0.526C21.2213 0.546791 21.2797 0.580059 21.3299 0.623836C21.3801 0.667613 21.421 0.721009 21.4502 0.780866C21.4793 0.840723 21.4962 0.905825 21.4998 0.97232C21.5034 1.03882 21.4936 1.10535 21.471 1.168L13.944 22.338C13.7705 22.8241 13.451 23.2446 13.0292 23.5421C12.6075 23.8396 12.1041 23.9996 11.588 24ZM5.74601 22.658C5.77921 22.7577 5.84297 22.8444 5.92823 22.9058C6.0135 22.9672 6.11594 23.0001 6.22101 23H11.589C12.222 23 12.79 22.599 13.002 22.002L20.358 1.313L19.799 1.126L12.955 19.377C12.775 19.8527 12.4548 20.2626 12.0368 20.5524C11.6188 20.8422 11.1226 20.9983 10.614 21H5.88701C5.80774 20.9995 5.72952 21.0181 5.659 21.0543C5.58848 21.0906 5.52776 21.1433 5.48201 21.208C5.43533 21.2722 5.4047 21.3467 5.3927 21.4251C5.38069 21.5036 5.38766 21.5838 5.41301 21.659L5.74601 22.658Z" fill="#667EEA"/>
</g>
<defs>
<clipPath id="clip0_138_33574">
<rect width="24" height="24" fill="white"/>
</clipPath>
</defs>
</svg>
