<svg width="24" height="24" viewBox="0 0 24 24" fill="none" xmlns="http://www.w3.org/2000/svg">
<path d="M17.2614 13.7283L14.5593 15.0245C15.2025 15.5082 16.4481 16.5183 16.4481 16.5183C16.4481 16.5183 16.6674 19.3251 16.4045 20.4723C16.3553 20.6902 16.0565 20.8097 15.8337 20.8238C15.6242 20.8357 15.2622 20.7697 15.2622 20.5602V17.7042C15.2622 17.7042 13.7762 16.6174 12.8462 16.1668C12.48 15.989 12.1988 15.5946 12.099 15.2003C11.9907 14.768 11.9654 14.1522 12.319 13.8823C13.4409 13.0268 16.4727 11.9154 16.3609 11.7292C16.3911 11.6539 13.1267 11.5956 11.2864 11.6413C11.0382 11.6483 10.7929 11.3601 10.7592 11.1141C10.7254 10.8638 10.8829 10.492 11.1324 10.4554C13.2398 10.1461 15.9321 10.3781 17.8982 10.4329C18.2103 10.4421 18.5548 10.7219 18.6237 11.0262C18.8416 11.9921 18.6012 14.2246 18.7769 14.2112H20.2053C20.2053 14.2112 20.7599 14.6492 20.7536 14.9585C20.7465 15.2291 20.2489 15.5953 20.2489 15.5953C20.2489 15.5953 18.4543 15.8821 17.6346 15.5518C17.4406 15.473 17.3338 15.2122 17.3274 15.0021C17.3057 14.3237 17.371 13.069 17.371 13.069" stroke="#667EEA" stroke-width="0.7" stroke-linecap="round" stroke-linejoin="round"/>
<path d="M12.1052 15.1658L12.0898 17.9467C12.0898 17.9467 10.6839 17.8251 10.1328 17.9312C9.83052 17.9888 9.5156 18.2918 9.49592 18.599C9.47483 18.9167 9.74195 19.3793 10.0597 19.3708C10.8835 19.3511 11.9112 19.4889 12.6493 19.3603C13.0134 19.297 13.3312 18.8443 13.3171 18.4746C13.2911 17.7808 13.3635 16.4642 13.3635 16.4642" stroke="#667EEA" stroke-width="0.7" stroke-linejoin="round"/>
<path d="M8.38666 17.023C8.38666 17.023 8.17648 19.5255 8.43024 20.6699C8.47593 20.8744 8.58629 21.074 8.73813 21.2189C8.90332 21.377 9.3532 21.5267 9.3532 21.5267M14.1262 21.9183C14.1262 21.9183 16.6286 22.1285 17.773 21.8747C17.9776 21.829 18.1772 21.7193 18.322 21.5675C18.4802 21.4009 18.6299 20.9524 18.6299 20.9524" stroke="#667EEA" stroke-width="0.7" stroke-linecap="round" stroke-linejoin="round"/>
<path d="M21.9478 10.4351C21.6708 11.0536 20.8048 11.4557 20.1862 11.1795C19.5676 10.9025 19.2394 9.98447 19.5163 9.36588C19.7933 8.74729 20.7092 8.53782 21.3278 8.81407C21.6249 8.94684 21.8572 9.1922 21.9735 9.49618C22.0897 9.80016 22.0805 10.1379 21.9478 10.4351Z" stroke="#667EEA" stroke-width="0.7" stroke-linecap="round" stroke-linejoin="round"/>
<path d="M1.17383 14.6713C1.17383 14.6713 9.21902 10.6855 12.9044 8.09898C13.1661 7.91493 13.2672 7.55108 13.3342 7.23722C13.3768 7.04098 13.3098 6.63569 13.3098 6.63569M7.84625 4.54406C7.93635 4.54406 5.89223 5.92994 5.26339 7.07571C5.12764 7.32253 5.39789 7.91065 5.39789 7.91065L1.92748 11.6545C1.92748 11.6545 1.84345 12.3115 2.06138 12.4894C2.3615 12.7332 3.21854 12.4352 3.21854 12.4352C3.21854 12.4352 8.54325 6.9258 11.0744 4.65134C11.3617 4.39354 11.2888 3.84441 11.1281 3.49337C10.9521 3.10942 10.1328 2.92782 10.1328 2.92782C10.0335 2.84981 6.49852 2.82845 4.72524 2.98142C4.27842 3.01981 3.91687 3.39465 3.91809 3.84381C3.91809 4.17048 4.40078 4.57941 4.72524 4.54406C6.5807 4.34111 8.53052 4.49713 8.49156 4.54406" stroke="#667EEA" stroke-width="0.7" stroke-linecap="round" stroke-linejoin="round"/>
<path d="M6.0188 6.13778L7.84504 7.73758" stroke="#667EEA" stroke-width="0.7"/>
<path d="M13.9798 2.06349C13.9798 2.65099 13.4368 3.27628 12.85 3.27628C12.2632 3.27628 11.6793 2.66499 11.6793 2.07688C11.6793 1.48876 12.3307 1 12.9169 1C13.5037 1 13.9798 1.47598 13.9798 2.06349Z" stroke="#667EEA" stroke-width="0.7" stroke-linecap="round" stroke-linejoin="round"/>
</svg>
