<svg width="24" height="24" viewBox="0 0 24 24" fill="none" xmlns="http://www.w3.org/2000/svg">
<path d="M21.5571 11.5325C21.0856 11.0623 20.4864 10.7993 19.8789 10.7434C20.5278 9.74794 20.4111 8.39138 19.5472 7.51237L19.538 7.50321C18.913 6.89368 18.0565 6.66361 17.2542 6.80752C17.4021 5.99908 17.1632 5.13382 16.5382 4.51054C15.6642 3.63978 14.3206 3.52154 13.3179 4.15399C13.2802 3.49954 13.0137 2.89459 12.5579 2.43996C12.1268 2.011 10.8466 1 10.8466 1L10.558 1.28873C6.35801 5.47754 5.06584 9.93309 4.0264 14.5105L2.07528 16.4565C0.641574 17.8854 0.641574 20.2117 2.07528 21.6416L2.36294 21.9285C3.07979 22.6434 4.02089 23 4.9629 23C5.90492 23 6.8451 22.6425 7.56195 21.9285L9.51307 19.9826C14.2765 18.9074 18.5592 17.6682 22.7114 13.527L23 13.2392C23 13.2392 21.9872 11.9615 21.5571 11.5325ZM16.5382 8.17049C17.1898 7.52154 18.244 7.51971 18.8983 8.16132C19.209 8.47571 19.379 8.89093 19.379 9.33272C19.379 9.7791 19.2227 10.2172 18.8882 10.5142C16.4803 12.6517 13.7342 14.472 13.0109 14.9294L11.3769 13.2997L16.5373 8.16957L16.5382 8.17049ZM13.5192 5.15949C14.1726 4.50871 15.235 4.50871 15.8885 5.15949C16.541 5.81027 16.5419 6.86801 15.8912 7.51971L10.7271 12.6526L9.07377 11.0037C9.62428 10.1476 11.7261 6.94775 13.5192 5.15949ZM10.9183 2.23098C11.2216 2.47754 11.6636 2.84601 11.9072 3.08891C12.2206 3.40055 12.4007 3.84418 12.4025 4.30522C12.4044 4.77269 12.2316 5.20348 11.9164 5.51787C10.4266 7.25115 8.98187 9.45371 8.40839 10.3401L6.72287 8.65903C7.63364 6.45371 8.91662 4.30247 10.9183 2.23098ZM6.91219 21.2805C5.83599 22.3511 4.08706 22.3511 3.0127 21.2805L2.72504 20.9936C1.65068 19.9212 1.65068 18.1769 2.72504 17.1045L4.48408 15.3501L8.67123 19.5261L6.91219 21.2805ZM9.49102 19.0477L4.96382 14.5325C5.34523 12.8653 5.76615 11.2154 6.35985 9.59212L14.4538 17.6654C12.8538 18.242 11.2041 18.6572 9.49102 19.0477ZM15.3931 17.3061L13.6772 15.5949C16.1982 14.0715 18.6153 12.0128 18.6456 11.9872C19.2926 11.4748 20.2695 11.5463 20.9073 12.1806C21.1509 12.4235 21.5203 12.8653 21.7676 13.1668C19.7052 15.1494 17.5942 16.4088 15.3931 17.3061Z" fill="#667EEA"/>
</svg>
