<svg width="24" height="24" viewBox="0 0 24 24" fill="none" xmlns="http://www.w3.org/2000/svg">
<g clip-path="url(#clip0_139_33669)">
<path d="M8.23337 17.048C9.29529 16.3226 10.5935 16.0285 11.8643 16.2255C15.9456 16.8581 20.0097 14.9894 22.1862 11.4795L22.1939 11.4671C23.5074 9.34878 23.19 6.60493 21.4275 4.84246L19.1575 2.57233C17.395 0.809859 14.6512 0.492475 12.5329 1.80601L12.5205 1.81369C9.01055 3.99025 7.14186 8.05432 7.77442 12.1356C7.97292 13.4162 7.67275 14.7242 6.93573 15.7901" stroke="#667EEA" stroke-width="0.8" stroke-miterlimit="10" stroke-linecap="round" stroke-linejoin="round"/>
<path d="M9.91566 9.78954C9.91566 9.78954 9.86996 11.1204 9.97448 11.7946C10.0945 12.569 10.0653 13.3508 9.8999 14.1C10.6491 13.9346 11.4309 13.9054 12.2054 14.0254C12.8796 14.13 14.2104 14.0843 14.2104 14.0843L9.91566 9.78954Z" stroke="#667EEA" stroke-width="0.8" stroke-miterlimit="10" stroke-linecap="round" stroke-linejoin="round"/>
<path d="M2.60809 19.512L6.26059 15.8595C6.43358 15.6865 6.71405 15.6865 6.88705 15.8595L8.14042 17.1129C8.31341 17.2859 8.31341 17.5664 8.14042 17.7394L4.52869 21.3511M2.8003 22.6967L1.30336 21.1997C0.898962 20.7953 0.898962 20.1396 1.30336 19.7352C1.70775 19.3308 2.36344 19.3308 2.76788 19.7352L4.26483 21.2321C4.66922 21.6365 4.66922 22.2922 4.26483 22.6967C3.86043 23.1011 3.20474 23.1011 2.8003 22.6967Z" stroke="#667EEA" stroke-width="0.8" stroke-miterlimit="10" stroke-linecap="round" stroke-linejoin="round"/>
</g>
<defs>
<clipPath id="clip0_139_33669">
<rect width="24" height="24" fill="white"/>
</clipPath>
</defs>
</svg>
