<svg width="24" height="24" viewBox="0 0 24 24" fill="none" xmlns="http://www.w3.org/2000/svg">
<path d="M12.0001 7.6602C12.6587 7.6602 13.3026 7.4649 13.8502 7.09898C14.3978 6.73306 14.8246 6.21297 15.0767 5.60448C15.3287 4.99598 15.3947 4.32641 15.2662 3.68043C15.1377 3.03446 14.8205 2.44109 14.3548 1.97537C13.8891 1.50964 13.2957 1.19248 12.6498 1.06399C12.0038 0.935496 11.3342 1.00144 10.7257 1.25349C10.1172 1.50554 9.59712 1.93237 9.23121 2.48C8.86529 3.02763 8.66998 3.67147 8.66998 4.3301C8.67101 5.21299 9.02218 6.05942 9.64648 6.68371C10.2708 7.308 11.1172 7.65918 12.0001 7.6602ZM12.0001 1.64454C12.5312 1.64454 13.0505 1.80204 13.4921 2.09714C13.9337 2.39223 14.278 2.81166 14.4812 3.30238C14.6845 3.7931 14.7377 4.33308 14.634 4.85403C14.5304 5.37498 14.2746 5.8535 13.8991 6.22908C13.5235 6.60467 13.045 6.86044 12.524 6.96407C12.0031 7.06769 11.4631 7.01451 10.9724 6.81124C10.4816 6.60798 10.0622 6.26376 9.76712 5.82212C9.47202 5.38048 9.31452 4.86126 9.31452 4.3301C9.31531 3.61809 9.59851 2.93547 10.102 2.432C10.6055 1.92853 11.2881 1.64533 12.0001 1.64454Z" fill="#667EEA"/>
<path d="M12.4426 3.00537C12.7791 3.11818 13.0601 3.35475 13.2285 3.66709C13.2563 3.71808 13.2973 3.76064 13.3472 3.79028C13.3971 3.81993 13.4541 3.83556 13.5121 3.83553C13.5657 3.83562 13.6185 3.82217 13.6655 3.79643C13.7405 3.75547 13.7961 3.68648 13.8203 3.60457C13.8444 3.52265 13.8352 3.4345 13.7944 3.35943C13.5482 2.90379 13.1379 2.5588 12.6467 2.39435C12.6065 2.38025 12.5638 2.37428 12.5212 2.37681C12.4786 2.37934 12.4369 2.3903 12.3986 2.40906C12.3602 2.42782 12.326 2.45401 12.2979 2.48611C12.2698 2.5182 12.2483 2.55556 12.2347 2.59602C12.2211 2.63648 12.2157 2.67924 12.2188 2.7218C12.2219 2.76437 12.2334 2.8059 12.2527 2.84398C12.2719 2.88206 12.2986 2.91594 12.331 2.94364C12.3635 2.97135 12.4011 2.99233 12.4418 3.00537H12.4426Z" fill="#667EEA"/>
<path d="M22.7127 17.9393L20.535 15.7616C20.3507 15.5775 20.1009 15.474 19.8404 15.474C19.5799 15.474 19.3301 15.5775 19.1458 15.7616L18.3681 16.5393C18.3078 16.5999 18.274 16.6818 18.274 16.7673C18.274 16.8527 18.3078 16.9347 18.3681 16.9952L18.4514 17.0786L17.7407 17.7893L13.2337 13.2823L15.3431 11.1725L15.3486 11.1781C15.3785 11.2081 15.414 11.2319 15.4531 11.2481C15.4922 11.2643 15.5341 11.2727 15.5764 11.2727C15.6187 11.2727 15.6606 11.2643 15.6997 11.2481C15.7388 11.2319 15.7743 11.2081 15.8041 11.1781L22.6482 4.3344C22.8644 4.10701 22.9832 3.80417 22.9793 3.49044C22.9754 3.1767 22.8491 2.87691 22.6274 2.65496C22.4056 2.43302 22.1059 2.30649 21.7922 2.30235C21.4784 2.29822 21.1755 2.4168 20.9479 2.63283L14.1056 9.47779C14.0756 9.50772 14.0518 9.54326 14.0356 9.58237C14.0194 9.62148 14.0111 9.66341 14.0111 9.70575C14.0111 9.74808 14.0194 9.79001 14.0356 9.82912C14.0518 9.86823 14.0756 9.90377 14.1056 9.9337L14.1107 9.93928L12.0001 12.0486L9.89029 9.93756L9.89587 9.93198C9.92582 9.90205 9.94958 9.86651 9.96579 9.8274C9.98199 9.78829 9.99034 9.74637 9.99034 9.70403C9.99034 9.66169 9.98199 9.61977 9.96579 9.58065C9.94958 9.54154 9.92582 9.506 9.89587 9.47608L3.05219 2.63283C2.82464 2.4168 2.52171 2.29822 2.20798 2.30235C1.89425 2.30649 1.59455 2.43302 1.37277 2.65496C1.151 2.87691 1.02469 3.1767 1.0208 3.49044C1.0169 3.80417 1.13571 4.10701 1.35191 4.3344L8.19602 11.1781C8.22588 11.2081 8.26137 11.2319 8.30045 11.2481C8.33953 11.2643 8.38143 11.2727 8.42375 11.2727C8.46607 11.2727 8.50797 11.2643 8.54706 11.2481C8.58614 11.2319 8.62163 11.2081 8.65149 11.1781L8.65708 11.1725L10.7664 13.2823L6.2594 17.7893L5.54869 17.0786L5.63205 16.9952C5.69233 16.9347 5.72616 16.8527 5.72616 16.7673C5.72616 16.6818 5.69233 16.5999 5.63205 16.5393L4.85431 15.7616C4.67005 15.5775 4.42021 15.474 4.15972 15.474C3.89923 15.474 3.6494 15.5775 3.46513 15.7616L1.28745 17.9393C1.10333 18.1235 0.999908 18.3734 0.999908 18.6339C0.999908 18.8943 1.10333 19.1442 1.28745 19.3284L2.06519 20.1062C2.12575 20.1665 2.20771 20.2003 2.29315 20.2003C2.37858 20.2003 2.46054 20.1665 2.5211 20.1062L2.60446 20.0228L5.48725 22.9056C5.51713 22.9356 5.55263 22.9593 5.5917 22.9756C5.63078 22.9918 5.67267 23.0001 5.71498 23.0002H8.20375C8.24607 23.0002 8.28798 22.9919 8.32706 22.9756C8.36614 22.9594 8.40163 22.9356 8.43149 22.9056L9.67759 21.6595C9.70758 21.6297 9.73137 21.5942 9.7476 21.5551C9.76384 21.516 9.77219 21.4741 9.77219 21.4318C9.77219 21.3895 9.76384 21.3476 9.7476 21.3085C9.73137 21.2694 9.70758 21.2339 9.67759 21.204L7.49476 19.0208L12.0001 14.5159L16.5071 19.0225L14.3243 21.2058C14.2943 21.2356 14.2705 21.2711 14.2542 21.3102C14.238 21.3493 14.2297 21.3912 14.2297 21.4335C14.2297 21.4758 14.238 21.5177 14.2542 21.5568C14.2705 21.5959 14.2943 21.6314 14.3243 21.6612L15.5704 22.9073C15.6002 22.9373 15.6357 22.9611 15.6748 22.9773C15.7139 22.9936 15.7558 23.0019 15.7981 23.0019H18.2869C18.3292 23.0019 18.3711 22.9935 18.4101 22.9773C18.4492 22.9611 18.4847 22.9373 18.5146 22.9073L21.3974 20.0245L21.4808 20.1079C21.5413 20.1682 21.6233 20.202 21.7087 20.202C21.7941 20.202 21.8761 20.1682 21.9367 20.1079L22.7144 19.3302C22.8985 19.1459 23.0019 18.8961 23.0019 18.6356C23.0019 18.3751 22.8985 18.1252 22.7144 17.941L22.7127 17.9393ZM21.4038 3.09002C21.5103 2.99508 21.6491 2.94447 21.7917 2.94857C21.9342 2.95267 22.0699 3.01116 22.1707 3.11206C22.2715 3.21295 22.33 3.3486 22.334 3.49119C22.338 3.63378 22.2873 3.77251 22.1923 3.87893L15.5751 10.4962L14.7866 9.70768L21.4038 3.09002ZM1.80781 3.87893C1.71282 3.77251 1.66213 3.63378 1.66615 3.49119C1.67017 3.3486 1.72859 3.21295 1.82943 3.11206C1.93027 3.01116 2.06589 2.95267 2.20848 2.94857C2.35107 2.94447 2.48982 2.99508 2.59629 3.09002L9.21352 9.70725L8.42375 10.4962L1.80781 3.87893ZM9.11255 10.7175L9.43482 10.3952L11.5442 12.505L11.2223 12.8268L9.11255 10.7175ZM1.74336 18.8725C1.68009 18.8092 1.64456 18.7234 1.64456 18.6339C1.64456 18.5443 1.68009 18.4585 1.74336 18.3952L3.92189 16.2175C3.98521 16.1542 4.07107 16.1187 4.16058 16.1187C4.25009 16.1187 4.33594 16.1542 4.39927 16.2175L4.94842 16.7696L2.29336 19.4226L1.74336 18.8725ZM8.07012 22.3556H5.84862L3.05993 19.5669L5.09279 17.5341L8.99223 21.4335L8.07012 22.3556ZM6.71487 18.2448L14.5653 10.3948L14.8872 10.717L7.03714 18.567L6.71487 18.2448ZM12.4555 14.06L12.7774 13.7377L17.2853 18.2452L16.9634 18.5666L12.4555 14.06ZM18.1515 22.3556H15.93L15.0079 21.4335L18.9073 17.5341L20.9402 19.5669L18.1515 22.3556ZM22.2568 18.8725L21.7068 19.4226L19.0517 16.7696L19.6017 16.2196C19.665 16.1564 19.7509 16.1208 19.8404 16.1208C19.9299 16.1208 20.0158 16.1564 20.0791 16.2196L22.2568 18.3973C22.32 18.4606 22.3556 18.5465 22.3556 18.636C22.3556 18.7255 22.32 18.8114 22.2568 18.8747V18.8725Z" fill="#667EEA"/>
</svg>
