<svg width="24" height="24" viewBox="0 0 24 24" fill="none" xmlns="http://www.w3.org/2000/svg">
<path d="M22.1234 1.84058C21.3698 1.08696 19.4278 1 18.6162 1C14.964 1 9.74659 2.33333 6.03645 6.04348C0.442247 11.6087 0.35529 20.6522 1.80457 22.1304C2.58717 22.8841 4.38428 23 5.36978 23C8.96399 23 14.1524 21.6667 17.9205 17.9275C23.4567 12.3913 23.7466 3.46377 22.1234 1.84058ZM5.36978 21.9275C3.60167 21.9275 2.76109 21.5797 2.55819 21.3768C2.18138 21 1.94949 19.6087 2.06543 17.7826L6.21036 21.8986C5.92051 21.9275 5.63065 21.9275 5.36978 21.9275ZM17.1669 17.1449C14.3553 19.9565 10.6162 21.2899 7.57268 21.7536L2.21036 16.4203C2.64514 13.3768 3.94949 9.6087 6.79007 6.76812C9.5437 4.01449 13.1669 2.68116 16.2683 2.21739L21.7466 7.69565C21.3118 10.6522 19.9785 14.3333 17.1669 17.1449ZM21.8915 6.36232L17.6307 2.07246C17.9785 2.04348 18.2973 2.04348 18.6162 2.04348C20.3843 2.04348 21.1959 2.3913 21.3698 2.56522C21.7756 2.97101 22.0364 4.42029 21.8915 6.36232Z" fill="#667EEA"/>
<path d="M16.5872 11.1159L15.0799 9.6087L16.0364 8.65217C16.2393 8.44928 16.2393 8.10145 16.0364 7.89855C15.8335 7.69565 15.4857 7.69565 15.2828 7.89855L14.3263 8.88406L12.819 7.37681C12.6161 7.17391 12.2683 7.17391 12.0654 7.37681C11.8625 7.57971 11.8625 7.92754 12.0654 8.13043L13.5727 9.63768L11.9785 11.2319L10.4712 9.72464C10.2683 9.52174 9.92049 9.52174 9.71759 9.72464C9.51469 9.92754 9.51469 10.2754 9.71759 10.4783L11.2248 11.9855L9.63063 13.5797L8.12339 12.0725C7.92049 11.8696 7.57266 11.8696 7.36976 12.0725C7.16686 12.2754 7.16686 12.6232 7.36976 12.8261L8.87701 14.3333L7.92049 15.2899C7.71759 15.4928 7.71759 15.8406 7.92049 16.0435C8.03643 16.1594 8.15237 16.1884 8.2973 16.1884C8.44223 16.1884 8.55817 16.1304 8.67411 16.0435L9.63063 15.087L11.1379 16.5942C11.2538 16.7101 11.3698 16.7391 11.5147 16.7391C11.6596 16.7391 11.7756 16.6812 11.8915 16.5942C12.0944 16.3913 12.0944 16.0435 11.8915 15.8406L10.3843 14.3043L11.9785 12.7101L13.4857 14.2174C13.6016 14.3333 13.7176 14.3623 13.8625 14.3623C14.0074 14.3623 14.1234 14.3043 14.2393 14.2174C14.4422 14.0145 14.4422 13.6667 14.2393 13.4638L12.7321 11.9565L14.3263 10.3623L15.8335 11.8696C15.9495 11.9855 16.0654 12.0145 16.2103 12.0145C16.3553 12.0145 16.4712 11.9565 16.5872 11.8696C16.7901 11.6667 16.7901 11.3188 16.5872 11.1159ZM13.2538 4.44928C13.1669 4.15942 12.877 4.01449 12.5872 4.10145C12.3553 4.18841 6.73208 5.95652 4.58715 11.2029C4.47121 11.4928 4.58715 11.8116 4.87701 11.8986C4.93498 11.9275 5.02194 11.9275 5.07991 11.9275C5.28281 11.9275 5.4857 11.8116 5.57266 11.6087C7.54368 6.82609 12.848 5.11594 12.906 5.11594C13.1958 5.02899 13.3408 4.73913 13.2538 4.44928Z" fill="#667EEA"/>
</svg>
