<svg width="24" height="24" viewBox="0 0 24 24" fill="none" xmlns="http://www.w3.org/2000/svg">
<path d="M17.2266 10.7728L18.7546 12.4694L21.2593 12.5187M21.2874 11.1048C21.2874 11.1048 19.6883 11.0837 19.5468 11.0837C19.4053 11.0837 15.1318 6.70143 15.1318 6.70143L12.1603 6.53188C12.1603 6.53188 11.5813 7.00721 11.6223 7.32388C11.6595 7.60857 12.273 7.88945 12.273 7.88945L14.4812 8.08714L15.5846 9.2745" stroke="#667EEA" stroke-width="0.7" stroke-linecap="round" stroke-linejoin="round"/>
<path d="M17.8209 9.41589C17.8338 9.46835 14.7676 9.66027 13.0801 9.59949C12.6452 9.58414 12.1694 9.99806 12.0189 10.4056C11.6622 11.3691 12.0189 13.4873 12.0189 13.4873L9.92476 15.9471C9.92476 15.9471 9.6974 16.4193 10.0656 16.8517C10.3602 17.1972 10.802 16.965 10.802 16.965L13.8299 13.9965" stroke="#667EEA" stroke-width="0.7" stroke-linejoin="round"/>
<path d="M12.6976 9.84006L15.5705 12.5398L15.2734 16.7385C15.2734 16.7385 15.0397 17.4282 14.4524 17.3041C13.8588 17.1787 13.7395 16.7391 13.7446 16.7385L13.7729 13.1764L11.9196 11.918" stroke="#667EEA" stroke-width="0.7" stroke-linejoin="round"/>
<path d="M14.3114 11.5367C14.3959 11.4234 18.0188 11.6774 18.0188 11.6774" stroke="#667EEA" stroke-width="0.7"/>
<path d="M13.8017 18.0673L16.2929 18.1102L15.9106 17.5305M8.82056 16.8377L10.476 18.5624L10.6458 17.9688" stroke="#667EEA" stroke-width="0.7" stroke-linecap="round" stroke-linejoin="round"/>
<path d="M23 8.54869C23 9.14699 22.4346 9.78377 21.8236 9.78377C21.2126 9.78377 20.6047 9.16125 20.6047 8.56232C20.6047 7.9634 21.2829 7.46566 21.8933 7.46566C22.5043 7.46566 23 7.95038 23 8.54869Z" stroke="#667EEA" stroke-width="0.7" stroke-linecap="round" stroke-linejoin="round"/>
<path d="M10.8323 7.14927C10.8323 7.74757 10.2669 8.38435 9.65592 8.38435C9.04491 8.38435 8.43701 7.76183 8.43701 7.1629C8.43701 6.56398 9.11518 6.06624 9.72555 6.06624C10.3366 6.06624 10.8323 6.55096 10.8323 7.14927Z" stroke="#667EEA" stroke-width="0.7" stroke-linecap="round" stroke-linejoin="round"/>
<path d="M3.55206 8.09745C3.55206 8.09745 2.32883 6.78083 1.6993 5.97347C1.50461 5.72396 1.70568 5.26974 1.96056 5.10853C2.27308 4.90956 2.80974 4.99657 3.06143 5.26846C4.42487 6.74182 7.47772 9.81265 7.52383 9.76595L9.80561 9.80625C9.80561 9.80625 10.2718 10.2464 10.2456 10.526C10.2206 10.7947 9.70571 11.1261 9.70571 11.1261L6.78351 11.1062L5.18248 9.4467" stroke="#667EEA" stroke-width="0.7" stroke-linecap="round" stroke-linejoin="round"/>
<path d="M5.76275 10.1261L2.18091 10.2061" stroke="#667EEA" stroke-width="0.7"/>
<path d="M5.82295 8.14734L1.08005 8.28682M1.08005 9.24645L3.28116 11.4664L3.30101 15.3241C3.30101 15.3241 2.98336 15.8641 2.54084 15.8839C2.08294 15.905 1.80052 15.2953 1.82037 15.1846V12.0255L1.03971 11.4056M1.75064 12.7651L1 13.3549M1.82225 16.9868L4.31229 17.029L3.93048 16.4494" stroke="#667EEA" stroke-width="0.7" stroke-linecap="round" stroke-linejoin="round"/>
</svg>
