<svg width="24" height="24" viewBox="0 0 24 24" fill="none" xmlns="http://www.w3.org/2000/svg">
<path d="M8.66661 16.6672H15.3335C15.5987 16.6672 15.8531 16.5618 16.0406 16.3743C16.2282 16.1867 16.3335 15.9324 16.3335 15.6671V12.667H17.3336C17.5988 12.667 17.8532 12.5617 18.0407 12.3741C18.2282 12.1866 18.3336 11.9322 18.3336 11.667V8.33355C18.3336 6.65379 17.6663 5.04282 16.4785 3.85505C15.2908 2.66728 13.6798 2 12.0001 2C10.3203 2 8.70933 2.66728 7.52156 3.85505C6.33379 5.04282 5.6665 6.65379 5.6665 8.33355V11.667C5.6665 11.9322 5.77186 12.1866 5.95941 12.3741C6.14695 12.5617 6.40131 12.667 6.66654 12.667H7.66657V15.6671C7.66657 15.9324 7.77193 16.1867 7.95948 16.3743C8.14702 16.5618 8.40138 16.6672 8.66661 16.6672ZM6.66654 12.0003C6.57813 12.0003 6.49334 11.9652 6.43083 11.9027C6.36831 11.8402 6.33319 11.7554 6.33319 11.667V8.33355C6.33319 6.8306 6.93024 5.38922 7.99298 4.32647C9.05572 3.26373 10.4971 2.66669 12.0001 2.66669C13.503 2.66669 14.9444 3.26373 16.0071 4.32647C17.0699 5.38922 17.6669 6.8306 17.6669 8.33355V11.667C17.6669 11.7554 17.6318 11.8402 17.5693 11.9027C17.5068 11.9652 17.422 12.0003 17.3336 12.0003H16.0002C15.9118 12.0003 15.827 12.0355 15.7645 12.098C15.702 12.1605 15.6668 12.2453 15.6668 12.3337V15.6671C15.6668 15.7555 15.6317 15.8403 15.5692 15.9028C15.5067 15.9654 15.4219 16.0005 15.3335 16.0005H15.0002V13.6671H14.3335V16.0005H13.6668V13.6671H13.0001V16.0005H12.3334V13.6671H11.6667V16.0005H11V13.6671H10.3333V16.0005H9.66664V13.6671H8.99995V16.0005H8.66661C8.5782 16.0005 8.49341 15.9654 8.4309 15.9028C8.36838 15.8403 8.33326 15.7555 8.33326 15.6671V12.3337C8.33326 12.2453 8.29814 12.1605 8.23563 12.098C8.17311 12.0355 8.08833 12.0003 7.99992 12.0003H6.66654Z" fill="#667EEA"/>
<path d="M11.3333 8.0002C11.3333 7.60463 11.216 7.21794 10.9962 6.88903C10.7764 6.56012 10.4641 6.30376 10.0986 6.15238C9.73314 6.001 9.33099 5.96139 8.94302 6.03857C8.55504 6.11574 8.19866 6.30623 7.91895 6.58594C7.63923 6.86566 7.44875 7.22204 7.37157 7.61001C7.2944 7.99799 7.33401 8.40013 7.48539 8.7656C7.63677 9.13106 7.89312 9.44343 8.22203 9.6632C8.55094 9.88297 8.93763 10.0003 9.33321 10.0003C9.86366 10.0003 10.3724 9.78955 10.7475 9.41447C11.1226 9.03938 11.3333 8.53066 11.3333 8.0002ZM7.99983 8.0002C7.99983 7.73649 8.07803 7.47869 8.22455 7.25942C8.37106 7.04015 8.57931 6.86924 8.82295 6.76832C9.06659 6.6674 9.33469 6.641 9.59334 6.69245C9.85199 6.74389 10.0896 6.87089 10.2761 7.05736C10.4625 7.24384 10.5895 7.48142 10.641 7.74008C10.6924 7.99873 10.666 8.26682 10.5651 8.51047C10.4642 8.75411 10.2933 8.96235 10.074 9.10887C9.85472 9.25538 9.59693 9.33358 9.33321 9.33358C8.97958 9.33358 8.64043 9.1931 8.39037 8.94305C8.14031 8.69299 7.99983 8.35384 7.99983 8.0002ZM14.6667 10.0003C15.0623 10.0003 15.449 9.88297 15.7779 9.6632C16.1068 9.44343 16.3632 9.13106 16.5145 8.7656C16.6659 8.40013 16.7055 7.99799 16.6284 7.61001C16.5512 7.22204 16.3607 6.86566 16.081 6.58594C15.8013 6.30623 15.4449 6.11574 15.0569 6.03857C14.6689 5.96139 14.2668 6.001 13.9013 6.15238C13.5359 6.30376 13.2235 6.56012 13.0037 6.88903C12.784 7.21794 12.6667 7.60463 12.6667 8.0002C12.6667 8.53066 12.8774 9.03938 13.2525 9.41447C13.6275 9.78955 14.1363 10.0003 14.6667 10.0003ZM14.6667 6.66683C14.9304 6.66683 15.1882 6.74503 15.4075 6.89154C15.6268 7.03805 15.7977 7.2463 15.8986 7.48994C15.9995 7.73359 16.0259 8.00168 15.9745 8.26033C15.923 8.51898 15.796 8.75657 15.6096 8.94305C15.4231 9.12952 15.1855 9.25651 14.9269 9.30796C14.6682 9.35941 14.4001 9.33301 14.1565 9.23209C13.9128 9.13117 13.7046 8.96026 13.5581 8.74099C13.4115 8.52172 13.3333 8.26392 13.3333 8.0002C13.3333 7.64657 13.4738 7.30742 13.7239 7.05736C13.9739 6.80731 14.3131 6.66683 14.6667 6.66683ZM10.7499 11.5103C10.6892 11.6321 10.6607 11.7675 10.6671 11.9034C10.6735 12.0394 10.7146 12.1715 10.7866 12.287C10.856 12.402 10.9538 12.4973 11.0705 12.5638C11.1872 12.6303 11.319 12.6659 11.4533 12.667H12.52C12.6543 12.6659 12.7861 12.6303 12.9028 12.5638C13.0195 12.4973 13.1172 12.402 13.1867 12.287C13.2586 12.1715 13.2998 12.0394 13.3062 11.9034C13.3126 11.7675 13.2841 11.6321 13.2233 11.5103L12.6867 10.4436C12.6206 10.3109 12.5189 10.1992 12.3929 10.1211C12.2669 10.043 12.1215 10.0017 11.9733 10.0017C11.8251 10.0017 11.6797 10.043 11.5537 10.1211C11.4277 10.1992 11.326 10.3109 11.2599 10.4436L10.7499 11.5103ZM11.3466 11.807L11.88 10.7403C11.8909 10.7178 11.9079 10.6987 11.9292 10.6854C11.9504 10.6721 11.9749 10.6651 12 10.6651C12.025 10.6651 12.0496 10.6721 12.0708 10.6854C12.092 10.6987 12.1091 10.7178 12.12 10.7403L12.6533 11.807C12.6641 11.827 12.6698 11.8493 12.6698 11.872C12.6698 11.8947 12.6641 11.917 12.6533 11.937C12.6416 11.9566 12.625 11.9727 12.6051 11.9838C12.5852 11.9949 12.5628 12.0006 12.54 12.0003H11.4666C11.4438 12.0006 11.4214 11.9949 11.4015 11.9838C11.3816 11.9727 11.365 11.9566 11.3533 11.937C11.3393 11.9188 11.3301 11.8973 11.3266 11.8746C11.3231 11.8518 11.3254 11.8286 11.3333 11.807H11.3466ZM21.3336 18.5006C21.582 18.2784 21.7709 17.9977 21.8832 17.684C21.9956 17.3703 22.0277 17.0334 21.9768 16.7041C21.9259 16.3748 21.7935 16.0634 21.5916 15.7983C21.3898 15.5332 21.1249 15.3227 20.821 15.1859C20.5171 15.0492 20.1839 14.9905 19.8516 15.0153C19.5193 15.0401 19.1984 15.1475 18.9182 15.3277C18.6379 15.508 18.4071 15.7555 18.2468 16.0476C18.0865 16.3397 18.0017 16.6673 18.0002 17.0005C18.0006 17.1121 18.0095 17.2236 18.0268 17.3339H5.9731C5.99039 17.2236 5.99931 17.1121 5.99976 17.0005C6.00067 16.6657 5.91753 16.336 5.75795 16.0417C5.59837 15.7474 5.36746 15.4979 5.08639 15.316C4.80532 15.1341 4.48309 15.0256 4.14923 15.0006C3.81537 14.9756 3.48057 15.0347 3.17552 15.1727C2.87047 15.3107 2.60493 15.523 2.40325 15.7902C2.20157 16.0575 2.0702 16.371 2.02119 16.7022C1.97217 17.0334 2.00707 17.3716 2.1227 17.6858C2.23833 18 2.43097 18.2802 2.68298 18.5006C2.43097 18.721 2.23833 19.0011 2.1227 19.3153C2.00707 19.6295 1.97217 19.9677 2.02119 20.2989C2.0702 20.6301 2.20157 20.9437 2.40325 21.2109C2.60493 21.4781 2.87047 21.6905 3.17552 21.8284C3.48057 21.9664 3.81537 22.0256 4.14923 22.0005C4.48309 21.9755 4.80532 21.8671 5.08639 21.6852C5.36746 21.5033 5.59837 21.2537 5.75795 20.9594C5.91753 20.6651 6.00067 20.3354 5.99976 20.0006C5.99931 19.889 5.99039 19.7776 5.9731 19.6673H18.0268C18.0095 19.7776 18.0006 19.889 18.0002 20.0006C18.0017 20.3338 18.0865 20.6614 18.2468 20.9535C18.4071 21.2457 18.6379 21.4931 18.9182 21.6734C19.1984 21.8537 19.5193 21.9611 19.8516 21.9858C20.1839 22.0106 20.5171 21.952 20.821 21.8152C21.1249 21.6785 21.3898 21.468 21.5916 21.2028C21.7935 20.9377 21.9259 20.6263 21.9768 20.297C22.0277 19.9677 21.9956 19.6309 21.8832 19.3171C21.7709 19.0034 21.582 18.7227 21.3336 18.5006ZM20.0002 21.334C19.7787 21.3342 19.5607 21.2792 19.3657 21.174C19.1708 21.0689 19.0051 20.9168 18.8837 20.7315C18.7623 20.5462 18.6889 20.3336 18.6703 20.1129C18.6516 19.8922 18.6883 19.6703 18.7769 19.4673C18.7989 19.4167 18.8081 19.3615 18.8036 19.3065C18.799 19.2515 18.7809 19.1985 18.7508 19.1522C18.7208 19.106 18.6797 19.0679 18.6313 19.0415C18.5829 19.015 18.5287 19.0009 18.4735 19.0006H5.52641C5.47125 19.0009 5.41703 19.015 5.36863 19.0415C5.32023 19.0679 5.27916 19.106 5.24909 19.1522C5.21903 19.1985 5.20091 19.2515 5.19637 19.3065C5.19183 19.3615 5.201 19.4167 5.22307 19.4673C5.32866 19.7071 5.36124 19.9727 5.31674 20.2309C5.27224 20.4892 5.15264 20.7286 4.97288 20.9192C4.79311 21.1099 4.56116 21.2434 4.30598 21.303C4.05081 21.3626 3.78373 21.3457 3.53811 21.2543C3.29249 21.163 3.07922 21.0014 2.92494 20.7896C2.77066 20.5778 2.68221 20.3252 2.67065 20.0634C2.65908 19.8016 2.7249 19.5422 2.8599 19.3176C2.99489 19.093 3.19307 18.9132 3.42968 18.8006C3.48603 18.7733 3.53357 18.7307 3.56682 18.6776C3.60008 18.6245 3.61772 18.5632 3.61772 18.5006C3.61772 18.4379 3.60008 18.3766 3.56682 18.3235C3.53357 18.2705 3.48603 18.2278 3.42968 18.2006C3.19307 18.0879 2.99489 17.9081 2.8599 17.6835C2.7249 17.4589 2.65908 17.1995 2.67065 16.9377C2.68221 16.6759 2.77066 16.4234 2.92494 16.2116C3.07922 15.9997 3.29249 15.8381 3.53811 15.7468C3.78373 15.6555 4.05081 15.6386 4.30598 15.6982C4.56116 15.7578 4.79311 15.8912 4.97288 16.0819C5.15264 16.2725 5.27224 16.5119 5.31674 16.7702C5.36124 17.0284 5.32866 17.294 5.22307 17.5339C5.201 17.5844 5.19183 17.6397 5.19637 17.6946C5.20091 17.7496 5.21903 17.8026 5.24909 17.8489C5.27916 17.8951 5.32023 17.9332 5.36863 17.9597C5.41703 17.9861 5.47125 18.0002 5.52641 18.0005H18.4735C18.5287 18.0002 18.5829 17.9861 18.6313 17.9597C18.6797 17.9332 18.7208 17.8951 18.7508 17.8489C18.7809 17.8026 18.799 17.7496 18.8036 17.6946C18.8081 17.6397 18.7989 17.5844 18.7769 17.5339C18.6713 17.294 18.6387 17.0284 18.6832 16.7702C18.7277 16.5119 18.8473 16.2725 19.0271 16.0819C19.2068 15.8912 19.4388 15.7578 19.694 15.6982C19.9491 15.6386 20.2162 15.6555 20.4618 15.7468C20.7074 15.8381 20.9207 15.9997 21.075 16.2116C21.2293 16.4234 21.3177 16.6759 21.3293 16.9377C21.3409 17.1995 21.275 17.4589 21.14 17.6835C21.005 17.9081 20.8069 18.0879 20.5703 18.2006C20.5139 18.2278 20.4664 18.2705 20.4331 18.3235C20.3999 18.3766 20.3822 18.4379 20.3822 18.5006C20.3822 18.5632 20.3999 18.6245 20.4331 18.6776C20.4664 18.7307 20.5139 18.7733 20.5703 18.8006C20.8411 18.9317 21.0595 19.1506 21.1902 19.4216C21.3209 19.6926 21.3561 19.9998 21.29 20.2934C21.224 20.5869 21.0606 20.8495 20.8264 21.0384C20.5923 21.2273 20.3011 21.3315 20.0002 21.334Z" fill="#667EEA"/>
</svg>
