<svg width="24" height="24" viewBox="0 0 24 24" fill="none" xmlns="http://www.w3.org/2000/svg">
<g clip-path="url(#clip0_147_1183)">
<path d="M17.5726 4.8315C18.8097 4.8315 19.8126 3.82864 19.8126 2.59153C19.8126 1.35443 18.8097 0.351566 17.5726 0.351566C16.3355 0.351566 15.3326 1.35443 15.3326 2.59153C15.3326 3.82864 16.3355 4.8315 17.5726 4.8315Z" stroke="#667EEA" stroke-width="0.8" stroke-miterlimit="10" stroke-linecap="round" stroke-linejoin="round"/>
<path d="M9.0189 11.6675L12.7866 13.1155C12.95 13.1783 13.0169 13.3736 12.9262 13.5233L10.4045 17.6897C10.2889 17.8806 10.2303 18.1031 10.2507 18.3253C10.2635 18.468 10.3061 18.6064 10.3758 18.7315C10.4455 18.8566 10.5408 18.9657 10.6553 19.0517L12.446 19.7293C12.4731 19.7315 12.5002 19.7329 12.5272 19.7329C12.9425 19.7329 13.3335 19.4777 13.4858 19.064C13.6808 18.5341 13.3921 17.9469 12.864 17.7471C12.8534 17.7431 12.8437 17.7368 12.8358 17.7286C12.8279 17.7205 12.8219 17.7107 12.8182 17.6999C12.8144 17.6892 12.8131 17.6777 12.8144 17.6664C12.8156 17.6551 12.8192 17.6442 12.8251 17.6345L14.9418 14.1372C15.0835 13.9073 15.1736 13.6494 15.2062 13.3813C15.2387 13.1133 15.2128 12.8413 15.1302 12.5842C15.0477 12.326 14.91 12.0888 14.7267 11.889C14.5434 11.6893 14.3189 11.5317 14.0687 11.4273L10.1308 9.22453C9.49431 8.86846 8.69082 9.08404 8.3175 9.70903C7.88714 10.4296 8.23547 11.3664 9.0189 11.6675Z" stroke="#667EEA" stroke-width="0.8" stroke-miterlimit="10" stroke-linecap="round" stroke-linejoin="round"/>
<path d="M8.56714 9.40345C8.98447 9.02362 9.61288 8.93479 10.1308 9.22448L11.836 10.1783L14.2797 7.6527L12.8881 6.26106C12.5236 5.8966 12.4933 5.32566 12.7951 4.92558L8.56714 9.40345ZM20.6808 7.65101L19.253 7.56842L19.1459 9.60788L20.5628 9.68986C20.583 9.69099 20.6029 9.6916 20.6228 9.6916C21.1598 9.6916 21.6099 9.27234 21.6413 8.72943C21.6738 8.16641 21.2438 7.68359 20.6808 7.65101Z" stroke="#667EEA" stroke-width="0.8" stroke-miterlimit="10" stroke-linecap="round" stroke-linejoin="round"/>
<path d="M16.6718 9.43448L3.12354 14.1672M4.19267 13.0376L4.65843 14.391M12.7951 4.92558L12.795 4.92572C12.8234 4.88733 12.8545 4.85099 12.888 4.81697C13.1422 4.56286 13.4968 4.4714 13.824 4.5412C13.8589 4.25226 13.8566 3.91223 13.7122 3.69247C13.5128 3.38905 12.5892 3.3035 12.0171 3.27983C11.7251 3.26773 11.4526 3.42889 11.3244 3.69154C11.0034 4.34925 10.5377 5.64141 11.2501 6.56191L12.7951 4.92558ZM10.6553 19.0517L12.446 19.7293C12.4731 19.7315 12.5002 19.7329 12.5272 19.7329C12.9425 19.7329 13.3336 19.4777 13.4858 19.064C13.6808 18.5341 13.3922 17.9469 12.864 17.7471C12.8534 17.7431 12.8438 17.7368 12.8358 17.7286C12.8279 17.7205 12.8219 17.7107 12.8182 17.6999C12.8145 17.6892 12.8132 17.6777 12.8144 17.6664C12.8156 17.6551 12.8193 17.6442 12.8252 17.6345L13.7532 16.1012L11.8705 15.2676L10.4045 17.6898C10.2889 17.8807 10.2302 18.1032 10.2507 18.3254C10.2635 18.4681 10.3062 18.6065 10.3759 18.7316C10.4456 18.8567 10.5408 18.9658 10.6553 19.0517Z" stroke="#667EEA" stroke-width="0.8" stroke-miterlimit="10" stroke-linecap="round" stroke-linejoin="round"/>
<path d="M7.00844 19.3095L17.7964 23.3914C18.2447 23.5613 18.7201 23.6484 19.1996 23.6484C19.7299 23.6485 20.2548 23.542 20.7432 23.3352C21.2315 23.1285 21.6733 22.8257 22.0423 22.4448C22.3368 22.1412 22.3292 21.6563 22.0256 21.3618C21.7219 21.0674 21.2371 21.0749 20.9426 21.3786C20.268 22.0744 19.2457 22.302 18.3385 21.9588L2.77868 16.0714C2.38296 15.9216 1.94102 16.1211 1.79134 16.5167C1.64167 16.9122 1.84098 17.3543 2.23661 17.504L5.47374 18.7288M15.0468 5.53159L14.3321 4.81692C13.9334 4.41815 13.2868 4.41815 12.888 4.81692C12.4893 5.21569 12.4893 5.86224 12.8881 6.26101L15.2175 8.59044C15.7575 9.13091 16.4775 9.45381 17.2403 9.49762L20.5628 9.68986C20.5829 9.69103 20.6028 9.69159 20.6228 9.69159C21.1597 9.69159 21.6098 9.27234 21.6412 8.72943C21.6738 8.16641 21.2438 7.68359 20.6808 7.65101L17.3583 7.45878C17.0955 7.44368 16.8476 7.33246 16.6616 7.1463L16.2069 6.69166" stroke="#667EEA" stroke-width="0.8" stroke-miterlimit="10" stroke-linecap="round" stroke-linejoin="round"/>
</g>
<defs>
<clipPath id="clip0_147_1183">
<rect width="24" height="24" fill="white"/>
</clipPath>
</defs>
</svg>
