<svg width="24" height="24" viewBox="0 0 24 24" fill="none" xmlns="http://www.w3.org/2000/svg">
<path d="M15.4001 6.52949C16.92 6.52949 18.1649 5.28463 18.1649 3.76475C18.1649 2.24486 16.92 1 15.4001 1C13.8802 1 12.6354 2.24486 12.6354 3.76475C12.6354 5.28463 13.8658 6.52949 15.4001 6.52949ZM15.4001 2.14353C16.2976 2.14353 17.0213 2.86729 17.0213 3.76475C17.0213 4.6622 16.2976 5.38596 15.4001 5.38596C14.5027 5.38596 13.7789 4.6622 13.7789 3.76475C13.7789 2.86729 14.5027 2.14353 15.4001 2.14353ZM21.61 11.5234C21.306 11.4221 20.9875 11.5958 20.8862 11.8998L20.0322 14.6211L8.29286 19.4558L9.82722 13.2315L12.9538 9.82982C13.446 9.29424 13.6921 8.59943 13.6486 7.87568C13.6052 7.15192 13.2723 6.48607 12.7222 6.02286C12.2011 5.57413 11.5208 5.35701 10.826 5.40043C10.7681 5.40043 10.6957 5.38596 10.6378 5.38596H4.94911C3.71872 5.38596 2.71994 6.38474 2.71994 7.61512V7.71645C2.71994 8.94684 3.71872 9.94562 4.94911 9.94562H6.46899L5.94789 10.6983C5.77419 10.9155 5.65839 11.1615 5.57154 11.4221C5.55706 11.451 5.55706 11.4655 5.54259 11.4945L3.7911 18.6307C3.64635 19.2097 3.74767 19.8176 4.05165 20.3243C4.1964 20.5703 4.39905 20.7875 4.61618 20.9467L2.35806 21.8731C2.06856 21.9889 1.92381 22.3363 2.03961 22.6258C2.12646 22.8429 2.34359 22.9877 2.57519 22.9877C2.64756 22.9877 2.71994 22.9732 2.79232 22.9443L6.74402 21.3086C6.85982 21.2652 6.96115 21.2217 7.07695 21.1783L20.727 15.562C20.8862 15.5041 21.002 15.3593 21.0599 15.2001L22.0008 12.2182C22.0732 11.9432 21.9139 11.6103 21.61 11.5234ZM5.78866 20.2519L5.68734 20.2229C5.10833 20.0782 4.74646 19.4992 4.89121 18.9057L6.62822 11.8129C6.62822 11.7984 6.62822 11.7984 6.64269 11.784C6.68612 11.6392 6.7585 11.5089 6.84535 11.3931L6.8743 11.3642L8.0323 9.69954C8.14811 9.52584 8.16258 9.29424 8.06126 9.10606C7.95993 8.91789 7.77175 8.80208 7.55463 8.80208H4.94911C4.35563 8.80208 3.86347 8.30993 3.86347 7.71645V7.61512C3.86347 7.02165 4.35563 6.52949 4.94911 6.52949H10.8694C11.2747 6.50054 11.6656 6.61634 11.9695 6.87689C12.288 7.13745 12.4617 7.5138 12.4906 7.9191C12.5196 8.32441 12.3748 8.71523 12.0998 9.01921L8.87186 12.5367C8.79949 12.609 8.75606 12.6959 8.74159 12.7827L7.1059 19.4413C7.03352 19.7163 6.85982 19.9624 6.61374 20.1071C6.59927 20.1216 6.58479 20.1216 6.57032 20.1361L6.35319 20.2229C6.16502 20.2953 5.97684 20.2953 5.78866 20.2519Z" fill="#667EEA"/>
</svg>
