<svg width="24" height="24" viewBox="0 0 24 24" fill="none" xmlns="http://www.w3.org/2000/svg">
<path d="M10.5219 12.9776C10.5244 13.0278 10.5374 13.077 10.5599 13.122C10.5825 13.167 10.6142 13.2068 10.6529 13.2389C10.7722 13.3383 10.7259 13.3059 13.8934 13.7856C13.989 13.8002 14.0865 13.7762 14.1644 13.7188C14.2423 13.6615 14.2943 13.5756 14.3088 13.48C14.3234 13.3844 14.2993 13.2869 14.242 13.209C14.1847 13.1311 14.0988 13.0791 14.0032 13.0646L11.2296 12.6424C11.122 11.7843 10.6117 9.93755 9.76509 8.60871C9.71246 8.52862 9.63042 8.47245 9.53671 8.45237C9.44299 8.43229 9.34514 8.44991 9.26431 8.50141C9.18348 8.55291 9.12618 8.63416 9.10478 8.72758C9.08339 8.82101 9.09963 8.91909 9.14999 9.00064C9.88817 10.1591 10.4737 12.0148 10.5219 12.9776Z" fill="#667EEA"/>
<path d="M22.934 7.09157C22.8871 6.44926 22.3977 5.80873 21.5526 5.82468L14.1754 5.97214C14.1534 5.81083 14.1622 5.86703 13.812 4.40495C13.5632 3.36612 12.6666 2.66509 11.6719 2.60324C11.616 2.19267 11.2195 1.92369 10.8197 2.01936C10.4235 2.11427 10.1873 2.53103 10.3249 2.92587C9.46902 3.43007 8.98388 4.45952 9.23353 5.502L9.46077 6.45022L2.07896 8.55926C1.23672 8.79984 0.949453 9.57822 1.10088 10.2227C1.26557 10.9235 1.90524 11.4357 2.71826 11.2849L7.64861 10.3861C7.69573 10.3775 7.74069 10.3598 7.78093 10.3338C7.82117 10.3078 7.8559 10.2742 7.88314 10.2348C7.91039 10.1954 7.92961 10.1511 7.9397 10.1043C7.9498 10.0574 7.95057 10.0091 7.94198 9.96198C7.92462 9.86684 7.87019 9.7825 7.79065 9.72748C7.71111 9.67247 7.61298 9.65129 7.51783 9.66861L2.58643 10.5676C2.1229 10.6534 1.87894 10.3457 1.81084 10.0559C1.74365 9.76994 1.82601 9.39005 2.27929 9.26055L9.6534 7.15366C10.0089 8.05593 10.8867 8.64368 11.8428 8.64363C12.983 8.64363 13.9582 7.82469 14.1598 6.70188C21.9021 6.54713 21.5712 6.55365 21.5846 6.55365C22.0113 6.55365 22.1865 6.87045 22.2066 7.14481C22.2262 7.41193 22.1017 7.7425 21.6867 7.79515L15.8295 8.53797C15.5776 8.56997 15.4345 8.84388 15.5523 9.06892C15.6978 9.34661 16.981 11.8371 17.2424 13.7577C17.2851 14.0724 17.3153 14.3927 17.3319 14.7097C17.3922 15.8638 16.4792 16.8293 15.3259 16.8293C14.6153 16.8293 14.0457 17.4186 14.0735 18.1315L14.1154 19.2078C14.1371 19.7587 13.983 20.3022 13.6755 20.7597C12.4084 20.3686 11.2549 20.0029 10.2133 19.664L10.3714 19.056C10.4451 18.7726 10.7561 18.624 11.0227 18.744L11.8425 19.1129C11.9307 19.1526 12.0311 19.1556 12.1215 19.1213C12.2119 19.087 12.285 19.0182 12.3247 18.93C12.3644 18.8418 12.3674 18.7415 12.3331 18.6511C12.2988 18.5607 12.23 18.4876 12.1418 18.4479L11.969 18.3701L12.2838 16.6467C12.438 15.8023 13.3085 15.2938 14.1194 15.5725C14.2108 15.6039 14.311 15.5977 14.3979 15.5553C14.4848 15.5129 14.5513 15.4377 14.5828 15.3462C14.5983 15.3009 14.6048 15.253 14.6019 15.2052C14.5989 15.1574 14.5866 15.1107 14.5656 15.0676C14.5446 15.0246 14.5153 14.9861 14.4794 14.9544C14.4435 14.9227 14.4017 14.8984 14.3564 14.8828C13.1223 14.4586 11.8006 15.2336 11.5663 16.5157L11.2837 18.0629C10.6106 17.7872 9.84868 18.168 9.66557 18.8724L9.51893 19.4366C9.15946 19.3181 8.80041 19.1983 8.4418 19.0773C8.61103 18.7437 8.72364 18.3843 8.77501 18.0137C8.78235 17.9609 8.83131 17.5888 8.79334 17.3323L8.7953 17.3322C8.75514 16.508 9.58124 15.9751 10.3895 16.106L10.6148 16.1426C10.7103 16.1581 10.808 16.135 10.8864 16.0785C10.9649 16.0219 11.0177 15.9365 11.0332 15.8411C11.0486 15.7456 11.0256 15.6479 10.969 15.5694C10.9125 15.491 10.8271 15.4382 10.7316 15.4227L10.5063 15.3861C9.24739 15.1822 8.00348 16.0677 8.06688 17.3677C8.06747 17.38 8.06893 17.3921 8.07044 17.404C8.07691 17.4545 8.13945 18.1343 7.74274 18.8391C6.48114 18.4054 5.46582 18.0336 4.69219 17.7279L4.80947 17.3995C4.89941 17.1477 5.17874 17.0214 5.42667 17.1184L6.48761 17.5335C6.57768 17.5687 6.67804 17.5667 6.76664 17.528C6.85524 17.4892 6.92482 17.4168 6.96008 17.3268C6.99531 17.2367 6.99332 17.1364 6.95455 17.0478C6.91579 16.9592 6.84342 16.8896 6.75336 16.8543L6.43665 16.7304L7.07176 15.0907C7.35187 14.3676 8.00038 13.8352 8.76421 13.7013C8.81138 13.693 8.85646 13.6755 8.89688 13.6498C8.93729 13.6241 8.97225 13.5907 8.99975 13.5515C9.02726 13.5123 9.04677 13.4681 9.05718 13.4213C9.06759 13.3746 9.06868 13.3262 9.06041 13.2791C9.05216 13.2319 9.03469 13.1868 9.00901 13.1464C8.98332 13.1059 8.94992 13.071 8.91071 13.0435C8.8715 13.0159 8.82725 12.9964 8.78049 12.986C8.73374 12.9756 8.68539 12.9746 8.63822 12.9829C7.62432 13.1606 6.76343 13.8674 6.39166 14.8273L5.75746 16.4646L5.69241 16.4392C5.06036 16.192 4.35091 16.5152 4.12263 17.1542L4.01633 17.4518C3.40538 17.1923 3.02941 16.9988 2.88541 16.876C2.32957 16.4019 2.16675 15.84 2.38769 15.1584C2.40245 15.1128 2.4081 15.0648 2.40431 15.0171C2.40051 14.9694 2.38736 14.9228 2.36558 14.8802C2.34381 14.8375 2.31385 14.7996 2.27741 14.7685C2.24097 14.7374 2.19877 14.7138 2.15321 14.6991C2.10765 14.6843 2.05963 14.6787 2.0119 14.6824C1.96416 14.6862 1.91763 14.6994 1.87498 14.7212C1.83232 14.7429 1.79438 14.7729 1.7633 14.8093C1.73223 14.8458 1.70863 14.888 1.69387 14.9335C1.38081 15.8995 1.62914 16.763 2.41203 17.4309C2.64651 17.6309 3.23011 17.9154 4.05922 18.2555C4.07495 18.2639 4.09126 18.2716 4.10859 18.2778C4.32871 18.3563 6.90871 19.4707 14.8161 21.8717C16.0233 22.2382 17.3086 21.8013 18.0179 20.7946C18.0455 20.7554 18.0651 20.7112 18.0756 20.6645C18.0861 20.6178 18.0873 20.5695 18.0791 20.5223C18.071 20.4751 18.0536 20.43 18.028 20.3895C18.0024 20.3491 17.969 20.314 17.9299 20.2865C17.8508 20.2308 17.7528 20.2088 17.6576 20.2253C17.5623 20.2418 17.4774 20.2955 17.4217 20.3745C16.8919 21.1265 15.9298 21.4479 15.028 21.1739C14.8172 21.1098 14.6065 21.0456 14.3959 20.9811C14.7132 20.4353 14.8687 19.8104 14.8442 19.1794L14.8022 18.1031C14.7906 17.805 15.0287 17.5587 15.3258 17.5587C16.8984 17.5587 18.1422 16.2424 18.0601 14.6716C18.0423 14.3331 18.0106 13.9954 17.9649 13.6594C17.7456 12.048 16.8681 10.0934 16.4324 9.19673L21.7784 8.51873C22.5981 8.41471 22.9802 7.72208 22.934 7.09157ZM12.2215 7.86927C11.3502 8.0784 10.4716 7.53911 10.2628 6.66788L9.94276 5.33207C9.73358 4.45888 10.2709 3.58282 11.1442 3.37345C11.9479 3.18082 12.7486 3.62111 13.0363 4.36192L11.4741 4.7363C11.4275 4.74745 11.3836 4.76767 11.3448 4.79581C11.3061 4.82394 11.2732 4.85943 11.2482 4.90025C11.2232 4.94107 11.2064 4.98643 11.1989 5.03372C11.1914 5.08102 11.1933 5.12933 11.2045 5.1759C11.2156 5.22247 11.2358 5.26639 11.264 5.30515C11.2921 5.34391 11.3276 5.37675 11.3684 5.40179C11.4092 5.42682 11.4546 5.44357 11.5019 5.45108C11.5492 5.45858 11.5975 5.4567 11.6441 5.44552L13.2209 5.06769L13.4228 5.9107C13.6316 6.78188 13.0927 7.66049 12.2215 7.86927Z" fill="#667EEA"/>
</svg>
