<svg width="24" height="24" viewBox="0 0 24 24" fill="none" xmlns="http://www.w3.org/2000/svg">
<path d="M22.9697 11.3923C22.9697 11.3895 22.9725 11.3868 22.9725 11.384C22.9739 11.3716 22.967 11.3606 22.9684 11.3483C22.6411 5.79462 18.1834 1.3465 12.6256 1.03162C12.6242 1.03162 12.6215 1.03025 12.6201 1.03025H12.6187C12.4125 1.01925 12.209 1 12 1C5.93488 1 1 5.93488 1 12C1 12.2049 1.01925 12.4056 1.03025 12.6078C1.03025 12.6105 1.02887 12.6132 1.02887 12.616C1.0275 12.6284 1.033 12.6394 1.033 12.6517C1.36025 18.1834 5.78363 22.6191 11.3098 22.9656C11.3194 22.9656 11.3276 22.9711 11.3372 22.9711C11.3524 22.9711 11.3661 22.9711 11.3799 22.9697H11.3813C11.5875 22.9807 11.791 23 12 23C18.0651 23 23 18.0651 23 12C23 11.7951 22.9807 11.5944 22.9697 11.3923ZM12 2.375C12 3.4585 11.8116 4.498 11.4775 5.47012L10.933 5.19788C10.5948 5.03013 10.1809 5.16625 10.0104 5.5045C9.84125 5.84412 9.97738 6.258 10.317 6.42712L10.9303 6.73375C10.5728 7.42675 10.1424 8.07713 9.63363 8.6615L9.04925 8.07575C8.78113 7.80762 8.34525 7.80762 8.07712 8.07575C7.809 8.34387 7.809 8.77975 8.07712 9.04788L8.65325 9.624C8.0675 10.1314 7.42537 10.5728 6.73238 10.9289L6.42712 10.317C6.25663 9.97738 5.8455 9.84125 5.5045 10.0104C5.16488 10.1795 5.02875 10.5934 5.19788 10.933L5.466 11.4679C4.4925 11.8034 3.453 11.9808 2.37638 11.9808C2.38738 6.6815 6.69938 2.375 12 2.375ZM11.626 17.0683L10.9688 16.6901C10.6456 16.5017 10.2221 16.6131 10.0296 16.9417C9.8385 17.2704 9.95125 17.6911 10.2812 17.8822L11.1186 18.3663C10.8079 19.3631 10.6415 20.4219 10.6305 21.5177C6.42025 20.9141 3.08862 17.5811 2.48362 13.3709C3.74863 13.3585 4.95862 13.1248 6.08887 12.7178L6.57288 13.6844C6.63031 13.7981 6.71818 13.8936 6.82669 13.9604C6.9352 14.0272 7.0601 14.0625 7.1875 14.0625C7.29063 14.0625 7.39512 14.0391 7.4955 13.9896C7.83512 13.8205 7.97125 13.4066 7.80212 13.067L7.35387 12.1705C8.183 11.747 8.94887 11.2231 9.6405 10.6126L10.1396 11.1117C10.273 11.2451 10.449 11.3125 10.625 11.3125C10.801 11.3125 10.977 11.2451 11.1117 11.1117C11.3799 10.8436 11.3799 10.4078 11.1117 10.1396L10.6126 9.6405C11.2231 8.94887 11.7484 8.183 12.1705 7.35387L13.067 7.80212C13.1674 7.85162 13.2719 7.875 13.375 7.875C13.5026 7.87501 13.6276 7.83952 13.7362 7.77249C13.8447 7.70547 13.9325 7.60956 13.9896 7.4955C14.1587 7.15588 14.0226 6.742 13.683 6.57288L12.7164 6.08887C13.1234 4.96 13.3571 3.74863 13.3695 2.48362C17.5798 3.08862 20.9114 6.42025 21.5164 10.6305C20.4686 10.6415 19.4566 10.7996 18.4982 11.0843L18.1146 10.317C17.9441 9.976 17.533 9.84125 17.192 10.009C16.8524 10.1795 16.7149 10.592 16.884 10.9316L17.1989 11.5614C16.1566 12.022 15.2024 12.6421 14.3595 13.3874L13.8617 12.8883C13.5936 12.6201 13.1578 12.6201 12.8896 12.8883C12.6215 13.1564 12.6215 13.5922 12.8896 13.8604L13.3888 14.3595C12.671 15.1707 12.077 16.0835 11.626 17.0683ZM12 21.625C12 20.7436 12.1334 19.8939 12.3589 19.0812L13.0312 19.4704C13.1385 19.5336 13.2581 19.5625 13.375 19.5625C13.6115 19.5625 13.8425 19.4401 13.9704 19.2188C14.1615 18.8901 14.0487 18.4694 13.7188 18.2782L12.8209 17.7585C13.2141 16.873 13.738 16.059 14.3664 15.3371L14.9521 15.9229C15.0855 16.0576 15.2615 16.125 15.4375 16.125C15.6135 16.125 15.7895 16.0576 15.9242 15.9242C16.1924 15.6561 16.1924 15.2203 15.9242 14.9521L15.3468 14.3746C16.0886 13.7305 16.9241 13.2029 17.8245 12.8099L18.2617 13.683C18.3814 13.9236 18.6234 14.0625 18.875 14.0625C18.9781 14.0625 19.0826 14.0391 19.183 13.9896C19.5226 13.8191 19.6601 13.4066 19.491 13.067L19.128 12.3424C19.9269 12.1251 20.7642 12.0165 21.625 12.0179C21.614 17.3171 17.3006 21.625 12 21.625Z" fill="#667EEA"/>
</svg>
