<svg width="24" height="24" viewBox="0 0 24 24" fill="none" xmlns="http://www.w3.org/2000/svg">
<path d="M18.3617 3.38376C18.1883 3.50842 18.0783 3.70275 18.0615 3.91577C18.0567 3.9924 18.0637 4.06903 18.0823 4.14346C17.9149 4.34614 17.7802 4.57377 17.6831 4.81809C17.4521 4.7251 17.206 4.67539 16.9571 4.67143C16.8846 4.67513 16.8123 4.6613 16.7463 4.6311L10.3329 1.16298C10.1729 1.07654 9.99706 1.02316 9.81597 1.00603C9.63488 0.988898 9.4522 1.00836 9.27878 1.06325C8.95805 1.15956 8.68559 1.37358 8.51606 1.66238C8.34653 1.95119 8.29247 2.29341 8.36473 2.6204C8.13919 2.72842 7.94897 2.89828 7.81623 3.11022C7.68348 3.32215 7.61368 3.56744 7.61494 3.81751C7.61494 4.31542 7.88956 4.77262 8.32917 5.00581L11.8185 6.87058L9.26522 8.04018C8.98916 8.16625 8.74887 8.35911 8.56604 8.60134C8.38322 8.84357 8.26363 9.12754 8.21807 9.42758L7.7 12.7905C7.68669 12.877 7.64285 12.9559 7.57641 13.013C7.50997 13.07 7.42531 13.1014 7.33775 13.1014H3.2005C3.07758 13.1017 2.95671 13.133 2.84901 13.1922C2.74131 13.2515 2.65024 13.3369 2.58417 13.4405L2.0617 13.1795C1.94985 13.1236 1.82556 13.0972 1.70065 13.1029C1.57574 13.1086 1.45435 13.1461 1.34802 13.2119C1.2417 13.2777 1.15396 13.3696 1.09316 13.4788C1.03236 13.5881 1.0005 13.7111 1.00062 13.8361V17.4997C0.999941 17.6266 1.03252 17.7514 1.09511 17.8618C1.1577 17.9722 1.24812 18.0643 1.35737 18.1289C1.46575 18.1946 1.58945 18.2308 1.71617 18.2339C1.84289 18.237 1.96821 18.2068 2.07966 18.1465L2.55631 17.8898C2.65341 18.1226 2.82423 18.317 3.04254 18.4434C3.26084 18.5697 3.51457 18.6209 3.76478 18.5891C4.01498 18.5573 4.24783 18.4442 4.42759 18.2673C4.60735 18.0904 4.72408 17.8593 4.75986 17.6097L4.98498 16.0331H5.76704C5.89518 16.0327 6.02097 15.9986 6.13179 15.9343C6.24261 15.8699 6.33455 15.7776 6.3984 15.6664H8.70828C8.99521 15.6667 9.27591 15.5827 9.5156 15.425C9.7553 15.2673 9.94347 15.0428 10.0568 14.7792L10.6185 13.4688H10.9001V20.7995C10.9004 20.9224 10.9316 21.0432 10.9908 21.1509C11.05 21.2586 11.1353 21.3497 11.2389 21.4158L10.9778 21.9379C10.9219 22.0497 10.8955 22.174 10.901 22.2988C10.9066 22.4237 10.944 22.5451 11.0097 22.6514C11.0754 22.7578 11.1672 22.8456 11.2763 22.9065C11.3855 22.9674 11.5084 22.9994 11.6334 22.9994H15.2999C15.4265 22.9993 15.551 22.9665 15.6612 22.904C15.7714 22.8416 15.8636 22.7516 15.9287 22.6429C15.9937 22.5343 16.0296 22.4106 16.0327 22.284C16.0358 22.1573 16.006 22.0321 15.9463 21.9203L15.6896 21.4437C15.9225 21.3467 16.117 21.176 16.2434 20.9577C16.3699 20.7395 16.4211 20.4857 16.3893 20.2355C16.3576 19.9853 16.2445 19.7524 16.0676 19.5727C15.8906 19.3929 15.6596 19.2762 15.4099 19.2405L13.8333 19.0158V18.233C13.8329 18.1048 13.7988 17.979 13.7345 17.8682C13.6701 17.7574 13.5777 17.6655 13.4666 17.6016V12.7358C13.4659 12.4255 13.3862 12.1204 13.2351 11.8494C13.084 11.5783 12.8664 11.3502 12.6028 11.1864L17.8459 8.50986C18.1425 8.35855 18.3975 8.13687 18.5887 7.86419C19.0466 8.18899 19.5986 8.35418 20.1597 8.3343C20.7207 8.31443 21.2597 8.11059 21.6935 7.7542C21.7485 7.76813 21.8057 7.77547 21.8625 7.77583C21.8826 7.77583 21.9032 7.77583 21.9237 7.77363C22.0288 7.76524 22.1309 7.73403 22.2227 7.68216C22.3145 7.6303 22.3939 7.55904 22.4554 7.47335C22.8585 6.90815 23.0481 6.21827 22.9905 5.52641C22.9328 4.83456 22.6316 4.18558 22.1405 3.69491C21.6493 3.20424 21.0001 2.90369 20.3081 2.84671C19.6162 2.78974 18.9265 2.98004 18.3617 3.38376ZM8.67455 4.35868C8.57612 4.30664 8.49373 4.22876 8.43623 4.13341C8.37874 4.03806 8.34832 3.92885 8.34823 3.81751C8.34803 3.7016 8.38108 3.58807 8.44347 3.4904C8.50586 3.39272 8.59497 3.31499 8.70021 3.26644C8.80104 3.37496 8.91874 3.46626 9.04889 3.53666L13.7082 6.00419L12.6556 6.4867L8.67455 4.35868ZM1.73392 17.4997V13.8361L2.46721 14.2028V17.1077L1.73392 17.4997ZM4.98498 15.2998C4.80865 15.3005 4.63842 15.3644 4.50521 15.4799C4.372 15.5954 4.28464 15.7549 4.25902 15.9293L4.03353 17.5059C4.01829 17.6103 3.96419 17.7051 3.88206 17.7714C3.79992 17.8376 3.6958 17.8704 3.59052 17.8632C3.48525 17.856 3.38658 17.8093 3.31427 17.7324C3.24196 17.6556 3.20133 17.5542 3.2005 17.4487V13.8354H5.76704V15.302L4.98498 15.2998ZM11.6334 22.2661L12 21.5328H14.9065L15.2999 22.2661H11.6334ZM13.7291 19.7417L15.3057 19.9669C15.4097 19.9826 15.504 20.037 15.5698 20.1191C15.6355 20.2013 15.6679 20.3051 15.6606 20.4101C15.6532 20.515 15.6067 20.6133 15.5301 20.6855C15.4535 20.7577 15.3526 20.7984 15.2474 20.7995H11.6334V18.233H13.1V19.0147C13.1004 19.1912 13.1642 19.3617 13.2797 19.4951C13.3953 19.6286 13.5545 19.7161 13.7291 19.7417ZM12.7333 17.4997H11.6334V13.4666C11.6334 13.2721 11.5561 13.0856 11.4186 12.948C11.2811 12.8105 11.0946 12.7333 10.9001 12.7333H9.80016C9.70291 12.7333 9.60966 12.7719 9.5409 12.8407C9.47214 12.9094 9.43351 13.0027 9.43351 13.0999C9.43351 13.1972 9.47214 13.2904 9.5409 13.3592C9.60966 13.4279 9.70291 13.4666 9.80016 13.4666H9.81995L9.38218 14.4906C9.32562 14.6225 9.23158 14.735 9.11172 14.814C8.99187 14.893 8.85146 14.935 8.70791 14.935H6.50033V13.835H7.33775C7.60077 13.8363 7.85542 13.7427 8.05507 13.5714C8.25471 13.4002 8.38599 13.1628 8.42486 12.9027L8.94257 9.5394C8.96992 9.35943 9.04171 9.18912 9.15144 9.04386C9.26116 8.89861 9.40536 8.783 9.571 8.70748L9.648 8.67082L10.9859 10.9015H10.5335C10.4362 10.9015 10.343 10.9401 10.2742 11.0089C10.2054 11.0776 10.1668 11.1709 10.1668 11.2681C10.1668 11.3654 10.2054 11.4586 10.2742 11.5274C10.343 11.5962 10.4362 11.6348 10.5335 11.6348H11.6334C11.7778 11.6348 11.9209 11.6632 12.0543 11.7185C12.1878 11.7738 12.309 11.8548 12.4112 11.957C12.5133 12.0591 12.5943 12.1804 12.6496 12.3138C12.7049 12.4473 12.7333 12.5903 12.7333 12.7347V17.4997ZM17.5126 7.85686L11.7716 10.7871L10.3186 8.36503L15.1627 6.14425C15.2065 6.12417 15.2459 6.09567 15.2786 6.06037C15.3114 6.02507 15.3369 5.98367 15.3536 5.93852C15.3704 5.89338 15.3781 5.84538 15.3763 5.79726C15.3745 5.74914 15.3632 5.70184 15.3431 5.65808C15.3231 5.61431 15.2945 5.57493 15.2592 5.54217C15.224 5.50942 15.1825 5.48394 15.1374 5.46719C15.0923 5.45044 15.0443 5.44275 14.9961 5.44455C14.948 5.44635 14.9007 5.45761 14.857 5.47769L14.5486 5.61921L9.39318 2.88879C9.25121 2.81361 9.14445 2.68567 9.0959 2.53253C9.04735 2.3794 9.06088 2.21332 9.13359 2.07007C9.17082 1.99677 9.22249 1.93176 9.2855 1.87896C9.34852 1.82616 9.42156 1.78665 9.50024 1.76282C9.58029 1.73723 9.6647 1.72811 9.74837 1.73598C9.83205 1.74386 9.91327 1.76858 9.98715 1.80865L16.3998 5.27786C16.5707 5.36513 16.7606 5.40876 16.9523 5.40472C17.1462 5.4067 17.3371 5.45258 17.5107 5.53892C17.4506 6.19082 17.6435 6.84089 18.0494 7.35455C17.9222 7.56992 17.7359 7.74426 17.5126 7.85686ZM18.233 5.77137C18.2319 5.41206 18.3375 5.06008 18.537 4.76052L21.0771 7.30029C20.8009 7.48289 20.4803 7.58725 20.1495 7.60228C19.8186 7.6173 19.4899 7.54244 19.1982 7.38564C18.9066 7.22883 18.6628 6.99595 18.4929 6.71172C18.3229 6.42749 18.2331 6.10253 18.233 5.77137ZM21.8573 7.04327L18.7936 3.9803H18.7885C19.2116 3.67806 19.7281 3.5356 20.2463 3.57821C20.7645 3.62081 21.2508 3.84574 21.6189 4.21303C21.9869 4.58031 22.2128 5.06617 22.2565 5.58428C22.3001 6.10239 22.1587 6.61921 21.8573 7.0429V7.04327Z" fill="#667EEA"/>
</svg>
