<svg width="24" height="24" viewBox="0 0 24 24" fill="none" xmlns="http://www.w3.org/2000/svg">
<path d="M20.6174 20.9152L20.546 20.9139C20.0703 20.893 19.6201 20.693 19.2859 20.3539L17.425 18.493C17.1283 18.1967 16.68 18.1271 16.3352 18.3254C14.2807 19.5026 11.7802 19.738 9.96465 18.9243C9.89692 18.894 9.83758 18.8476 9.79174 18.7893C9.7459 18.7309 9.71494 18.6623 9.70151 18.5893C9.68808 18.5163 9.6926 18.4411 9.71467 18.3703C9.73674 18.2994 9.7757 18.235 9.8282 18.1825L20.2571 7.75369C20.3095 7.7012 20.374 7.66227 20.4449 7.64023C20.5158 7.61819 20.5909 7.61372 20.6639 7.62719C20.7369 7.64066 20.8055 7.67168 20.8639 7.71757C20.9222 7.76345 20.9685 7.82283 20.9988 7.8906C21.812 9.70566 21.5767 12.2062 20.3995 14.2612C20.2021 14.6064 20.2713 15.0543 20.567 15.3501L22.4284 17.2118C22.7673 17.5461 22.9672 17.9963 22.9879 18.4719C23.0071 18.9555 22.8345 19.4051 22.5021 19.7375L21.8116 20.4276C21.6549 20.584 21.4687 20.7077 21.2637 20.7914C21.0588 20.8751 20.8388 20.9172 20.6174 20.9152ZM16.7602 17.2979C17.2529 17.2993 17.7249 17.4963 18.0725 17.8455L19.9333 19.7064C20.1119 19.8854 20.3427 19.9894 20.5817 19.9985C20.807 20.0045 21.0144 19.9298 21.1641 19.7801L21.8542 19.0901C22.0044 18.9404 22.0817 18.7329 22.073 18.5076C22.0609 18.2624 21.9566 18.0308 21.7809 17.8593L19.9196 15.998C19.3317 15.4105 19.2021 14.5089 19.605 13.8061C20.4887 12.263 20.7754 10.3865 20.3903 8.91581L10.9899 18.3163C12.4615 18.7013 14.3379 18.4147 15.8801 17.5305C16.1481 17.3776 16.4516 17.2971 16.7602 17.2979Z" fill="#667EEA"/>
<path d="M10.1515 18.9642C10.0522 18.9642 9.95556 18.9319 9.87628 18.8721C8.78376 18.0479 7.77641 17.1615 7.26311 16.6477C3.68701 13.0721 0.712563 8.73586 5.76124 3.68718C10.8099 -1.3615 15.1466 1.61295 18.7222 5.18905C19.2355 5.70189 20.1224 6.70924 20.9462 7.80176C21.0128 7.88994 21.0453 7.99924 21.0376 8.10948C21.0299 8.21972 20.9827 8.32347 20.9045 8.4016L10.4752 18.8295C10.4327 18.8722 10.3821 18.906 10.3265 18.929C10.2709 18.952 10.2112 18.9638 10.151 18.9637L10.1515 18.9642ZM11.2495 1.94446C9.72426 1.94446 8.11707 2.62671 6.40915 4.33463C1.94245 8.80088 4.49106 12.5812 7.91057 16.0003C8.33778 16.4275 9.18166 17.1761 10.1116 17.8991L19.9732 8.03758C19.2502 7.10715 18.502 6.26326 18.0748 5.83605C15.9625 3.72427 13.7134 1.94446 11.2495 1.94446Z" fill="#667EEA"/>
<path d="M17.9136 18.7398C17.8535 18.7399 17.7939 18.728 17.7383 18.705C17.6828 18.682 17.6323 18.6482 17.5899 18.6056L13.9638 14.9792C13.878 14.8933 13.8298 14.7769 13.8298 14.6554C13.8298 14.534 13.878 14.4176 13.9638 14.3317L16.4062 11.8893C16.4921 11.8035 16.6085 11.7553 16.7299 11.7553C16.8514 11.7553 16.9678 11.8035 17.0537 11.8893L20.6801 15.5158C20.7227 15.5584 20.7564 15.6088 20.7794 15.6644C20.8024 15.72 20.8142 15.7796 20.8142 15.8397C20.8142 15.8998 20.8023 15.9594 20.7792 16.0149C20.7562 16.0705 20.7225 16.121 20.6799 16.1635C20.6374 16.206 20.5869 16.2397 20.5313 16.2627C20.4757 16.2857 20.4162 16.2975 20.356 16.2975C20.2959 16.2975 20.2363 16.2856 20.1808 16.2626C20.1252 16.2396 20.0747 16.2058 20.0322 16.1633L16.7299 12.8605L14.935 14.6554L18.2373 17.9582C18.3013 18.0222 18.3449 18.1038 18.3626 18.1926C18.3802 18.2814 18.3712 18.3735 18.3365 18.4571C18.3019 18.5408 18.2432 18.6123 18.1679 18.6626C18.0926 18.7129 18.0041 18.7398 17.9136 18.7398ZM3.37655 22.7472C2.74938 22.7465 2.14809 22.4971 1.70457 22.0536C1.26104 21.6102 1.01149 21.009 1.01064 20.3818C1.01137 19.7545 1.26087 19.1532 1.7044 18.7096C2.14794 18.2661 2.7493 18.0166 3.37655 18.0159C4.00365 18.0167 4.60482 18.2662 5.04824 18.7096C5.49167 19.1531 5.74115 19.7542 5.742 20.3813C5.74128 21.0085 5.49184 21.6098 5.0484 22.0533C4.60496 22.4968 4.00373 22.7464 3.37655 22.7472ZM3.37655 18.9317C2.57708 18.9317 1.92642 19.5819 1.92642 20.3818C1.92642 21.1817 2.57662 21.8315 3.37655 21.8315C4.17648 21.8315 4.82623 21.1813 4.82623 20.3818C4.82623 19.5823 4.17602 18.9317 3.37655 18.9317Z" fill="#667EEA"/>
</svg>
