<svg width="24" height="24" viewBox="0 0 24 24" fill="none" xmlns="http://www.w3.org/2000/svg">
<path fill-rule="evenodd" clip-rule="evenodd" d="M13.7878 2.20354C14.1493 2.38528 14.4607 2.71106 14.683 3.10628C14.3419 3.37117 13.9478 3.55036 13.5545 3.59781C13.4972 3.44035 13.468 3.27407 13.4682 3.10654C13.4682 2.7647 13.5881 2.4507 13.7878 2.20354ZM15.5947 1.84149C15.3843 1.72629 15.1481 1.6661 14.9082 1.6665C14.7219 1.66658 14.5373 1.70282 14.3648 1.77322C14.6782 1.9898 14.9516 2.28384 15.1688 2.62482C15.3564 2.38807 15.5044 2.1212 15.5947 1.84149ZM15.7047 4.30561C15.6889 3.95143 15.6138 3.60004 15.4898 3.26943C15.7512 2.99332 15.968 2.67424 16.1201 2.33017C16.2692 2.56161 16.3484 2.83115 16.3483 3.10648C16.3483 3.60649 16.0922 4.04748 15.7047 4.30561ZM13.9678 4.19604C14.3093 4.107 14.6411 3.94889 14.9438 3.7385C15.0159 3.99998 15.0501 4.27188 15.0393 4.54042C14.9961 4.54433 14.9524 4.54662 14.9082 4.54662C14.5489 4.54662 14.2202 4.4143 13.9678 4.19604ZM14.9082 5.21343C16.0698 5.21343 17.0149 4.26853 17.0149 3.10659C17.0149 1.9449 16.0698 1 14.9082 1C13.7466 1 12.8015 1.94485 12.8015 3.10659C12.8014 4.26853 13.7466 5.21343 14.9082 5.21343ZM18.3081 5.38755C16.9141 7.06412 15.3625 8.47606 13.6923 9.58975C13.5284 9.32182 13.3308 9.07293 13.1024 8.84629C13.108 8.8435 13.1137 8.84096 13.1192 8.83842C13.3337 8.73952 13.5241 8.66567 13.7081 8.59461C14.201 8.40307 14.6266 8.2382 15.1581 7.73515C15.6391 7.2804 15.9689 6.75743 16.1659 6.13639L16.5826 6.26083C16.6294 6.27471 16.6786 6.27819 16.7269 6.27101C16.7751 6.26383 16.8212 6.24618 16.8619 6.21928L18.2368 5.30841C18.2422 5.3045 18.2592 5.29322 18.2923 5.3303C18.3252 5.36702 18.3123 5.38252 18.3081 5.38755ZM13.4835 16.1657C13.4895 16.4401 13.3986 16.6684 13.2056 16.8637L9.8251 20.2814L9.53238 19.5446L11.6311 16.7965C12.3724 16.2424 13.0044 15.5822 13.5155 14.693C13.5115 14.8655 13.5058 15.038 13.5002 15.2051C13.4885 15.5579 13.4774 15.8907 13.4835 16.1657ZM9.25393 22.1175C9.24265 22.2402 9.15432 22.3228 9.02333 22.3326C8.96445 22.3375 8.90591 22.32 8.85931 22.2837C8.81272 22.2474 8.78148 22.1948 8.7718 22.1366L8.46085 20.3227C8.44627 20.237 8.48782 20.1586 8.56685 20.1227L8.97203 19.9396L9.36415 20.9271L9.25393 22.1175ZM8.97675 16.8622C9.17891 17.1749 9.57748 17.2759 9.90408 17.0979C11.724 16.1045 12.6866 15.1189 13.3388 13.5459C12.6785 13.3608 12.1423 13.3077 10.9687 13.4352C10.5982 13.8897 10.3911 14.388 10.093 15.5067C10.0787 15.5604 10.0511 15.6097 10.0129 15.6501C9.97465 15.6905 9.92693 15.7206 9.87406 15.7379C9.82118 15.7551 9.76483 15.7588 9.71015 15.7486C9.65547 15.7385 9.6042 15.7148 9.56102 15.6798L8.36993 14.7133L7.78713 15.0223L8.97675 16.8622ZM5.80092 14.6183C5.76374 14.6208 5.73576 14.6045 5.72052 14.5703C5.67912 14.4779 5.68024 14.4756 5.69253 14.4452C5.70274 14.4208 5.71381 14.4102 5.7386 14.4009L7.60854 13.6854C7.62976 13.677 7.65237 13.6728 7.67518 13.6728C7.74365 13.6728 7.80836 13.711 7.84051 13.7764L8.02098 14.1435L7.32979 14.5098C7.30201 14.5047 7.27366 14.5033 7.24552 14.5058L5.80092 14.6183ZM10.2214 11.2436C10.2755 11.3273 10.3305 11.4105 10.3864 11.493C10.643 11.8753 10.9337 12.3081 11.0239 12.7587C12.154 12.6432 12.7465 12.6921 13.5003 12.8991L13.6395 11.8107C13.6191 11.1571 13.4748 10.5768 13.2103 10.0867C13.0447 9.78002 12.8273 9.49913 12.564 9.25223C12.3103 9.01431 12.1678 8.9138 12.0004 8.87164C11.7105 9.10335 11.3432 9.24237 10.944 9.24237C10.8027 9.24237 10.6654 9.22495 10.5342 9.19209C10.4393 9.25472 10.3425 9.3272 10.2399 9.41289C10.4161 10.108 10.2806 10.6521 10.0892 11.0765C10.1388 11.1275 10.1832 11.1835 10.2214 11.2436ZM7.74477 10.7633C7.50691 10.7414 7.32278 10.5602 7.29733 10.3223L6.98531 7.41017C6.98174 7.37758 6.97342 7.34568 6.96063 7.31549L6.80363 6.94613C6.82208 6.47796 6.86873 6.01132 6.94331 5.54876C6.97074 5.37855 7.00243 5.20525 7.03743 5.03418C7.03981 5.02209 7.04174 5.01285 7.06424 5.01117C7.0867 5.00949 7.09005 5.01904 7.09396 5.03027C7.15145 5.19244 7.20593 5.35567 7.25736 5.51986C7.40477 5.98981 7.5268 6.46734 7.62292 6.95039L7.59945 7.36131C7.59747 7.39727 7.60123 7.43293 7.61052 7.46747L8.15462 9.47577C8.17477 9.54988 8.21985 9.61479 8.28226 9.65956C8.34467 9.70433 8.4206 9.72622 8.49727 9.72156L9.61121 9.65161C9.71086 10.112 9.62832 10.4715 9.4893 10.785C9.42723 10.778 9.36465 10.7767 9.30233 10.781C8.78351 10.8169 8.26264 10.8109 7.74477 10.7633ZM10.9439 6.51947C11.5108 6.51947 11.972 6.98097 11.972 7.54746C11.972 8.11457 11.5108 8.57546 10.9439 8.57546C10.377 8.57546 9.91586 8.11457 9.91586 7.54746C9.91586 6.98097 10.377 6.51947 10.9439 6.51947ZM18.7886 4.88536C18.5426 4.61123 18.1643 4.55642 17.8686 4.75248L16.6236 5.57741L16.335 5.49116C15.9987 5.39146 15.6404 5.58218 15.5361 5.91726C15.3747 6.4352 15.1012 6.87172 14.6999 7.25114C14.2635 7.66403 13.9295 7.79325 13.4669 7.97301C13.2826 8.04437 13.0736 8.12523 12.8406 8.23281C12.7378 8.28032 12.6357 8.32919 12.5342 8.3794C12.5054 8.36223 12.476 8.34602 12.4462 8.33079C12.5728 8.08911 12.6389 7.82028 12.6386 7.54741C12.6386 6.61323 11.8784 5.85286 10.9439 5.85286C10.0095 5.85286 9.2491 6.61318 9.2491 7.54741C9.2491 8.07378 9.49027 8.54484 9.86781 8.85604C9.81926 8.89521 9.77146 8.9353 9.72442 8.97627L8.727 9.03864L8.26814 7.34521L8.29095 6.94608C8.29253 6.91833 8.29061 6.8905 8.28526 6.86323C8.18315 6.34212 8.05236 5.82704 7.89349 5.32035C7.83957 5.14836 7.78254 4.97736 7.72242 4.80744C7.61687 4.50969 7.3337 4.32379 7.01792 4.34624C6.70214 4.36788 6.44752 4.5906 6.38433 4.90039C6.34735 5.08071 6.31398 5.26356 6.28513 5.44306C6.20168 5.96267 6.15109 6.48569 6.13484 6.99799C6.13331 7.04634 6.14229 7.09444 6.16115 7.13899L6.3277 7.5305L6.63449 10.3932C6.69427 10.9504 7.12581 11.3754 7.68382 11.4271C8.23752 11.4779 8.7944 11.4843 9.34911 11.4462C9.41195 11.4417 9.47015 11.4518 9.52181 11.4768L9.52333 11.4777C9.57789 11.5038 9.62365 11.5462 9.65961 11.6021C9.71636 11.6903 9.77415 11.7779 9.83297 11.8648C10.0551 12.1953 10.307 12.57 10.3705 12.8911L10.4062 13.0714C10.027 13.5554 9.81163 14.0657 9.58576 14.8412L8.78877 14.1946L8.7619 14.1396L8.43875 13.4823C8.24325 13.0843 7.78398 12.9043 7.37022 13.0627L5.50043 13.7781C5.30381 13.8534 5.15722 13.9958 5.07667 14.1901C4.95344 14.4876 5.05254 14.7097 5.11176 14.842C5.23407 15.1159 5.49688 15.2853 5.79203 15.2853C5.8121 15.2853 5.83226 15.2844 5.85273 15.2825L7.09924 15.1856L8.41706 17.2244C8.67677 17.6261 9.11948 17.8488 9.57174 17.8488C9.73746 17.8489 9.90179 17.8186 10.0566 17.7595L8.93896 19.2227L8.29206 19.5157C7.93351 19.6778 7.7373 20.0471 7.80384 20.4353L8.1148 22.2495C8.19007 22.6882 8.56543 23 9.00321 23C9.02678 23 9.0506 22.9991 9.07453 22.9975C9.52973 22.9624 9.87655 22.6259 9.91794 22.1787L10.0246 21.0277L13.6798 17.3322C13.9974 17.0112 14.1601 16.6028 14.1501 16.1511C14.1445 15.8947 14.1553 15.5703 14.1667 15.2273C14.1888 14.5597 14.2135 13.8072 14.124 13.2791L14.3041 11.8694C14.3063 11.8526 14.3072 11.8357 14.3068 11.8183C14.2912 11.2251 14.1852 10.6796 13.9918 10.1906C15.7424 9.03392 17.3661 7.56326 18.8207 5.81395C19.0476 5.5415 19.0343 5.15918 18.7886 4.88536Z" fill="#667EEA"/>
</svg>
