<svg width="24" height="24" viewBox="0 0 24 24" fill="none" xmlns="http://www.w3.org/2000/svg">
<path d="M14.1729 7.01775H14.2884C15.0611 7.01775 15.6875 6.39139 15.6875 5.61873V4.91224C15.6875 4.24843 15.1494 3.71034 14.4856 3.71034H13.9757C13.312 3.71034 12.7739 4.24843 12.7739 4.91224V5.61873C12.7739 6.39139 13.4002 7.01775 14.1729 7.01775Z" stroke="#667EEA" stroke-width="0.8" stroke-miterlimit="10" stroke-linecap="round" stroke-linejoin="round"/>
<path d="M18.3211 6.41281C17.9252 6.07539 17.4221 5.89004 16.9019 5.88999H16.8984C16.7701 5.89032 16.6422 5.90188 16.5159 5.92456C15.7342 6.06399 15.0769 6.62214 14.8237 7.39595L14.6523 7.9209" stroke="#667EEA" stroke-width="0.8" stroke-miterlimit="10" stroke-linecap="round" stroke-linejoin="round"/>
<path d="M20.7743 13.9924L22.4117 12.4524C22.5975 12.2778 22.7455 12.067 22.8467 11.833C22.9479 11.599 23 11.3467 23 11.0917C23 11.0443 22.9978 10.9956 22.9942 10.9479C22.9753 10.7027 22.9081 10.4637 22.7966 10.2446C22.6851 10.0254 22.5315 9.83042 22.3444 9.67077" stroke="#667EEA" stroke-width="0.8" stroke-miterlimit="10" stroke-linecap="round" stroke-linejoin="round"/>
<path d="M22.4119 12.4523L19.801 14.9074L19.1047 15.5622L20.2484 19.1495L20.2321 19.8913C20.2298 19.9969 20.1862 20.0973 20.1108 20.1712C20.0353 20.2451 19.934 20.2865 19.8284 20.2866L17.6133 20.2897C17.4006 20.2901 17.2643 20.0633 17.3645 19.8754L17.9994 18.6858L17.0538 15.5697C16.981 15.3301 16.9709 15.0758 17.0242 14.8311C17.0776 14.5864 17.1928 14.3594 17.3587 14.1718L17.9531 13.4998L20.2264 10.9291" stroke="#667EEA" stroke-width="0.8" stroke-miterlimit="10" stroke-linecap="round" stroke-linejoin="round"/>
<path d="M14.6533 7.91873C14.6527 7.91932 14.6523 7.92011 14.6523 7.92094C14.5342 8.21487 14.5567 8.56191 14.7498 8.84831L15.9166 10.6366L13.7551 12.0532C13.312 12.3431 13.188 12.9376 13.4784 13.3802L14.018 14.204L14.7923 13.5015L17.191 11.9301C17.9338 11.4436 18.1414 10.4467 17.6545 9.70397L16.7342 8.2609" stroke="#667EEA" stroke-width="0.8" stroke-miterlimit="10" stroke-linecap="round" stroke-linejoin="round"/>
<path d="M22.4119 12.4523L19.801 14.9074L17.9531 13.4998L20.2264 10.9291" stroke="#667EEA" stroke-width="0.8" stroke-miterlimit="10" stroke-linecap="round" stroke-linejoin="round"/>
<path d="M22.3444 9.67077C22.5314 9.83041 22.6851 10.0254 22.7966 10.2446C22.9081 10.4637 22.9753 10.7027 22.9942 10.9479C22.9978 10.9956 23 11.0443 23 11.0917C23.0001 11.3467 22.9479 11.599 22.8467 11.833C22.7455 12.067 22.5975 12.2778 22.4117 12.4524" stroke="#667EEA" stroke-width="0.8" stroke-miterlimit="10" stroke-linecap="round" stroke-linejoin="round"/>
<path d="M17.7395 9.85049L17.894 9.64421C18.3393 9.04884 18.3318 8.22948 17.875 7.64247L16.5147 5.92496C16.5152 5.92496 16.5156 5.92456 16.516 5.92456C16.6409 5.90198 16.7688 5.89047 16.8985 5.88999H16.902C17.4222 5.88999 17.9255 6.0755 18.3212 6.41281L21.1293 8.6867" stroke="#667EEA" stroke-width="0.8" stroke-miterlimit="10" stroke-linecap="round" stroke-linejoin="round"/>
<path d="M18.9572 12.3643L17.7558 11.2882" stroke="#667EEA" stroke-width="0.8" stroke-miterlimit="10" stroke-linecap="round" stroke-linejoin="round"/>
<path d="M9.82698 7.01775H9.71149C8.93878 7.01775 8.31238 6.39139 8.31238 5.61873V4.91224C8.31238 4.24843 8.85047 3.71034 9.51428 3.71034H10.0242C10.6879 3.71034 11.226 4.24843 11.226 4.91224V5.61873C11.226 6.39139 10.5997 7.01775 9.82698 7.01775Z" stroke="#667EEA" stroke-width="0.8" stroke-miterlimit="10" stroke-linecap="round" stroke-linejoin="round"/>
<path d="M3.22556 13.9924L1.58817 12.4524C1.40238 12.2778 1.25433 12.067 1.15315 11.833C1.05197 11.599 0.999811 11.3467 0.999878 11.0917C0.999878 11.0443 1.00209 10.9956 1.00563 10.9479C1.02458 10.7027 1.09173 10.4637 1.20323 10.2446C1.31473 10.0254 1.4684 9.83042 1.65541 9.67077L5.67877 6.41285C6.07462 6.07542 6.57774 5.89007 7.09789 5.89003H7.10147C7.23113 5.89052 7.3591 5.90198 7.48393 5.92456C8.26562 6.06404 8.92301 6.62219 9.17621 7.39595L9.34752 7.92094" stroke="#667EEA" stroke-width="0.8" stroke-miterlimit="10" stroke-linecap="round" stroke-linejoin="round"/>
<path d="M1.58807 12.4523L4.19891 14.9074L4.89521 15.5622L3.75152 19.1495L3.76785 19.8913C3.77017 19.9969 3.8137 20.0973 3.88915 20.1712C3.9646 20.2451 4.06596 20.2865 4.17156 20.2866L6.38662 20.2897C6.59931 20.2901 6.73565 20.0633 6.63548 19.8754L6.00057 18.6858L6.94614 15.5697C7.01889 15.3301 7.02907 15.0758 6.97569 14.8311C6.92232 14.5864 6.80718 14.3594 6.64123 14.1718L6.04688 13.4998L3.77356 10.9291" stroke="#667EEA" stroke-width="0.8" stroke-miterlimit="10" stroke-linecap="round" stroke-linejoin="round"/>
<path d="M8.08336 10.6366L10.2449 12.0532C10.688 12.3431 10.8119 12.9375 10.5215 13.3802L9.98196 14.204L9.20771 13.5015L6.80899 11.9301C6.06621 11.4436 5.85856 10.4467 6.34549 9.70397L7.20429 8.35785" stroke="#667EEA" stroke-width="0.8" stroke-miterlimit="10" stroke-linecap="round" stroke-linejoin="round"/>
<path d="M9.34666 7.91873C9.34725 7.91932 9.34758 7.92012 9.34759 7.92095C9.46574 8.21487 9.44321 8.56191 9.25017 8.84831L8.93127 9.33674" stroke="#667EEA" stroke-width="0.8" stroke-miterlimit="10" stroke-linecap="round" stroke-linejoin="round"/>
<path d="M1.58807 12.4523L4.19891 14.9074L6.04688 13.4998L3.77356 10.9291" stroke="#667EEA" stroke-width="0.8" stroke-miterlimit="10" stroke-linecap="round" stroke-linejoin="round"/>
<path d="M6.24408 11.2882L5.04315 12.3644" stroke="#667EEA" stroke-width="0.8" stroke-miterlimit="10" stroke-linecap="round" stroke-linejoin="round"/>
<path d="M1.58817 12.4524C1.40238 12.2778 1.25433 12.067 1.15315 11.833C1.05198 11.599 0.999811 11.3467 0.999878 11.0917C0.999878 11.0443 1.00209 10.9956 1.00563 10.9479C1.02458 10.7027 1.09173 10.4637 1.20324 10.2446C1.31475 10.0254 1.46843 9.83041 1.65545 9.67077L5.67877 6.41285C6.07464 6.07543 6.57777 5.89007 7.09793 5.89003H7.10147C7.22972 5.89037 7.35769 5.90192 7.48393 5.92456C7.48437 5.92456 7.48481 5.925 7.48526 5.925L6.12497 7.64251C5.66815 8.22952 5.66062 9.04884 6.10593 9.64426L6.26087 9.8496" stroke="#667EEA" stroke-width="0.8" stroke-miterlimit="10" stroke-linecap="round" stroke-linejoin="round"/>
<path d="M10.8211 6.60293L10.1285 6.30268" stroke="#667EEA" stroke-width="0.8" stroke-miterlimit="10" stroke-linecap="round" stroke-linejoin="round"/>
<path d="M13.179 6.60293L13.8716 6.30268" stroke="#667EEA" stroke-width="0.8" stroke-miterlimit="10" stroke-linecap="round" stroke-linejoin="round"/>
</svg>
