<svg width="263" height="379" viewBox="0 0 263 379" fill="none" xmlns="http://www.w3.org/2000/svg">
<g filter="url(#filter0_d_61_403)">
<path fill-rule="evenodd" clip-rule="evenodd" d="M28.8537 0C15.5989 0 4.85374 10.7452 4.85374 24V346.977C4.85374 360.232 15.5989 370.977 28.8537 370.977H234.863C248.118 370.977 258.863 360.232 258.863 346.977V24C258.863 10.7452 248.118 0 234.863 0H28.8537ZM141.547 25.291C141.547 25.4553 141.543 25.6187 141.536 25.7812H163.399C167.228 25.7812 170.332 28.8855 170.332 32.7149C170.332 36.5443 167.228 39.6486 163.399 39.6486H100.318C96.4886 39.6486 93.3843 36.5443 93.3843 32.7149C93.3843 28.8855 96.4886 25.7812 100.318 25.7812H122.18C122.173 25.6187 122.17 25.4553 122.17 25.291C122.17 19.6074 126.507 15 131.858 15C137.209 15 141.547 19.6074 141.547 25.291Z" fill="url(#paint0_radial_61_403)" fill-opacity="0.3" shape-rendering="crispEdges"/>
</g>
<defs>
<filter id="filter0_d_61_403" x="0.853745" y="0" width="262.009" height="378.977" filterUnits="userSpaceOnUse" color-interpolation-filters="sRGB">
<feFlood flood-opacity="0" result="BackgroundImageFix"/>
<feColorMatrix in="SourceAlpha" type="matrix" values="0 0 0 0 0 0 0 0 0 0 0 0 0 0 0 0 0 0 127 0" result="hardAlpha"/>
<feOffset dy="4"/>
<feGaussianBlur stdDeviation="2"/>
<feComposite in2="hardAlpha" operator="out"/>
<feColorMatrix type="matrix" values="0 0 0 0 0 0 0 0 0 0 0 0 0 0 0 0 0 0 0.25 0"/>
<feBlend mode="normal" in2="BackgroundImageFix" result="effect1_dropShadow_61_403"/>
<feBlend mode="normal" in="SourceGraphic" in2="effect1_dropShadow_61_403" result="shape"/>
</filter>
<radialGradient id="paint0_radial_61_403" cx="0" cy="0" r="1" gradientUnits="userSpaceOnUse" gradientTransform="translate(178.262 251.977) rotate(-126.048) scale(209.022 308.435)">
<stop stop-color="#C8FFFF"/>
<stop offset="1" stop-color="white"/>
</radialGradient>
</defs>
</svg>
