<svg width="24" height="24" viewBox="0 0 24 24" fill="none" xmlns="http://www.w3.org/2000/svg">
<path d="M10.1192 6.86863C10.0672 6.8329 10.0064 6.81205 9.94347 6.80833C9.88051 6.80461 9.81773 6.81816 9.76191 6.84752C9.70609 6.87688 9.65936 6.92094 9.62675 6.97493C9.59415 7.02892 9.57691 7.09079 9.57691 7.15386V10.9615C9.57691 11.0246 9.59415 11.0865 9.62675 11.1405C9.65936 11.1945 9.70609 11.2385 9.76191 11.2679C9.81773 11.2972 9.88051 11.3108 9.94347 11.3071C10.0064 11.3034 10.0672 11.2825 10.1192 11.2468L12.8884 9.34293C12.9347 9.31112 12.9725 9.26853 12.9986 9.21884C13.0248 9.16915 13.0384 9.11385 13.0384 9.0577C13.0384 9.00156 13.0248 8.94625 12.9986 8.89656C12.9725 8.84687 12.9347 8.80428 12.8884 8.77247L10.1192 6.86863ZM10.2692 10.3035V7.81189L12.0813 9.0577L10.2692 10.3035ZM7.15383 18.0577C7.24563 18.0577 7.33368 18.0212 7.3986 17.9563C7.46351 17.8914 7.49998 17.8034 7.49998 17.7115V16.8462C7.50778 16.5792 7.40949 16.3201 7.22663 16.1254C7.04378 15.9308 6.79125 15.8166 6.52435 15.8077H4.32177C4.05487 15.8166 3.80234 15.9308 3.61949 16.1254C3.43663 16.3201 3.33834 16.5792 3.34614 16.8462V17.7115C3.34614 17.8034 3.38261 17.8914 3.44752 17.9563C3.51244 18.0212 3.60048 18.0577 3.69229 18.0577C3.7841 18.0577 3.87214 18.0212 3.93706 17.9563C4.00197 17.8914 4.03844 17.8034 4.03844 17.7115V16.8462C4.03106 16.7629 4.05657 16.68 4.10953 16.6153C4.16249 16.5506 4.23867 16.5092 4.32177 16.5H6.52435C6.60745 16.5092 6.68363 16.5506 6.73659 16.6153C6.78954 16.68 6.81506 16.7629 6.80767 16.8462V17.7115C6.80767 17.8034 6.84414 17.8914 6.90906 17.9563C6.97398 18.0212 7.06202 18.0577 7.15383 18.0577ZM12 18.0577C12.0918 18.0577 12.1798 18.0212 12.2448 17.9563C12.3097 17.8914 12.3461 17.8034 12.3461 17.7115V16.8462C12.3539 16.5792 12.2556 16.3201 12.0728 16.1254C11.8899 15.9308 11.6374 15.8166 11.3705 15.8077H9.16793C8.90102 15.8166 8.6485 15.9308 8.46564 16.1254C8.28279 16.3201 8.1845 16.5792 8.19229 16.8462V17.7115C8.19229 17.8034 8.22876 17.8914 8.29368 17.9563C8.35859 18.0212 8.44664 18.0577 8.53844 18.0577C8.63025 18.0577 8.7183 18.0212 8.78321 17.9563C8.84813 17.8914 8.8846 17.8034 8.8846 17.7115V16.8462C8.87721 16.7629 8.90273 16.68 8.95569 16.6153C9.00864 16.5506 9.08483 16.5092 9.16793 16.5H11.3705C11.4536 16.5092 11.5298 16.5506 11.5827 16.6153C11.6357 16.68 11.6612 16.7629 11.6538 16.8462V17.7115C11.6538 17.8034 11.6903 17.8914 11.7552 17.9563C11.8201 18.0212 11.9082 18.0577 12 18.0577ZM4.10127 18.75H1.89869C1.63179 18.7589 1.37927 18.8731 1.19641 19.0678C1.01356 19.2624 0.915267 19.5215 0.923059 19.7885V20.6539C0.923059 20.7457 0.959529 20.8337 1.02445 20.8986C1.08936 20.9635 1.17741 21 1.26921 21C1.36102 21 1.44906 20.9635 1.51398 20.8986C1.5789 20.8337 1.61537 20.7457 1.61537 20.6539V19.7885C1.60798 19.7052 1.6335 19.6223 1.68645 19.5576C1.73941 19.4929 1.8156 19.4515 1.89869 19.4423H4.10127C4.18437 19.4515 4.26056 19.4929 4.31351 19.5576C4.36647 19.6223 4.39198 19.7052 4.3846 19.7885V20.6539C4.3846 20.7457 4.42107 20.8337 4.48598 20.8986C4.5509 20.9635 4.63895 21 4.73075 21C4.82256 21 4.9106 20.9635 4.97552 20.8986C5.04044 20.8337 5.07691 20.7457 5.07691 20.6539V19.7885C5.0847 19.5215 4.98641 19.2624 4.80355 19.0678C4.6207 18.8731 4.36818 18.7589 4.10127 18.75ZM8.94742 18.75H6.74485C6.47794 18.7589 6.22542 18.8731 6.04257 19.0678C5.85971 19.2624 5.76142 19.5215 5.76921 19.7885V20.6539C5.76921 20.7457 5.80568 20.8337 5.8706 20.8986C5.93552 20.9635 6.02356 21 6.11537 21C6.20717 21 6.29522 20.9635 6.36014 20.8986C6.42505 20.8337 6.46152 20.7457 6.46152 20.6539V19.7885C6.45413 19.7052 6.47965 19.6223 6.53261 19.5576C6.58556 19.4929 6.66175 19.4515 6.74485 19.4423H8.94742C9.03052 19.4515 9.10671 19.4929 9.15966 19.5576C9.21262 19.6223 9.23814 19.7052 9.23075 19.7885V20.6539C9.23075 20.7457 9.26722 20.8337 9.33214 20.8986C9.39705 20.9635 9.4851 21 9.57691 21C9.66871 21 9.75676 20.9635 9.82167 20.8986C9.88659 20.8337 9.92306 20.7457 9.92306 20.6539V19.7885C9.93085 19.5215 9.83256 19.2624 9.64971 19.0678C9.46685 18.8731 9.21433 18.7589 8.94742 18.75ZM13.7936 18.75H11.591C11.3241 18.7589 11.0716 18.8731 10.8887 19.0678C10.7059 19.2624 10.6076 19.5215 10.6154 19.7885V20.6539C10.6154 20.7457 10.6518 20.8337 10.7168 20.8986C10.7817 20.9635 10.8697 21 10.9615 21C11.0533 21 11.1414 20.9635 11.2063 20.8986C11.2712 20.8337 11.3077 20.7457 11.3077 20.6539V19.7885C11.3003 19.7052 11.3258 19.6223 11.3788 19.5576C11.4317 19.4929 11.5079 19.4515 11.591 19.4423H13.7936C13.8767 19.4515 13.9529 19.4929 14.0058 19.5576C14.0588 19.6223 14.0843 19.7052 14.0769 19.7885V20.6539C14.0769 20.7457 14.1134 20.8337 14.1783 20.8986C14.2432 20.9635 14.3313 21 14.4231 21C14.5149 21 14.6029 20.9635 14.6678 20.8986C14.7327 20.8337 14.7692 20.7457 14.7692 20.6539V19.7885C14.777 19.5215 14.6787 19.2624 14.4959 19.0678C14.313 18.8731 14.0605 18.7589 13.7936 18.75ZM23.0769 13.0463C23.0776 12.8712 23.034 12.6989 22.9501 12.5453C22.8662 12.3916 22.7448 12.2618 22.5971 12.1677C22.5985 12.1639 22.6006 12.1605 22.602 12.1566C22.6115 12.1287 22.6173 12.0996 22.6195 12.0701C22.6949 11.803 22.6659 11.5173 22.5382 11.2709C22.4105 11.0245 22.1937 10.836 21.932 10.7436C21.9343 10.7148 21.9355 10.6858 21.9355 10.6568C21.939 10.369 21.8282 10.0916 21.6275 9.88534C21.4267 9.67912 21.1524 9.56092 20.8646 9.55668C20.8416 9.55668 20.8186 9.55738 20.7958 9.55893C20.7083 9.35896 20.5646 9.18874 20.3821 9.06901C20.1996 8.94928 19.9863 8.88522 19.768 8.88463C19.5607 8.88504 19.3578 8.94383 19.1823 9.05424C19.0026 8.94446 18.7956 8.88743 18.585 8.88967C18.3743 8.8919 18.1686 8.95331 17.9912 9.06688C17.8117 8.94823 17.6013 8.88486 17.3861 8.88463C17.1679 8.88517 16.9544 8.94923 16.7719 9.069C16.5895 9.18876 16.4458 9.35906 16.3584 9.55911C16.3355 9.55749 16.3125 9.55668 16.2895 9.55668C16.0018 9.56092 15.7274 9.67912 15.5267 9.88534C15.3259 10.0916 15.2152 10.369 15.2187 10.6568C15.2187 10.6857 15.2198 10.7146 15.2222 10.7435C15.0076 10.8204 14.8223 10.962 14.6917 11.1487C14.5611 11.3355 14.4917 11.5582 14.4932 11.7861C14.4932 11.9155 14.5158 12.044 14.56 12.1656C14.4078 12.2626 14.2833 12.3973 14.1988 12.5567C14.1142 12.7161 14.0724 12.8947 14.0775 13.0751C14.0826 13.2554 14.1343 13.4314 14.2277 13.5858C14.3211 13.7402 14.4529 13.8677 14.6103 13.956L15.7661 20.3865C15.7987 20.5559 15.8882 20.7091 16.0198 20.8207C16.1514 20.9323 16.3171 20.9955 16.4896 21H20.6644C20.8368 20.9956 21.0026 20.9324 21.1342 20.8209C21.2659 20.7094 21.3555 20.5563 21.3884 20.387L22.5438 13.956C22.706 13.866 22.8411 13.7341 22.9348 13.574C23.0286 13.414 23.0777 13.2317 23.0769 13.0463ZM15.5645 11.3781C15.6387 11.3895 15.7143 11.3863 15.7873 11.3688C15.8349 11.3516 15.8782 11.3242 15.9141 11.2884C15.95 11.2527 15.9776 11.2095 15.995 11.1619C16.0124 11.1143 16.0191 11.0635 16.0147 11.013C16.0103 10.9626 15.9949 10.9137 15.9695 10.8698C15.9313 10.8053 15.911 10.7317 15.9107 10.6568C15.9064 10.5912 15.9193 10.5257 15.9481 10.4666C15.9768 10.4076 16.0205 10.357 16.0747 10.3199C16.1289 10.2828 16.1918 10.2605 16.2573 10.2551C16.3228 10.2497 16.3885 10.2614 16.4481 10.2891C16.4986 10.3144 16.5545 10.3269 16.611 10.3255C16.6674 10.3241 16.7227 10.309 16.772 10.2814C16.8212 10.2538 16.863 10.2145 16.8936 10.1671C16.9242 10.1196 16.9427 10.0654 16.9476 10.0091C16.9529 9.89513 17.0009 9.78733 17.0822 9.70723C17.1634 9.62712 17.2719 9.5806 17.386 9.57693C17.4509 9.57799 17.5148 9.59377 17.5728 9.62309C17.6308 9.65241 17.6813 9.6945 17.7207 9.7462C17.7543 9.78496 17.7959 9.81605 17.8426 9.83735C17.8893 9.85865 17.94 9.86968 17.9913 9.86968C18.0426 9.86968 18.0933 9.85865 18.14 9.83735C18.1867 9.81605 18.2283 9.78496 18.2619 9.7462C18.2997 9.69496 18.3488 9.65308 18.4053 9.62378C18.4618 9.59448 18.5243 9.57854 18.588 9.57718C18.6517 9.57583 18.7148 9.5891 18.7725 9.61597C18.8302 9.64284 18.881 9.6826 18.921 9.73218C18.9535 9.76976 18.9938 9.79988 19.039 9.82051C19.0842 9.84113 19.1334 9.85177 19.1831 9.85171C19.2328 9.85164 19.2819 9.84087 19.3271 9.82013C19.3723 9.79938 19.4124 9.76915 19.4449 9.73149C19.4842 9.68376 19.5336 9.64519 19.5894 9.6185C19.6452 9.5918 19.7062 9.57762 19.768 9.57693C19.8821 9.58056 19.9907 9.62709 20.072 9.70723C20.1533 9.78738 20.2013 9.89524 20.2066 10.0093C20.2115 10.0656 20.23 10.1198 20.2606 10.1672C20.2913 10.2147 20.333 10.2539 20.3823 10.2815C20.4316 10.3091 20.4869 10.3243 20.5434 10.3256C20.5998 10.3269 20.6558 10.3144 20.7063 10.2891C20.7658 10.2616 20.8315 10.25 20.8969 10.2555C20.9622 10.261 21.025 10.2833 21.0792 10.3204C21.1333 10.3575 21.1769 10.4079 21.2056 10.4669C21.2344 10.5259 21.2473 10.5913 21.2432 10.6568C21.2428 10.7317 21.2226 10.8053 21.1845 10.8698C21.1529 10.9267 21.1381 10.9913 21.1416 11.0562C21.1452 11.1211 21.167 11.1837 21.2046 11.2367C21.2426 11.2907 21.2949 11.333 21.3556 11.3588C21.4163 11.3847 21.483 11.3932 21.5483 11.3833C21.5618 11.3807 21.5755 11.379 21.5893 11.3781C21.6936 11.3822 21.792 11.4274 21.8631 11.5039C21.9341 11.5803 21.972 11.6818 21.9683 11.7861C21.9722 11.8282 21.9671 11.8707 21.9533 11.9108C21.9396 11.9508 21.9175 11.9875 21.8886 12.0184C21.8596 12.0493 21.8245 12.0737 21.7854 12.09C21.7464 12.1064 21.7043 12.1143 21.662 12.1132C21.6215 12.1123 21.5815 12.1041 21.544 12.089C21.5024 12.0692 21.4573 12.0579 21.4114 12.0557C21.3654 12.0535 21.3194 12.0605 21.2762 12.0763C21.233 12.0921 21.1934 12.1164 21.1596 12.1477C21.1259 12.179 21.0987 12.2167 21.0797 12.2586C21.0607 12.3006 21.0503 12.3459 21.049 12.3919C21.0477 12.4379 21.0557 12.4837 21.0723 12.5266C21.0889 12.5695 21.114 12.6087 21.1459 12.6418C21.1779 12.6749 21.2161 12.7013 21.2584 12.7195C21.386 12.7772 21.5244 12.8069 21.6644 12.8067C21.8136 12.807 21.9609 12.7737 22.0956 12.7095C22.178 12.722 22.2529 12.7643 22.3061 12.8284C22.3594 12.8925 22.3872 12.974 22.3844 13.0573C22.3815 13.1406 22.3482 13.2199 22.2907 13.2803C22.2332 13.3406 22.1556 13.3777 22.0725 13.3846H15.0816C14.9954 13.3809 14.9142 13.3433 14.8556 13.2799C14.7971 13.2165 14.766 13.1325 14.7692 13.0463C14.767 12.9684 14.7925 12.8923 14.841 12.8313C14.8895 12.7704 14.958 12.7286 15.0344 12.7133C15.1432 12.7701 15.2614 12.8066 15.3833 12.8211C15.5338 12.8384 15.6864 12.8212 15.8293 12.7709C15.9158 12.7402 15.9866 12.6764 16.0261 12.5935C16.0656 12.5106 16.0705 12.4154 16.0398 12.3289C16.0091 12.2423 15.9452 12.1715 15.8623 12.1321C15.7794 12.0926 15.6843 12.0877 15.5977 12.1184C15.5542 12.1336 15.5078 12.1387 15.462 12.1333C15.3811 12.1199 15.3081 12.077 15.2569 12.0129C15.2058 11.9487 15.1803 11.8679 15.1853 11.7861C15.1817 11.6818 15.2196 11.5803 15.2906 11.5039C15.3617 11.4275 15.4602 11.3822 15.5645 11.3781ZM16.4474 20.2646L15.3353 14.0769H18.2308V20.3077H16.491C16.4809 20.3042 16.4718 20.2986 16.4643 20.2911C16.4567 20.2837 16.4509 20.2746 16.4474 20.2646ZM20.7068 20.2648C20.7031 20.2747 20.6974 20.2837 20.6899 20.2911C20.6823 20.2985 20.6733 20.3042 20.6633 20.3077H18.9231V14.0769H21.8183L20.7068 20.2648Z" fill="#667EEA"/>
<path d="M17.4491 11.398C17.5735 11.453 17.7081 11.4813 17.8441 11.4811C17.9626 11.4817 18.0801 11.4591 18.1899 11.4147C18.2319 11.3973 18.2701 11.3718 18.3023 11.3397C18.3344 11.3076 18.36 11.2694 18.3774 11.2275C18.3948 11.1855 18.4038 11.1405 18.4039 11.095C18.4039 11.0495 18.395 11.0045 18.3776 10.9625C18.3602 10.9205 18.3348 10.8823 18.3027 10.8501C18.2705 10.818 18.2324 10.7924 18.1904 10.775C18.1484 10.7576 18.1034 10.7486 18.0579 10.7485C18.0125 10.7485 17.9675 10.7574 17.9254 10.7748C17.8617 10.7955 17.7926 10.7922 17.7311 10.7656C17.724 10.7625 17.7171 10.7589 17.7105 10.7549C17.7021 10.6684 17.6616 10.5883 17.5969 10.5303C17.5322 10.4723 17.4481 10.4408 17.3612 10.442C17.2744 10.4432 17.1911 10.477 17.128 10.5367C17.0649 10.5963 17.0266 10.6776 17.0206 10.7642C17.0168 10.9014 17.0561 11.0364 17.133 11.15C17.2098 11.2637 17.3204 11.3505 17.4491 11.398ZM17.2177 12.6444C17.2727 12.6138 17.3357 12.6009 17.3983 12.6073C17.4043 12.608 17.4093 12.6087 17.4138 12.6096C17.4507 12.6716 17.5059 12.7206 17.5719 12.7497C17.6379 12.7789 17.7113 12.7867 17.782 12.7721C17.8526 12.7576 17.917 12.7214 17.9661 12.6685C18.0152 12.6157 18.0466 12.5489 18.0559 12.4774C18.0608 12.4323 18.0574 12.3867 18.0459 12.3429C18.005 12.2219 17.928 12.1165 17.8253 12.0407C17.7226 11.9648 17.5991 11.9223 17.4715 11.9188C17.2427 11.894 17.0125 11.95 16.8207 12.0772C16.7455 12.1298 16.6943 12.2102 16.6783 12.3006C16.6624 12.391 16.683 12.4841 16.7356 12.5593C16.7883 12.6345 16.8686 12.6857 16.9591 12.7017C17.0495 12.7176 17.1425 12.697 17.2177 12.6444ZM19.6408 12.8174C19.6958 12.787 19.7588 12.7741 19.8213 12.7804C19.8274 12.7811 19.8324 12.7818 19.8369 12.7827C19.8795 12.8547 19.9468 12.9089 20.0263 12.9351C20.1058 12.9613 20.1922 12.9578 20.2693 12.9253C20.3464 12.8928 20.4092 12.8334 20.4459 12.7582C20.4826 12.6829 20.4908 12.5969 20.469 12.5161C20.4281 12.3952 20.3511 12.2897 20.2483 12.2139C20.1456 12.1381 20.0222 12.0956 19.8945 12.0921C19.6658 12.0671 19.4355 12.1231 19.2438 12.2503C19.1686 12.3029 19.1173 12.3833 19.1014 12.4737C19.0854 12.5641 19.1061 12.6572 19.1587 12.7324C19.2114 12.8076 19.2917 12.8588 19.3821 12.8748C19.4726 12.8907 19.5656 12.8701 19.6408 12.8174ZM19.4807 11.3572C19.6487 11.4873 19.8536 11.5609 20.0661 11.5673C20.1127 11.5674 20.1592 11.5628 20.2049 11.5535C20.2502 11.5452 20.2934 11.5281 20.3319 11.503C20.3705 11.4778 20.4037 11.4453 20.4296 11.4072C20.4554 11.3691 20.4734 11.3262 20.4825 11.2811C20.4915 11.2359 20.4915 11.1894 20.4824 11.1443C20.4733 11.0992 20.4552 11.0563 20.4294 11.0183C20.4035 10.9802 20.3703 10.9477 20.3316 10.9226C20.293 10.8975 20.2498 10.8804 20.2045 10.8722C20.1592 10.864 20.1127 10.865 20.0678 10.875C20.0039 10.8678 19.9434 10.8423 19.8937 10.8016C19.852 10.7713 19.8162 10.7335 19.7883 10.6902C19.7852 10.6005 19.7475 10.5155 19.6829 10.4531C19.6184 10.3907 19.5322 10.3558 19.4425 10.3558L19.4303 10.3559C19.3386 10.3591 19.2519 10.3986 19.1893 10.4657C19.1266 10.5327 19.0932 10.622 19.0963 10.7137C19.1091 10.8426 19.1502 10.9671 19.2166 11.0783C19.283 11.1896 19.3733 11.2848 19.4807 11.3572Z" fill="#667EEA"/>
<path d="M16.8461 16.1538C17.0373 16.1538 17.1923 15.9989 17.1923 15.8077C17.1923 15.6165 17.0373 15.4615 16.8461 15.4615C16.655 15.4615 16.5 15.6165 16.5 15.8077C16.5 15.9989 16.655 16.1538 16.8461 16.1538Z" fill="#667EEA"/>
<path d="M17.0192 18.2308C17.2104 18.2308 17.3654 18.0758 17.3654 17.8846C17.3654 17.6934 17.2104 17.5385 17.0192 17.5385C16.828 17.5385 16.6731 17.6934 16.6731 17.8846C16.6731 18.0758 16.828 18.2308 17.0192 18.2308Z" fill="#667EEA"/>
<path d="M20.1346 18.2308C20.3258 18.2308 20.4808 18.0758 20.4808 17.8846C20.4808 17.6934 20.3258 17.5385 20.1346 17.5385C19.9434 17.5385 19.7884 17.6934 19.7884 17.8846C19.7884 18.0758 19.9434 18.2308 20.1346 18.2308Z" fill="#667EEA"/>
<path d="M20.2211 16.1538C20.4123 16.1538 20.5673 15.9989 20.5673 15.8077C20.5673 15.6165 20.4123 15.4615 20.2211 15.4615C20.03 15.4615 19.875 15.6165 19.875 15.8077C19.875 15.9989 20.03 16.1538 20.2211 16.1538Z" fill="#667EEA"/>
<path d="M1.96152 15.1154H14.1153L13.9907 14.4231H1.96152C1.86974 14.423 1.78175 14.3865 1.71685 14.3216C1.65196 14.2567 1.61546 14.1687 1.61537 14.0769V4.03846C1.61546 3.94668 1.65196 3.85869 1.71685 3.79379C1.78175 3.7289 1.86974 3.6924 1.96152 3.69231H20.6538C20.7456 3.6924 20.8336 3.7289 20.8985 3.79379C20.9634 3.85869 20.9999 3.94668 21 4.03846V8.67917C21.0733 8.74626 21.141 8.81919 21.2025 8.89725C21.3738 8.93136 21.5389 8.99117 21.6923 9.07465V4.03846C21.692 3.76314 21.5825 3.49919 21.3878 3.30451C21.1931 3.10983 20.9291 3.00032 20.6538 3H1.96152C1.6862 3.00032 1.42225 3.10983 1.22757 3.30451C1.03289 3.49919 0.92338 3.76314 0.923059 4.03846L0.923059 14.0769C0.92338 14.3522 1.03289 14.6162 1.22757 14.8109C1.42225 15.0056 1.6862 15.1151 1.96152 15.1154Z" fill="#667EEA"/>
</svg>
