<?xml version="1.0" standalone="no"?>
<!DOCTYPE svg PUBLIC "-//W3C//DTD SVG 20010904//EN"
 "http://www.w3.org/TR/2001/REC-SVG-20010904/DTD/svg10.dtd">
<svg version="1.0" xmlns="http://www.w3.org/2000/svg"
 width="1024.000000pt" height="1024.000000pt" viewBox="0 0 1024.000000 1024.000000"
 preserveAspectRatio="xMidYMid meet">
<metadata>
Created by potrace 1.14, written by Peter Selinger 2001-2017
</metadata>
<g transform="translate(0.000000,1024.000000) scale(0.100000,-0.100000)"
fill="#000000" stroke="none">
<path d="M10 10022 c-7 -3 -10 -1374 -9 -4110 0 -4221 0 -4133 35 -4322 13
-71 67 -218 114 -307 185 -354 510 -623 989 -818 239 -97 590 -188 845 -220
27 -3 52 -8 55 -9 3 -2 42 -7 86 -10 44 -4 94 -9 110 -11 67 -8 132 -8 145 0
8 5 11 4 7 -2 -8 -13 397 -15 2993 -16 1765 -1 2471 4 2535 17 11 2 56 7 100
11 43 3 82 8 85 10 3 1 36 6 75 10 38 4 72 8 75 10 3 2 22 6 43 9 163 26 371
79 542 139 601 211 1036 553 1262 992 43 83 106 274 119 360 5 36 10 8002 5
8163 -1 14 -5 21 -12 16 -8 -5 -8 -1 0 14 6 12 15 23 20 26 19 12 -1 46 -28
47 -160 5 -3344 0 -3364 -5 l-27 -6 0 -3155 0 -3155 -22 -5 c-13 -3 -781 -4
-1707 -3 l-1684 3 0 3158 0 3157 -25 7 c-26 6 -3343 11 -3362 5z"/>
</g>
</svg>
