<svg xmlns="http://www.w3.org/2000/svg" width="256.037" height="44.237" viewBox="0 0 256.037 44.237">
  <g id="Group_281" data-name="Group 281" transform="translate(-270 -2439.606)">
    <g id="UquidSVG" transform="translate(270 2439.606)">
      <path id="Path_65" data-name="Path 65" d="M114.9,16.16a.083.083,0,0,1,.055.088V44.3c0,.091-.007.183-.01.273.037.079.109.042.158.042q7.5,0,14.993,0c.158,0,.23-.036.206-.2a1.205,1.205,0,0,1,0-.158V16.475c0-.1-.055-.218.066-.29a.1.1,0,0,1,.139.025.934.934,0,0,1,.107.175c.57,1.131,1.147,2.258,1.708,3.386q.7,1.42,1.405,2.827.783,1.564,1.568,3.126.71,1.408,1.405,2.824c.415.849.854,1.686,1.261,2.538a2.9,2.9,0,0,1,.2.359,2.643,2.643,0,0,1,.018.48V59.261c0,.3,0,.3.289.351a.164.164,0,0,1,.1.055,2.751,2.751,0,0,1-.612.174,18.231,18.231,0,0,1-2.822.433c-.441.032-.883.041-1.325.048-2.28.035-4.562.027-6.843.025q-5.939,0-11.879-.011a.412.412,0,0,1-.245-.027.413.413,0,0,1,.079-.049,1.42,1.42,0,0,1,.432-.028h14.487a2.762,2.762,0,0,0,.388-.013c.116-.055.074-.158.075-.241V45.289a2.2,2.2,0,0,1,.009-.309,8.593,8.593,0,0,1-.49,1.074c-.638,1.333-1.265,2.673-1.9,4.008-.347.729-.7,1.458-1.038,2.19a.464.464,0,0,1-.206.264,1.013,1.013,0,0,1-.34.031h-7.448a1.2,1.2,0,0,1-.3-.02c-.151-.046-.2-.183-.255-.3l-1.311-2.77-1.42-2.994c-.224-.473-.441-.953-.692-1.452v14.86a.641.641,0,0,1-.069.442c-.079,0-.151.012-.227.012h-3.383c-.289,0-.578-.014-.867-.023a.2.2,0,0,1-.152-.031c.055-.048.116-.027.174-.027h4.138a.771.771,0,0,1,.117,0h-4.185c-.079,0-.168-.03-.242.028a6.93,6.93,0,0,1-1.046-.069c-.674-.067-1.34-.2-2-.315a.219.219,0,0,1-.059-.032,1.256,1.256,0,0,0,.068-.54V32.032a3.736,3.736,0,0,1,.012-.479,1.882,1.882,0,0,1,.185-.466c.473-.941.945-1.877,1.411-2.822,1.72-3.52,3.5-7.013,5.236-10.522.218-.437.445-.867.655-1.311.034-.072.057-.218.2-.091v.218C114.879,16.428,114.824,16.291,114.9,16.16Z" transform="translate(-99.652 -16.112)" fill="#e85c50"/>
      <path id="Path_66" data-name="Path 66" d="M20.845,34.185V62.447c.007.109-.061.126-.144.131a13.812,13.812,0,0,1-3.249-1.138,9.011,9.011,0,0,1-1.61-1,6.363,6.363,0,0,1-2.508-4.26,1.747,1.747,0,0,1,0-.182.63.63,0,0,1-.017-.249V19.379a.66.66,0,0,1,.018-.251c.109.011.131.1.164.173.424.842.842,1.693,1.27,2.534q.77,1.52,1.529,3.046c.473.945.955,1.891,1.42,2.845.291.6.595,1.187.892,1.779.273.546.552,1.087.816,1.638q.473.99.988,1.961c.146.276.259.569.4.847a.276.276,0,0,1,.029.241Z" transform="translate(-13.244 -18.842)" fill="#cf3339"/>
      <path id="Path_67" data-name="Path 67" d="M500.68,63.988a.867.867,0,0,0-.315.039c-.088.017-.151-.01-.148-.117V35.689c-.074-.127.023-.218.073-.315q1.135-2.214,2.249-4.447c.018-.034.039-.069.059-.1a.457.457,0,0,1,.027-.048c.013-.023.025-.048.036-.072s.016-.032.024-.048c.027-.05.046-.1.073-.153a.4.4,0,0,1,.032-.055c.394-.742.756-1.5,1.134-2.251.2-.394.4-.788.594-1.187.178-.352.356-.7.529-1.057a.725.725,0,0,1,.041-.067c.58-1.134,1.133-2.285,1.717-3.414q.362-.7.722-1.4c.043-.084.072-.188.2-.218a.55.55,0,0,1,.026.285V57.088a.787.787,0,0,1-.016.273,2.636,2.636,0,0,1-.169.937,6.1,6.1,0,0,1-1.451,2.532,8.26,8.26,0,0,1-1.711,1.5,12.763,12.763,0,0,1-2.573,1.29A8.932,8.932,0,0,1,500.68,63.988Z" transform="translate(-461.758 -20.438)" fill="#cf3339"/>
      <path id="Path_68" data-name="Path 68" d="M20.2,31.177a.6.6,0,0,0-.084-.211c-.209-.448-.448-.882-.655-1.33s-.455-.845-.645-1.285c-.175-.407-.418-.779-.59-1.182-.218-.512-.529-.977-.735-1.5-.079-.2-.211-.388-.309-.585-.149-.3-.273-.615-.437-.905-.324-.57-.585-1.171-.886-1.752-.2-.377-.4-.752-.573-1.142-.186-.427-.441-.819-.623-1.244-.221-.518-.53-.993-.745-1.515-.1-.253-.269-.479-.378-.73-.246-.557-.564-1.078-.847-1.638V52.985a2.537,2.537,0,0,1-.057-.771q-.007-4.85,0-9.7V16.569a6.008,6.008,0,0,0-.021-.684.42.42,0,0,1,.224-.021H27.707c.164,0,.1.084.055.158L24.776,21.97q-.932,1.862-1.861,3.724c-.227.456-.44.92-.667,1.376l-1.891,3.782Z" transform="translate(-12.598 -15.833)" fill="#e33936"/>
      <path id="Path_69" data-name="Path 69" d="M413.553,26.34a.386.386,0,0,1-.063.169c-.5,1-.989,2.009-1.507,3-.246.473-.484.945-.727,1.423a.522.522,0,0,0-.084.21c-.089,0-.106-.079-.136-.135-.1-.2-.185-.4-.285-.6-.119-.236-.251-.473-.37-.71-.218-.437-.447-.867-.651-1.311-.214-.463-.481-.9-.685-1.365-.218-.5-.508-.97-.726-1.474-.119-.277-.282-.539-.418-.812-.215-.429-.442-.852-.641-1.288-.226-.5-.508-.97-.727-1.474-.121-.277-.293-.535-.417-.813-.236-.529-.535-1.024-.767-1.556-.121-.276-.283-.539-.419-.812l-1.311-2.616a.56.56,0,0,1-.092-.232l.037-.02c2.988-.007,5.976,0,8.964,0h5.948a.481.481,0,0,1,.247.021c.009.062.079.121.009.187a4.079,4.079,0,0,0-.477.878c-.759,1.469-1.492,2.949-2.23,4.43h0c-.192.346-.367.7-.537,1.056q-.307.59-.6,1.19c-.394.756-.756,1.532-1.158,2.285h0a.589.589,0,0,0-.092.183h0c-.028.025-.02.067-.046.092h0C413.573,26.273,413.58,26.316,413.553,26.34Z" transform="translate(-372.713 -15.895)" fill="#e33936"/>
      <path id="Path_70" data-name="Path 70" d="M562.13,23.623a5.906,5.906,0,0,1,.542-1.151c.069-.128.114-.263.18-.394.273-.534.537-1.071.805-1.608.21-.421.412-.845.63-1.261.146-.273.28-.552.414-.834.028-.059.055-.114.132-.064q0,2.22,0,4.439V54.383a2.166,2.166,0,0,1-.041.612c0-.079-.007-.152-.007-.228V18.542c-.069.009-.079.066-.1.106-.079.15-.148.3-.226.45-.751,1.439-1.47,2.894-2.2,4.346C562.23,23.511,562.21,23.594,562.13,23.623Z" transform="translate(-518.817 -18.077)" fill="#e34c37"/>
      <path id="Path_71" data-name="Path 71" d="M222.062,15.893a.17.17,0,0,0-.141.2,1.57,1.57,0,0,1,0,.183V44.036c0,.366.037.333-.328.333H206.832c-.1,0-.218.055-.292-.063a.488.488,0,0,0,.247.03h14.949c.106.009.158-.034.149-.144,0-.069,0-.137,0-.206V16.193a1.547,1.547,0,0,0,0-.158c-.013-.132.055-.181.176-.171l0,.031Z" transform="translate(-191.246 -15.838)" fill="#e9654c"/>
      <path id="Path_72" data-name="Path 72" d="M27.6,15.8c0-.059.055-.146-.079-.137-.061,0-.122,0-.183,0H12.45c.064-.084.158-.039.232-.039,1.044,0,2.088,0,3.131,0H27.4c.1,0,.2-.031.288.035V44.042c-.072-.034-.04-.088-.044-.129a1.545,1.545,0,0,1,0-.158V16.109C27.648,16,27.689,15.892,27.6,15.8Z" transform="translate(-12.45 -15.611)" fill="#e7563d"/>
      <path id="Path_73" data-name="Path 73" d="M403.5,15.6a.2.2,0,0,1,0-.031c.084,0,.167-.014.251-.014h14.693c.084,0,.181-.04.255.041Z" transform="translate(-372.679 -15.544)" fill="#e85c50"/>
      <path id="Path_74" data-name="Path 74" d="M221.377,484.841H206.228c-.091,0-.183-.005-.273-.009a.421.421,0,0,1,.046-.265c.394-.827.777-1.655,1.172-2.482.78-1.63,1.541-3.27,2.325-4.9a.351.351,0,0,1,.112-.168h8.149c.2.343.354.71.521,1.064.315.685.643,1.365.966,2.049q1.038,2.193,2.075,4.384A.445.445,0,0,1,221.377,484.841Z" transform="translate(-190.702 -440.658)" fill="#cf3339"/>
      <path id="Path_75" data-name="Path 75" d="M209.022,387.218a1.594,1.594,0,0,1-.146.382c-.382.788-.765,1.576-1.136,2.368q-.378.806-.76,1.61c-.293.619-.584,1.24-.883,1.857-.223.459-.432.923-.648,1.385-.032.069-.055.141-.084.211l-.055.016h0V379.539a.339.339,0,0,1,.148.2c.153.331.3.666.456,1,.242.509.5,1.012.735,1.523q.63,1.345,1.271,2.683c.255.529.492,1.064.753,1.59A4.32,4.32,0,0,0,209.022,387.218Z" transform="translate(-190.114 -350.858)" fill="#e33937"/>
      <path id="Path_76" data-name="Path 76" d="M359.494,395.154a4.462,4.462,0,0,0-.315-.755c-.131-.324-.295-.635-.446-.95-.354-.742-.716-1.48-1.064-2.225q-.421-.9-.851-1.794c-.3-.63-.592-1.269-.886-1.9a.378.378,0,0,1-.055-.2c.459-.963.921-1.924,1.374-2.891.265-.566.534-1.129.8-1.693.3-.626.589-1.256.893-1.877.158-.328.3-.665.457-1a.487.487,0,0,1,.139-.212v15.231C359.538,394.982,359.576,395.08,359.494,395.154Z" transform="translate(-328.817 -350.97)" fill="#e33937"/>
      <path id="Path_77" data-name="Path 77" d="M146.54,575.23c.051-.064.123-.055.191-.055h4.28a.3.3,0,1,1-.166.044h-4.1c-.069,0-.137,0-.206.007Z" transform="translate(-135.974 -531.081)" fill="#e75840"/>
      <path id="Path_78" data-name="Path 78" d="M533.07,116.5a.325.325,0,0,1,.051-.149l1.016-2.031a.237.237,0,0,1,.079-.109c.016-.021.031-.021.046,0q-.523,1.047-1.047,2.093C533.177,116.379,533.157,116.467,533.07,116.5Z" transform="translate(-492.047 -106.424)" fill="#e04437"/>
      <path id="Path_79" data-name="Path 79" d="M547.636,100.3h-.046a7.149,7.149,0,0,1,.388-.819,1.383,1.383,0,0,1,.207-.374q.022-.033.046,0Z" transform="translate(-505.423 -92.505)" fill="#e24837"/>
      <path id="Path_80" data-name="Path 80" d="M555.2,86.983h-.046a4.761,4.761,0,0,1,.552-1.053.246.246,0,0,1-.025.132C555.49,86.355,555.358,86.678,555.2,86.983Z" transform="translate(-512.387 -80.384)" fill="#e34c37"/>
      <path id="Path_81" data-name="Path 81" d="M531.855,143.647a.158.158,0,0,1,.092-.183A.257.257,0,0,1,531.855,143.647Z" transform="translate(-490.923 -133.383)" fill="#e04437"/>
      <path id="Path_82" data-name="Path 82" d="M531.323,145.923a.094.094,0,0,1,.046-.092A.094.094,0,0,1,531.323,145.923Z" transform="translate(-490.437 -135.565)" fill="#e04437"/>
      <path id="Path_83" data-name="Path 83" d="M530.742,147.042a.094.094,0,0,1,.046-.092A.1.1,0,0,1,530.742,147.042Z" transform="translate(-489.902 -136.596)" fill="#e04437"/>
    </g>
    <path id="Path_783" data-name="Path 783" d="M9.772.28a7.648,7.648,0,0,0,7.98-7.868v-12.1H13.916V-7.476A3.961,3.961,0,0,1,9.772-3.248,4.027,4.027,0,0,1,5.572-7.5v-12.18H1.764V-7.616A7.694,7.694,0,0,0,9.772.28ZM33.544.308a9.992,9.992,0,0,0,5.88-1.848l3,3,2.324-2.3L41.776-3.808a10.293,10.293,0,0,0,1.9-6.048A10.023,10.023,0,0,0,33.488-19.992,9.994,9.994,0,0,0,23.324-9.884,10.111,10.111,0,0,0,33.544.308Zm-.056-3.556c-3.724,0-6.272-2.688-6.272-6.636,0-3.892,2.548-6.58,6.272-6.58s6.3,2.688,6.3,6.58a7.513,7.513,0,0,1-.728,3.36L35.7-9.884,33.4-7.56l3.444,3.444A6.518,6.518,0,0,1,33.488-3.248ZM57.82.28A7.648,7.648,0,0,0,65.8-7.588v-12.1H61.964V-7.476A3.961,3.961,0,0,1,57.82-3.248,4.027,4.027,0,0,1,53.62-7.5v-12.18H49.812V-7.616A7.694,7.694,0,0,0,57.82.28ZM72.352,0H76.16V-19.684H72.352Zm10.64,0H90.72c5.768,0,10.164-4.172,10.164-9.856s-4.4-9.828-10.22-9.828H82.992Zm7.616-16.3a6.04,6.04,0,0,1,6.356,6.412c0,3.948-2.576,6.5-6.356,6.5H86.8V-16.3ZM120.68.28c4.48,0,7.224-2.212,7.224-5.88,0-7.224-9.3-5.264-9.3-9.044,0-1.26,1.064-1.96,2.828-1.96a4.87,4.87,0,0,1,3.836,1.848l2.52-2.52a8.19,8.19,0,0,0-6.3-2.716c-3.836,0-6.664,2.1-6.664,5.656,0,6.972,9.3,4.872,9.3,9.044,0,1.372-1.26,2.212-3.248,2.212a5.59,5.59,0,0,1-4.816-2.408l-2.52,2.52A8.5,8.5,0,0,0,120.68.28ZM133.7,0h3.808V-8.484h8.54V0h3.808V-19.684h-3.808v7.84h-8.54v-7.84H133.7Zm32.2.308A10.058,10.058,0,0,0,176.064-9.856a10.047,10.047,0,0,0-10.22-10.136A9.994,9.994,0,0,0,155.68-9.884,10.111,10.111,0,0,0,165.9.308Zm-.056-3.556c-3.724,0-6.272-2.688-6.272-6.636,0-3.892,2.548-6.58,6.272-6.58s6.3,2.688,6.3,6.58C172.144-5.936,169.6-3.248,165.844-3.248ZM181.888,0H185.7V-7.308h3.948c3.752,0,6.608-2.408,6.608-6.188s-2.856-6.188-6.608-6.188h-7.756Zm7.364-16.576a2.984,2.984,0,0,1,3.192,3.08,2.969,2.969,0,0,1-3.192,3.08H185.7v-6.16Z" transform="translate(329.285 2470.992)" fill="#061a2a" stroke="rgba(0,0,0,0)" stroke-width="1"/>
  </g>
</svg>
