<svg width="24" height="24" viewBox="0 0 24 24" fill="none" xmlns="http://www.w3.org/2000/svg">
<path d="M14.3234 11.0716C14.236 11.0042 14.134 10.9581 14.0257 10.9369C13.9173 10.9157 13.8055 10.9199 13.6991 10.9494L9.1101 12.1943C8.95792 12.2357 8.82359 12.326 8.7278 12.4514C8.632 12.5767 8.58006 12.73 8.57996 12.8877V16.9192C7.65483 16.4044 6.11711 17.0226 6.15974 18.0531C6.15974 18.7792 6.88295 19.3704 7.77188 19.3704C8.66081 19.3704 9.38482 18.7792 9.38482 18.0531V14.4685L13.8013 13.2698V15.9382C12.8746 15.4234 11.3393 16.0408 11.3807 17.0721C11.441 18.8097 14.5442 18.8109 14.6058 17.0721V11.642C14.6061 11.5315 14.5807 11.4224 14.5317 11.3234C14.4827 11.2243 14.4114 11.1384 14.3234 11.0716ZM7.77188 18.566C6.712 18.537 6.712 17.5693 7.77188 17.5395C8.83176 17.5693 8.83216 18.537 7.77188 18.566ZM9.38482 13.6346V12.9533L13.8013 11.7546V12.4368L9.38482 13.6346ZM12.9928 17.5845C11.9329 17.5556 11.9329 16.5878 12.9928 16.5584C14.0531 16.5878 14.0535 17.5556 12.9928 17.5845Z" fill="#667EEA"/>
<path d="M19.9184 8.29383H3.48731C2.75829 8.29458 2.05934 8.58451 1.54385 9.10001C1.02835 9.6155 0.738416 10.3145 0.737671 11.0435V12.6371C0.737551 12.8265 0.805533 13.0097 0.929215 13.1532C1.0529 13.2966 1.22403 13.3909 1.41141 13.4186C1.82344 13.4833 2.19883 13.693 2.46991 14.01C2.741 14.3269 2.88994 14.7303 2.88989 15.1474C2.88984 15.5645 2.7408 15.9678 2.46965 16.2847C2.1985 16.6016 1.82306 16.8113 1.411 16.8758C1.2237 16.9037 1.05266 16.998 0.929062 17.1414C0.805462 17.2849 0.737537 17.468 0.737671 17.6573V19.251C0.738416 19.98 1.02835 20.6789 1.54385 21.1944C2.05934 21.7099 2.75829 21.9999 3.48731 22.0006H19.9184C20.6474 21.9998 21.3462 21.7098 21.8616 21.1943C22.377 20.6788 22.6669 19.9799 22.6676 19.251V17.6573C22.6678 17.468 22.5999 17.2849 22.4763 17.1414C22.3527 16.998 22.1816 16.9037 21.9943 16.8758C21.5823 16.8112 21.2069 16.6015 20.9357 16.2846C20.6646 15.9677 20.5156 15.5643 20.5156 15.1472C20.5156 14.7301 20.6646 14.3268 20.9357 14.0098C21.2069 13.6929 21.5823 13.4832 21.9943 13.4186C22.1816 13.3908 22.3527 13.2965 22.4763 13.153C22.5999 13.0096 22.6678 12.8265 22.6676 12.6371V11.0435C22.6669 10.3145 22.377 9.61563 21.8616 9.10015C21.3462 8.58466 20.6474 8.29468 19.9184 8.29383ZM21.8708 12.6238C19.019 13.0751 19.0166 17.2209 21.8636 17.6573V19.251C21.8632 19.7667 21.6581 20.2613 21.2934 20.626C20.9287 20.9907 20.4342 21.1957 19.9184 21.1962H3.48731C2.97158 21.1956 2.47713 20.9905 2.11245 20.6258C1.74777 20.2612 1.54266 19.7667 1.54213 19.251L1.53449 17.6714C4.3863 17.2197 4.38911 13.0743 1.54213 12.6375V11.0439C1.54266 10.5281 1.74777 10.0337 2.11245 9.66901C2.47713 9.30433 2.97158 9.09923 3.48731 9.09869H19.9184C20.4341 9.09923 20.9285 9.30435 21.2931 9.66904C21.6577 10.0337 21.8628 10.5282 21.8632 11.0439L21.8708 12.6238Z" fill="#667EEA"/>
<path d="M23.2513 8.37026L22.2147 4.1026C22.0422 3.39376 21.5954 2.78236 20.9725 2.40259C20.3496 2.02282 19.6015 1.90571 18.8923 2.07697L2.92702 5.95849C2.50576 6.06056 2.11462 6.26085 1.78557 6.543C1.45652 6.82514 1.19889 7.18113 1.03372 7.58189C1.01164 7.63111 0.999679 7.68427 0.998561 7.73821C0.997442 7.79215 1.00719 7.84576 1.02721 7.89586C1.04724 7.94596 1.07714 7.99151 1.11514 8.02981C1.15313 8.06812 1.19844 8.09839 1.24838 8.11882C1.29831 8.13925 1.35184 8.14943 1.40579 8.14875C1.45973 8.14806 1.51299 8.13654 1.56239 8.11485C1.61179 8.09316 1.65632 8.06176 1.69334 8.02251C1.73035 7.98326 1.75909 7.93696 1.77785 7.88637C1.89485 7.60326 2.07715 7.35182 2.30987 7.15259C2.54258 6.95337 2.8191 6.81199 3.11687 6.74002L19.0818 2.8589C19.5834 2.74023 20.1116 2.82415 20.5517 3.09245C20.9919 3.36075 21.3085 3.7918 21.4328 4.29205L22.4637 8.53718C22.4858 8.64162 22.5485 8.73301 22.6379 8.79124C22.7274 8.84948 22.8363 8.86979 22.9408 8.8477C23.0452 8.82562 23.1366 8.76296 23.1948 8.67349C23.2531 8.58403 23.2734 8.47469 23.2513 8.37026ZM17.4733 9.77525C17.3666 9.77525 17.2643 9.81762 17.1888 9.89306C17.1134 9.96849 17.071 10.0708 17.071 10.1775C17.071 10.2842 17.1134 10.3865 17.1888 10.4619C17.2643 10.5373 17.3666 10.5797 17.4733 10.5797C17.5799 10.5797 17.6822 10.5373 17.7577 10.4619C17.8331 10.3865 17.8755 10.2842 17.8755 10.1775C17.8755 10.0708 17.8331 9.96849 17.7577 9.89306C17.6822 9.81762 17.5799 9.77525 17.4733 9.77525ZM17.4733 12.1914C17.3666 12.1914 17.2643 12.2338 17.1888 12.3093C17.1134 12.3847 17.071 12.487 17.071 12.5937C17.071 12.7003 17.1134 12.8027 17.1888 12.8781C17.2643 12.9535 17.3666 12.9959 17.4733 12.9959C17.5799 12.9959 17.6822 12.9535 17.7577 12.8781C17.8331 12.8027 17.8755 12.7003 17.8755 12.5937C17.8755 12.487 17.8331 12.3847 17.7577 12.3093C17.6822 12.2338 17.5799 12.1914 17.4733 12.1914ZM17.4733 14.6076C17.3666 14.6076 17.2643 14.65 17.1888 14.7254C17.1134 14.8009 17.071 14.9032 17.071 15.0099C17.071 15.1165 17.1134 15.2189 17.1888 15.2943C17.2643 15.3697 17.3666 15.4121 17.4733 15.4121C17.5799 15.4121 17.6822 15.3697 17.7577 15.2943C17.8331 15.2189 17.8755 15.1165 17.8755 15.0099C17.8755 14.9032 17.8331 14.8009 17.7577 14.7254C17.6822 14.65 17.5799 14.6076 17.4733 14.6076ZM17.4733 17.0238C17.3666 17.0238 17.2643 17.0662 17.1888 17.1416C17.1134 17.2171 17.071 17.3194 17.071 17.4261C17.071 17.5327 17.1134 17.635 17.1888 17.7105C17.2643 17.7859 17.3666 17.8283 17.4733 17.8283C17.5799 17.8283 17.6822 17.7859 17.7577 17.7105C17.8331 17.635 17.8755 17.5327 17.8755 17.4261C17.8755 17.3194 17.8331 17.2171 17.7577 17.1416C17.6822 17.0662 17.5799 17.0238 17.4733 17.0238ZM17.4733 19.4396C17.3666 19.4396 17.2643 19.482 17.1888 19.5574C17.1134 19.6329 17.071 19.7352 17.071 19.8419C17.071 19.9485 17.1134 20.0508 17.1888 20.1263C17.2643 20.2017 17.3666 20.2441 17.4733 20.2441C17.5799 20.2441 17.6822 20.2017 17.7577 20.1263C17.8331 20.0508 17.8755 19.9485 17.8755 19.8419C17.8755 19.7352 17.8331 19.6329 17.7577 19.5574C17.6822 19.482 17.5799 19.4396 17.4733 19.4396Z" fill="#667EEA"/>
</svg>
