<svg width="24" height="24" viewBox="0 0 24 24" fill="none" xmlns="http://www.w3.org/2000/svg">
<path d="M16.1471 12.6535L16.2371 12.649V13.9H15.5801V10.75H16.1741L16.2146 11.0335C16.2716 10.9465 16.3586 10.873 16.4756 10.813C16.5926 10.75 16.7246 10.7185 16.8716 10.7185C17.0606 10.7185 17.2286 10.7665 17.3756 10.8625C17.5226 10.9555 17.6381 11.089 17.7221 11.263C17.8091 11.434 17.8526 11.638 17.8526 11.875C17.8526 12.109 17.8106 12.313 17.7266 12.487C17.6426 12.661 17.5256 12.796 17.3756 12.892C17.2286 12.985 17.0606 13.0315 16.8716 13.0315C16.6976 13.0315 16.5491 12.994 16.4261 12.919C16.3061 12.844 16.2131 12.7555 16.1471 12.6535ZM17.1461 11.875C17.1461 11.71 17.1041 11.578 17.0201 11.479C16.9361 11.377 16.8266 11.326 16.6916 11.326C16.6076 11.326 16.5311 11.347 16.4621 11.389C16.3931 11.431 16.3376 11.4925 16.2956 11.5735C16.2566 11.6545 16.2371 11.755 16.2371 11.875C16.2371 11.992 16.2566 12.0925 16.2956 12.1765C16.3376 12.2575 16.3931 12.3205 16.4621 12.3655C16.5311 12.4075 16.6076 12.4285 16.6916 12.4285C16.8266 12.4285 16.9361 12.3775 17.0201 12.2755C17.1041 12.1735 17.1461 12.04 17.1461 11.875Z" fill="#667EEA"/>
<path d="M14.0094 13.0315C13.7904 13.0315 13.5939 12.985 13.4199 12.892C13.2459 12.799 13.1094 12.6655 13.0104 12.4915C12.9144 12.3175 12.8664 12.112 12.8664 11.875C12.8664 11.638 12.9159 11.434 13.0149 11.263C13.1169 11.089 13.2549 10.9555 13.4289 10.8625C13.6059 10.7665 13.8024 10.7185 14.0184 10.7185C14.2404 10.7185 14.4384 10.7665 14.6124 10.8625C14.7894 10.9555 14.9289 11.089 15.0309 11.263C15.1329 11.434 15.1839 11.6365 15.1839 11.8705C15.1839 12.1105 15.1314 12.3175 15.0264 12.4915C14.9244 12.6655 14.7834 12.799 14.6034 12.892C14.4264 12.985 14.2284 13.0315 14.0094 13.0315ZM14.0094 12.4375C14.0874 12.4375 14.1624 12.4165 14.2344 12.3745C14.3064 12.3325 14.3634 12.271 14.4054 12.19C14.4504 12.106 14.4729 12.001 14.4729 11.875C14.4729 11.749 14.4504 11.6455 14.4054 11.5645C14.3634 11.4805 14.3079 11.4175 14.2389 11.3755C14.1699 11.3335 14.0964 11.3125 14.0184 11.3125C13.9344 11.3125 13.8594 11.3335 13.7934 11.3755C13.7274 11.4175 13.6734 11.4805 13.6314 11.5645C13.5924 11.6455 13.5729 11.749 13.5729 11.875C13.5729 12.001 13.5924 12.106 13.6314 12.19C13.6704 12.271 13.7229 12.3325 13.7889 12.3745C13.8549 12.4165 13.9284 12.4375 14.0094 12.4375Z" fill="#667EEA"/>
<path d="M11.3889 11.272C11.4969 11.272 11.5854 11.2555 11.6544 11.2225C11.7234 11.1895 11.7744 11.1415 11.8074 11.0785C11.8434 11.0125 11.8614 10.936 11.8614 10.849C11.8614 10.72 11.8224 10.618 11.7444 10.543C11.6694 10.468 11.5509 10.4305 11.3889 10.4305H10.7454V11.272H11.3889ZM12.5679 10.849C12.5679 10.972 12.5454 11.0935 12.5004 11.2135C12.4584 11.3305 12.3909 11.4385 12.2979 11.5375C12.2079 11.6335 12.0894 11.71 11.9424 11.767C11.7984 11.824 11.6259 11.8525 11.4249 11.8525H10.7454V13H10.0479V9.85H11.4249C11.6799 9.85 11.8914 9.8965 12.0594 9.9895C12.2304 10.0795 12.3579 10.201 12.4419 10.354C12.5259 10.504 12.5679 10.669 12.5679 10.849Z" fill="#667EEA"/>
<path d="M5.27673 11.425C5.27673 11.191 5.31573 10.9765 5.39373 10.7815C5.47473 10.5835 5.58573 10.4125 5.72673 10.2685C5.86773 10.1245 6.03573 10.0135 6.23073 9.9355C6.42573 9.8575 6.63723 9.8185 6.86523 9.8185C7.20423 9.8185 7.49973 9.901 7.75173 10.066C8.00373 10.231 8.18673 10.462 8.30073 10.759L7.70673 10.9075C7.64973 10.7875 7.57773 10.6915 7.49073 10.6195C7.40373 10.5445 7.30773 10.4905 7.20273 10.4575C7.09773 10.4215 6.98673 10.4035 6.86973 10.4035C6.68973 10.4035 6.53223 10.4485 6.39723 10.5385C6.26223 10.6255 6.15723 10.7455 6.08223 10.8985C6.01023 11.0515 5.97423 11.227 5.97423 11.425C5.97423 11.626 6.01023 11.803 6.08223 11.956C6.15723 12.109 6.26223 12.229 6.39723 12.316C6.53223 12.403 6.68973 12.4465 6.86973 12.4465C6.98973 12.4465 7.10373 12.4285 7.21173 12.3925C7.32273 12.3565 7.42323 12.2965 7.51323 12.2125C7.60623 12.1285 7.68423 12.016 7.74723 11.875L8.33223 12.01C8.21223 12.343 8.02473 12.5965 7.76973 12.7705C7.51473 12.9445 7.21323 13.0315 6.86523 13.0315C6.63723 13.0315 6.42573 12.9925 6.23073 12.9145C6.03573 12.8365 5.86773 12.727 5.72673 12.586C5.58573 12.442 5.47473 12.2725 5.39373 12.0775C5.31573 11.8795 5.27673 11.662 5.27673 11.425Z" fill="#667EEA"/>
<path d="M17.8659 16.9802C18.9353 15.8836 19.9224 14.6508 20.655 13.3819C25.3143 5.31183 16.7462 -0.0511781 11.9999 4.69516C10.2915 2.98679 8.08816 2.58837 6.18458 3.15423M8.48787 19.0847C9.82092 20.1171 11.0941 20.8443 11.9999 21.087C12.9912 20.8214 14.4225 19.9756 15.8908 18.7844M4.21056 4.18028C2.01247 5.92158 0.991822 9.30642 3.34479 13.3819C3.998 14.5133 4.85365 15.6158 5.78938 16.6188" stroke="#667EEA" stroke-miterlimit="22.926" stroke-linecap="round" stroke-linejoin="round"/>
<path d="M16.9103 20.3634C17.0682 19.774 17.3785 19.2367 17.8099 18.8052C18.2413 18.3738 18.7787 18.0636 19.368 17.9057C18.7787 17.7478 18.2413 17.4375 17.8099 17.0061C17.3785 16.5747 17.0682 16.0373 16.9103 15.448C16.7524 16.0373 16.4422 16.5747 16.0107 17.0061C15.5793 17.4375 15.042 17.7478 14.4526 17.9057C15.042 18.0636 15.5793 18.3738 16.0108 18.8052C16.4422 19.2367 16.7524 19.774 16.9103 20.3634Z" stroke="#667EEA" stroke-miterlimit="22.926" stroke-linecap="round" stroke-linejoin="round"/>
<path d="M5.48525 5.79711C5.60723 5.34186 5.8469 4.92675 6.18016 4.59348C6.51342 4.26021 6.92854 4.02053 7.38378 3.89854C6.92853 3.77656 6.51341 3.5369 6.18015 3.20363C5.84688 2.87037 5.60722 2.45525 5.48525 2C5.36326 2.45525 5.12359 2.87038 4.79032 3.20364C4.45705 3.5369 4.04193 3.77656 3.58667 3.89854C4.04192 4.02053 4.45704 4.2602 4.79031 4.59347C5.12358 4.92674 5.36325 5.34186 5.48525 5.79711Z" stroke="#667EEA" stroke-miterlimit="22.926" stroke-linecap="round" stroke-linejoin="round"/>
<path d="M5.21109 22.0001C5.31468 21.6135 5.51821 21.261 5.80121 20.9779C6.08422 20.6949 6.43673 20.4914 6.82333 20.3878C6.43673 20.2842 6.08422 20.0807 5.80121 19.7977C5.51821 19.5147 5.31468 19.1622 5.21109 18.7756C5.1075 19.1622 4.90396 19.5147 4.62095 19.7977C4.33794 20.0807 3.98542 20.2842 3.59882 20.3878C3.98542 20.4914 4.33794 20.6949 4.62096 20.9779C4.90397 21.2609 5.1075 21.6135 5.21109 22.0001Z" stroke="#667EEA" stroke-miterlimit="22.926" stroke-linecap="round" stroke-linejoin="round"/>
<path d="M7.08923 17.9057H7.08961" stroke="#667EEA" stroke-miterlimit="2.613" stroke-linecap="round" stroke-linejoin="round"/>
</svg>
