<svg width="24" height="24" viewBox="0 0 24 24" fill="none" xmlns="http://www.w3.org/2000/svg">
<path d="M8.70437 12.8565C8.20237 12.3545 7.44698 13.1149 7.94803 13.6135L10.3981 16.06C10.8999 16.5618 11.6553 15.8017 11.1545 15.303L8.70437 12.8565Z" fill="#667EEA"/>
<path d="M19.2144 18.4573L19.7875 17.8842C20.2886 17.3831 19.5316 16.6263 19.0305 17.1271L18.4573 17.7003L16.0149 15.2575C16.7035 14.4968 17.148 13.5469 17.2906 12.5307C17.4333 11.5145 17.2676 10.4789 16.815 9.55798L20.4609 5.91783L21.0761 6.53237C21.5779 7.03414 22.3333 6.27399 21.8325 5.77532L21.2182 5.16173L21.512 4.86837C21.6657 4.71557 21.7876 4.53374 21.8705 4.33345C21.9533 4.13315 21.9956 3.91838 21.9947 3.70162C21.9952 3.48249 21.9521 3.26544 21.868 3.0631C21.7838 2.86076 21.6603 2.67716 21.5046 2.52298C20.8568 1.87465 19.804 1.87203 19.1573 2.51608L18.8635 2.80967L18.2161 2.16348C17.7131 1.66385 16.9601 2.42281 17.4598 2.92196L18.1055 3.56648L14.4606 7.20616C13.5391 6.75485 12.5038 6.58937 11.4876 6.73097C10.4715 6.87257 9.52083 7.31479 8.7579 8.0008L2.94984 2.19251C2.44878 1.69145 1.69197 2.44851 2.19278 2.94956L8.7284 9.48494C8.64917 9.78257 8.50071 10.0576 8.27968 10.2786C7.59234 10.966 6.47341 10.966 5.78464 10.2786C5.73498 10.2289 5.67602 10.1895 5.61111 10.1625C5.54619 10.1356 5.47661 10.1218 5.40635 10.1218C5.33608 10.1218 5.2665 10.1356 5.20159 10.1625C5.13668 10.1895 5.07771 10.2289 5.02806 10.2786L3.81134 11.4942C2.64792 12.6557 2.00745 14.1995 2.00745 15.8423C2.00745 17.4852 2.64792 19.0297 3.81158 20.191C5.01188 21.3899 6.58856 21.9887 8.16548 21.9887C9.74217 21.9887 11.3191 21.3899 12.5194 20.191L13.7363 18.9755C13.9457 18.7668 13.9457 18.4271 13.7363 18.2184C13.5722 18.0554 13.4421 17.8615 13.3535 17.6478C13.2649 17.4341 13.2196 17.205 13.2203 16.9736C13.2203 16.5038 13.4037 16.0619 13.7368 15.7296C13.9562 15.5102 14.2307 15.3639 14.5272 15.2842L17.7005 18.4573L17.1274 19.0307C16.6263 19.5317 17.3874 20.2845 17.8844 19.7877L18.4576 19.2144L21.0787 21.8355C21.5798 22.3366 22.3366 21.5795 21.8358 21.0784L19.2144 18.4573ZM15.2581 14.501L13.5624 12.8053L16.0144 10.3571C16.5526 11.7587 16.2652 13.3559 15.2581 14.501ZM17.4783 5.70489L18.3186 6.54403L12.8066 12.0478L11.9667 11.2087L17.4783 5.70489ZM20.748 3.28003C20.9805 3.51319 20.9821 3.88315 20.7549 4.11155L19.0757 5.78816L18.2351 4.94903L19.9127 3.27384C20.142 3.04568 20.5165 3.04996 20.748 3.28003ZM13.6588 8.00604L11.2094 10.4521L9.51448 8.75714C10.6605 7.75527 12.257 7.46834 13.6588 8.00604ZM12.9805 14.9725C12.7165 15.2345 12.5071 15.5463 12.3645 15.8898C12.222 16.2333 12.149 16.6017 12.1499 16.9736C12.1499 17.5487 12.32 18.0966 12.6364 18.5615L11.7635 19.4335C9.77905 21.4144 6.55145 21.4137 4.56768 19.4342C3.60721 18.4744 3.07808 17.1987 3.07808 15.8423C3.07808 14.486 3.60721 13.2103 4.56768 12.2512L5.44251 11.3778C6.5455 12.1258 8.06056 12.0107 9.03674 11.0357C9.24694 10.8236 9.42231 10.5797 9.55635 10.3129L13.6987 14.4555C13.4337 14.5891 13.1913 14.7636 12.9805 14.9725Z" fill="#667EEA"/>
</svg>
