<svg width="24" height="24" viewBox="0 0 24 24" fill="none" xmlns="http://www.w3.org/2000/svg">
<path fill-rule="evenodd" clip-rule="evenodd" d="M21.2952 10.35C21.4492 8.68025 21.4707 6.89468 21.3601 4.89695H21.3598C21.3276 3.59387 17.9342 3 14.7798 3C11.6253 3 8.23193 3.59387 8.19974 4.89695H8.19949C8.03587 7.85077 8.1638 10.4199 8.59004 12.7341C7.03256 12.6784 5.48824 12.773 3.96721 13.0191L3.96731 13.0196L3.04894 13.3122C2.58264 13.463 2.24601 13.8363 2.12529 14.3362C1.71793 16.0238 1.71732 17.7224 2.12351 19.385C2.2451 19.8829 2.58138 20.2547 3.0461 20.4051L3.96904 20.6994C5.20871 20.8999 6.46362 21.0001 7.72873 21.0001C9.70128 21.0001 11.6983 20.7566 13.6991 20.2707L13.9562 20.1838C14.8591 20.6738 15.8681 20.9312 16.9083 20.9312C20.3279 20.9312 23.11 18.1492 23.11 14.7295C23.11 13.0215 22.416 11.4727 21.2952 10.35ZM12.9609 19.7498C10.6591 20.2538 8.17558 20.4546 5.82629 20.2481L13.283 18.3218V19.6762L12.9609 19.7498ZM4.42827 13.6298C6.93413 13.2654 9.44835 13.326 11.9404 13.7664L4.35761 15.2793L4.35766 13.64C4.38116 13.6366 4.40477 13.6332 4.42827 13.6298ZM20.6123 10.629C20.5918 10.6333 20.5714 10.6387 20.5516 10.6469L18.1977 11.6171L17.2192 9.26651C17.2105 9.24604 17.1996 9.22649 17.187 9.20818C18.5011 9.27372 19.6957 9.80027 20.6123 10.629ZM16.9084 17.2915C16.407 17.2915 15.9281 17.1487 15.513 16.878C15.5112 16.2051 15.4571 15.5228 15.3503 14.8354C15.2811 14.39 15.036 14.0237 14.6774 13.8122L14.5977 13.6186C15.0148 12.7426 15.8992 12.1676 16.9084 12.1676C18.3211 12.1676 19.4703 13.3168 19.4703 14.7295C19.4703 16.1422 18.3211 17.2915 16.9084 17.2915ZM17.4354 17.9212L16.9084 19.1872L16.3819 17.9224C16.7308 17.9793 17.0867 17.9789 17.4354 17.9212ZM17.4354 11.5379C17.0836 11.48 16.7349 11.4795 16.3813 11.5382L16.9084 10.2719L17.4354 11.5379ZM14.2793 12.8462L13.7564 11.5775L15.0244 12.1001C14.7326 12.309 14.4877 12.5552 14.2793 12.8462ZM13.283 17.4648L5.62835 15.7125L13.283 14.1853V17.4648ZM18.7908 12.1008L20.0604 11.5775L19.5371 12.8471C19.3305 12.5595 19.0785 12.3074 18.7908 12.1008ZM16.5976 9.26651L15.6192 11.6171L13.2653 10.6469C13.2433 10.6381 13.2205 10.6317 13.1972 10.6278C14.1214 9.7922 15.3236 9.27382 16.6295 9.20884C16.6173 9.22691 16.6062 9.24585 16.5976 9.26651ZM12.8065 11.0181C12.8107 11.0412 12.8164 11.0641 12.8257 11.0863L13.8147 13.4857L13.6991 13.4475C13.0204 13.2826 12.3354 13.1447 11.6457 13.0341C11.8846 12.2871 12.2804 11.5997 12.8065 11.0181ZM12.1972 17.907L4.35766 19.9321V16.1124L12.1972 17.907ZM13.9562 19.404V14.2719L13.9702 14.2512L14.206 14.3323C14.4643 14.4211 14.6389 14.6422 14.685 14.9388C14.889 16.2526 14.8914 17.5456 14.692 18.7816C14.6445 19.0758 14.4702 19.295 14.2138 19.3833L14.0267 19.4476C14.0032 19.4332 13.9796 19.4188 13.9562 19.404ZM15.3567 18.8889C15.4233 18.4749 15.4686 18.0578 15.4924 17.6391C15.51 17.6478 15.5276 17.6565 15.5454 17.6648L16.5976 20.1926C16.6062 20.2132 16.6172 20.232 16.6293 20.2501C15.9915 20.2184 15.3704 20.0781 14.788 19.836C15.0878 19.62 15.2926 19.2863 15.3567 18.8889ZM17.2192 20.1926L18.1976 17.842C18.4602 17.9502 20.5305 18.8138 20.6117 18.8306C19.6952 19.659 18.5007 20.1854 17.1869 20.2509C17.1992 20.2326 17.2105 20.2135 17.2192 20.1926ZM18.7908 17.3582C19.0785 17.1517 19.3305 16.8996 19.5371 16.612L20.0604 17.8816L18.7908 17.3582ZM20.1001 14.2026L21.3661 14.7295L20.1001 15.2565C20.1581 14.9076 20.1581 14.5515 20.1001 14.2026ZM20.0209 13.4404L20.9912 11.0864C20.9993 11.0665 21.0048 11.0462 21.009 11.0257C21.8377 11.9423 22.3643 13.137 22.4298 14.4511C22.4115 14.4384 22.3919 14.4276 22.3715 14.4188L20.0209 13.4404ZM8.83265 5.80228C11.0463 7.17354 18.5145 7.1737 20.7275 5.80182C20.7365 6.04616 20.7434 6.28736 20.7481 6.5255C20.6882 6.68055 20.2791 7.01297 19.0659 7.3034C16.6762 7.87545 12.8832 7.87545 10.4936 7.3034C9.28458 7.01398 8.87398 6.68278 8.81199 6.52708C8.81661 6.28832 8.82377 6.04642 8.83265 5.80228ZM10.447 4.12545C12.8332 3.52209 16.7262 3.52209 19.1124 4.12545C20.3979 4.45046 20.6872 4.81385 20.6872 4.91548C20.6872 5.01712 20.3979 5.38046 19.1124 5.70552C16.7265 6.30883 12.8329 6.30878 10.447 5.70552C9.16157 5.38051 8.87225 5.01712 8.87225 4.91548C8.87225 4.81385 9.16157 4.45056 10.447 4.12545ZM8.80509 7.40037C11.0809 8.73777 18.4819 8.73777 20.7559 7.39946C20.7537 8.23269 20.724 9.02978 20.666 9.79936C19.6225 9.00216 18.3199 8.5278 16.9084 8.5278C14.1553 8.5278 11.7556 10.3253 10.9705 12.9349C10.4098 12.8603 9.84677 12.8049 9.2823 12.7686C8.96901 11.13 8.81088 9.35672 8.80509 7.40037ZM3.68434 19.904L3.25338 19.7645C3.01244 19.6866 2.84343 19.4951 2.77754 19.2253C2.39709 17.6681 2.39785 16.0764 2.77977 14.4943C2.84516 14.2233 3.01437 14.0311 3.25617 13.9528L3.68429 13.8143L3.68434 19.904ZM21.0089 18.4334C21.0049 18.4127 20.999 18.3924 20.9911 18.3728L20.0209 16.0188L22.3715 15.0404C22.3919 15.0316 22.4115 15.0208 22.4298 15.0081C22.3643 16.3222 21.8377 17.5168 21.0089 18.4334ZM3.55249 7.00794C3.55251 6.95227 3.56633 6.89746 3.59272 6.84844C3.6191 6.79941 3.65722 6.75768 3.70368 6.727L6.64785 4.78339C6.87087 4.63617 7.16999 4.7971 7.16999 5.06433V9.76113H7.16928C7.1805 10.2195 6.87645 10.6472 6.42031 10.7686C5.88889 10.9101 5.34695 10.5899 5.21699 10.0468C5.03438 9.28377 5.76298 8.60248 6.49667 8.84611V7.06089L4.22582 8.61751V11.6144C4.27638 12.1052 3.96188 12.5791 3.47624 12.7084C2.9408 12.8509 2.39491 12.5283 2.26398 11.9812C2.08005 11.2129 2.81343 10.5263 3.55249 10.7711V7.00794ZM3.30303 12.0578C3.12991 12.1039 2.96065 11.999 2.91882 11.8244C2.84861 11.5313 3.16073 11.2935 3.40329 11.4382C3.47731 11.4823 3.54518 11.575 3.55255 11.6589V11.7792H3.55326C3.53097 11.9097 3.43609 12.0224 3.30303 12.0578ZM6.2471 10.118C6.07794 10.163 5.91265 10.0606 5.87183 9.89003C5.8036 9.60482 6.10678 9.37002 6.34523 9.51222C6.58597 9.65579 6.52835 10.0431 6.2471 10.118ZM6.49667 5.68993V6.24466L4.22582 7.80128V7.18913L6.49667 5.68993ZM2.39207 8.3228C1.64498 8.76869 0.713003 8.07095 0.918964 7.21015C1.05537 6.63988 1.64645 6.31614 2.19864 6.51231V4.25963C2.19864 4.02046 2.44522 3.85649 2.6657 3.94924C3.59641 4.3407 3.41847 4.46762 3.79262 5.03342C3.92695 5.23658 4.05874 5.28512 4.24922 5.26242C4.33738 5.25287 4.42575 5.27847 4.49514 5.33368C4.56453 5.38889 4.60934 5.46924 4.61983 5.55729C4.63033 5.64535 4.60567 5.73398 4.5512 5.80396C4.49673 5.87393 4.41686 5.91959 4.32892 5.93102C4.21781 5.94451 4.10538 5.94282 3.99472 5.926C3.22596 5.80802 3.07234 4.99184 2.87191 4.8108V7.45753C2.87191 7.81508 2.70179 8.13806 2.39207 8.3228ZM1.5737 7.36681C1.61477 7.19512 1.78104 7.09414 1.94897 7.13887C2.23032 7.2138 2.28774 7.60115 2.04716 7.74457C1.8086 7.88682 1.50552 7.65187 1.5737 7.36681Z" fill="#667EEA"/>
</svg>
