<svg width="24" height="24" viewBox="0 0 24 24" fill="none" xmlns="http://www.w3.org/2000/svg">
<path d="M20.4528 3.92649L20.8181 3.25868L21.486 2.89371L20.8181 2.52834L20.4528 1.86092L20.0878 2.52834L19.42 2.89371L20.0878 3.25868L20.4528 3.92649ZM5.30633 19.3958L5.05817 19.8493L4.60431 20.0975L5.05817 20.346L5.30633 20.7995L5.5545 20.346L6.00836 20.0975L5.5545 19.8493L5.30633 19.3958ZM19.6056 16.3533L19.3575 16.8072L18.9036 17.0553L19.3575 17.3035L19.6056 17.7574L19.8538 17.3035L20.3076 17.0553L19.8538 16.8072L19.6056 16.3533ZM2.39244 4.18921L2.6406 3.73574L3.09446 3.48718L2.6406 3.23902L2.39244 2.78555L2.14427 3.23902L1.69041 3.48718L2.14427 3.73574L2.39244 4.18921ZM4.52447 12.0853C4.60663 12.1477 4.71001 12.1753 4.81234 12.1622C4.91467 12.1491 5.00775 12.0963 5.07152 12.0152C5.13529 11.9341 5.16463 11.8312 5.15323 11.7287C5.14183 11.6261 5.0906 11.5322 5.01058 11.4671L3.90268 10.5967C3.84437 10.5522 3.77484 10.5247 3.70185 10.5174C3.62886 10.5101 3.55527 10.5232 3.48928 10.5553C3.4233 10.5873 3.36751 10.6371 3.32814 10.699C3.28878 10.7609 3.26738 10.8325 3.26633 10.9058V13.0257C2.47975 12.6922 1.47017 13.2813 1.49416 14.1214C1.53231 15.6474 3.9247 15.704 4.04741 14.1867C4.05368 14.1595 4.05554 14.1315 4.05291 14.1037V11.7144L4.52447 12.0853ZM3.26594 14.1289C3.24627 14.6496 2.28979 14.6429 2.28074 14.121C2.29057 13.592 3.26712 13.5956 3.26633 14.1289H3.26594ZM22.5435 6.98158L21.4356 6.11044C21.3773 6.0659 21.3077 6.03845 21.2347 6.03115C21.1617 6.02384 21.088 6.03697 21.022 6.06908C20.956 6.10118 20.9003 6.15099 20.8609 6.21294C20.8216 6.2749 20.8002 6.34657 20.7993 6.41996V8.5398C20.0127 8.20629 19.0031 8.79544 19.0267 9.63512C19.0645 11.1583 21.4509 11.2197 21.5796 9.70591C21.5862 9.67812 21.5884 9.64943 21.5858 9.62096V7.22935L22.057 7.60023C22.139 7.66469 22.2433 7.69392 22.3469 7.68149C22.4505 7.66907 22.5449 7.61599 22.6094 7.53396C22.6738 7.45192 22.7031 7.34763 22.6907 7.24404C22.6782 7.14045 22.6255 7.04604 22.5435 6.98158ZM20.7993 9.64141C20.7812 10.1633 19.8223 10.1574 19.8133 9.63512C19.8231 9.10693 20.7981 9.10889 20.7993 9.64141ZM16.5144 14.2103C16.238 14.2109 15.9677 14.291 15.7356 14.4411L13.8443 15.6513L13.4439 13.8186C13.4359 13.7799 13.4316 13.7405 13.4309 13.701L13.4506 9.51044C13.4511 9.39067 13.4952 9.27519 13.5748 9.18568C13.6544 9.09618 13.7639 9.0388 13.8828 9.02433L16.5619 8.70105C16.7636 8.67495 16.9568 8.6038 17.1273 8.49289C17.2978 8.38198 17.4411 8.23414 17.5466 8.06033C17.6522 7.88651 17.7173 7.69117 17.7371 7.48878C17.757 7.28638 17.731 7.08212 17.6612 6.89112L16.1746 2.91731C16.067 2.6395 15.866 2.40786 15.6061 2.26222C15.3462 2.11659 15.0437 2.06605 14.7506 2.11931C14.4575 2.17257 14.1921 2.32629 14.0001 2.55404C13.808 2.78179 13.7014 3.06934 13.6984 3.36723C13.6315 3.615 14.5955 6.00386 14.671 6.28742C14.6108 6.28349 12.5622 6.62172 12.5744 6.55486L9.30729 5.81311C9.23727 5.79605 9.1723 5.76263 9.11772 5.71557C8.72168 5.36476 7.78132 4.31703 7.60512 2.1787C7.25667 0.327875 4.47452 0.784486 4.74865 2.65931C4.99052 4.06414 5.67917 6.67324 7.57091 8.36282C8.0869 8.76476 7.95004 9.56078 7.9642 10.12C7.9642 10.2244 8.00563 10.3244 8.07939 10.3981C8.15315 10.4719 8.25318 10.5133 8.35749 10.5133C8.4618 10.5133 8.56183 10.4719 8.63559 10.3981C8.70934 10.3244 8.75078 10.2244 8.75078 10.12V9.21941C8.74845 8.9467 8.68901 8.67751 8.57629 8.42918C8.46357 8.18085 8.30008 7.95889 8.09634 7.7776C6.38159 6.24573 5.74839 3.82974 5.52382 2.52519C5.50562 2.35971 5.55018 2.19343 5.64869 2.05922C5.7472 1.92502 5.89249 1.83267 6.05582 1.80043C6.21915 1.7682 6.38863 1.79844 6.53074 1.88516C6.67284 1.97188 6.77723 2.10878 6.82326 2.26877C7.02856 4.67374 8.13056 5.89177 8.59622 6.30472C8.7484 6.43795 8.93078 6.53204 9.12755 6.57885C9.41466 6.61464 12.6487 7.45589 12.8453 7.34341L15.2601 6.99731C15.3178 6.98863 15.3728 6.96732 15.4213 6.93491C15.4698 6.9025 15.5105 6.85979 15.5406 6.80982C15.5706 6.75985 15.5893 6.70386 15.5952 6.64585C15.6011 6.58784 15.5941 6.52924 15.5748 6.47423L14.5129 3.5332C14.4691 3.41076 14.4755 3.27598 14.5307 3.15823C14.5858 3.04048 14.6853 2.94931 14.8074 2.90458C14.9295 2.85985 15.0643 2.8652 15.1825 2.91944C15.3007 2.97369 15.3926 3.07244 15.4383 3.19418L16.925 7.16643C16.954 7.24595 16.9648 7.331 16.9566 7.41527C16.9484 7.49954 16.9213 7.58089 16.8774 7.65328C16.8335 7.72567 16.7738 7.78726 16.7029 7.8335C16.6319 7.87973 16.5515 7.90942 16.4676 7.92037L13.7877 8.24326C13.4785 8.28126 13.1938 8.43074 12.9869 8.66366C12.78 8.89658 12.6652 9.19696 12.664 9.50848L12.6444 13.699C12.598 13.7572 13.1753 16.231 13.1965 16.3706C13.2106 16.4322 13.2392 16.4895 13.2799 16.5378C13.3206 16.586 13.3723 16.6239 13.4306 16.6481C13.4889 16.6724 13.5522 16.6823 13.6151 16.6772C13.678 16.672 13.7388 16.6518 13.7924 16.6184L16.1612 15.1034C16.3078 15.0137 16.4837 14.9847 16.6514 15.0226C16.8191 15.0606 16.9654 15.1625 17.0591 15.3067C17.1528 15.4509 17.1865 15.6259 17.1531 15.7946C17.1197 15.9633 17.0217 16.1122 16.8801 16.2098L16.066 16.7446C15.9788 16.802 15.918 16.8917 15.8969 16.9939C15.8758 17.0961 15.8962 17.2025 15.9535 17.2897C16.0109 17.3769 16.1005 17.4378 16.2028 17.4589C16.305 17.48 16.4114 17.4596 16.4986 17.4022L17.3127 16.867C17.5697 16.6937 17.7646 16.4428 17.8687 16.1509C17.9729 15.859 17.981 15.5414 17.8918 15.2446C17.8026 14.9478 17.6208 14.6873 17.373 14.5012C17.1251 14.3151 16.8243 14.2132 16.5144 14.2103Z" fill="#667EEA"/>
<path d="M14.7489 17.6099L13.6296 18.3442C13.5102 18.4207 13.3739 18.4667 13.2326 18.4782C13.0913 18.4896 12.9494 18.4661 12.8193 18.4098C12.6892 18.3534 12.575 18.266 12.4866 18.1551C12.3983 18.0442 12.3386 17.9133 12.3128 17.7739L11.844 15.0197C11.8042 14.7828 11.6888 14.5653 11.5152 14.3994C11.3415 14.2335 11.1189 14.1283 10.8805 14.0994C10.5959 14.0722 10.3109 14.1479 10.0774 14.3128C9.84383 14.4777 9.67708 14.7208 9.60737 14.998C8.78185 17.5635 9.86615 19.9276 10.5859 21.1086C10.6826 21.2676 10.7132 21.4581 10.6711 21.6393C10.629 21.8206 10.5175 21.9781 10.3605 22.0781C10.2249 22.1782 10.0586 22.2281 9.89025 22.2192C9.72187 22.2103 9.56181 22.1432 9.43747 22.0293C7.05491 18.8303 8.21826 14.895 8.6324 13.7627C8.82944 13.3124 8.72758 12.1762 8.75078 11.6932C8.75078 11.5889 8.70934 11.4889 8.63559 11.4151C8.56183 11.3414 8.4618 11.2999 8.35749 11.2999C8.25318 11.2999 8.15315 11.3414 8.07939 11.4151C8.00563 11.4889 7.9642 11.5889 7.9642 11.6932C7.9406 12.0153 8.02712 13.2121 7.8934 13.4929C7.44427 14.7216 6.18259 19.0045 8.82551 22.5248C9.08405 22.7968 9.43351 22.9644 9.80746 22.9956C10.1814 23.0268 10.5538 22.9196 10.8539 22.6943C11.154 22.469 11.3609 22.1413 11.4353 21.7735C11.5096 21.4057 11.4463 21.0234 11.2572 20.6992C10.6103 19.6369 9.63333 17.5206 10.3487 15.2631L10.4404 15.0688C10.4712 15.0059 10.5212 14.9542 10.583 14.9212C10.6449 14.8882 10.7156 14.8754 10.7851 14.8848C10.8545 14.8941 10.9193 14.9251 10.9703 14.9733C11.0212 15.0215 11.0557 15.0845 11.0688 15.1534L11.5376 17.9096C11.6031 18.2911 11.8015 18.6372 12.0976 18.8865C12.3937 19.1359 12.7685 19.2724 13.1556 19.2719C13.8085 19.329 14.6568 18.5738 15.1807 18.2675C15.2679 18.2102 15.3288 18.1205 15.3499 18.0184C15.371 17.9162 15.3507 17.8098 15.2934 17.7226C15.2361 17.6354 15.1465 17.5745 15.0443 17.5534C14.9421 17.5322 14.8361 17.5526 14.7489 17.6099ZM11.1097 5.72147C11.702 5.72085 12.2699 5.48529 12.6887 5.06649C13.1075 4.64769 13.343 4.07985 13.3436 3.48758C13.2394 0.530025 8.97968 0.531205 8.87585 3.48758C8.87647 4.07985 9.11203 4.64769 9.53083 5.06649C9.94963 5.48529 10.5175 5.72085 11.1097 5.72147ZM11.1097 2.03987C11.4936 2.03987 11.8618 2.19238 12.1333 2.46384C12.4047 2.7353 12.5573 3.10348 12.5573 3.48738C12.5573 3.87128 12.4047 4.23946 12.1333 4.51092C11.8618 4.78238 11.4936 4.93489 11.1097 4.93489C10.7258 4.93489 10.3577 4.78238 10.0862 4.51092C9.81474 4.23946 9.66223 3.87128 9.66223 3.48738C9.66223 3.10348 9.81474 2.7353 10.0862 2.46384C10.3577 2.19238 10.7258 2.03987 11.1097 2.03987Z" fill="#667EEA"/>
</svg>
