<svg width="24" height="24" viewBox="0 0 24 24" fill="none" xmlns="http://www.w3.org/2000/svg">
<g clip-path="url(#clip0_143_34251)">
<path d="M22.5441 8.86165C22.5331 8.82438 22.5137 8.79008 22.4876 8.76127C22.4615 8.73247 22.4293 8.7099 22.3933 8.69523C21.0986 8.15129 19.1985 7.72894 16.8981 7.47366C14.0375 7.14559 10.3556 7.11168 7.10071 7.47362C5.09235 7.69651 3.3892 8.04675 2.12753 8.49404C2.6904 6.91214 3.62906 5.46881 4.88133 4.3093C4.90679 4.28623 4.92742 4.25834 4.94204 4.22725C4.95665 4.19615 4.96495 4.16247 4.96646 4.12815C4.96796 4.09382 4.96265 4.05954 4.95082 4.02728C4.93899 3.99503 4.92088 3.96544 4.89754 3.94023C4.8742 3.91501 4.84609 3.89468 4.81484 3.88041C4.78359 3.86613 4.74981 3.8582 4.71548 3.85706C4.68114 3.85592 4.64691 3.86161 4.61479 3.87379C4.58266 3.88597 4.55327 3.90439 4.52831 3.92801C0.719972 7.45405 -0.0132103 13.0097 2.36713 17.3146C2.38961 17.3553 2.42258 17.3892 2.46261 17.4128C2.50264 17.4364 2.54827 17.4488 2.59474 17.4488C2.78978 17.4488 2.91844 17.2378 2.82191 17.0632C1.71402 15.0595 1.2595 12.6544 1.66877 10.2521C2.41771 10.4956 3.29315 10.5358 4.04833 10.4217C4.35306 10.8665 4.53961 11.6288 4.59387 12.6506C3.92097 12.4996 3.37131 12.3235 2.92095 12.1171C2.85844 12.0893 2.78745 12.0872 2.72342 12.1113C2.65938 12.1355 2.60747 12.1839 2.57895 12.2462C2.55043 12.3084 2.54761 12.3793 2.5711 12.4436C2.5946 12.5079 2.64251 12.5603 2.70443 12.5895C3.91292 13.1435 5.6201 13.4005 6.94338 13.5499C7.06243 13.5634 7.15687 13.6549 7.17311 13.7726L7.87741 18.8869C7.90192 19.0651 7.7462 19.1802 7.56016 19.1802C5.80526 19.1802 3.93279 18.753 3.91404 18.7486C3.84691 18.7332 3.77639 18.745 3.71797 18.7816C3.65956 18.8181 3.61802 18.8763 3.60247 18.9434C3.59479 18.9766 3.59373 19.011 3.59936 19.0447C3.60499 19.0783 3.61719 19.1106 3.63527 19.1395C3.65335 19.1684 3.67695 19.1935 3.70473 19.2133C3.73251 19.2331 3.76392 19.2473 3.79716 19.2549C3.87602 19.2732 5.74451 19.6998 7.55986 19.6998C8.10601 19.6998 8.45478 19.2703 8.39225 18.816L7.894 15.1983C8.33047 15.1585 8.76753 15.1256 9.20503 15.0995C9.36655 15.5825 9.65015 16.0155 10.0283 16.3566L10.2835 22.34C8.76688 22.0893 7.30541 21.4982 6.03902 20.6208C6.01098 20.6013 5.97938 20.5876 5.94603 20.5804C5.91268 20.5731 5.87823 20.5726 5.84465 20.5786C5.81108 20.5847 5.77903 20.5974 5.75034 20.6159C5.72166 20.6344 5.6969 20.6583 5.67747 20.6864C5.65804 20.7144 5.64432 20.746 5.6371 20.7794C5.62988 20.8127 5.6293 20.8472 5.6354 20.8807C5.64149 20.9143 5.65413 20.9463 5.67261 20.975C5.69109 21.0037 5.71503 21.0285 5.74308 21.0479C10.2791 24.1908 16.5296 23.4969 20.2549 19.2691C22.7571 16.4285 23.6231 12.4912 22.5441 8.86165ZM11.1245 14.1686C11.1245 14.0148 11.1301 13.8675 11.1401 13.7263C11.7045 13.7978 12.2973 13.7978 12.8623 13.7263C12.8723 13.8675 12.8779 14.0148 12.8779 14.1686C12.8779 15.6729 12.3673 16.5966 12.0012 16.5966C11.6351 16.5967 11.1245 15.673 11.1245 14.1686ZM11.9991 11.7407H12.0033C12.2832 11.7434 12.6463 12.2843 12.8017 13.2101C12.2898 13.2754 11.7377 13.2786 11.2007 13.2101C11.3562 12.2843 11.7193 11.7434 11.9991 11.7407ZM10.6894 13.1201C10.4063 13.0548 10.1557 12.9684 9.95298 12.8646C10.2256 12.4348 10.6198 12.1087 11.0784 11.9213C10.904 12.2376 10.7696 12.6467 10.6894 13.1201ZM12.9241 11.9213C13.3826 12.1087 13.7767 12.4348 14.0495 12.8646C13.8468 12.9684 13.5961 13.0549 13.3131 13.1201C13.2329 12.6467 13.0985 12.2376 12.9241 11.9213ZM13.3765 13.6379C13.7197 13.5623 14.0266 13.4581 14.2803 13.3293C14.7256 14.5311 14.1482 15.9081 12.9255 16.4134C13.351 15.6394 13.4463 14.5177 13.3765 13.6379ZM14.7974 15.0995C15.2336 15.1256 15.6695 15.1585 16.1048 15.1981L15.6065 18.8159C15.5394 19.3036 15.933 19.6998 16.4252 19.6998C17.3707 19.6998 18.4679 19.5653 19.4036 19.4055C17.8979 20.9148 15.9321 21.9735 13.7188 22.339L13.9739 16.3567C14.3522 16.0156 14.6358 15.5826 14.7974 15.0995ZM19.9889 18.7682C17.7414 19.2205 16.3158 19.1802 16.4252 19.1802C16.2537 19.1802 16.0972 19.0625 16.1213 18.8869L16.8256 13.7726C16.8419 13.6549 16.9363 13.5633 17.0554 13.5498C19.907 13.2279 21.4799 12.7388 22.4774 11.818C22.5224 14.4461 21.5822 16.8863 19.9889 18.7682ZM22.0801 9.12836C22.1374 9.32945 22.1886 9.53222 22.2337 9.73639C21.1901 10.0966 20.1012 9.92264 19.9201 9.88969C18.9053 9.42161 18.0523 8.64339 17.5145 8.07165C19.3795 8.31563 20.9775 8.68462 22.0801 9.12836ZM19.9504 10.4217C20.7067 10.536 21.5811 10.4962 22.3332 10.2511C22.3806 10.5334 22.4164 10.8175 22.4406 11.1027C21.9055 11.7532 21.1231 12.2673 19.4048 12.6512C19.4591 11.6291 19.6457 10.8665 19.9504 10.4217ZM1.76962 9.73808C1.81524 9.53248 1.86703 9.32829 1.92491 9.1258C3.02726 8.68319 4.62276 8.31515 6.48427 8.07161C5.94652 8.64335 5.09339 9.42174 4.07851 9.88973C3.89728 9.92312 2.81503 10.0979 1.76962 9.73808ZM7.82302 14.6829L7.68787 13.7017C7.63919 13.3484 7.35698 13.0736 7.00163 13.0335C6.29482 12.9537 5.67072 12.8629 5.11915 12.7587C5.07303 11.6395 4.88146 10.7944 4.54806 10.2385C5.82488 9.57625 6.82066 8.50473 7.26158 7.97937C10.2739 7.65277 13.7199 7.65221 16.7372 7.97941C17.1781 8.50478 18.1739 9.5763 19.4507 10.2385C19.1173 10.7944 18.9257 11.6396 18.8796 12.7588C18.3382 12.8608 17.7161 12.9523 16.997 13.0335C16.6417 13.0736 16.3595 13.3484 16.3108 13.7017L16.1757 14.6829C15.7572 14.6445 15.3382 14.6123 14.9187 14.5863C15.1721 12.8089 13.7996 11.2209 12.0012 11.2209C10.1999 11.2209 8.83079 12.8119 9.08369 14.5862C8.66301 14.6122 8.24274 14.6445 7.82302 14.6829ZM9.72217 13.3293C9.9758 13.4581 10.2827 13.5623 10.626 13.6379C10.556 14.52 10.6522 15.6406 11.077 16.4134C9.85355 15.9078 9.27717 14.5303 9.72217 13.3293ZM10.8067 22.4126L10.5649 16.7413C11.0036 16.9873 11.4981 17.1165 12.0011 17.1165C12.5041 17.1165 12.9986 16.9873 13.4374 16.7414L13.1955 22.4123C12.409 22.502 11.5972 22.5023 10.8067 22.4126Z" fill="#667EEA" stroke="#667EEA" stroke-width="0.2"/>
<path d="M19.1793 13.9088C18.6063 13.9088 18.14 14.375 18.14 14.9481C18.14 15.5211 18.6063 15.9874 19.1793 15.9874C19.7524 15.9874 20.2186 15.5211 20.2186 14.9481C20.2186 14.375 19.7524 13.9088 19.1793 13.9088ZM19.1793 15.4677C18.8928 15.4677 18.6597 15.2346 18.6597 14.9481C18.6597 14.6615 18.8928 14.4284 19.1793 14.4284C19.4659 14.4284 19.699 14.6615 19.699 14.9481C19.699 15.2346 19.4659 15.4677 19.1793 15.4677Z" fill="#667EEA" stroke="#667EEA" stroke-width="0.2"/>
<path d="M18.7537 17.4487C18.8972 17.4487 19.0135 17.3323 19.0135 17.1888C19.0135 17.0453 18.8972 16.929 18.7537 16.929C18.6102 16.929 18.4938 17.0453 18.4938 17.1888C18.4938 17.3323 18.6102 17.4487 18.7537 17.4487Z" fill="#667EEA" stroke="#667EEA" stroke-width="0.2"/>
<path d="M5.85875 14.9481C5.85875 14.375 5.39249 13.9088 4.81945 13.9088C4.24641 13.9088 3.78015 14.375 3.78015 14.9481C3.78015 15.5211 4.24641 15.9874 4.81945 15.9874C5.39249 15.9874 5.85875 15.5212 5.85875 14.9481ZM4.81945 15.4677C4.53291 15.4677 4.2998 15.2346 4.2998 14.9481C4.2998 14.6615 4.53291 14.4284 4.81945 14.4284C5.10599 14.4284 5.3391 14.6615 5.3391 14.9481C5.3391 15.2346 5.10599 15.4677 4.81945 15.4677Z" fill="#667EEA" stroke="#667EEA" stroke-width="0.2"/>
<path d="M5.24515 17.4487C5.38864 17.4487 5.50497 17.3323 5.50497 17.1888C5.50497 17.0453 5.38864 16.929 5.24515 16.929C5.10165 16.929 4.98532 17.0453 4.98532 17.1888C4.98532 17.3323 5.10165 17.4487 5.24515 17.4487Z" fill="#667EEA" stroke="#667EEA" stroke-width="0.2"/>
<path d="M7.14605 2.71025C11.5146 0.423493 17.1694 1.43737 20.3812 5.70946C20.4229 5.76377 20.4843 5.79943 20.5522 5.8087C20.62 5.81796 20.6888 5.80008 20.7435 5.75894C20.7982 5.71779 20.8345 5.65672 20.8444 5.58898C20.8543 5.52124 20.8371 5.45232 20.7966 5.39719C17.5144 1.0314 11.6114 -0.213857 6.90506 2.24989C6.84468 2.28222 6.79951 2.33708 6.77937 2.40254C6.75923 2.468 6.76575 2.53876 6.79752 2.59944C6.82928 2.66012 6.88371 2.7058 6.94898 2.72655C7.01425 2.74731 7.08508 2.74145 7.14605 2.71025Z" fill="#667EEA" stroke="#667EEA" stroke-width="0.2"/>
</g>
<defs>
<clipPath id="clip0_143_34251">
<rect width="24" height="24" fill="white"/>
</clipPath>
</defs>
</svg>
