<svg width="24" height="24" viewBox="0 0 24 24" fill="none" xmlns="http://www.w3.org/2000/svg">
<path d="M16.3419 21.0336C16.2195 21.0508 16.1049 21.0808 16.0037 21.1324C15.4939 21.3927 15.2321 22.2679 14.6801 22.4471C14.1378 22.6233 13.4122 22.0703 12.8366 22.1608C12.2757 22.2489 11.7559 23 11.1703 23C10.5848 23 10.065 22.2489 9.50417 22.1608C8.92841 22.0703 8.20276 22.6232 7.66028 22.447C7.10833 22.2678 6.84646 21.3926 6.33661 21.1323C5.82144 20.8693 4.95959 21.1697 4.49533 20.8319C4.02886 20.4923 4.04988 19.5793 3.64286 19.1723" stroke="#667EEA" stroke-width="0.8" stroke-miterlimit="10" stroke-linecap="round" stroke-linejoin="round"/>
<path d="M12.2349 11.6894C12.2349 11.1936 12.3503 10.7046 12.572 10.2612L12.9445 9.51615L11.1704 7.74198L11.3232 7.28357C11.438 6.939 11.7944 6.73675 12.1491 6.81493L12.8337 6.96574L13.0627 6.42043C13.1548 6.20123 13.4623 6.19295 13.5661 6.40688L14.8247 9.00294C14.9885 9.34068 15.0736 9.71119 15.0736 10.0866V13.1231C15.0736 13.3273 15.1177 13.5292 15.2029 13.7149C15.2881 13.9006 15.4123 14.0657 15.5672 14.1989L20.357 18.3202C20.0175 18.7867 19.1045 18.7657 18.6974 19.1727C18.6202 19.2499 18.5585 19.3453 18.5058 19.4515" stroke="#667EEA" stroke-width="0.8" stroke-miterlimit="10" stroke-linecap="round" stroke-linejoin="round"/>
<path d="M3.6429 19.1723C8.50026 17.3186 10.8779 15.4415 11.7828 14.5945C12.071 14.3248 12.2349 13.9502 12.2349 13.5554V13.0645" stroke="#667EEA" stroke-width="0.8" stroke-miterlimit="10" stroke-linecap="round" stroke-linejoin="round"/>
<path d="M10.6972 6.1597L9.38155 8.29503C9.26662 8.48154 9.19642 8.69212 9.17647 8.91028C9.15651 9.12845 9.18732 9.34827 9.2665 9.55253L10.2666 12.1328C10.3794 12.424 10.7377 12.5289 10.9898 12.3447C11.0686 12.287 11.1278 12.2065 11.1592 12.114C11.1907 12.0215 11.1928 11.9216 11.1654 11.8278L10.3424 9.01347L11.1703 7.74198" stroke="#667EEA" stroke-width="0.8" stroke-miterlimit="10" stroke-linecap="round" stroke-linejoin="round"/>
<path d="M13.2994 4.90322V3.87767C13.2994 3.62355 13.2085 3.37781 13.0431 3.18487L11.2999 1.15112C11.2593 1.10373 11.2089 1.06568 11.1522 1.03959C11.0955 1.01351 11.0338 1 10.9714 1C10.6148 1 10.4112 1.40711 10.6252 1.69236L12.2349 3.83872V4.90322" stroke="#667EEA" stroke-width="0.8" stroke-miterlimit="10" stroke-linecap="round" stroke-linejoin="round"/>
<path d="M12.2349 4.90322C12.2349 5.58911 11.6788 6.14518 10.9929 6.14518C10.307 6.14518 9.751 5.58911 9.751 4.90322C9.751 4.21732 10.307 3.6613 10.9929 3.6613C11.6788 3.6613 12.2349 4.21732 12.2349 4.90322Z" stroke="#667EEA" stroke-width="0.8" stroke-miterlimit="10" stroke-linecap="round" stroke-linejoin="round"/>
<path d="M9.75099 4.54839C9.75099 4.94032 9.43325 5.25806 9.04133 5.25806C8.64935 5.25806 8.33166 4.94032 8.33166 4.54839C8.33166 4.15646 8.64935 3.83872 9.04133 3.83872C9.43325 3.83872 9.75099 4.15646 9.75099 4.54839Z" stroke="#667EEA" stroke-width="0.8" stroke-miterlimit="10" stroke-linecap="round" stroke-linejoin="round"/>
<path d="M14.2017 17.2952L17.4141 22.7562C17.4577 22.8305 17.52 22.892 17.5948 22.9348C17.6696 22.9776 17.7542 23.0001 17.8404 23.0001C18.2035 23.0001 18.4429 22.6219 18.2874 22.2937L15.5836 16.5857" stroke="#667EEA" stroke-width="0.8" stroke-miterlimit="10" stroke-linecap="round" stroke-linejoin="round"/>
<path d="M7.66634 17.4113C7.66634 17.4113 13.9647 18.9194 16.7591 15.2823" stroke="#667EEA" stroke-width="0.8" stroke-miterlimit="10" stroke-linecap="round" stroke-linejoin="round"/>
</svg>
