<svg width="24" height="24" viewBox="0 0 24 24" fill="none" xmlns="http://www.w3.org/2000/svg">
<path d="M2.79956 12.581C1.49006 14.8129 2.71147 17.2165 4.87755 19.3826C7.39228 21.8969 10.2275 23.139 12.7422 20.6242C13.7167 19.6493 14.3757 18.3778 14.6707 17.0396C14.7356 16.7459 14.8412 16.4628 14.9846 16.1984M15.7151 10.547C15.8969 10.9676 16.0242 11.4513 16.0412 11.9943C16.059 12.5798 16.4784 13.0763 17.0561 13.1705C17.0751 13.1737 17.0937 13.1766 17.1127 13.1794C17.5046 13.238 17.6848 13.7014 17.4311 14.0057C17.1862 14.299 16.8335 14.6219 16.3406 14.8748C16.1903 14.952 16.0463 15.0409 15.9099 15.1406M3.67791 11.4771C4.8763 10.299 6.51143 9.59232 8.166 9.44242C8.9559 9.37091 9.66093 8.91272 10.0411 8.21698C10.0601 8.18185 10.0694 8.16286 10.0694 8.16286C10.4601 6.95884 11.2419 6.09618 12.0157 5.50105C12.751 4.93537 13.8125 5.47075 13.8068 6.39843C13.803 7.04554 13.8839 7.69035 14.0476 8.31642" stroke="#667EEA" stroke-width="0.8" stroke-miterlimit="10" stroke-linecap="round" stroke-linejoin="round"/>
<path d="M19.7247 6.3491L15.7151 10.5467V10.5471L13.4835 12.8833C13.0625 13.3241 12.3615 13.3322 11.9308 12.901L11.37 12.3402C10.9349 11.9051 10.9478 11.196 11.3987 10.7774C12.4684 9.78366 11.7904 10.4133 18.0104 4.63481M19.7247 6.3491L18.0104 4.63481M19.7247 6.3491L19.8961 6.28644C20.2572 6.1548 20.5792 5.93433 20.8326 5.64537C21.086 5.35642 21.2625 5.00829 21.3458 4.63312L21.7216 2.94181C21.8287 2.45457 21.4581 2 20.966 2C20.7607 2.00011 20.5638 2.08163 20.4185 2.22668L18.0104 4.63481M19.9389 2.70628L19.2961 2.06342M18.8674 3.77779L18.2245 3.13493M18.0524 8.1002L16.2355 6.28322M16.3773 9.85332L14.4585 7.93453M14.7025 11.6068L12.6811 9.58584M5.58418 15.139L5.24117 15.4816M9.15268 18.707L8.80962 19.0501M9.7163 16.6864L7.57368 14.5438C7.10016 14.0703 7.10016 13.303 7.57368 12.8295C8.0464 12.356 8.81449 12.3559 9.28801 12.8295L11.4306 14.9721C11.9037 15.4456 11.9037 16.2129 11.4306 16.6864C10.9571 17.1599 10.1899 17.16 9.7163 16.6864Z" stroke="#667EEA" stroke-width="0.8" stroke-miterlimit="10" stroke-linecap="round" stroke-linejoin="round"/>
<path d="M6.8262 17.4755C6.59831 17.7034 6.22821 17.7034 6.00036 17.4755C5.77207 17.2472 5.77207 16.8776 6.00036 16.6497" stroke="#667EEA" stroke-width="0.8" stroke-miterlimit="10" stroke-linecap="round"/>
<path d="M7.65208 18.3014C7.42419 18.5297 7.05449 18.5297 6.8262 18.3014C6.59832 18.0735 6.59832 17.7034 6.8262 17.4755" stroke="#667EEA" stroke-width="0.8" stroke-miterlimit="10" stroke-linecap="round"/>
</svg>
