<svg width="24" height="24" viewBox="0 0 24 24" fill="none" xmlns="http://www.w3.org/2000/svg">
<path d="M22.405 4.16754L21.5413 3.0578L21.8927 1.65089C21.9066 1.59531 21.9046 1.53694 21.8869 1.48244C21.8692 1.42795 21.8366 1.37952 21.7927 1.34269C21.7488 1.30586 21.6954 1.28212 21.6387 1.27417C21.582 1.26623 21.5241 1.2744 21.4718 1.29775L20.264 1.83614L19.1692 1.05663C19.122 1.02306 19.0663 1.00358 19.0085 1.00045C18.9508 0.997315 18.8933 1.01066 18.8428 1.03893C18.7923 1.06719 18.7508 1.10922 18.7233 1.16012C18.6957 1.21102 18.6832 1.26869 18.6872 1.32643L18.7821 2.71235L17.2346 3.36401C17.1778 3.38796 17.1295 3.42855 17.0962 3.48044C17.0628 3.53233 17.046 3.5931 17.0478 3.65475C17.0497 3.7164 17.0701 3.77605 17.1065 3.82586C17.1429 3.87566 17.1935 3.91329 17.2517 3.93379L18.1164 4.23852L12.519 10.3572L2.20308 13.5562C2.19592 13.5584 2.18884 13.5609 2.18187 13.5637C1.74846 13.7339 1.4945 14.1436 1.53483 14.6072C1.57516 15.0708 1.89591 15.4304 2.35224 15.5234L8.06156 16.6835L9.72423 22.2676C9.85697 22.7128 10.2426 23.0001 10.7071 23.0001H10.7094C11.1751 22.9991 11.5608 22.7098 11.692 22.2629C11.6942 22.2557 11.696 22.2484 11.6976 22.241L13.9667 11.683L19.5794 5.54739L20.0966 6.48008C20.1274 6.53572 20.1749 6.58034 20.2323 6.60772C20.2897 6.63509 20.3543 6.64386 20.4169 6.63279C20.4796 6.62172 20.5372 6.59137 20.5818 6.54597C20.6264 6.50058 20.6557 6.4424 20.6656 6.37955L20.9358 4.66721L22.1656 4.66075C22.2227 4.66047 22.2785 4.64421 22.3268 4.6138C22.3751 4.5834 22.4139 4.54007 22.4389 4.48872C22.4638 4.43738 22.4739 4.38007 22.4679 4.3233C22.4619 4.26654 22.4402 4.21258 22.4051 4.16754H22.405ZM12.4796 11.3054L13.6272 10.051L14.1735 10.5513L13.0262 11.8056C12.8883 11.9562 12.6534 11.9666 12.503 11.8293C12.3522 11.691 12.3417 11.4561 12.4797 11.3054H12.4796ZM14.0396 9.60012L15.4369 8.07277L15.983 8.57249L14.5858 10.1004L14.0396 9.60012H14.0396ZM16.3956 8.12166L15.8494 7.6219L17.2466 6.09451L17.7931 6.59418L16.3956 8.12166ZM11.1027 22.1002C11.0358 22.3123 10.8558 22.3886 10.7081 22.3889H10.7072C10.5576 22.3889 10.3749 22.3111 10.3098 22.093L8.59484 16.3334C8.57905 16.2803 8.54911 16.2325 8.50825 16.1951C8.46738 16.1577 8.41712 16.1321 8.36284 16.1211L2.47398 14.9245C2.25018 14.8789 2.15659 14.7033 2.14363 14.5542C2.13084 14.4073 2.19082 14.2215 2.39611 14.1361L11.8353 11.209C11.6983 11.5733 11.7859 12.001 12.0905 12.2802C12.2713 12.4455 12.5074 12.5369 12.7524 12.5365C12.8988 12.5365 13.0449 12.5039 13.1789 12.4395L11.1027 22.1002ZM20.6728 4.0575C20.6002 4.05788 20.5302 4.08403 20.4752 4.13128C20.4203 4.17854 20.3839 4.24381 20.3726 4.31543L20.2003 5.40714L19.9078 4.87962C19.8843 4.83723 19.8511 4.80104 19.8108 4.77404C19.7706 4.74703 19.7245 4.72999 19.6764 4.72431C19.6282 4.71864 19.5794 4.72449 19.534 4.74139C19.4886 4.75829 19.4478 4.78576 19.4151 4.82152L18.2058 6.14349L17.6592 5.64364L18.8791 4.3101C18.9132 4.27285 18.9375 4.22772 18.9499 4.17877C18.9623 4.12982 18.9623 4.07856 18.9501 4.02958C18.9378 3.9806 18.9136 3.93542 18.8796 3.8981C18.8456 3.86077 18.8028 3.83245 18.7552 3.81567L18.2007 3.62024L19.2205 3.19081C19.2792 3.16609 19.3287 3.12365 19.3621 3.06941C19.3955 3.01517 19.4111 2.95185 19.4067 2.88831L19.341 1.92908L20.0517 2.43517C20.095 2.466 20.1456 2.485 20.1985 2.49029C20.2514 2.49558 20.3048 2.48697 20.3534 2.46533L21.1478 2.11119L20.9124 3.054C20.9012 3.09897 20.9003 3.1459 20.9099 3.19124C20.9195 3.23659 20.9392 3.27916 20.9677 3.31574L21.5414 4.05291L20.6728 4.05745L20.6728 4.0575ZM10.1807 15.8125C10.2262 15.854 10.258 15.9084 10.2721 15.9684C10.2861 16.0284 10.2817 16.0912 10.2593 16.1486C10.237 16.2061 10.1979 16.2554 10.147 16.2902C10.0961 16.3249 10.0359 16.3435 9.9743 16.3434C9.89795 16.3435 9.82435 16.3149 9.7681 16.2633L8.32879 14.9462C8.29918 14.9191 8.27519 14.8865 8.25821 14.8501C8.24122 14.8138 8.23156 14.7744 8.22978 14.7343C8.22801 14.6942 8.23415 14.6542 8.24786 14.6165C8.26157 14.5788 8.28257 14.5441 8.30967 14.5145C8.33676 14.4849 8.36942 14.4609 8.40578 14.444C8.44213 14.427 8.48148 14.4173 8.52157 14.4155C8.56166 14.4138 8.6017 14.4199 8.63942 14.4336C8.67713 14.4473 8.71178 14.4683 8.74138 14.4954L10.1807 15.8125ZM11.7842 14.0597C11.8296 14.1012 11.8615 14.1556 11.8755 14.2156C11.8896 14.2756 11.8851 14.3384 11.8628 14.3958C11.8405 14.4533 11.8013 14.5026 11.7505 14.5374C11.6996 14.5721 11.6394 14.5907 11.5778 14.5906C11.5014 14.5907 11.4278 14.5621 11.3716 14.5105L9.93227 13.1934C9.80773 13.0795 9.79917 12.8862 9.91315 12.7617C9.94024 12.7321 9.97289 12.7081 10.0092 12.6911C10.0456 12.6742 10.085 12.6645 10.125 12.6627C10.1651 12.661 10.2052 12.6671 10.2429 12.6808C10.2806 12.6945 10.3153 12.7155 10.3449 12.7426L11.7842 14.0597ZM8.75989 7.24428C8.73281 7.18722 8.72408 7.12317 8.7349 7.06095C8.74572 6.99872 8.77555 6.94138 8.8203 6.89681L10.4376 5.28566C10.466 5.25733 10.4998 5.23488 10.5369 5.21959C10.574 5.2043 10.6137 5.19648 10.6538 5.19655C10.694 5.19663 10.7337 5.20461 10.7707 5.22004C10.8078 5.23547 10.8414 5.25805 10.8697 5.28649C10.898 5.31491 10.9205 5.34864 10.9358 5.38574C10.9511 5.42284 10.9589 5.46258 10.9588 5.50271C10.9587 5.54284 10.9507 5.58255 10.9353 5.61959C10.9199 5.65663 10.8973 5.69027 10.8689 5.71859L9.8626 6.72103L11.2385 6.57943C11.2998 6.57312 11.3616 6.58549 11.4158 6.61494C11.4699 6.64439 11.5139 6.68952 11.5419 6.74442C11.57 6.79932 11.5808 6.86141 11.5729 6.92254C11.565 6.98368 11.5387 7.04099 11.4977 7.08696L9.28828 9.56061C9.25963 9.59276 9.2245 9.61846 9.1852 9.63605C9.14589 9.65363 9.10331 9.66269 9.06025 9.66262C9.00129 9.6626 8.9436 9.64552 8.89413 9.61345C8.84467 9.58137 8.80553 9.53567 8.78146 9.48185C8.75738 9.42804 8.74939 9.3684 8.75844 9.31015C8.76749 9.25189 8.79321 9.19749 8.83248 9.15352L10.5165 7.26811L9.06719 7.41726C9.00438 7.42369 8.94111 7.41052 8.88608 7.37956C8.83105 7.34859 8.78695 7.30135 8.75985 7.24432L8.75989 7.24428ZM5.29724 8.5119C5.27016 8.45484 5.26142 8.39079 5.27224 8.32857C5.28306 8.26635 5.3129 8.20901 5.35765 8.16444L6.97505 6.55346C7.00347 6.52514 7.0372 6.5027 7.0743 6.48741C7.1114 6.47213 7.15115 6.46431 7.19128 6.46439C7.2314 6.46447 7.27112 6.47246 7.30816 6.48789C7.3452 6.50332 7.37883 6.5259 7.40715 6.55433C7.43546 6.58276 7.4579 6.61649 7.47318 6.65359C7.48846 6.69069 7.49628 6.73044 7.49619 6.77057C7.49611 6.81069 7.48812 6.85041 7.47268 6.88745C7.45725 6.92449 7.43467 6.95812 7.40623 6.98643L6.39999 7.9887L7.77552 7.84723C7.83683 7.84091 7.89862 7.85328 7.95277 7.88273C8.00692 7.91217 8.0509 7.95731 8.07893 8.0122C8.10696 8.0671 8.11773 8.12919 8.10982 8.19032C8.10191 8.25145 8.0757 8.30875 8.03463 8.35471L5.82572 10.8282C5.79707 10.8603 5.76194 10.886 5.72263 10.9036C5.68333 10.9212 5.64074 10.9303 5.59769 10.9302C5.53873 10.9302 5.48104 10.9131 5.43157 10.881C5.3821 10.849 5.34297 10.8032 5.31889 10.7494C5.29481 10.6956 5.28682 10.636 5.29587 10.5777C5.30493 10.5195 5.33064 10.4651 5.36991 10.4211L7.05358 8.53582L5.60449 8.68489C5.54169 8.69125 5.47845 8.67804 5.42344 8.64707C5.36843 8.6161 5.32438 8.56889 5.29724 8.5119ZM22.3077 9.2321C22.328 9.26666 22.3414 9.30491 22.347 9.34464C22.3526 9.38438 22.3503 9.42483 22.3403 9.46368C22.3302 9.50253 22.3126 9.53902 22.2885 9.57108C22.2644 9.60313 22.2341 9.63011 22.1996 9.65049L20.2572 10.7955C20.206 10.8257 20.147 10.8403 20.0876 10.8375C20.0282 10.8347 19.9709 10.8146 19.9228 10.7797C19.8746 10.7448 19.8377 10.6966 19.8165 10.641C19.7953 10.5854 19.7908 10.5249 19.8036 10.4668L20.1266 8.99385L17.7429 10.197C17.7071 10.2154 17.6679 10.2266 17.6278 10.2298C17.5876 10.233 17.5472 10.2282 17.5089 10.2158C17.4705 10.2033 17.4351 10.1834 17.4045 10.1571C17.3739 10.1309 17.3488 10.0989 17.3306 10.0629C17.3125 10.0269 17.3016 9.98769 17.2987 9.9475C17.2957 9.9073 17.3008 9.86692 17.3135 9.82869C17.3262 9.79045 17.3464 9.75511 17.3728 9.7247C17.3993 9.69429 17.4315 9.66941 17.4676 9.65149L20.4251 8.15863C20.4767 8.13263 20.5346 8.12178 20.5921 8.12734C20.6496 8.1329 20.7043 8.15463 20.75 8.19003C20.7956 8.22543 20.8303 8.27303 20.85 8.32733C20.8697 8.38164 20.8736 8.44041 20.8613 8.49684L20.5507 9.91305L21.8893 9.12393C21.9239 9.10355 21.9621 9.09019 22.0019 9.08459C22.0416 9.07899 22.082 9.08128 22.1209 9.09131C22.1597 9.10135 22.1962 9.11894 22.2283 9.14308C22.2603 9.16722 22.2873 9.19744 22.3077 9.23201L22.3077 9.2321ZM20.5776 12.2507C20.598 12.2853 20.6114 12.3235 20.617 12.3632C20.6226 12.403 20.6203 12.4434 20.6103 12.4823C20.6002 12.5211 20.5826 12.5576 20.5585 12.5897C20.5343 12.6217 20.5041 12.6487 20.4696 12.6691L18.5272 13.8139C18.4759 13.8441 18.417 13.8587 18.3576 13.8559C18.2982 13.8531 18.2409 13.833 18.1927 13.7981C18.1446 13.7632 18.1077 13.715 18.0865 13.6594C18.0653 13.6038 18.0609 13.5433 18.0736 13.4852L18.3965 12.0129L16.0129 13.216C15.9771 13.2344 15.9379 13.2456 15.8978 13.2488C15.8576 13.252 15.8172 13.2472 15.7788 13.2348C15.7405 13.2223 15.705 13.2024 15.6745 13.1761C15.6439 13.1499 15.6188 13.1179 15.6006 13.0819C15.5825 13.0459 15.5716 13.0067 15.5686 12.9665C15.5657 12.9263 15.5708 12.8859 15.5835 12.8477C15.5962 12.8094 15.6164 12.7741 15.6428 12.7437C15.6693 12.7133 15.7015 12.6884 15.7376 12.6705L18.6951 11.1776C18.7467 11.1516 18.8046 11.1407 18.8621 11.1462C18.9196 11.1518 18.9744 11.1735 19.0201 11.2089C19.0657 11.2443 19.1004 11.292 19.1201 11.3463C19.1398 11.4006 19.1436 11.4594 19.1313 11.5159L18.8207 12.9315L20.1593 12.1426C20.2291 12.1014 20.3124 12.0897 20.3909 12.11C20.4693 12.1303 20.5365 12.1809 20.5777 12.2507H20.5776Z" fill="#667EEA"/>
</svg>
