<svg width="24" height="24" viewBox="0 0 24 24" fill="none" xmlns="http://www.w3.org/2000/svg">
<path d="M12.8068 10.618C12.8068 10.5658 12.7861 10.5153 12.7492 10.4784L12.7189 10.454C12.6869 10.4326 12.6487 10.4208 12.6096 10.4208C12.5576 10.4208 12.5077 10.4417 12.4709 10.4784L12.4699 10.4794C12.4427 10.5068 12.4247 10.5416 12.4172 10.579L12.4133 10.618C12.4133 10.6702 12.434 10.7198 12.4709 10.7567L12.5002 10.7811C12.5323 10.8027 12.5703 10.8143 12.6096 10.8143L12.6486 10.8104C12.686 10.8029 12.7208 10.7849 12.7482 10.7577L12.7492 10.7567L12.7736 10.7274C12.795 10.6953 12.8068 10.6572 12.8068 10.618Z" stroke="#667EEA" stroke-width="0.8"/>
<path d="M13.4573 11.4717C13.4573 11.4195 13.4366 11.369 13.3997 11.3321L13.3694 11.3077C13.3373 11.2863 13.2992 11.2744 13.26 11.2745C13.2081 11.2745 13.1582 11.2954 13.1214 11.3321L13.1204 11.333C13.0932 11.3605 13.0752 11.3953 13.0677 11.4327L13.0638 11.4717C13.0638 11.5239 13.0845 11.5735 13.1214 11.6104L13.1507 11.6358C13.1827 11.6572 13.2209 11.668 13.26 11.668L13.2991 11.6641C13.3365 11.6565 13.3712 11.6386 13.3987 11.6114L13.3997 11.6104L13.4241 11.5811C13.4455 11.549 13.4573 11.5109 13.4573 11.4717Z" stroke="#667EEA" stroke-width="0.8"/>
<path d="M12.4816 11.5124C12.4816 11.4602 12.4609 11.4096 12.424 11.3727L12.3937 11.3483C12.3617 11.3269 12.3235 11.3151 12.2844 11.3151C12.2324 11.3151 12.1825 11.3361 12.1457 11.3727L12.1447 11.3737C12.1175 11.4012 12.0995 11.4359 12.092 11.4733L12.0881 11.5124C12.0881 11.5645 12.1088 11.6142 12.1457 11.651L12.175 11.6754C12.2071 11.697 12.2451 11.7086 12.2844 11.7086L12.3234 11.7047C12.3608 11.6972 12.3956 11.6792 12.423 11.652L12.424 11.651L12.4484 11.6217C12.4699 11.5897 12.4816 11.5515 12.4816 11.5124Z" stroke="#667EEA" stroke-width="0.8"/>
<path d="M13.9341 13.1602C15.0308 12.4106 16.3996 11.3545 17.5028 10.1228" stroke="#667EEA" stroke-width="0.8" stroke-miterlimit="10" stroke-linecap="round" stroke-linejoin="round"/>
<path d="M4.8756 7.64992C4.64984 7.09136 4.52026 6.51711 4.52026 5.93643C4.52026 3.76258 6.28284 2 8.4567 2C10.0153 2 11.3702 2.90543 12 4.20443C12.6297 2.90543 13.9847 2 15.5432 2C17.7171 2 19.4797 3.76258 19.4797 5.93643C19.4797 6.91551 19.1111 7.87487 18.5372 8.77507" stroke="#667EEA" stroke-width="0.8" stroke-miterlimit="10" stroke-linecap="round" stroke-linejoin="round"/>
<path d="M5.53836 8.89177C6.69812 10.6483 8.61966 12.1711 10.0663 13.1606" stroke="#667EEA" stroke-width="0.8" stroke-miterlimit="10" stroke-linecap="round" stroke-linejoin="round"/>
<path d="M15.5603 7.41009L15.6375 7.40622V8.48019H15.0735V5.77595H15.5835L15.6182 6.01933C15.6672 5.94464 15.7419 5.88155 15.8423 5.83004C15.9427 5.77595 16.0561 5.74891 16.1823 5.74891C16.3445 5.74891 16.4887 5.79012 16.6149 5.87253C16.7411 5.95237 16.8403 6.06698 16.9124 6.21636C16.9871 6.36316 17.0244 6.53829 17.0244 6.74175C17.0244 6.94264 16.9884 7.11777 16.9163 7.26715C16.8442 7.41653 16.7437 7.53242 16.6149 7.61484C16.4887 7.69468 16.3445 7.7346 16.1823 7.7346C16.0329 7.7346 15.9054 7.7024 15.7998 7.63802C15.6968 7.57363 15.6169 7.49765 15.5603 7.41009ZM16.4179 6.74175C16.4179 6.6001 16.3819 6.48678 16.3097 6.40179C16.2376 6.31422 16.1436 6.27044 16.0277 6.27044C15.9556 6.27044 15.8899 6.28847 15.8307 6.32453C15.7715 6.36058 15.7238 6.41338 15.6878 6.48292C15.6543 6.55246 15.6375 6.63873 15.6375 6.74175C15.6375 6.8422 15.6543 6.92847 15.6878 7.00059C15.7238 7.07012 15.7715 7.12421 15.8307 7.16284C15.8899 7.1989 15.9556 7.21693 16.0277 7.21693C16.1436 7.21693 16.2376 7.17314 16.3097 7.08558C16.3819 6.99801 16.4179 6.8834 16.4179 6.74175Z" fill="#667EEA"/>
<path d="M13.725 7.7346C13.537 7.7346 13.3683 7.69468 13.2189 7.61484C13.0696 7.535 12.9524 7.42039 12.8674 7.27101C12.785 7.12163 12.7438 6.94521 12.7438 6.74175C12.7438 6.53829 12.7863 6.36316 12.8713 6.21636C12.9588 6.06698 13.0773 5.95237 13.2267 5.87253C13.3786 5.79012 13.5473 5.74891 13.7328 5.74891C13.9233 5.74891 14.0933 5.79012 14.2427 5.87253C14.3947 5.95237 14.5144 6.06698 14.602 6.21636C14.6895 6.36316 14.7333 6.537 14.7333 6.73789C14.7333 6.94393 14.6883 7.12163 14.5981 7.27101C14.5105 7.42039 14.3895 7.535 14.235 7.61484C14.083 7.69468 13.913 7.7346 13.725 7.7346ZM13.725 7.22465C13.792 7.22465 13.8564 7.20662 13.9182 7.17057C13.98 7.13451 14.0289 7.08171 14.065 7.01218C14.1036 6.94006 14.1229 6.84992 14.1229 6.74175C14.1229 6.63358 14.1036 6.54473 14.065 6.47519C14.0289 6.40308 13.9813 6.34899 13.9221 6.31294C13.8628 6.27688 13.7997 6.25885 13.7328 6.25885C13.6606 6.25885 13.5963 6.27688 13.5396 6.31294C13.4829 6.34899 13.4366 6.40308 13.4005 6.47519C13.367 6.54473 13.3503 6.63358 13.3503 6.74175C13.3503 6.84992 13.367 6.94006 13.4005 7.01218C13.434 7.08171 13.4791 7.13451 13.5357 7.17057C13.5924 7.20662 13.6555 7.22465 13.725 7.22465Z" fill="#667EEA"/>
<path d="M11.4754 6.22408C11.5681 6.22408 11.6441 6.20992 11.7034 6.18159C11.7626 6.15326 11.8064 6.11205 11.8347 6.05797C11.8656 6.00131 11.8811 5.93563 11.8811 5.86094C11.8811 5.7502 11.8476 5.66263 11.7806 5.59824C11.7162 5.53386 11.6145 5.50166 11.4754 5.50166H10.923V6.22408H11.4754ZM12.4876 5.86094C12.4876 5.96654 12.4683 6.07084 12.4296 6.17386C12.3936 6.27431 12.3356 6.36702 12.2558 6.45201C12.1785 6.53443 12.0768 6.6001 11.9506 6.64904C11.827 6.69797 11.6789 6.72244 11.5063 6.72244H10.923V7.70755H10.3242V5.00331H11.5063C11.7252 5.00331 11.9068 5.04323 12.051 5.12307C12.1978 5.20033 12.3073 5.30464 12.3794 5.43599C12.4515 5.56476 12.4876 5.70641 12.4876 5.86094Z" fill="#667EEA"/>
<path d="M8.18356 5.00331H8.77849V6.86538C8.77849 7.05081 8.74115 7.20791 8.66646 7.33669C8.59177 7.46546 8.48875 7.56462 8.3574 7.63415C8.22606 7.70112 8.0741 7.7346 7.90155 7.7346C7.67748 7.7346 7.49076 7.68051 7.34138 7.57234C7.192 7.46417 7.09285 7.30707 7.04391 7.10103L7.57704 6.97741C7.58991 7.03149 7.61052 7.07785 7.63885 7.11648C7.66975 7.15512 7.70581 7.18473 7.74702 7.20534C7.78823 7.22594 7.83458 7.23624 7.88609 7.23624C7.94533 7.23624 7.99684 7.22208 8.04062 7.19375C8.08698 7.16542 8.12175 7.1255 8.14493 7.07399C8.17068 7.02248 8.18356 6.96324 8.18356 6.89628V5.00331Z" fill="#667EEA"/>
<path d="M10.5364 13.6262C9.94442 13.1815 9.56091 12.4729 9.56091 11.6749C9.56091 10.3276 10.6527 9.23584 12 9.23584C12.3022 9.23584 12.5915 9.29097 12.8587 9.39158" stroke="#667EEA" stroke-width="0.8" stroke-miterlimit="10" stroke-linecap="round" stroke-linejoin="round"/>
<path d="M13.9718 10.2391C14.2656 10.6419 14.439 11.1381 14.439 11.6749C14.439 12.4729 14.0555 13.1815 13.4636 13.6262" stroke="#667EEA" stroke-width="0.8" stroke-miterlimit="10" stroke-linecap="round" stroke-linejoin="round"/>
<path d="M14.1138 14.9269H9.88611C9.8434 14.9269 9.80111 14.9185 9.76165 14.9021C9.72219 14.8858 9.68634 14.8618 9.65615 14.8316C9.62595 14.8014 9.602 14.7656 9.58566 14.7261C9.56932 14.6866 9.56091 14.6444 9.56091 14.6016V13.9513C9.56091 13.9086 9.56932 13.8663 9.58566 13.8268C9.602 13.7874 9.62595 13.7515 9.65615 13.7213C9.68635 13.6911 9.7222 13.6672 9.76165 13.6508C9.80111 13.6345 9.8434 13.6261 9.88611 13.6261H14.1138C14.1565 13.6261 14.1988 13.6345 14.2382 13.6508C14.2777 13.6672 14.3135 13.6911 14.3437 13.7213C14.3739 13.7515 14.3979 13.7874 14.4142 13.8268C14.4306 13.8663 14.439 13.9086 14.439 13.9513V14.6016C14.439 14.6879 14.4047 14.7706 14.3437 14.8316C14.2827 14.8926 14.2 14.9269 14.1138 14.9269Z" stroke="#667EEA" stroke-width="0.8" stroke-miterlimit="10" stroke-linecap="round" stroke-linejoin="round"/>
<path d="M11.9999 21.1871V22.0001" stroke="#667EEA" stroke-width="0.8" stroke-miterlimit="10" stroke-linecap="round" stroke-linejoin="round"/>
<path d="M11.9999 16.2277V16.7155" stroke="#667EEA" stroke-width="0.8" stroke-miterlimit="10" stroke-linecap="round" stroke-linejoin="round"/>
<path d="M10.3738 14.9268L10.9336 20.6733C10.9621 20.9647 11.2072 21.1872 11.5002 21.1872H12.4998C12.7927 21.1872 13.0378 20.9647 13.0664 20.6733L13.2893 18.3844" stroke="#667EEA" stroke-width="0.8" stroke-miterlimit="10" stroke-linecap="round" stroke-linejoin="round"/>
<path d="M13.6261 14.9268L13.4257 16.9823" stroke="#667EEA" stroke-width="0.8" stroke-miterlimit="10" stroke-linecap="round" stroke-linejoin="round"/>
<path d="M18.7976 10.1249L19.3867 9.84582C19.5107 9.78711 19.5107 9.61069 19.3867 9.55194L18.7976 9.2729C18.7403 9.24578 18.6958 9.19745 18.6736 9.13813L18.3045 8.15366C18.2517 8.01298 18.0527 8.01298 17.9999 8.15366L17.6308 9.13813C17.6085 9.19746 17.5641 9.24579 17.5068 9.2729L16.9177 9.55194C16.7937 9.61069 16.7937 9.78711 16.9177 9.84582L17.5068 10.1249C17.5641 10.152 17.6086 10.2004 17.6308 10.2597L17.9999 11.2441C18.0527 11.3848 18.2517 11.3848 18.3045 11.2441L18.6736 10.2597C18.6958 10.2004 18.7403 10.152 18.7976 10.1249Z" stroke="#667EEA" stroke-width="0.8" stroke-miterlimit="10" stroke-linecap="round" stroke-linejoin="round"/>
<path d="M6.49314 13.8735L7.08223 13.5944C7.20626 13.5357 7.20626 13.3593 7.08223 13.3006L6.49314 13.0215C6.43588 12.9944 6.39142 12.946 6.36915 12.8867L6.00002 11.9023C5.94726 11.7616 5.74827 11.7616 5.69551 11.9023L5.32633 12.8867C5.30409 12.946 5.25964 12.9944 5.20239 13.0215L4.61325 13.3006C4.48927 13.3593 4.48927 13.5357 4.61325 13.5944L5.20239 13.8735C5.25965 13.9006 5.3041 13.949 5.32633 14.0083L5.69551 14.9927C5.74827 15.1334 5.94726 15.1334 6.00002 14.9927L6.36915 14.0083C6.39141 13.949 6.43588 13.9006 6.49314 13.8735Z" stroke="#667EEA" stroke-width="0.8" stroke-miterlimit="10" stroke-linecap="round" stroke-linejoin="round"/>
<path d="M17.3469 18.255L17.936 17.9759C18.06 17.9172 18.06 17.7408 17.936 17.6821L17.3469 17.403C17.2896 17.3759 17.2452 17.3275 17.2229 17.2682L16.8537 16.2838C16.801 16.1431 16.602 16.1431 16.5492 16.2838L16.1801 17.2682C16.1578 17.3275 16.1134 17.3759 16.0561 17.403L15.467 17.6821C15.343 17.7408 15.343 17.9172 15.467 17.9759L16.0561 18.255C16.1134 18.2821 16.1578 18.3305 16.1801 18.3898L16.5492 19.3742C16.602 19.5149 16.801 19.5149 16.8537 19.3742L17.2229 18.3898C17.2451 18.3305 17.2896 18.2821 17.3469 18.255Z" stroke="#667EEA" stroke-width="0.8" stroke-miterlimit="10" stroke-linecap="round" stroke-linejoin="round"/>
</svg>
