<svg width="24" height="24" viewBox="0 0 24 24" fill="none" xmlns="http://www.w3.org/2000/svg">
<path d="M22.4694 3.68575C22.3202 3.58535 22.1486 3.52326 21.9698 3.50498C21.7909 3.4867 21.6103 3.51279 21.444 3.58095L19.3774 4.42507C19.3246 4.4467 19.268 4.45781 19.2109 4.45777H16.8557C15.7496 4.45777 14.8496 5.3577 14.8496 6.46388V7.41813C14.7964 7.4074 14.7423 7.40198 14.6881 7.40197H14.5481C14.0975 7.40197 13.7309 7.76854 13.7309 8.21915V9.20064C13.7309 9.65125 14.0975 10.0178 14.5481 10.0178H14.6881C14.7423 10.0178 14.7964 10.0124 14.8496 10.0017V10.2885C14.7964 10.2778 14.7423 10.2724 14.6881 10.2724H14.5481C14.0975 10.2724 13.7309 10.6389 13.7309 11.0895V12.071C13.7309 12.5216 14.0975 12.8882 14.5481 12.8882H14.6881C14.7423 12.8882 14.7964 12.8828 14.8496 12.872V13.1589C14.7964 13.1482 14.7423 13.1428 14.6881 13.1427H14.5481C14.0975 13.1427 13.7309 13.5093 13.7309 13.9599V14.9415C13.7309 15.3921 14.0975 15.7586 14.5481 15.7586H14.6881C14.7423 15.7586 14.7964 15.7532 14.8496 15.7425V16.8592C14.8496 17.6292 14.2231 18.2557 13.4531 18.2557C12.6831 18.2557 12.0567 17.6292 12.0567 16.8592V11.0272C12.056 10.5785 11.9585 10.1353 11.7708 9.72782L10.2749 6.49306L10.7253 6.04262C10.8852 5.88282 10.9733 5.66974 10.9733 5.44265C10.9733 5.21565 10.8852 5.00256 10.7254 4.84281L10.6201 4.73745C10.2893 4.40668 9.75106 4.40676 9.42025 4.73745L7.39686 6.7608C7.33704 6.82261 7.30391 6.90546 7.30461 6.99148C7.30532 7.07749 7.3398 7.15979 7.40062 7.22061C7.46145 7.28144 7.54375 7.31592 7.62976 7.31663C7.71578 7.31733 7.79863 7.2842 7.86044 7.22438L9.88383 5.20104C9.95774 5.12713 10.0826 5.12713 10.1564 5.20095L10.2617 5.30631C10.2796 5.32421 10.2937 5.34548 10.3033 5.36887C10.3129 5.39227 10.3177 5.41733 10.3176 5.44261C10.3177 5.4679 10.3129 5.49297 10.3033 5.51637C10.2937 5.53977 10.2796 5.56104 10.2617 5.57895L4.19548 11.6453C4.17758 11.6632 4.15632 11.6773 4.13292 11.6869C4.10953 11.6965 4.08447 11.7013 4.05919 11.7011C4.0339 11.7013 4.00883 11.6965 3.98542 11.6869C3.96202 11.6773 3.94075 11.6632 3.92285 11.6453L3.81753 11.54C3.78157 11.5041 3.76172 11.4556 3.76172 11.4037C3.76172 11.3518 3.78157 11.3034 3.81757 11.2674L6.82327 8.26169C6.88309 8.19987 6.91622 8.11702 6.91551 8.03101C6.91481 7.94499 6.88033 7.86269 6.8195 7.80187C6.75867 7.74104 6.67638 7.70656 6.59036 7.70585C6.50434 7.70515 6.42149 7.73828 6.35968 7.7981L3.35403 10.8038C3.19419 10.9636 3.1061 11.1767 3.1061 11.4037C3.1061 11.6308 3.19419 11.8438 3.35399 12.0037L3.45926 12.109C3.6191 12.2688 3.83218 12.3568 4.05923 12.3568C4.28628 12.3568 4.49931 12.2687 4.65916 12.1089L5.02568 11.7424L6.5481 13.2648C7.00902 13.7257 7.26288 14.3385 7.26288 14.9903V18.0314C7.26288 20.771 9.49174 22.9999 12.2314 22.9999C14.9711 22.9999 17.1999 20.771 17.1999 18.0314V10.8873C17.1999 10.8442 17.1914 10.8016 17.175 10.7618C17.1585 10.7221 17.1344 10.6859 17.1039 10.6555C17.0735 10.625 17.0373 10.6009 16.9976 10.5844C16.9578 10.5679 16.9152 10.5595 16.8721 10.5595C16.8291 10.5595 16.7864 10.5679 16.7467 10.5844C16.7069 10.6009 16.6707 10.625 16.6403 10.6555C16.6099 10.6859 16.5857 10.7221 16.5692 10.7618C16.5528 10.8016 16.5443 10.8442 16.5443 10.8873V18.0314C16.5443 20.4095 14.6095 22.3443 12.2314 22.3443C9.85324 22.3443 7.91849 20.4095 7.91849 18.0314V14.9903C7.91849 14.1634 7.59645 13.386 7.01173 12.8012L5.50233 11.2918L9.78935 7.00481L11.1758 10.003C11.3238 10.3242 11.4006 10.6736 11.4012 11.0272V16.859C11.4012 17.9905 12.3217 18.9111 13.4533 18.9111C14.5848 18.9111 15.5054 17.9905 15.5054 16.859V6.46384C15.5054 5.71919 16.1112 5.11334 16.8559 5.11334H19.1012L19.4013 5.9291H17.6112C17.023 5.9291 16.5444 6.40768 16.5444 6.99596V9.33122C16.5444 9.37427 16.5529 9.4169 16.5693 9.45667C16.5858 9.49644 16.6099 9.53258 16.6404 9.56303C16.6708 9.59347 16.707 9.61761 16.7467 9.63408C16.7865 9.65056 16.8291 9.65903 16.8722 9.65903C16.9152 9.65903 16.9579 9.65056 16.9977 9.63408C17.0374 9.61761 17.0736 9.59347 17.104 9.56303C17.1344 9.53258 17.1586 9.49644 17.1751 9.45667C17.1915 9.4169 17.2 9.37427 17.2 9.33122V6.99596C17.2 6.76922 17.3845 6.58471 17.6112 6.58471H19.714C19.7843 6.58471 19.8537 6.57792 19.9219 6.56477L19.9227 6.56464C19.9956 6.55051 20.0669 6.52898 20.1355 6.50041L22.28 5.60692C22.4799 5.52403 22.6507 5.38364 22.7708 5.20355C22.8908 5.02347 22.9547 4.81179 22.9543 4.59535C22.9544 4.41557 22.9102 4.23853 22.8256 4.07989C22.741 3.92124 22.6187 3.78588 22.4694 3.68575ZM14.8497 14.9413C14.8497 15.0289 14.7757 15.1029 14.6881 15.1029H14.5482C14.4605 15.1029 14.3866 15.0289 14.3866 14.9413V13.9597C14.3866 13.8722 14.4605 13.7982 14.5482 13.7982H14.6881C14.7757 13.7982 14.8497 13.8721 14.8497 13.9597V14.9413ZM14.8497 12.0709C14.8497 12.1585 14.7757 12.2325 14.6881 12.2325H14.5482C14.4605 12.2325 14.3866 12.1585 14.3866 12.0709V11.0894C14.3866 11.0019 14.4605 10.9279 14.5482 10.9279H14.6881C14.7757 10.9279 14.8497 11.0018 14.8497 11.0894V12.0709ZM14.8497 9.20055C14.8497 9.28812 14.7757 9.36211 14.6881 9.36211H14.5482C14.4605 9.36211 14.3866 9.28816 14.3866 9.20055V8.21906C14.3866 8.13149 14.4605 8.0575 14.5482 8.0575H14.6881C14.7757 8.0575 14.8497 8.13145 14.8497 8.21906V9.20055ZM22.0277 5.00179L20.0602 5.82155L19.7509 4.98074L21.6919 4.18792C21.8299 4.13155 21.98 4.14689 22.1038 4.23003C22.2276 4.31318 22.2986 4.44634 22.2986 4.59544C22.2987 4.68238 22.273 4.76741 22.2248 4.83975C22.1766 4.91209 22.108 4.96849 22.0277 5.00179ZM5.34811 4.15419C5.34811 4.10444 5.33678 4.05534 5.31499 4.01061C5.29319 3.96588 5.26151 3.9267 5.22232 3.89604C5.18314 3.86537 5.13749 3.84403 5.08884 3.83362C5.04019 3.82321 4.9898 3.82402 4.9415 3.83597L2.65502 4.40229C2.58393 4.41989 2.52079 4.46079 2.47566 4.51846C2.43053 4.57612 2.40601 4.64725 2.40601 4.72048V7.08933C2.29146 7.05648 2.17284 7.03999 2.05367 7.04035C1.48846 7.04035 1.04572 7.39544 1.04572 7.84876C1.04572 8.30208 1.48842 8.65717 2.05367 8.65717C2.61892 8.65717 3.06163 8.30208 3.06163 7.84876V4.977L4.6925 4.57309V6.59717C4.58327 6.56542 4.46472 6.54819 4.34016 6.54819C3.77495 6.54819 3.3322 6.90328 3.3322 7.3566C3.3322 7.80992 3.77491 8.16501 4.34016 8.16501C4.90537 8.16501 5.34811 7.80992 5.34811 7.3566C5.34811 7.34164 5.3476 7.32686 5.34661 7.31217C5.34747 7.30241 5.34811 7.29253 5.34811 7.28256V4.15419ZM2.05371 8.00156C1.82633 8.00156 1.70137 7.88679 1.70137 7.84876C1.70137 7.81073 1.82628 7.69596 2.05371 7.69596C2.28115 7.69596 2.40606 7.81073 2.40606 7.84876C2.40606 7.88679 2.2811 8.00156 2.05371 8.00156ZM4.34024 7.50939C4.11285 7.50939 3.9879 7.39462 3.9879 7.3566C3.9879 7.31857 4.11281 7.2038 4.34024 7.2038C4.56768 7.2038 4.69259 7.31857 4.69259 7.3566C4.69259 7.39462 4.56759 7.50939 4.34024 7.50939ZM7.74305 1C7.7 0.999994 7.65737 1.00847 7.6176 1.02494C7.57783 1.04141 7.54169 1.06556 7.51125 1.096C7.48081 1.12644 7.45666 1.16258 7.44019 1.20235C7.42372 1.24213 7.41524 1.28476 7.41525 1.32781V3.69666C7.3007 3.66381 7.18207 3.64732 7.0629 3.64768C6.49774 3.64768 6.05499 4.00277 6.05499 4.45609C6.05499 4.90941 6.4977 5.2645 7.0629 5.2645C7.62811 5.2645 8.07086 4.90941 8.07086 4.45609V1.32781C8.07087 1.28476 8.06239 1.24213 8.04592 1.20235C8.02945 1.16258 8.0053 1.12644 7.97486 1.096C7.94442 1.06556 7.90828 1.04141 7.86851 1.02494C7.82873 1.00847 7.7861 0.999994 7.74305 1ZM7.0629 4.60889C6.8356 4.60889 6.7106 4.49412 6.7106 4.45609C6.7106 4.41806 6.83556 4.30329 7.0629 4.30329C7.29025 4.30329 7.41525 4.41806 7.41525 4.45609C7.41525 4.49412 7.29034 4.60889 7.0629 4.60889Z" fill="#667EEA"/>
</svg>
