<svg width="24" height="24" viewBox="0 0 24 24" fill="none" xmlns="http://www.w3.org/2000/svg">
<path d="M8.43844 14.9514C8.2911 14.5474 7.99522 14.2249 7.60537 14.0434C7.21551 13.8619 6.77822 13.8431 6.37418 13.9904L5.10944 14.4517C5.05633 14.4708 5.00896 14.5031 4.97181 14.5456L3.79283 15.9129L3.53094 15.1949C3.46172 14.9605 1.8928 9.49712 4.43517 6.06168C5.82543 4.18313 8.20899 3.23064 11.5198 3.23064C14.2769 3.23064 16.3996 3.89356 17.8291 5.20106C18.9536 6.22956 19.6607 7.66403 19.9309 9.46459C19.9372 9.50653 19.9517 9.54683 19.9735 9.58318C19.9954 9.61952 20.0242 9.6512 20.0583 9.67641C20.0924 9.70162 20.1311 9.71986 20.1723 9.73009C20.2135 9.74032 20.2562 9.74233 20.2982 9.73602C20.3401 9.72973 20.3804 9.71524 20.4167 9.69338C20.453 9.67153 20.4847 9.64272 20.5099 9.60862C20.5351 9.57453 20.5534 9.5358 20.5636 9.49465C20.5738 9.4535 20.5758 9.41074 20.5696 9.36881C20.2768 7.41812 19.5015 5.85556 18.265 4.72458C16.7127 3.30476 14.4433 2.58486 11.5198 2.58486C7.99303 2.58486 5.4348 3.62539 3.91611 5.67754C2.76193 7.23709 2.224 9.41457 2.36051 11.9746C2.46265 13.8907 2.89715 15.3306 2.91558 15.391C2.91726 15.3964 2.91907 15.4018 2.92104 15.4073L5.43927 22.3123C4.5322 22.151 3.76912 21.5343 3.42541 20.6504L2.74023 18.8885C2.487 18.2372 2.41591 17.5293 2.53458 16.8406C2.54378 16.7873 2.53944 16.7325 2.52195 16.6812C2.5161 16.6642 1.93689 14.951 1.70232 12.7113C1.48829 10.6671 1.52524 7.75052 2.917 5.4648C2.95993 5.39171 2.97239 5.30467 2.95171 5.22247C2.93104 5.14026 2.87887 5.06948 2.80646 5.0254C2.73406 4.98132 2.64723 4.96748 2.56471 4.98685C2.48219 5.00622 2.41059 5.05726 2.36537 5.12896C0.877448 7.57263 0.835124 10.6456 1.06161 12.7932C1.27908 14.8552 1.76578 16.4442 1.88498 16.812C1.76532 17.5911 1.8527 18.3879 2.13832 19.1225L2.8235 20.8844C3.06683 21.5102 3.4884 22.0413 4.04261 22.4204C4.59674 22.7995 5.24453 22.9999 5.91601 22.9999C6.15865 23.0058 6.31342 22.7286 6.20201 22.5188L7.98448 22.8061C8.03858 22.8153 8.09474 22.8088 8.14647 22.7907L9.41487 22.3281C9.81894 22.1808 10.1414 21.8849 10.3229 21.495C10.5044 21.1051 10.5232 20.6679 10.3759 20.2638L8.43844 14.9514ZM9.73748 21.2225C9.68432 21.3375 9.60889 21.4408 9.51555 21.5264C9.4222 21.6121 9.3128 21.6783 9.19366 21.7214L8.22859 22.0734L7.53589 20.174C7.47478 20.0065 7.28946 19.9201 7.12192 19.9813C7.08209 19.9958 7.0455 20.0181 7.01426 20.0467C6.98302 20.0754 6.95772 20.1099 6.93983 20.1484C6.92193 20.1868 6.91178 20.2284 6.90996 20.2708C6.90814 20.3131 6.91468 20.3554 6.92921 20.3953L7.54396 22.081L5.94858 21.8239L4.04626 16.6078L5.10153 15.384L6.48663 19.1819C6.50115 19.2217 6.52337 19.2583 6.55204 19.2896C6.5807 19.3208 6.61524 19.3461 6.65368 19.364C6.69213 19.3819 6.73372 19.3921 6.77608 19.3939C6.81845 19.3957 6.86076 19.3891 6.90059 19.3746C6.94043 19.3601 6.97701 19.3378 7.00826 19.3092C7.0395 19.2805 7.06479 19.246 7.08269 19.2075C7.10058 19.1691 7.11073 19.1275 7.11256 19.0851C7.11438 19.0428 7.10784 19.0005 7.09331 18.9606L5.63035 14.9491L6.59547 14.5972C6.71437 14.5534 6.84076 14.5337 6.96733 14.5392C7.09389 14.5446 7.21812 14.5751 7.33282 14.6289C7.44781 14.6821 7.55112 14.7575 7.63677 14.8508C7.72242 14.9442 7.78869 15.0536 7.83177 15.1727L9.76919 20.4851C9.8129 20.604 9.8326 20.7304 9.82716 20.857C9.82172 20.9835 9.79123 21.1078 9.73748 21.2225Z" fill="#667EEA"/>
<path d="M21.9008 8.5732C21.6479 7.04845 21.128 5.72716 20.3554 4.64607C18.6265 2.22671 15.6538 1 11.5195 1C7.71834 1 4.89194 2.0407 3.11888 4.09319C3.06322 4.15804 3.03555 4.24231 3.04191 4.32754C3.04828 4.41276 3.08817 4.49198 3.15284 4.54784C3.21751 4.60371 3.30169 4.63166 3.38693 4.62557C3.47218 4.61948 3.55153 4.57985 3.6076 4.51536C5.25249 2.61128 7.9144 1.64578 11.52 1.64578C15.4324 1.64578 18.2278 2.78097 19.8287 5.01981C21.4534 7.29191 21.5584 10.3283 21.3605 12.4754C21.1433 14.8302 20.5239 16.663 20.5177 16.6811C20.5002 16.7323 20.4958 16.7872 20.505 16.8406C20.6237 17.5292 20.5526 18.2372 20.2993 18.8885L19.6141 20.6504C19.2704 21.5342 18.5074 22.1509 17.6003 22.3123L20.1185 15.4072C20.1205 15.4018 20.1223 15.3964 20.124 15.3909C20.151 15.3025 20.7844 13.1974 20.6907 10.6913C20.684 10.5132 20.5345 10.3738 20.356 10.3807C20.2704 10.3839 20.1896 10.421 20.1313 10.4838C20.0731 10.5465 20.0421 10.6299 20.0453 10.7154C20.1321 13.0368 19.5492 15.0573 19.5085 15.1949L19.2467 15.9129L18.0677 14.5455C18.0306 14.503 17.9831 14.4706 17.9299 14.4516L16.6654 13.9904C15.8584 13.6771 14.8808 14.1323 14.6011 14.9514L12.6637 20.2638C12.5163 20.6678 12.5351 21.1051 12.7166 21.4949C12.8981 21.8848 13.2206 22.1807 13.6247 22.3281L14.8931 22.7907C14.945 22.8092 15.0006 22.8145 15.0551 22.8061L16.8376 22.5188C16.7261 22.7286 16.881 23.0058 17.1236 22.9999C17.795 22.9999 18.4428 22.7995 18.9969 22.4204C19.5511 22.0413 19.9727 21.5102 20.2161 20.8844L20.9012 19.1225C21.1869 18.3879 21.2743 17.591 21.1546 16.8119C21.2786 16.4294 21.7994 14.7287 22.0021 12.5505C22.1352 11.1192 22.1011 9.78109 21.9008 8.5732ZM13.3021 21.2225C13.2483 21.1078 13.2178 20.9835 13.2124 20.857C13.2069 20.7304 13.2266 20.604 13.2704 20.4851L15.2078 15.1727C15.2509 15.0536 15.3172 14.9442 15.4028 14.8508C15.4884 14.7575 15.5918 14.6821 15.7067 14.6289C15.834 14.5694 15.9727 14.5384 16.1131 14.5383C16.2246 14.5383 16.3363 14.5578 16.4441 14.5972L17.4092 14.9492L14.811 22.0734L13.8459 21.7215C13.7268 21.6784 13.6174 21.6121 13.5241 21.5264C13.4307 21.4408 13.3553 21.3375 13.3021 21.2225ZM15.4956 22.081L17.938 15.384L18.9933 16.6078L17.091 21.8239L15.4956 22.081Z" fill="#667EEA"/>
<path d="M5.21308 9.94562C5.12744 9.94562 5.0453 9.97964 4.98475 10.0402C4.92419 10.1008 4.89017 10.1829 4.89017 10.2685V12.7387C4.89017 12.8244 4.92419 12.9065 4.98475 12.9671C5.0453 13.0276 5.12744 13.0616 5.21308 13.0616C5.29872 13.0616 5.38085 13.0276 5.44141 12.9671C5.50197 12.9065 5.53599 12.8244 5.53599 12.7387V12.1323L6.40537 12.9711C6.46727 13.0291 6.54952 13.0604 6.63433 13.0583C6.71914 13.0562 6.7997 13.0207 6.8586 12.9597C6.9175 12.8986 6.95001 12.8168 6.94909 12.732C6.94818 12.6472 6.91391 12.5661 6.85371 12.5063L5.76308 11.4541L6.7603 10.5374C6.82207 10.4792 6.8584 10.3989 6.86143 10.314C6.86446 10.2292 6.83393 10.1465 6.77647 10.084C6.71901 10.0215 6.63923 9.98413 6.55441 9.98C6.46959 9.97588 6.38656 10.0053 6.3233 10.062L5.53594 10.7857V10.2685C5.53594 10.1829 5.50193 10.1008 5.44138 10.0402C5.38083 9.97966 5.29871 9.94563 5.21308 9.94562ZM11.0567 9.94562H10.3689C10.1953 9.94218 10.0429 10.0953 10.0459 10.2685V12.7387C10.0459 12.8244 10.08 12.9065 10.1405 12.9671C10.2011 13.0276 10.2832 13.0616 10.3689 13.0616C10.4545 13.0616 10.5366 13.0276 10.5972 12.9671C10.6577 12.9065 10.6918 12.8244 10.6918 12.7387V11.9869C10.8263 11.9862 10.9715 11.9856 11.0567 11.9856C11.6266 11.9856 12.0903 11.528 12.0903 10.9656C12.0903 10.4032 11.6266 9.94562 11.0567 9.94562ZM11.0567 11.3398C10.9721 11.3398 10.8287 11.3404 10.6948 11.3411C10.6941 11.2025 10.6931 10.7367 10.6927 10.5914H11.0567C11.2669 10.5914 11.4445 10.7628 11.4445 10.9656C11.4445 11.1684 11.2669 11.3398 11.0567 11.3398ZM17.1158 9.94562H16.428C16.2545 9.94218 16.102 10.0953 16.1051 10.2685V12.7387C16.1051 12.8244 16.1391 12.9065 16.1996 12.9671C16.2602 13.0276 16.3423 13.0616 16.428 13.0616C16.5136 13.0616 16.5957 13.0276 16.6563 12.9671C16.7169 12.9065 16.7509 12.8244 16.7509 12.7387V11.9869C16.8854 11.9862 17.0306 11.9856 17.1158 11.9856C17.6857 11.9856 18.1494 11.528 18.1494 10.9656C18.1494 10.4032 17.6857 9.94562 17.1158 9.94562ZM17.1158 11.3398C17.0312 11.3398 16.8877 11.3404 16.7538 11.3411C16.7532 11.2025 16.7522 10.7367 16.7518 10.5914H17.1158C17.326 10.5914 17.5036 10.7628 17.5036 10.9656C17.5036 11.1684 17.326 11.3398 17.1158 11.3398ZM7.50288 11.1807C7.41724 11.1807 7.33511 11.2147 7.27455 11.2753C7.21399 11.3359 7.17997 11.418 7.17997 11.5036C7.17997 11.5893 7.21399 11.6714 7.27455 11.732C7.33511 11.7925 7.41724 11.8265 7.50288 11.8265H8.99807C9.08371 11.8265 9.16584 11.7925 9.2264 11.732C9.28696 11.6714 9.32098 11.5893 9.32098 11.5036C9.32098 11.418 9.28696 11.3359 9.2264 11.2753C9.16584 11.2147 9.08371 11.1807 8.99807 11.1807H7.50288ZM14.0345 13.0616C14.8936 13.0616 15.5924 12.3627 15.5924 11.5036C15.5924 10.6446 14.8936 9.94562 14.0345 9.94562C13.1754 9.94562 12.4765 10.6446 12.4765 11.5036C12.4765 12.3627 13.1754 13.0616 14.0345 13.0616ZM14.0345 10.5914C14.5375 10.5914 14.9467 11.0006 14.9467 11.5036C14.9467 12.0066 14.5375 12.4158 14.0345 12.4158C13.5315 12.4158 13.1223 12.0066 13.1223 11.5036C13.1223 11.0006 13.5315 10.5914 14.0345 10.5914ZM12.5036 4.74378C12.1269 4.71228 11.7698 4.83139 11.5198 5.04989C11.2698 4.83135 10.9125 4.71211 10.5359 4.74378C10.0409 4.78537 9.47283 5.11494 9.36334 5.91519C9.14837 7.48652 11.2874 8.54574 11.3786 8.59009C11.4226 8.61149 11.4708 8.6226 11.5198 8.6226C11.5687 8.6226 11.6169 8.61149 11.6609 8.59009C11.7521 8.54574 13.8911 7.48652 13.6762 5.91519C13.5667 5.11494 12.9987 4.78537 12.5036 4.74378ZM11.5223 7.93408C11.1018 7.69522 9.87828 6.91585 10.0032 6.00272C10.0714 5.50446 10.4001 5.40327 10.59 5.38732C10.6111 5.38554 10.6323 5.38465 10.6535 5.38466C10.9145 5.38466 11.1527 5.51889 11.2116 5.70693C11.2322 5.77252 11.2732 5.82984 11.3286 5.87053C11.3841 5.91121 11.451 5.93316 11.5198 5.93316C11.5885 5.93316 11.6555 5.91121 11.7109 5.87053C11.7663 5.82984 11.8073 5.77252 11.8279 5.70693C11.8915 5.50377 12.1646 5.3633 12.4496 5.38732C12.6395 5.40327 12.9682 5.50446 13.0364 6.00272C13.1516 6.84452 12.0893 7.61989 11.5223 7.93408Z" fill="#667EEA"/>
</svg>
