<svg width="24" height="24" viewBox="0 0 24 24" fill="none" xmlns="http://www.w3.org/2000/svg">
<path d="M16.4395 4.48044C16.7799 5.61808 16.8234 6.95733 16.7541 7.91106C16.6861 8.8487 16.5956 9.61893 16.4523 10.2962" stroke="#667EEA" stroke-width="0.7" stroke-miterlimit="10" stroke-linecap="round" stroke-linejoin="round"/>
<path d="M9.96131 9.43422C10.1553 7.74688 9.06432 6.8523 9.08967 5.53076C9.14842 2.45226 12.1179 1.45225 13.5529 2.2764C14.6241 2.10175 15.3598 2.51705 15.8547 3.21806" stroke="#667EEA" stroke-width="0.7" stroke-miterlimit="10" stroke-linecap="round" stroke-linejoin="round"/>
<path d="M9.65265 10.5976C9.44138 11.1248 9.11422 11.7195 8.63132 12.4029C8.54721 12.522 8.56049 12.6866 8.66311 12.7884C8.88081 13.0041 9.29048 13.3787 9.84058 13.7441" stroke="#667EEA" stroke-width="0.7" stroke-miterlimit="10" stroke-linecap="round" stroke-linejoin="round"/>
<path d="M12.1014 9.44227C10.9456 9.54891 9.43578 9.44428 8.80635 9.23582C8.67999 9.12637 8.33114 8.63421 7.93878 7.66639C7.61358 6.86397 7.5263 6.69777 7.43612 6.02412C7.6587 5.41768 7.86228 4.26274 7.86228 4.26274L7.46469 4.08527C7.46469 4.08527 7.42807 3.97058 7.37254 3.54522C7.21519 3.54522 6.01321 3.54522 5.579 4.08527C5.4864 4.5734 5.84902 5.56577 6.245 6.09817C6.34798 6.93882 6.49084 7.29818 6.9001 8.26962C7.4104 9.48009 7.90498 10.1783 8.36977 10.3441C8.9303 10.5445 10.006 10.6733 11.0889 10.6733C11.1292 10.6733 11.1694 10.6733 11.2096 10.6725" stroke="#667EEA" stroke-width="0.7" stroke-miterlimit="10" stroke-linecap="round" stroke-linejoin="round"/>
<path d="M15.3409 20.2214V21.8786C15.3409 21.9458 15.281 22.0001 15.2069 22.0001H13.0391C12.9651 22.0001 12.9051 21.9458 12.9051 21.8786V20.2214" stroke="#667EEA" stroke-width="0.7" stroke-miterlimit="10" stroke-linecap="round" stroke-linejoin="round"/>
<path d="M11.5279 20.2214L10.9134 21.9184C10.8957 21.9671 10.8475 22.0001 10.7935 22.0001H8.67923C8.59271 22.0001 8.53151 21.9193 8.55851 21.8408L9.11747 20.2214" stroke="#667EEA" stroke-width="0.7" stroke-miterlimit="10" stroke-linecap="round" stroke-linejoin="round"/>
<path d="M12.027 9.52593C12.0238 9.59514 12.023 9.66436 12.0242 9.73317C12.0319 10.1702 12.0874 10.6064 12.1703 11.0354C12.6359 11.0632 13.0806 10.8334 13.4464 10.5453C13.5611 10.4547 13.6705 10.3585 13.778 10.2603C13.7824 10.7976 13.9273 11.3312 14.2275 11.7742C14.5828 12.2982 15.1683 12.6732 15.7909 12.7513" stroke="#667EEA" stroke-width="0.7" stroke-miterlimit="10" stroke-linecap="round" stroke-linejoin="round"/>
<path d="M15.7143 9.55293C15.7106 9.54931 15.707 9.54569 15.7042 9.54207C15.6781 9.5135 15.6515 9.48573 15.6237 9.45877C15.4266 9.26158 15.1915 9.08693 14.9263 8.9312" stroke="#667EEA" stroke-width="0.7" stroke-miterlimit="10" stroke-linecap="round" stroke-linejoin="round"/>
<path d="M9.14082 17.178C8.94042 18.322 8.73156 19.4013 8.63096 19.9124C8.59957 20.0726 8.72231 20.2215 8.88569 20.2215H15.5582C15.6998 20.2215 15.7976 20.106 15.8173 19.9659C16.19 17.3212 15.8833 16.6355 14.6093 15.318C15.1208 14.3727 15.2427 14.0411 15.9895 12.2825C16.0596 12.1175 16.1167 11.9578 16.1606 11.8041" stroke="#667EEA" stroke-width="0.7" stroke-miterlimit="10" stroke-linecap="round" stroke-linejoin="round"/>
<path d="M12.3614 9.17747C10.8273 10.6189 9.65304 13.8938 9.44383 15.318C9.42165 15.4709 9.39755 15.6282 9.37256 15.7884" stroke="#667EEA" stroke-width="0.7" stroke-miterlimit="10" stroke-linecap="round" stroke-linejoin="round"/>
<path d="M12.2401 9.29599C12.4542 9.07872 12.6758 8.89618 12.9033 8.75872C12.9196 8.46338 12.9043 8.20745 12.9043 8.20745C12.9043 8.20745 12.6827 8.32362 12.2914 8.48741C11.8308 8.4367 10.943 6.75693 10.8267 5.9768C12.3151 6.48666 12.4801 5.55032 13.0353 4.55453C12.8896 5.7405 14.6871 7.38619 14.6871 7.38619C14.6871 7.38619 14.8263 8.09948 14.9265 8.9322C15.2527 9.12355 15.5338 9.34424 15.7541 9.59853" stroke="#667EEA" stroke-width="0.7" stroke-miterlimit="10" stroke-linecap="round" stroke-linejoin="round"/>
<path d="M17.4042 13.7122C17.4724 14.1773 17.2834 16.5314 17.1067 17.0084C17.1013 17.1128 17.1182 17.3032 17.1599 17.5289C17.2587 18.0686 17.4972 18.8107 17.901 19.0611C18.4732 19.4158 19.2743 18.2943 19.3201 18.1913C19.3526 18.118 18.6463 17.7335 18.2466 17.3522C18.4164 16.8225 18.5788 15.433 18.6031 15.108C18.718 13.5813 18.5486 13.3286 18.4864 13.2073C18.3121 12.8666 17.1489 10.816 15.8303 9.69088C15.6833 9.50319 15.5043 9.33289 15.299 9.17848" stroke="#667EEA" stroke-width="0.7" stroke-miterlimit="10" stroke-linecap="round" stroke-linejoin="round"/>
<path d="M15.2989 10.8146C16.3283 11.8072 17.1787 13.3527 17.4042 13.7122" stroke="#667EEA" stroke-width="0.7" stroke-miterlimit="10" stroke-linecap="round" stroke-linejoin="round"/>
<path d="M13.4463 10.5453C13.8125 10.2568 14.1264 9.90585 14.4994 9.62617C14.7513 9.43703 15.0431 9.28009 15.3486 9.21731" stroke="#667EEA" stroke-width="0.7" stroke-miterlimit="10" stroke-linecap="round" stroke-linejoin="round"/>
<path d="M3.90948 16.8382C3.54605 16.8382 3.2514 17.1328 3.2514 17.4963C3.2514 17.8597 3.54605 18.1543 3.90948 18.1543C4.2729 18.1543 4.56755 17.8597 4.56755 17.4963C4.56755 17.1328 4.2729 16.8382 3.90948 16.8382Z" stroke="#667EEA" stroke-width="0.7" stroke-miterlimit="10" stroke-linecap="round" stroke-linejoin="round"/>
<path d="M6.49926 16.3287C6.13584 16.3287 5.84119 16.6233 5.84119 16.9868C5.84119 17.3502 6.13584 17.6448 6.49926 17.6448C6.86273 17.6448 7.15738 17.3502 7.15738 16.9868C7.15738 16.6233 6.86273 16.3287 6.49926 16.3287Z" stroke="#667EEA" stroke-width="0.7" stroke-miterlimit="10" stroke-linecap="round" stroke-linejoin="round"/>
<path d="M7.15737 16.9868V14.5616C7.15736 14.5424 7.15312 14.5235 7.14494 14.5062C7.13677 14.489 7.12487 14.4737 7.1101 14.4615C7.09533 14.4494 7.07805 14.4407 7.0595 14.436C7.04096 14.4313 7.02161 14.4308 7.00284 14.4345L4.67207 14.893C4.64263 14.8988 4.61611 14.9146 4.59704 14.9378C4.57798 14.961 4.56756 14.9901 4.56757 15.0201V17.4963" stroke="#667EEA" stroke-width="0.7" stroke-miterlimit="10" stroke-linecap="round" stroke-linejoin="round"/>
<path d="M19.1883 6.50743C18.8249 6.50743 18.5303 6.80204 18.5303 7.1655C18.5303 7.52893 18.8249 7.82354 19.1883 7.82354C19.5518 7.82354 19.8464 7.52893 19.8464 7.1655C19.8464 6.80204 19.5518 6.50743 19.1883 6.50743Z" stroke="#667EEA" stroke-width="0.7" stroke-miterlimit="10" stroke-linecap="round" stroke-linejoin="round"/>
<path d="M19.8463 7.1655V4.6893C19.8463 4.65929 19.8568 4.63021 19.8758 4.60703C19.8949 4.58386 19.9214 4.56802 19.9509 4.56222C20.1119 4.53051 20.2763 4.59803 20.3687 4.73373L20.7485 5.29176" stroke="#667EEA" stroke-width="0.7" stroke-miterlimit="10" stroke-linecap="round" stroke-linejoin="round"/>
</svg>
