<svg width="24" height="24" viewBox="0 0 24 24" fill="none" xmlns="http://www.w3.org/2000/svg">
<path d="M20.4163 5.16973L20.4152 5.16836C18.3637 2.51933 15.2965 1 12 1C9.12989 1 6.43222 2.14563 4.40384 4.22575C2.37842 6.3029 1.26291 9.06386 1.26291 12C1.26291 14.9361 2.37838 17.6971 4.40384 19.7743C6.43222 21.8544 9.12989 23 12 23C15.2965 23 18.3637 21.4807 20.4152 18.8316L20.4163 18.8302C21.9345 16.8692 22.737 14.5074 22.737 12C22.737 9.4926 21.9345 7.13078 20.4163 5.16973ZM14.2245 21.8657C13.5037 22.0357 12.7584 22.1235 12 22.1235C6.56289 22.1235 2.13943 17.5821 2.13943 12C2.13943 6.4178 6.56289 1.87648 12 1.87648C12.7584 1.87648 13.5038 1.9643 14.2245 2.13425L14.1794 2.13412C11.8591 2.13412 9.6813 3.1682 8.04716 5.04594C6.42801 6.9064 5.53632 9.37603 5.53632 12C5.53632 14.624 6.42801 17.0936 8.04712 18.954C9.6813 20.8318 11.8591 21.8658 14.1794 21.8658C14.195 21.8658 14.2105 21.8653 14.226 21.8652C14.2248 21.8655 14.2242 21.8657 14.2245 21.8657ZM12.0213 4.59361C15.0903 4.59361 17.5872 7.91608 17.5872 12C17.5872 16.0839 15.0904 19.4064 12.0214 19.4064C8.95238 19.4064 6.45551 16.0839 6.45551 12C6.45551 7.91612 8.95234 4.59361 12.0213 4.59361ZM19.7289 18.2863C18.2547 20.0294 16.2842 20.9894 14.1794 20.9894C13.022 20.9894 11.9231 20.6949 10.9353 20.1672C11.2922 20.2442 11.6562 20.283 12.0213 20.2829C13.7646 20.2829 15.396 19.4058 16.6148 17.8133C17.807 16.2557 18.4636 14.1911 18.4636 12C18.4636 9.80889 17.807 7.74437 16.6148 6.18667C15.396 4.59416 13.7647 3.71713 12.0213 3.71713C11.6534 3.71713 11.2906 3.75619 10.9354 3.8328C11.9232 3.30506 13.022 3.01064 14.1794 3.01064C16.2842 3.01064 18.2547 3.97047 19.7289 5.71367C21.1235 7.51823 21.8605 9.69176 21.8605 12C21.8605 14.3082 21.1235 16.4818 19.7289 18.2863Z" fill="#667EEA"/>
<path d="M4.67992 6.75404C4.46929 6.63484 4.2019 6.70896 4.0827 6.91955C4.00227 7.06169 3.92525 7.20574 3.8517 7.35156C3.74273 7.56765 3.82962 7.83122 4.04571 7.94019C4.0971 7.9661 4.15309 7.98163 4.21048 7.9859C4.26788 7.99018 4.32555 7.9831 4.38021 7.96508C4.43487 7.94706 4.48545 7.91845 4.52905 7.88089C4.57265 7.84332 4.60843 7.79753 4.63433 7.74614C4.70154 7.61284 4.77195 7.48118 4.84548 7.35126C4.96468 7.14067 4.89056 6.87332 4.67992 6.75404ZM4.10427 14.9743C3.78923 14.0191 3.62947 13.0184 3.62947 12C3.62947 11.0568 3.76688 10.1265 4.03793 9.23505C4.10831 9.00349 3.97769 8.75866 3.74608 8.68827C3.51453 8.61789 3.26969 8.74852 3.19931 8.98012C2.90317 9.9543 2.75299 10.9703 2.75299 12C2.75299 13.1119 2.92757 14.2049 3.27192 15.2489C3.30081 15.3364 3.35656 15.4127 3.43127 15.4667C3.50597 15.5208 3.59582 15.5499 3.68803 15.55C3.73354 15.55 3.77981 15.5429 3.82536 15.5278C4.05524 15.452 4.18011 15.2042 4.10427 14.9743Z" fill="#667EEA"/>
</svg>
