<svg width="24" height="24" viewBox="0 0 24 24" fill="none" xmlns="http://www.w3.org/2000/svg">
<path d="M17.3096 12.33C16.1023 12.627 15.2198 13.5706 15.2198 14.6889C15.2198 15.1312 15.3579 15.5461 15.5989 15.9042C15.6796 16.024 15.7128 16.1696 15.692 16.3125C15.6712 16.4555 15.5978 16.5855 15.4862 16.6773C14.8118 17.2326 14.3949 17.9992 14.3949 18.8463C14.3949 20.54 16.0629 21.9131 18.12 21.9131C19.0645 21.9131 19.9273 21.6237 20.5836 21.1461M18.9305 12.33C20.1378 12.627 21.0198 13.5706 21.0198 14.6889C21.0198 15.1312 20.8822 15.5461 20.6408 15.9042C20.5601 16.0241 20.527 16.1697 20.5479 16.3126C20.5688 16.4555 20.6422 16.5855 20.7539 16.6773C21.4279 17.2326 21.8448 17.9992 21.8448 18.8463C21.8448 19.2934 21.7289 19.7175 21.52 20.1006M17.3623 8.1493L17.277 14.9046M17.38 6.74205L17.3941 5.62415H18.8456L18.9631 14.9046" stroke="#667EEA" stroke-width="0.7" stroke-miterlimit="10" stroke-linecap="round" stroke-linejoin="round"/>
<path d="M18.6523 3.10052H17.5874C17.3039 3.10052 17.074 3.33038 17.074 3.61392V5.11086C17.074 5.3944 17.3039 5.62426 17.5874 5.62426H18.6523C18.9358 5.62426 19.1657 5.3944 19.1657 5.11086V3.61392C19.1657 3.33038 18.9358 3.10052 18.6523 3.10052Z" stroke="#667EEA" stroke-width="0.7" stroke-miterlimit="10" stroke-linecap="round" stroke-linejoin="round"/>
<path d="M18.1199 17.0728C18.8091 17.0728 19.3678 16.5141 19.3678 15.825C19.3678 15.1358 18.8091 14.5771 18.1199 14.5771C17.4307 14.5771 16.872 15.1358 16.872 15.825C16.872 16.5141 17.4307 17.0728 18.1199 17.0728Z" stroke="#667EEA" stroke-width="0.7" stroke-miterlimit="10" stroke-linecap="round" stroke-linejoin="round"/>
<path d="M16.8189 19.2928H19.4209M5.5576 5.56125V4.48696M5.5576 10.8816V6.97517M5.5576 3.07304V2M6.13977 15.2443H10.5865C10.9184 15.2443 11.1881 14.9746 11.1881 14.6427V11.4555C11.1881 11.1384 10.9309 10.8817 10.6138 10.8817H4.4947C4.1776 10.8817 3.92046 11.1384 3.92046 11.4555V14.6427C3.92046 14.9746 4.18967 15.2443 4.52207 15.2443H4.73132M9.25398 22L7.55426 19.2928L5.85454 22M7.55414 15.2441V22M3.61168 11.9594H11.4966M11.0405 22L12.7402 20.6612L14.4399 22M12.7402 8.24491V22M12.8213 6.53928C12.9174 6.14789 12.8123 5.7169 12.5065 5.41103C12.0413 4.94579 11.2867 4.9458 10.8212 5.41131C10.356 5.87654 10.356 6.63107 10.8212 7.0963C11.127 7.40213 11.558 7.5072 11.9494 7.41115M8.74863 4.48696H2.36633C2.1613 4.48696 2.07647 4.22181 2.245 4.10507C3.18561 3.4536 4.32669 3.073 5.55748 3.073C6.78826 3.073 7.92935 3.45364 8.86995 4.10507C9.03849 4.22177 8.95366 4.48696 8.74863 4.48696ZM2.36633 5.56137H8.74867C8.9537 5.56137 9.03853 5.82652 8.86999 5.94326C7.92939 6.59473 6.7883 6.97533 5.55752 6.97533C4.32673 6.97533 3.18565 6.59469 2.24504 5.94326C2.07647 5.82656 2.1613 5.56137 2.36633 5.56137ZM11.9109 7.44994L13.3155 8.68491C13.5343 8.87722 13.8648 8.86664 14.0708 8.66064C14.2767 8.45469 14.2873 8.12414 14.095 7.90539L12.8601 6.50076L11.9109 7.44994Z" stroke="#667EEA" stroke-width="0.7" stroke-miterlimit="10" stroke-linecap="round" stroke-linejoin="round"/>
</svg>
