<svg width="24" height="24" viewBox="0 0 24 24" fill="none" xmlns="http://www.w3.org/2000/svg">
<path d="M12.5754 23.0001H11.4245C11.18 23.0001 10.9819 22.8019 10.9819 22.5574V21.6721H13.0181V22.5574C13.0181 22.8019 12.8199 23.0001 12.5754 23.0001Z" stroke="#667EEA" stroke-width="0.8" stroke-miterlimit="10" stroke-linecap="round" stroke-linejoin="round"/>
<path d="M10.008 16.2257V10.4304" stroke="#667EEA" stroke-width="0.8" stroke-miterlimit="10" stroke-linecap="round" stroke-linejoin="round"/>
<path d="M13.9919 20.1693V20.7868C13.9919 21.2759 13.5958 21.6721 13.1066 21.6721H10.8933C10.4042 21.6721 10.008 21.2759 10.008 20.7868V17.6627" stroke="#667EEA" stroke-width="0.8" stroke-miterlimit="10" stroke-linecap="round" stroke-linejoin="round"/>
<path d="M13.9919 17.1353V10.4304" stroke="#667EEA" stroke-width="0.8" stroke-miterlimit="10" stroke-linecap="round" stroke-linejoin="round"/>
<path d="M13.261 5.42655H13.4165C14.1499 5.42655 14.7444 6.02113 14.7444 6.75453V9.23342C14.7444 9.96681 14.1499 10.5614 13.4165 10.5614H10.5835C9.85002 10.5614 9.25548 9.96681 9.25548 9.23342V6.75453C9.25548 6.02113 9.85002 5.42655 10.5835 5.42655H11.824" stroke="#667EEA" stroke-width="0.8" stroke-miterlimit="10" stroke-linecap="round" stroke-linejoin="round"/>
<path d="M9.25548 7.34021H10.1283" stroke="#667EEA" stroke-width="0.8" stroke-miterlimit="10" stroke-linecap="round" stroke-linejoin="round"/>
<path d="M9.25548 8.94166H10.1283" stroke="#667EEA" stroke-width="0.8" stroke-miterlimit="10" stroke-linecap="round" stroke-linejoin="round"/>
<path d="M13.8716 7.34021H14.7445" stroke="#667EEA" stroke-width="0.8" stroke-miterlimit="10" stroke-linecap="round" stroke-linejoin="round"/>
<path d="M13.8716 8.94166H14.7445" stroke="#667EEA" stroke-width="0.8" stroke-miterlimit="10" stroke-linecap="round" stroke-linejoin="round"/>
<path d="M11.5635 7.34021H12.4364" stroke="#667EEA" stroke-width="0.8" stroke-miterlimit="10" stroke-linecap="round" stroke-linejoin="round"/>
<path d="M11.5635 8.94166H12.4364" stroke="#667EEA" stroke-width="0.8" stroke-miterlimit="10" stroke-linecap="round" stroke-linejoin="round"/>
<path d="M12 14.5725C11.6333 14.5725 11.336 14.2753 11.336 13.9086V12.8462C11.336 12.4795 11.6333 12.1822 12 12.1822C12.3667 12.1822 12.664 12.4795 12.664 12.8462V13.9086C12.664 14.2753 12.3667 14.5725 12 14.5725Z" stroke="#667EEA" stroke-width="0.8" stroke-miterlimit="10" stroke-linecap="round" stroke-linejoin="round"/>
<path d="M15.3485 16.0427L15.792 16.9437C15.8155 16.9915 15.8502 17.0329 15.8933 17.0642C15.9363 17.0956 15.9863 17.116 16.039 17.1237L17.0306 17.2682C17.2997 17.3074 17.4072 17.639 17.2124 17.8293L16.4949 18.5306C16.4568 18.5679 16.4283 18.6139 16.4119 18.6646C16.3954 18.7153 16.3915 18.7693 16.4006 18.8218L16.5699 19.8121C16.6159 20.0809 16.3346 20.2858 16.0939 20.1589L15.207 19.6913C15.1599 19.6665 15.1075 19.6535 15.0543 19.6535C15.0011 19.6535 14.9487 19.6665 14.9017 19.6913L14.0147 20.1589C13.7741 20.2858 13.4927 20.0809 13.5387 19.8121L13.7081 18.8218C13.7171 18.7693 13.7132 18.7153 13.6968 18.6646C13.6804 18.6139 13.6519 18.5679 13.6138 18.5306L12.8962 17.8293C12.7015 17.639 12.8089 17.3074 13.078 17.2682L14.0697 17.1237C14.1223 17.116 14.1724 17.0956 14.2154 17.0642C14.2584 17.0329 14.2932 16.9915 14.3167 16.9437L14.7602 16.0427C14.8805 15.7982 15.2282 15.7982 15.3485 16.0427Z" stroke="#667EEA" stroke-width="0.8" stroke-miterlimit="10" stroke-linecap="round" stroke-linejoin="round"/>
<path d="M4.43582 3.77677L4.6011 3.44092C4.72146 3.19644 5.06913 3.19644 5.18944 3.44092L5.63294 4.34195C5.65643 4.38973 5.69119 4.43108 5.73422 4.46243C5.77725 4.49378 5.82727 4.51419 5.87995 4.52189L6.87159 4.66638C7.14068 4.7056 7.24811 5.03715 7.05343 5.22745L6.33584 5.92884C6.29774 5.96612 6.26925 6.01208 6.25282 6.06279C6.23639 6.1135 6.23251 6.16744 6.24151 6.21998L6.41091 7.21029C6.45686 7.47903 6.1756 7.68398 5.93492 7.55707L5.04797 7.08949C5.0009 7.06468 4.9485 7.05171 4.8953 7.05171C4.84209 7.05171 4.78969 7.06468 4.74262 7.08949L3.85567 7.55707C3.61499 7.68398 3.33373 7.47903 3.37968 7.21029L3.54908 6.21998C3.55808 6.16744 3.55419 6.11349 3.53775 6.06279C3.52131 6.01208 3.49282 5.96611 3.45471 5.92884L2.73716 5.22745C2.54248 5.03715 2.64991 4.7056 2.91896 4.66638L3.35998 4.60215" stroke="#667EEA" stroke-width="0.8" stroke-miterlimit="10" stroke-linecap="round" stroke-linejoin="round"/>
<path d="M19.3988 1.18336L19.8423 2.08439C19.8658 2.13218 19.9006 2.17353 19.9436 2.20488C19.9866 2.23623 20.0366 2.25663 20.0893 2.26433L21.081 2.40882C21.3501 2.44804 21.4575 2.77959 21.2628 2.96989L20.5452 3.67128C20.5071 3.70855 20.4786 3.75452 20.4622 3.80523C20.4458 3.85594 20.4419 3.90988 20.4509 3.96242L20.6203 4.95273C20.6662 5.22147 20.3849 5.42642 20.1443 5.29951L19.2573 4.83193C19.2103 4.80712 19.1579 4.79415 19.1047 4.79415C19.0515 4.79415 18.9991 4.80712 18.952 4.83193L18.0651 5.29951C17.8244 5.42642 17.5431 5.22147 17.5891 4.95273L17.7584 3.96242C17.7674 3.90988 17.7636 3.85594 17.7471 3.80523C17.7307 3.75452 17.7022 3.70855 17.6641 3.67128L16.9465 2.96989C16.7518 2.77959 16.8592 2.44804 17.1283 2.40882L18.12 2.26433C18.1727 2.25663 18.2227 2.23623 18.2657 2.20488C18.3087 2.17353 18.3435 2.13218 18.367 2.08439L18.8105 1.18336C18.9308 0.938881 19.2785 0.938881 19.3988 1.18336Z" stroke="#667EEA" stroke-width="0.8" stroke-miterlimit="10" stroke-linecap="round" stroke-linejoin="round"/>
</svg>
