<svg width="24" height="24" viewBox="0 0 24 24" fill="none" xmlns="http://www.w3.org/2000/svg">
<path d="M13 11L11 13" stroke="#667EEA" stroke-miterlimit="10" stroke-linecap="round" stroke-linejoin="round"/>
<path d="M1.79245 22.0001C1.79245 22.0001 4.17781 21.9307 4.57657 19.6218" stroke="#667EEA" stroke-miterlimit="10" stroke-linecap="round" stroke-linejoin="round"/>
<path d="M21.8068 17.5279V15.9256C21.8068 14.677 20.0731 13.6566 18.824 13.6566V19.7228" stroke="#667EEA" stroke-miterlimit="10" stroke-linecap="round" stroke-linejoin="round"/>
<path d="M5.06702 3.2439L9.69306 2.01418C9.93065 1.9507 10.1259 2.10709 10.1259 2.36219V3.47315C10.1259 3.72714 9.93065 3.98689 9.69306 4.05042L5.06702 5.28133C4.82939 5.34478 4.63536 5.18843 4.63536 4.93332V3.82232C4.63536 3.56722 4.82939 3.30738 5.06702 3.2439Z" stroke="#667EEA" stroke-miterlimit="10" stroke-linecap="round" stroke-linejoin="round"/>
<path d="M4.63536 4.37727V9.23264" stroke="#667EEA" stroke-miterlimit="10" stroke-linecap="round" stroke-linejoin="round"/>
<path d="M10.1259 2.91713V7.26935" stroke="#667EEA" stroke-miterlimit="10" stroke-linecap="round" stroke-linejoin="round"/>
<path d="M3.23919 10.5365C4.00845 10.5365 4.63534 10.0027 4.63534 9.34787C4.63534 8.69305 4.00845 8.15931 3.23919 8.15931C2.46994 8.15931 1.84305 8.69305 1.84305 9.34787C1.84305 10.0027 2.46994 10.5365 3.23919 10.5365Z" stroke="#667EEA" stroke-miterlimit="10" stroke-linecap="round" stroke-linejoin="round"/>
<path d="M8.7298 6.08192C9.50017 6.08192 10.1259 6.61333 10.1259 7.26931C10.1259 7.92533 9.50017 8.4579 8.7298 8.4579C7.95817 8.4579 7.33365 7.92533 7.33365 7.26931C7.33365 6.61333 7.95817 6.08192 8.7298 6.08192Z" stroke="#667EEA" stroke-miterlimit="10" stroke-linecap="round" stroke-linejoin="round"/>
<path d="M13.117 14.1809L13.6192 13.6813L16.6856 10.7704M13.4322 7.51856L4.05075 17.3916C3.59436 17.8724 3.58262 18.6272 4.05075 19.0962L5.10345 20.1473C5.57155 20.6164 6.3279 20.6034 6.80777 20.1473L10.3764 16.7497" stroke="#667EEA" stroke-miterlimit="10" stroke-linecap="round" stroke-linejoin="round"/>
<path d="M21.3434 8.6213L15.5823 2.86419C15.193 2.47506 14.5567 2.47506 14.1674 2.86419C13.7781 3.25336 13.7781 3.88934 14.1674 4.27851L19.9273 10.0356C20.3166 10.4247 20.9541 10.4247 21.3434 10.0356C21.7328 9.64761 21.7328 9.01043 21.3434 8.6213Z" stroke="#667EEA" stroke-miterlimit="10" stroke-linecap="round" stroke-linejoin="round"/>
<path d="M14.0003 4.05747C12.8994 5.7786 13.1017 8.09226 14.6073 9.59708C16.1116 11.1007 18.4264 11.3029 20.1484 10.2026M21.5105 8.84231C22.6102 7.12118 22.409 4.80752 20.9035 3.30274C19.398 1.79908 17.0843 1.59688 15.3612 2.69726" stroke="#667EEA" stroke-miterlimit="10" stroke-linecap="round" stroke-linejoin="round"/>
<path d="M16.8785 21.3793C17.95 21.3793 18.824 20.6351 18.824 19.7228C18.824 18.8106 17.95 18.0664 16.8785 18.0664C15.8058 18.0664 14.9319 18.8106 14.9319 19.7228C14.9319 20.6351 15.8058 21.3793 16.8785 21.3793Z" stroke="#667EEA" stroke-miterlimit="10" stroke-linecap="round" stroke-linejoin="round"/>
<path d="M11.7408 15.4659L11.7475 15.4579" stroke="#667EEA" stroke-miterlimit="10" stroke-linecap="round" stroke-linejoin="round"/>
</svg>
