<svg width="24" height="24" viewBox="0 0 24 24" fill="none" xmlns="http://www.w3.org/2000/svg">
<path d="M6.8897 16.0555C6.77155 15.8511 6.58092 15.7049 6.35283 15.6439C6.12474 15.5828 5.88653 15.6144 5.68274 15.7323C5.47821 15.8502 5.33186 16.0407 5.2707 16.2688C5.20953 16.4969 5.24086 16.7351 5.35897 16.9396L6.83712 19.4996C6.89484 19.6004 6.97198 19.6887 7.06409 19.7594C7.15619 19.8301 7.26142 19.8819 7.37367 19.9116C7.48578 19.942 7.6028 19.9498 7.71796 19.9347C7.83312 19.9195 7.94412 19.8816 8.04454 19.8233C8.46643 19.5795 8.61133 19.038 8.36772 18.6161L6.8897 16.0555ZM7.72654 19.2728C7.66919 19.3059 7.6023 19.3147 7.53832 19.2976C7.47434 19.2804 7.4209 19.2394 7.38775 19.1819L5.90946 16.6217C5.8931 16.5935 5.88248 16.5623 5.87823 16.53C5.87398 16.4977 5.87619 16.4649 5.88471 16.4334C5.8931 16.4019 5.90767 16.3723 5.92757 16.3465C5.94747 16.3206 5.97231 16.2989 6.00064 16.2827C6.02877 16.2664 6.05986 16.2558 6.09211 16.2515C6.12437 16.2473 6.15715 16.2495 6.18854 16.258C6.22004 16.2663 6.24957 16.2808 6.27543 16.3006C6.3013 16.3204 6.32297 16.3452 6.33921 16.3734L7.81722 18.934C7.85006 18.9909 7.85895 19.0586 7.84195 19.1221C7.82495 19.1856 7.78344 19.2398 7.72654 19.2728V19.2728ZM23.4012 9.88018L21.9718 7.40421C21.9297 7.33122 21.8602 7.27795 21.7788 7.25613C21.6974 7.23431 21.6106 7.24571 21.5376 7.28783L20.8926 7.66023L20.6231 7.19338C20.581 7.12037 20.5115 7.06709 20.4301 7.04526C20.3487 7.02344 20.2619 7.03485 20.1889 7.077C20.1159 7.11914 20.0626 7.18857 20.0408 7.26999C20.019 7.35142 20.0304 7.43819 20.0725 7.5112L20.3421 7.97809L19.9726 8.19142L19.7032 7.72485C19.6607 7.65244 19.5914 7.59975 19.5102 7.5783C19.4291 7.55685 19.3427 7.56836 19.27 7.61033C19.1973 7.6523 19.1442 7.72132 19.1222 7.80232C19.1002 7.88333 19.1111 7.96974 19.1526 8.04271L19.422 8.50924L19.0523 8.72271L18.7828 8.25595C18.7621 8.21951 18.7343 8.18752 18.7012 8.16184C18.6681 8.13616 18.6302 8.11728 18.5897 8.1063C18.5493 8.09531 18.5071 8.09244 18.4655 8.09784C18.4239 8.10325 18.3838 8.11682 18.3475 8.13778C18.3112 8.15874 18.2794 8.18667 18.254 8.21997C18.2285 8.25327 18.2099 8.29128 18.1992 8.33181C18.1884 8.37234 18.1858 8.41458 18.1915 8.45611C18.1972 8.49765 18.211 8.53765 18.2322 8.57381L18.5017 9.04057L17.8451 9.41973C17.8089 9.44059 17.7772 9.46837 17.7518 9.50149C17.7264 9.5346 17.7077 9.57241 17.6969 9.61274C17.6861 9.65308 17.6834 9.69514 17.6888 9.73653C17.6943 9.77793 17.7079 9.81784 17.7288 9.85398L17.9437 10.226L14.9982 11.9266C14.4109 11.2213 13.32 10.2955 11.7308 10.4775C11.709 10.4799 11.6878 10.4827 11.6667 10.4856C11.5097 10.2397 11.3266 10.0117 11.1204 9.80544C10.359 9.04411 9.34737 8.6249 8.27136 8.6249H8.27081C6.04887 8.6249 4.24123 10.4326 4.24123 12.6545V14.1655C3.49226 14.6914 2.98105 15.4434 2.79423 16.3004C2.57336 17.3138 2.80259 18.4563 3.45866 19.6072C3.72303 20.0603 4.0205 20.4573 4.34277 20.7869C5.11953 21.5816 6.05522 21.9998 7.02947 21.9998C7.24253 21.9998 7.4574 21.9798 7.67291 21.9394C9.00871 21.6887 10.2084 20.6653 10.8039 19.2685C11.1942 18.3522 11.6778 18.1333 12.0556 18.045C12.3637 17.9727 12.6977 17.9741 13.0509 17.9751C13.8651 17.9779 14.7873 17.9813 15.5021 17.0175C16.3936 15.8161 16.2133 14.494 15.9582 13.6809L18.9437 11.9572L19.1586 12.3296C19.2008 12.4026 19.2702 12.4559 19.3516 12.4777C19.4331 12.4995 19.5198 12.4881 19.5928 12.4459L20.2489 12.0671L20.4836 12.4734C20.5044 12.5096 20.5322 12.5413 20.5653 12.5667C20.5984 12.5921 20.6363 12.6108 20.6766 12.6216C20.7169 12.6324 20.759 12.6351 20.8004 12.6297C20.8418 12.6242 20.8817 12.6106 20.9178 12.5897C20.9908 12.5476 21.0441 12.4781 21.0659 12.3967C21.0877 12.3153 21.0763 12.2285 21.0341 12.1555L20.7995 11.7493L21.1693 11.5357L21.404 11.9419C21.4248 11.9781 21.4526 12.0098 21.4857 12.0352C21.5188 12.0606 21.5566 12.0793 21.597 12.0901C21.6373 12.1009 21.6793 12.1036 21.7207 12.0982C21.7621 12.0927 21.802 12.0791 21.8382 12.0582C21.9112 12.0161 21.9644 11.9466 21.9862 11.8652C22.0081 11.7838 21.9966 11.697 21.9545 11.624L21.7199 11.2178L22.0896 11.0043L22.3244 11.4109C22.3452 11.447 22.373 11.4787 22.4061 11.5042C22.4392 11.5296 22.477 11.5482 22.5173 11.559C22.5577 11.5699 22.5997 11.5726 22.6411 11.5671C22.6825 11.5617 22.7224 11.5481 22.7586 11.5272C22.8316 11.485 22.8848 11.4156 22.9066 11.3342C22.9285 11.2528 22.917 11.166 22.8749 11.093L22.6402 10.6865L23.285 10.3141C23.358 10.272 23.4112 10.2026 23.4331 10.1211C23.4549 10.0397 23.4435 9.95296 23.4013 9.87995L23.4012 9.88018ZM8.27086 9.26085H8.27131C9.17749 9.26085 10.0296 9.61399 10.671 10.2553C10.7985 10.3828 10.9155 10.5203 11.0211 10.6665C10.3304 10.9763 9.98463 11.5786 9.67399 12.1198C9.20319 12.9401 8.83138 13.5882 7.42916 13.4168C6.5322 13.3072 5.64505 13.4431 4.87691 13.8V12.6547C4.87691 10.7833 6.39942 9.26085 8.27086 9.26085ZM14.9915 16.639C14.4682 17.3447 13.8127 17.3426 13.0531 17.3396C12.6788 17.3384 12.2912 17.3369 11.9106 17.4262C11.1431 17.6057 10.6056 18.1121 10.219 19.0196C9.70582 20.2233 8.6853 21.1028 7.55567 21.3148C6.5703 21.4997 5.59078 21.1545 4.7974 20.3427C4.5116 20.0504 4.24591 19.6951 4.00937 19.2898C2.70591 17.0033 3.52691 15.3697 4.73001 14.6032C5.47267 14.1293 6.40387 13.9321 7.3521 14.0479C7.53092 14.0697 7.69739 14.08 7.85301 14.08C9.28184 14.08 9.78043 13.2115 10.2253 12.4363C10.5719 11.8324 10.8712 11.3109 11.5814 11.1469C11.6543 11.1299 11.7281 11.1174 11.8025 11.1094C13.042 10.9678 13.9281 11.6682 14.4382 12.2501L12.2338 13.5228C12.1608 13.565 12.1076 13.6344 12.0858 13.7159C12.064 13.7973 12.0754 13.8841 12.1175 13.9571L12.7996 15.1379C12.8204 15.174 12.8482 15.2057 12.8813 15.2312C12.9145 15.2566 12.9523 15.2752 12.9926 15.286C13.0329 15.2968 13.075 15.2996 13.1163 15.2941C13.1577 15.2886 13.1976 15.2751 13.2338 15.2542L15.393 14.0075C15.6069 14.7667 15.6538 15.7465 14.9916 16.639H14.9915ZM19.5502 11.7367L19.3353 11.3643C19.3144 11.3282 19.2866 11.2965 19.2535 11.2711C19.2204 11.2457 19.1826 11.227 19.1423 11.2162C19.102 11.2054 19.0599 11.2026 19.0185 11.2081C18.9771 11.2135 18.9372 11.2271 18.9011 11.248L13.1911 14.5448L12.827 13.9144L18.5369 10.6177C18.5731 10.5969 18.6048 10.5691 18.6302 10.536C18.6556 10.5028 18.6743 10.465 18.6851 10.4247C18.6959 10.3844 18.6986 10.3423 18.6931 10.3009C18.6877 10.2595 18.6741 10.2196 18.6532 10.1835L18.4383 9.81147L21.5802 7.99739L22.6918 9.92277L19.5503 11.7367H19.5502ZM3.77951 7.25813C4.28301 7.64261 5.12947 7.58826 6.10181 7.10879C8.7249 5.81536 10.6582 6.58231 11.387 7.23934C11.4764 7.31985 11.5516 7.40281 11.6048 7.47928C11.6657 7.56673 11.6848 7.6531 11.6768 7.69633C11.675 7.7065 11.6727 7.71908 11.6466 7.73683C11.6438 7.73874 11.5749 7.78243 11.271 7.70105C11.0734 7.6482 10.8401 7.5616 10.57 7.46129C9.42047 7.03454 7.68349 6.38974 6.09201 7.56015C6.02531 7.61055 5.98115 7.68519 5.96909 7.76792C5.95703 7.85064 5.97803 7.93479 6.02756 8.00213C6.07709 8.06948 6.15116 8.11461 6.23372 8.12774C6.31628 8.14088 6.40069 8.12097 6.46867 8.07232C7.7838 7.10515 9.26626 7.65551 10.3487 8.05729C10.6221 8.15877 10.8803 8.25463 11.1066 8.31521C11.2457 8.3524 11.4041 8.38623 11.5622 8.38623C11.7162 8.38623 11.8699 8.35412 12.0051 8.26185C12.1653 8.15251 12.2679 7.99675 12.302 7.8114C12.343 7.58876 12.2791 7.33542 12.1267 7.11628C12.045 6.99885 11.9393 6.88142 11.8127 6.76717C10.9649 6.0029 8.74888 5.09481 5.8206 6.53863C4.95229 6.96684 4.38622 6.92165 4.16526 6.75292C4.06868 6.67917 4.03376 6.58132 4.05851 6.45381C4.11799 6.14748 4.52908 5.69571 5.49197 5.43052C6.38657 5.18409 8.01362 5.03583 10.6841 5.72908C10.7279 5.74045 10.7736 5.74234 10.8182 5.73462C10.8628 5.7269 10.9052 5.70976 10.9426 5.68432C10.9801 5.65889 11.0116 5.62577 11.0352 5.58716C11.0588 5.54855 11.0739 5.50535 11.0794 5.46044C11.1613 4.79875 11.2047 3.86578 10.9468 3.1791C10.6165 2.29903 9.79732 2.30694 9.13953 2.31361C8.90526 2.31593 8.66305 2.31833 8.44823 2.28582C8.44161 2.28481 8.43496 2.28402 8.42829 2.28346C8.21165 2.26457 7.9767 2.20545 7.74947 2.14823C7.11143 1.98762 6.31732 1.78764 5.78949 2.56545C5.36124 3.1965 5.18383 4.15771 5.11067 4.88135C4.17394 5.1864 3.55338 5.71973 3.43441 6.33266C3.36434 6.6937 3.49326 7.03967 3.77938 7.25813H3.77951ZM6.31564 2.92241C6.56853 2.54978 6.8833 2.5857 7.59436 2.7647C7.84274 2.82723 8.09944 2.89185 8.36327 2.91591C8.62523 2.95447 8.88987 2.95188 9.14593 2.94929C9.8791 2.94216 10.1936 2.98098 10.3518 3.40256C10.4956 3.7854 10.5409 4.34139 10.4855 5.02411C9.15379 4.70398 8.07465 4.59068 7.21401 4.59068C6.63791 4.59068 6.15985 4.64145 5.76951 4.71497C5.86964 3.92794 6.06054 3.29835 6.31564 2.92241ZM10.1376 14.4751C9.4355 14.4751 8.86426 15.0463 8.86426 15.7484C8.86426 16.4505 9.43541 17.0211 10.1376 17.0213C10.8395 17.0213 11.4105 16.4503 11.4105 15.7484C11.4105 15.4083 11.2781 15.0887 11.0378 14.8481C10.7974 14.6076 10.4777 14.4751 10.1376 14.4751ZM10.1377 16.3856C9.78606 16.3855 9.50003 16.0996 9.50003 15.7484C9.50003 15.3972 9.78601 15.1108 10.1376 15.1108C10.3078 15.1108 10.4678 15.1771 10.5882 15.2975C10.6475 15.3566 10.6946 15.4269 10.7266 15.5043C10.7586 15.5817 10.775 15.6647 10.7748 15.7484C10.7748 16.0997 10.4889 16.3856 10.1377 16.3856ZM20.7258 13.2855C20.6788 13.2573 20.6252 13.2417 20.5704 13.2403C20.5155 13.2389 20.4612 13.2517 20.4128 13.2775L17.3865 14.889C17.3356 14.9161 17.2931 14.9565 17.2634 15.0059C17.2337 15.0553 17.218 15.1119 17.218 15.1695V16.8508C17.0629 16.7745 16.8924 16.7349 16.7195 16.7351C16.0942 16.7351 15.5853 17.2439 15.5853 17.8693C15.5853 18.4946 16.0941 19.0039 16.7195 19.0039C17.345 19.0039 17.8538 18.4949 17.8538 17.8692V15.3603L20.2443 14.0874V16.3276C20.0892 16.2517 19.9187 16.2123 19.7459 16.2126H19.7458C19.1202 16.2126 18.6112 16.7214 18.6112 17.3468C18.6112 17.9722 19.1202 18.4809 19.7458 18.481C20.3712 18.481 20.8801 17.9721 20.8801 17.3467V13.558C20.8801 13.5032 20.8659 13.4492 20.8389 13.4015C20.8118 13.3537 20.7729 13.3138 20.7258 13.2855ZM16.7195 18.3681C16.4447 18.3681 16.221 18.1444 16.221 17.8693C16.221 17.5942 16.4446 17.3708 16.7195 17.3708C16.9944 17.3708 17.218 17.5944 17.218 17.8692C17.218 18.144 16.9944 18.3682 16.7195 18.3682V18.3681ZM19.7459 17.8453C19.4707 17.8453 19.2469 17.6217 19.2469 17.3468C19.2469 17.072 19.4707 16.8483 19.7459 16.8483C19.879 16.8483 20.0041 16.9002 20.0983 16.9944C20.1925 17.0886 20.2444 17.2137 20.2444 17.3467C20.2444 17.6217 20.0207 17.8453 19.7459 17.8453ZM2.82661 8.98957L4.04225 9.34045C4.08236 9.35203 4.12435 9.35559 4.16583 9.35094C4.20731 9.34629 4.24748 9.33351 4.28402 9.31334C4.32057 9.29317 4.35278 9.26599 4.37882 9.23337C4.40487 9.20075 4.42423 9.16332 4.43581 9.12321C4.44739 9.08311 4.45095 9.04111 4.4463 8.99963C4.44165 8.95815 4.42887 8.91799 4.4087 8.88144C4.38853 8.8449 4.36135 8.81268 4.32873 8.78664C4.29611 8.76059 4.25868 8.74123 4.21857 8.72965L2.59693 8.26158C2.5496 8.24792 2.49973 8.24545 2.45128 8.25436C2.40282 8.26328 2.3571 8.28334 2.31773 8.31295C2.27835 8.34257 2.2464 8.38093 2.2244 8.42501C2.20239 8.46909 2.19094 8.51769 2.19093 8.56695V11.0315C2.03555 10.955 1.86464 10.9153 1.69143 10.9154C1.06547 10.9154 0.556213 11.4247 0.556213 12.0506C0.556213 12.6766 1.06547 13.1859 1.69143 13.1859C2.3174 13.1859 2.82666 12.6766 2.82666 12.0506V8.98953L2.82661 8.98957ZM1.69139 12.5502C1.41598 12.5502 1.19189 12.3261 1.19189 12.0507C1.19189 11.7753 1.41598 11.5512 1.69139 11.5512C1.96679 11.5512 2.19089 11.7753 2.19089 12.0507C2.19089 12.3261 1.96679 12.5502 1.69139 12.5502Z" fill="#667EEA"/>
</svg>
