<svg width="24" height="24" viewBox="0 0 24 24" fill="none" xmlns="http://www.w3.org/2000/svg">
<path d="M8.0566 5.68395L7.09253 5.53831L6.85791 7.3429L10.4035 8.12498L9.3098 8.28613C7.57528 8.54173 6.87141 10.6636 8.10928 11.9052" stroke="#667EEA" stroke-width="0.8" stroke-miterlimit="10" stroke-linecap="round" stroke-linejoin="round"/>
<path d="M11.1987 10.341L12.961 9.17262C13.1709 9.03348 13.344 8.84562 13.4655 8.62508C13.587 8.40454 13.6533 8.15787 13.6587 7.90614C13.6757 7.12187 13.1077 6.44703 12.3321 6.32983L12.059 6.2886" stroke="#667EEA" stroke-width="0.8" stroke-miterlimit="10" stroke-linecap="round" stroke-linejoin="round"/>
<path d="M14.9139 9.5527L16.4084 3.25746L14.6487 2.79385L13.1409 6.65826" stroke="#667EEA" stroke-width="0.8" stroke-miterlimit="10" stroke-linecap="round" stroke-linejoin="round"/>
<path d="M13.964 14.7877L12.408 22.2857C12.3662 22.4876 12.256 22.6688 12.0961 22.7989C11.9362 22.929 11.7364 23.0001 11.5302 23.0001C10.9904 23.0001 10.5731 22.5265 10.6408 21.991L11.4707 15.4336L8.10931 11.9052L11.1986 10.341L13.0829 11.3386L17.5176 7.01151C17.6542 6.87822 17.8316 6.79464 18.0214 6.77416C18.2112 6.75368 18.4023 6.79749 18.5642 6.89856L18.5826 6.9101C19.0413 7.19646 19.1402 7.81823 18.7947 8.22966C17.4905 9.78359 16.1864 11.3377 14.8827 12.8921C14.4244 13.4383 14.1088 14.0896 13.964 14.7877Z" stroke="#667EEA" stroke-width="0.8" stroke-miterlimit="10" stroke-linecap="round" stroke-linejoin="round"/>
<path d="M17.0929 14.5038C17.0929 15.322 16.4296 15.9853 15.6114 15.9853C14.7932 15.9853 14.1299 15.322 14.1299 14.5038C14.1299 13.6856 14.7932 13.0224 15.6114 13.0224C16.4296 13.0224 17.0929 13.6856 17.0929 14.5038Z" stroke="#667EEA" stroke-width="0.8" stroke-miterlimit="10" stroke-linecap="round" stroke-linejoin="round"/>
<path d="M6.86346 7.36038L6.19894 7.63914C5.58365 7.89724 4.92012 7.39137 5.00602 6.72972L5.28992 4.5433C5.30791 4.40462 5.36481 4.27388 5.45401 4.16619C5.54322 4.05849 5.66109 3.97826 5.79399 3.93477C6.17909 3.80867 6.59405 4.01548 6.72524 4.39891L7.10416 5.50652L6.86346 7.36038Z" stroke="#667EEA" stroke-width="0.8" stroke-miterlimit="10" stroke-linecap="round" stroke-linejoin="round"/>
<path d="M14.6578 2.78978L14.4675 2.09472C14.2915 1.45117 14.8791 0.858823 15.524 1.02982L17.6551 1.59489C17.7903 1.63073 17.9126 1.70411 18.0078 1.80653C18.103 1.90895 18.1673 2.03622 18.1932 2.17364C18.2682 2.57183 18.0093 2.95648 17.6122 3.03679L16.4648 3.26891L14.6578 2.78978Z" stroke="#667EEA" stroke-width="0.8" stroke-miterlimit="10" stroke-linecap="round" stroke-linejoin="round"/>
<path d="M14.4368 10.3643L15.6119 11.3716" stroke="#667EEA" stroke-width="0.8" stroke-miterlimit="10" stroke-linecap="round" stroke-linejoin="round"/>
<path d="M11.6973 17.0206L13.1409 17.3095" stroke="#667EEA" stroke-width="0.8" stroke-miterlimit="10" stroke-linecap="round" stroke-linejoin="round"/>
</svg>
