<svg width="24" height="24" viewBox="0 0 24 24" fill="none" xmlns="http://www.w3.org/2000/svg">
<path d="M23.6372 9.96844C23.4047 9.41859 23.0714 8.925 22.6477 8.50078C22.2234 8.07656 21.7298 7.74375 21.18 7.51125C21.0441 7.4539 20.9055 7.40306 20.7647 7.35891C20.6438 6.70641 20.07 6.21094 19.3828 6.21094C18.6956 6.21094 18.1219 6.70641 18.0009 7.35891C17.8608 7.40297 17.722 7.45359 17.5856 7.51125C17.0358 7.74375 16.5422 8.07656 16.118 8.50078C15.8078 8.81076 15.5433 9.16331 15.3324 9.54783L13.8281 9.59588V8.42663C13.8281 7.46934 13.0606 6.68588 12.1172 6.6802H12.1171L12.1064 6.68016C11.6872 6.68016 11.3145 6.82622 11.0103 7.10255C10.712 6.58537 10.1651 6.2287 9.54122 6.21164C9.06211 6.19856 8.60944 6.37509 8.26641 6.7088C8.1509 6.82092 8.05125 6.94828 7.9702 7.08736C7.65441 6.81947 7.2578 6.67856 6.80222 6.68316C6.21652 6.68775 5.70131 7.0035 5.40952 7.47422C5.11172 7.22517 4.73756 7.09261 4.31517 7.10194C3.35737 7.11872 2.57812 7.91827 2.57812 8.88417V9.94238L0.454266 10.008C0.332513 10.0118 0.217008 10.0628 0.132215 10.1503C0.0474226 10.2377 2.73842e-06 10.3548 0 10.4766L0 13.0547C2.73842e-06 13.1765 0.0474226 13.2935 0.132215 13.381C0.217008 13.4684 0.332513 13.5194 0.454266 13.5232L2.59097 13.5892C2.69311 14.4514 3.41442 15.1395 4.28686 15.1634C4.74938 15.1756 5.18677 15.012 5.52511 14.7008C5.83838 15.1114 6.32255 15.3829 6.86498 15.3977C7.32717 15.4109 7.76489 15.2465 8.10323 14.9352C8.4165 15.3457 8.90067 15.6173 9.44311 15.6321C9.92217 15.6461 10.3749 15.4687 10.7179 15.135C10.7396 15.1138 10.7608 15.0922 10.7812 15.0702C10.8017 15.0922 10.8667 15.1555 10.8778 15.1658C10.5278 15.4754 10.3125 15.9311 10.3125 16.4531C10.3125 17.2022 11.0846 17.7891 12.0703 17.7891C13.2068 17.7891 14.1068 17.4666 14.8219 16.8034C15.3053 16.355 15.7011 15.7553 16.0417 14.9504C16.0672 14.9771 16.0919 15.0043 16.118 15.0305C16.5422 15.4542 17.0358 15.7875 17.5857 16.02C17.7221 16.0777 17.8608 16.1283 18.001 16.1723C18.1219 16.8248 18.6957 17.3203 19.3829 17.3203C20.07 17.3203 20.6438 16.8248 20.7647 16.1723C21.1271 16.0589 21.4754 15.9005 21.8011 15.6998C21.9075 15.6337 21.9821 15.5306 22.0111 15.4088C22.0402 15.2869 22.02 15.1613 21.9544 15.0548C21.9126 14.9864 21.8538 14.9299 21.7838 14.8908C21.7137 14.8518 21.6348 14.8314 21.5546 14.8317C21.4683 14.8317 21.3835 14.8556 21.3094 14.9016C21.1434 15.0039 20.9694 15.0926 20.7891 15.1669V8.36344C21.2307 8.54578 21.6366 8.81578 21.9849 9.16359C22.6795 9.85922 23.0625 10.7831 23.0625 11.7656V11.7773C23.0616 12.0361 23.2711 12.247 23.5298 12.2475H23.5312C23.7891 12.2475 23.9991 12.038 24 11.7802V11.7656C24 11.1422 23.8777 10.5375 23.6372 9.96844ZM14.9417 10.4983C14.8249 10.9079 14.7656 11.3322 14.7656 11.7656C14.7656 12.1993 14.825 12.6239 14.942 13.0337L13.8281 12.9964V10.5338L14.9417 10.4983ZM0.9375 10.931L2.57812 10.8803V12.6509L0.9375 12.6002V10.931ZM10.0642 14.463C9.90408 14.6187 9.6923 14.7004 9.4688 14.695C9.02934 14.6829 8.67188 14.3031 8.67188 13.8482V10.6406C8.67188 10.3818 8.46202 10.1719 8.20312 10.1719C7.94423 10.1719 7.73438 10.3818 7.73438 10.6406V13.6406C7.73438 13.864 7.6462 14.0728 7.48603 14.2286C7.32595 14.3844 7.11422 14.4655 6.89067 14.4606C6.45122 14.4486 6.09375 14.0687 6.09375 13.6138V10.6875C6.09375 10.4287 5.88389 10.2188 5.625 10.2188C5.36611 10.2188 5.15625 10.4287 5.15625 10.6875V13.4062C5.15625 13.6296 5.06808 13.8384 4.90791 13.9943C4.74783 14.15 4.53614 14.232 4.31255 14.2262C3.87309 14.2142 3.51562 13.8343 3.51562 13.3794V8.88422C3.51562 8.4262 3.88172 8.04722 4.33167 8.0393C4.55231 8.03597 4.86834 8.08598 5.06508 8.56767C5.16127 8.80312 5.41233 8.93841 5.66198 8.88937C5.91216 8.8402 6.09375 8.61961 6.09375 8.3647C6.09375 7.96444 6.42155 7.6237 6.80958 7.6207C6.95095 7.61845 7.38197 7.61616 7.63823 8.18873C7.74352 8.42405 7.99284 8.55084 8.24475 8.49703C8.49623 8.44331 8.67188 8.22609 8.67188 7.96875C8.67188 7.74539 8.76005 7.53656 8.92022 7.38075C9.08025 7.22503 9.29189 7.14356 9.51558 7.14877C9.95503 7.16081 10.3125 7.54069 10.3125 7.99556V8.00794C10.3125 8.26523 10.4882 8.48255 10.7398 8.53636C10.9911 8.59003 11.2403 8.46375 11.3455 8.22914C11.5275 7.82334 11.7837 7.61766 12.1071 7.61766H12.1116C12.5339 7.62019 12.8907 7.99064 12.8907 8.42658V13.8481C12.8907 14.303 12.5332 14.6829 12.0938 14.6949C11.8705 14.6999 11.6585 14.6187 11.4984 14.463C11.4195 14.3868 11.3568 14.2954 11.3141 14.1944C11.2714 14.0933 11.2496 13.9847 11.25 13.875V10.875C11.25 10.6162 11.0401 10.4062 10.7812 10.4062C10.5224 10.4062 10.3125 10.6162 10.3125 10.875V13.875C10.3125 14.0984 10.2243 14.3072 10.0642 14.463ZM12.0703 16.8516C11.5771 16.8516 11.25 16.6117 11.25 16.4531C11.25 16.0008 11.618 15.6328 12.0703 15.6328C12.0707 15.6328 12.1278 15.6316 12.132 15.6315C12.2819 15.6268 12.4156 15.6055 12.5343 15.5687C13.2503 15.3669 13.7887 14.7097 13.826 13.9343L15.3332 13.9847C15.3481 14.0118 15.3639 14.0383 15.3794 14.0651C14.6746 16.0663 13.7339 16.8516 12.0703 16.8516ZM17.9766 15.1678C17.535 14.9855 17.1291 14.7155 16.7808 14.3677C16.0861 13.672 15.7031 12.7477 15.7031 11.7656C15.7031 10.7831 16.0861 9.85922 16.7808 9.16359C17.1291 8.81578 17.535 8.54578 17.9766 8.36344V15.1678ZM19.8516 15.9141C19.8516 16.1639 19.6547 16.3692 19.4077 16.3823C19.3997 16.3828 19.3669 16.3828 19.3589 16.3823C19.1114 16.3697 18.9141 16.1644 18.9141 15.9141V7.61719C18.9141 7.36687 19.1114 7.16156 19.3589 7.14891C19.3669 7.14844 19.3988 7.14844 19.4067 7.14891C19.6542 7.16156 19.8516 7.36687 19.8516 7.61719V15.9141Z" fill="#667EEA"/>
<path d="M23.0008 14.265C23.2597 14.265 23.4696 14.0551 23.4696 13.7962C23.4696 13.5374 23.2597 13.3275 23.0008 13.3275C22.7419 13.3275 22.5321 13.5374 22.5321 13.7962C22.5321 14.0551 22.7419 14.265 23.0008 14.265Z" fill="#667EEA"/>
</svg>
