<svg width="24" height="24" viewBox="0 0 24 24" fill="none" xmlns="http://www.w3.org/2000/svg">
<path d="M5.25204 20.374C5.25204 19.476 4.52403 18.7479 3.62602 18.7479C2.72801 18.7479 2 19.476 2 20.374C2 21.272 2.72801 22 3.62602 22C4.52403 22 5.25204 21.272 5.25204 20.374ZM5.25204 20.374V13.5783" stroke="#667EEA" stroke-miterlimit="10" stroke-linecap="round" stroke-linejoin="round"/>
<path d="M11.1056 18.7055C11.1056 17.8075 10.3776 17.0795 9.4796 17.0795C8.58159 17.0795 7.85358 17.8075 7.85358 18.7055C7.85358 19.6036 8.58159 20.3316 9.4796 20.3316C10.3776 20.3316 11.1056 19.6036 11.1056 18.7055ZM11.1056 18.7055V11.9099" stroke="#667EEA" stroke-miterlimit="10" stroke-linecap="round" stroke-linejoin="round"/>
<path d="M9.93805 12.2427L11.1056 11.9099" stroke="#667EEA" stroke-miterlimit="10" stroke-linecap="round" stroke-linejoin="round"/>
<path d="M5.25201 13.5784L6.41962 13.2456" stroke="#667EEA" stroke-miterlimit="10" stroke-linecap="round" stroke-linejoin="round"/>
<path d="M5.25201 15.8637L11.1057 14.1952" stroke="#667EEA" stroke-miterlimit="10" stroke-linecap="round" stroke-linejoin="round"/>
<path d="M17.7558 10.0187C17.7558 9.12071 17.0278 8.3927 16.1297 8.3927C15.2317 8.3927 14.5037 9.12071 14.5037 10.0187C14.5037 10.9167 15.2317 11.6447 16.1297 11.6447C17.0278 11.6447 17.7558 10.9167 17.7558 10.0187ZM17.7558 10.0187V5.50834" stroke="#667EEA" stroke-miterlimit="10" stroke-linecap="round" stroke-linejoin="round"/>
<path d="M17.7558 5.50838L22 4.28525V2L17.7558 3.22313V5.50838Z" stroke="#667EEA" stroke-miterlimit="10" stroke-linecap="round" stroke-linejoin="round"/>
<path d="M17.5586 18.85L15.6137 19.8725L15.9852 17.7068L14.4117 16.1731L16.5861 15.8571L17.5586 13.8868L18.531 15.8571L20.7054 16.1731L19.132 17.7068L19.5034 19.8725L17.5586 18.85Z" stroke="#667EEA" stroke-miterlimit="10" stroke-linecap="round" stroke-linejoin="round"/>
<path d="M4.64905 6.07814L3.051 6.91827L3.3562 5.13883L2.06335 3.87862L3.85003 3.61899L4.64905 2L5.44808 3.61899L7.23475 3.87862L5.9419 5.13883L6.24711 6.91827L4.64905 6.07814Z" stroke="#667EEA" stroke-miterlimit="10" stroke-linecap="round" stroke-linejoin="round"/>
<path d="M11.1056 5.91489V5.50839" stroke="#667EEA" stroke-miterlimit="10" stroke-linecap="round" stroke-linejoin="round"/>
<path d="M11.1056 8.35392V8.76043" stroke="#667EEA" stroke-miterlimit="10" stroke-linecap="round" stroke-linejoin="round"/>
<path d="M12.3251 7.13441H12.7316" stroke="#667EEA" stroke-miterlimit="10" stroke-linecap="round" stroke-linejoin="round"/>
<path d="M9.88612 7.13441H9.47961" stroke="#667EEA" stroke-miterlimit="10" stroke-linecap="round" stroke-linejoin="round"/>
</svg>
