<svg width="24" height="24" viewBox="0 0 24 24" fill="none" xmlns="http://www.w3.org/2000/svg">
<path d="M18.6901 5.01635H19.8935L18.7098 7.43933C18.6001 7.66384 18.8955 7.86445 19.0637 7.67974L21.7142 4.76947C21.9652 4.49385 21.7799 4.05047 21.4073 4.03554L20.0812 3.98226L20.8296 2.41787C20.9343 2.19879 20.654 2.00008 20.482 2.17155L18.3803 4.26673C18.1032 4.54299 18.2988 5.01635 18.6901 5.01635Z" stroke="#667EEA" stroke-width="0.8" stroke-miterlimit="10" stroke-linecap="round" stroke-linejoin="round"/>
<path d="M5.3098 17.8525H4.10646L5.29017 15.4295C5.39982 15.2051 5.10441 15.0045 4.9362 15.1891L2.28577 18.0994C2.0347 18.375 2.22006 18.8184 2.59261 18.8333L3.91873 18.8866L3.17036 20.451C3.06561 20.6701 3.34597 20.8688 3.51793 20.6973L5.61962 18.6021C5.89673 18.3259 5.70111 17.8525 5.3098 17.8525Z" stroke="#667EEA" stroke-width="0.8" stroke-miterlimit="10" stroke-linecap="round" stroke-linejoin="round"/>
<path d="M7.65026 9.33708V3.85167C7.65026 3.31795 8.08293 2.88523 8.6167 2.88523C9.15046 2.88523 9.58314 3.31795 9.58314 3.85167V9.33708" stroke="#667EEA" stroke-width="0.8" stroke-miterlimit="10" stroke-linecap="round" stroke-linejoin="round"/>
<path d="M10.5496 10.6168C10.0158 10.6168 9.58314 10.1841 9.58314 9.65037V7.27089C9.58314 6.73716 10.0158 6.30448 10.5496 6.30448C11.0833 6.30448 11.516 6.73716 11.516 7.27089V9.65037C11.516 10.1841 11.0833 10.6168 10.5496 10.6168Z" stroke="#667EEA" stroke-width="0.8" stroke-miterlimit="10" stroke-linecap="round" stroke-linejoin="round"/>
<path d="M11.6736 10.1791C11.5704 10.0221 11.5156 9.83822 11.5159 9.65033V7.27084C11.5159 6.73724 11.9489 6.30464 12.4825 6.30464C12.7493 6.30464 12.9907 6.41289 13.1658 6.58754C13.3408 6.76259 13.4491 7.00404 13.4491 7.27084V8.93724" stroke="#667EEA" stroke-width="0.8" stroke-miterlimit="10" stroke-linecap="round" stroke-linejoin="round"/>
<path d="M13.4491 8.93725L13.4489 2.96644C13.4489 2.43268 13.8817 2 14.4154 2C14.9492 2 15.3818 2.43268 15.3818 2.96644V7.52887" stroke="#667EEA" stroke-width="0.8" stroke-miterlimit="10" stroke-linecap="round" stroke-linejoin="round"/>
<path d="M15.3819 20.5634V21.6271C15.3819 21.6761 15.3722 21.7246 15.3535 21.7698C15.3347 21.8151 15.3073 21.8562 15.2726 21.8908C15.238 21.9255 15.1969 21.9529 15.1516 21.9717C15.1064 21.9904 15.0579 22.0001 15.0089 22.0001H9.1532C9.05428 22.0001 8.95942 21.9608 8.88948 21.8908C8.81953 21.8209 8.78024 21.726 8.78024 21.6271V20.5634" stroke="#667EEA" stroke-width="0.8" stroke-miterlimit="10" stroke-linecap="round" stroke-linejoin="round"/>
<path d="M7.65026 9.33725V13.297C7.65026 14.0182 7.83014 14.7276 8.1734 15.3618L8.5408 16.0399C8.69785 16.3301 8.78014 16.6548 8.78024 16.9848V17.9393" stroke="#667EEA" stroke-width="0.8" stroke-miterlimit="10" stroke-linecap="round" stroke-linejoin="round"/>
<path d="M15.3819 17.9393V16.8705" stroke="#667EEA" stroke-width="0.8" stroke-miterlimit="10" stroke-linecap="round" stroke-linejoin="round"/>
<path d="M15.3819 17.9394V16.8706C15.3819 16.3812 15.5628 15.909 15.8899 15.5449L17.0522 14.2509C17.2591 14.0207 17.4097 13.7456 17.4923 13.4473C17.575 13.149 17.5873 12.8357 17.5284 12.5318L17.0001 9.80485C16.9025 9.30115 16.4614 8.93732 15.9483 8.93732H12.4844C11.9954 8.93732 11.599 9.3337 11.599 9.82272C11.599 10.2774 11.9433 10.6581 12.3957 10.7036L14.7206 10.9378L14.1125 11.5132C13.1663 12.4085 12.4792 13.5426 12.1238 14.7958" stroke="#667EEA" stroke-width="0.8" stroke-miterlimit="10" stroke-linecap="round" stroke-linejoin="round"/>
<path d="M11.2322 17.9394H15.6865C15.7633 17.9394 15.837 17.9699 15.8913 18.0243C15.9456 18.0786 15.9762 18.1523 15.9762 18.2291V20.2738C15.9761 20.3506 15.9456 20.4243 15.8913 20.4786C15.837 20.5329 15.7633 20.5634 15.6865 20.5634H8.45754C8.38072 20.5634 8.30704 20.5329 8.25272 20.4786C8.1984 20.4243 8.16788 20.3506 8.16788 20.2738V18.2291C8.16788 18.1911 8.17537 18.1534 8.18992 18.1183C8.20447 18.0831 8.22581 18.0512 8.25271 18.0243C8.27961 17.9974 8.31154 17.976 8.34668 17.9615C8.38183 17.9469 8.4195 17.9394 8.45754 17.9394H9.8163" stroke="#667EEA" stroke-width="0.8" stroke-miterlimit="10" stroke-linecap="round" stroke-linejoin="round"/>
<path d="M7.05959 19.2514H8.16788" stroke="#667EEA" stroke-width="0.8" stroke-miterlimit="10" stroke-linecap="round" stroke-linejoin="round"/>
<path d="M15.9762 19.2514H17.0844" stroke="#667EEA" stroke-width="0.8" stroke-miterlimit="10" stroke-linecap="round" stroke-linejoin="round"/>
<path d="M9.75815 19.2513L9.83725 19.1722M9.75815 19.2513L9.67807 19.1731M9.75815 19.2513L9.83725 19.1722M9.75815 19.2513L9.67807 19.1731M9.83725 19.1722C9.81627 19.1512 9.78781 19.139 9.75815 19.139C9.72843 19.139 9.69908 19.1521 9.67807 19.1731M9.83725 19.1722C9.85823 19.1931 9.87041 19.2216 9.87045 19.2513C9.87045 19.2661 9.86722 19.2808 9.86166 19.2942L9.83725 19.3304L9.83627 19.3313C9.82601 19.3414 9.81413 19.3494 9.80112 19.3548L9.75815 19.3636C9.74328 19.3636 9.72865 19.3604 9.71518 19.3548L9.67904 19.3304C9.65803 19.3094 9.64584 19.281 9.64584 19.2513L9.65463 19.2083C9.66006 19.1953 9.66802 19.1834 9.67807 19.1731" stroke="#667EEA" stroke-width="0.8"/>
<path d="M11.3008 19.2513L11.38 19.1722M11.3008 19.2513L11.2208 19.1731M11.3008 19.2513L11.38 19.1722M11.3008 19.2513L11.2208 19.1731M11.38 19.1722C11.359 19.1512 11.3305 19.139 11.3008 19.139C11.2711 19.139 11.2418 19.1521 11.2208 19.1731M11.38 19.1722C11.4009 19.1931 11.4131 19.2216 11.4132 19.2513C11.4132 19.2661 11.4099 19.2808 11.4044 19.2942L11.38 19.3304L11.379 19.3313C11.3687 19.3414 11.3568 19.3494 11.3438 19.3548L11.3008 19.3636C11.286 19.3636 11.2714 19.3604 11.2579 19.3548L11.2217 19.3304C11.2007 19.3094 11.1885 19.281 11.1885 19.2513L11.1973 19.2083C11.2028 19.1953 11.2107 19.1834 11.2208 19.1731" stroke="#667EEA" stroke-width="0.8"/>
<path d="M12.8435 19.2513L12.9226 19.1722M12.8435 19.2513L12.7634 19.1731M12.8435 19.2513L12.9226 19.1722M12.8435 19.2513L12.7634 19.1731M12.9226 19.1722C12.9016 19.1512 12.8732 19.139 12.8435 19.139C12.8138 19.139 12.7844 19.1521 12.7634 19.1731M12.9226 19.1722C12.9436 19.1931 12.9558 19.2216 12.9558 19.2513C12.9558 19.2661 12.9526 19.2808 12.947 19.2942L12.9226 19.3304L12.9216 19.3313C12.9114 19.3414 12.8995 19.3494 12.8865 19.3548L12.8435 19.3636C12.8286 19.3636 12.814 19.3604 12.8005 19.3548L12.7644 19.3304C12.7434 19.3094 12.7312 19.281 12.7312 19.2513L12.74 19.2083C12.7454 19.1953 12.7534 19.1834 12.7634 19.1731" stroke="#667EEA" stroke-width="0.8"/>
<path d="M14.3862 19.2513L14.4653 19.1722M14.3862 19.2513L14.3061 19.1731M14.3862 19.2513L14.4653 19.1722M14.3862 19.2513L14.3061 19.1731M14.4653 19.1722C14.4443 19.1512 14.4159 19.139 14.3862 19.139C14.3565 19.139 14.3271 19.1521 14.3061 19.1731M14.4653 19.1722C14.4863 19.1931 14.4985 19.2216 14.4985 19.2513C14.4985 19.2661 14.4953 19.2808 14.4897 19.2942L14.4653 19.3304L14.4643 19.3313C14.4541 19.3414 14.4422 19.3494 14.4292 19.3548L14.3862 19.3636C14.3713 19.3636 14.3567 19.3604 14.3432 19.3548L14.3071 19.3304C14.2861 19.3094 14.2739 19.281 14.2739 19.2513L14.2827 19.2083C14.2881 19.1953 14.2961 19.1834 14.3061 19.1731" stroke="#667EEA" stroke-width="0.8"/>
<path d="M19.79 11.4343L19.8691 11.3552M19.79 11.4343L19.7109 11.3552C19.7319 11.3342 19.7604 11.322 19.79 11.322C19.8197 11.322 19.8481 11.3342 19.8691 11.3552M19.79 11.4343L19.8691 11.3552M19.79 11.4343L19.7099 11.3562C19.6999 11.3664 19.6919 11.3783 19.6865 11.3913L19.6777 11.4343C19.6777 11.464 19.6899 11.4924 19.7109 11.5134L19.747 11.5378C19.7605 11.5434 19.7751 11.5466 19.79 11.5466L19.833 11.5378C19.846 11.5324 19.8579 11.5244 19.8681 11.5144L19.8691 11.5134L19.8935 11.4772C19.8991 11.4638 19.9023 11.4491 19.9023 11.4343C19.9023 11.4046 19.8901 11.3762 19.8691 11.3552" stroke="#667EEA" stroke-width="0.8"/>
</svg>
