<svg width="24" height="24" viewBox="0 0 24 24" fill="none" xmlns="http://www.w3.org/2000/svg">
<path d="M15.1804 9.56799H10.7144C10.2712 9.56799 9.91187 9.92734 9.91187 10.3706C9.91187 10.8139 10.2712 11.1732 10.7144 11.1732H15.1804C15.6238 11.1732 15.9831 10.8139 15.9831 10.3706C15.9831 9.92734 15.6238 9.56799 15.1804 9.56799Z" stroke="#667EEA" stroke-width="0.8" stroke-miterlimit="10" stroke-linecap="round" stroke-linejoin="round"/>
<path d="M14.4319 11.1732L15.9831 23" stroke="#667EEA" stroke-width="0.8" stroke-miterlimit="10" stroke-linecap="round" stroke-linejoin="round"/>
<path d="M9.94876 22.7189L9.91202 23" stroke="#667EEA" stroke-width="0.8" stroke-miterlimit="10" stroke-linecap="round" stroke-linejoin="round"/>
<path d="M11.4631 11.1732L11.2179 13.0443" stroke="#667EEA" stroke-width="0.8" stroke-miterlimit="10" stroke-linecap="round" stroke-linejoin="round"/>
<path d="M15.0969 16.2442H11.2037" stroke="#667EEA" stroke-width="0.8" stroke-miterlimit="10" stroke-linecap="round" stroke-linejoin="round"/>
<path d="M5.32391 12.595C5.43011 12.5755 5.53993 12.5653 5.65192 12.5653H6.87896" stroke="#667EEA" stroke-width="0.8" stroke-miterlimit="10" stroke-linecap="round" stroke-linejoin="round"/>
<path d="M8.76736 12.5653H9.99396C10.989 12.5653 11.7956 13.3714 11.7956 14.3665C11.7956 14.7215 11.6924 15.0522 11.5149 15.331V15.3315C11.1444 15.9158 10.97 16.1991 11.7415 17.705H11.7411C12.0603 18.3261 12.2265 19.0146 12.2258 19.7129C12.2258 19.7514 12.2254 19.7899 12.2245 19.8276" stroke="#667EEA" stroke-width="0.8" stroke-miterlimit="10" stroke-linecap="round" stroke-linejoin="round"/>
<path d="M4.19981 13.3006C3.97252 13.6094 3.85021 13.9829 3.85082 14.3663C3.85042 14.7081 3.94777 15.0429 4.13138 15.3312L4.13111 15.3313C4.50201 15.9159 4.67633 16.199 3.90469 17.7051L3.90522 17.7049C3.58591 18.326 3.41968 19.0144 3.42038 19.7127C3.42038 22.1442 5.39153 23 7.82312 23C9.70454 23 11.3104 22.4877 11.9407 21.1293" stroke="#667EEA" stroke-width="0.8" stroke-miterlimit="10" stroke-linecap="round" stroke-linejoin="round"/>
<path d="M6.87891 5.73136V13.5128C6.87891 13.818 7.12631 14.0653 7.43143 14.0653H8.21484C8.51996 14.0653 8.76732 13.818 8.76732 13.5128V5.73136H6.87891Z" stroke="#667EEA" stroke-width="0.8" stroke-miterlimit="10" stroke-linecap="round" stroke-linejoin="round"/>
<path d="M8.76726 7.81486H6.87885" stroke="#667EEA" stroke-width="0.8" stroke-miterlimit="10" stroke-linecap="round" stroke-linejoin="round"/>
<path d="M8.76726 9.8983H6.87885" stroke="#667EEA" stroke-width="0.8" stroke-miterlimit="10" stroke-linecap="round" stroke-linejoin="round"/>
<path d="M8.76726 11.9818H6.87885" stroke="#667EEA" stroke-width="0.8" stroke-miterlimit="10" stroke-linecap="round" stroke-linejoin="round"/>
<path d="M9.45424 4.16127L8.56544 1.96627C8.55168 1.93226 8.52808 1.90314 8.49766 1.88263C8.46724 1.86213 8.43139 1.85117 8.3947 1.85118H7.2515C7.21482 1.85118 7.17898 1.86214 7.14857 1.88264C7.11816 1.90315 7.09457 1.93227 7.08081 1.96627L6.192 4.16127C6.15983 4.24067 6.14657 4.32648 6.15328 4.4119C6.15998 4.49731 6.18647 4.58 6.23065 4.65341L6.87887 5.73137H8.76729L9.4156 4.65341C9.45976 4.57999 9.48624 4.49731 9.49294 4.41189C9.49965 4.32648 9.4864 4.24068 9.45424 4.16127Z" stroke="#667EEA" stroke-width="0.8" stroke-miterlimit="10" stroke-linecap="round" stroke-linejoin="round"/>
<path d="M7.82306 15.7783C7.16673 15.7783 6.6347 16.3104 6.6347 16.9667C6.6347 17.623 7.16673 18.155 7.82306 18.155C8.47934 18.155 9.01141 17.623 9.01141 16.9667C9.01141 16.3104 8.47934 15.7783 7.82306 15.7783Z" stroke="#667EEA" stroke-width="0.8" stroke-miterlimit="10" stroke-linecap="round" stroke-linejoin="round"/>
<path d="M6.93512 20.153H8.7111" stroke="#667EEA" stroke-width="0.8" stroke-miterlimit="10" stroke-linecap="round" stroke-linejoin="round"/>
<path d="M15.057 3.11903L18.0162 2.32579C18.3177 2.24523 18.516 1.97299 18.516 1.67509C18.516 1.6171 18.5084 1.55823 18.4929 1.4998C18.3969 1.14036 18.0268 0.926954 17.6674 1.02301L14.7078 1.81629" stroke="#667EEA" stroke-width="0.8" stroke-miterlimit="10" stroke-linecap="round" stroke-linejoin="round"/>
<path d="M13.8274 1.65902C13.2652 1.8097 12.9316 2.38763 13.0822 2.94985C13.2328 3.51211 13.8108 3.84579 14.373 3.69515C14.9353 3.54447 15.2689 2.96654 15.1183 2.40432C14.9676 1.84206 14.3897 1.50839 13.8274 1.65902Z" stroke="#667EEA" stroke-width="0.8" stroke-miterlimit="10" stroke-linecap="round" stroke-linejoin="round"/>
<path d="M18.4931 1.50002L19.3312 1.27546" stroke="#667EEA" stroke-width="0.8" stroke-miterlimit="10" stroke-linecap="round" stroke-linejoin="round"/>
<path d="M18.5584 5.92016L16.8843 2.62897" stroke="#667EEA" stroke-width="0.8" stroke-miterlimit="10" stroke-linecap="round" stroke-linejoin="round"/>
<path d="M20.5796 9.89344L19.2654 7.3101" stroke="#667EEA" stroke-width="0.8" stroke-miterlimit="10" stroke-linecap="round" stroke-linejoin="round"/>
<path d="M18.9121 21.8509V7.39508" stroke="#667EEA" stroke-width="0.8" stroke-miterlimit="10" stroke-linecap="round" stroke-linejoin="round"/>
<path d="M18.9121 5.83517C18.4814 5.83517 18.1322 6.18438 18.1322 6.61513C18.1322 7.04588 18.4814 7.39504 18.9121 7.39504C19.3428 7.39504 19.692 7.04588 19.692 6.61513C19.692 6.18438 19.3428 5.83517 18.9121 5.83517Z" stroke="#667EEA" stroke-width="0.8" stroke-miterlimit="10" stroke-linecap="round" stroke-linejoin="round"/>
<path d="M19.8393 21.8509H17.985C17.6676 21.8509 17.4104 22.1082 17.4104 22.4255C17.4104 22.7428 17.6676 23.0001 17.985 23.0001H19.8393C20.1567 23.0001 20.4139 22.7428 20.4139 22.4255C20.4139 22.1082 20.1567 21.8509 19.8393 21.8509Z" stroke="#667EEA" stroke-width="0.8" stroke-miterlimit="10" stroke-linecap="round" stroke-linejoin="round"/>
</svg>
