<svg width="24" height="24" viewBox="0 0 24 24" fill="none" xmlns="http://www.w3.org/2000/svg">
<path d="M21.4005 15.0656L21.4962 14.767C21.7058 14.1126 21.4153 13.4158 20.8383 13.0914C20.9481 12.9521 20.8965 12.8962 21.035 11.8147C21.2632 9.78981 20.8152 7.72385 19.6748 5.93596L19.9789 5.5455C20.0259 5.4852 20.0521 5.41139 20.0539 5.33499C20.0556 5.25859 20.0326 5.18367 19.9884 5.12133C18.1747 2.55998 15.1909 1 12 1C8.81005 1 5.82578 2.55936 4.01147 5.12133C3.96727 5.18367 3.94433 5.25859 3.94604 5.33499C3.94776 5.41139 3.97404 5.4852 4.02099 5.5455L4.34413 5.96041C3.24333 7.70229 2.7685 9.76711 2.99783 11.8149C3.137 12.9095 3.08934 12.9435 3.18706 13.0788C2.59368 13.397 2.29116 14.1034 2.50369 14.7671L2.59937 15.0657C1.48471 15.6 0.866251 16.9024 1.26925 18.1608L1.84725 19.9652C2.23718 21.1821 3.46797 21.9287 4.72784 21.7103L4.82388 22.01C5.06406 22.7593 5.86499 23.1719 6.61444 22.9316L7.88578 22.5244C8.63344 22.2848 9.04694 21.4816 8.80747 20.7339L6.48719 13.4909C6.24763 12.7432 5.44465 12.3296 4.69663 12.5693L3.82847 12.8474C3.7672 11.9579 3.12126 9.42416 4.81107 6.56002L4.96411 6.75655C5.11661 6.95227 5.41539 6.93493 5.54593 6.72729C6.90557 4.56432 9.32802 3.16938 12 3.16938C14.678 3.16938 17.0973 4.56876 18.454 6.7272C18.585 6.93564 18.8838 6.95147 19.0358 6.75646L19.2084 6.53486C20.9504 9.45706 20.2335 12.0867 20.2051 12.8581L19.3033 12.5692C18.5558 12.3297 17.7525 12.7433 17.5128 13.4909L15.1925 20.7339C14.9531 21.4816 15.3665 22.2847 16.1142 22.5243L17.3856 22.9315C18.1349 23.1717 18.9358 22.7596 19.1761 22.0099L19.2722 21.7103C20.529 21.9279 21.7619 21.1853 22.1527 19.9652L22.7307 18.1608C23.1336 16.9024 22.5155 15.6001 21.4005 15.0656ZM2.52485 19.7482L1.94685 17.9437C1.66878 17.0758 2.06307 16.1657 2.81919 15.7518L4.50838 21.0249C3.64484 21.1269 2.79989 20.6065 2.52485 19.7482ZM4.91369 13.2468C5.28948 13.1264 5.69035 13.3355 5.80968 13.708L8.12996 20.9509C8.24983 21.3251 8.0429 21.7271 7.66863 21.8469L6.39729 22.2542C6.30818 22.2828 6.2143 22.2936 6.12104 22.2859C6.02777 22.2781 5.93693 22.2521 5.85373 22.2093C5.77052 22.1665 5.69657 22.1076 5.63612 22.0362C5.57566 21.9648 5.52987 21.8821 5.50138 21.793L3.18119 14.55C3.06124 14.1758 3.26825 13.7739 3.64244 13.654L4.91369 13.2468ZM12 2.45799C9.31291 2.45799 6.7841 3.75707 5.22376 5.93196L4.74731 5.32008C6.4293 3.09023 9.10581 1.71139 12 1.71139C14.8953 1.71139 17.5709 3.09095 19.2528 5.32017L18.7763 5.93205C17.2157 3.75716 14.6874 2.45799 12 2.45799ZM17.6026 22.2541L16.3313 21.8468C15.9571 21.727 15.7502 21.325 15.8699 20.9509L18.1902 13.708C18.3097 13.3351 18.7109 13.1266 19.0861 13.2467L20.3575 13.654C20.7317 13.7739 20.9386 14.1758 20.8187 14.55L20.6221 15.1637L18.4985 21.7929C18.47 21.882 18.4242 21.9647 18.3638 22.0361C18.3033 22.1075 18.2294 22.1664 18.1462 22.2092C18.063 22.252 17.9721 22.2781 17.8789 22.2858C17.7856 22.2935 17.6917 22.2827 17.6026 22.2541ZM22.0531 17.9437L21.4751 19.7482C21.2002 20.6065 20.3554 21.1267 19.4916 21.0248L21.1808 15.7518C21.9365 16.1654 22.3313 17.0752 22.0531 17.9437Z" fill="#667EEA"/>
<path d="M19.4301 14.6434C19.3856 14.6291 19.3387 14.6238 19.2921 14.6276C19.2456 14.6314 19.2002 14.6444 19.1587 14.6658C19.1171 14.6872 19.0802 14.7165 19.05 14.7522C19.0199 14.7879 18.997 14.8291 18.9828 14.8737L17.6263 19.1078C17.5976 19.1977 17.6057 19.2953 17.6489 19.3791C17.692 19.463 17.7668 19.5263 17.8566 19.5551C17.9465 19.5838 18.044 19.5757 18.1279 19.5326C18.2118 19.4894 18.2751 19.4146 18.3039 19.3248L19.6603 15.0906C19.6891 15.0008 19.681 14.9032 19.6378 14.8194C19.5946 14.7355 19.5199 14.6722 19.4301 14.6434ZM17.6666 20.1479C17.6221 20.1336 17.5753 20.1282 17.5287 20.132C17.4821 20.1358 17.4368 20.1488 17.3952 20.1702C17.3537 20.1916 17.3168 20.221 17.2866 20.2566C17.2564 20.2923 17.2336 20.3336 17.2193 20.3781L17.1346 20.6426C17.1058 20.7325 17.1139 20.8301 17.1571 20.914C17.2003 20.9978 17.275 21.0611 17.3649 21.0899C17.4547 21.1187 17.5523 21.1106 17.6362 21.0674C17.72 21.0242 17.7833 20.9495 17.8121 20.8596L17.8968 20.5951C17.9256 20.5052 17.9175 20.4077 17.8743 20.3238C17.8312 20.2399 17.7565 20.1767 17.6666 20.1479ZM16.3416 11.0499C16.3416 10.9555 16.3041 10.865 16.2374 10.7983C16.1707 10.7316 16.0802 10.6942 15.9859 10.6942H14.7367L13.733 6.45607C13.646 6.08918 13.1243 6.09291 13.0402 6.45821L11.9001 11.4108L11.1236 8.55813C11.0339 8.2293 10.5746 8.2028 10.4493 8.52132L9.59478 10.6941H8.01408C7.91974 10.6941 7.82927 10.7315 7.76257 10.7983C7.69586 10.865 7.65839 10.9554 7.65839 11.0498C7.65839 11.1441 7.69586 11.2346 7.76257 11.3013C7.82927 11.368 7.91974 11.4055 8.01408 11.4055H9.83701C9.90845 11.4054 9.97824 11.3839 10.0373 11.3437C10.0963 11.3035 10.1419 11.2464 10.1681 11.18L10.7188 9.77968L11.5858 12.9643C11.6831 13.3217 12.1928 13.3101 12.2756 12.9507L13.3919 8.10205L14.1093 11.1317C14.1278 11.2096 14.172 11.279 14.2348 11.3287C14.2977 11.3784 14.3754 11.4054 14.4555 11.4054H15.986C16.0327 11.4054 16.0789 11.3962 16.1221 11.3784C16.1652 11.3605 16.2044 11.3343 16.2374 11.3013C16.2705 11.2683 16.2967 11.2291 16.3145 11.1859C16.3324 11.1428 16.3416 11.0966 16.3416 11.0499Z" fill="#667EEA"/>
</svg>
