<svg width="24" height="24" viewBox="0 0 24 24" fill="none" xmlns="http://www.w3.org/2000/svg">
<path fill-rule="evenodd" clip-rule="evenodd" d="M18.9468 12.0836C18.9468 8.36483 15.9213 5.33939 12.2025 5.33939C8.48374 5.33939 5.45825 8.36483 5.45825 12.0836C5.45825 15.8024 8.4837 18.8279 12.2025 18.8279C15.9213 18.8279 18.9468 15.8024 18.9468 12.0836ZM9.39078 6.67656C8.64225 8.12993 9.00343 9.02195 9.24723 9.62282C9.47279 10.1785 9.46487 10.2013 8.93374 10.3713C8.63687 10.4663 8.26738 10.5846 7.97301 10.9049C7.51881 11.3993 7.57931 11.8243 7.62787 12.1659C7.66 12.3918 7.68778 12.5869 7.59613 12.8411C7.46873 13.1944 7.06309 13.5561 6.38935 13.9187C5.48838 11.0708 6.79244 8.03324 9.39078 6.67656ZM7.70064 16.1889C8.04916 15.9999 8.48849 15.8995 8.81763 16.0356C9.11157 16.1572 9.46272 16.7206 9.86405 17.7126C9.03483 17.3667 8.29755 16.843 7.70064 16.1889ZM10.6639 17.9823C10.2487 16.8568 9.73591 15.7134 9.06554 15.4362C8.48267 15.1953 7.78917 15.374 7.2842 15.68C7.02183 15.3223 6.79929 14.9371 6.62053 14.5311C7.24214 14.2082 7.9644 13.7322 8.20634 13.061C8.35267 12.6552 8.30685 12.3332 8.27007 12.0745C8.22767 11.7762 8.20429 11.6119 8.45063 11.3437C8.85916 10.8991 9.68192 11.0433 9.96485 10.4126C10.1239 10.058 9.98378 9.71271 9.84825 9.37877C9.61316 8.79962 9.32064 8.07887 10.0888 6.7505C10.1873 6.58104 10.294 6.41651 10.4086 6.25752C10.9897 6.07839 11.5944 5.98754 12.2025 5.98799C13.3759 5.98799 14.4727 6.32154 15.4036 6.89835C15.464 7.80871 15.3179 8.26218 15.0093 9.07037C14.8333 9.53166 14.6812 9.93006 14.7078 10.3238C14.7991 11.675 16.3937 12.1322 16.3315 13.2559C16.2941 13.9311 15.9458 14.023 15.2816 14.139C14.8844 14.2083 14.4736 14.28 14.2168 14.5987C13.8323 15.076 14.0864 15.5129 14.2545 15.8019C14.3711 16.0024 14.4402 16.1328 14.4164 16.2537C14.3032 16.8281 12.9878 16.8991 12.8459 18.1452C12.1085 18.2229 11.3701 18.1668 10.6639 17.9823ZM13.5294 18.0334C13.7565 17.3363 14.8726 17.2936 15.0529 16.3791C15.1257 16.0096 14.9536 15.7136 14.8153 15.4758C14.6344 15.1649 14.6358 15.1127 14.722 15.0057C15.0503 14.5981 16.8816 15.0544 16.9792 13.2918C17.0252 12.4601 16.5181 11.9259 16.0706 11.4546C15.7031 11.0676 15.3857 10.7333 15.3551 10.2801C15.3167 9.71354 16.0195 8.72107 16.0618 7.49257C16.0632 7.45217 16.0635 7.41134 16.064 7.3706C17.4271 8.4894 18.2982 10.1866 18.2982 12.0836C18.2981 14.9892 16.2546 17.426 13.5294 18.0334ZM21.4002 9.78593C22.2299 9.78593 22.905 10.461 22.9051 11.2908V14.0419C22.9051 14.8717 22.2299 15.5468 21.4002 15.5468H20.3834C20.3408 15.5468 20.2986 15.5384 20.2593 15.5221C20.2199 15.5058 20.1842 15.4819 20.1541 15.4518C20.1239 15.4217 20.1001 15.386 20.0838 15.3466C20.0675 15.3073 20.0591 15.2651 20.0591 15.2225V10.1689C19.1769 6.53375 15.9516 3.99811 12.2025 3.99811C8.45337 3.99811 5.22809 6.5338 4.34596 10.1689V15.2225C4.34596 15.2651 4.33758 15.3073 4.32128 15.3467C4.30499 15.386 4.2811 15.4218 4.25098 15.4519C4.22087 15.482 4.18511 15.5059 4.14577 15.5222C4.10642 15.5385 4.06424 15.5469 4.02165 15.5468H3.00487C2.17507 15.5468 1.5 14.8717 1.5 14.042V11.2908C1.5 10.4611 2.17511 9.78597 3.00487 9.78597H3.77511C4.25812 8.01407 5.30693 6.4151 6.75052 5.26006C8.31257 4.01009 10.1979 3.34945 12.2025 3.34945C14.2072 3.34945 16.0925 4.01009 17.6546 5.26001C19.0982 6.4151 20.1469 8.01407 20.63 9.78593H21.4002ZM3.69735 14.8982V10.4346H3.00487C2.53277 10.4346 2.14866 10.8187 2.14866 11.2908V14.042C2.14866 14.5141 2.53277 14.8982 3.00487 14.8982H3.69735ZM22.2564 14.0419V11.2908C22.2564 10.8187 21.8723 10.4346 21.4002 10.4346H20.7077V14.8982H21.4002C21.8723 14.8981 22.2564 14.514 22.2564 14.0419ZM20.0984 16.0668C20.1466 16.096 20.1864 16.1373 20.2138 16.1866C20.2412 16.2359 20.2553 16.2915 20.2547 16.3478L20.2192 19.5643C20.2172 20.161 19.7305 20.6458 19.1326 20.6458C18.5335 20.6458 18.0461 20.159 18.0461 19.5607C18.0461 18.7698 18.868 18.2485 19.5814 18.5729L19.5999 16.8899L17.6688 17.9273V20.9149C17.6688 21.5132 17.1814 21.9999 16.5823 21.9999C15.9831 21.9999 15.4958 21.5132 15.4958 20.9149C15.4958 20.1287 16.3084 19.6078 17.0202 19.9222V17.7334C17.0202 17.6748 17.0361 17.6172 17.0661 17.5669C17.0962 17.5166 17.1394 17.4754 17.191 17.4477L19.7768 16.0586C19.8265 16.0319 19.8823 16.0186 19.9387 16.0201C19.9951 16.0215 20.0501 16.0376 20.0984 16.0668ZM16.5824 21.3513C16.8239 21.3513 17.0203 21.1555 17.0203 20.9149C17.0203 20.6743 16.8239 20.4784 16.5824 20.4784C16.341 20.4784 16.1446 20.6743 16.1446 20.9149C16.1445 21.1555 16.341 21.3513 16.5824 21.3513ZM19.1326 19.9972C19.3741 19.9972 19.5706 19.8013 19.5706 19.5607C19.5706 19.3201 19.3741 19.1243 19.1326 19.1243C18.8912 19.1243 18.6948 19.3201 18.6948 19.5607C18.6948 19.8013 18.8912 19.9972 19.1326 19.9972ZM3.46289 7.57322C2.80665 7.57322 2.27283 7.03935 2.27278 6.38326C2.27278 5.49168 3.21928 4.92118 4.00429 5.32398V2.32436C4.00429 2.11905 4.19566 1.96425 4.39643 2.00719C5.46974 2.23681 5.60424 2.8551 6.21543 3.24704C6.40538 3.36902 6.60998 3.4665 6.82437 3.53716C7.08857 3.62392 7.12745 3.98339 6.88795 4.12463C6.51376 4.3453 6.18697 4.45148 5.85049 4.45148C5.42954 4.45148 4.98097 4.28309 4.65299 4.03987V6.38311C4.65295 7.03935 4.11912 7.57322 3.46289 7.57322ZM4.65299 2.77034V3.1326C4.88741 3.42403 5.11815 3.62832 5.47718 3.73949C5.62057 3.78389 5.75032 3.80522 5.87827 3.80126C5.29554 3.43235 5.13336 2.99761 4.65299 2.77034ZM3.46289 5.84166C3.16436 5.84166 2.92144 6.08458 2.92144 6.38316C2.92144 6.68169 3.16436 6.92461 3.46289 6.92461C3.76142 6.92461 4.00434 6.68174 4.00434 6.38316C4.00434 6.08454 3.76142 5.84166 3.46289 5.84166Z" fill="#667EEA"/>
</svg>
