<svg width="45" height="146" viewBox="0 0 45 146" fill="none" xmlns="http://www.w3.org/2000/svg">
<g opacity="0.2">
<mask id="path-1-inside-1_243_664" fill="white">
<path d="M0.495117 1.78875L0.495117 0.934448L44.774 0.934446L44.774 1.78875L0.495117 1.78875Z"/>
</mask>
<path d="M0.495117 1.78875L0.495117 0.934448L44.774 0.934446L44.774 1.78875L0.495117 1.78875Z" fill="#4A4A4A"/>
<path d="M0.495117 0.934448L-0.504883 0.934448L-0.504883 -0.0655517L0.495117 -0.0655518L0.495117 0.934448ZM0.495117 1.78875L0.495117 2.78875L-0.504883 2.78875L-0.504883 1.78875L0.495117 1.78875ZM44.774 1.78875L45.774 1.78875L45.774 2.78875L44.774 2.78875L44.774 1.78875ZM44.774 0.934446L44.774 -0.0655536L45.774 -0.0655537L45.774 0.934446L44.774 0.934446ZM1.49512 0.934448L1.49512 1.78875L-0.504883 1.78875L-0.504883 0.934448L1.49512 0.934448ZM0.495117 0.788748L44.774 0.788746L44.774 2.78875L0.495117 2.78875L0.495117 0.788748ZM43.774 1.78875L43.774 0.934446L45.774 0.934446L45.774 1.78875L43.774 1.78875ZM44.774 1.93445L0.495117 1.93445L0.495117 -0.0655518L44.774 -0.0655536L44.774 1.93445Z" fill="#DDDDDD" mask="url(#path-1-inside-1_243_664)"/>
<path d="M44.274 4.63928L0.995117 4.63928L0.995117 4.92069L44.274 4.92069L44.274 4.63928Z" fill="#4A4A4A" stroke="#DDDDDD"/>
<mask id="path-4-inside-2_243_664" fill="white">
<path d="M0.495117 8.62294L0.495117 7.76868L44.774 7.76867L44.774 8.62294L0.495117 8.62294Z"/>
</mask>
<path d="M0.495117 8.62294L0.495117 7.76868L44.774 7.76867L44.774 8.62294L0.495117 8.62294Z" fill="#4A4A4A"/>
<path d="M0.495117 7.76868L-0.504883 7.76868L-0.504883 6.76868L0.495117 6.76868L0.495117 7.76868ZM0.495117 8.62294L0.495117 9.62294L-0.504883 9.62294L-0.504883 8.62294L0.495117 8.62294ZM44.774 8.62294L45.774 8.62294L45.774 9.62294L44.774 9.62294L44.774 8.62294ZM44.774 7.76867L44.774 6.76867L45.774 6.76867L45.774 7.76867L44.774 7.76867ZM1.49512 7.76868L1.49512 8.62294L-0.504883 8.62294L-0.504883 7.76868L1.49512 7.76868ZM0.495117 7.62294L44.774 7.62294L44.774 9.62294L0.495117 9.62294L0.495117 7.62294ZM43.774 8.62294L43.774 7.76867L45.774 7.76867L45.774 8.62294L43.774 8.62294ZM44.774 8.76867L0.495117 8.76868L0.495117 6.76868L44.774 6.76867L44.774 8.76867Z" fill="#DDDDDD" mask="url(#path-4-inside-2_243_664)"/>
<mask id="path-6-inside-3_243_664" fill="white">
<path d="M0.495117 13.0352L0.495117 12.1809L44.774 12.1809L44.774 13.0352L0.495117 13.0352Z"/>
</mask>
<path d="M0.495117 13.0352L0.495117 12.1809L44.774 12.1809L44.774 13.0352L0.495117 13.0352Z" fill="#4A4A4A"/>
<path d="M0.495117 12.1809L-0.504883 12.1809L-0.504883 11.1809L0.495117 11.1809L0.495117 12.1809ZM0.495117 13.0352L0.495117 14.0352L-0.504883 14.0352L-0.504883 13.0352L0.495117 13.0352ZM44.774 13.0352L45.774 13.0352L45.774 14.0352L44.774 14.0352L44.774 13.0352ZM44.774 12.1809L44.774 11.1809L45.774 11.1809L45.774 12.1809L44.774 12.1809ZM1.49512 12.1809L1.49512 13.0352L-0.504883 13.0352L-0.504883 12.1809L1.49512 12.1809ZM0.495117 12.0352L44.774 12.0352L44.774 14.0352L0.495117 14.0352L0.495117 12.0352ZM43.774 13.0352L43.774 12.1809L45.774 12.1809L45.774 13.0352L43.774 13.0352ZM44.774 13.1809L0.495117 13.1809L0.495117 11.1809L44.774 11.1809L44.774 13.1809Z" fill="#DDDDDD" mask="url(#path-6-inside-3_243_664)"/>
<path d="M44.274 16.525L0.995117 16.525L0.995117 18.0878L44.274 18.0878L44.274 16.525Z" fill="#4A4A4A" stroke="#DDDDDD"/>
<path d="M44.274 21.0114L0.995117 21.0114L0.995117 21.2928L44.274 21.2928L44.274 21.0114Z" fill="#4A4A4A" stroke="#DDDDDD"/>
<path d="M44.274 25.5666L0.995117 25.5667L0.995117 25.8481L44.274 25.8481L44.274 25.5666Z" fill="#4A4A4A" stroke="#DDDDDD"/>
<path d="M44.274 31.475L0.995117 31.475L0.995117 33.0378L44.274 33.0378L44.274 31.475Z" fill="#4A4A4A" stroke="#DDDDDD"/>
<path d="M44.274 37.7389L0.995117 37.7389L0.995117 39.3017L44.274 39.3017L44.274 37.7389Z" fill="#4A4A4A" stroke="#DDDDDD"/>
<mask id="path-13-inside-4_243_664" fill="white">
<path d="M0.495117 43.0756L0.495117 42.2213L44.774 42.2213L44.774 43.0756L0.495117 43.0756Z"/>
</mask>
<path d="M0.495117 43.0756L0.495117 42.2213L44.774 42.2213L44.774 43.0756L0.495117 43.0756Z" fill="#4A4A4A"/>
<path d="M0.495117 42.2213L-0.504883 42.2213L-0.504883 41.2213L0.495117 41.2213L0.495117 42.2213ZM0.495117 43.0756L0.495117 44.0756L-0.504883 44.0756L-0.504883 43.0756L0.495117 43.0756ZM44.774 43.0756L45.774 43.0756L45.774 44.0756L44.774 44.0756L44.774 43.0756ZM44.774 42.2213L44.774 41.2213L45.774 41.2213L45.774 42.2213L44.774 42.2213ZM1.49512 42.2213L1.49512 43.0756L-0.504883 43.0756L-0.504883 42.2213L1.49512 42.2213ZM0.495117 42.0756L44.774 42.0756L44.774 44.0756L0.495117 44.0756L0.495117 42.0756ZM43.774 43.0756L43.774 42.2213L45.774 42.2213L45.774 43.0756L43.774 43.0756ZM44.774 43.2213L0.495117 43.2213L0.495117 41.2213L44.774 41.2213L44.774 43.2213Z" fill="#DDDDDD" mask="url(#path-13-inside-4_243_664)"/>
<mask id="path-15-inside-5_243_664" fill="white">
<path d="M0.495117 46.6359L0.495117 45.7816L44.774 45.7816L44.774 46.6359L0.495117 46.6359Z"/>
</mask>
<path d="M0.495117 46.6359L0.495117 45.7816L44.774 45.7816L44.774 46.6359L0.495117 46.6359Z" fill="#4A4A4A"/>
<path d="M0.495117 45.7816L-0.504883 45.7816L-0.504883 44.7816L0.495117 44.7816L0.495117 45.7816ZM0.495117 46.6359L0.495117 47.6359L-0.504883 47.6359L-0.504883 46.6359L0.495117 46.6359ZM44.774 46.6359L45.774 46.6359L45.774 47.6359L44.774 47.6359L44.774 46.6359ZM44.774 45.7816L44.774 44.7816L45.774 44.7816L45.774 45.7816L44.774 45.7816ZM1.49512 45.7816L1.49512 46.6359L-0.504883 46.6359L-0.504883 45.7816L1.49512 45.7816ZM0.495117 45.6359L44.774 45.6359L44.774 47.6359L0.495117 47.6359L0.495117 45.6359ZM43.774 46.6359L43.774 45.7816L45.774 45.7816L45.774 46.6359L43.774 46.6359ZM44.774 46.7816L0.495117 46.7816L0.495117 44.7816L44.774 44.7816L44.774 46.7816Z" fill="#DDDDDD" mask="url(#path-15-inside-5_243_664)"/>
<path d="M44.274 51.9036L0.995117 51.9036L0.995117 52.185L44.274 52.185L44.274 51.9036Z" fill="#4A4A4A" stroke="#DDDDDD"/>
<path d="M44.274 56.7452L0.995117 56.7452L0.995117 57.0267L44.274 57.0267L44.274 56.7452Z" fill="#4A4A4A" stroke="#DDDDDD"/>
<path d="M44.274 60.9452L0.995117 60.9452L0.995117 62.508L44.274 62.508L44.274 60.9452Z" fill="#4A4A4A" stroke="#DDDDDD"/>
<path d="M44.274 65.145L0.995117 65.145L0.995117 65.4265L44.274 65.4265L44.274 65.145Z" fill="#4A4A4A" stroke="#DDDDDD"/>
<path d="M44.274 69.9866L0.995117 69.9866L0.995117 70.268L44.274 70.268L44.274 69.9866Z" fill="#4A4A4A" stroke="#DDDDDD"/>
<mask id="path-22-inside-6_243_664" fill="white">
<path d="M0.495117 75.1087L0.495117 74.2544L44.774 74.2544L44.774 75.1087L0.495117 75.1087Z"/>
</mask>
<path d="M0.495117 75.1087L0.495117 74.2544L44.774 74.2544L44.774 75.1087L0.495117 75.1087Z" fill="#4A4A4A"/>
<path d="M0.495117 74.2544L-0.504883 74.2544L-0.504883 73.2544L0.495117 73.2544L0.495117 74.2544ZM0.495117 75.1087L0.495117 76.1087L-0.504883 76.1087L-0.504883 75.1087L0.495117 75.1087ZM44.774 75.1087L45.774 75.1087L45.774 76.1087L44.774 76.1087L44.774 75.1087ZM44.774 74.2544L44.774 73.2544L45.774 73.2544L45.774 74.2544L44.774 74.2544ZM1.49512 74.2544L1.49512 75.1087L-0.504883 75.1087L-0.504883 74.2544L1.49512 74.2544ZM0.495117 74.1087L44.774 74.1087L44.774 76.1087L0.495117 76.1087L0.495117 74.1087ZM43.774 75.1087L43.774 74.2544L45.774 74.2544L45.774 75.1087L43.774 75.1087ZM44.774 75.2544L0.495117 75.2544L0.495117 73.2544L44.774 73.2544L44.774 75.2544Z" fill="#DDDDDD" mask="url(#path-22-inside-6_243_664)"/>
<mask id="path-24-inside-7_243_664" fill="white">
<path d="M0.495117 80.3776L0.495117 79.5233L44.774 79.5233L44.774 80.3776L0.495117 80.3776Z"/>
</mask>
<path d="M0.495117 80.3776L0.495117 79.5233L44.774 79.5233L44.774 80.3776L0.495117 80.3776Z" fill="#4A4A4A"/>
<path d="M0.495117 79.5233L-0.504883 79.5233L-0.504883 78.5233L0.495117 78.5233L0.495117 79.5233ZM0.495117 80.3776L0.495117 81.3776L-0.504883 81.3776L-0.504883 80.3776L0.495117 80.3776ZM44.774 80.3776L45.774 80.3776L45.774 81.3776L44.774 81.3776L44.774 80.3776ZM44.774 79.5233L44.774 78.5233L45.774 78.5233L45.774 79.5233L44.774 79.5233ZM1.49512 79.5233L1.49512 80.3776L-0.504883 80.3776L-0.504883 79.5233L1.49512 79.5233ZM0.495117 79.3776L44.774 79.3776L44.774 81.3776L0.495117 81.3776L0.495117 79.3776ZM43.774 80.3776L43.774 79.5233L45.774 79.5233L45.774 80.3776L43.774 80.3776ZM44.774 80.5233L0.495117 80.5233L0.495117 78.5233L44.774 78.5233L44.774 80.5233Z" fill="#DDDDDD" mask="url(#path-24-inside-7_243_664)"/>
<path d="M44.274 84.507L0.995117 84.507L0.995117 84.7883L44.274 84.7883L44.274 84.507Z" fill="#4A4A4A" stroke="#DDDDDD"/>
<path d="M44.274 87.3538L0.995117 87.3538L0.995117 87.6352L44.274 87.6352L44.274 87.3538Z" fill="#4A4A4A" stroke="#DDDDDD"/>
<mask id="path-28-inside-8_243_664" fill="white">
<path d="M0.495117 91.7671L0.495117 90.9128L44.774 90.9128L44.774 91.7671L0.495117 91.7671Z"/>
</mask>
<path d="M0.495117 91.7671L0.495117 90.9128L44.774 90.9128L44.774 91.7671L0.495117 91.7671Z" fill="#4A4A4A"/>
<path d="M0.495117 90.9128L-0.504883 90.9128L-0.504883 89.9128L0.495117 89.9128L0.495117 90.9128ZM0.495117 91.7671L0.495117 92.7671L-0.504883 92.7671L-0.504883 91.7671L0.495117 91.7671ZM44.774 91.7671L45.774 91.7671L45.774 92.7671L44.774 92.7671L44.774 91.7671ZM44.774 90.9128L44.774 89.9128L45.774 89.9128L45.774 90.9128L44.774 90.9128ZM1.49512 90.9128L1.49512 91.7671L-0.504883 91.7671L-0.504883 90.9128L1.49512 90.9128ZM0.495117 90.7671L44.774 90.7671L44.774 92.7671L0.495117 92.7671L0.495117 90.7671ZM43.774 91.7671L43.774 90.9128L45.774 90.9128L45.774 91.7671L43.774 91.7671ZM44.774 91.9128L0.495117 91.9128L0.495117 89.9128L44.774 89.9128L44.774 91.9128Z" fill="#DDDDDD" mask="url(#path-28-inside-8_243_664)"/>
<mask id="path-30-inside-9_243_664" fill="white">
<path d="M0.495117 94.9002L0.495117 94.0459L44.774 94.0459L44.774 94.9002L0.495117 94.9002Z"/>
</mask>
<path d="M0.495117 94.9002L0.495117 94.0459L44.774 94.0459L44.774 94.9002L0.495117 94.9002Z" fill="#4A4A4A"/>
<path d="M0.495117 94.0459L-0.504883 94.0459L-0.504883 93.0459L0.495117 93.0459L0.495117 94.0459ZM0.495117 94.9002L0.495117 95.9002L-0.504883 95.9002L-0.504883 94.9002L0.495117 94.9002ZM44.774 94.9002L45.774 94.9002L45.774 95.9002L44.774 95.9002L44.774 94.9002ZM44.774 94.0459L44.774 93.0459L45.774 93.0459L45.774 94.0459L44.774 94.0459ZM1.49512 94.0459L1.49512 94.9002L-0.504883 94.9002L-0.504883 94.0459L1.49512 94.0459ZM0.495117 93.9002L44.774 93.9002L44.774 95.9002L0.495117 95.9002L0.495117 93.9002ZM43.774 94.9002L43.774 94.0459L45.774 94.0459L45.774 94.9002L43.774 94.9002ZM44.774 95.0459L0.495117 95.0459L0.495117 93.0459L44.774 93.0459L44.774 95.0459Z" fill="#DDDDDD" mask="url(#path-30-inside-9_243_664)"/>
<path d="M44.274 99.0989L0.995117 99.0989L0.995117 100.662L44.274 100.662L44.274 99.0989Z" fill="#4A4A4A" stroke="#DDDDDD"/>
<path d="M44.274 104.723L0.995117 104.723L0.995117 105.005L44.274 105.005L44.274 104.723Z" fill="#4A4A4A" stroke="#DDDDDD"/>
<mask id="path-34-inside-10_243_664" fill="white">
<path d="M0.495117 115.684L0.495117 114.83L44.774 114.83L44.774 115.684L0.495117 115.684Z"/>
</mask>
<path d="M0.495117 115.684L0.495117 114.83L44.774 114.83L44.774 115.684L0.495117 115.684Z" fill="#4A4A4A"/>
<path d="M0.495117 114.83L-0.504883 114.83L-0.504883 113.83L0.495117 113.83L0.495117 114.83ZM0.495117 115.684L0.495117 116.684L-0.504883 116.684L-0.504883 115.684L0.495117 115.684ZM44.774 115.684L45.774 115.684L45.774 116.684L44.774 116.684L44.774 115.684ZM44.774 114.83L44.774 113.83L45.774 113.83L45.774 114.83L44.774 114.83ZM1.49512 114.83L1.49512 115.684L-0.504883 115.684L-0.504883 114.83L1.49512 114.83ZM0.495117 114.684L44.774 114.684L44.774 116.684L0.495117 116.684L0.495117 114.684ZM43.774 115.684L43.774 114.83L45.774 114.83L45.774 115.684L43.774 115.684ZM44.774 115.83L0.495117 115.83L0.495117 113.83L44.774 113.83L44.774 115.83Z" fill="#DDDDDD" mask="url(#path-34-inside-10_243_664)"/>
<path d="M44.274 119.031L0.995117 119.031L0.995117 120.594L44.274 120.594L44.274 119.031Z" fill="#4A4A4A" stroke="#DDDDDD"/>
<path d="M44.274 123.658L0.995117 123.658L0.995117 123.94L44.274 123.94L44.274 123.658Z" fill="#4A4A4A" stroke="#DDDDDD"/>
<path d="M44.274 130.636L0.995117 130.636L0.995117 130.917L44.274 130.917L44.274 130.636Z" fill="#4A4A4A" stroke="#DDDDDD"/>
<mask id="path-39-inside-11_243_664" fill="white">
<path d="M0.495117 136.185L0.495117 135.33L44.774 135.33L44.774 136.185L0.495117 136.185Z"/>
</mask>
<path d="M0.495117 136.185L0.495117 135.33L44.774 135.33L44.774 136.185L0.495117 136.185Z" fill="#4A4A4A"/>
<path d="M0.495117 135.33L-0.504883 135.33L-0.504883 134.33L0.495117 134.33L0.495117 135.33ZM0.495117 136.185L0.495117 137.185L-0.504883 137.185L-0.504883 136.185L0.495117 136.185ZM44.774 136.185L45.774 136.185L45.774 137.185L44.774 137.185L44.774 136.185ZM44.774 135.33L44.774 134.33L45.774 134.33L45.774 135.33L44.774 135.33ZM1.49512 135.33L1.49512 136.185L-0.504883 136.185L-0.504883 135.33L1.49512 135.33ZM0.495117 135.185L44.774 135.185L44.774 137.185L0.495117 137.185L0.495117 135.185ZM43.774 136.185L43.774 135.33L45.774 135.33L45.774 136.185L43.774 136.185ZM44.774 136.33L0.495117 136.33L0.495117 134.33L44.774 134.33L44.774 136.33Z" fill="#DDDDDD" mask="url(#path-39-inside-11_243_664)"/>
<path d="M44.274 139.818L0.995117 139.818L0.995117 141.381L44.274 141.381L44.274 139.818Z" fill="#4A4A4A" stroke="#DDDDDD"/>
<path d="M44.274 144.304L0.995117 144.304L0.995117 144.585L44.274 144.585L44.274 144.304Z" fill="#4A4A4A" stroke="#DDDDDD"/>
</g>
</svg>
