<svg xmlns="http://www.w3.org/2000/svg" width="30" height="30" viewBox="0 0 30 30">
  <g id="Bitcoin" transform="translate(0.006 -0.002)">
    <path id="Subtraction_39" data-name="Subtraction 39" d="M15.01,30h0a15.057,15.057,0,0,1-3.639-.449A15,15,0,0,1,10.121.818,14.882,14.882,0,0,1,14.989,0a15.05,15.05,0,0,1,3.637.449,15,15,0,0,1,1.253,28.733A14.888,14.888,0,0,1,15.01,30Zm-2.821-9.361h0c.432.111.877.22,1.359.333l-.7,2.636,1.707.4.706-2.671a12.833,12.833,0,0,0,2.23.231,3.56,3.56,0,0,0,3.788-2.406,2.763,2.763,0,0,0-1.568-3.906,2.633,2.633,0,0,0,2.178-2.365c.267-1.682-.82-2.859-3.42-3.7l.7-2.646-1.706-.4-.681,2.576c-.414-.1-.84-.19-1.253-.279l-.114-.025L16.1,5.821l-1.7-.4-.7,2.646-.126-.027c-.3-.066-.644-.141-.964-.216l0-.008-2.353-.555L9.8,8.98c.289.062,1.234.27,1.24.29.694.165.815.6.795.938l-.8,3.015a1.44,1.44,0,0,1,.177.053l-.18-.042L9.924,17.456a.618.618,0,0,1-.58.408.9.9,0,0,1-.2-.025c-.076,0-1.228-.289-1.24-.292l-.847,1.844,2.22.522c.253.06.5.122.745.181l.471.115-.706,2.676,1.7.4.7-2.648Zm3.707-1.4a12.44,12.44,0,0,1-2.819-.453l-.013,0c-.12-.03-.228-.057-.321-.078l.937-3.546c.118.028.264.059.42.092,1.087.23,3.11.659,3.749,1.7A1.373,1.373,0,0,1,18,18.054C17.788,18.838,17.082,19.236,15.9,19.236Zm.765-5.268h0a9.7,9.7,0,0,1-2.274-.367l-.279-.069.85-3.216c.1.023.213.047.348.075h0c.884.185,2.531.529,3.079,1.417a1.3,1.3,0,0,1,.133,1.054C18.329,13.6,17.7,13.968,16.662,13.968Z" transform="translate(-0.006 0.002)" fill="#09120f"/>
  </g>
</svg>
