<svg xmlns="http://www.w3.org/2000/svg" width="29.291" height="30" viewBox="0 0 29.291 30">
  <g id="Group_211" data-name="Group 211" transform="translate(-2.238 -2.008)">
    <path id="Path_689" data-name="Path 689" d="M14.938,2.314l-3.616,8.418H7.7a8.5,8.5,0,0,0-1.756.165l1.5-3.6.06-.135.09-.24a2.38,2.38,0,0,1,.12-.27C9.461,2.614,11.411,1.354,14.938,2.314Z" transform="translate(1.858 0)" fill="#09120f"/>
    <path id="Path_690" data-name="Path 690" d="M22.791,10.878l-.03-.015a10.034,10.034,0,0,0-2.746-.39H10.621L14,2.625l.045-.105c.21.075.435.18.66.255l3.316,1.4A9.929,9.929,0,0,1,21.95,6.691c.135.18.255.345.375.54a2.283,2.283,0,0,1,.3.645,2.008,2.008,0,0,1,.135.39A5.259,5.259,0,0,1,22.791,10.878Z" transform="translate(4.196 0.256)" fill="#09120f"/>
    <path id="Path_691" data-name="Path 691" d="M12.52,18.324h.375a.87.87,0,0,0,.825-.9c0-.63-.18-.72-.57-.87l-.63-.225Z" transform="translate(5.146 7.168)" fill="#09120f"/>
    <path id="Path_692" data-name="Path 692" d="M26.322,9.62a7.589,7.589,0,0,0-2.116-.3H9.561a7.167,7.167,0,0,0-2.881.585,7.343,7.343,0,0,0-4.442,6.738v2.926a8.476,8.476,0,0,0,.075,1.065q.5,7.158,7.653,7.638a8.093,8.093,0,0,0,1.065.075h11.7c5.552,0,8.478-2.641,8.763-7.893.015-.285.03-.585.03-.885V16.643A7.353,7.353,0,0,0,26.322,9.62ZM18.8,18.594a2.217,2.217,0,0,1,1.621,2.341A2.418,2.418,0,0,1,18.039,23.4h-.375v.33a.78.78,0,1,1-1.561,0V23.4h-.135a2.678,2.678,0,0,1-2.626-2.716.78.78,0,0,1,1.561,0,1.12,1.12,0,0,0,1.065,1.155H16.1V19.3l-1.14-.405a2.217,2.217,0,0,1-1.621-2.341,2.418,2.418,0,0,1,2.386-2.461H16.1v-.33a.78.78,0,1,1,1.561,0v.33H17.8a2.678,2.678,0,0,1,2.626,2.716.78.78,0,1,1-1.561,0A1.12,1.12,0,0,0,17.8,15.653h-.135v2.536Z" transform="translate(0 3.66)" fill="#09120f"/>
    <path id="Path_693" data-name="Path 693" d="M10.68,14.439c0,.63.18.72.57.87l.63.225v-2h-.375A.86.86,0,0,0,10.68,14.439Z" transform="translate(4.225 5.772)" fill="#09120f"/>
  </g>
</svg>
