<svg xmlns="http://www.w3.org/2000/svg" width="29.259" height="30.249" viewBox="0 0 29.259 30.249">
  <g id="Group_209" data-name="Group 209" transform="translate(-2.32 -1.996)">
    <path id="Path_677" data-name="Path 677" d="M27.789,6.374,18.928,2.427a6.264,6.264,0,0,0-4.567,0L5.5,6.374c-2.238,1-2.571,2.359-2.571,3.085s.333,2.087,2.571,3.085l8.861,3.947a6.164,6.164,0,0,0,4.567,0l8.861-3.947c2.238-1,2.571-2.359,2.571-3.085S30.042,7.372,27.789,6.374Z" transform="translate(0.312 0)" fill="#09120f"/>
    <path id="Path_678" data-name="Path 678" d="M16.957,20.517a4.278,4.278,0,0,1-1.678-.348L5.087,15.633A4.984,4.984,0,0,1,2.32,11.369a1.119,1.119,0,0,1,2.238,0,2.745,2.745,0,0,0,1.437,2.208l10.192,4.536a1.916,1.916,0,0,0,1.527,0l10.192-4.536a2.723,2.723,0,0,0,1.437-2.208,1.119,1.119,0,1,1,2.238,0,5,5,0,0,1-2.767,4.264L18.621,20.169A4.15,4.15,0,0,1,16.957,20.517Z" transform="translate(0 4.227)" fill="#09120f"/>
    <path id="Path_679" data-name="Path 679" d="M16.957,25.478a4.278,4.278,0,0,1-1.678-.348L5.087,20.594A4.664,4.664,0,0,1,2.32,16.33a1.119,1.119,0,1,1,2.238,0,2.418,2.418,0,0,0,1.437,2.208l10.192,4.536a1.916,1.916,0,0,0,1.527,0l10.192-4.536a2.427,2.427,0,0,0,1.437-2.208,1.119,1.119,0,1,1,2.238,0,4.68,4.68,0,0,1-2.767,4.264L18.621,25.13A4.15,4.15,0,0,1,16.957,25.478Z" transform="translate(0 6.767)" fill="#09120f"/>
  </g>
</svg>
