<svg xmlns="http://www.w3.org/2000/svg" width="30" height="30" viewBox="0 0 30 30">
  <g id="Group_210" data-name="Group 210" transform="translate(-2 -2)">
    <path id="Path_680" data-name="Path 680" d="M9.944,23.195c-.045,0-.1.03-.15.03A15.009,15.009,0,0,1,3.059,16.49c0-.045.03-.1.03-.15A47.838,47.838,0,0,0,8.684,17.6,50.321,50.321,0,0,0,9.944,23.195Z" transform="translate(0.529 7.17)" fill="#09120f"/>
    <path id="Path_681" data-name="Path 681" d="M23.264,16.5a15.14,15.14,0,0,1-6.975,6.855,45.844,45.844,0,0,0,1.365-5.76,46.921,46.921,0,0,0,5.58-1.26C23.219,16.4,23.264,16.46,23.264,16.5Z" transform="translate(7.144 7.17)" fill="#09120f"/>
    <path id="Path_682" data-name="Path 682" d="M23.384,10.075a47.465,47.465,0,0,0-5.73-1.365,41.871,41.871,0,0,0-1.365-5.73A15.078,15.078,0,0,1,23.384,10.075Z" transform="translate(7.144 0.49)" fill="#09120f"/>
    <path id="Path_683" data-name="Path 683" d="M9.985,3.1A46.872,46.872,0,0,0,8.74,8.684a43.3,43.3,0,0,0-5.76,1.35A15.14,15.14,0,0,1,9.835,3.059C9.88,3.059,9.94,3.1,9.985,3.1Z" transform="translate(0.49 0.529)" fill="#09120f"/>
    <path id="Path_684" data-name="Path 684" d="M18.982,8.885a46.992,46.992,0,0,0-10.47,0,42.56,42.56,0,0,1,1.53-6.09,2.453,2.453,0,0,0,.03-.33A15.608,15.608,0,0,1,13.747,2a15.482,15.482,0,0,1,3.66.465,2.491,2.491,0,0,0,.045.33A43.067,43.067,0,0,1,18.982,8.885Z" transform="translate(3.256)" fill="#09120f"/>
    <path id="Path_685" data-name="Path 685" d="M8.885,18.982a42.064,42.064,0,0,1-6.09-1.53,2.453,2.453,0,0,0-.33-.03A15.609,15.609,0,0,1,2,13.747a15.482,15.482,0,0,1,.465-3.66,2.49,2.49,0,0,0,.33-.045,44.655,44.655,0,0,1,6.09-1.53A48.86,48.86,0,0,0,8.885,18.982Z" transform="translate(0 3.256)" fill="#09120f"/>
    <path id="Path_686" data-name="Path 686" d="M24.3,13.747a15.609,15.609,0,0,1-.465,3.675,2.453,2.453,0,0,0-.33.03,45.214,45.214,0,0,1-6.09,1.53,46.992,46.992,0,0,0,0-10.47,42.56,42.56,0,0,1,6.09,1.53,1.249,1.249,0,0,0,.33.045A15.583,15.583,0,0,1,24.3,13.747Z" transform="translate(7.705 3.256)" fill="#09120f"/>
    <path id="Path_687" data-name="Path 687" d="M18.982,17.41a42.064,42.064,0,0,1-1.53,6.09,2.491,2.491,0,0,0-.045.33,15.483,15.483,0,0,1-3.66.465,15.608,15.608,0,0,1-3.675-.465,2.453,2.453,0,0,0-.03-.33,44.655,44.655,0,0,1-1.53-6.09,46.934,46.934,0,0,0,5.235.33A46.709,46.709,0,0,0,18.982,17.41Z" transform="translate(3.256 7.705)" fill="#09120f"/>
    <path id="Path_688" data-name="Path 688" d="M19.645,19.645a45.052,45.052,0,0,1-11.29,0,45.058,45.058,0,0,1,0-11.29,45.058,45.058,0,0,1,11.29,0A45.052,45.052,0,0,1,19.645,19.645Z" transform="translate(3 3)" fill="#09120f"/>
  </g>
</svg>
