<?xml version="1.0" encoding="utf-8"?>
<!-- Generator: Adobe Illustrator 26.0.1, SVG Export Plug-In . SVG Version: 6.00 Build 0)  -->
<svg version="1.1" id="Layer_1" xmlns="http://www.w3.org/2000/svg" xmlns:xlink="http://www.w3.org/1999/xlink" x="0px" y="0px"
	 viewBox="0 0 2265.5 394.4" style="enable-background:new 0 0 2265.5 394.4;" xml:space="preserve">
<style type="text/css">
	.st0{fill:#FFFFFF;}
	.st1{fill:#FFFFFF;stroke:#000000;stroke-miterlimit:10;}
</style>
<path class="st0" d="M109.7,7v292.4h228.4V7H446v311.9c0,11-2.5,20.7-7.6,29.2c-5,8.4-11.6,15.8-19.5,21.6c-8,5.9-17,10.4-26.5,13.1
	c-9.5,2.8-19.3,4.2-29.2,4.3H85.4c-10.3,0-20.5-1.3-30.5-4c-9.5-2.5-18.4-6.6-26.5-12.2c-7.9-5.4-14.3-12.6-18.9-21
	c-4.7-8.5-7-18.9-7-31.1V7H109.7z"/>
<path class="st0" d="M498.4,75.2c0-12.2,2.3-22.5,7-31.1c4.6-8.4,11-15.6,18.9-21c8.1-5.6,17-9.7,26.5-12.2c9.9-2.7,20.2-4,30.5-4
	h277.8c9.9,0,19.8,1.5,29.3,4.3c9.5,2.7,18.5,7.2,26.5,13.1c7.9,5.8,14.5,13.2,19.5,21.6c5.1,8.5,7.6,18.3,7.6,29.3v243.7
	c0,10.6-2,19.1-6.1,25.6l46.3,42.6H581.3c-10.3,0-20.5-1.3-30.5-4c-9.5-2.5-18.4-6.6-26.5-12.2c-7.9-5.4-14.3-12.6-18.9-21
	c-4.7-8.5-7-18.9-7-31.1V75.2z M789,209.2l45.1,42V94.7H605.6v204.7h118.2l-99.9-90.2H789z"/>
<path class="st0" d="M1105.2,7v292.4h228.5V7h107.8v311.9c0,11-2.5,20.7-7.6,29.2c-5,8.5-11.6,15.8-19.5,21.7
	c-8,5.9-17,10.4-26.5,13.1c-9.5,2.8-19.3,4.3-29.2,4.3h-277.8c-10.3,0-20.5-1.3-30.5-4c-9.5-2.5-18.4-6.6-26.5-12.2
	c-7.9-5.4-14.3-12.6-18.9-21c-4.7-8.5-7-18.9-7-31.1V7H1105.2z"/>
<path class="st0" d="M1493.9,301.8h82.9V92.3h-82.9V7h272.9v85.3H1684v209.5h82.9v85.3H1494L1493.9,301.8L1493.9,301.8z"/>
<path class="st0" d="M1819.2,165.4h109v132.8h212l9.8-7.3V99.6l-9.8-7.3h-321V7h389.3c6.5,0.1,12.9,1.9,18.6,5.2
	c6.3,3.5,12.1,7.9,17.1,13.1s9.3,11,12.8,17.4c3.4,6.3,5.2,12.3,5.2,18v254c0,13-1.9,24.2-5.8,33.5c-3.9,9.3-9,16.9-15.5,22.5
	c-6.4,5.6-13.8,9.9-21.9,12.5c-8.3,2.7-16.9,4-25.6,4h-374.1V165.4H1819.2z"/>
<path class="st1" d="M-832.3-553.6"/>
</svg>
