<svg width="30" height="30" viewBox="0 0 30 30" fill="none" xmlns="http://www.w3.org/2000/svg">
<path d="M11.25 10.4761H17.1057C18.4038 10.4761 19.4567 11.6443 19.4567 12.827C19.4567 14.1251 18.4038 15.178 17.1057 15.178H11.25V10.4761Z" stroke="#313131" stroke-width="1.5" stroke-miterlimit="10" stroke-linecap="round" stroke-linejoin="round"/>
<path d="M11.25 15.1636H17.9423C19.4279 15.1636 20.625 16.2165 20.625 17.5145C20.625 18.8126 19.4279 19.8655 17.9423 19.8655H11.25V15.1636Z" stroke="#313131" stroke-width="1.5" stroke-miterlimit="10" stroke-linecap="round" stroke-linejoin="round"/>
<path d="M15.3461 19.8511V22.202" stroke="#313131" stroke-width="1.5" stroke-miterlimit="10" stroke-linecap="round" stroke-linejoin="round"/>
<path d="M12.4182 19.8511V22.202" stroke="#313131" stroke-width="1.5" stroke-miterlimit="10" stroke-linecap="round" stroke-linejoin="round"/>
<path d="M15.3461 8.125V10.476" stroke="#313131" stroke-width="1.5" stroke-miterlimit="10" stroke-linecap="round" stroke-linejoin="round"/>
<path d="M12.4182 8.125V10.476" stroke="#313131" stroke-width="1.5" stroke-miterlimit="10" stroke-linecap="round" stroke-linejoin="round"/>
<path d="M13.4712 10.4761H9.375" stroke="#313131" stroke-width="1.5" stroke-miterlimit="10" stroke-linecap="round" stroke-linejoin="round"/>
<path d="M13.4712 19.8511H9.375" stroke="#313131" stroke-width="1.5" stroke-miterlimit="10" stroke-linecap="round" stroke-linejoin="round"/>
<path d="M15 27.5C21.9036 27.5 27.5 21.9036 27.5 15C27.5 8.09644 21.9036 2.5 15 2.5C8.09644 2.5 2.5 8.09644 2.5 15C2.5 21.9036 8.09644 27.5 15 27.5Z" stroke="#313131" stroke-width="1.5" stroke-miterlimit="10"/>
</svg>
