<svg width="31" height="30" viewBox="0 0 31 30" fill="none" xmlns="http://www.w3.org/2000/svg">
<path d="M27.9625 22.9125C27.9625 23.3625 27.8625 23.825 27.65 24.275C27.4375 24.725 27.1625 25.15 26.8 25.55C26.1875 26.225 25.5125 26.7125 24.75 27.025C24 27.3375 23.1875 27.5 22.3125 27.5C21.0375 27.5 19.675 27.2 18.2375 26.5875C16.8 25.975 15.3625 25.15 13.9375 24.1125C12.5 23.0625 11.1375 21.9 9.8375 20.6125C8.55 19.3125 7.3875 17.95 6.35 16.525C5.325 15.1 4.5 13.675 3.9 12.2625C3.3 10.8375 3 9.475 3 8.175C3 7.325 3.15 6.5125 3.45 5.7625C3.75 5 4.225 4.3 4.8875 3.675C5.6875 2.8875 6.5625 2.5 7.4875 2.5C7.8375 2.5 8.1875 2.575 8.5 2.725C8.825 2.875 9.1125 3.1 9.3375 3.425L12.2375 7.5125C12.4625 7.825 12.625 8.1125 12.7375 8.3875C12.85 8.65 12.9125 8.9125 12.9125 9.15C12.9125 9.45 12.825 9.75 12.65 10.0375C12.4875 10.325 12.25 10.625 11.95 10.925L11 11.9125C10.8625 12.05 10.8 12.2125 10.8 12.4125C10.8 12.5125 10.8125 12.6 10.8375 12.7C10.875 12.8 10.9125 12.875 10.9375 12.95C11.1625 13.3625 11.55 13.9 12.1 14.55C12.6625 15.2 13.2625 15.8625 13.9125 16.525C14.5875 17.1875 15.2375 17.8 15.9 18.3625C16.55 18.9125 17.0875 19.2875 17.5125 19.5125C17.575 19.5375 17.65 19.575 17.7375 19.6125C17.8375 19.65 17.9375 19.6625 18.05 19.6625C18.2625 19.6625 18.425 19.5875 18.5625 19.45L19.5125 18.5125C19.825 18.2 20.125 17.9625 20.4125 17.8125C20.7 17.6375 20.9875 17.55 21.3 17.55C21.5375 17.55 21.7875 17.6 22.0625 17.7125C22.3375 17.825 22.625 17.9875 22.9375 18.2L27.075 21.1375C27.4 21.3625 27.625 21.625 27.7625 21.9375C27.8875 22.25 27.9625 22.5625 27.9625 22.9125Z" stroke="#313131" stroke-width="1.5" stroke-miterlimit="10"/>
<path d="M23.625 11.25C23.625 10.5 23.0375 9.35 22.1625 8.4125C21.3625 7.55 20.3 6.875 19.25 6.875" stroke="#313131" stroke-width="1.5" stroke-linecap="round" stroke-linejoin="round"/>
<path d="M28 11.25C28 6.4125 24.0875 2.5 19.25 2.5" stroke="#313131" stroke-width="1.5" stroke-linecap="round" stroke-linejoin="round"/>
</svg>
