<svg width="60" height="60" viewBox="0 0 60 60" fill="none" xmlns="http://www.w3.org/2000/svg">
<g clip-path="url(#clip0_52_1305)">
<path d="M33.5547 30.8899L26.8898 30.8913V39.26H33.5546C35.8618 39.26 37.739 37.3826 37.739 35.075C37.7391 33.9635 37.3021 32.9143 36.5085 32.1206C35.7149 31.3269 34.6657 30.8898 33.5547 30.8899ZM35.9345 24.0577C35.9347 23.177 35.588 22.3454 34.9586 21.716C34.3292 21.0866 33.4976 20.7399 32.6171 20.7401H26.8899V27.3743H32.6711C34.4753 27.3451 35.9345 25.8691 35.9345 24.0577Z" fill="#0070E0"/>
<path d="M30 9.84375C18.8858 9.84375 9.84375 18.8858 9.84375 30C9.84375 41.1142 18.8858 50.1562 30 50.1562C41.1142 50.1562 50.1562 41.1142 50.1562 30C50.1562 18.8858 41.1142 9.84375 30 9.84375ZM33.5545 42.7757H31.7578V46.1719H28.2422V42.7757H20.5032V39.26H23.3741V20.74H20.5032V17.2243H28.2422V13.8281H31.7578V17.2243H32.6168C34.4364 17.2242 36.1509 17.9365 37.4445 19.23C38.7379 20.5235 39.4501 22.2381 39.45 24.0578C39.45 25.8008 38.793 27.3927 37.715 28.6011C38.1767 28.8996 38.6056 29.2461 38.9944 29.6347C40.4521 31.0925 41.2547 33.0246 41.2545 35.0752C41.2546 39.3212 37.8004 42.7757 33.5545 42.7757Z" fill="#0070E0"/>
<path d="M51.2133 8.78672C45.5469 3.12059 38.0133 0 30 0C21.9867 0 14.4531 3.12059 8.78672 8.78672C3.12059 14.4531 0 21.9867 0 30C0 38.0133 3.12059 45.5469 8.78672 51.2133C14.4531 56.8794 21.9867 60 30 60C38.0133 60 45.5469 56.8794 51.2133 51.2133C56.8794 45.5469 60 38.0133 60 30C60 21.9867 56.8794 14.4531 51.2133 8.78672ZM30 53.6719C16.9473 53.6719 6.32812 43.0527 6.32812 30C6.32812 16.9473 16.9473 6.32812 30 6.32812C43.0527 6.32812 53.6719 16.9473 53.6719 30C53.6719 43.0527 43.0527 53.6719 30 53.6719Z" fill="#0070E0"/>
</g>
<defs>
<clipPath id="clip0_52_1305">
<rect width="60" height="60" fill="white"/>
</clipPath>
</defs>
</svg>
