<svg width="60" height="60" viewBox="0 0 60 60" fill="none" xmlns="http://www.w3.org/2000/svg">
<path d="M39.5179 30C39.5187 28.339 39.4598 26.6786 39.3413 25.0218C37.4529 24.6596 35.9239 23.2733 35.359 21.4645H21.0165C20.6745 24.0994 20.4822 26.959 20.4822 30C20.4822 31.8654 20.555 33.6621 20.6897 35.3814C22.564 35.7527 24.0792 37.1342 24.641 38.9332H38.931C39.3061 36.1894 39.5179 33.1944 39.5179 30ZM40.8709 14.7487C42.9561 14.9686 44.6779 16.4258 45.2853 18.3709H53.6963C50.3078 11.4943 44.0137 6.29721 36.426 4.39239C37.4737 5.79674 38.4285 7.56328 39.2623 9.66909C39.8796 11.2283 40.4172 12.9322 40.8709 14.7487ZM17.614 35.7102C17.4629 33.8106 17.3876 31.9056 17.3883 30C17.3883 27.0658 17.5638 24.1961 17.9009 21.4645H5.01663C4.09903 24.1432 3.60001 27.0143 3.60001 30C3.60001 33.134 4.15018 36.1418 5.15709 38.9332H14.7148C15.1669 37.4854 16.2367 36.3084 17.614 35.7102ZM19.2331 45.658C17.1014 45.4764 15.3323 44.0041 14.7147 42.0269H6.50225C9.93487 48.7062 16.133 53.7396 23.574 55.6075C22.5263 54.2031 21.5715 52.4366 20.7377 50.3308C20.1668 48.8887 19.6644 47.3222 19.2331 45.658ZM21.5044 18.3708H35.359C35.7638 17.0749 36.6632 15.9955 37.8351 15.3543C35.9835 8.05621 32.8862 3.59998 30 3.59998C26.7353 3.59998 23.2007 9.3032 21.5044 18.3708ZM15.4105 9.03982C15.4105 11.9061 13.0786 14.238 10.2123 14.238C9.77792 14.238 9.35613 14.1837 8.9525 14.0828C7.93508 15.4246 7.04813 16.8605 6.30374 18.3709H18.362C18.9255 15.1737 19.7249 12.2274 20.7377 9.66919C21.5715 7.56338 22.5263 5.79685 23.574 4.39249C20.5894 5.14169 17.8048 6.39972 15.3184 8.06962C15.3794 8.38943 15.4102 8.71425 15.4105 9.03982ZM44.5895 50.9601C44.5895 48.0939 46.9214 45.7619 49.7877 45.7619C50.2221 45.7619 50.6439 45.8163 51.0475 45.9171C51.9756 44.6939 52.7954 43.3923 53.4978 42.0269H41.5656C41.0067 45.0706 40.2329 47.8793 39.2623 50.3308C38.4285 52.4366 37.4737 54.2031 36.426 55.6075C39.4107 54.8582 42.1954 53.6002 44.6817 51.9302C44.6206 51.6105 44.5898 51.2857 44.5895 50.9601ZM38.4199 42.0269H24.641C24.2468 43.2892 23.3825 44.345 22.2549 44.9917C24.1157 52.0837 27.1599 56.4 30 56.4C33.2168 56.4 36.6956 50.8633 38.4199 42.0269ZM54.8429 38.9332C55.8498 36.1418 56.4 33.134 56.4 30C56.4 27.0143 55.901 24.1432 54.9834 21.4645H45.2853C44.8364 22.9019 43.7783 24.072 42.4152 24.6743C42.5465 26.4465 42.6121 28.2229 42.6117 30C42.6117 33.0768 42.4191 36.0831 42.049 38.9332H54.8429ZM40.3221 22.0221C41.4826 22.0221 42.4266 21.0781 42.4266 19.9177C42.4266 18.7572 41.4826 17.8132 40.3221 17.8132C39.1617 17.8132 38.2177 18.7572 38.2177 19.9177C38.2177 21.0781 39.1617 22.0221 40.3221 22.0221Z" fill="#0070E0"/>
<path d="M19.6779 42.5845C20.8402 42.5845 21.7824 41.6423 21.7824 40.48C21.7824 39.3178 20.8402 38.3755 19.6779 38.3755C18.5157 38.3755 17.5735 39.3178 17.5735 40.48C17.5735 41.6423 18.5157 42.5845 19.6779 42.5845Z" fill="#0070E0"/>
<path d="M10.2124 11.1442C11.3746 11.1442 12.3169 10.202 12.3169 9.03977C12.3169 7.87751 11.3746 6.9353 10.2124 6.9353C9.05011 6.9353 8.10791 7.87751 8.10791 9.03977C8.10791 10.202 9.05011 11.1442 10.2124 11.1442Z" fill="#0070E0"/>
<path d="M49.7878 48.8556C48.6273 48.8556 47.6833 49.7996 47.6833 50.9601C47.6833 52.1205 48.6273 53.0645 49.7878 53.0645C50.9481 53.0645 51.8921 52.1205 51.8921 50.9601C51.8921 49.7996 50.9481 48.8556 49.7878 48.8556Z" fill="#0070E0"/>
</svg>
