<svg width="190" height="31" viewBox="0 0 190 31" fill="none" xmlns="http://www.w3.org/2000/svg">
<g id="Group 14046">
<g id="UquidSVG">
<path id="Path 65" d="M11.4108 0.538395C11.4108 0.538395 11.4621 0.572576 11.445 0.589668V19.6297C11.445 19.6297 11.445 19.7493 11.445 19.8177C11.4793 19.869 11.5306 19.8519 11.5648 19.8519C15.3137 19.8519 19.0454 19.8519 22.7942 19.8519C22.9141 19.8519 22.9654 19.8348 22.9483 19.7152C22.9483 19.681 22.9483 19.6468 22.9483 19.6126V0.760585C22.9483 0.760585 22.9141 0.606759 22.9997 0.555484C23.0339 0.538393 23.0681 0.555484 23.1024 0.555484C23.1366 0.589667 23.1537 0.623853 23.188 0.675128C23.6159 1.44425 24.0438 2.21337 24.4718 2.9654C24.8142 3.61488 25.1736 4.24727 25.5331 4.87966C25.9268 5.58041 26.3205 6.29826 26.7143 6.99901C27.0737 7.6314 27.4161 8.28088 27.7756 8.91327C28.0837 9.49438 28.4089 10.0584 28.7171 10.6395C28.7684 10.725 28.8198 10.7933 28.8711 10.8788C28.8711 10.9814 28.8882 11.101 28.8711 11.2035V29.7479C28.8711 29.8846 28.9453 29.9644 29.0937 29.9872C29.0937 29.9872 29.145 29.9872 29.1621 30.0214C29.0081 30.0727 28.854 30.1239 28.6999 30.141C27.9981 30.2948 27.2963 30.3803 26.5944 30.4316C26.2692 30.4487 25.9268 30.4658 25.6016 30.4658C23.8898 30.4828 22.178 30.4828 20.4833 30.4658C17.5219 30.4658 14.5605 30.4658 11.582 30.4658C11.5135 30.4658 11.4621 30.4658 11.3937 30.4487C11.4108 30.4487 11.4279 30.4316 11.445 30.4145C11.5477 30.3974 11.6675 30.3803 11.7703 30.3974H22.6231C22.7258 30.3974 22.8114 30.3974 22.9141 30.3974C22.9997 30.3632 22.9654 30.2948 22.9654 30.2265V20.2621C22.9654 20.2621 22.9654 20.1253 22.9654 20.057C22.8627 20.3134 22.7429 20.5526 22.6059 20.7919C22.1266 21.6978 21.6644 22.6036 21.1851 23.5095C20.9284 24.0051 20.6545 24.5008 20.4148 24.9964C20.3977 25.0648 20.3292 25.1332 20.2608 25.1674C20.1752 25.1845 20.0896 25.2015 20.004 25.1845H14.4235C14.4235 25.1845 14.2695 25.1845 14.201 25.1845C14.0812 25.1503 14.047 25.0648 14.0127 24.9794C13.6875 24.347 13.3622 23.7317 13.037 23.0993L11.9757 21.0654C11.8045 20.7406 11.6504 20.4159 11.4621 20.0741V30.1581C11.4793 30.2607 11.4621 30.3632 11.4108 30.4487C11.3594 30.4487 11.291 30.4487 11.2396 30.4487H8.70614C8.48361 30.4487 8.27819 30.4487 8.05565 30.4487C8.02142 30.4487 7.97007 30.4487 7.93583 30.4316C7.97007 30.3974 8.02142 30.4145 8.07277 30.4145H11.1711C11.1711 30.4145 11.2225 30.4145 11.2567 30.4145H8.12413C8.12413 30.4145 8.0043 30.3974 7.93583 30.4316C7.67906 30.4316 7.40517 30.4316 7.1484 30.3803C6.63486 30.329 6.13844 30.2436 5.64202 30.1752C5.64202 30.1752 5.60779 30.1752 5.59067 30.1581C5.64202 30.0385 5.65914 29.9188 5.64202 29.7992V11.289C5.64202 11.1865 5.64202 11.0668 5.64202 10.9643C5.67626 10.8617 5.72761 10.7421 5.77896 10.6395C6.13844 10.0071 6.4808 9.35765 6.84028 8.72526C8.12413 6.33244 9.45933 3.9738 10.7603 1.58098C10.9315 1.29042 11.0855 0.999868 11.2567 0.69222C11.2738 0.640945 11.291 0.538394 11.4108 0.623852V0.777676C11.4108 0.777676 11.3594 0.606761 11.4108 0.504211V0.538395Z" fill="#F94F47"/>
<path id="Path 66" d="M5.69344 10.9128V30.0896C5.69344 30.0896 5.64209 30.1751 5.59074 30.1751C4.75196 30.0041 3.93029 29.7478 3.15998 29.4059C2.73203 29.2179 2.3212 28.9957 1.96172 28.7223C0.934644 28.0215 0.249924 26.9789 0.0787445 25.8338C0.0787445 25.7996 0.0787445 25.7483 0.0787445 25.7142C0.0787445 25.6629 0.0616265 25.5945 0.0787445 25.5432V0.862991C0.0787445 0.862991 0.0787445 0.743352 0.0787445 0.692078C0.164334 0.692078 0.181453 0.760443 0.198571 0.811718C0.523813 1.37574 0.831937 1.95685 1.15718 2.53797C1.53377 3.22163 1.92749 3.92239 2.30408 4.60605C2.66356 5.23844 3.02304 5.88792 3.3654 6.5374C3.58793 6.94759 3.81046 7.3407 4.033 7.7509C4.23841 8.12692 4.44383 8.48584 4.64925 8.86185C4.8889 9.30623 5.12855 9.75062 5.38532 10.195C5.48803 10.383 5.57362 10.5881 5.69344 10.7761C5.72768 10.8274 5.72768 10.8787 5.71056 10.947L5.69344 10.9128Z" fill="#E01731"/>
<path id="Path 67" d="M29.1451 30.0385C29.1451 30.0385 28.991 30.0385 28.9055 30.0556C28.837 30.0556 28.7856 30.0556 28.8027 29.9701V10.8276C28.8027 10.8276 28.8199 10.6737 28.8541 10.6225C29.419 9.61407 29.9839 8.62275 30.5317 7.59726C30.5317 7.58017 30.5659 7.54598 30.583 7.52889C30.583 7.52889 30.583 7.5118 30.6001 7.49471C30.6001 7.49471 30.6172 7.46052 30.6344 7.44343C30.6515 7.42634 30.6344 7.42634 30.6515 7.40925C30.6686 7.37507 30.6857 7.34088 30.7028 7.3067C30.7028 7.3067 30.7028 7.27252 30.72 7.27252C31.011 6.77686 31.2848 6.26411 31.5759 5.75137C31.7299 5.4779 31.8669 5.22153 32.0209 4.94806C32.1579 4.70878 32.2948 4.4695 32.4146 4.23022L32.4489 4.17894C32.8768 3.40982 33.3048 2.6236 33.7327 1.85448L34.2805 0.897355C34.2805 0.897355 34.3319 0.760622 34.4346 0.74353C34.4517 0.811897 34.4688 0.863172 34.4517 0.931539V25.3212C34.4517 25.3212 34.4517 25.4409 34.4517 25.5092C34.4517 25.7314 34.4174 25.9365 34.3318 26.1416C34.1264 26.7911 33.7498 27.3722 33.2534 27.8508C32.8768 28.2439 32.4489 28.5857 31.9696 28.8763C31.3704 29.2352 30.72 29.5258 30.0352 29.748C29.7442 29.8334 29.4703 29.9189 29.1622 29.9872L29.1451 30.0385Z" fill="#E01731"/>
<path id="Path 68" d="M5.69341 10.913C5.69341 10.913 5.65917 10.8104 5.62494 10.7763C5.47087 10.4686 5.28258 10.178 5.12852 9.8704C4.97445 9.57984 4.78616 9.28928 4.64921 8.99872C4.51227 8.72526 4.34109 8.46889 4.20414 8.19542C4.03296 7.85359 3.81043 7.52885 3.65637 7.18702C3.60501 7.05028 3.50231 6.93064 3.41672 6.79391C3.31401 6.58881 3.2113 6.38371 3.09148 6.17861C2.85182 5.78551 2.66353 5.3924 2.42387 4.9822C2.28693 4.72583 2.11575 4.46946 1.99593 4.21308C1.85898 3.92253 1.67068 3.64906 1.53374 3.3756C1.36256 3.01667 1.14003 2.70902 0.968845 2.3501C0.900374 2.17918 0.76343 2.02536 0.67784 1.85444C0.489542 1.47843 0.267008 1.11951 0.0444744 0.743491V25.7314C-0.00687958 25.5605 -0.00688036 25.3896 0.0102376 25.2015C0.0102376 23.0138 0.0102376 20.809 0.0102376 18.6213V1.01696C0.0102376 0.863131 0.0102376 0.709307 0.0102376 0.555482C0.0615916 0.538391 0.130064 0.538391 0.181418 0.555482H11.3081C11.4279 0.555482 11.3766 0.606759 11.3423 0.658034L9.09989 4.69165C8.6377 5.52913 8.17552 6.38371 7.71333 7.2212C7.54215 7.52885 7.38809 7.85359 7.21691 8.16124L5.79612 10.725L5.67629 10.9472L5.69341 10.913Z" fill="#F51B29"/>
<path id="Path 69" d="M30.583 7.58C30.583 7.58 30.5658 7.66546 30.5316 7.69964C30.155 8.3833 29.7955 9.06697 29.4018 9.73354C29.2135 10.0583 29.0424 10.3659 28.8541 10.7078C28.8198 10.759 28.8027 10.7932 28.7856 10.8445C28.7171 10.8445 28.7 10.7932 28.6829 10.759C28.6144 10.6223 28.5459 10.4856 28.4775 10.3488C28.3919 10.195 28.2892 10.0241 28.2036 9.87027C28.0324 9.57971 27.8612 9.28916 27.7072 8.98151C27.5531 8.67386 27.3477 8.36621 27.1936 8.05856C27.0224 7.71673 26.817 7.39199 26.6458 7.05016C26.5602 6.86215 26.4404 6.69124 26.3377 6.50323C26.1836 6.21267 26.0125 5.92212 25.8584 5.63156C25.6872 5.28973 25.4818 4.96499 25.3106 4.62316C25.225 4.43515 25.0881 4.26423 25.0025 4.07623C24.8313 3.7173 24.6088 3.37547 24.4205 3.01655C24.3349 2.82854 24.2151 2.65762 24.1124 2.46962C23.7871 1.87141 23.4619 1.2903 23.1366 0.692094C23.1024 0.640819 23.0853 0.589544 23.0682 0.538269H23.1024C25.3449 0.538269 27.5702 0.538269 29.8127 0.538269H34.2633C34.2633 0.538269 34.3832 0.538269 34.4516 0.538269C34.4516 0.572452 34.503 0.623726 34.4516 0.65791C34.2976 0.845917 34.1777 1.05102 34.0922 1.25612C33.5273 2.24743 32.9795 3.25583 32.4146 4.26423C32.2777 4.50351 32.1407 4.7428 32.0209 4.98208C31.8668 5.25554 31.7128 5.51192 31.5758 5.78538C31.2848 6.29813 31.0109 6.82797 30.7028 7.34072C30.7028 7.34072 30.6514 7.42618 30.6343 7.46036C30.6343 7.46036 30.6343 7.51163 30.6001 7.52873C30.6001 7.52873 30.6001 7.56291 30.5659 7.58H30.583Z" fill="#F51B29"/>
<path id="Path 70" d="M32.4317 4.26433C32.5344 3.99086 32.6714 3.73449 32.8426 3.47811C32.8939 3.39266 32.9282 3.3072 32.9795 3.20465C33.1849 2.84573 33.3732 2.46971 33.5786 2.11079C33.7327 1.82023 33.8868 1.52967 34.0579 1.25621C34.1606 1.0682 34.2634 0.880195 34.3661 0.692187C34.3832 0.658004 34.4003 0.606728 34.4688 0.640912C34.4688 1.64931 34.4688 2.65772 34.4688 3.64903V25.1161C34.4688 25.2528 34.4688 25.3895 34.4345 25.5263C34.4345 25.475 34.4345 25.4237 34.4345 25.3724V0.794736C34.4345 0.794736 34.3832 0.846009 34.3661 0.863101C34.3147 0.96565 34.2634 1.0682 34.1949 1.17075C33.63 2.14497 33.0993 3.13628 32.5516 4.1105C32.5344 4.16178 32.5173 4.21305 32.466 4.23014L32.4317 4.26433Z" fill="#F53B28"/>
<path id="Path 71" d="M23.0682 0.538332C23.0682 0.538332 22.9484 0.606698 22.9655 0.675065C22.9655 0.675065 22.9655 0.760523 22.9655 0.811797V19.6467C22.9655 19.9031 22.9997 19.8689 22.7258 19.8689H11.6676C11.6676 19.8689 11.4965 19.9031 11.4451 19.8176C11.4965 19.8347 11.5649 19.8518 11.6334 19.8347H22.8286C22.8286 19.8347 22.9484 19.8176 22.9313 19.7322C22.9313 19.6809 22.9313 19.6296 22.9313 19.5954V0.743429C22.9313 0.743429 22.9313 0.675064 22.9313 0.640881C22.9313 0.555423 22.9655 0.52124 23.0682 0.52124V0.538332Z" fill="#FA5A41"/>
<path id="Path 72" d="M11.3425 0.623913C11.3425 0.623913 11.3768 0.521365 11.2912 0.521365C11.2398 0.521365 11.2056 0.521365 11.1542 0.521365H0.010437C0.010437 0.521365 0.130264 0.504273 0.181617 0.504273C0.969045 0.504273 1.73935 0.504273 2.52678 0.504273H11.2056C11.2056 0.504273 11.3597 0.487182 11.4281 0.521365V19.7836C11.4281 19.7836 11.3939 19.7323 11.3939 19.6981C11.3939 19.6639 11.3939 19.6298 11.3939 19.5956V0.829014C11.3939 0.829014 11.4281 0.675188 11.3597 0.623913H11.3425Z" fill="#F8482F"/>
<path id="Path 73" d="M23.0682 0.538456C23.0682 0.538456 23.0682 0.538456 23.0682 0.521364C23.1366 0.521364 23.188 0.521364 23.2565 0.521364H34.2633C34.2633 0.521364 34.4003 0.487179 34.4516 0.555545H23.0853L23.0682 0.538456Z" fill="#F94F47"/>
<path id="Path 74" d="M22.9655 30.4828H11.6163C11.6163 30.4828 11.4793 30.4828 11.4109 30.4828C11.4109 30.4144 11.4109 30.3631 11.4451 30.3119C11.7361 29.7478 12.0271 29.1838 12.3181 28.6369C12.9001 27.5259 13.465 26.415 14.0641 25.3211C14.0641 25.2698 14.1155 25.2357 14.1497 25.2015H20.2437C20.3807 25.4408 20.5176 25.68 20.6375 25.9193C20.8771 26.3808 21.1168 26.8423 21.3564 27.3037C21.8699 28.2951 22.4006 29.2864 22.9141 30.2777C22.9655 30.346 22.9655 30.4144 22.9484 30.4999L22.9655 30.4828Z" fill="#E01731"/>
<path id="Path 75" d="M14.1497 25.1673C14.1326 25.2528 14.0813 25.3383 14.047 25.4237C13.756 25.9535 13.4821 26.5005 13.1911 27.0303C13.0028 27.3892 12.8145 27.7653 12.6262 28.1242C12.4037 28.5515 12.1983 28.9617 11.9586 29.389C11.7874 29.6966 11.6334 30.0213 11.4793 30.329C11.4622 30.3803 11.4451 30.4315 11.4109 30.4657H11.3766V19.9544C11.428 19.9886 11.4622 20.0399 11.4793 20.0911C11.5992 20.3133 11.7019 20.5355 11.8217 20.7577C12.01 21.0995 12.1983 21.4414 12.3695 21.7832C12.6776 22.3985 13.0028 22.9967 13.3281 23.612C13.5164 23.9709 13.6875 24.3299 13.893 24.6888C13.9614 24.8597 14.047 25.0135 14.1497 25.1502V25.1673Z" fill="#F51B2B"/>
<path id="Path 76" d="M22.9655 30.4829C22.897 30.312 22.8285 30.141 22.7258 29.9701C22.6231 29.7479 22.5033 29.5428 22.4006 29.3207C22.1267 28.825 21.8699 28.3122 21.596 27.8166C21.3906 27.4064 21.1681 26.9962 20.9627 26.6031C20.7402 26.1758 20.5176 25.7485 20.2951 25.3212C20.2608 25.287 20.2608 25.2358 20.2608 25.1845C20.6032 24.535 20.9456 23.8855 21.2879 23.219C21.4933 22.8429 21.6816 22.4498 21.8871 22.0738C22.1096 21.6465 22.3321 21.2192 22.5547 20.7919C22.6745 20.5698 22.7772 20.3476 22.897 20.1254C22.9141 20.0741 22.9484 20.0228 22.9997 19.9886V30.3291C22.9997 30.3291 23.0168 30.4658 22.9655 30.5V30.4829Z" fill="#F51B2B"/>
<path id="Path 77" d="M7.90164 30.4485C7.90164 30.4485 7.98723 30.4143 8.03859 30.4143H11.2396C11.2396 30.4143 11.291 30.4143 11.3081 30.4143C11.2396 30.4314 11.1712 30.4314 11.1198 30.4314H8.0557C8.0557 30.4314 7.953 30.4314 7.90164 30.4314V30.4485Z" fill="#F84B33"/>
<path id="Path 78" d="M30.7199 7.34086C30.7199 7.34086 30.7199 7.27249 30.7542 7.23831C31.0109 6.77684 31.2677 6.31536 31.5245 5.85389C31.5245 5.8197 31.5587 5.80261 31.5758 5.78552C31.5758 5.78552 31.5929 5.78552 31.6101 5.78552C31.3533 6.26409 31.0794 6.72556 30.8226 7.20412C30.7884 7.2554 30.7713 7.30667 30.7199 7.34086Z" fill="#F2302A"/>
<path id="Path 79" d="M31.61 5.78561H31.5758C31.6614 5.5976 31.7641 5.40959 31.8668 5.22158C31.9011 5.13613 31.9524 5.05067 32.0209 4.96521C32.0209 4.96521 32.038 4.96521 32.0551 4.96521L31.61 5.76851V5.78561Z" fill="#F43629"/>
<path id="Path 80" d="M32.0551 4.9651H32.0209C32.1236 4.70873 32.2605 4.46944 32.4317 4.24725C32.4317 4.28144 32.4317 4.31562 32.4146 4.33271C32.2777 4.53781 32.175 4.76 32.0551 4.9651Z" fill="#F53B28"/>
<path id="Path 81" d="M30.6514 7.46046C30.6514 7.46046 30.6514 7.35791 30.7195 7.34082C30.7195 7.3921 30.6855 7.44337 30.6514 7.46046Z" fill="#F2302A"/>
<path id="Path 82" d="M30.6172 7.52876C30.6172 7.52876 30.6172 7.47748 30.6512 7.46039C30.6512 7.47748 30.6512 7.51166 30.6172 7.52876Z" fill="#F2302A"/>
<path id="Path 83" d="M30.583 7.58021C30.583 7.58021 30.583 7.52893 30.617 7.51184C30.617 7.52893 30.617 7.56311 30.583 7.58021Z" fill="#F2302A"/>
</g>
<g id="Group 14035">
<g id="Group 12909">
<path id="Path 4258" d="M51.8435 4.02081V20.9415H66.428V4.02081H73.3094V22.0695C73.3094 22.7019 73.1554 23.2659 72.8301 23.7616C72.5049 24.2572 72.0941 24.6674 71.5805 25.0093C71.067 25.3511 70.5021 25.6075 69.8858 25.7613C69.2867 25.9322 68.6533 26.0006 68.02 26.0177H50.2857C49.6353 26.0177 48.9677 25.9493 48.3343 25.7784C47.7352 25.6417 47.1532 25.4024 46.6396 25.0776C46.1432 24.77 45.7324 24.3427 45.4414 23.8641C45.1504 23.3685 44.9963 22.7703 44.9963 22.0695V4.02081H51.8435Z" fill="#F2302A"/>
<path id="Path 4259" d="M76.6475 7.96903C76.6475 7.26827 76.8015 6.67007 77.0925 6.17441C77.3835 5.69585 77.7944 5.26856 78.2908 4.96091C78.8043 4.63617 79.3863 4.39689 79.9855 4.26016C80.6188 4.10633 81.2693 4.02087 81.9369 4.02087H99.6711C100.305 4.02087 100.938 4.10633 101.537 4.27725C102.153 4.43107 102.718 4.68745 103.232 5.02928C103.728 5.37111 104.156 5.7984 104.481 6.27696C104.807 6.77262 104.961 7.33664 104.961 7.96903V22.0696C104.961 22.6849 104.841 23.1805 104.567 23.5566L107.528 26.0177H81.9369C81.2864 26.0177 80.6188 25.9494 79.9855 25.7785C79.3863 25.6417 78.8043 25.4024 78.2908 25.0777C77.7944 24.7701 77.3835 24.3428 77.0925 23.8642C76.8015 23.3685 76.6475 22.7703 76.6475 22.0696V7.98612V7.96903ZM95.2034 15.7115L98.0792 18.1385V9.07998H83.4946V20.9244H91.0437L84.6758 15.7115H95.2034Z" fill="#F2302A"/>
<path id="Path 4260" d="M115.385 4.02087V20.9415H129.97V4.02087H136.851V22.0696C136.851 22.702 136.697 23.266 136.372 23.7617C136.047 24.2573 135.636 24.6846 135.122 25.0093C134.609 25.3512 134.044 25.6075 133.428 25.7614C132.829 25.9323 132.195 26.0007 131.562 26.0177H113.828C113.177 26.0177 112.51 25.9494 111.876 25.7785C111.277 25.6417 110.695 25.4024 110.182 25.0777C109.685 24.7701 109.274 24.3428 108.983 23.8642C108.692 23.3685 108.538 22.7703 108.538 22.0696V4.02087H115.368H115.385Z" fill="#F2302A"/>
<path id="Path 4261" d="M140.189 21.0783H145.479V8.96034H140.189V4.02087H157.616V8.96034H152.326V21.0783H157.616V26.0177H140.189V21.0783Z" fill="#F2302A"/>
<path id="Path 4262" d="M160.954 13.182H167.903V20.8732H181.427L182.043 20.4459V9.38763L181.427 8.96034H160.936V4.02087H185.775C186.185 4.02087 186.596 4.12342 186.956 4.31143C187.349 4.51653 187.726 4.7729 188.051 5.06346C188.377 5.37111 188.65 5.69585 188.873 6.07186C189.096 6.43079 189.198 6.78971 189.198 7.11445V21.8132C189.198 22.5652 189.078 23.2147 188.839 23.7446C188.599 24.2744 188.257 24.7188 187.846 25.0435C187.435 25.3683 186.956 25.6075 186.442 25.7614C185.912 25.9152 185.364 26.0007 184.816 26.0007H160.936V13.182H160.954Z" fill="#F2302A"/>
</g>
</g>
</g>
</svg>
