<svg width="22" height="17" viewBox="0 0 22 17" fill="none" xmlns="http://www.w3.org/2000/svg">
<path d="M0 15.3791V10.5163C0 9.56744 0.278481 8.63178 0.835443 7.7093L5.29114 0H8.55335L4.81374 8.5H6.92224C7.53225 8.5 7.9566 8.63178 8.1953 8.89535C8.434 9.13256 8.55335 9.54109 8.55335 10.1209V15.3791C8.55335 15.9853 8.434 16.407 8.1953 16.6442C7.9566 16.8814 7.53225 17 6.92224 17H1.6311C1.04762 17 0.623267 16.8814 0.358047 16.6442C0.119349 16.407 0 15.9853 0 15.3791ZM13.4467 15.3791V10.5163C13.4467 9.56744 13.7251 8.63178 14.2821 7.7093L18.7378 0H22L18.2604 8.5H20.3689C20.9789 8.5 21.4033 8.63178 21.642 8.89535C21.8807 9.13256 22 9.54109 22 10.1209V15.3791C22 15.9853 21.8807 16.407 21.642 16.6442C21.4033 16.8814 20.9789 17 20.3689 17H15.0778C14.4943 17 14.0699 16.8814 13.8047 16.6442C13.566 16.407 13.4467 15.9853 13.4467 15.3791Z" fill="#313131"/>
</svg>
