<svg width="46" height="54" viewBox="0 0 46 54" fill="none" xmlns="http://www.w3.org/2000/svg">
<path fill-rule="evenodd" clip-rule="evenodd" d="M38.65 7.18331C35.8909 7.18383 33.1834 6.43495 30.8167 5.01665L23 0.333313L15.1833 5.01665C12.8166 6.43495 10.1091 7.18383 7.35 7.18331H0.150002V28.45C0.148846 32.7974 1.38884 37.0548 3.7242 40.7217C6.05957 44.3886 9.39324 47.3126 13.3333 49.15L23 53.6667L32.6667 49.15C36.6068 47.3126 39.9404 44.3886 42.2758 40.7217C44.6112 37.0548 45.8512 32.7974 45.85 28.45V7.18331H38.65ZM23 42.2333C19.9871 42.2333 17.0419 41.3399 14.5368 39.666C12.0317 37.9922 10.0792 35.6131 8.92624 32.8295C7.77326 30.046 7.47159 26.9831 8.05937 24.0281C8.64715 21.0731 10.098 18.3588 12.2284 16.2284C14.3588 14.098 17.0732 12.6471 20.0281 12.0594C22.9831 11.4716 26.046 11.7732 28.8295 12.9262C31.6131 14.0792 33.9922 16.0317 35.6661 18.5368C37.3399 21.0419 38.2333 23.9871 38.2333 27C38.2289 31.0388 36.6226 34.9109 33.7667 37.7667C30.9109 40.6226 27.0388 42.2289 23 42.2333Z" fill="#0070E0"/>
<path fill-rule="evenodd" clip-rule="evenodd" d="M23 15.5667C20.7387 15.5667 18.5282 16.2372 16.648 17.4935C14.7678 18.7498 13.3023 20.5355 12.437 22.6246C11.5716 24.7138 11.3452 27.0127 11.7864 29.2305C12.2275 31.4484 13.3164 33.4856 14.9154 35.0846C16.5144 36.6836 18.5516 37.7725 20.7695 38.2136C22.9873 38.6548 25.2862 38.4284 27.3754 37.563C29.4645 36.6976 31.2502 35.2322 32.5065 33.352C33.7628 31.4718 34.4333 29.2613 34.4333 27C34.4289 23.969 33.2229 21.0635 31.0797 18.9203C28.9365 16.7771 26.031 15.5711 23 15.5667ZM24.9 28.0167V30.1333C24.9 30.6372 24.6998 31.1205 24.3435 31.4768C23.9872 31.8331 23.5039 32.0333 23 32.0333C22.4961 32.0333 22.0128 31.8331 21.6565 31.4768C21.3002 31.1205 21.1 30.6372 21.1 30.1333V28.0167C20.5165 27.6119 20.0776 27.0313 19.8471 26.3596C19.6166 25.6879 19.6067 24.9602 19.8188 24.2824C20.0308 23.6047 20.4538 23.0124 21.026 22.5918C21.5983 22.1713 22.2899 21.9445 23 21.9445C23.7101 21.9445 24.4017 22.1713 24.974 22.5918C25.5462 23.0124 25.9692 23.6047 26.1812 24.2824C26.3933 24.9602 26.3834 25.6879 26.1529 26.3596C25.9225 27.0313 25.4835 27.6119 24.9 28.0167Z" fill="#0070E0"/>
</svg>
