<svg width="25" height="24" viewBox="0 0 25 24" fill="none" xmlns="http://www.w3.org/2000/svg">
<path d="M12.7097 2C7.19972 2 2.70972 6.49 2.70972 12C2.70972 17.51 7.19972 22 12.7097 22C18.2197 22 22.7097 17.51 22.7097 12C22.7097 6.49 18.2197 2 12.7097 2ZM17.4897 9.7L11.8197 15.37C11.6797 15.51 11.4897 15.59 11.2897 15.59C11.0897 15.59 10.8997 15.51 10.7597 15.37L7.92972 12.54C7.63972 12.25 7.63972 11.77 7.92972 11.48C8.21972 11.19 8.69972 11.19 8.98972 11.48L11.2897 13.78L16.4297 8.64C16.7197 8.35 17.1997 8.35 17.4897 8.64C17.7797 8.93 17.7797 9.4 17.4897 9.7Z" fill="#10B502"/>
</svg>
