<svg width="20" height="20" viewBox="0 0 20 20" fill="none" xmlns="http://www.w3.org/2000/svg">
<path d="M10.0078 1.80113C12.6818 1.80113 12.9984 1.81285 14.05 1.85974C15.0274 1.90272 15.5551 2.06681 15.907 2.20356C16.3722 2.38328 16.7084 2.60207 17.0563 2.9498C17.4081 3.30143 17.6231 3.63352 17.803 4.09846C17.9398 4.45009 18.104 4.98144 18.147 5.95429C18.1939 7.00918 18.2056 7.32565 18.2056 9.99414C18.2056 12.6665 18.1939 12.983 18.147 14.034C18.104 15.0107 17.9398 15.5382 17.803 15.8898C17.6231 16.3548 17.4042 16.6908 17.0563 17.0385C16.7045 17.3901 16.3722 17.605 15.907 17.7847C15.5551 17.9215 15.0235 18.0856 14.05 18.1285C12.9945 18.1754 12.6779 18.1871 10.0078 18.1871C7.33385 18.1871 7.0172 18.1754 5.9656 18.1285C4.98827 18.0856 4.46052 17.9215 4.10868 17.7847C3.64347 17.605 3.30727 17.3862 2.95934 17.0385C2.60751 16.6869 2.39249 16.3548 2.21267 15.8898C2.07584 15.5382 1.91165 15.0068 1.86865 14.034C1.82174 12.9791 1.81001 12.6626 1.81001 9.99414C1.81001 7.32174 1.82174 7.00527 1.86865 5.95429C1.91165 4.97753 2.07584 4.45009 2.21267 4.09846C2.39249 3.63352 2.61141 3.29752 2.95934 2.9498C3.31118 2.59816 3.64347 2.38328 4.10868 2.20356C4.46052 2.06681 4.99218 1.90272 5.9656 1.85974C7.0172 1.81285 7.33385 1.80113 10.0078 1.80113ZM10.0078 0C7.29085 0 6.95074 0.011721 5.8835 0.0586052C4.82017 0.105489 4.08913 0.277398 3.45582 0.52354C2.79515 0.781403 2.23612 1.12131 1.681 1.68002C1.12197 2.23481 0.781861 2.79351 0.523847 3.44989C0.277561 4.08674 0.105551 4.81344 0.0586396 5.87615C0.0117279 6.94667 0 7.28658 0 10.002C0 12.7173 0.0117279 13.0572 0.0586396 14.1239C0.105551 15.1866 0.277561 15.9172 0.523847 16.5501C0.781861 17.2104 1.12197 17.7691 1.681 18.3239C2.23612 18.8787 2.79515 19.2225 3.45192 19.4765C4.08913 19.7226 4.81626 19.8945 5.87959 19.9414C6.94683 19.9883 7.28694 20 10.0039 20C12.7209 20 13.061 19.9883 14.1282 19.9414C15.1916 19.8945 15.9226 19.7226 16.5559 19.4765C17.2127 19.2225 17.7717 18.8787 18.3268 18.3239C18.8819 17.7691 19.226 17.2104 19.4801 16.554C19.7263 15.9172 19.8984 15.1905 19.9453 14.1278C19.9922 13.0611 20.0039 12.7212 20.0039 10.0059C20.0039 7.29049 19.9922 6.95058 19.9453 5.88396C19.8984 4.82125 19.7263 4.09064 19.4801 3.45771C19.2338 2.79351 18.8937 2.23481 18.3346 1.68002C17.7795 1.12522 17.2205 0.781403 16.5637 0.527447C15.9265 0.281305 15.1994 0.109396 14.136 0.0625122C13.0649 0.011721 12.7248 0 10.0078 0Z" fill="#ffffff"/>
<path d="M10.0078 4.86426C7.16965 4.86426 4.86707 7.16549 4.86707 10.002C4.86707 12.8385 7.16965 15.1397 10.0078 15.1397C12.846 15.1397 15.1485 12.8385 15.1485 10.002C15.1485 7.16549 12.846 4.86426 10.0078 4.86426ZM10.0078 13.3347C8.16652 13.3347 6.67316 11.8422 6.67316 10.002C6.67316 8.16178 8.16652 6.6693 10.0078 6.6693C11.8491 6.6693 13.3424 8.16178 13.3424 10.002C13.3424 11.8422 11.8491 13.3347 10.0078 13.3347Z" fill="#ffffff"/>
<path d="M16.552 4.66137C16.552 5.32556 16.0125 5.86082 15.3518 5.86082C14.6872 5.86082 14.1517 5.32165 14.1517 4.66137C14.1517 3.99718 14.6912 3.46191 15.3518 3.46191C16.0125 3.46191 16.552 4.00108 16.552 4.66137Z" fill="#ffffff"/>
</svg>
