<svg xmlns="http://www.w3.org/2000/svg" width="220.157" height="37.047" viewBox="0 0 220.157 37.047">
  <g id="logo" transform="translate(-30.103 -3.389)">
    <path id="Path_20" data-name="Path 20" d="M763.8,99.15v28.493h22.256V99.15H796.56v30.392a5.456,5.456,0,0,1-.742,2.849,7.164,7.164,0,0,1-1.9,2.107,8.07,8.07,0,0,1-2.582,1.276,10.107,10.107,0,0,1-2.849.416H761.422a11.3,11.3,0,0,1-2.968-.39,8.324,8.324,0,0,1-2.582-1.188,5.891,5.891,0,0,1-1.84-2.046,6.226,6.226,0,0,1-.682-3.027V99.15Z" transform="translate(-723.247 -95.759)" fill="#f74d49"/>
    <path id="Path_21" data-name="Path 21" d="M1249.26,105.78a6.224,6.224,0,0,1,.682-3.027,5.9,5.9,0,0,1,1.84-2.046,8.323,8.323,0,0,1,2.582-1.188,11.347,11.347,0,0,1,2.968-.39H1284.4a10.147,10.147,0,0,1,2.85.416,8.081,8.081,0,0,1,2.582,1.276,7.177,7.177,0,0,1,1.9,2.106,5.462,5.462,0,0,1,.743,2.85v23.745a4.648,4.648,0,0,1-.594,2.493l4.511,4.155h-39.058a11.306,11.306,0,0,1-2.968-.39,8.324,8.324,0,0,1-2.582-1.188,5.9,5.9,0,0,1-1.84-2.046,6.224,6.224,0,0,1-.682-3.027Zm28.314,13.056,4.393,4.092V107.679h-22.26v19.945h11.515l-9.734-8.785Z" transform="translate(-1170.84 -95.741)" fill="#f74d49"/>
    <path id="Path_22" data-name="Path 22" d="M1759.276,99.15v28.493h22.259V99.15h10.507v30.392a5.453,5.453,0,0,1-.742,2.849,7.166,7.166,0,0,1-1.9,2.112,8.073,8.073,0,0,1-2.583,1.276,10.1,10.1,0,0,1-2.849.416H1756.9a11.3,11.3,0,0,1-2.968-.39,8.322,8.322,0,0,1-2.582-1.188,5.89,5.89,0,0,1-1.84-2.046,6.227,6.227,0,0,1-.682-3.027V99.15Z" transform="translate(-1621.736 -95.759)" fill="#f74d49"/>
    <path id="Path_23" data-name="Path 23" d="M2244.74,127.878h8.072V107.461h-8.072V99.15h26.592v8.311h-8.072v20.417h8.072v8.311H2244.74Z" transform="translate(-2069.329 -95.759)" fill="#f74d49"/>
    <path id="Path_24" data-name="Path 24" d="M2570.07,114.583h10.62v12.941h20.655l.95-.712V108.173l-.95-.712H2570.07V99.15H2608a3.761,3.761,0,0,1,1.81.5,6.97,6.97,0,0,1,1.663,1.276,7.964,7.964,0,0,1,1.246,1.691,3.675,3.675,0,0,1,.5,1.754v24.75a8.525,8.525,0,0,1-.564,3.264,5.827,5.827,0,0,1-1.513,2.2,6.054,6.054,0,0,1-2.138,1.217,8.015,8.015,0,0,1-2.492.39H2570.07Z" transform="translate(-2362.962 -95.759)" fill="#f74d49"/>
  </g>
</svg>
