<svg width="217" height="36" viewBox="0 0 217 36" fill="none" xmlns="http://www.w3.org/2000/svg">
<g clip-path="url(#clip0_3_286)">
<path d="M11.2077 0.00952148V27.6887H33.04V0.00952148H43.3444V29.5346C43.3444 30.5759 43.1054 31.4941 42.6179 32.2988C42.14 33.0939 41.5091 33.7944 40.7539 34.3435C39.9892 34.902 39.1289 35.328 38.2209 35.5835C37.3128 35.8486 36.376 35.9811 35.4297 35.9906H8.88493C7.90038 35.9906 6.92538 35.8675 5.9695 35.6119C5.06142 35.3753 4.21068 34.9872 3.43642 34.4571C2.68128 33.9459 2.06951 33.2643 1.62981 32.4692C1.18055 31.6645 0.960693 30.68 0.960693 29.5252V0.00952148H11.2077Z" fill="white"/>
<path d="M48.3627 6.46542C48.3627 5.31054 48.5826 4.33552 49.0319 3.52143C49.4716 2.72627 50.0833 2.0447 50.8385 1.53353C51.6127 1.00342 52.4635 0.615304 53.3715 0.378648C54.3179 0.123061 55.3024 0 56.287 0H82.8413C83.7876 0 84.7339 0.141993 85.6325 0.407047C86.5406 0.662635 87.4008 1.08861 88.1655 1.64712C88.9207 2.19616 89.5516 2.89666 90.0295 3.69182C90.517 4.49645 90.756 5.42414 90.756 6.45596V29.5251C90.756 30.5285 90.5648 31.3332 90.1729 31.9485L94.5986 35.9811H56.2774C55.2929 35.9811 54.3179 35.858 53.362 35.6024C52.4539 35.3658 51.6032 34.9776 50.8289 34.4475C50.0738 33.9364 49.462 33.2548 49.0223 32.4596C48.573 31.655 48.3532 30.6705 48.3532 29.5156V6.46542H48.3627ZM76.1406 19.1501L80.4516 23.126V8.31133H58.6098V27.6887H69.9083L60.359 19.1501H76.1406Z" fill="white"/>
<path d="M106.365 0.00946621V27.6887H128.207V0.00946621H138.512V29.5346C138.512 30.5759 138.273 31.4941 137.785 32.2987C137.307 33.1033 136.676 33.7944 135.921 34.3529C135.157 34.9114 134.296 35.3374 133.388 35.593C132.48 35.858 131.543 36 130.597 36H104.043C103.058 36 102.083 35.8769 101.127 35.6214C100.219 35.3847 99.3684 34.9966 98.5942 34.4665C97.839 33.9553 97.2273 33.2737 96.7876 32.4786C96.3383 31.6739 96.1185 30.6895 96.1185 29.5346V0H106.365V0.00946621Z" fill="white"/>
<path d="M143.521 27.9159H151.445V8.0842H143.521V0.00952148H169.606V8.0842H161.682V27.9159H169.606V35.9906H143.521V27.9159Z" fill="white"/>
<path d="M174.615 15.004H185.034V27.5751H205.299L206.236 26.8841V8.77523L205.299 8.0842H174.615V0.00952148H211.828C212.449 0.0189877 213.061 0.18938 213.606 0.501765C214.208 0.833082 214.762 1.2496 215.24 1.74184C215.718 2.23408 216.129 2.78312 216.464 3.38896C216.789 3.98533 216.961 4.5533 216.961 5.09288V29.1371C216.961 30.3677 216.779 31.4279 216.406 32.3082C216.033 33.1886 215.546 33.8986 214.925 34.4381C214.313 34.9682 213.606 35.3753 212.831 35.6214C212.038 35.877 211.216 36.0001 210.384 36.0001H174.625V15.004H174.615Z" fill="white"/>
</g>
<defs>
<clipPath id="clip0_3_286">
<rect width="216" height="36" fill="white" transform="translate(0.960693)"/>
</clipPath>
</defs>
</svg>
