<svg width="24" height="24" viewBox="0 0 24 24" fill="none" xmlns="http://www.w3.org/2000/svg">
<path d="M20.2143 2H3.78571C3.31229 2.00057 2.85841 2.18889 2.52365 2.52365C2.18889 2.85841 2.00057 3.31229 2 3.78571V20.2143C2 21.1986 2.80143 22 3.78571 22H20.2143C21.1986 22 22 21.1986 22 20.2143V3.78571C22 2.80143 21.1986 2 20.2143 2ZM21.2857 20.2143C21.2857 20.805 20.805 21.2857 20.2143 21.2857H3.78571C3.195 21.2857 2.71429 20.805 2.71429 20.2143V3.78571C2.71429 3.195 3.195 2.71429 3.78571 2.71429H20.2143C20.805 2.71429 21.2857 3.195 21.2857 3.78571V20.2143Z" fill="#667EEA"/>
<path d="M5.92857 17.7143H3.78572C3.691 17.7143 3.60016 17.7519 3.53318 17.8189C3.4662 17.8859 3.42857 17.9767 3.42857 18.0714V20.2143C3.42857 20.309 3.4662 20.3998 3.53318 20.4668C3.60016 20.5338 3.691 20.5714 3.78572 20.5714H5.92857C6.02329 20.5714 6.11413 20.5338 6.18111 20.4668C6.24809 20.3998 6.28572 20.309 6.28572 20.2143V18.0714C6.28572 17.9767 6.24809 17.8859 6.18111 17.8189C6.11413 17.7519 6.02329 17.7143 5.92857 17.7143ZM5.57143 19.8571H4.14286V18.4286H5.57143V19.8571ZM9.5 17.7143H7.35714C7.26242 17.7143 7.17158 17.7519 7.10461 17.8189C7.03763 17.8859 7 17.9767 7 18.0714V20.2143C7 20.309 7.03763 20.3998 7.10461 20.4668C7.17158 20.5338 7.26242 20.5714 7.35714 20.5714H9.5C9.59472 20.5714 9.68556 20.5338 9.75254 20.4668C9.81952 20.3998 9.85714 20.309 9.85714 20.2143V18.0714C9.85714 17.9767 9.81952 17.8859 9.75254 17.8189C9.68556 17.7519 9.59472 17.7143 9.5 17.7143ZM9.14286 19.8571H7.71429V18.4286H9.14286V19.8571ZM13.0714 17.7143H10.9286C10.8339 17.7143 10.743 17.7519 10.676 17.8189C10.6091 17.8859 10.5714 17.9767 10.5714 18.0714V20.2143C10.5714 20.309 10.6091 20.3998 10.676 20.4668C10.743 20.5338 10.8339 20.5714 10.9286 20.5714H13.0714C13.1662 20.5714 13.257 20.5338 13.324 20.4668C13.3909 20.3998 13.4286 20.309 13.4286 20.2143V18.0714C13.4286 17.9767 13.3909 17.8859 13.324 17.8189C13.257 17.7519 13.1662 17.7143 13.0714 17.7143ZM12.7143 19.8571H11.2857V18.4286H12.7143V19.8571ZM16.6429 17.7143H14.5C14.4053 17.7143 14.3144 17.7519 14.2475 17.8189C14.1805 17.8859 14.1429 17.9767 14.1429 18.0714V20.2143C14.1429 20.309 14.1805 20.3998 14.2475 20.4668C14.3144 20.5338 14.4053 20.5714 14.5 20.5714H16.6429C16.7376 20.5714 16.8284 20.5338 16.8954 20.4668C16.9624 20.3998 17 20.309 17 20.2143V18.0714C17 17.9767 16.9624 17.8859 16.8954 17.8189C16.8284 17.7519 16.7376 17.7143 16.6429 17.7143ZM16.2857 19.8571H14.8571V18.4286H16.2857V19.8571ZM5.92857 14.1429H3.78572C3.691 14.1429 3.60016 14.1805 3.53318 14.2475C3.4662 14.3144 3.42857 14.4053 3.42857 14.5V16.6429C3.42857 16.7376 3.4662 16.8284 3.53318 16.8954C3.60016 16.9624 3.691 17 3.78572 17H5.92857C6.02329 17 6.11413 16.9624 6.18111 16.8954C6.24809 16.8284 6.28572 16.7376 6.28572 16.6429V14.5C6.28572 14.4053 6.24809 14.3144 6.18111 14.2475C6.11413 14.1805 6.02329 14.1429 5.92857 14.1429ZM5.57143 16.2857H4.14286V14.8571H5.57143V16.2857ZM9.5 14.1429H7.35714C7.26242 14.1429 7.17158 14.1805 7.10461 14.2475C7.03763 14.3144 7 14.4053 7 14.5V16.6429C7 16.7376 7.03763 16.8284 7.10461 16.8954C7.17158 16.9624 7.26242 17 7.35714 17H9.5C9.59472 17 9.68556 16.9624 9.75254 16.8954C9.81952 16.8284 9.85714 16.7376 9.85714 16.6429V14.5C9.85714 14.4053 9.81952 14.3144 9.75254 14.2475C9.68556 14.1805 9.59472 14.1429 9.5 14.1429ZM9.14286 16.2857H7.71429V14.8571H9.14286V16.2857ZM13.0714 14.1429H10.9286C10.8339 14.1429 10.743 14.1805 10.676 14.2475C10.6091 14.3144 10.5714 14.4053 10.5714 14.5V16.6429C10.5714 16.7376 10.6091 16.8284 10.676 16.8954C10.743 16.9624 10.8339 17 10.9286 17H13.0714C13.1662 17 13.257 16.9624 13.324 16.8954C13.3909 16.8284 13.4286 16.7376 13.4286 16.6429V14.5C13.4286 14.4053 13.3909 14.3144 13.324 14.2475C13.257 14.1805 13.1662 14.1429 13.0714 14.1429ZM12.7143 16.2857H11.2857V14.8571H12.7143V16.2857ZM16.6429 14.1429H14.5C14.4053 14.1429 14.3144 14.1805 14.2475 14.2475C14.1805 14.3144 14.1429 14.4053 14.1429 14.5V16.6429C14.1429 16.7376 14.1805 16.8284 14.2475 16.8954C14.3144 16.9624 14.4053 17 14.5 17H16.6429C16.7376 17 16.8284 16.9624 16.8954 16.8954C16.9624 16.8284 17 16.7376 17 16.6429V14.5C17 14.4053 16.9624 14.3144 16.8954 14.2475C16.8284 14.1805 16.7376 14.1429 16.6429 14.1429ZM16.2857 16.2857H14.8571V14.8571H16.2857V16.2857ZM5.92857 10.5714H3.78572C3.691 10.5714 3.60016 10.6091 3.53318 10.676C3.4662 10.743 3.42857 10.8339 3.42857 10.9286V13.0714C3.42857 13.1661 3.4662 13.257 3.53318 13.324C3.60016 13.3909 3.691 13.4286 3.78572 13.4286H5.92857C6.02329 13.4286 6.11413 13.3909 6.18111 13.324C6.24809 13.257 6.28572 13.1661 6.28572 13.0714V10.9286C6.28572 10.8339 6.24809 10.743 6.18111 10.676C6.11413 10.6091 6.02329 10.5714 5.92857 10.5714ZM5.57143 12.7143H4.14286V11.2857H5.57143V12.7143ZM9.5 10.5714H7.35714C7.26242 10.5714 7.17158 10.6091 7.10461 10.676C7.03763 10.743 7 10.8339 7 10.9286V13.0714C7 13.1661 7.03763 13.257 7.10461 13.324C7.17158 13.3909 7.26242 13.4286 7.35714 13.4286H9.5C9.59472 13.4286 9.68556 13.3909 9.75254 13.324C9.81952 13.257 9.85714 13.1661 9.85714 13.0714V10.9286C9.85714 10.8339 9.81952 10.743 9.75254 10.676C9.68556 10.6091 9.59472 10.5714 9.5 10.5714ZM9.14286 12.7143H7.71429V11.2857H9.14286V12.7143ZM13.0714 10.5714H10.9286C10.8339 10.5714 10.743 10.6091 10.676 10.676C10.6091 10.743 10.5714 10.8339 10.5714 10.9286V13.0714C10.5714 13.1661 10.6091 13.257 10.676 13.324C10.743 13.3909 10.8339 13.4286 10.9286 13.4286H13.0714C13.1662 13.4286 13.257 13.3909 13.324 13.324C13.3909 13.257 13.4286 13.1661 13.4286 13.0714V10.9286C13.4286 10.8339 13.3909 10.743 13.324 10.676C13.257 10.6091 13.1662 10.5714 13.0714 10.5714ZM12.7143 12.7143H11.2857V11.2857H12.7143V12.7143ZM16.6429 10.5714H14.5C14.4053 10.5714 14.3144 10.6091 14.2475 10.676C14.1805 10.743 14.1429 10.8339 14.1429 10.9286V13.0714C14.1429 13.1661 14.1805 13.257 14.2475 13.324C14.3144 13.3909 14.4053 13.4286 14.5 13.4286H16.6429C16.7376 13.4286 16.8284 13.3909 16.8954 13.324C16.9624 13.257 17 13.1661 17 13.0714V10.9286C17 10.8339 16.9624 10.743 16.8954 10.676C16.8284 10.6091 16.7376 10.5714 16.6429 10.5714ZM16.2857 12.7143H14.8571V11.2857H16.2857V12.7143ZM5.92857 7H3.78572C3.691 7 3.60016 7.03763 3.53318 7.1046C3.4662 7.17158 3.42857 7.26242 3.42857 7.35714V9.5C3.42857 9.59472 3.4662 9.68556 3.53318 9.75254C3.60016 9.81952 3.691 9.85714 3.78572 9.85714H5.92857C6.02329 9.85714 6.11413 9.81952 6.18111 9.75254C6.24809 9.68556 6.28572 9.59472 6.28572 9.5V7.35714C6.28572 7.26242 6.24809 7.17158 6.18111 7.1046C6.11413 7.03763 6.02329 7 5.92857 7ZM5.57143 9.14286H4.14286V7.71429H5.57143V9.14286ZM9.5 7H7.35714C7.26242 7 7.17158 7.03763 7.10461 7.1046C7.03763 7.17158 7 7.26242 7 7.35714V9.5C7 9.59472 7.03763 9.68556 7.10461 9.75254C7.17158 9.81952 7.26242 9.85714 7.35714 9.85714H9.5C9.59472 9.85714 9.68556 9.81952 9.75254 9.75254C9.81952 9.68556 9.85714 9.59472 9.85714 9.5V7.35714C9.85714 7.26242 9.81952 7.17158 9.75254 7.1046C9.68556 7.03763 9.59472 7 9.5 7ZM9.14286 9.14286H7.71429V7.71429H9.14286V9.14286ZM13.0714 7H10.9286C10.8339 7 10.743 7.03763 10.676 7.1046C10.6091 7.17158 10.5714 7.26242 10.5714 7.35714V9.5C10.5714 9.59472 10.6091 9.68556 10.676 9.75254C10.743 9.81952 10.8339 9.85714 10.9286 9.85714H13.0714C13.1662 9.85714 13.257 9.81952 13.324 9.75254C13.3909 9.68556 13.4286 9.59472 13.4286 9.5V7.35714C13.4286 7.26242 13.3909 7.17158 13.324 7.1046C13.257 7.03763 13.1662 7 13.0714 7ZM12.7143 9.14286H11.2857V7.71429H12.7143V9.14286ZM16.6429 7H14.5C14.4053 7 14.3144 7.03763 14.2475 7.1046C14.1805 7.17158 14.1429 7.26242 14.1429 7.35714V9.5C14.1429 9.59472 14.1805 9.68556 14.2475 9.75254C14.3144 9.81952 14.4053 9.85714 14.5 9.85714H16.6429C16.7376 9.85714 16.8284 9.81952 16.8954 9.75254C16.9624 9.68556 17 9.59472 17 9.5V7.35714C17 7.26242 16.9624 7.17158 16.8954 7.1046C16.8284 7.03763 16.7376 7 16.6429 7ZM16.2857 9.14286H14.8571V7.71429H16.2857V9.14286Z" fill="#667EEA"/>
<path d="M19.1429 18.0714C19.3401 18.0714 19.5 17.9115 19.5 17.7143C19.5 17.517 19.3401 17.3571 19.1429 17.3571C18.9456 17.3571 18.7857 17.517 18.7857 17.7143C18.7857 17.9115 18.9456 18.0714 19.1429 18.0714Z" fill="#667EEA"/>
<path d="M20.2143 14.5C20.2143 14.4053 20.1767 14.3144 20.1097 14.2475C20.0427 14.1805 19.9519 14.1429 19.8571 14.1429H18.4286C18.3338 14.1429 18.243 14.1805 18.176 14.2475C18.109 14.3144 18.0714 14.4053 18.0714 14.5V16.7736C17.8429 17.0293 17.7143 17.3636 17.7143 17.7143C17.7143 18.065 17.8429 18.3993 18.0714 18.655V20.2143C18.0714 20.309 18.109 20.3998 18.176 20.4668C18.243 20.5338 18.3338 20.5714 18.4286 20.5714H19.8571C19.9519 20.5714 20.0427 20.5338 20.1097 20.4668C20.1767 20.3998 20.2143 20.309 20.2143 20.2143V18.655C20.4429 18.3993 20.5714 18.065 20.5714 17.7143C20.5714 17.3636 20.4429 17.0293 20.2143 16.7736V14.5ZM19.6221 18.2379C19.5837 18.2714 19.5529 18.3128 19.5318 18.3592C19.5108 18.4057 19.4999 18.4561 19.5 18.5071V19.8571H18.7857V18.5071C18.7857 18.4561 18.7747 18.4058 18.7537 18.3593C18.7326 18.3129 18.7019 18.2715 18.6636 18.2379C18.5893 18.1724 18.5298 18.0919 18.4893 18.0015C18.4488 17.9112 18.4281 17.8133 18.4286 17.7143C18.4281 17.6153 18.4488 17.5173 18.4893 17.427C18.5298 17.3367 18.5893 17.2561 18.6636 17.1907C18.702 17.1572 18.7328 17.1158 18.7539 17.0693C18.7749 17.0229 18.7858 16.9724 18.7857 16.9214V14.8571H19.5V16.9214C19.5 17.025 19.545 17.1229 19.6221 17.1907C19.7714 17.3207 19.8571 17.5114 19.8571 17.7143C19.8571 17.9171 19.7714 18.1079 19.6221 18.2379Z" fill="#667EEA"/>
<path d="M19.1429 10.2143C19.3401 10.2143 19.5 10.0544 19.5 9.85714C19.5 9.6599 19.3401 9.5 19.1429 9.5C18.9456 9.5 18.7857 9.6599 18.7857 9.85714C18.7857 10.0544 18.9456 10.2143 19.1429 10.2143Z" fill="#667EEA"/>
<path d="M20.2143 7.35714C20.2143 7.26242 20.1767 7.17158 20.1097 7.1046C20.0427 7.03763 19.9519 7 19.8571 7H18.4286C18.3338 7 18.243 7.03763 18.176 7.1046C18.109 7.17158 18.0714 7.26242 18.0714 7.35714V8.91643C17.8429 9.17214 17.7143 9.50643 17.7143 9.85714C17.7143 10.2079 17.8429 10.5421 18.0714 10.7979V13.0714C18.0714 13.1661 18.109 13.257 18.176 13.324C18.243 13.3909 18.3338 13.4286 18.4286 13.4286H19.8571C19.9519 13.4286 20.0427 13.3909 20.1097 13.324C20.1767 13.257 20.2143 13.1661 20.2143 13.0714V10.7979C20.4429 10.5421 20.5714 10.2079 20.5714 9.85714C20.5714 9.50643 20.4429 9.17214 20.2143 8.91643V7.35714ZM19.6221 10.3807C19.5837 10.4142 19.5529 10.4556 19.5318 10.5021C19.5108 10.5485 19.4999 10.599 19.5 10.65V12.7143H18.7857V10.65C18.7857 10.599 18.7747 10.5486 18.7537 10.5022C18.7326 10.4557 18.7019 10.4143 18.6636 10.3807C18.5893 10.3153 18.5298 10.2347 18.4893 10.1444C18.4488 10.0541 18.4281 9.95614 18.4286 9.85714C18.4281 9.75815 18.4488 9.6602 18.4893 9.56988C18.5298 9.47957 18.5893 9.39899 18.6636 9.33357C18.702 9.30004 18.7328 9.25865 18.7539 9.21219C18.7749 9.16574 18.7858 9.1153 18.7857 9.06429V7.71429H19.5V9.06429C19.5 9.16786 19.545 9.26571 19.6221 9.33357C19.7714 9.46357 19.8571 9.65429 19.8571 9.85714C19.8571 10.06 19.7714 10.2507 19.6221 10.3807Z" fill="#667EEA"/>
<path d="M3.78572 4.14286C3.98296 4.14286 4.14286 3.98296 4.14286 3.78572C4.14286 3.58847 3.98296 3.42857 3.78572 3.42857C3.58847 3.42857 3.42857 3.58847 3.42857 3.78572C3.42857 3.98296 3.58847 4.14286 3.78572 4.14286Z" fill="#667EEA"/>
<path d="M5.21429 4.14286C5.41153 4.14286 5.57143 3.98296 5.57143 3.78572C5.57143 3.58847 5.41153 3.42857 5.21429 3.42857C5.01705 3.42857 4.85715 3.58847 4.85715 3.78572C4.85715 3.98296 5.01705 4.14286 5.21429 4.14286Z" fill="#667EEA"/>
<path d="M6.64285 4.14286H8.78571C8.88043 4.14286 8.97127 4.10523 9.03825 4.03825C9.10523 3.97128 9.14285 3.88044 9.14285 3.78572C9.14285 3.691 9.10523 3.60016 9.03825 3.53318C8.97127 3.4662 8.88043 3.42857 8.78571 3.42857H6.64285C6.54813 3.42857 6.45729 3.4662 6.39031 3.53318C6.32334 3.60016 6.28571 3.691 6.28571 3.78572C6.28571 3.88044 6.32334 3.97128 6.39031 4.03825C6.45729 4.10523 6.54813 4.14286 6.64285 4.14286ZM9.14285 5.92857C9.14285 6.02329 9.18048 6.11413 9.24746 6.18111C9.31444 6.24809 9.40528 6.28572 9.5 6.28572H14.5C14.5947 6.28572 14.6856 6.24809 14.7525 6.18111C14.8195 6.11413 14.8571 6.02329 14.8571 5.92857V4.5C14.8571 4.40528 14.8195 4.31444 14.7525 4.24746C14.6856 4.18049 14.5947 4.14286 14.5 4.14286H9.5C9.40528 4.14286 9.31444 4.18049 9.24746 4.24746C9.18048 4.31444 9.14285 4.40528 9.14285 4.5V5.92857ZM9.85714 4.85715H14.1429V5.57143H9.85714V4.85715ZM4.14285 5.57143V5.92857C4.14285 6.02329 4.18048 6.11413 4.24746 6.18111C4.31443 6.24809 4.40528 6.28572 4.5 6.28572C4.59472 6.28572 4.68556 6.24809 4.75253 6.18111C4.81951 6.11413 4.85714 6.02329 4.85714 5.92857V5.57143H8.16071C8.25543 5.57143 8.34627 5.5338 8.41325 5.46683C8.48023 5.39985 8.51785 5.30901 8.51785 5.21429C8.51785 5.11957 8.48023 5.02873 8.41325 4.96175C8.34627 4.89477 8.25543 4.85715 8.16071 4.85715H4.85714V4.5C4.85714 4.40528 4.81951 4.31444 4.75253 4.24746C4.68556 4.18049 4.59472 4.14286 4.5 4.14286C4.40528 4.14286 4.31443 4.18049 4.24746 4.24746C4.18048 4.31444 4.14285 4.40528 4.14285 4.5V4.85715H3.67428C3.57956 4.85715 3.48872 4.89477 3.42174 4.96175C3.35477 5.02873 3.31714 5.11957 3.31714 5.21429C3.31714 5.30901 3.35477 5.39985 3.42174 5.46683C3.48872 5.5338 3.57956 5.57143 3.67428 5.57143H4.14285ZM17.3571 4.14286H18.0714C18.1661 4.14286 18.257 4.10523 18.324 4.03825C18.3909 3.97128 18.4286 3.88044 18.4286 3.78572C18.4286 3.691 18.3909 3.60016 18.324 3.53318C18.257 3.4662 18.1661 3.42857 18.0714 3.42857H17.3571C17.2624 3.42857 17.1716 3.4662 17.1046 3.53318C17.0376 3.60016 17 3.691 17 3.78572C17 3.88044 17.0376 3.97128 17.1046 4.03825C17.1716 4.10523 17.2624 4.14286 17.3571 4.14286ZM20.2143 3.42857H19.5C19.4053 3.42857 19.3144 3.4662 19.2475 3.53318C19.1805 3.60016 19.1429 3.691 19.1429 3.78572C19.1429 3.88044 19.1805 3.97128 19.2475 4.03825C19.3144 4.10523 19.4053 4.14286 19.5 4.14286H20.2143C20.309 4.14286 20.3998 4.10523 20.4668 4.03825C20.5338 3.97128 20.5714 3.88044 20.5714 3.78572C20.5714 3.691 20.5338 3.60016 20.4668 3.53318C20.3998 3.4662 20.309 3.42857 20.2143 3.42857ZM20.2143 4.85715H19.5C19.4053 4.85715 19.3144 4.89477 19.2475 4.96175C19.1805 5.02873 19.1429 5.11957 19.1429 5.21429C19.1429 5.30901 19.1805 5.39985 19.2475 5.46683C19.3144 5.5338 19.4053 5.57143 19.5 5.57143H20.2143C20.309 5.57143 20.3998 5.5338 20.4668 5.46683C20.5338 5.39985 20.5714 5.30901 20.5714 5.21429C20.5714 5.11957 20.5338 5.02873 20.4668 4.96175C20.3998 4.89477 20.309 4.85715 20.2143 4.85715ZM18.4286 5.21429C18.4286 5.11957 18.3909 5.02873 18.324 4.96175C18.257 4.89477 18.1661 4.85715 18.0714 4.85715H17.3571C17.2624 4.85715 17.1716 4.89477 17.1046 4.96175C17.0376 5.02873 17 5.11957 17 5.21429C17 5.30901 17.0376 5.39985 17.1046 5.46683C17.1716 5.5338 17.2624 5.57143 17.3571 5.57143H18.0714C18.1661 5.57143 18.257 5.5338 18.324 5.46683C18.3909 5.39985 18.4286 5.30901 18.4286 5.21429Z" fill="#667EEA"/>
</svg>
