<svg width="24" height="24" viewBox="0 0 24 24" fill="none" xmlns="http://www.w3.org/2000/svg">
<path d="M12.3245 12.9752L12.7581 13.3722H13.7929L16.6746 16.2945L17.2871 18.0593L16.2346 19.7671L14.8127 20.0796L13.088 19.7458H11.4684V21.5154L13.0139 21.9018L14.5427 23.0001H16.1924L16.6572 22.1485L16.1624 21.1448L16.7668 20.2802L18.3896 20.4132L19.1545 19.4009V18.6136L19.6041 18.5236V17.5L19.109 17.069C18.972 16.9497 18.88 16.7869 18.8485 16.6079C18.8171 16.4289 18.848 16.2446 18.9362 16.0856C19.1675 15.6685 19.7118 15.5483 20.0974 15.8291C20.5956 16.192 21.2951 15.8361 21.2951 15.2197C21.2951 14.9224 21.1439 14.6454 20.8937 14.4846L19.5099 13.5949L17.2308 12.7199L17.3692 12.6031C17.6374 12.3767 17.6026 11.9534 17.301 11.7739C17.222 11.7268 17.1317 11.702 17.0397 11.702L15.8169 11.702L14.1715 10.1892L13.6542 8.33335L11.6409 6.92745L11.6323 5.36991L11.3934 4.63295L13.6084 3.59819L13.3055 1.98977C13.3055 1.98977 11.9839 2.04039 11.9333 1.98977C11.8827 1.93915 11.191 0.999992 11.191 0.999992H9.78503L8.52906 2.24474H6.86443L6.19709 3.30575L5.31977 2.34808L4.50997 3.29448H3.13027L3.45272 4.66667L2.7049 5.11016V6.50001L4.55608 7.99798L5.99462 6.42131L8.09415 7.52355L8.84399 9.78804L9.3567 10.2575" stroke="#667EEA" stroke-width="0.8" stroke-miterlimit="10" stroke-linecap="round" stroke-linejoin="round"/>
<path d="M6.9429 13.3873L7.73088 14.9319L7.43835 17.5166C7.42779 17.6101 7.38319 17.6964 7.31307 17.759C7.24294 17.8216 7.15221 17.8563 7.05818 17.8563H6.72205C6.63258 17.8563 6.54496 17.8817 6.46943 17.9297C6.3939 17.9776 6.33357 18.0461 6.29551 18.1271C6.25347 18.2165 6.18685 18.2921 6.10343 18.345C6.02001 18.398 5.92324 18.4261 5.82443 18.4261C5.53696 18.4261 5.3039 18.1931 5.3039 17.9056V15.1524C5.3039 15.0365 5.28154 14.9217 5.23803 14.8143C5.13018 14.5479 5.32621 14.2571 5.6136 14.2571C5.69909 14.2571 5.78244 14.23 5.85166 14.1797L6.9429 13.3873Z" stroke="#667EEA" stroke-width="0.8" stroke-miterlimit="10" stroke-linecap="round" stroke-linejoin="round"/>
</svg>
