<svg width="24" height="24" viewBox="0 0 24 24" fill="none" xmlns="http://www.w3.org/2000/svg">
<path d="M21.8716 10.24L21.7974 10.151C21.5467 9.85114 21.3303 9.59227 21.269 9.24969C21.2455 9.11504 21.1807 8.99104 21.0835 8.89486C20.9864 8.79869 20.8618 8.7351 20.7269 8.71291C20.6609 8.54195 20.599 8.36985 20.5366 8.19759L20.4393 7.92904C20.4353 7.9184 20.4322 7.90678 20.4287 7.89533C20.4032 7.78592 20.3457 7.68661 20.2633 7.61017C20.198 7.55485 20.1335 7.48888 20.0653 7.41888C19.8673 7.17854 19.6035 7.00114 19.3063 6.9084C19.287 6.79063 19.2648 6.67339 19.2395 6.55678C19.2183 6.46243 19.0858 5.95775 19.0858 5.95775C19.0457 5.79072 19.0227 5.62006 19.0171 5.44839C19.0355 5.17735 18.9694 4.90727 18.8277 4.67546C18.686 4.44365 18.4759 4.26156 18.2262 4.15436C18.1584 3.75426 18.0367 3.36519 17.8645 2.99775C17.7866 2.81065 17.7129 2.63404 17.6533 2.45355C17.5914 2.26549 17.3814 1.98678 17.1125 2.00049C17.0065 2.01473 16.9046 2.05129 16.8136 2.10775C16.7227 2.16421 16.6448 2.2393 16.585 2.32807C16.4993 2.44885 16.4309 2.58098 16.3817 2.72065C16.3817 2.72065 15.9683 4.01065 15.8769 4.81436C15.8341 5.11593 15.7685 5.41383 15.6808 5.70549L15.6762 5.72227C15.6582 5.71389 15.6401 5.70561 15.6219 5.69743C15.4689 5.63393 15.3223 5.556 15.1842 5.46468C14.8666 5.23517 14.0835 4.61984 14.0027 4.55662C14.0555 4.46765 14.0925 4.37018 14.1119 4.26855C14.1183 4.23226 14.119 4.22742 14.1819 4.18678C14.3299 4.09753 14.45 3.96882 14.5289 3.8151C14.6079 3.66137 14.6424 3.48871 14.6287 3.31646C14.6133 3.12452 14.4795 2.82355 14.2303 2.75517C14.1701 2.73871 14.1104 2.71742 14.0503 2.69646C13.799 2.60823 13.4606 2.49 13.0922 2.66404C13.084 2.66162 12.1353 2.41065 11.76 2.30065C11.5996 2.25779 11.432 2.24972 11.2683 2.27698C11.1046 2.30424 10.9487 2.36621 10.8109 2.45871C10.7479 2.49604 10.6995 2.55366 10.6736 2.62212C10.6477 2.69059 10.6459 2.76582 10.6683 2.83549C10.5372 2.87894 10.4196 2.9555 10.3267 3.05775C10.0966 3.33625 9.88402 3.62874 9.69011 3.93355C9.65463 3.98678 9.61915 4.04033 9.58269 4.09436C9.54431 4.0492 9.42673 3.93436 9.42673 3.93436C9.04076 3.54146 8.76189 3.51484 8.32076 3.82984C8.19721 3.91807 7.52011 4.41017 7.30205 4.56001C7.17221 4.64904 6.86753 4.85839 6.85947 5.21436C6.52914 5.45694 6.05237 5.92243 5.89543 6.24017C5.82177 6.3709 5.79809 6.52394 5.82882 6.67081C5.67866 6.92791 5.52511 7.11501 5.2785 7.19372C5.15834 7.23509 5.04181 7.28634 4.93011 7.34694C4.86946 7.37791 3.9514 7.7534 3.79124 7.81985C3.79124 7.81985 3.34624 8.00453 3.16382 8.1113C2.8274 8.30355 2.50116 8.51308 2.1864 8.73904C2.08672 8.81115 2.0038 8.90393 1.94331 9.01105C1.88282 9.11817 1.84618 9.2371 1.83591 9.35969C1.83493 9.46816 1.83246 9.57661 1.82849 9.68501C1.81494 10.1168 1.80091 10.5608 1.95672 10.9819C1.8758 11.0335 1.80688 11.1018 1.75462 11.1823C1.55236 11.5065 1.79882 11.7818 1.89172 11.8855C1.89172 11.8855 2.46059 12.4987 2.51527 12.731C2.54216 12.8279 2.59169 12.9171 2.65978 12.9911C2.66785 13.001 2.67624 13.0108 2.68349 13.0205C2.84326 13.2048 2.9555 13.4254 3.01043 13.6631C3.04997 13.8501 3.12959 14.0263 3.24382 14.1795C3.42 14.4105 3.50114 14.7002 3.47059 14.989L3.46833 15.006C3.4643 15.0376 3.45866 15.0808 3.45882 15.0834C3.39255 15.129 3.33595 15.1873 3.2923 15.2549C3.24866 15.3224 3.21881 15.398 3.20449 15.4771C3.19017 15.5563 3.19167 15.6375 3.20888 15.7161C3.22609 15.7947 3.25869 15.8691 3.30478 15.935C3.3863 16.0754 3.49927 16.1951 3.6348 16.2845C3.77033 16.3739 3.92474 16.4307 4.08591 16.4503C4.17817 16.4624 4.27108 16.472 4.36382 16.4818C4.55491 16.4975 4.74485 16.5251 4.93253 16.5644C5.54398 16.706 5.83156 16.3778 5.9485 16.1691C6.02208 16.0414 6.13406 15.9403 6.2685 15.88C6.42295 15.8056 6.59332 15.7703 6.76463 15.7771C7.50834 15.851 8.13173 15.5724 8.67027 14.9244C8.76883 14.8568 8.87901 14.808 8.99528 14.7803L9.0856 14.751C9.30253 14.6776 10.6306 14.3913 11.0866 14.3134C11.1058 14.3182 11.3869 14.4115 11.3869 14.4115C11.5651 14.4644 11.7337 14.514 11.8991 14.5732C11.9665 14.5933 12.0307 14.6229 12.0896 14.6611C12.3313 14.8942 12.5224 15.1745 12.6509 15.4847C12.6814 15.5868 12.7377 15.6793 12.8144 15.7533C12.8911 15.8272 12.9857 15.8801 13.0888 15.9068C13.1984 15.9264 13.3111 15.9173 13.4161 15.8806C13.5212 15.8438 13.6149 15.7806 13.6883 15.697C13.7931 15.5949 13.8965 15.4914 13.9983 15.3865C14.0117 15.8263 14.0417 15.9053 14.0619 15.9591L14.0693 15.9791C14.1257 16.1815 14.2493 16.3588 14.4198 16.4816L14.4174 16.4894C14.3454 16.6506 14.3293 16.8312 14.3716 17.0026C14.4139 17.174 14.5121 17.3264 14.6508 17.4357L14.673 17.4591C14.7273 17.5134 14.7876 17.5615 14.8527 17.6023C14.8756 17.6176 14.9101 17.6407 14.915 17.6445C15.0022 17.7777 15.1201 17.888 15.2588 17.9661C15.3974 18.0443 15.5528 18.0881 15.7119 18.0939C15.8829 18.1039 16.0533 18.1168 16.224 18.1297C16.4553 18.1474 16.6945 18.1655 16.9321 18.1758C16.9716 18.1731 17.0111 18.1805 17.047 18.1973C17.0829 18.2142 17.1138 18.2399 17.1369 18.2721C17.3372 18.5215 17.5343 18.6452 17.7488 18.6452C17.9578 18.6298 18.1559 18.5456 18.3119 18.4057L18.3293 18.3924C18.383 18.3534 18.4331 18.3095 18.4788 18.2613C18.6704 18.0516 18.8064 18.0226 18.953 18.0424C19.0788 18.056 19.2057 18.0543 19.3311 18.0373C19.3754 18.0328 19.4198 18.0282 19.4638 18.0263C19.6308 18.0326 19.7935 17.9726 19.9165 17.8594C20.0394 17.7462 20.1127 17.5891 20.1203 17.4221C20.1387 17.2813 20.1546 17.14 20.1672 16.9989C20.169 16.9374 20.1838 16.8769 20.2108 16.8215C20.2377 16.7662 20.2761 16.7172 20.3234 16.6778C20.4957 16.5433 20.6319 16.3679 20.7195 16.1676C20.9104 15.7836 21.13 15.4145 21.3764 15.0636C21.7052 14.5759 21.9449 14.0337 22.0842 13.4623C22.1892 12.981 22.2539 12.4919 22.2775 11.9999C22.2892 11.8455 22.3009 11.6911 22.3151 11.5376C22.3327 11.3026 22.3025 11.0664 22.2262 10.8434C22.15 10.6204 22.0293 10.4152 21.8714 10.2402L21.8716 10.24ZM21.6732 11.4771C21.6583 11.6347 21.6463 11.7928 21.6345 11.951C21.6133 12.4072 21.5543 12.8609 21.458 13.3074C21.3359 13.8035 21.1282 14.2744 20.8442 14.699L20.7513 14.8339C20.4968 15.1742 20.2841 15.5438 20.1179 15.9349C20.0666 16.035 19.9928 16.1219 19.9024 16.1889C19.792 16.2824 19.7016 16.3972 19.6367 16.5265C19.5718 16.6558 19.5338 16.7969 19.5248 16.9413C19.5132 17.0736 19.4982 17.2058 19.4809 17.3373C19.4792 17.3511 19.4767 17.3647 19.4735 17.3782C19.4645 17.3795 19.1027 17.411 19.0422 17.4031C18.8474 17.38 18.6498 17.4066 18.468 17.4805C18.2862 17.5544 18.1262 17.6731 18.0027 17.8257C17.9906 17.8391 17.7838 17.987 17.7617 17.9966C17.7161 17.9586 17.6751 17.9153 17.6396 17.8676C17.559 17.7642 17.4561 17.6803 17.3386 17.622C17.2211 17.5637 17.0921 17.5326 16.9609 17.531C16.733 17.521 16.4992 17.5032 16.2729 17.486C16.0987 17.4728 15.9243 17.4595 15.7495 17.4494C15.6883 17.4499 15.6281 17.4343 15.5748 17.4042C15.5216 17.374 15.4772 17.3304 15.4461 17.2778C15.3824 17.1924 15.3026 17.1203 15.2112 17.0655C15.1866 17.0502 15.1631 17.0331 15.1409 17.0144C15.0903 16.9631 15.0429 16.9087 14.999 16.8516C15.0026 16.7897 15.0154 16.7286 15.0369 16.6703C15.087 16.5261 15.1095 16.3737 15.103 16.2211C15.0965 16.1404 15.0598 16.0651 15.0003 16.0101C14.9408 15.9551 14.8627 15.9246 14.7817 15.9245C14.7761 15.9245 14.7527 15.9245 14.7508 15.9249C14.7189 15.8703 14.693 15.8124 14.6735 15.7523L14.6703 15.7453C14.6637 15.7184 14.6312 15.537 14.6377 14.6007C14.6382 14.5362 14.6193 14.4731 14.5836 14.4195C14.5478 14.3659 14.4968 14.3242 14.4372 14.2998C14.3775 14.2754 14.312 14.2695 14.2489 14.2827C14.1858 14.2959 14.1282 14.3277 14.0833 14.374C13.6425 14.8295 13.3366 15.141 13.244 15.2292C13.0841 14.846 12.8483 14.4991 12.5508 14.2095C12.4264 14.0963 12.2779 14.0128 12.1166 13.9653C11.9338 13.9 11.4567 13.7589 11.4567 13.7589C11.4348 13.7524 11.4125 13.7437 11.39 13.7353C11.2678 13.6801 11.1329 13.6587 10.9996 13.6734C10.5524 13.7481 9.15479 14.0465 8.87947 14.139L8.79753 14.166C8.56126 14.22 8.34516 14.3399 8.17431 14.5118C7.77253 14.9953 7.35785 15.1878 6.82866 15.1347C6.54187 15.1161 6.2551 15.1713 5.99576 15.2952C5.73868 15.4122 5.52518 15.6076 5.38576 15.8532C5.3535 15.9107 5.30914 15.9895 5.07914 15.9355C4.86534 15.89 4.64889 15.858 4.43108 15.8397C4.34333 15.8305 4.25575 15.8213 4.1685 15.8102C4.1023 15.8027 4.03894 15.7792 3.98397 15.7415C3.92899 15.7039 3.88408 15.6534 3.85317 15.5944C3.92975 15.5333 3.99221 15.4564 4.03628 15.3689C4.08035 15.2814 4.10499 15.1855 4.1085 15.0876L4.11043 15.0715C4.16073 14.6285 4.04316 14.1827 3.78091 13.8221C3.72206 13.7437 3.67705 13.6558 3.64785 13.5623C3.57943 13.2201 3.42551 12.9007 3.20043 12.634C3.18704 12.6161 3.14317 12.5632 3.13656 12.5549C3.02925 12.218 2.83536 11.9153 2.5743 11.6769C2.5182 11.6183 2.4634 11.5584 2.40995 11.4973C2.40995 11.4973 2.39995 11.4684 2.40478 11.4658C2.45398 11.4384 2.50478 11.4094 2.55317 11.3771C2.62185 11.331 2.67022 11.2603 2.68828 11.1795C2.70635 11.0988 2.69274 11.0142 2.65027 10.9432C2.44527 10.6008 2.45898 10.1658 2.47349 9.70533C2.47773 9.59625 2.47982 9.48708 2.47978 9.37791C2.49873 9.33146 2.52914 9.29056 2.56817 9.25904C2.86483 9.04647 3.17228 8.84938 3.4893 8.66856C3.63398 8.58372 4.83414 8.09775 4.99495 8.03082C5.07237 7.99856 5.14785 7.96049 5.22301 7.92195C5.30402 7.87775 5.3883 7.83984 5.47511 7.80856C5.95688 7.65436 6.21543 7.29453 6.40479 6.9634C6.4777 6.83573 6.49921 6.68508 6.46495 6.5421C6.54318 6.33243 7.13011 5.78614 7.32931 5.67065C7.39884 5.6409 7.45665 5.5891 7.49382 5.52323C7.52018 5.48002 7.53508 5.4308 7.53711 5.38022C7.53914 5.32965 7.52824 5.27939 7.50543 5.2342C7.50866 5.22452 7.53027 5.18581 7.66705 5.0921C7.89237 4.93726 8.81221 4.27726 8.83511 4.26613C8.85705 4.28178 9.0764 4.49275 9.10027 4.52339C9.17371 4.62499 9.27286 4.70522 9.38754 4.75584C9.50222 4.80646 9.62831 4.82566 9.75286 4.81146C9.79572 4.80457 9.83674 4.78909 9.87346 4.76594C9.91019 4.7428 9.94186 4.71247 9.96657 4.67678C10.057 4.54614 10.6064 3.72194 10.815 3.47936C10.8895 3.43896 10.9693 3.40921 11.0521 3.39097C11.1329 3.36922 11.2125 3.34344 11.2908 3.31371C11.3689 3.2827 11.4318 3.22241 11.4662 3.14568C11.5005 3.06895 11.5036 2.98184 11.4746 2.90291C11.5095 2.90404 12.9096 3.28291 12.9096 3.28291C12.9788 3.30887 13.0524 3.32049 13.1262 3.31705C13.2 3.31361 13.2723 3.29519 13.3387 3.26291C13.4677 3.18791 13.584 3.21694 13.8374 3.30565C13.8853 3.32226 14.0866 3.47226 13.8309 3.64533C13.7375 3.69948 13.6573 3.77365 13.596 3.8625C13.5346 3.95135 13.4938 4.05267 13.4762 4.1592C13.4342 4.27207 13.3757 4.37811 13.3027 4.47388C13.1237 4.81194 13.6354 5.08823 13.8462 5.25404C14.1569 5.49823 14.4782 5.75065 14.8066 5.98791C14.9787 6.10479 15.1621 6.20415 15.354 6.28452C15.5556 6.37743 15.7595 6.45872 15.9771 6.35791C16.0644 6.30739 16.1392 6.23769 16.1957 6.15406C16.2522 6.07044 16.2889 5.97508 16.3032 5.87517C16.3999 5.55188 16.4717 5.22167 16.518 4.88743C16.5781 4.24556 16.7266 3.61507 16.9593 3.01388L16.9811 2.95968C17.0069 2.88889 17.0381 2.82019 17.0745 2.7542C17.1345 2.92307 17.2027 3.08694 17.2692 3.24613C17.4476 3.60778 17.5596 3.99857 17.5998 4.39984C17.6022 4.46836 17.6264 4.53431 17.6689 4.58814C17.7114 4.64197 17.7699 4.68087 17.8359 4.6992C18.2059 4.8021 18.3763 5.03791 18.3719 5.44146C18.3762 5.65819 18.4034 5.87386 18.4532 6.08485C18.4532 6.08485 18.6585 6.94743 18.68 7.07517C18.6901 7.13485 18.7003 7.19549 18.7111 7.2563C18.7244 7.33089 18.7635 7.39842 18.8216 7.44705C18.8797 7.49568 18.9531 7.52231 19.0288 7.52227H19.0361C19.2538 7.52227 19.3875 7.64807 19.6038 7.86969C19.6682 7.93582 19.7343 8.00356 19.8071 8.06856C19.8085 8.07275 20.0848 8.84549 20.1683 9.05711C20.206 9.13632 20.2636 9.20432 20.3356 9.25437C20.4076 9.30441 20.4915 9.33477 20.5788 9.34243C20.6133 9.34598 20.6301 9.35549 20.6338 9.36372C20.7258 9.87501 21.0322 10.2415 21.3025 10.565L21.3748 10.6518C21.4788 10.7613 21.559 10.8912 21.6104 11.0333C21.6617 11.1754 21.6831 11.3264 21.6732 11.4771ZM18.8222 19.4008C18.7356 19.3438 18.6354 19.3106 18.5319 19.3046C18.4283 19.2986 18.325 19.32 18.2324 19.3666C18.1461 19.4044 18.051 19.4174 17.9577 19.4041C17.8645 19.3908 17.7768 19.3517 17.7045 19.2913C17.4029 19.0918 16.969 19.0408 16.6977 19.3139C16.4727 19.5403 16.5051 19.8244 16.5869 20.1055C16.6606 20.3448 16.721 20.5881 16.7679 20.8341C16.8304 21.1935 17.0051 21.5238 17.2669 21.7779C17.3419 21.8513 17.431 21.9087 17.5287 21.9468C17.6264 21.9849 17.7309 22.003 17.8357 21.9998C17.9406 21.9966 18.0437 21.9724 18.139 21.9284C18.2342 21.8845 18.3197 21.8218 18.3901 21.7441C18.7814 21.2892 19.1366 20.7897 19.0933 20.2166C19.1027 19.9489 19.0808 19.5836 18.8222 19.4008ZM18.4493 20.2541C18.4813 20.5966 18.2048 20.9702 17.9013 21.3229C17.8897 21.3352 17.8758 21.345 17.8603 21.3516C17.8448 21.3582 17.8281 21.3615 17.8112 21.3613C17.7944 21.361 17.7778 21.3573 17.7625 21.3503C17.7471 21.3433 17.7334 21.3332 17.7222 21.3207C17.555 21.1609 17.4433 20.9519 17.4035 20.7241C17.3528 20.4544 17.287 20.1879 17.2064 19.9257C17.2064 19.9257 17.1682 19.7974 17.1633 19.7673C17.1803 19.7691 17.3401 19.8244 17.3495 19.8302C17.5044 19.9445 17.6856 20.018 17.8764 20.0438C18.0672 20.0696 18.2614 20.047 18.4411 19.9779C18.4479 20.026 18.4492 20.2539 18.4492 20.2539L18.4493 20.2541Z" fill="#667EEA"/>
</svg>
