<svg width="24" height="24" viewBox="0 0 24 24" fill="none" xmlns="http://www.w3.org/2000/svg">
<path d="M6.6265 17.1825C6.79141 17.5712 6.89087 17.8061 7.19493 18.001C7.27921 18.0536 7.36874 18.0971 7.46206 18.1311L7.47717 18.1368C7.47443 18.1962 7.46395 18.2711 7.45364 18.3439C7.41739 18.6016 7.3583 19.0218 7.68194 19.2269C7.70222 19.3188 7.7169 19.4119 7.72592 19.5055C7.75684 19.7684 7.8137 20.249 8.22117 20.2593C8.32004 20.3382 8.39842 20.4398 8.44965 20.5555C8.27718 20.7532 8.06966 21.0178 8.193 21.3632C8.23842 21.4713 8.30395 21.5698 8.38609 21.6535C8.55478 21.8478 8.54241 21.87 8.50874 21.9298C8.43363 22.0453 8.39953 22.1828 8.41193 22.32C8.42433 22.4573 8.48251 22.5864 8.57711 22.6866C8.72295 22.8108 8.9031 22.8877 9.09366 22.9072C9.28422 22.9266 9.47618 22.8876 9.64407 22.7954C9.68215 22.8129 9.71889 22.8332 9.75401 22.856C9.876 22.9388 10.0184 22.9865 10.1656 22.994C10.2454 22.9926 10.3238 22.9719 10.3939 22.9338C10.464 22.8956 10.5239 22.8411 10.5684 22.7748C10.7947 22.479 10.6351 22.1371 10.5035 21.9045C10.8814 21.8203 11.0266 21.7006 11.0998 21.6049C11.3635 21.6135 11.841 21.6068 12.0303 21.1768C12.0679 21.094 12.1156 21.0161 12.1722 20.9449C12.3678 20.7007 12.466 20.3927 12.4481 20.0803C12.457 19.9271 12.4373 19.7736 12.3902 19.6275L12.4048 19.6012C12.4758 19.5004 12.5236 19.3851 12.545 19.2637C12.5663 19.1423 12.5607 19.0176 12.5283 18.8986C12.5111 18.8345 12.5017 18.7685 12.5003 18.7021C12.4969 18.5315 12.5077 18.5169 12.5792 18.4221C12.6063 18.386 12.6359 18.3469 12.6671 18.2998C12.7646 18.1216 12.7914 17.9132 12.742 17.7162C12.7383 17.6899 12.7334 17.6565 12.7305 17.6269C12.7556 17.6175 12.7814 17.6083 12.807 17.5989C13.0801 17.4998 13.4543 17.3641 13.5999 16.9745C13.6557 16.825 13.6583 16.6609 13.6073 16.5098C13.9181 16.3421 14.2409 16.0178 14.2268 15.7153C14.2264 15.6974 14.2272 15.6795 14.2293 15.6617C14.2429 15.5465 14.2255 15.4298 14.1789 15.3235C14.1322 15.2173 14.0581 15.1255 13.9641 15.0575L13.9145 15.013C13.8078 14.9216 13.707 14.8235 13.6128 14.7193C13.6195 14.6527 13.613 14.5855 13.5937 14.5215C13.5744 14.4575 13.5426 14.3979 13.5003 14.3462C13.4086 14.2399 13.2941 14.1558 13.1652 14.1C13.0364 14.0443 12.8967 14.0184 12.7565 14.0242C12.7621 13.9868 12.7709 13.9397 12.784 13.8804C12.8098 13.7391 12.8035 13.5938 12.7654 13.4553C12.7524 13.4126 12.748 13.3678 12.7522 13.3234C12.9489 13.0817 13.0572 12.7801 13.0593 12.4685C13.0736 12.3561 13.0648 12.2419 13.0334 12.1331C13.3115 11.8661 13.5694 11.6108 13.5694 11.247C13.585 11.1638 13.628 11.0884 13.6917 11.0326C14.0766 11.0214 14.6172 10.744 14.6306 10.2522C14.6545 10.1701 14.6986 10.0953 14.7588 10.0346C14.819 9.97385 14.8935 9.9292 14.9754 9.90466C15.3946 9.83011 15.4708 9.39824 15.5117 9.16633C15.5214 9.10056 15.5357 9.03558 15.5547 8.97187C15.6281 8.90507 15.6868 8.82361 15.7269 8.73274C15.7669 8.64188 15.7875 8.54362 15.7873 8.44432C15.7827 8.35408 15.76 8.26568 15.7204 8.18444C15.6809 8.1032 15.6253 8.0308 15.5571 7.97157C15.5857 7.8852 15.6335 7.80648 15.6971 7.74138C15.7592 7.6795 15.8023 7.6012 15.8214 7.51566C15.8405 7.43012 15.8348 7.3409 15.805 7.25849C15.9236 7.22242 16.0325 7.16004 16.1236 7.07602C16.2147 6.99199 16.2857 6.88848 16.3313 6.7732C16.3909 6.76667 16.4825 6.76684 16.5433 6.76718C16.6402 6.76965 16.7371 6.76529 16.8334 6.75413C16.8741 6.74952 16.9151 6.74768 16.9561 6.74863H16.9703C17.0589 6.76031 17.1489 6.74785 17.2309 6.71256C17.3129 6.67727 17.3839 6.62046 17.4362 6.54816C17.4765 6.47121 17.4963 6.38515 17.4936 6.29833C17.4909 6.2115 17.4658 6.12685 17.4208 6.05256C17.3929 5.99656 17.373 5.94468 17.3543 5.89658C17.32 5.77928 17.2626 5.67004 17.1854 5.57532C17.1081 5.48061 17.0127 5.40234 16.9047 5.34515C16.9169 5.30976 16.9317 5.27128 16.9434 5.24036C17.0271 5.06084 17.0664 4.86381 17.058 4.66591C17.0252 4.46434 16.9293 4.27836 16.7841 4.13475C16.7704 4.11895 16.7539 4.09988 16.74 4.08322C16.8071 3.87102 16.7984 3.64209 16.7154 3.43559C16.6861 3.34918 16.666 3.25994 16.6553 3.16932C16.659 3.07702 16.6439 2.98492 16.6108 2.89867C16.5778 2.81242 16.5274 2.73383 16.4629 2.66771C16.3997 2.60097 16.3437 2.52772 16.2959 2.4492L16.2744 2.4157C16.0949 2.13466 16.0626 2.08416 15.8896 1.97422C15.8572 1.95378 15.8139 1.92629 15.7505 1.88094C15.6369 1.80166 15.514 1.73653 15.3846 1.68699C15.3667 1.67961 15.3451 1.67067 15.3269 1.6626C15.3001 1.497 15.212 1.34754 15.08 1.24396C14.8009 1.04373 14.4539 0.96197 14.1148 1.01652C13.8327 1.04778 13.4814 1.08678 13.3374 1.36644C13.2973 1.46095 13.2811 1.56389 13.2902 1.66616C13.2994 1.76842 13.3336 1.86686 13.3898 1.95274C13.2551 1.91668 13.1131 1.91765 12.9788 1.95557C12.8446 1.99348 12.7231 2.06693 12.6271 2.16816C12.5432 2.26588 12.4804 2.3799 12.4427 2.50306C12.4049 2.62623 12.3931 2.75586 12.4079 2.88382L12.3878 2.8876C12.1662 2.929 11.7538 3.00613 11.6256 3.43593C11.6077 3.49357 11.5734 3.54473 11.5268 3.58315C11.3657 3.7448 11.2142 3.98084 11.4744 4.37268C11.4808 4.38213 11.4851 4.38986 11.4882 4.39552C11.4646 4.42991 11.4392 4.46305 11.4122 4.49482C11.3257 4.5921 11.255 4.70235 11.2027 4.82155C11.164 4.90545 11.1181 4.98581 11.0654 5.06171C10.9578 5.20459 10.8839 5.36997 10.8493 5.54545C10.8356 5.55164 10.8218 5.55748 10.8098 5.56263C10.5605 5.67 10.0962 5.86995 10.1402 6.36109C10.1409 6.36853 10.1418 6.37597 10.1429 6.38342C10.1972 6.71618 10.1891 7.05613 10.1192 7.38595C10.0876 7.48043 9.95397 7.58059 9.83595 7.66888C9.65987 7.80081 9.46026 7.95027 9.44033 8.20571C9.43572 8.28413 9.44846 8.36259 9.47765 8.43552C9.50684 8.50844 9.55175 8.57403 9.6092 8.62761C9.68255 8.70285 9.73752 8.76504 9.77858 8.81623C9.48087 8.76659 9.01585 8.75748 8.76883 9.2615C8.69864 9.41168 8.61057 9.55282 8.50651 9.68186C8.44016 9.74717 8.39434 9.83046 8.37468 9.92146C8.35503 10.0125 8.3624 10.1072 8.39588 10.1941C8.3195 10.3808 8.31147 10.5884 8.3732 10.7804C8.38444 10.9002 8.37296 11.021 8.33936 11.1365C8.28594 11.3999 8.21344 11.7567 8.4682 12.0363C8.45207 12.1007 8.43199 12.164 8.40808 12.2258C8.3282 12.4466 8.16174 12.9063 8.5699 13.1839C8.65256 13.2304 8.72528 13.2928 8.78394 13.3673C8.77703 13.3991 8.76377 13.4291 8.74495 13.4556C8.70286 13.5261 8.66197 13.5386 8.65167 13.5395C8.57978 13.5167 8.50195 13.5217 8.43357 13.5535C8.36519 13.5853 8.31123 13.6416 8.28233 13.7112C8.18751 13.8846 8.1358 14.2427 8.41976 14.631C8.34847 14.7807 8.31626 14.946 8.32614 15.1115L8.16346 15.2317C8.00519 15.2632 7.86376 15.3511 7.76543 15.4791C7.70057 15.5723 7.6587 15.6795 7.64327 15.7921C7.62783 15.9046 7.63926 16.0191 7.67662 16.1264C7.69755 16.2008 7.71435 16.2763 7.72695 16.3526C7.6787 16.3321 7.63571 16.301 7.6012 16.2616C7.59315 16.1872 7.56425 16.1167 7.51784 16.0581C7.47142 15.9995 7.40939 15.9552 7.33889 15.9304C7.22979 15.9031 7.11512 15.9081 7.0088 15.9447C6.90247 15.9813 6.80905 16.048 6.73987 16.1367C6.62465 16.2557 6.54716 16.4061 6.51715 16.569C6.48713 16.7319 6.50593 16.9 6.57118 17.0523L6.6265 17.1825ZM7.80975 17.0762C7.89889 17.087 7.98932 17.0756 8.07302 17.0431C8.15672 17.0106 8.23109 16.9579 8.28955 16.8898C8.49311 16.644 8.42921 16.2748 8.33971 15.9462C8.33566 15.9313 8.33244 15.9162 8.33009 15.901C8.39261 15.8952 8.45237 15.8725 8.5029 15.8352L8.89268 15.5473C8.94417 15.5092 8.984 15.4575 9.00768 15.398C9.03135 15.3385 9.03793 15.2736 9.02667 15.2106C9.00123 15.121 9.00392 15.0258 9.0344 14.9378C9.08497 14.9129 9.12865 14.876 9.16159 14.8303C9.19453 14.7846 9.21572 14.7314 9.22329 14.6756C9.23086 14.6198 9.22457 14.5629 9.205 14.5101C9.18542 14.4572 9.15315 14.41 9.11102 14.3726C9.04115 14.3136 8.98148 14.2434 8.93442 14.1649C9.10327 14.0931 9.24389 13.9679 9.33468 13.8085C9.70832 13.184 9.21546 12.7955 8.99541 12.6424C9.01172 12.5804 9.03139 12.5194 9.05433 12.4596C9.13559 12.2349 9.27181 11.8589 8.97909 11.577C8.97361 11.4746 8.98505 11.372 9.01293 11.2733C9.07468 11.0533 9.08252 10.8218 9.03578 10.5982C9.02398 10.5711 9.01849 10.5416 9.01974 10.5121C9.02099 10.4826 9.02894 10.4537 9.04299 10.4277C9.09957 10.3135 9.11416 10.183 9.08422 10.0591C9.20171 9.90516 9.30276 9.73934 9.3857 9.56436C9.42624 9.4819 9.44445 9.44393 9.78613 9.51797C9.97974 9.55972 10.3041 9.63032 10.4844 9.35925C10.7624 8.94129 10.4357 8.50719 10.202 8.25347L10.2477 8.21911C10.4816 8.07327 10.6644 7.85837 10.7708 7.60412C10.924 7.14717 10.8543 6.51157 10.8287 6.32415C10.9081 6.27174 10.993 6.22802 11.0817 6.19377C11.2466 6.12282 11.6239 5.96014 11.5387 5.6097C11.5699 5.54924 11.6047 5.49067 11.6428 5.43431C11.72 5.32215 11.7862 5.20278 11.8403 5.07785C11.8685 5.02427 11.9035 4.97451 11.9443 4.92977C12.0717 4.77379 12.3344 4.45256 12.063 4.01743C12.1669 3.90765 12.2429 3.7745 12.2846 3.62919C12.3569 3.59472 12.4345 3.57243 12.5141 3.56323C12.614 3.55858 12.7117 3.5314 12.7997 3.48372C12.8877 3.43603 12.9637 3.36908 13.0222 3.28786C13.0899 3.15726 13.1154 3.0089 13.0952 2.8632C13.0878 2.74158 13.0878 2.69228 13.1426 2.62305C13.3216 2.63199 13.4975 2.67295 13.6619 2.74399C13.7628 2.78888 13.8707 2.81608 13.9808 2.82438C14.0478 2.82535 14.114 2.80843 14.1723 2.77537C14.2307 2.74231 14.2792 2.6943 14.3128 2.63628C14.4451 2.40712 14.3146 2.18173 14.0986 1.80827L14.0464 1.71774C14.0854 1.71207 14.1326 1.70589 14.1905 1.69953C14.3478 1.66754 14.5114 1.69581 14.6488 1.77873C14.6644 1.90629 14.7179 2.02625 14.8023 2.12313C14.8867 2.22002 14.9982 2.28937 15.1225 2.32225C15.2027 2.35184 15.2791 2.39106 15.3499 2.43907C15.4281 2.49541 15.4815 2.52925 15.5215 2.55468C15.5378 2.56499 15.5502 2.57203 15.5562 2.57598C15.5736 2.59488 15.6275 2.67905 15.6955 2.78556L15.717 2.8194C15.7873 2.93335 15.869 3.03984 15.9609 3.1372C15.9633 3.15455 15.9666 3.18307 15.9707 3.22928C15.985 3.36685 16.0141 3.50249 16.0575 3.63383C16.1032 3.78534 16.108 3.81901 16.0896 3.8599C16.0406 3.98463 16.0313 4.12148 16.0631 4.25169C16.0948 4.3819 16.1661 4.4991 16.2671 4.58724C16.3144 4.63122 16.3514 4.68521 16.3753 4.74528C16.362 4.83171 16.337 4.91595 16.3012 4.99574C16.2253 5.19501 16.0238 5.72445 16.5359 5.93076C16.572 5.93949 16.6052 5.9578 16.6318 5.98377C16.6584 6.00974 16.6775 6.04241 16.6871 6.07833C16.6462 6.08005 16.5952 6.07987 16.5457 6.08005C16.2841 6.07884 15.8427 6.07764 15.7106 6.4724C15.678 6.56963 15.667 6.60244 15.3662 6.67219C15.2782 6.68434 15.195 6.71979 15.1252 6.77488C15.0554 6.82997 15.0016 6.90269 14.9694 6.98552C14.9494 7.05973 14.9493 7.13792 14.9693 7.21215C14.9893 7.28637 15.0285 7.35399 15.0831 7.40811C14.9397 7.5889 14.8636 7.814 14.868 8.04475C14.873 8.12671 14.8948 8.20679 14.9319 8.28003C14.9691 8.35327 15.0208 8.41813 15.084 8.4706C15.0793 8.47566 15.0744 8.48053 15.0694 8.4852C14.9315 8.64153 14.8492 8.839 14.8351 9.04694C14.8248 9.11241 14.8109 9.17727 14.7935 9.24123C14.3527 9.35289 13.9555 9.80898 13.9457 10.2228C13.8736 10.2974 13.7755 10.3415 13.6717 10.3458C13.2344 10.3585 12.8822 10.8491 12.8822 11.247C12.8822 11.3258 12.692 11.5081 12.5393 11.6546C12.3693 11.8178 12.2305 12.0089 12.3631 12.2992C12.379 12.3291 12.3835 12.3638 12.3758 12.3967C12.3425 12.7127 12.3346 12.7365 12.2042 12.9087C12.133 13.0075 12.0859 13.1216 12.0668 13.2419C12.0476 13.3622 12.0569 13.4853 12.0939 13.6013C12.1059 13.644 12.1123 13.688 12.1128 13.7324C12.0664 13.9421 11.9805 14.3326 12.2203 14.5777C12.2877 14.6434 12.3709 14.6906 12.4618 14.7147C12.5528 14.7389 12.6484 14.7391 12.7395 14.7153C12.7964 14.704 12.8555 14.711 12.9082 14.7354C12.8984 15.0257 13.1921 15.2886 13.4561 15.5253L13.5041 15.5682C13.5226 15.5849 13.5357 15.5978 13.5443 15.6072C13.5418 15.6349 13.5403 15.6627 13.5396 15.6905C13.4506 15.8035 13.3325 15.8901 13.198 15.9412C13.1301 15.9537 13.066 15.9817 13.0107 16.0232C12.9555 16.0646 12.9106 16.1183 12.8796 16.18C12.8497 16.253 12.8374 16.3321 12.8438 16.4107C12.8501 16.4894 12.8749 16.5655 12.9162 16.6328C12.9334 16.6648 12.9468 16.6987 12.9563 16.7338C12.9217 16.8264 12.7443 16.8908 12.5725 16.953C12.5089 16.9756 12.4459 16.9996 12.3835 17.0251C11.975 17.1956 12.0357 17.6274 12.0614 17.8119C12.0673 17.8535 12.0757 17.9128 12.0762 17.9466C12.0602 17.9693 12.0448 17.9895 12.0305 18.0084C11.9492 18.1061 11.8881 18.219 11.8509 18.3405C11.8136 18.462 11.8008 18.5897 11.8134 18.7162C11.8157 18.8311 11.8312 18.9454 11.8596 19.0568C11.8647 19.0785 11.8716 19.1084 11.8719 19.1158C11.8577 19.1696 11.8349 19.2209 11.8043 19.2674C11.6953 19.4633 11.5925 19.6485 11.7459 19.8656C11.761 19.9332 11.7661 20.0027 11.761 20.0717C11.7707 20.1547 11.7632 20.2387 11.739 20.3186C11.7148 20.3985 11.6743 20.4725 11.6201 20.5361C11.5347 20.6448 11.4637 20.7642 11.4088 20.8912C11.3023 20.9202 11.1913 20.9289 11.0816 20.9169C10.9934 20.8992 10.9023 20.9034 10.8161 20.9291C10.7299 20.9548 10.6514 21.0012 10.5873 21.0643C10.5578 21.1005 10.5354 21.1418 10.5212 21.1863C10.3853 21.2314 10.2448 21.2616 10.1024 21.2765C10.0258 21.2823 9.952 21.3077 9.88805 21.3502C9.8241 21.3927 9.77215 21.451 9.73717 21.5194C9.62895 21.7389 9.73666 21.9506 9.84574 22.1397C9.76066 22.1109 9.6705 22.1001 9.58103 22.1081C9.49156 22.1161 9.40473 22.1426 9.32609 22.1861C9.26599 22.2158 9.19867 22.2279 9.13198 22.2208C9.37041 21.7389 9.04609 21.3653 8.90505 21.2029C8.88868 21.1842 8.87253 21.1653 8.85661 21.1463C8.89995 21.0857 8.94699 21.028 8.99747 20.9733L9.02959 20.9367C9.11841 20.8348 9.23917 20.6067 9.05107 20.2215C8.92451 19.9482 8.70507 19.7285 8.43178 19.6017C8.42251 19.5461 8.41443 19.4775 8.40825 19.4248C8.37527 19.1469 8.33833 18.8349 8.10934 18.6803C8.11291 18.5997 8.12117 18.5194 8.13408 18.4398C8.15204 18.3305 8.16237 18.2201 8.165 18.1094C8.17157 17.97 8.13014 17.8325 8.04761 17.7199C7.96508 17.6073 7.84645 17.5264 7.71149 17.4907C7.66073 17.4731 7.61191 17.4503 7.56582 17.4226C7.44986 17.3483 7.41327 17.2777 7.25935 16.9143L7.23324 16.853C7.40085 16.9797 7.60053 17.0569 7.80975 17.0762Z" fill="#667EEA"/>
</svg>
