<svg width="24" height="24" viewBox="0 0 24 24" fill="none" xmlns="http://www.w3.org/2000/svg">
<mask id="path-1-outside-1_146_35065" maskUnits="userSpaceOnUse" x="1.67307" y="0" width="20" height="24" fill="black">
<rect fill="white" x="1.67307" width="20" height="24"/>
<path fill-rule="evenodd" clip-rule="evenodd" d="M14.6351 21.0417C14.3723 21.1798 13.9648 21.4371 14.4184 21.6608C14.8485 21.8022 15.2025 21.6968 15.5825 21.8421C15.8593 21.9991 15.9428 22.3453 16.3 22.3969C16.5011 22.4484 16.6048 22.3482 16.7617 22.2885C16.9231 22.2852 17.0934 22.3313 17.2631 22.2922C17.9818 22.1486 17.7198 22.6545 18.1632 22.9022C18.9661 23.1929 18.3252 21.8267 18.6266 21.592C18.8197 21.4294 19.1231 21.3137 19.1846 21.0575C19.3001 20.3759 18.464 20.4314 18.228 20.3484C18.0543 20.2944 17.9126 20.153 17.6885 20.118C17.3432 20.0625 17.2333 20.2399 17.0029 20.4262C16.8188 20.5398 16.654 20.6443 16.5141 20.8216C15.9354 20.7245 15.9334 20.4448 15.6949 20.2089C15.1835 19.6026 13.688 20.5931 14.6351 21.0417ZM18.2236 22.4657C17.9486 21.8836 17.7642 21.8842 17.2217 21.94C17.0351 21.973 16.8598 21.9096 16.678 21.9374C16.4347 22.0144 16.4113 22.1236 16.212 21.9619C15.7067 21.3009 15.4491 21.4648 14.7876 21.3717C15.426 20.9533 15.2051 20.925 14.6947 20.6602C15.329 20.0091 15.5556 20.6415 15.6485 20.7365C15.8388 21.0088 16.2291 21.1584 16.5379 21.1869C16.7609 21.1938 16.8646 20.9065 17.0353 20.8296C17.2028 20.746 17.3224 20.623 17.4534 20.5157C17.6474 20.3784 17.8732 20.5932 18.0496 20.6667C18.1519 20.7116 18.2871 20.7237 18.4424 20.7506C18.572 20.7769 18.721 20.7917 18.8044 20.8637C18.9956 21.067 18.2536 21.2607 18.2151 21.5858C18.1453 21.8745 18.1943 22.1745 18.2236 22.4657ZM3.83333 15.8672C3.95032 16.1542 4.03676 16.4704 4.30118 16.6442C4.7892 16.9694 4.90343 17.0512 5.0533 17.5853C5.31636 18.5584 4.25888 19.1655 4.71228 20.1529C5.09167 20.7282 5.9881 20.2051 6.4829 20.5893C6.79432 20.8081 7.05951 21.2791 7.47632 21.2417C8.03574 21.1856 9.76471 20.6462 9.55618 20.1347C9.50465 19.9409 9.3283 19.8372 9.16346 19.7337C8.96768 19.6003 8.72706 19.5351 8.61892 19.3306C8.73888 18.8388 9.38182 18.5796 8.91746 18.0807C9.56402 17.7034 9.13085 17.5007 9.10339 17.2773C9.23156 16.8672 9.3872 16.5503 8.93189 16.3213C10.184 15.6676 9.81006 15.2778 9.44234 14.9833C9.69762 15.0005 10.2273 15.133 10.5803 14.9814C11.115 14.7053 10.9341 14.1502 10.4488 13.9158C10.3494 13.8416 10.2149 13.7952 10.2436 13.6693C10.608 13.6735 10.9947 13.9554 11.3783 13.927C12.2605 13.7766 11.7293 12.3667 11.7514 12.177C11.6898 11.6511 12.1314 11.3188 12.4725 11.4419C12.2772 11.9155 12.3174 12.1884 12.8495 12.1348C13.4891 12.559 13.4984 12.128 13.8653 11.6119C14.4233 10.6515 14.7728 10.0697 14.276 9.62502C13.7777 9.25424 13.1255 9.45274 12.5078 9.44058C12.1181 9.49132 12.298 8.75125 12.1643 8.50133C12.1089 8.30653 11.9363 8.20306 11.7294 8.1688C12.2303 7.87921 11.9719 7.13014 11.7771 6.79005C11.6037 6.49359 11.4365 6.3311 11.3484 5.94517C12.1051 6.1517 12.371 5.90883 12.6322 5.39652C12.7878 5.0812 13.0108 4.61657 13.0197 4.27255C13.075 3.60714 12.7467 3.04679 12.6858 2.34424C12.6417 1.70248 13.3375 1.15358 12.9211 1.00266C12.564 0.96684 12.1621 1.30241 11.8926 1.45515C11.5983 1.65575 11.1611 1.71812 10.8186 1.82145C9.68518 2.15224 9.88062 3.28941 9.49741 4.18458C9.2466 4.73445 9.01145 4.70121 8.63761 4.7378C7.6482 4.8075 6.01533 4.73939 5.44272 4.95144C4.75094 5.22384 4.53086 5.87539 4.22384 6.42338C4.0607 6.7143 3.82995 6.97099 3.68209 7.27157C3.41575 7.83278 3.5604 8.46978 3.35837 9.02583C3.10348 9.96727 2.67469 11.1961 3.12805 11.9904C3.31139 12.2739 3.65991 12.439 3.88024 12.6662C4.35009 13.5127 3.4501 13.1575 3.26574 13.6883C3.23483 13.7789 3.24197 13.8602 3.23971 13.9535C3.29686 14.81 2.71909 14.8164 2.67557 15.3938C2.63339 15.7423 3.13252 16.2604 3.47881 16.2001C3.61104 16.173 3.73536 15.9766 3.83333 15.8672ZM12.5514 1.47377C11.9838 2.48227 12.6916 3.29495 12.663 4.17852C12.6668 4.44447 12.5383 4.75851 12.4001 5.04751C11.9646 6.12066 11.5465 5.47025 11.0584 5.52949C10.7614 5.63939 11.1375 6.39719 11.1735 6.52384C11.407 6.82294 11.9983 7.76657 11.4078 7.92442C11.2669 7.98769 11.0657 7.89133 10.9944 8.07965C10.9119 8.59437 11.8198 8.44194 11.8196 8.60575C11.9051 8.8662 11.8537 9.12787 11.9425 9.40935C12.137 10.3284 14.1262 9.21845 14.1572 10.2015C14.0401 10.6937 13.4492 11.6256 13.2355 11.9275C13.0075 11.8068 12.9419 11.7543 12.7363 11.7784C12.8589 11.4336 12.9353 11.2748 12.6254 11.1156C11.876 10.8409 11.2999 11.5737 11.3976 12.2224C11.4154 12.4912 11.5034 12.7768 11.5305 13.0465C11.6233 14.206 10.5082 12.9913 10.014 13.3862C9.79235 13.5725 9.86014 13.9166 10.0626 14.0772C10.2358 14.2516 10.6395 14.3641 10.5209 14.5782C10.3518 14.8609 9.0245 14.5135 8.85347 14.5965C8.35242 14.8595 9.34097 15.2303 9.43599 15.4922C9.19623 15.8516 8.74385 16.0083 8.361 16.1546C8.36641 16.1517 8.38265 16.1452 8.38265 16.1452C8.26891 16.2076 8.22376 16.2657 8.24857 16.3736C8.35001 16.6632 8.93499 16.5361 8.87217 16.8094C8.72781 17.2803 8.67589 17.3353 8.89219 17.6601C8.71204 17.8024 8.47225 17.8833 8.51165 18.073C8.53316 18.1798 8.63155 18.2908 8.70072 18.384C8.7658 18.5577 8.44922 18.7985 8.38794 18.9395C7.89222 19.7403 8.9399 19.8876 9.20197 20.2178C8.95389 20.4392 8.55267 20.5584 8.18539 20.701C6.93458 21.1828 7.29439 20.5092 6.42262 20.1524C5.79543 19.9103 4.94369 20.3783 4.96153 19.6975C5.02648 18.8108 5.60129 18.5017 5.4344 17.6264C5.26428 16.7825 4.86494 16.5922 4.55747 16.3879C4.30836 16.2193 4.29675 16.0424 4.19385 15.7955C3.94441 15.2014 3.65044 15.5009 3.38599 15.8385C2.58887 15.3762 3.38716 15.0746 3.52325 14.5868C3.61591 14.3215 3.57971 14.0677 3.61008 13.802C3.65004 13.7327 3.71978 13.7253 3.79121 13.6876C4.23999 13.5308 4.39084 13.3411 4.37329 13.0277C4.13029 11.4676 2.56155 12.8571 3.6957 9.1589C4.09172 7.53966 3.55094 7.98526 4.51674 6.63813C4.95644 5.83086 5.12948 5.27229 5.98429 5.20261C6.76015 5.12528 7.4054 5.14742 8.09197 5.12456C8.49263 5.10948 9.10368 5.10207 9.33905 4.94727C10.2953 4.27703 9.8792 2.62944 10.7148 2.24999C10.8151 2.19883 10.9211 2.16506 11.0336 2.13397C11.9981 1.91842 12.0503 1.7525 12.5514 1.47377ZM10.2612 16.0903C9.17043 16.3043 9.4817 17.0426 9.64378 17.7946C9.65426 18.4258 10.0737 18.4662 10.5409 18.6083C11.0094 18.7273 10.4493 19.0684 10.9829 19.2871C11.1779 19.3526 11.3759 19.3271 11.4989 19.385C11.938 19.7986 12.0504 19.7178 12.4613 19.776C12.7174 20.6245 13.3203 20.4731 13.4321 19.6775C13.6312 19.3486 13.9282 18.5688 13.9505 17.9796C13.9788 17.6005 13.7307 17.4163 13.6891 17.1971C13.5584 15.7988 12.9023 15.6628 12.7849 15.7415C12.6387 15.8495 12.6904 16.1955 12.6475 16.2555C12.6102 16.4349 12.5242 16.7038 12.4387 16.8836C11.7895 16.6395 12.4779 16.5348 12.4762 16.1281C12.2694 15.049 11.2105 15.662 11.0831 15.6824C10.7138 15.8041 10.6093 15.7347 10.2612 16.0903ZM17.6649 14.9219C17.7134 14.4759 17.4896 14.3059 17.0872 14.4579C17.4226 14.1435 17.3203 13.9878 17.3965 13.74C17.4687 13.5962 17.6762 13.3686 17.526 13.2022C17.3495 13.0412 16.8643 13.1163 16.7071 13.1145C16.1519 13.1488 15.9719 13.3043 16.1746 13.8271C15.8649 14.1465 15.6659 14.0212 15.4991 14.4629C15.2868 14.4405 15.0955 14.421 14.8942 14.4666C13.1084 14.743 14.1742 14.8738 14.8006 15.6767C14.4502 16.8314 15.0029 16.5356 15.1563 16.9577C15.1224 17.1215 14.8899 17.1929 14.8625 17.3721C14.7645 17.6532 15.2699 18.0694 15.4143 18.1601C15.2111 18.4328 15.3759 18.642 15.6506 18.6405C15.9515 18.6255 16.1643 18.4036 16.304 18.4508C16.8286 18.6972 16.7883 18.7486 17.2135 18.6336C17.0135 19.1995 17.4979 19.2809 17.6959 19.6672C18.0679 20.3359 19.2557 20.2827 19.1618 19.5683C19.0803 19.0884 19.4788 19.0864 19.1471 18.6937C19.7447 18.3189 19.9141 18.3271 20.1901 18.1294C20.6194 17.7745 20.7649 17.3954 20.2386 17.118C19.9824 16.9539 19.4839 16.9226 19.4944 16.734C19.9575 16.0631 19.7189 15.9751 20.4633 15.8275C20.6745 15.8297 20.8623 15.9601 21.0453 15.8841C21.2853 15.7891 21.3888 15.5531 21.2842 15.3469C21.246 15.2556 21.2101 15.2193 21.2089 15.1234C21.2767 14.3301 20.7765 14.0319 20.7516 13.5159C20.7592 13.2562 20.8511 12.9867 20.7217 12.7374C20.5614 12.4263 20.2526 12.4982 20.0633 12.3199C19.2847 11.54 18.1596 12.6869 18.127 12.9595C18.0229 13.4994 18.5625 13.2873 18.49 13.7696C18.4803 14.0892 18.5991 14.3262 18.6334 14.6907C18.6633 14.8983 18.6021 15.1903 18.364 15.1527C18.0255 14.9867 17.9794 14.8492 17.6649 14.9219ZM13.0199 16.2244C13.2936 16.5339 13.2566 16.9637 13.3566 17.3509C13.4353 17.5927 13.6274 17.7764 13.5926 17.9945C13.5529 18.6245 13.25 19.2313 13.0697 19.6341C13.024 19.7526 13.0585 19.8888 12.9491 19.9743C12.6407 19.2717 12.6888 19.4753 12.0896 19.3664C12.0256 19.3484 11.9874 19.3327 11.9307 19.2871C11.5687 18.9072 11.4499 19.0448 11.0837 18.94C11.281 18.1903 10.3126 18.286 10.0795 18.0547C10.0363 18.013 10.019 17.9497 10.0112 17.8778C9.96622 17.1144 9.42009 16.5903 10.4505 16.4084C10.7472 16.1088 10.8035 16.1328 11.0359 16.0716C11.3623 15.9985 11.7371 15.7602 11.9385 15.8784C12.3399 16.1631 11.8872 16.2835 11.8064 16.5633C11.6047 17.0332 12.5049 17.3498 12.6208 17.2391C12.8458 17.0396 12.9667 16.4662 13.0199 16.2244ZM20.9607 15.5118C20.8552 15.5968 20.7288 15.482 20.6082 15.4779C20.1376 15.4365 19.5871 15.6762 19.4324 16.1381C19.3485 16.3808 19.1022 16.5447 19.1296 16.7871C19.2354 17.3399 19.8972 17.2306 20.2067 17.5415C19.9996 18.021 19.3946 18.0407 19.0257 18.3542C18.5101 18.534 18.6465 18.6625 18.9162 18.9826C18.7068 19.31 18.8267 19.4611 18.8001 19.6916C18.6922 19.8618 18.1944 19.7419 18.121 19.6223C17.9412 19.385 17.7434 19.133 17.5237 18.9076C17.69 18.2906 17.4165 18.1644 16.8997 18.3335C16.3027 18.0795 16.3543 17.9711 15.7877 18.2389C15.9343 17.9051 15.3422 17.7875 15.2222 17.4462C16.0107 16.7504 15.0026 16.4322 15.0366 16.2851C15.0187 16.1189 15.1365 15.94 15.1536 15.7655C15.2348 15.4186 14.7111 15.103 14.5301 14.9015V14.9014C15.4462 14.6823 15.4867 14.9231 15.7048 14.7602C15.8308 14.6828 15.8355 14.5338 15.9326 14.4291C16.3871 14.1581 16.6775 14.0546 16.4546 13.5086C16.6636 13.4699 16.9089 13.4563 17.1377 13.4633C16.9432 13.7505 17.0621 13.9589 16.9317 14.0976C16.4522 14.5134 16.7365 15.0252 17.3109 14.7738C17.276 15.2693 17.3893 15.355 17.8367 15.2638C18.5687 15.83 19.1302 15.3478 18.9705 14.5018C18.7215 13.4477 19.0079 13.4067 18.472 13.0672C18.5786 12.7552 19.2086 12.4119 19.393 12.4136C19.655 12.3755 19.7879 12.5865 19.9622 12.6904C20.156 12.8196 20.4027 12.7708 20.4265 12.9838C20.259 14.2836 20.9247 14.2195 20.8512 15.1823C20.8549 15.3082 20.9169 15.3853 20.9607 15.5118ZM15.0135 4.44692C15.4289 4.4385 15.8279 4.34052 15.595 3.88002C15.4119 3.49512 15.1431 3.48112 14.8478 3.57079C14.4861 3.64997 14.2267 3.54535 13.9819 3.8232C13.6486 4.18564 13.7989 4.20301 13.9301 4.47498C14.2643 5.20833 14.8581 5.16236 15.0135 4.44692ZM15.284 4.06761C14.8987 4.06919 14.69 4.11472 14.6281 4.47083C14.5338 4.94158 14.2341 4.28256 14.1657 4.15815C14.3335 3.88537 14.5603 3.99421 14.7984 3.94824C15.0948 3.88414 15.1725 3.80267 15.284 4.06761Z"/>
</mask>
<path fill-rule="evenodd" clip-rule="evenodd" d="M14.6351 21.0417C14.3723 21.1798 13.9648 21.4371 14.4184 21.6608C14.8485 21.8022 15.2025 21.6968 15.5825 21.8421C15.8593 21.9991 15.9428 22.3453 16.3 22.3969C16.5011 22.4484 16.6048 22.3482 16.7617 22.2885C16.9231 22.2852 17.0934 22.3313 17.2631 22.2922C17.9818 22.1486 17.7198 22.6545 18.1632 22.9022C18.9661 23.1929 18.3252 21.8267 18.6266 21.592C18.8197 21.4294 19.1231 21.3137 19.1846 21.0575C19.3001 20.3759 18.464 20.4314 18.228 20.3484C18.0543 20.2944 17.9126 20.153 17.6885 20.118C17.3432 20.0625 17.2333 20.2399 17.0029 20.4262C16.8188 20.5398 16.654 20.6443 16.5141 20.8216C15.9354 20.7245 15.9334 20.4448 15.6949 20.2089C15.1835 19.6026 13.688 20.5931 14.6351 21.0417ZM18.2236 22.4657C17.9486 21.8836 17.7642 21.8842 17.2217 21.94C17.0351 21.973 16.8598 21.9096 16.678 21.9374C16.4347 22.0144 16.4113 22.1236 16.212 21.9619C15.7067 21.3009 15.4491 21.4648 14.7876 21.3717C15.426 20.9533 15.2051 20.925 14.6947 20.6602C15.329 20.0091 15.5556 20.6415 15.6485 20.7365C15.8388 21.0088 16.2291 21.1584 16.5379 21.1869C16.7609 21.1938 16.8646 20.9065 17.0353 20.8296C17.2028 20.746 17.3224 20.623 17.4534 20.5157C17.6474 20.3784 17.8732 20.5932 18.0496 20.6667C18.1519 20.7116 18.2871 20.7237 18.4424 20.7506C18.572 20.7769 18.721 20.7917 18.8044 20.8637C18.9956 21.067 18.2536 21.2607 18.2151 21.5858C18.1453 21.8745 18.1943 22.1745 18.2236 22.4657ZM3.83333 15.8672C3.95032 16.1542 4.03676 16.4704 4.30118 16.6442C4.7892 16.9694 4.90343 17.0512 5.0533 17.5853C5.31636 18.5584 4.25888 19.1655 4.71228 20.1529C5.09167 20.7282 5.9881 20.2051 6.4829 20.5893C6.79432 20.8081 7.05951 21.2791 7.47632 21.2417C8.03574 21.1856 9.76471 20.6462 9.55618 20.1347C9.50465 19.9409 9.3283 19.8372 9.16346 19.7337C8.96768 19.6003 8.72706 19.5351 8.61892 19.3306C8.73888 18.8388 9.38182 18.5796 8.91746 18.0807C9.56402 17.7034 9.13085 17.5007 9.10339 17.2773C9.23156 16.8672 9.3872 16.5503 8.93189 16.3213C10.184 15.6676 9.81006 15.2778 9.44234 14.9833C9.69762 15.0005 10.2273 15.133 10.5803 14.9814C11.115 14.7053 10.9341 14.1502 10.4488 13.9158C10.3494 13.8416 10.2149 13.7952 10.2436 13.6693C10.608 13.6735 10.9947 13.9554 11.3783 13.927C12.2605 13.7766 11.7293 12.3667 11.7514 12.177C11.6898 11.6511 12.1314 11.3188 12.4725 11.4419C12.2772 11.9155 12.3174 12.1884 12.8495 12.1348C13.4891 12.559 13.4984 12.128 13.8653 11.6119C14.4233 10.6515 14.7728 10.0697 14.276 9.62502C13.7777 9.25424 13.1255 9.45274 12.5078 9.44058C12.1181 9.49132 12.298 8.75125 12.1643 8.50133C12.1089 8.30653 11.9363 8.20306 11.7294 8.1688C12.2303 7.87921 11.9719 7.13014 11.7771 6.79005C11.6037 6.49359 11.4365 6.3311 11.3484 5.94517C12.1051 6.1517 12.371 5.90883 12.6322 5.39652C12.7878 5.0812 13.0108 4.61657 13.0197 4.27255C13.075 3.60714 12.7467 3.04679 12.6858 2.34424C12.6417 1.70248 13.3375 1.15358 12.9211 1.00266C12.564 0.96684 12.1621 1.30241 11.8926 1.45515C11.5983 1.65575 11.1611 1.71812 10.8186 1.82145C9.68518 2.15224 9.88062 3.28941 9.49741 4.18458C9.2466 4.73445 9.01145 4.70121 8.63761 4.7378C7.6482 4.8075 6.01533 4.73939 5.44272 4.95144C4.75094 5.22384 4.53086 5.87539 4.22384 6.42338C4.0607 6.7143 3.82995 6.97099 3.68209 7.27157C3.41575 7.83278 3.5604 8.46978 3.35837 9.02583C3.10348 9.96727 2.67469 11.1961 3.12805 11.9904C3.31139 12.2739 3.65991 12.439 3.88024 12.6662C4.35009 13.5127 3.4501 13.1575 3.26574 13.6883C3.23483 13.7789 3.24197 13.8602 3.23971 13.9535C3.29686 14.81 2.71909 14.8164 2.67557 15.3938C2.63339 15.7423 3.13252 16.2604 3.47881 16.2001C3.61104 16.173 3.73536 15.9766 3.83333 15.8672ZM12.5514 1.47377C11.9838 2.48227 12.6916 3.29495 12.663 4.17852C12.6668 4.44447 12.5383 4.75851 12.4001 5.04751C11.9646 6.12066 11.5465 5.47025 11.0584 5.52949C10.7614 5.63939 11.1375 6.39719 11.1735 6.52384C11.407 6.82294 11.9983 7.76657 11.4078 7.92442C11.2669 7.98769 11.0657 7.89133 10.9944 8.07965C10.9119 8.59437 11.8198 8.44194 11.8196 8.60575C11.9051 8.8662 11.8537 9.12787 11.9425 9.40935C12.137 10.3284 14.1262 9.21845 14.1572 10.2015C14.0401 10.6937 13.4492 11.6256 13.2355 11.9275C13.0075 11.8068 12.9419 11.7543 12.7363 11.7784C12.8589 11.4336 12.9353 11.2748 12.6254 11.1156C11.876 10.8409 11.2999 11.5737 11.3976 12.2224C11.4154 12.4912 11.5034 12.7768 11.5305 13.0465C11.6233 14.206 10.5082 12.9913 10.014 13.3862C9.79235 13.5725 9.86014 13.9166 10.0626 14.0772C10.2358 14.2516 10.6395 14.3641 10.5209 14.5782C10.3518 14.8609 9.0245 14.5135 8.85347 14.5965C8.35242 14.8595 9.34097 15.2303 9.43599 15.4922C9.19623 15.8516 8.74385 16.0083 8.361 16.1546C8.36641 16.1517 8.38265 16.1452 8.38265 16.1452C8.26891 16.2076 8.22376 16.2657 8.24857 16.3736C8.35001 16.6632 8.93499 16.5361 8.87217 16.8094C8.72781 17.2803 8.67589 17.3353 8.89219 17.6601C8.71204 17.8024 8.47225 17.8833 8.51165 18.073C8.53316 18.1798 8.63155 18.2908 8.70072 18.384C8.7658 18.5577 8.44922 18.7985 8.38794 18.9395C7.89222 19.7403 8.9399 19.8876 9.20197 20.2178C8.95389 20.4392 8.55267 20.5584 8.18539 20.701C6.93458 21.1828 7.29439 20.5092 6.42262 20.1524C5.79543 19.9103 4.94369 20.3783 4.96153 19.6975C5.02648 18.8108 5.60129 18.5017 5.4344 17.6264C5.26428 16.7825 4.86494 16.5922 4.55747 16.3879C4.30836 16.2193 4.29675 16.0424 4.19385 15.7955C3.94441 15.2014 3.65044 15.5009 3.38599 15.8385C2.58887 15.3762 3.38716 15.0746 3.52325 14.5868C3.61591 14.3215 3.57971 14.0677 3.61008 13.802C3.65004 13.7327 3.71978 13.7253 3.79121 13.6876C4.23999 13.5308 4.39084 13.3411 4.37329 13.0277C4.13029 11.4676 2.56155 12.8571 3.6957 9.1589C4.09172 7.53966 3.55094 7.98526 4.51674 6.63813C4.95644 5.83086 5.12948 5.27229 5.98429 5.20261C6.76015 5.12528 7.4054 5.14742 8.09197 5.12456C8.49263 5.10948 9.10368 5.10207 9.33905 4.94727C10.2953 4.27703 9.8792 2.62944 10.7148 2.24999C10.8151 2.19883 10.9211 2.16506 11.0336 2.13397C11.9981 1.91842 12.0503 1.7525 12.5514 1.47377ZM10.2612 16.0903C9.17043 16.3043 9.4817 17.0426 9.64378 17.7946C9.65426 18.4258 10.0737 18.4662 10.5409 18.6083C11.0094 18.7273 10.4493 19.0684 10.9829 19.2871C11.1779 19.3526 11.3759 19.3271 11.4989 19.385C11.938 19.7986 12.0504 19.7178 12.4613 19.776C12.7174 20.6245 13.3203 20.4731 13.4321 19.6775C13.6312 19.3486 13.9282 18.5688 13.9505 17.9796C13.9788 17.6005 13.7307 17.4163 13.6891 17.1971C13.5584 15.7988 12.9023 15.6628 12.7849 15.7415C12.6387 15.8495 12.6904 16.1955 12.6475 16.2555C12.6102 16.4349 12.5242 16.7038 12.4387 16.8836C11.7895 16.6395 12.4779 16.5348 12.4762 16.1281C12.2694 15.049 11.2105 15.662 11.0831 15.6824C10.7138 15.8041 10.6093 15.7347 10.2612 16.0903ZM17.6649 14.9219C17.7134 14.4759 17.4896 14.3059 17.0872 14.4579C17.4226 14.1435 17.3203 13.9878 17.3965 13.74C17.4687 13.5962 17.6762 13.3686 17.526 13.2022C17.3495 13.0412 16.8643 13.1163 16.7071 13.1145C16.1519 13.1488 15.9719 13.3043 16.1746 13.8271C15.8649 14.1465 15.6659 14.0212 15.4991 14.4629C15.2868 14.4405 15.0955 14.421 14.8942 14.4666C13.1084 14.743 14.1742 14.8738 14.8006 15.6767C14.4502 16.8314 15.0029 16.5356 15.1563 16.9577C15.1224 17.1215 14.8899 17.1929 14.8625 17.3721C14.7645 17.6532 15.2699 18.0694 15.4143 18.1601C15.2111 18.4328 15.3759 18.642 15.6506 18.6405C15.9515 18.6255 16.1643 18.4036 16.304 18.4508C16.8286 18.6972 16.7883 18.7486 17.2135 18.6336C17.0135 19.1995 17.4979 19.2809 17.6959 19.6672C18.0679 20.3359 19.2557 20.2827 19.1618 19.5683C19.0803 19.0884 19.4788 19.0864 19.1471 18.6937C19.7447 18.3189 19.9141 18.3271 20.1901 18.1294C20.6194 17.7745 20.7649 17.3954 20.2386 17.118C19.9824 16.9539 19.4839 16.9226 19.4944 16.734C19.9575 16.0631 19.7189 15.9751 20.4633 15.8275C20.6745 15.8297 20.8623 15.9601 21.0453 15.8841C21.2853 15.7891 21.3888 15.5531 21.2842 15.3469C21.246 15.2556 21.2101 15.2193 21.2089 15.1234C21.2767 14.3301 20.7765 14.0319 20.7516 13.5159C20.7592 13.2562 20.8511 12.9867 20.7217 12.7374C20.5614 12.4263 20.2526 12.4982 20.0633 12.3199C19.2847 11.54 18.1596 12.6869 18.127 12.9595C18.0229 13.4994 18.5625 13.2873 18.49 13.7696C18.4803 14.0892 18.5991 14.3262 18.6334 14.6907C18.6633 14.8983 18.6021 15.1903 18.364 15.1527C18.0255 14.9867 17.9794 14.8492 17.6649 14.9219ZM13.0199 16.2244C13.2936 16.5339 13.2566 16.9637 13.3566 17.3509C13.4353 17.5927 13.6274 17.7764 13.5926 17.9945C13.5529 18.6245 13.25 19.2313 13.0697 19.6341C13.024 19.7526 13.0585 19.8888 12.9491 19.9743C12.6407 19.2717 12.6888 19.4753 12.0896 19.3664C12.0256 19.3484 11.9874 19.3327 11.9307 19.2871C11.5687 18.9072 11.4499 19.0448 11.0837 18.94C11.281 18.1903 10.3126 18.286 10.0795 18.0547C10.0363 18.013 10.019 17.9497 10.0112 17.8778C9.96622 17.1144 9.42009 16.5903 10.4505 16.4084C10.7472 16.1088 10.8035 16.1328 11.0359 16.0716C11.3623 15.9985 11.7371 15.7602 11.9385 15.8784C12.3399 16.1631 11.8872 16.2835 11.8064 16.5633C11.6047 17.0332 12.5049 17.3498 12.6208 17.2391C12.8458 17.0396 12.9667 16.4662 13.0199 16.2244ZM20.9607 15.5118C20.8552 15.5968 20.7288 15.482 20.6082 15.4779C20.1376 15.4365 19.5871 15.6762 19.4324 16.1381C19.3485 16.3808 19.1022 16.5447 19.1296 16.7871C19.2354 17.3399 19.8972 17.2306 20.2067 17.5415C19.9996 18.021 19.3946 18.0407 19.0257 18.3542C18.5101 18.534 18.6465 18.6625 18.9162 18.9826C18.7068 19.31 18.8267 19.4611 18.8001 19.6916C18.6922 19.8618 18.1944 19.7419 18.121 19.6223C17.9412 19.385 17.7434 19.133 17.5237 18.9076C17.69 18.2906 17.4165 18.1644 16.8997 18.3335C16.3027 18.0795 16.3543 17.9711 15.7877 18.2389C15.9343 17.9051 15.3422 17.7875 15.2222 17.4462C16.0107 16.7504 15.0026 16.4322 15.0366 16.2851C15.0187 16.1189 15.1365 15.94 15.1536 15.7655C15.2348 15.4186 14.7111 15.103 14.5301 14.9015V14.9014C15.4462 14.6823 15.4867 14.9231 15.7048 14.7602C15.8308 14.6828 15.8355 14.5338 15.9326 14.4291C16.3871 14.1581 16.6775 14.0546 16.4546 13.5086C16.6636 13.4699 16.9089 13.4563 17.1377 13.4633C16.9432 13.7505 17.0621 13.9589 16.9317 14.0976C16.4522 14.5134 16.7365 15.0252 17.3109 14.7738C17.276 15.2693 17.3893 15.355 17.8367 15.2638C18.5687 15.83 19.1302 15.3478 18.9705 14.5018C18.7215 13.4477 19.0079 13.4067 18.472 13.0672C18.5786 12.7552 19.2086 12.4119 19.393 12.4136C19.655 12.3755 19.7879 12.5865 19.9622 12.6904C20.156 12.8196 20.4027 12.7708 20.4265 12.9838C20.259 14.2836 20.9247 14.2195 20.8512 15.1823C20.8549 15.3082 20.9169 15.3853 20.9607 15.5118ZM15.0135 4.44692C15.4289 4.4385 15.8279 4.34052 15.595 3.88002C15.4119 3.49512 15.1431 3.48112 14.8478 3.57079C14.4861 3.64997 14.2267 3.54535 13.9819 3.8232C13.6486 4.18564 13.7989 4.20301 13.9301 4.47498C14.2643 5.20833 14.8581 5.16236 15.0135 4.44692ZM15.284 4.06761C14.8987 4.06919 14.69 4.11472 14.6281 4.47083C14.5338 4.94158 14.2341 4.28256 14.1657 4.15815C14.3335 3.88537 14.5603 3.99421 14.7984 3.94824C15.0948 3.88414 15.1725 3.80267 15.284 4.06761Z" fill="#667EEA"/>
<path fill-rule="evenodd" clip-rule="evenodd" d="M14.6351 21.0417C14.3723 21.1798 13.9648 21.4371 14.4184 21.6608C14.8485 21.8022 15.2025 21.6968 15.5825 21.8421C15.8593 21.9991 15.9428 22.3453 16.3 22.3969C16.5011 22.4484 16.6048 22.3482 16.7617 22.2885C16.9231 22.2852 17.0934 22.3313 17.2631 22.2922C17.9818 22.1486 17.7198 22.6545 18.1632 22.9022C18.9661 23.1929 18.3252 21.8267 18.6266 21.592C18.8197 21.4294 19.1231 21.3137 19.1846 21.0575C19.3001 20.3759 18.464 20.4314 18.228 20.3484C18.0543 20.2944 17.9126 20.153 17.6885 20.118C17.3432 20.0625 17.2333 20.2399 17.0029 20.4262C16.8188 20.5398 16.654 20.6443 16.5141 20.8216C15.9354 20.7245 15.9334 20.4448 15.6949 20.2089C15.1835 19.6026 13.688 20.5931 14.6351 21.0417ZM18.2236 22.4657C17.9486 21.8836 17.7642 21.8842 17.2217 21.94C17.0351 21.973 16.8598 21.9096 16.678 21.9374C16.4347 22.0144 16.4113 22.1236 16.212 21.9619C15.7067 21.3009 15.4491 21.4648 14.7876 21.3717C15.426 20.9533 15.2051 20.925 14.6947 20.6602C15.329 20.0091 15.5556 20.6415 15.6485 20.7365C15.8388 21.0088 16.2291 21.1584 16.5379 21.1869C16.7609 21.1938 16.8646 20.9065 17.0353 20.8296C17.2028 20.746 17.3224 20.623 17.4534 20.5157C17.6474 20.3784 17.8732 20.5932 18.0496 20.6667C18.1519 20.7116 18.2871 20.7237 18.4424 20.7506C18.572 20.7769 18.721 20.7917 18.8044 20.8637C18.9956 21.067 18.2536 21.2607 18.2151 21.5858C18.1453 21.8745 18.1943 22.1745 18.2236 22.4657ZM3.83333 15.8672C3.95032 16.1542 4.03676 16.4704 4.30118 16.6442C4.7892 16.9694 4.90343 17.0512 5.0533 17.5853C5.31636 18.5584 4.25888 19.1655 4.71228 20.1529C5.09167 20.7282 5.9881 20.2051 6.4829 20.5893C6.79432 20.8081 7.05951 21.2791 7.47632 21.2417C8.03574 21.1856 9.76471 20.6462 9.55618 20.1347C9.50465 19.9409 9.3283 19.8372 9.16346 19.7337C8.96768 19.6003 8.72706 19.5351 8.61892 19.3306C8.73888 18.8388 9.38182 18.5796 8.91746 18.0807C9.56402 17.7034 9.13085 17.5007 9.10339 17.2773C9.23156 16.8672 9.3872 16.5503 8.93189 16.3213C10.184 15.6676 9.81006 15.2778 9.44234 14.9833C9.69762 15.0005 10.2273 15.133 10.5803 14.9814C11.115 14.7053 10.9341 14.1502 10.4488 13.9158C10.3494 13.8416 10.2149 13.7952 10.2436 13.6693C10.608 13.6735 10.9947 13.9554 11.3783 13.927C12.2605 13.7766 11.7293 12.3667 11.7514 12.177C11.6898 11.6511 12.1314 11.3188 12.4725 11.4419C12.2772 11.9155 12.3174 12.1884 12.8495 12.1348C13.4891 12.559 13.4984 12.128 13.8653 11.6119C14.4233 10.6515 14.7728 10.0697 14.276 9.62502C13.7777 9.25424 13.1255 9.45274 12.5078 9.44058C12.1181 9.49132 12.298 8.75125 12.1643 8.50133C12.1089 8.30653 11.9363 8.20306 11.7294 8.1688C12.2303 7.87921 11.9719 7.13014 11.7771 6.79005C11.6037 6.49359 11.4365 6.3311 11.3484 5.94517C12.1051 6.1517 12.371 5.90883 12.6322 5.39652C12.7878 5.0812 13.0108 4.61657 13.0197 4.27255C13.075 3.60714 12.7467 3.04679 12.6858 2.34424C12.6417 1.70248 13.3375 1.15358 12.9211 1.00266C12.564 0.96684 12.1621 1.30241 11.8926 1.45515C11.5983 1.65575 11.1611 1.71812 10.8186 1.82145C9.68518 2.15224 9.88062 3.28941 9.49741 4.18458C9.2466 4.73445 9.01145 4.70121 8.63761 4.7378C7.6482 4.8075 6.01533 4.73939 5.44272 4.95144C4.75094 5.22384 4.53086 5.87539 4.22384 6.42338C4.0607 6.7143 3.82995 6.97099 3.68209 7.27157C3.41575 7.83278 3.5604 8.46978 3.35837 9.02583C3.10348 9.96727 2.67469 11.1961 3.12805 11.9904C3.31139 12.2739 3.65991 12.439 3.88024 12.6662C4.35009 13.5127 3.4501 13.1575 3.26574 13.6883C3.23483 13.7789 3.24197 13.8602 3.23971 13.9535C3.29686 14.81 2.71909 14.8164 2.67557 15.3938C2.63339 15.7423 3.13252 16.2604 3.47881 16.2001C3.61104 16.173 3.73536 15.9766 3.83333 15.8672ZM12.5514 1.47377C11.9838 2.48227 12.6916 3.29495 12.663 4.17852C12.6668 4.44447 12.5383 4.75851 12.4001 5.04751C11.9646 6.12066 11.5465 5.47025 11.0584 5.52949C10.7614 5.63939 11.1375 6.39719 11.1735 6.52384C11.407 6.82294 11.9983 7.76657 11.4078 7.92442C11.2669 7.98769 11.0657 7.89133 10.9944 8.07965C10.9119 8.59437 11.8198 8.44194 11.8196 8.60575C11.9051 8.8662 11.8537 9.12787 11.9425 9.40935C12.137 10.3284 14.1262 9.21845 14.1572 10.2015C14.0401 10.6937 13.4492 11.6256 13.2355 11.9275C13.0075 11.8068 12.9419 11.7543 12.7363 11.7784C12.8589 11.4336 12.9353 11.2748 12.6254 11.1156C11.876 10.8409 11.2999 11.5737 11.3976 12.2224C11.4154 12.4912 11.5034 12.7768 11.5305 13.0465C11.6233 14.206 10.5082 12.9913 10.014 13.3862C9.79235 13.5725 9.86014 13.9166 10.0626 14.0772C10.2358 14.2516 10.6395 14.3641 10.5209 14.5782C10.3518 14.8609 9.0245 14.5135 8.85347 14.5965C8.35242 14.8595 9.34097 15.2303 9.43599 15.4922C9.19623 15.8516 8.74385 16.0083 8.361 16.1546C8.36641 16.1517 8.38265 16.1452 8.38265 16.1452C8.26891 16.2076 8.22376 16.2657 8.24857 16.3736C8.35001 16.6632 8.93499 16.5361 8.87217 16.8094C8.72781 17.2803 8.67589 17.3353 8.89219 17.6601C8.71204 17.8024 8.47225 17.8833 8.51165 18.073C8.53316 18.1798 8.63155 18.2908 8.70072 18.384C8.7658 18.5577 8.44922 18.7985 8.38794 18.9395C7.89222 19.7403 8.9399 19.8876 9.20197 20.2178C8.95389 20.4392 8.55267 20.5584 8.18539 20.701C6.93458 21.1828 7.29439 20.5092 6.42262 20.1524C5.79543 19.9103 4.94369 20.3783 4.96153 19.6975C5.02648 18.8108 5.60129 18.5017 5.4344 17.6264C5.26428 16.7825 4.86494 16.5922 4.55747 16.3879C4.30836 16.2193 4.29675 16.0424 4.19385 15.7955C3.94441 15.2014 3.65044 15.5009 3.38599 15.8385C2.58887 15.3762 3.38716 15.0746 3.52325 14.5868C3.61591 14.3215 3.57971 14.0677 3.61008 13.802C3.65004 13.7327 3.71978 13.7253 3.79121 13.6876C4.23999 13.5308 4.39084 13.3411 4.37329 13.0277C4.13029 11.4676 2.56155 12.8571 3.6957 9.1589C4.09172 7.53966 3.55094 7.98526 4.51674 6.63813C4.95644 5.83086 5.12948 5.27229 5.98429 5.20261C6.76015 5.12528 7.4054 5.14742 8.09197 5.12456C8.49263 5.10948 9.10368 5.10207 9.33905 4.94727C10.2953 4.27703 9.8792 2.62944 10.7148 2.24999C10.8151 2.19883 10.9211 2.16506 11.0336 2.13397C11.9981 1.91842 12.0503 1.7525 12.5514 1.47377ZM10.2612 16.0903C9.17043 16.3043 9.4817 17.0426 9.64378 17.7946C9.65426 18.4258 10.0737 18.4662 10.5409 18.6083C11.0094 18.7273 10.4493 19.0684 10.9829 19.2871C11.1779 19.3526 11.3759 19.3271 11.4989 19.385C11.938 19.7986 12.0504 19.7178 12.4613 19.776C12.7174 20.6245 13.3203 20.4731 13.4321 19.6775C13.6312 19.3486 13.9282 18.5688 13.9505 17.9796C13.9788 17.6005 13.7307 17.4163 13.6891 17.1971C13.5584 15.7988 12.9023 15.6628 12.7849 15.7415C12.6387 15.8495 12.6904 16.1955 12.6475 16.2555C12.6102 16.4349 12.5242 16.7038 12.4387 16.8836C11.7895 16.6395 12.4779 16.5348 12.4762 16.1281C12.2694 15.049 11.2105 15.662 11.0831 15.6824C10.7138 15.8041 10.6093 15.7347 10.2612 16.0903ZM17.6649 14.9219C17.7134 14.4759 17.4896 14.3059 17.0872 14.4579C17.4226 14.1435 17.3203 13.9878 17.3965 13.74C17.4687 13.5962 17.6762 13.3686 17.526 13.2022C17.3495 13.0412 16.8643 13.1163 16.7071 13.1145C16.1519 13.1488 15.9719 13.3043 16.1746 13.8271C15.8649 14.1465 15.6659 14.0212 15.4991 14.4629C15.2868 14.4405 15.0955 14.421 14.8942 14.4666C13.1084 14.743 14.1742 14.8738 14.8006 15.6767C14.4502 16.8314 15.0029 16.5356 15.1563 16.9577C15.1224 17.1215 14.8899 17.1929 14.8625 17.3721C14.7645 17.6532 15.2699 18.0694 15.4143 18.1601C15.2111 18.4328 15.3759 18.642 15.6506 18.6405C15.9515 18.6255 16.1643 18.4036 16.304 18.4508C16.8286 18.6972 16.7883 18.7486 17.2135 18.6336C17.0135 19.1995 17.4979 19.2809 17.6959 19.6672C18.0679 20.3359 19.2557 20.2827 19.1618 19.5683C19.0803 19.0884 19.4788 19.0864 19.1471 18.6937C19.7447 18.3189 19.9141 18.3271 20.1901 18.1294C20.6194 17.7745 20.7649 17.3954 20.2386 17.118C19.9824 16.9539 19.4839 16.9226 19.4944 16.734C19.9575 16.0631 19.7189 15.9751 20.4633 15.8275C20.6745 15.8297 20.8623 15.9601 21.0453 15.8841C21.2853 15.7891 21.3888 15.5531 21.2842 15.3469C21.246 15.2556 21.2101 15.2193 21.2089 15.1234C21.2767 14.3301 20.7765 14.0319 20.7516 13.5159C20.7592 13.2562 20.8511 12.9867 20.7217 12.7374C20.5614 12.4263 20.2526 12.4982 20.0633 12.3199C19.2847 11.54 18.1596 12.6869 18.127 12.9595C18.0229 13.4994 18.5625 13.2873 18.49 13.7696C18.4803 14.0892 18.5991 14.3262 18.6334 14.6907C18.6633 14.8983 18.6021 15.1903 18.364 15.1527C18.0255 14.9867 17.9794 14.8492 17.6649 14.9219ZM13.0199 16.2244C13.2936 16.5339 13.2566 16.9637 13.3566 17.3509C13.4353 17.5927 13.6274 17.7764 13.5926 17.9945C13.5529 18.6245 13.25 19.2313 13.0697 19.6341C13.024 19.7526 13.0585 19.8888 12.9491 19.9743C12.6407 19.2717 12.6888 19.4753 12.0896 19.3664C12.0256 19.3484 11.9874 19.3327 11.9307 19.2871C11.5687 18.9072 11.4499 19.0448 11.0837 18.94C11.281 18.1903 10.3126 18.286 10.0795 18.0547C10.0363 18.013 10.019 17.9497 10.0112 17.8778C9.96622 17.1144 9.42009 16.5903 10.4505 16.4084C10.7472 16.1088 10.8035 16.1328 11.0359 16.0716C11.3623 15.9985 11.7371 15.7602 11.9385 15.8784C12.3399 16.1631 11.8872 16.2835 11.8064 16.5633C11.6047 17.0332 12.5049 17.3498 12.6208 17.2391C12.8458 17.0396 12.9667 16.4662 13.0199 16.2244ZM20.9607 15.5118C20.8552 15.5968 20.7288 15.482 20.6082 15.4779C20.1376 15.4365 19.5871 15.6762 19.4324 16.1381C19.3485 16.3808 19.1022 16.5447 19.1296 16.7871C19.2354 17.3399 19.8972 17.2306 20.2067 17.5415C19.9996 18.021 19.3946 18.0407 19.0257 18.3542C18.5101 18.534 18.6465 18.6625 18.9162 18.9826C18.7068 19.31 18.8267 19.4611 18.8001 19.6916C18.6922 19.8618 18.1944 19.7419 18.121 19.6223C17.9412 19.385 17.7434 19.133 17.5237 18.9076C17.69 18.2906 17.4165 18.1644 16.8997 18.3335C16.3027 18.0795 16.3543 17.9711 15.7877 18.2389C15.9343 17.9051 15.3422 17.7875 15.2222 17.4462C16.0107 16.7504 15.0026 16.4322 15.0366 16.2851C15.0187 16.1189 15.1365 15.94 15.1536 15.7655C15.2348 15.4186 14.7111 15.103 14.5301 14.9015V14.9014C15.4462 14.6823 15.4867 14.9231 15.7048 14.7602C15.8308 14.6828 15.8355 14.5338 15.9326 14.4291C16.3871 14.1581 16.6775 14.0546 16.4546 13.5086C16.6636 13.4699 16.9089 13.4563 17.1377 13.4633C16.9432 13.7505 17.0621 13.9589 16.9317 14.0976C16.4522 14.5134 16.7365 15.0252 17.3109 14.7738C17.276 15.2693 17.3893 15.355 17.8367 15.2638C18.5687 15.83 19.1302 15.3478 18.9705 14.5018C18.7215 13.4477 19.0079 13.4067 18.472 13.0672C18.5786 12.7552 19.2086 12.4119 19.393 12.4136C19.655 12.3755 19.7879 12.5865 19.9622 12.6904C20.156 12.8196 20.4027 12.7708 20.4265 12.9838C20.259 14.2836 20.9247 14.2195 20.8512 15.1823C20.8549 15.3082 20.9169 15.3853 20.9607 15.5118ZM15.0135 4.44692C15.4289 4.4385 15.8279 4.34052 15.595 3.88002C15.4119 3.49512 15.1431 3.48112 14.8478 3.57079C14.4861 3.64997 14.2267 3.54535 13.9819 3.8232C13.6486 4.18564 13.7989 4.20301 13.9301 4.47498C14.2643 5.20833 14.8581 5.16236 15.0135 4.44692ZM15.284 4.06761C14.8987 4.06919 14.69 4.11472 14.6281 4.47083C14.5338 4.94158 14.2341 4.28256 14.1657 4.15815C14.3335 3.88537 14.5603 3.99421 14.7984 3.94824C15.0948 3.88414 15.1725 3.80267 15.284 4.06761Z" stroke="#667EEA" stroke-width="0.2" mask="url(#path-1-outside-1_146_35065)"/>
</svg>
