<svg width="24" height="24" viewBox="0 0 24 24" fill="none" xmlns="http://www.w3.org/2000/svg">
<g clip-path="url(#clip0_145_34966)">
<path d="M9.83484 16.4052L10.2721 16.4192C10.2772 16.4195 10.2822 16.4212 10.2863 16.4243C10.2904 16.4274 10.2935 16.4316 10.2951 16.4365L10.485 17.0061C10.4995 17.0505 10.5227 17.0916 10.5531 17.1269C10.5836 17.1623 10.6207 17.1914 10.6625 17.2124C10.7042 17.2333 10.7496 17.2459 10.7962 17.2493C10.8427 17.2526 10.8895 17.2468 10.9338 17.232C10.9781 17.2172 11.0191 17.1939 11.0543 17.1632C11.0895 17.1326 11.1184 17.0953 11.1391 17.0535C11.1599 17.0117 11.1722 16.9662 11.1753 16.9196C11.1785 16.873 11.1724 16.8262 11.1574 16.782L10.9675 16.2125C10.8708 15.9223 10.6006 15.7207 10.2948 15.7108C9.8632 15.6969 9.8368 15.7101 9.83315 15.6738L9.56563 12.9437C9.52977 12.5784 9.22836 12.2701 8.79533 12.2822C8.76861 12.2827 8.70064 12.2847 8.67266 12.2743C8.66938 12.2668 8.34322 11.1942 8.34088 11.1863C8.30653 11.0735 8.24553 10.9706 8.16305 10.8864C8.08056 10.8022 7.97901 10.739 7.86697 10.7023C5.99323 10.0891 6.39298 10.2592 5.72041 9.84852H5.72023C5.71629 9.84613 5.71309 9.84272 5.71096 9.83865C5.70883 9.83458 5.70785 9.83 5.70813 9.82541L5.72501 9.53994C5.75721 8.99084 5.19691 8.60319 4.69502 8.82565C3.79581 9.22358 3.40708 9.40208 3.30086 9.43906C2.69495 9.40006 2.6807 9.41361 2.67939 9.37606L2.67592 9.2743C2.67174 9.15856 2.64032 9.04544 2.5842 8.94413C2.52808 8.84282 2.44885 8.75619 2.35295 8.69126C2.25685 8.62659 2.14686 8.58551 2.0319 8.57135C1.91694 8.55719 1.80026 8.57037 1.69135 8.60979C1.68655 8.61148 1.68136 8.61169 1.67643 8.61042C1.67151 8.60914 1.66707 8.60643 1.66369 8.60262L0.715221 7.52927C0.712178 7.5259 0.710108 7.52176 0.709233 7.51731C0.708358 7.51285 0.70871 7.50824 0.710252 7.50396L1.06275 6.51668C1.06429 6.51256 1.06684 6.5089 1.07017 6.50602C1.0735 6.50315 1.07749 6.50115 1.08179 6.50022L2.46296 6.22905C2.78228 6.16624 3.0189 5.90655 3.05181 5.58264C3.30433 3.0917 3.32373 3.78165 3.037 2.47538C3.02804 2.43216 3.03095 2.44899 3.98641 2.30363C3.99062 2.30305 3.99491 2.30352 3.9989 2.30499C4.00289 2.30646 4.00645 2.30889 4.00928 2.31207L4.56995 2.95585C4.79777 3.21751 5.18229 3.28341 5.48421 3.11312L6.24556 2.68374C6.54898 2.51255 6.69068 2.14814 6.58306 1.81711L6.34868 1.09692C6.33401 1.0537 6.35121 1.06711 8.21652 0.756139C8.24966 0.750326 8.21047 0.67031 8.76674 2.33949C8.82402 2.51359 8.94461 2.65982 9.10461 2.74922C9.26461 2.83861 9.45236 2.86465 9.63065 2.82216L10.6242 2.58966C10.99 2.50393 11.1552 2.1901 11.1856 1.98207C11.2028 1.95422 11.1577 1.95553 12.2678 2.26022C12.5631 2.34132 12.8813 2.22835 13.0593 1.97897L13.3287 1.60195C13.3313 1.59813 13.3349 1.59509 13.3391 1.59319C13.3433 1.59128 13.348 1.59058 13.3526 1.59116C13.3571 1.59175 13.3615 1.59359 13.3651 1.59649C13.3687 1.59938 13.3714 1.60322 13.373 1.60758C13.9931 3.22974 13.9712 3.31234 14.2929 3.47312L15.328 3.99076C15.3696 4.01161 15.4149 4.02405 15.4614 4.02737C15.5078 4.03069 15.5544 4.02482 15.5986 4.01011C15.6428 3.9954 15.6836 3.97212 15.7188 3.94161C15.7539 3.91111 15.7827 3.87397 15.8035 3.83232C15.8244 3.79069 15.8368 3.74536 15.8401 3.69893C15.8434 3.6525 15.8375 3.60588 15.8228 3.56172C15.808 3.51757 15.7848 3.47674 15.7542 3.44158C15.7237 3.40643 15.6866 3.37762 15.645 3.35682L14.6095 2.83899C14.5443 2.72072 14.3779 2.25122 14.0351 1.35455C13.8262 0.808358 13.0917 0.714232 12.7521 1.19016L12.4827 1.56717C12.4797 1.57136 12.4755 1.57453 12.4706 1.57626C12.4657 1.578 12.4604 1.57821 12.4554 1.57688L11.4017 1.28756C11.3045 1.26104 11.2029 1.25473 11.1031 1.26903C11.0034 1.28332 10.9076 1.31792 10.8217 1.37067C10.6216 1.49428 10.5442 1.65267 10.4874 1.85152C10.4874 1.86872 10.4806 1.89549 10.4627 1.89966C9.42318 2.14285 9.45121 2.15128 9.4393 2.11557L8.91711 0.549091C8.80203 0.20409 8.45835 -0.0028641 8.09984 0.0570893L6.25193 0.365059C5.80882 0.438841 5.53582 0.889827 5.67462 1.31648L5.90899 2.03649C5.9194 2.06869 5.93187 2.04689 5.13588 2.49586C5.13082 2.49871 5.12494 2.49973 5.11922 2.49877C5.1135 2.4978 5.10828 2.49491 5.10443 2.49057L4.5438 1.8466C4.46283 1.75307 4.35943 1.68166 4.24329 1.63905C4.12715 1.59645 4.0021 1.58405 3.87986 1.60303L2.9515 1.74422C2.75153 1.7746 2.5712 1.88775 2.45673 2.05439C2.34226 2.22104 2.30148 2.42996 2.34484 2.62735L2.54481 3.53828C2.53895 3.6489 2.48917 4.10645 2.34671 5.51106C2.34376 5.54036 2.41918 5.51528 0.945191 5.80478C0.692674 5.85442 0.482111 6.03588 0.395345 6.27827L0.0426561 7.2656C-0.00143461 7.38926 -0.0115758 7.52248 0.013288 7.65139C0.0381519 7.7803 0.0971119 7.9002 0.184032 7.99859L1.1325 9.07212C1.33374 9.29956 1.64794 9.37977 1.9336 9.27594C1.95048 9.26984 1.96688 9.2818 1.96749 9.29881L1.97115 9.40063C1.97677 9.58284 2.05027 9.75638 2.17723 9.8872C2.30418 10.018 2.47544 10.0967 2.6574 10.1078C3.63208 10.1708 3.16459 10.2779 4.98175 9.47366C4.98573 9.4718 4.99012 9.47103 4.99449 9.4714C4.99886 9.47178 5.00305 9.47329 5.00665 9.4758C5.01024 9.47831 5.01312 9.48171 5.01499 9.48568C5.01685 9.48965 5.01765 9.49404 5.01729 9.49841C5.00135 9.76939 4.92499 10.194 5.35165 10.4539C6.10934 10.9165 5.64752 10.7217 7.64651 11.376C7.65036 11.3773 7.65385 11.3794 7.65668 11.3823C7.65952 11.3852 7.66163 11.3888 7.66283 11.3926L7.99058 12.4698C8.11292 12.8715 8.42544 12.9902 8.83489 12.9902C8.87057 12.9902 8.84347 12.8441 9.12786 15.7431C9.16372 16.1087 9.46771 16.3932 9.83484 16.4052ZM21.4765 10.4824C20.4295 11.4591 20.3852 11.4561 20.324 11.7349C19.8777 13.7657 19.7326 14.4509 19.6907 14.601C19.6801 14.6162 18.0028 17.0343 17.9843 17.0358C15.3873 17.2357 15.4932 17.1859 15.2599 17.3912C14.0229 18.4698 13.9653 18.4618 13.9146 18.7947C13.7961 19.5736 13.7434 19.9744 13.7141 20.0839L11.5632 22.2635C11.5608 22.2658 11.5581 22.2677 11.555 22.269C11.552 22.2703 11.5487 22.2709 11.5453 22.271C11.542 22.271 11.5387 22.2703 11.5357 22.2691C11.5326 22.2678 11.5298 22.266 11.5275 22.2636L10.004 20.7646C9.96791 20.7296 9.9269 20.788 11.5545 19.5222C11.6727 19.4301 11.7599 19.304 11.8045 19.161C11.8491 19.0179 11.8489 18.8646 11.8039 18.7217L11.6648 18.2091C11.6526 18.1642 11.6317 18.1221 11.6033 18.0852C11.5748 18.0484 11.5394 18.0175 11.499 17.9944C11.4586 17.9712 11.414 17.9563 11.3679 17.9504C11.3217 17.9445 11.2748 17.9477 11.2299 17.9599C11.1392 17.9846 11.062 18.0442 11.0152 18.1258C10.9685 18.2073 10.9561 18.3041 10.9807 18.3948C10.9851 18.4107 11.1228 18.919 11.1279 18.9348C11.1295 18.9397 11.1296 18.9451 11.1281 18.95C11.1265 18.955 11.1235 18.9594 11.1194 18.9626L9.57097 20.1671C9.22068 20.4395 9.19063 20.9585 9.50671 21.2697L11.0302 22.7688C11.3183 23.0525 11.7838 23.049 12.0676 22.7613L14.218 20.5824C14.491 20.3055 14.411 20.0252 14.6155 18.9005C14.7014 18.8048 15.0542 18.5105 15.7241 17.9266C15.885 17.8969 16.5283 17.8586 18.0385 17.7424C18.1471 17.7343 18.2525 17.702 18.347 17.6479C18.4415 17.5939 18.5227 17.5193 18.5847 17.4298L20.2737 15.004C20.3791 14.8676 20.3464 14.9352 21.0162 11.887C21.0889 11.8027 21.3916 11.5311 21.9599 11.0008C22.0287 10.9367 22.0692 10.8479 22.0724 10.754C22.0757 10.6601 22.0416 10.5687 21.9775 10.4999C21.9134 10.4312 21.8246 10.3907 21.7306 10.3874C21.6367 10.3841 21.5453 10.4183 21.4766 10.4824H21.4765ZM23.8229 7.08818C23.7791 6.7188 23.4656 6.4405 23.0939 6.4405H22.5717C22.4173 6.33654 21.8634 5.84782 20.5378 4.71986C20.2504 4.47545 20.1466 4.53986 18.2066 4.63379C18.1052 4.59315 17.7445 4.40017 16.9659 4.00004C16.792 3.91051 16.5783 3.97923 16.4887 4.15332C16.3991 4.32728 16.4678 4.54098 16.642 4.63051C18.0169 5.3373 17.9893 5.35417 18.2407 5.3417C19.414 5.28498 19.9126 5.24814 20.0796 5.26075C22.1919 7.05776 22.2168 7.14949 22.538 7.14949C23.0985 7.14935 23.1146 7.13505 23.119 7.17166C23.1212 7.19051 23.2971 8.62939 23.2836 8.64256L22.4882 9.42917C22.2622 9.65258 22.4235 10.0355 22.7372 10.0355C22.9286 10.0355 22.923 9.99571 23.7818 9.14666C23.8507 9.07824 23.9054 8.99692 23.9429 8.90734C23.9803 8.81776 23.9997 8.72169 23.9999 8.62461C24.0001 8.564 24.0102 8.66708 23.8229 7.08818Z" fill="#667EEA"/>
</g>
<defs>
<clipPath id="clip0_145_34966">
<rect width="24" height="24" fill="white"/>
</clipPath>
</defs>
</svg>
