<svg width="24" height="24" viewBox="0 0 24 24" fill="none" xmlns="http://www.w3.org/2000/svg">
<path d="M19.1104 22.0001C19.0082 22.0014 18.907 21.9802 18.8139 21.9382C18.4188 21.7365 18.0519 21.4838 17.7226 21.1866C17.3573 20.8811 17.0342 20.399 16.5499 20.2769C16.4514 20.2468 16.3483 20.235 16.2456 20.2423C16.2116 20.494 16.1533 20.7337 15.8892 20.835C15.4661 20.9971 15.2154 20.6057 15.095 20.4178C15.0675 20.3749 15.0288 20.3147 15.0016 20.2809H14.9938C14.7416 20.3212 14.5092 20.4423 14.3318 20.6261C14.3113 20.6537 14.2594 20.7307 14.1323 20.9295C14.103 20.9904 14.0574 21.042 14.0007 21.0787C13.9439 21.1154 13.8781 21.1356 13.8106 21.1373H13.114C13.0644 21.1366 13.0155 21.1253 12.9706 21.1042C12.9257 21.0832 12.8858 21.0527 12.8536 21.015C12.8213 20.9773 12.7975 20.9331 12.7837 20.8855C12.7699 20.8378 12.7664 20.7878 12.7735 20.7387C12.795 20.6011 12.8193 20.4325 12.8264 20.3637C12.8106 20.2647 12.7885 20.1668 12.7602 20.0706C12.7371 20.0548 12.7112 20.0437 12.6838 20.0378C12.6787 20.0369 12.6502 20.0871 12.6464 20.0925C12.4273 20.4028 11.9876 20.6649 11.5412 20.5063C11.3687 20.4354 11.2164 20.3231 11.0978 20.1792C10.9792 20.0354 10.8979 19.8644 10.8612 19.6816C10.8166 19.4707 10.6205 18.873 10.2547 18.6506C10.0784 18.563 9.87527 18.5461 9.68692 18.6033C9.62037 18.6142 9.02381 18.6976 8.69985 18.3128C8.60769 18.1917 8.54717 18.0495 8.52378 17.8992C8.50039 17.7488 8.51486 17.595 8.56588 17.4516C8.51829 17.3878 8.42622 17.274 8.25346 17.0842C8.20676 17.0196 8.137 16.9756 8.05866 16.9611C7.98032 16.9467 7.89942 16.963 7.83277 17.0066C7.73846 17.0755 7.93381 17.3118 7.97829 17.3633C8.01945 17.4139 8.04561 17.475 8.05383 17.5398C8.06205 17.6045 8.05199 17.6702 8.02479 17.7295C7.99759 17.7888 7.95434 17.8393 7.89993 17.8753C7.84552 17.9113 7.78212 17.9313 7.71691 17.9331C7.56225 17.9439 7.41301 17.9945 7.28368 18.08C7.15435 18.1655 7.04933 18.283 6.9788 18.4211C6.94401 18.4831 6.89111 18.533 6.82716 18.5642C6.76321 18.5953 6.69128 18.6062 6.62099 18.5954C6.55069 18.5845 6.48539 18.5524 6.43382 18.5034C6.38225 18.4545 6.34687 18.3909 6.33242 18.3212C6.29104 18.0885 6.08759 17.4354 5.65138 17.224C5.59783 17.1959 5.55243 17.1545 5.51957 17.1038C5.48671 17.0531 5.46751 16.9947 5.46381 16.9344C5.46012 16.874 5.47206 16.8137 5.49849 16.7594C5.52492 16.705 5.56493 16.6584 5.61466 16.624C5.71823 16.556 5.81133 16.4733 5.89104 16.3785C5.78242 16.3302 5.48914 16.2468 4.75724 16.2468C4.66579 16.2468 4.57808 16.2104 4.51341 16.1458C4.44874 16.0811 4.41241 15.9934 4.41241 15.9019C4.41069 15.7802 4.36069 15.5835 4.28327 15.5447C4.21603 15.5111 3.99017 15.5364 3.56706 15.8436C3.50813 15.8865 3.43715 15.9095 3.3643 15.9095H2.66792C2.6025 15.9095 2.53842 15.8909 2.48317 15.8559C2.42793 15.8208 2.38379 15.7708 2.35591 15.7116C2.32804 15.6524 2.31757 15.5865 2.32574 15.5216C2.33391 15.4567 2.36038 15.3955 2.40206 15.345C2.67689 15.0107 3.07792 14.3392 2.98361 13.9612C2.96482 13.8862 2.9162 13.7764 2.70982 13.6909C2.64688 13.6647 2.59311 13.6205 2.55527 13.5638C2.51744 13.5071 2.49724 13.4404 2.49723 13.3723C2.49637 13.235 2.44982 12.7978 2.25395 12.6081C2.19792 12.5539 2.16193 12.4822 2.15185 12.4049C2.14177 12.3275 2.15819 12.2491 2.19844 12.1822C2.20206 12.176 2.6324 11.4364 2.41499 10.6738C2.27619 10.1867 1.89774 9.77896 1.28981 9.46206C1.24222 9.43604 1.20133 9.39932 1.17037 9.35479C1.13941 9.31026 1.11922 9.25914 1.11139 9.20547C1.10357 9.1518 1.10832 9.09704 1.12528 9.04553C1.14224 8.99401 1.17094 8.94714 1.20912 8.90861C1.51947 8.60706 2.38154 7.5993 2.27637 6.94636C2.25399 6.83951 2.20623 6.73962 2.13712 6.65512C2.06801 6.57061 1.97958 6.50398 1.8793 6.46084C1.71564 6.45376 1.55612 6.40727 1.41429 6.32532C1.27246 6.24338 1.15251 6.12839 1.06464 5.99015C0.870843 5.63429 0.961188 5.16153 1.3336 4.58446C1.36126 4.54164 1.39805 4.50549 1.44135 4.4786C1.48465 4.45172 1.53337 4.43476 1.584 4.42896C1.63464 4.42315 1.68593 4.42864 1.73419 4.44504C1.78244 4.46143 1.82647 4.48832 1.86309 4.52377C2.05137 4.70515 2.26688 4.55721 2.39533 4.3917C2.42528 4.35309 2.46308 4.32128 2.50624 4.29836C2.54939 4.27545 2.59692 4.26195 2.64568 4.25876L5.20414 4.09359C5.53322 3.93172 5.81877 3.69341 6.0369 3.39859C6.14557 3.23995 6.29297 3.1117 6.46512 3.026C6.63726 2.94031 6.82844 2.90001 7.02053 2.90893C7.04564 2.90897 7.07067 2.91175 7.09518 2.91721C7.17104 2.89479 7.42932 2.78962 8.02277 2.31082C8.05731 2.28301 8.09688 2.26212 8.13933 2.24927C8.46071 2.15186 10.0974 1.69892 10.7693 2.32617C10.9473 2.49255 11.134 2.80169 11.0126 3.33083C10.9743 3.49945 11.3412 3.66324 11.4605 3.68945C11.8466 3.77393 12.224 3.52152 12.5657 3.38066C12.8854 3.2491 13.2312 3.29617 13.5628 3.34566C14.9876 3.55048 16.5049 3.75428 17.9842 3.74187C18.5021 3.73755 19.0109 3.62911 19.5256 3.5848C19.6332 3.57548 20.5808 3.51583 21.1375 4.13307C21.4749 4.50721 21.584 5.02704 21.4616 5.67843C21.4089 6.04636 21.4527 6.4217 21.5889 6.76757C21.7294 7.17136 22.0149 7.50602 22.1537 7.91206C22.3115 8.37378 22.4704 9.02603 22.3316 9.51068C22.2927 9.65791 22.2196 9.79392 22.1184 9.90772C22.0172 10.0215 21.8907 10.11 21.749 10.1659C21.8542 10.5498 21.8146 11.1138 21.1599 11.6212C21.0948 11.6721 21.0404 11.7355 21 11.8076C20.9596 11.8797 20.9339 11.9591 20.9244 12.0412C20.8892 12.3069 20.9715 12.7738 21.5628 13.49C21.5988 13.5335 21.6235 13.5852 21.6348 13.6405C21.6461 13.6958 21.6436 13.753 21.6277 13.8071C21.5935 13.9269 21.5346 14.2897 21.6742 14.5097C21.7978 14.704 22.017 14.6595 22.1851 14.7719C22.3844 14.9054 23.0346 15.3811 23.0346 15.9019C23.0421 16.0722 22.9948 16.2403 22.8998 16.3817C22.8047 16.5231 22.6668 16.6303 22.5063 16.6876C22.4889 16.7608 22.4608 16.8311 22.423 16.8962C22.3364 17.0267 22.224 17.1382 22.0929 17.2237C21.9617 17.3093 21.8144 17.3672 21.6601 17.3938L19.5842 19.8685C19.7082 20.35 19.7814 20.8433 19.8025 21.34C19.7993 21.4527 19.7681 21.5627 19.7117 21.6603C19.6553 21.7578 19.5754 21.8397 19.4794 21.8987C19.3679 21.9653 19.2403 22.0004 19.1104 22.0001ZM16.2966 19.5494C16.9399 19.5494 17.4209 19.9419 17.8556 20.3685C18.2161 20.7507 18.6381 21.0698 19.104 21.3125C19.1232 20.9366 18.9437 20.1404 18.8735 19.8659C18.86 19.8129 18.8593 19.7574 18.8715 19.704C18.8836 19.6506 18.9083 19.6009 18.9435 19.559L21.2068 16.8607C21.2577 16.8002 21.3278 16.7589 21.4054 16.7438C21.662 16.6942 21.7908 16.6118 21.8258 16.5512C21.829 16.5455 21.8413 16.5202 21.8413 16.5202C21.8234 16.4682 21.8182 16.4128 21.8261 16.3584C21.834 16.304 21.8548 16.2523 21.8867 16.2076C21.9186 16.1629 21.9607 16.1264 22.0096 16.1012C22.0584 16.0761 22.1126 16.063 22.1675 16.063C22.3449 16.0569 22.3449 15.9523 22.3449 15.9017C22.3346 15.8061 22.1009 15.56 21.8568 15.3836C21.7009 15.3561 21.5523 15.2968 21.4203 15.2093C21.2883 15.1219 21.1757 15.0082 21.0896 14.8754C20.9075 14.547 20.849 14.1643 20.9247 13.7966C20.3877 13.1062 20.1592 12.4752 20.2452 11.9193C20.2684 11.7518 20.3245 11.5905 20.4102 11.4448C20.4959 11.299 20.6096 11.1717 20.7447 11.07C21.2777 10.6528 21.0913 10.3034 21.0209 10.206C20.9915 10.1642 20.9714 10.1164 20.9622 10.066C20.953 10.0156 20.9549 9.96385 20.9677 9.91426C20.9805 9.86467 21.0039 9.81846 21.0363 9.77881C21.0687 9.73917 21.1094 9.70704 21.1554 9.68465C21.6247 9.47344 21.6358 9.43499 21.6685 9.32051C21.7365 9.08361 21.6737 8.64051 21.5011 8.13482C21.3634 7.73206 21.078 7.39792 20.9375 6.99447C20.761 6.53501 20.7081 6.03732 20.7839 5.55101C20.8642 5.12273 20.8111 4.80135 20.6259 4.59566C20.3449 4.28359 19.7794 4.25532 19.5846 4.27187C19.0513 4.31894 18.5247 4.42911 17.9876 4.43152C16.463 4.43842 14.915 4.23652 13.4649 4.02807C13.1846 3.9669 12.8923 3.99394 12.628 4.10549C12.2614 4.26825 11.8049 4.47066 11.313 4.36307C10.8035 4.25169 10.2064 3.76152 10.3405 3.17652C10.3985 2.92359 10.3233 2.85324 10.2986 2.83014C10.0255 2.57496 9.03071 2.71152 8.40174 2.89083C7.69863 3.45152 7.24553 3.6779 6.95587 3.60117C6.88464 3.60509 6.81526 3.62524 6.75301 3.66009C6.69077 3.69493 6.63731 3.74354 6.59673 3.80221C6.02569 4.53963 5.44931 4.7417 5.38552 4.76239C5.35835 4.77116 5.33021 4.77655 5.30173 4.77842L2.83499 4.93756C2.65778 5.14186 2.40884 5.27025 2.13964 5.29618C2.00837 5.30492 1.87671 5.28643 1.75292 5.24187C1.64947 5.46101 1.63826 5.5998 1.66998 5.65912C1.74981 5.80894 1.9924 5.74756 2.12171 5.81015C2.72275 6.10119 2.90792 6.52929 2.95723 6.8374C3.09068 7.66878 2.41602 8.59378 1.99447 9.07844C2.51653 9.40197 2.90271 9.90475 3.08068 10.4926C3.23142 11.1035 3.16807 11.7477 2.9012 12.3176C3.05366 12.5726 3.14677 12.8587 3.17361 13.1547C3.29212 13.2241 3.39556 13.3166 3.4779 13.4265C3.56023 13.5365 3.61979 13.6617 3.6531 13.795C3.76534 14.2473 3.57344 14.7588 3.35861 15.1512C3.85862 14.8333 4.26517 14.7614 4.59689 14.93C4.71425 14.9962 4.81601 15.0868 4.89529 15.1958C4.97456 15.3047 5.0295 15.4294 5.05638 15.5614C6.00914 15.5924 6.47311 15.7819 6.58966 16.1776C6.61732 16.3068 6.61053 16.4411 6.56998 16.5669C6.52943 16.6927 6.45655 16.8056 6.35863 16.8943C6.54888 17.0898 6.70175 17.3184 6.80966 17.5688C6.92285 17.4828 7.04713 17.4124 7.17915 17.3597C7.12897 17.2311 7.10988 17.0925 7.12346 16.9552C7.13518 16.8544 7.16815 16.7572 7.22019 16.6701C7.27222 16.5829 7.34215 16.5078 7.42536 16.4497C7.62713 16.3045 7.87615 16.2407 8.12286 16.2709C8.36957 16.301 8.59588 16.423 8.75674 16.6124C9.24243 17.1457 9.33554 17.3161 9.26192 17.5314C9.18898 17.743 9.20743 17.8442 9.22743 17.8683C9.3295 17.9257 9.44851 17.9454 9.56364 17.924C9.74334 17.8722 9.93197 17.859 10.1171 17.8853C10.3023 17.9116 10.4798 17.9768 10.638 18.0766C11.3392 18.524 11.5374 19.5449 11.5392 19.555C11.5528 19.6195 11.5809 19.68 11.6212 19.7321C11.6615 19.7842 11.713 19.8265 11.7719 19.8559C11.9052 19.9025 12.0392 19.7607 12.105 19.6621C12.1689 19.5419 12.2709 19.4463 12.395 19.3904C12.519 19.3344 12.6582 19.3213 12.7906 19.353C13.3712 19.4854 13.4383 19.8649 13.4923 20.1697C13.5122 20.2608 13.5186 20.3543 13.5112 20.4473H13.6223C13.6824 20.3414 13.7528 20.2417 13.8323 20.1495C14.085 19.8969 14.6537 19.4985 15.1819 19.61C15.2724 19.6354 15.357 19.6783 15.4308 19.7364C15.5047 19.7945 15.5663 19.8665 15.6123 19.9485C15.6612 19.8166 15.7574 19.7076 15.8821 19.6426C16.0106 19.5779 16.153 19.5458 16.2968 19.5492L16.2966 19.5494Z" fill="#667EEA"/>
</svg>
