<svg width="24" height="24" viewBox="0 0 24 24" fill="none" xmlns="http://www.w3.org/2000/svg">
<path d="M9.9384 4.27693V19.6386M14.2282 18.4439V3.8755" stroke="#667EEA" stroke-width="0.8" stroke-miterlimit="10" stroke-linejoin="round"/>
<path d="M21.5933 18.735L20.0364 19.1301V20.7956L20.2933 21.5543L21.5169 22L22 20.9534V18.2354L21.5933 18.735Z" stroke="#667EEA" stroke-width="0.8" stroke-miterlimit="10" stroke-linecap="round" stroke-linejoin="round"/>
<path d="M5.59433 11.1615C5.57821 10.985 5.52588 10.8138 5.44061 10.6585L5.31151 10.4233C5.23499 10.284 5.1155 10.173 4.97082 10.107C4.82615 10.0411 4.66403 10.0236 4.50861 10.0572C4.43542 10.073 4.35905 10.064 4.29152 10.0317C4.224 9.9993 4.16917 9.94538 4.13567 9.87841C4.10037 9.80787 4.04148 9.75193 3.96922 9.72029L3.2 9.38371C3.10472 9.34204 2.99686 9.3396 2.8998 9.37694C2.68204 9.46069 2.43951 9.33853 2.37722 9.11367L2 7.75245L4.08106 7.00151L4.83208 7.60225L6.44122 7.36625L5.80988 5.19722L6.66527 5.14171C6.78479 5.13395 6.90444 5.15489 7.01423 5.2028C7.12401 5.25071 7.22073 5.32419 7.29633 5.4171C7.34245 5.47378 7.40015 5.51993 7.46557 5.55249C7.53099 5.58504 7.60261 5.60323 7.67563 5.60584L8.46755 5.63412C8.82808 5.64698 9.13461 5.37327 9.16249 5.01359C9.17176 4.89401 9.21282 4.77908 9.28141 4.6807C9.35001 4.58231 9.44365 4.50405 9.55265 4.454L10.8112 3.8762V2.43869L12.2341 2L12.9531 2.86624L13.8261 3.58829C14.1508 3.85683 14.546 4.02616 14.9644 4.07604C15.0964 4.09177 15.2231 4.13726 15.335 4.20908C15.4468 4.28091 15.5409 4.37718 15.6102 4.49065L16.0213 5.16465C16.0997 5.29317 16.2099 5.39937 16.3411 5.47305C16.4724 5.54674 16.6204 5.58543 16.771 5.58543H17.3123C17.4477 5.58543 17.5813 5.61676 17.7027 5.67697C17.824 5.73719 17.9297 5.82465 18.0116 5.93253C18.1261 6.08328 18.2862 6.193 18.4681 6.24535L20.312 6.77616L19.7971 7.54853L19.3532 9.54596C19.3228 9.68263 19.2546 9.808 19.1563 9.90774C19.0581 10.0075 18.9338 10.0775 18.7976 10.11C18.6991 10.1334 18.6065 10.1766 18.5253 10.2369C18.4441 10.2972 18.3761 10.3734 18.3252 10.4609L16.9436 12.838L17.5733 12.73C17.7295 12.7032 17.89 12.7319 18.0271 12.8112C18.1643 12.8905 18.2693 13.0153 18.324 13.164C18.3606 13.2636 18.3733 13.3704 18.3611 13.4758C18.3341 13.7097 18.3776 13.9464 18.4861 14.1553C18.6408 14.4532 18.5324 14.8201 18.2407 14.9861C18.2115 15.0027 18.1861 15.0251 18.1662 15.0521C18.1462 15.079 18.1321 15.1098 18.1247 15.1425C18.1173 15.1752 18.1168 15.2091 18.1233 15.242C18.1297 15.2749 18.143 15.3061 18.1622 15.3336L18.3299 15.574C18.4365 15.7268 18.4937 15.9086 18.4937 16.0949C18.4937 16.4882 18.8126 16.8071 19.2059 16.8071C19.4186 16.8071 19.5742 17.0076 19.5215 17.2136C19.48 17.3758 19.3843 17.519 19.2502 17.6195L18.7602 17.9865C18.6088 18.0999 18.4791 18.2397 18.3775 18.3992C18.2543 18.5925 18.0903 18.7564 17.897 18.8795C17.7038 19.0026 17.4859 19.0819 17.2587 19.1119L17.2539 19.1125C16.885 19.1612 16.5108 19.0773 16.198 18.8757L15.7839 18.6089C15.6063 18.4944 15.4022 18.4277 15.1913 18.4151C14.9804 18.4026 14.7698 18.4446 14.5799 18.5371C14.5271 18.4833 14.4569 18.4503 14.3818 18.4438C14.3068 18.4374 14.2319 18.4581 14.1708 18.5021L13.1804 19.2151C13.1399 19.2443 13.1068 19.2828 13.0841 19.3272C13.0613 19.3717 13.0494 19.4209 13.0494 19.4709V20.3036C13.0494 20.4005 13.0109 20.4934 12.9424 20.5619C12.8738 20.6304 12.7809 20.6689 12.684 20.6689H11.9189C11.733 20.6689 11.5507 20.6179 11.3918 20.5214L9.93837 19.6384C9.35278 20.1631 8.50265 20.2684 7.80682 19.9022L6.52127 19.2259C6.41668 19.1709 6.32635 19.0923 6.25742 18.9963C6.18849 18.9003 6.14286 18.7896 6.12413 18.6729C6.10541 18.5562 6.11411 18.4368 6.14954 18.324C6.18498 18.2113 6.24617 18.1083 6.32829 18.0233L6.61282 17.7289C6.89752 16.722 7.04191 15.6807 7.04192 14.6343V13.5023L5.82673 11.79C5.69519 11.6046 5.615 11.3878 5.59433 11.1615Z" stroke="#667EEA" stroke-width="0.8" stroke-miterlimit="10" stroke-linejoin="round"/>
</svg>
