<svg width="24" height="24" viewBox="0 0 24 24" fill="none" xmlns="http://www.w3.org/2000/svg">
<path d="M22.0854 12.6842C22.1456 12.4052 22.0954 12.1138 21.9453 11.871C21.8351 11.6964 21.6793 11.5551 21.4947 11.4626C21.564 11.3159 21.5821 11.1503 21.5459 10.9922C21.5135 10.8578 21.4461 10.7344 21.3506 10.6346C21.255 10.5347 21.1347 10.4619 21.0019 10.4237C20.5878 9.73488 19.8926 9.38608 18.9322 9.38608C18.8955 9.38608 18.8098 9.3872 18.8069 9.38704C18.7814 9.35939 18.7606 9.32784 18.7451 9.2936C18.8297 9.16673 18.8977 9.0295 18.9472 8.88528C19.0193 8.66566 19.0698 8.43952 19.0979 8.21008C19.108 8.1936 19.1253 8.168 19.1387 8.14816C19.1935 8.07092 19.2418 7.98937 19.2834 7.90432C19.5354 7.3704 19.3963 6.98608 19.291 6.80464C19.1941 6.64687 19.0591 6.51605 18.8983 6.42424C18.7375 6.33244 18.5562 6.28261 18.371 6.27936C18.2471 6.27523 18.1241 6.25588 18.0048 6.22176C17.9936 6.20097 17.9852 6.17881 17.9797 6.15584C17.9245 5.96403 17.8089 5.79514 17.6501 5.67426C17.4912 5.55337 17.2977 5.48693 17.0981 5.4848C16.931 5.48527 16.7674 5.53213 16.6254 5.62016C16.5113 5.638 16.3962 5.6498 16.2808 5.65552C16.1648 5.50402 16.0033 5.39362 15.82 5.34048C15.82 5.34048 15.7392 5.30624 15.7306 5.29952C15.7263 5.27896 15.7247 5.25793 15.7259 5.23696C15.7454 4.58848 15.367 4.34032 15.1397 4.25024C15.0407 4.21022 14.935 4.18937 14.8282 4.1888C14.7284 4.18776 14.6294 4.20693 14.5372 4.24515C14.445 4.28337 14.3615 4.33985 14.2917 4.4112C14.2853 4.39733 14.2787 4.38347 14.2718 4.3696C14.2216 4.26942 14.146 4.18417 14.0525 4.1224C13.959 4.06063 13.8509 4.02449 13.739 4.0176C13.739 4.0176 13.4454 4 13.4323 4C13.3327 4 13.2344 4.02326 13.1454 4.06792C13.0563 4.11259 12.9789 4.17743 12.9194 4.25728C12.9194 4.25728 12.8064 4.40848 12.7786 4.4456C12.6929 4.35622 12.5901 4.28509 12.4763 4.23647C12.3624 4.18786 12.2399 4.16277 12.1162 4.16272C11.9383 4.16592 11.7637 4.21017 11.6058 4.292C11.3564 4.41067 11.1497 4.6033 11.0138 4.84368L10.9984 4.84592C10.611 4.90576 10.404 5.17808 10.2214 5.41824C10.0902 5.59749 9.9225 5.747 9.72944 5.85698C9.53638 5.96697 9.32227 6.03495 9.10113 6.05648C8.77473 5.61392 8.27713 5.55616 7.98945 5.52272C7.91043 5.51629 7.83205 5.50355 7.75505 5.48464C7.65544 5.45249 7.5514 5.43613 7.44673 5.43616C7.34385 5.43579 7.24167 5.45311 7.14465 5.48736C7.09952 5.32982 7.00331 5.19174 6.87116 5.09484C6.739 4.99793 6.57839 4.94768 6.41457 4.952C6.25866 4.95904 6.10423 4.98554 5.95489 5.03088C5.27346 5.21024 4.63016 5.51158 4.05617 5.92032C3.49088 6.29008 2.90614 6.62923 2.30449 6.93632L2.13969 7.02464C1.9967 7.10108 1.88805 7.22894 1.83569 7.3824L1.79537 7.50112C1.74546 7.64752 1.74847 7.80678 1.80385 7.9512C1.82605 8.01303 1.84475 8.07606 1.85985 8.14C1.90561 8.34716 1.98397 8.54574 2.09201 8.72832C2.03757 8.92054 2.03021 9.12305 2.07057 9.31872L2.08417 9.37952C2.13601 9.61424 2.25377 10.1472 2.87777 10.3096C2.88961 10.3285 2.96769 10.4582 2.99665 10.5014C3.14626 10.7296 3.36309 10.9056 3.61713 11.0051C3.77308 11.0746 3.9412 11.1125 4.11185 11.1168C4.28097 11.1108 4.44616 11.0642 4.59347 10.981C4.74079 10.8977 4.86591 10.7802 4.95825 10.6384C4.96049 10.6384 4.96753 10.6374 4.97745 10.6374C5.05568 10.6428 5.12925 10.6765 5.18433 10.7323C5.26145 10.8098 5.28049 10.9136 5.31153 11.1691C5.3297 11.5479 5.46082 11.9125 5.68801 12.2162C5.80117 12.3536 5.94354 12.464 6.10477 12.5395C6.26599 12.6149 6.44201 12.6535 6.62001 12.6523C6.75237 12.6523 6.88389 12.6315 7.00977 12.5906C7.03329 12.6003 7.23617 12.693 7.33217 12.724C7.331 12.7321 7.32956 12.7406 7.32785 12.7494C7.28213 12.9564 7.2983 13.1722 7.37435 13.3701C7.45039 13.5679 7.58296 13.739 7.75553 13.8621C7.88582 13.9547 8.04143 14.0051 8.20129 14.0064C8.30295 14.0054 8.40339 13.9842 8.49672 13.9438C8.59005 13.9035 8.6744 13.845 8.74481 13.7717C8.77441 13.7704 8.81073 13.7696 8.85457 13.7696C9.12952 13.7709 9.40391 13.7944 9.67505 13.84C9.69777 13.88 9.79185 14.1066 9.80289 14.1328C9.80193 14.1368 9.78577 14.2034 9.77729 14.2325C9.7273 14.3644 9.71233 14.507 9.73383 14.6465C9.75534 14.7859 9.81259 14.9174 9.90001 15.0282C9.82222 15.1444 9.77186 15.2768 9.75274 15.4153C9.73361 15.5538 9.74622 15.6949 9.78961 15.8278C9.84734 16.0386 9.97214 16.2249 10.1452 16.3584C10.3182 16.492 10.53 16.5655 10.7485 16.568C10.8099 16.568 10.8707 16.5584 10.9322 16.5584C11.1022 16.5684 11.2705 16.5985 11.4334 16.648C11.5726 16.6872 11.7161 16.7089 11.8606 16.7125C12.1274 16.7096 12.3882 16.6339 12.615 16.4936C12.678 16.4538 12.7435 16.4182 12.8112 16.387C12.9862 16.4194 13.1548 16.4798 13.3106 16.5659C13.2767 16.7016 13.2708 16.8427 13.2933 16.9807C13.3158 17.1187 13.3661 17.2507 13.4413 17.3686C13.6898 17.7296 14.1186 17.7784 14.3488 17.8046C14.4076 17.8093 14.4649 17.8257 14.5172 17.853C14.5695 17.8802 14.6158 17.9178 14.6533 17.9634C14.8735 18.2742 15.2001 18.4934 15.5712 18.5795C15.6112 18.7213 15.6946 18.847 15.8096 18.939C15.9246 19.0311 16.0656 19.0848 16.2126 19.0928C16.2213 19.1416 16.244 19.3099 16.2488 19.3426C16.2585 19.4533 16.2937 19.5602 16.3516 19.6551C16.4095 19.7499 16.4886 19.8301 16.5827 19.8893C16.6767 19.9485 16.7832 19.9851 16.8938 19.9963C17.0043 20.0075 17.116 19.9929 17.22 19.9538C17.6726 19.7861 18.1416 19.6665 18.6192 19.597C18.8068 19.5631 18.9848 19.4889 19.1409 19.3795C19.2971 19.27 19.4275 19.128 19.5234 18.9632C19.6281 18.8068 19.6976 18.6296 19.7271 18.4437C19.7565 18.2579 19.7453 18.0678 19.6941 17.8867C19.5951 17.5944 19.4508 17.3196 19.2664 17.0722C19.2149 16.9998 19.1624 16.9392 19.116 16.8856C19.0912 16.857 19.059 16.82 19.0416 16.796C19.04 16.7651 19.0469 16.456 19.0483 16.4408C19.2848 16.1355 19.4595 15.7872 19.5629 15.4152C19.6139 15.2868 19.6942 15.172 19.7973 15.08C19.8137 15.0926 19.8293 15.1062 19.844 15.1208C19.922 15.1981 20.0186 15.254 20.1245 15.2831C20.2304 15.3123 20.342 15.3137 20.4486 15.2873C20.5551 15.2608 20.6531 15.2074 20.7331 15.1321C20.813 15.0568 20.8723 14.9622 20.9051 14.8574C21.0005 14.6354 21.4211 14.0822 21.6259 13.964C21.791 13.9573 21.9472 13.887 22.0616 13.7678C22.1761 13.6486 22.24 13.4897 22.24 13.3245V13.1011C22.24 12.9481 22.1851 12.8002 22.0854 12.6842ZM21.6019 13.3186C21.5916 13.3208 21.5811 13.3223 21.5706 13.323C21.0906 13.323 20.3573 14.4328 20.2944 14.6661C20.1493 14.5093 19.9511 14.412 19.7382 14.3931C19.6605 14.3908 19.5844 14.4164 19.524 14.4654C19.2666 14.6587 19.0688 14.9204 18.9531 15.2208C18.8719 15.5258 18.7292 15.811 18.5336 16.0587C18.4345 16.1948 18.3891 16.3626 18.4061 16.5301C18.3905 16.6885 18.3995 16.8483 18.4326 17.004C18.5149 17.1648 18.6201 17.3127 18.745 17.4432C18.8904 17.6373 19.0049 17.8528 19.0845 18.0819C19.1914 18.4154 18.879 18.9123 18.5266 18.9638C18.0044 19.0397 17.4918 19.1704 16.9971 19.3539C16.9256 19.3805 16.8907 19.3091 16.8821 19.2499C16.8262 18.8691 16.8187 18.4552 16.2597 18.4542C16.1765 18.4541 16.1781 18.3779 16.1816 18.3138C16.1947 18.071 16.0387 17.9848 15.8336 17.9725C15.7025 17.9619 15.5753 17.9223 15.4613 17.8565C15.3474 17.7907 15.2495 17.7004 15.1747 17.5922C15.0854 17.4732 14.9722 17.3742 14.8425 17.3013C14.7128 17.2284 14.5694 17.1833 14.4213 17.1688C13.951 17.1152 13.8493 17.0184 13.9717 16.5411C14.0074 16.4014 14.0571 16.2394 13.9251 16.1654C13.604 15.9859 13.1224 15.7462 12.7987 15.7462C12.7636 15.746 12.7285 15.7493 12.6941 15.7562C12.5494 15.7963 12.4121 15.8596 12.2877 15.9437C12.1598 16.025 12.012 16.0696 11.8605 16.0725C11.7983 16.0723 11.7364 16.0644 11.6762 16.0491C11.4345 15.975 11.1846 15.9311 10.9322 15.9182C10.8845 15.9182 10.8369 15.9207 10.7894 15.9258C10.7009 15.9318 10.6131 15.9061 10.5419 15.8532C10.4706 15.8003 10.4205 15.7238 10.4007 15.6373C10.3768 15.5664 10.3796 15.4893 10.4087 15.4204C10.4377 15.3515 10.491 15.2956 10.5584 15.2632C10.609 15.2357 10.6507 15.1945 10.6788 15.1443C10.7069 15.0941 10.7202 15.037 10.7171 14.9795C10.7141 14.9221 10.6949 14.8666 10.6617 14.8197C10.6284 14.7727 10.5826 14.7361 10.5294 14.7141C10.351 14.6331 10.3467 14.5656 10.3915 14.412C10.4152 14.3314 10.4312 14.2491 10.4554 14.1701C10.4846 14.0741 10.4048 13.9189 10.3714 13.8328C10.2997 13.6475 10.1922 13.3875 10.0159 13.2771C9.89201 13.1995 9.28897 13.1296 8.85457 13.1296C8.70592 13.1169 8.55627 13.1361 8.41569 13.1861C8.32161 13.252 8.26369 13.4358 8.12081 13.3365C8.05032 13.2839 7.99705 13.2115 7.96776 13.1286C7.93848 13.0457 7.9345 12.9559 7.95633 12.8707C8.01937 12.5442 7.94449 12.1834 7.63009 12.1389C7.41409 12.1085 7.23169 11.9411 7.00577 11.9411C6.94943 11.9413 6.89358 11.9517 6.84097 11.9718C6.72813 12.016 6.6044 12.0243 6.48669 11.9955C6.36898 11.9666 6.26305 11.9022 6.18337 11.8109C5.81137 11.3565 6.09153 10.7362 5.63777 10.2806C5.46276 10.1041 5.22597 10.0026 4.97745 9.99744C4.87421 9.99472 4.77184 10.0169 4.67897 10.062C4.58609 10.1072 4.50545 10.1741 4.44385 10.257C4.32849 10.4126 4.23185 10.4768 4.11185 10.4768C4.02472 10.4718 3.93934 10.4502 3.86033 10.4131C3.72347 10.3621 3.60689 10.268 3.52817 10.145C3.41217 9.97216 3.32513 9.7424 3.09777 9.70288C2.77041 9.64592 2.75377 9.4304 2.69393 9.17344C2.63569 8.92368 2.85537 8.67216 2.68753 8.46336C2.50353 8.23424 2.49857 7.96656 2.39873 7.71504C2.39075 7.69223 2.39064 7.66741 2.39841 7.64453C2.40618 7.62165 2.42139 7.60203 2.44161 7.5888C3.11959 7.24429 3.77876 6.86397 4.41633 6.44944C4.92707 6.0858 5.49858 5.81619 6.10401 5.65328C6.20521 5.62245 6.30925 5.60192 6.41457 5.592C6.54705 5.592 6.55345 5.6904 6.55537 5.992C6.55697 6.22544 6.64433 6.24672 6.82961 6.32416C6.8804 6.34518 6.93481 6.35605 6.98977 6.35616C7.04975 6.36011 7.10938 6.34447 7.15971 6.31161C7.21003 6.27874 7.24832 6.23042 7.26881 6.17392C7.2843 6.14089 7.30987 6.11363 7.34185 6.09606C7.37382 6.07849 7.41054 6.07152 7.44673 6.07616C7.48374 6.07611 7.52054 6.08173 7.55585 6.0928C7.94257 6.21952 8.45681 6.08032 8.67137 6.58944C8.72001 6.7048 8.85505 6.71088 8.96305 6.70736C9.3066 6.70423 9.64475 6.62154 9.95098 6.46578C10.2572 6.31002 10.5232 6.08542 10.728 5.8096C10.8704 5.6224 10.9632 5.4992 11.0962 5.47856C11.1674 5.46752 11.4373 5.44576 11.4958 5.31024C11.5284 5.21431 11.5796 5.12579 11.6465 5.0498C11.7135 4.97381 11.7949 4.91185 11.8859 4.86752C11.9568 4.82904 12.0354 4.80696 12.116 4.80288C12.1719 4.80487 12.2262 4.82171 12.2734 4.85166C12.3206 4.88161 12.3589 4.92359 12.3845 4.97328C12.425 5.03651 12.481 5.08837 12.5471 5.12396C12.6132 5.15954 12.6873 5.17767 12.7624 5.17664C12.8493 5.17523 12.9347 5.15352 13.0117 5.11324C13.0887 5.07295 13.1552 5.01522 13.2059 4.94464C13.2806 4.84256 13.3568 4.74144 13.4323 4.64016L13.6995 4.65664C13.7308 4.71693 13.7493 4.78298 13.7539 4.85072C13.7641 4.96929 13.8187 5.07965 13.9067 5.15976C13.9947 5.23987 14.1096 5.28384 14.2286 5.28288C14.3236 5.28327 14.4161 5.25266 14.492 5.19568C14.5483 5.15228 14.5965 5.09932 14.6344 5.0392C14.7019 4.93616 14.7477 4.78352 14.9037 4.84528C15.0709 4.91168 15.0909 5.06096 15.0862 5.21776C15.0723 5.37761 15.1149 5.5373 15.2067 5.6689C15.2985 5.80051 15.4336 5.89567 15.5885 5.93776C15.661 5.96336 15.7402 5.98416 15.7722 6.04768C15.8858 6.27264 15.9771 6.32288 16.0872 6.32288C16.1522 6.32288 16.2234 6.30528 16.3096 6.296C16.5304 6.27168 16.7531 6.29312 16.961 6.16528C17.0019 6.13928 17.0494 6.1253 17.0979 6.12496C17.1573 6.12686 17.2147 6.14716 17.262 6.18304C17.3094 6.21892 17.3445 6.26862 17.3624 6.32528C17.5022 6.8352 17.8829 6.8832 18.321 6.9176C18.757 6.95184 18.889 7.24048 18.7046 7.6312C18.6315 7.78592 18.4976 7.90064 18.4691 8.08832C18.4461 8.28615 18.4043 8.48133 18.3442 8.6712C18.3112 8.76849 18.2652 8.86085 18.2074 8.94576C18.1502 9.02321 18.1133 9.11371 18.1 9.20905C18.0867 9.30439 18.0974 9.40154 18.1312 9.49168C18.2418 9.7456 18.4288 10.0277 18.8171 10.0277C18.8555 10.0277 18.8939 10.0261 18.9323 10.0261C19.611 10.0261 20.2035 10.2205 20.5315 10.8981C20.5693 10.9763 20.6435 10.9886 20.7173 11.0062C21.0059 11.0754 20.9587 11.2018 20.7752 11.3486C20.6542 11.4453 20.5453 11.5395 20.6158 11.7221C20.685 11.901 20.82 11.9434 20.9958 11.9685C21.3488 12.0186 21.5486 12.296 21.4394 12.6293C21.4012 12.7136 21.3966 12.8094 21.4265 12.897C21.4563 12.9846 21.5183 13.0577 21.6 13.1013C21.6734 13.1502 21.6762 13.3075 21.6019 13.3189V13.3186Z" fill="#667EEA"/>
</svg>
