<svg width="24" height="24" viewBox="0 0 24 24" fill="none" xmlns="http://www.w3.org/2000/svg">
<path d="M22.1578 3.37446L22.077 3.26102C22.069 3.24979 22.0608 3.23891 22.0525 3.22836C22.1413 3.07603 22.179 2.89922 22.1599 2.72391L22.1475 2.61357C22.1296 2.45907 22.0689 2.31264 21.9722 2.19078C21.8756 2.06892 21.7468 1.97647 21.6004 1.92383L21.2147 1.78668L20.9695 1.63749C20.9376 1.61809 20.9044 1.60087 20.8701 1.58593L19.6871 1.06944C19.5571 1.01271 19.4148 0.990156 19.2736 1.00393C19.1324 1.01771 18.9971 1.06736 18.8805 1.14816L18.6978 1.27466C18.5414 1.1237 18.332 1.04001 18.1146 1.04152C17.8972 1.04303 17.6891 1.12962 17.5347 1.28274L17.3548 1.46149L17.1403 1.55602L16.3429 1.8104C16.2364 1.84432 16.1379 1.89943 16.0532 1.9724C15.9685 2.04537 15.8995 2.13471 15.8502 2.23505C15.8009 2.33538 15.7724 2.44464 15.7664 2.55627C15.7604 2.66789 15.777 2.77958 15.8153 2.88462C15.8061 2.89516 15.7973 2.90598 15.7888 2.9171C15.7321 2.91882 15.6718 2.91985 15.612 2.91985C15.5318 2.92236 15.4516 2.91857 15.372 2.90851C15.3178 2.89777 15.2627 2.89236 15.2074 2.89235C15.0941 2.89239 14.9821 2.91545 14.878 2.96012C14.774 3.00479 14.6801 3.07015 14.602 3.15222L14.0654 3.7201C14.0042 3.78492 13.9538 3.85921 13.9162 3.9401L13.9032 3.96794L13.8482 3.95883C13.7324 3.93964 13.614 3.9452 13.5005 3.97515C13.3871 4.00509 13.2813 4.05874 13.1901 4.13255C13.0989 4.20636 13.0244 4.29866 12.9715 4.40337C12.9186 4.50807 12.8885 4.62281 12.8831 4.74001L12.8817 4.773H12.8697C12.6604 4.77255 12.4587 4.85133 12.3051 4.99352C12.194 4.95455 12.0759 4.93963 11.9586 4.94976C11.8413 4.9599 11.7276 4.99485 11.6248 5.0523L11.4364 5.15749C11.2761 5.24685 11.15 5.38693 11.0779 5.55572C10.923 5.59769 10.7837 5.6838 10.6769 5.80357L10.2027 6.33294C10.1141 6.43195 10.0505 6.55081 10.0174 6.6795C9.98424 6.8082 9.98251 6.94298 10.0123 7.07248C10.0421 7.20199 10.1026 7.32244 10.1887 7.42369C10.2748 7.52494 10.3839 7.60404 10.5069 7.65432L10.6396 7.70863L10.5365 8.00288L10.2835 8.20689C10.1817 8.28917 10.1006 8.39427 10.047 8.51369L9.8282 9.00199L9.56867 9.151C9.46009 9.21305 9.36701 9.29893 9.29645 9.40219C9.22589 9.50544 9.17969 9.62336 9.16133 9.74706L9.09705 10.1721L8.98688 10.5626L8.74109 10.6565L8.48208 10.7321C8.29044 10.7882 8.12539 10.9115 8.01709 11.0792C7.90879 11.247 7.86446 11.4482 7.8922 11.6459C7.8447 11.6742 7.79973 11.7065 7.7578 11.7425C7.70529 11.7864 7.65939 11.8377 7.6215 11.8946L7.03025 12.7944L6.99192 12.7655C6.84717 12.6562 6.67079 12.5968 6.48936 12.5964C6.38061 12.5961 6.27286 12.6172 6.17229 12.6586C6.07172 12.7 5.9803 12.7608 5.90327 12.8375L5.85875 12.8817C5.78043 12.9598 5.71842 13.0526 5.67634 13.1549C5.63426 13.2571 5.61296 13.3667 5.61366 13.4773C5.0573 13.5254 4.68828 13.6749 4.48392 13.9362C4.22993 14.048 4.02116 14.2424 3.89147 14.4877C3.85277 14.5117 3.81558 14.5379 3.7801 14.5664C3.7652 14.5659 3.75036 14.5655 3.73558 14.5654C3.54546 14.5619 3.35855 14.6148 3.19845 14.7174C3.03835 14.8199 2.91222 14.9677 2.83599 15.1419C2.62364 15.3419 2.49798 15.617 2.48588 15.9084C2.38989 16.0342 2.32019 16.178 2.28092 16.3313C2.24165 16.4846 2.23361 16.6442 2.25728 16.8006C1.98864 17.352 1.99655 17.8764 2.28307 18.2547L2.41403 18.5027C2.26216 18.547 2.12622 18.634 2.0224 18.7534C1.91858 18.8727 1.85126 19.0194 1.82846 19.176L1.79168 19.419C1.77143 19.6153 1.81065 19.8131 1.90425 19.9869L1.90752 19.9941C1.87354 20.0434 1.84501 20.0963 1.82244 20.1519C1.73819 20.3375 1.69252 20.5383 1.6882 20.7422C1.68389 20.946 1.72102 21.1486 1.79735 21.3376L1.80663 21.3837C1.82609 21.4799 1.86594 21.5709 1.9235 21.6504C2.27499 22.137 2.96799 22.9593 3.65875 22.9986C3.72128 23.002 3.78399 22.9985 3.84575 22.9881L4.64067 22.8567C4.78356 22.833 4.91781 22.7724 5.03014 22.681L5.75924 22.0873L6.10797 21.8649C6.15575 21.8673 6.2037 21.8709 6.25166 21.8709C6.42571 21.8713 6.59547 21.8169 6.73686 21.7154C6.76602 21.7241 6.79562 21.7311 6.82555 21.7365C6.90258 21.8533 7.00782 21.9487 7.13153 22.014C7.25524 22.0793 7.39343 22.1124 7.53329 22.1101C7.67315 22.1078 7.81018 22.0702 7.93168 22.0009C8.05318 21.9316 8.15523 21.8327 8.22839 21.7135L8.37139 21.4806C8.45145 21.3501 8.4938 21.2001 8.49377 21.047V20.631L8.54997 20.5351C9.07642 20.2098 9.51814 19.5565 9.41931 18.5661C9.6052 18.3954 9.73361 18.1713 9.78689 17.9246C9.84017 17.6779 9.81569 17.4208 9.71683 17.1886C9.6822 17.0944 9.63091 17.0072 9.56541 16.9313L9.45523 16.8032C9.56631 16.6222 9.63381 16.4179 9.65243 16.2064C9.67104 15.9948 9.64025 15.7819 9.56248 15.5843C9.54862 15.5313 9.55411 15.4751 9.57795 15.4258C9.62995 15.3539 9.66973 15.2739 9.69569 15.189C9.75279 14.9889 9.77512 14.7806 9.76169 14.573C9.76127 14.5489 9.75874 14.5249 9.75412 14.5013C9.74858 14.449 9.75225 14.3962 9.76495 14.3452C9.77412 14.336 9.78311 14.3264 9.79194 14.3165L10.0607 14.0135C10.1901 14.0423 10.3221 14.0578 10.4547 14.0597C10.6245 14.0719 10.7938 14.0314 10.9398 13.9438C11.0857 13.8563 11.2012 13.7259 11.2704 13.5704C11.3881 13.3348 11.5906 12.8245 11.4137 12.3797C11.4093 12.3687 11.4046 12.3578 11.3998 12.347L11.7998 11.6853C11.8645 11.5781 11.9042 11.4576 11.916 11.333L11.9957 10.4729C12.1571 10.4423 12.3074 10.3691 12.4311 10.2609C12.5547 10.1527 12.6472 10.0135 12.699 9.85758L12.9816 9.4523L13.3833 8.90883C13.4536 8.81364 13.5028 8.70449 13.5274 8.58872C13.552 8.47295 13.5516 8.35324 13.5261 8.23766L13.4797 8.02711L13.4883 8.01852C13.5726 7.93481 13.6379 7.834 13.6799 7.72289C13.8527 7.75171 14.0302 7.72537 14.1871 7.64761L14.3226 7.58041C14.4209 7.53201 14.5086 7.46454 14.5807 7.38192C14.6527 7.2993 14.7076 7.20318 14.7421 7.09916L14.7579 7.10518C14.9061 7.17056 15.0701 7.19127 15.2299 7.16477C15.3897 7.13827 15.5382 7.06571 15.6573 6.95599L15.8657 6.764C15.9395 6.69596 15.9975 6.61256 16.0357 6.51968C16.0738 6.4268 16.0912 6.32668 16.0865 6.22638C16.1766 6.34056 16.2952 6.429 16.4303 6.48282L16.8392 6.64507C16.951 6.68949 17.0712 6.70912 17.1914 6.70259C17.3115 6.69606 17.4289 6.66354 17.5352 6.60725L17.6188 6.56291L17.7601 6.61103C17.797 6.62363 17.8348 6.63363 17.8732 6.64094L18.0665 6.67789C18.2722 6.71719 18.4851 6.6774 18.6628 6.56647C18.8404 6.45555 18.9696 6.28167 19.0245 6.0796C19.1248 6.00439 19.2067 5.90745 19.264 5.79605C19.3214 5.68466 19.3528 5.56171 19.3559 5.43644L19.3765 4.6044L19.4872 4.41533C19.5431 4.39781 19.597 4.37442 19.6479 4.34555L19.7665 4.42771C19.7075 4.56746 19.6781 4.71795 19.6803 4.86965C19.6825 5.02134 19.7162 5.17093 19.7792 5.30891C19.8317 5.41386 19.9062 5.5063 19.9975 5.57996C20.1742 5.72996 20.3973 5.8144 20.629 5.81904C20.7373 5.81922 20.8446 5.79881 20.9452 5.75888C21.0627 5.71228 21.165 5.6342 21.241 5.53323C21.317 5.43227 21.3637 5.31231 21.376 5.18654L21.3916 5.02463L21.587 4.83729C21.6195 4.80598 21.6494 4.77206 21.6764 4.73588C21.8195 4.69782 21.9497 4.62217 22.0537 4.51678C22.1577 4.4114 22.2315 4.28011 22.2677 4.13655L22.2872 4.05869C22.3167 3.94207 22.3204 3.82043 22.2981 3.70223C22.2758 3.58404 22.228 3.47212 22.158 3.37429L22.1578 3.37446ZM21.6205 3.89094L21.6009 3.96863C21.5962 3.98698 21.5879 4.00422 21.5765 4.01935C21.5651 4.03449 21.5508 4.04722 21.5345 4.05682C21.5182 4.06641 21.5001 4.07269 21.4813 4.07528C21.4625 4.07788 21.4434 4.07674 21.4251 4.07193C21.3791 4.05332 21.3285 4.04889 21.2799 4.05921C21.2589 4.06649 21.2399 4.07854 21.2243 4.0944C21.2087 4.11027 21.1971 4.12952 21.1902 4.15065L21.1481 4.28196C21.1409 4.30449 21.1282 4.32487 21.1111 4.34126L20.7701 4.66816C20.7456 4.69176 20.7304 4.72334 20.7271 4.75719L20.6916 5.11985C20.6716 5.12774 20.6504 5.13176 20.629 5.13171C20.556 5.12547 20.4869 5.09588 20.432 5.04732C20.4167 5.03546 20.4041 5.02046 20.3951 5.00332C20.2983 4.80858 20.4865 4.4956 20.5501 4.399C20.565 4.37964 20.573 4.35587 20.5728 4.33146C20.559 4.15735 20.2325 3.91449 20.2325 3.91449L19.734 3.56919C19.71 3.55254 19.6814 3.5436 19.6521 3.54357C19.6228 3.54354 19.5942 3.55242 19.5701 3.56902L19.3198 3.7409C19.3074 3.74938 19.2938 3.75587 19.2794 3.76015L19.0852 3.8179C19.0505 3.82828 19.021 3.85143 19.0027 3.88269L18.7122 4.37838C18.7001 4.39911 18.6934 4.42259 18.6928 4.44661L18.6686 5.41943C18.668 5.44271 18.6618 5.4655 18.6504 5.48581C18.639 5.50612 18.6228 5.52334 18.6033 5.53596L18.4507 5.63427C18.4337 5.64522 18.4192 5.65967 18.4082 5.67665C18.3973 5.69363 18.39 5.71276 18.3871 5.73275L18.3647 5.88263C18.3619 5.90181 18.3552 5.92021 18.345 5.93674C18.3349 5.95326 18.3215 5.96757 18.3057 5.97879C18.2899 5.99001 18.2719 5.99792 18.253 6.00204C18.234 6.00616 18.2145 6.00641 18.1954 6.00277L18.0017 5.96582C17.9951 5.96456 17.9885 5.96284 17.9821 5.96066L17.6188 5.83674C17.6001 5.83035 17.5804 5.82785 17.5607 5.82939C17.541 5.83093 17.5219 5.83647 17.5045 5.84568L17.2137 5.99968C17.1952 6.00947 17.1748 6.01512 17.1539 6.01625C17.133 6.01738 17.1121 6.01395 17.0927 6.00621L16.6838 5.84396C16.6624 5.83509 16.6435 5.8213 16.6285 5.8037C16.6136 5.7861 16.603 5.7652 16.5977 5.74272C16.4636 5.20458 16.2178 5.04371 16.053 4.99868C16.0328 4.99314 16.0117 4.99209 15.9911 4.99559C15.9705 4.9991 15.9509 5.00708 15.9337 5.01897C15.9165 5.03087 15.9021 5.04639 15.8915 5.06444C15.8809 5.08249 15.8745 5.10263 15.8725 5.12346L15.8701 5.14838C15.8668 5.18181 15.8518 5.21301 15.8278 5.23651C15.8038 5.26001 15.7723 5.27432 15.7388 5.27694L15.4191 5.30272C15.3816 5.30575 15.3469 5.32348 15.3225 5.35205C15.298 5.38061 15.2859 5.41769 15.2887 5.45518L15.339 6.13804L15.3997 6.25852L15.1914 6.4505C15.1692 6.47032 15.1415 6.48295 15.1119 6.48675C15.0824 6.49056 15.0524 6.48535 15.0259 6.47182L14.4905 6.26746C14.4598 6.25472 14.4262 6.25057 14.3933 6.25544C14.3604 6.26032 14.3295 6.27404 14.3038 6.29513C14.242 6.33707 14.2444 6.37454 14.2234 6.43813L14.096 6.82571C14.0983 6.85414 14.092 6.88259 14.0779 6.90739C14.0638 6.93218 14.0426 6.95217 14.017 6.96475L13.8815 7.03179C13.8525 7.04577 13.8197 7.04982 13.7881 7.04329C13.7565 7.03677 13.728 7.02004 13.7069 6.99569L13.6608 6.94069C13.6377 6.91373 13.6054 6.89616 13.5702 6.89128C13.535 6.88641 13.4992 6.89457 13.4695 6.91422L13.1751 7.11343C13.1472 7.13226 13.1269 7.1604 13.1177 7.19283L13.0407 7.46817C13.0341 7.49186 13.0214 7.51342 13.0039 7.53074L12.7822 7.75074C12.7652 7.76756 12.7528 7.7884 12.746 7.81133C12.7392 7.83426 12.7384 7.85853 12.7435 7.88188L12.8547 8.38582C12.8591 8.40556 12.8592 8.42601 12.855 8.44578C12.8508 8.46555 12.8424 8.4842 12.8303 8.50046L12.423 9.05149L12.0586 9.57399C12.0483 9.76992 11.867 9.81771 11.693 9.81771C11.6342 9.8173 11.5755 9.81271 11.5174 9.80396C11.4983 9.80147 11.4789 9.80282 11.4604 9.80795C11.4418 9.81308 11.4245 9.82187 11.4094 9.83381C11.3943 9.84574 11.3818 9.86058 11.3725 9.87745C11.3632 9.89431 11.3575 9.91286 11.3555 9.932L11.2314 11.2695C11.2294 11.2908 11.2227 11.3114 11.2116 11.3297L10.6178 12.3116C10.601 12.3408 10.5948 12.375 10.6003 12.4083C10.6058 12.4416 10.6227 12.4719 10.648 12.4941C10.6888 12.5347 10.7532 12.5792 10.7749 12.634C10.866 12.8633 10.6412 13.2911 10.6412 13.2911C10.6255 13.3533 10.5461 13.3724 10.4547 13.3724C10.3467 13.3684 10.2395 13.3524 10.135 13.3246C10.1149 13.2922 10.0864 13.2659 10.0524 13.2487C10.0184 13.2314 9.98034 13.2238 9.94233 13.2267C9.90239 13.2269 9.86268 13.2328 9.82442 13.2442L9.27769 13.8604C8.99409 14.1283 9.07522 14.6106 9.07522 14.6106C9.08423 14.7382 9.0715 14.8664 9.03758 14.9898C9.03355 15.0024 9.02745 15.0143 9.01953 15.025C8.94468 15.1384 8.896 15.267 8.87703 15.4015C8.85807 15.536 8.86929 15.6731 8.90987 15.8027C8.9654 15.9224 8.98445 16.0558 8.96464 16.1862C8.94484 16.3166 8.88705 16.4383 8.7985 16.5361C8.74405 16.5901 8.70569 16.6581 8.68769 16.7326C8.66969 16.807 8.67276 16.8851 8.69658 16.9579C8.70231 16.9765 8.71192 16.9938 8.72477 17.0084L9.04411 17.3797C9.05593 17.3934 9.06524 17.4091 9.07161 17.4261C9.10599 17.4946 9.12534 17.5696 9.12838 17.6462C9.13141 17.7227 9.11805 17.799 9.0892 17.87C9.06035 17.941 9.01667 18.005 8.96108 18.0578C8.90549 18.1105 8.83928 18.1507 8.76687 18.1758C8.73669 18.1895 8.71222 18.2133 8.69769 18.2431C8.68317 18.2729 8.67949 18.3069 8.6873 18.3391C8.94563 19.5092 8.26878 19.9183 8.09089 20.004C8.06349 20.0169 8.04073 20.0379 8.02575 20.0642L7.94789 20.2031L7.82586 20.411C7.81305 20.4328 7.80629 20.4576 7.80627 20.4829V21.0472C7.80625 21.0733 7.79899 21.0989 7.7853 21.1212L7.64247 21.3543C7.62974 21.3751 7.61194 21.3923 7.59075 21.4043C7.56955 21.4163 7.54565 21.4228 7.52128 21.4231C7.49692 21.4233 7.47288 21.4174 7.45142 21.4059C7.42996 21.3943 7.41178 21.3775 7.39858 21.357L7.24509 21.1188C7.15675 20.9818 6.96941 21.1252 6.86817 21.0174L6.73806 20.8796C6.72289 20.8639 6.7044 20.8519 6.68395 20.8444C6.66351 20.8368 6.64164 20.834 6.61995 20.836C6.59826 20.8381 6.5773 20.845 6.55863 20.8562C6.53995 20.8674 6.52403 20.8827 6.51205 20.9009L6.37317 21.1173C6.3601 21.1376 6.34212 21.1544 6.32089 21.166C6.29965 21.1776 6.27585 21.1836 6.25166 21.1836L5.96892 21.1699L5.96188 21.1697C5.93435 21.1697 5.90739 21.1776 5.88419 21.1924L5.36306 21.5248C5.35842 21.5277 5.35394 21.531 5.34966 21.5344L4.59599 22.148C4.57656 22.1638 4.55333 22.1743 4.52861 22.1784C4.52861 22.1784 3.71478 22.3125 3.70499 22.3125L3.69777 22.3123C3.23044 22.2859 2.48055 21.2479 2.48055 21.2479L2.45357 21.1138C2.40222 21.0037 2.37609 20.8834 2.37707 20.7619C2.37806 20.6403 2.40612 20.5205 2.45924 20.4112C2.46393 20.3995 2.47018 20.3886 2.4778 20.3786C2.53057 20.3187 2.57014 20.2484 2.59392 20.1722C2.6177 20.0961 2.62516 20.0157 2.61582 19.9365C2.59107 19.7981 2.46113 19.5905 2.47144 19.5219L2.50822 19.2789C2.53538 19.0996 2.71963 19.1735 2.82585 19.2131C2.84403 19.2197 2.86335 19.2225 2.88267 19.2215C2.90198 19.2205 2.9209 19.2156 2.9383 19.2072C2.9557 19.1988 2.97123 19.1869 2.98398 19.1724C2.99672 19.1578 3.00642 19.1409 3.0125 19.1225L3.1488 18.6971C3.15331 18.6832 3.15563 18.6686 3.15567 18.654V18.4701C3.15565 18.447 3.14998 18.4243 3.13918 18.4039L2.85868 17.8723C2.60035 17.5947 2.85678 17.1128 2.97143 16.9287C2.98446 16.9081 2.99169 16.8844 2.99235 16.86C2.99302 16.8357 2.98709 16.8116 2.97521 16.7903C2.83496 16.5471 3.04086 16.2917 3.16083 16.1726C3.18001 16.1528 3.19302 16.1278 3.1983 16.1008C3.20358 16.0737 3.20089 16.0457 3.19057 16.0202C3.1146 15.8144 3.30658 15.6341 3.3896 15.5681C3.41332 15.5479 3.43025 15.5209 3.43807 15.4908C3.45078 15.422 3.48786 15.3601 3.5425 15.3165C3.59715 15.2728 3.66569 15.2503 3.73558 15.2531C3.86449 15.2531 4.05699 15.3794 4.12832 15.2079C4.15631 15.1591 4.19382 15.1164 4.2386 15.0824C4.28339 15.0483 4.33455 15.0236 4.38905 15.0097C4.4159 15.0015 4.43962 14.9854 4.45701 14.9633C4.4744 14.9413 4.48463 14.9145 4.48633 14.8865C4.48805 14.6866 4.77525 14.551 4.91585 14.4967C4.93516 14.4892 4.95261 14.4777 4.96699 14.4628C4.98136 14.4479 4.9923 14.4301 4.99903 14.4105C5.08411 14.1653 5.83263 14.1479 6.04352 14.1479C6.07841 14.1479 6.09852 14.1484 6.09852 14.1484C6.19907 14.1516 6.29759 14.1196 6.37716 14.0581C6.45672 13.9965 6.51238 13.9092 6.53456 13.811C6.54411 13.7794 6.54239 13.7454 6.5297 13.7148C6.51701 13.6843 6.49413 13.6591 6.46495 13.6435L6.37661 13.5962C6.35695 13.5858 6.34001 13.5709 6.32717 13.5527C6.31433 13.5345 6.30594 13.5136 6.30268 13.4916C6.29941 13.4696 6.30137 13.4471 6.30839 13.426C6.31541 13.4049 6.3273 13.3857 6.34309 13.37L6.38761 13.3258C6.4123 13.3014 6.44501 13.2866 6.47971 13.2843C6.51442 13.282 6.54879 13.2923 6.5765 13.3133L6.85803 13.5269C6.88123 13.5437 6.90874 13.5534 6.93731 13.5551C6.96588 13.5567 6.99431 13.5501 7.01925 13.536L7.07253 13.5042C7.12184 13.4842 7.17559 13.4777 7.22825 13.4853C7.24915 13.486 7.27 13.4828 7.28978 13.4761L7.47644 13.4065C7.50669 13.3898 7.53123 13.3645 7.54687 13.3337C7.5625 13.3029 7.5685 13.2681 7.56409 13.2339L8.19608 12.2723C8.22167 12.2452 8.25553 12.2274 8.29233 12.2217C8.39157 12.2241 8.49039 12.2081 8.58383 12.1746C8.75845 12.1002 8.72511 11.9594 8.68953 11.8171C8.66683 11.7403 8.63351 11.6671 8.59053 11.5995C8.57996 11.5808 8.57375 11.5599 8.57237 11.5384C8.571 11.5169 8.57449 11.4954 8.58258 11.4755C8.59068 11.4555 8.60317 11.4377 8.61913 11.4232C8.63509 11.4088 8.6541 11.3981 8.67475 11.3921L8.95491 11.3103L8.96591 11.3065L9.29505 11.181C9.30598 11.1769 9.31637 11.1714 9.32598 11.1647L9.53928 11.0164C9.56649 10.9975 9.5863 10.9697 9.59531 10.9378L9.76805 10.3259C9.76966 10.3203 9.77093 10.3146 9.77183 10.3088L9.84109 9.84985C9.84431 9.82857 9.85228 9.80829 9.86443 9.79052C9.87657 9.77276 9.89256 9.75796 9.91122 9.74724L10.3242 9.51005C10.3504 9.49502 10.3711 9.47209 10.3834 9.44456L10.6743 8.79471C10.6836 8.77421 10.6975 8.75618 10.7151 8.74211L11.0887 8.44081C11.1094 8.42411 11.125 8.40197 11.1338 8.37688L11.3025 7.89546C11.3124 7.86727 11.3308 7.84286 11.3552 7.82558C11.3795 7.80831 11.4086 7.79903 11.4385 7.79903C11.4797 7.80313 11.5211 7.79419 11.5569 7.77346C11.5927 7.75274 11.6211 7.72128 11.638 7.68353C11.6737 7.60746 11.6963 7.52595 11.7049 7.44239C11.7175 7.38107 11.7148 7.31759 11.697 7.25755C11.6793 7.19751 11.6471 7.14276 11.6032 7.09813C11.5443 7.03744 11.4677 6.9971 11.3844 6.98297C11.3728 6.98286 11.3614 6.98472 11.3505 6.98847C11.2254 7.0356 11.0961 7.07065 10.9643 7.09314C10.9573 7.09344 10.9503 7.09245 10.9437 7.09022L10.767 7.01803C10.7459 7.00941 10.7272 6.99586 10.7125 6.97851C10.6977 6.96117 10.6874 6.94053 10.6823 6.91835C10.6772 6.89617 10.6775 6.87308 10.6832 6.85104C10.6888 6.82899 10.6997 6.80864 10.7149 6.79168L11.1891 6.2623C11.2143 6.23419 11.2494 6.21703 11.2871 6.21452L11.5243 6.19888C11.5556 6.19685 11.5853 6.18455 11.609 6.16388C11.6326 6.14322 11.6487 6.11535 11.6549 6.08458L11.7013 5.85393C11.7054 5.83375 11.7137 5.8147 11.7259 5.79809C11.738 5.78147 11.7536 5.76768 11.7716 5.75768L11.96 5.65283C11.9805 5.6413 12.0035 5.63497 12.0269 5.6344C12.0504 5.63383 12.0737 5.63903 12.0947 5.64955C12.1158 5.66007 12.1339 5.67558 12.1475 5.69473C12.1611 5.71389 12.1699 5.73609 12.1729 5.7594C12.1832 5.84035 12.2248 5.917 12.3195 5.917C12.3383 5.917 12.357 5.91332 12.3744 5.90618L12.5976 5.81508C12.617 5.80716 12.6343 5.7951 12.6485 5.77975C12.6627 5.7644 12.6734 5.74613 12.6798 5.72622L12.7336 5.5595C12.7429 5.5307 12.761 5.50557 12.7855 5.48775C12.81 5.46993 12.8394 5.46033 12.8697 5.46033L13.3999 5.48783C13.4369 5.48774 13.4724 5.47343 13.4992 5.44787C13.5259 5.4223 13.5417 5.38744 13.5435 5.3505L13.5699 4.77146C13.5716 4.73478 13.5873 4.70016 13.6139 4.67478C13.6404 4.6494 13.6757 4.63521 13.7124 4.63516C13.7203 4.6352 13.7282 4.63589 13.736 4.63722L14.1983 4.71371C14.2294 4.71846 14.2611 4.71309 14.2889 4.69839C14.3167 4.68368 14.3389 4.66043 14.3525 4.63207L14.5396 4.22988C14.5461 4.21604 14.5547 4.20333 14.5652 4.19224L15.1017 3.62436C15.1153 3.61006 15.1317 3.59871 15.1499 3.59102C15.1681 3.58334 15.1876 3.57947 15.2074 3.57968C15.2178 3.57975 15.2282 3.58084 15.2385 3.58294C15.362 3.60196 15.487 3.61013 15.612 3.60735C15.8156 3.60735 16.0176 3.59532 16.0772 3.59532C16.1621 3.59532 16.3141 3.56335 16.3048 3.45197C16.3008 3.42705 16.3033 3.40152 16.3118 3.37778C16.3204 3.35404 16.3348 3.33285 16.3538 3.31619L16.6936 3.05116C16.7118 3.03693 16.7263 3.01847 16.7358 2.99737C16.7453 2.97628 16.7495 2.95318 16.7481 2.93009C16.7467 2.907 16.7396 2.88461 16.7276 2.86485C16.7155 2.8451 16.6988 2.82858 16.679 2.81672L16.5224 2.7234C16.4988 2.70936 16.4798 2.6888 16.4676 2.66421C16.4554 2.63962 16.4506 2.61203 16.4537 2.58476C16.4569 2.5575 16.4678 2.53171 16.4852 2.51051C16.5026 2.48931 16.5258 2.47359 16.552 2.46524L17.3769 2.20227C17.3818 2.20069 17.3866 2.19886 17.3912 2.19677L17.7243 2.04982C17.7404 2.04269 17.7551 2.03267 17.7676 2.02026L18.0191 1.77087C18.0349 1.75521 18.0541 1.74341 18.0751 1.7364C18.0962 1.72939 18.1187 1.72736 18.1407 1.73045C18.1627 1.73355 18.1837 1.74169 18.2021 1.75425C18.2204 1.7668 18.2356 1.78343 18.2465 1.80283L18.3193 1.93294C18.3307 1.95325 18.3469 1.97048 18.3664 1.98315C18.3859 1.99581 18.4082 2.00354 18.4314 2.00565C18.4314 2.00565 18.758 2.03487 18.7624 2.03487C18.7919 2.03488 18.8207 2.02588 18.8449 2.00908L19.272 1.71329C19.2925 1.69976 19.316 1.69143 19.3404 1.68904C19.3648 1.68664 19.3894 1.69024 19.4121 1.69954L20.595 2.21602C20.6009 2.21861 20.6066 2.2216 20.6122 2.22496L20.905 2.40302C20.9134 2.40816 20.9224 2.41242 20.9317 2.41574L21.3699 2.57163C21.3952 2.58054 21.4175 2.59639 21.4342 2.61736C21.4509 2.63834 21.4613 2.66359 21.4643 2.69022L21.4765 2.79937C21.4804 2.83361 21.4715 2.86808 21.4516 2.89618C21.4316 2.92429 21.402 2.94404 21.3684 2.95165C21.3045 2.95386 21.2414 2.96574 21.1811 2.98688C21.1557 3.00587 21.1356 3.03099 21.1227 3.05989C21.1097 3.08878 21.1043 3.1205 21.107 3.15205C21.1048 3.2871 21.1385 3.42031 21.2046 3.53808C21.2352 3.59343 21.2648 3.61027 21.3084 3.61027C21.3394 3.61027 21.3693 3.60013 21.4002 3.60013C21.4231 3.60011 21.4457 3.60556 21.4661 3.61602C21.4865 3.62648 21.5041 3.64166 21.5174 3.66029L21.5984 3.7739C21.6103 3.79059 21.6186 3.80969 21.6224 3.82987C21.6263 3.85006 21.6257 3.87084 21.6207 3.89077L21.6205 3.89094Z" fill="#667EEA"/>
</svg>
