<svg width="24" height="24" viewBox="0 0 24 24" fill="none" xmlns="http://www.w3.org/2000/svg">
<path d="M21.7976 8.32459L21.1108 7.31315C21.0775 7.26412 21.0325 7.22424 20.9797 7.19718C20.927 7.17013 20.8683 7.15677 20.8091 7.15833L19.4777 7.19318C19.4211 7.19466 19.3658 7.2097 19.3162 7.23702C19.2667 7.26435 19.2244 7.30318 19.193 7.35023L19.0574 7.55326L17.6762 8.43726C17.6309 8.46624 17.5928 8.50516 17.5648 8.55106C17.5369 8.59696 17.5197 8.64864 17.5147 8.70216L17.4847 9.02344H16.9487L15.8947 8.16466C15.8529 8.13063 15.8038 8.10661 15.7513 8.09443C15.6988 8.08226 15.6442 8.08225 15.5917 8.0944C15.5392 8.10656 15.4901 8.13056 15.4483 8.16457C15.4065 8.19859 15.373 8.24171 15.3504 8.29065L14.9115 9.24142L10.7122 7.44867L10.953 6.5303C10.9757 6.44396 10.9649 6.35224 10.9227 6.27356C10.8805 6.19489 10.8101 6.13508 10.7257 6.10616L10.3771 5.9867L9.8032 5.10924L9.8854 5.08913C9.93853 5.07613 9.98791 5.05097 10.0297 5.01563C10.0714 4.9803 10.1044 4.93575 10.126 4.8855C10.1476 4.83526 10.1573 4.78068 10.1543 4.72606C10.1512 4.67145 10.1355 4.61828 10.1085 4.57075L9.91028 4.22292L10.6687 2.66608C10.7074 2.58665 10.7149 2.49562 10.6899 2.41091C10.6648 2.32619 10.6089 2.25394 10.5332 2.20837L9.85159 1.79802C9.79113 1.76149 9.72107 1.74401 9.65054 1.74788L8.19587 1.82479L6.3822 1.02974C6.33055 1.0071 6.27423 0.997147 6.21794 1.0007C6.16166 1.00426 6.10704 1.02123 6.05865 1.05019L5.08128 1.6353C5.03349 1.66393 4.99313 1.70345 4.96351 1.75063C4.93389 1.79781 4.91583 1.85133 4.91081 1.90681C4.90579 1.9623 4.91396 2.01819 4.93463 2.06992C4.95531 2.12165 4.98792 2.16777 5.0298 2.20451L5.57477 2.68223L5.60485 3.89331C5.60698 3.97882 5.64003 4.06066 5.69788 4.12366L6.59356 5.09901L5.85085 6.43788C5.82281 6.48838 5.8076 6.54499 5.80655 6.60275L5.80376 6.74987L4.49806 8.18486L3.83596 7.97276C3.74775 7.94454 3.65199 7.95204 3.56926 7.99366C3.48653 8.03528 3.42342 8.1077 3.39351 8.19534L3.029 9.26436C3.00511 9.33443 3.00381 9.41024 3.02529 9.48109C3.04678 9.55194 3.08996 9.61425 3.14876 9.65925L3.33653 9.80293L3.81443 10.781L3.818 10.9942L2.37545 11.5113C2.31003 11.5347 2.25298 11.5769 2.21142 11.6326C2.16985 11.6883 2.14562 11.755 2.14175 11.8244C2.13788 11.8938 2.15455 11.9628 2.18966 12.0227C2.22477 12.0827 2.27678 12.131 2.33918 12.1616L2.78056 12.3778C2.70544 12.4312 2.65412 12.5118 2.63754 12.6024C2.62096 12.693 2.64042 12.7866 2.69178 12.8631L3.23083 13.6659C3.26523 13.7172 3.3125 13.7586 3.3679 13.7859L4.24236 14.2172C4.31586 14.2535 4.39969 14.2631 4.47949 14.2444C4.55929 14.2257 4.63011 14.1798 4.67982 14.1146L5.06512 13.6096L5.27262 14.1013L5.14814 14.7559C5.13614 14.8191 5.14157 14.8843 5.16386 14.9446L8.05889 22.7694C8.10959 22.9064 8.24425 23.0002 8.39043 23.0002C8.43355 23.0002 8.47631 22.9923 8.51659 22.9769L9.22536 22.7062C9.30716 22.6749 9.37447 22.6144 9.41425 22.5364L9.5698 22.2312L9.8115 21.936L10.4188 21.2077C10.4582 21.1604 10.4846 21.1037 10.4953 21.0432L10.8157 19.2415C10.826 19.1837 10.8217 19.1242 10.8032 19.0685L10.634 18.5579L10.9564 17.5831L11.226 17.417L11.5631 17.3772C11.6112 17.3715 11.6577 17.356 11.6996 17.3315C11.7416 17.3071 11.778 17.2743 11.8067 17.2352L12.2245 16.6656C12.3656 16.6067 12.5315 16.5615 12.6451 16.4558C12.7792 16.3309 12.905 16.1958 13.0345 16.0662C13.1381 15.9626 13.2381 15.8757 13.2964 15.7389C13.3618 15.5853 13.4245 15.4305 13.4885 15.2763L14.7457 14.5854C14.7947 14.5585 14.8367 14.5203 14.868 14.474C14.8994 14.4277 14.9194 14.3746 14.9263 14.319L14.9878 13.8219L15.4579 13.4623L16.0887 13.588C16.1477 13.5997 16.2088 13.5962 16.2662 13.5778C16.3235 13.5593 16.3751 13.5265 16.4162 13.4825C16.4573 13.4384 16.4865 13.3846 16.5009 13.3262C16.5154 13.2677 16.5146 13.2065 16.4988 13.1484L15.8978 10.9408L16.6355 10.635L17.1422 10.9661C17.1887 10.9965 17.2418 11.0155 17.297 11.0216L17.6714 11.0627L17.2519 11.6829C17.2151 11.7373 17.1942 11.8008 17.1915 11.8664C17.1888 11.9321 17.2045 11.9971 17.2367 12.0543C17.2687 12.1117 17.3162 12.1589 17.3737 12.1906C17.4312 12.2224 17.4965 12.2374 17.5621 12.2341L17.8386 12.2205L18.4777 13.0936C18.5189 13.15 18.5759 13.1928 18.6415 13.2168C18.707 13.2408 18.7782 13.2449 18.8461 13.2284C18.9139 13.212 18.9754 13.1759 19.0227 13.1246C19.0701 13.0733 19.1012 13.0091 19.1122 12.9402L19.2862 11.8437L19.5831 11.9006C19.6296 11.9095 19.6775 11.909 19.7238 11.899C19.7701 11.8891 19.8139 11.87 19.8527 11.8428C19.8915 11.8156 19.9244 11.7809 19.9495 11.7407C19.9745 11.7006 19.9913 11.6558 19.9988 11.609L20.1909 10.403L20.3616 10.1778C20.3986 10.129 20.4222 10.0714 20.4303 10.0108L20.4591 9.79408L21.499 9.43271C21.5565 9.41274 21.6079 9.37825 21.6482 9.33259C21.6884 9.28694 21.7162 9.23166 21.7288 9.17211L21.8508 8.59654C21.8608 8.54997 21.8612 8.50186 21.8521 8.45513C21.8429 8.40839 21.8244 8.36398 21.7976 8.32459ZM21.0787 8.83034L20.0214 9.19768C19.9595 9.21916 19.9049 9.2574 19.8635 9.30814C19.8221 9.35887 19.7956 9.4201 19.787 9.48501L19.7418 9.82506L19.574 10.0464C19.5389 10.0927 19.5158 10.147 19.5066 10.2043L19.358 11.1375L19.0609 11.0806C19.0144 11.0717 18.9665 11.0722 18.9202 11.0822C18.8739 11.0921 18.8301 11.1113 18.7913 11.1385C18.7525 11.1657 18.7196 11.2004 18.6945 11.2406C18.6694 11.2808 18.6526 11.3256 18.6452 11.3724L18.547 11.991L18.2968 11.6492C18.2687 11.6109 18.2333 11.5786 18.1925 11.5543L18.5855 10.9732C18.6196 10.9228 18.6401 10.8644 18.645 10.8037C18.6499 10.7429 18.6391 10.682 18.6135 10.6267C18.5879 10.5714 18.5485 10.5237 18.4991 10.4881C18.4496 10.4526 18.3918 10.4304 18.3313 10.4237L17.4583 10.3279L16.8662 9.94095C16.818 9.90947 16.7629 9.89022 16.7056 9.88488C16.6483 9.87954 16.5905 9.88827 16.5374 9.91031L15.3396 10.4068C15.2602 10.4398 15.1955 10.5005 15.1576 10.5777C15.1198 10.6549 15.1114 10.7433 15.134 10.8262L15.6666 12.7829L15.4393 12.7377C15.39 12.7278 15.3392 12.7286 15.2903 12.74C15.2413 12.7514 15.1954 12.773 15.1555 12.8036L14.4405 13.3505C14.4032 13.379 14.3719 13.4147 14.3486 13.4555C14.3252 13.4962 14.3102 13.5412 14.3044 13.5878L14.2469 14.0528L13.0396 14.7163C12.9693 14.7549 12.9142 14.8163 12.8834 14.8904L12.651 15.4498L12.1851 15.9158L11.8617 16.0508C11.8023 16.0756 11.7508 16.1161 11.7128 16.1679L11.3277 16.6928L11.0657 16.7238C11.0146 16.7298 10.9654 16.7469 10.9216 16.7739L10.4759 17.0487C10.4051 17.0923 10.3519 17.1596 10.3258 17.2386L9.92614 18.4468C9.90224 18.5189 9.90225 18.5969 9.92618 18.669L10.104 19.2057L9.81579 20.8268L9.2667 21.4855L8.99883 21.8125C8.98275 21.8321 8.96884 21.8534 8.95736 21.876L8.84629 22.094L8.59832 22.1887L5.86138 14.7912L5.98745 14.1282C6.00044 14.0597 5.99294 13.9889 5.96588 13.9247L5.6773 13.241L5.69393 12.6763C5.6961 12.6015 5.67448 12.5279 5.6322 12.4662C5.58991 12.4045 5.52912 12.3577 5.45859 12.3327C5.38806 12.3078 5.31143 12.3058 5.23971 12.3271C5.16799 12.3485 5.10489 12.392 5.05949 12.4515L4.29439 13.4543L3.76549 13.1934L3.52392 12.7832L3.72351 12.6788C3.78138 12.6485 3.82973 12.6027 3.86318 12.5466C3.89663 12.4905 3.91388 12.4262 3.91301 12.3609C3.91215 12.2955 3.89321 12.2317 3.85829 12.1765C3.82336 12.1213 3.77383 12.0768 3.71517 12.0481L3.54802 11.9662L3.40163 11.8944L4.29516 11.5741C4.36467 11.5492 4.42463 11.5031 4.46663 11.4424C4.50863 11.3816 4.53056 11.3093 4.52934 11.2354L4.52028 10.6905C4.51941 10.6387 4.50716 10.5877 4.4844 10.5411L3.93534 9.41746C3.91128 9.3682 3.87607 9.32521 3.83252 9.29191L3.78036 9.25199L3.95086 8.75192L4.49892 8.92749C4.56347 8.94817 4.6326 8.94986 4.69808 8.93235C4.76356 8.91485 4.82263 8.87888 4.86824 8.82875L6.4164 7.12735C6.47413 7.06397 6.50682 6.98176 6.5084 6.89605L6.51197 6.70398L7.33568 5.21915C7.37167 5.15425 7.38633 5.07968 7.37758 5.00598C7.36884 4.93229 7.33713 4.86322 7.28695 4.80854L6.30855 3.74313L6.27796 2.50976C6.27672 2.46092 6.26539 2.41286 6.24467 2.36861C6.22395 2.32437 6.19429 2.28489 6.15756 2.25267L5.86099 1.99267L6.26545 1.7505L7.98885 2.50606C8.03939 2.5282 8.09441 2.53822 8.14951 2.53532L9.57985 2.45966L9.89146 2.64726L9.19309 4.081C9.1679 4.13269 9.15571 4.18975 9.15757 4.24723C9.15943 4.30471 9.17528 4.36086 9.20375 4.41082L9.2624 4.51378L9.14991 4.54132C9.09499 4.55477 9.04411 4.58119 9.00151 4.61836C8.95892 4.65554 8.92587 4.70239 8.90513 4.75498C8.88438 4.80758 8.87656 4.86438 8.8823 4.92062C8.88805 4.97686 8.9072 5.03091 8.93816 5.07822L9.85197 6.47526C9.89503 6.5411 9.95883 6.5907 10.0333 6.6162L10.1859 6.66853L9.95102 7.56426C9.92952 7.64629 9.93821 7.7333 9.97551 7.80946C10.0128 7.88561 10.0762 7.94582 10.1542 7.97912L14.95 10.0265C15.0346 10.0626 15.13 10.0643 15.2158 10.0313C15.3017 9.99824 15.3713 9.93301 15.4098 9.84947L15.8016 9.00062L16.5999 9.65095C16.6629 9.70234 16.7418 9.73042 16.8231 9.73045H17.8069C17.895 9.73044 17.9799 9.69757 18.045 9.63825C18.1101 9.57894 18.1507 9.49746 18.1589 9.40977L18.2028 8.93969L19.501 8.10885C19.5421 8.08254 19.5773 8.04802 19.6044 8.00744L19.6793 7.89521L20.6346 7.87015L21.1283 8.59719L21.0787 8.83034Z" fill="#667EEA"/>
</svg>
