<svg width="24" height="24" viewBox="0 0 24 24" fill="none" xmlns="http://www.w3.org/2000/svg">
<path d="M21.2704 13.0885C21.5706 12.8329 21.8088 12.5123 21.9668 12.1511C22.1249 11.7898 22.1987 11.3973 22.1826 11.0033C22.1909 10.85 22.1601 10.6971 22.0931 10.559C22.0261 10.4209 21.925 10.3021 21.7995 10.2137C21.6659 10.1346 21.5146 10.0902 21.3595 10.0846C21.2043 10.079 21.0502 10.1124 20.9113 10.1818C20.7586 10.2478 20.6141 10.3239 20.4744 10.3975L20.3728 10.4507C19.9617 10.6647 19.3138 10.4602 19.0652 10.2312C18.9588 10.1332 18.9642 10.0907 18.9672 10.068C19.0049 9.7045 19.1624 9.36389 19.4149 9.09975C19.4943 9.01752 19.5297 9.0053 19.6445 9.07023C19.7246 9.11563 19.8043 9.17103 19.8888 9.22993C19.9464 9.27009 20.004 9.31026 20.0631 9.34836C20.21 9.45514 20.3808 9.52453 20.5606 9.55053C20.7404 9.57653 20.9238 9.55835 21.095 9.49758C21.2579 9.42614 21.4009 9.31606 21.5117 9.17686C21.6225 9.03766 21.6977 8.87356 21.7308 8.69875C21.7678 8.52649 21.7809 8.34993 21.7696 8.17409C21.735 7.78511 21.564 7.42091 21.2867 7.14587C21.2304 7.09144 21.1911 7.02192 21.1734 6.94565C21.1557 6.86939 21.1603 6.78963 21.1869 6.71597C21.258 6.47277 21.3191 6.21036 21.3856 5.86492C21.5468 5.02735 21.2399 4.51951 20.4204 4.26679C20.4204 4.26679 20.2342 4.20868 20.1737 4.19138C20.0947 4.17372 20.022 4.13493 19.9634 4.07914C19.9047 4.02336 19.8623 3.95269 19.8407 3.87467C19.7537 3.61401 19.667 3.35953 19.5633 3.11268C19.2227 2.3021 18.7125 1.9692 17.8547 2.00222C16.4204 2.05944 15.0143 2.41783 13.7276 3.0541C13.3332 3.23867 12.988 3.51358 12.7197 3.85653C12.4515 4.19948 12.2679 4.60081 12.1837 5.02799C12.0886 5.48436 12.0197 5.94581 11.9773 6.41006C11.9154 6.98553 11.6013 7.39034 11.1149 7.52067C10.954 7.56354 10.9482 7.55084 10.8931 7.42574C10.8599 7.35065 10.5113 6.40022 10.4 6.2175C10.3229 6.07575 10.2104 5.95637 10.0735 5.87095C9.93656 5.78552 9.77988 5.73696 9.61865 5.72998C9.45743 5.723 9.29714 5.75783 9.15335 5.8311C9.00957 5.90437 8.88718 6.01358 8.79807 6.14813C8.63217 6.36756 8.50631 6.61455 8.42628 6.87774C8.23736 7.49991 8.07995 8.13121 7.95464 8.76924C7.80272 9.74344 7.3774 10.6545 6.72814 11.3965C6.59712 11.5493 6.47535 11.7098 6.36349 11.8771C6.01837 12.3721 5.92693 12.9255 6.21458 13.4752C6.32857 13.696 6.45426 13.9105 6.59114 14.1178C6.72589 14.3453 6.7942 14.606 6.7883 14.8703C6.79158 15.186 6.82041 15.5008 6.87451 15.8118C6.93732 16.1718 7.05584 16.5197 7.22582 16.8431C7.623 17.5767 8.17898 18.2123 8.85316 18.7036C9.3583 19.0614 9.85677 19.0472 10.3346 18.6609C10.5242 18.499 10.6941 18.3153 10.8405 18.1135C10.8963 18.0508 10.9371 17.9762 10.9599 17.8954C10.9827 17.8146 10.9869 17.7296 10.9721 17.647C10.9428 17.5627 10.8945 17.4863 10.831 17.4236C10.7674 17.3609 10.6904 17.3136 10.6058 17.2854C10.4274 17.2147 10.2568 17.1257 10.0968 17.0198C10.0333 16.9731 10.0952 16.8578 10.1287 16.8091C10.1973 16.7197 10.2884 16.6501 10.3927 16.6075C10.4522 16.58 10.5034 16.5562 10.6645 16.7108C10.6962 16.7413 10.7301 16.7693 10.7636 16.7978C11.243 17.2149 11.6713 17.2439 12.1952 16.8939C12.2804 16.8369 12.5434 16.6446 12.5901 16.6115C12.5839 16.6642 12.5774 16.7169 12.5704 16.7696C12.5503 16.9272 12.5295 17.0902 12.5234 17.2585C12.5086 17.4732 12.5605 17.6873 12.672 17.8714C12.7835 18.0555 12.9491 18.2007 13.1462 18.2871C13.3462 18.3822 13.553 18.4621 13.7649 18.5263C14.1116 18.6284 14.4618 18.7141 14.7905 18.793C14.9111 18.82 15.0248 18.8715 15.1245 18.9445C15.2242 19.0174 15.3078 19.1101 15.37 19.2169C15.4718 19.3793 15.5777 19.539 15.6878 19.696C15.7867 19.8418 15.9153 19.9651 16.0651 20.0578C16.2149 20.1505 16.3826 20.2106 16.5573 20.2341C16.612 20.2419 16.6671 20.2484 16.7221 20.2543C16.6948 20.3404 16.6708 20.4276 16.6501 20.5156C16.4773 21.2695 16.7406 21.8535 17.3724 22.118C17.6759 22.2486 18.0025 22.3171 18.3329 22.3196C18.7717 22.317 19.2008 22.1905 19.571 21.9548C19.7764 21.8209 19.9458 21.6387 20.0644 21.4241C20.1319 21.3148 20.1731 21.1912 20.1847 21.0632C20.1963 20.9352 20.1781 20.8063 20.1314 20.6866C20.0781 20.5646 19.9972 20.4567 19.8952 20.3713C19.7931 20.2858 19.6726 20.2253 19.5432 20.1943C19.4237 20.1608 19.1242 20.1039 19.0915 20.0973C19.1195 20.0705 19.4189 19.7788 19.4932 19.6828C19.5838 19.5752 19.6464 19.447 19.6755 19.3094C19.7047 19.1718 19.6994 19.0292 19.6602 18.8941C19.6184 18.7759 19.5509 18.6685 19.4625 18.5797C19.374 18.4908 19.267 18.4228 19.149 18.3804C19.2104 18.2086 19.2725 18.0318 19.3228 17.8519C19.4296 17.522 19.4365 17.168 19.3426 16.8342C19.2487 16.5004 19.0583 16.2018 18.7952 15.976C18.7444 15.9296 18.5786 15.7877 18.3807 15.6185C18.0959 15.3751 17.7414 15.0724 17.5841 14.9286C17.5134 14.8669 17.4602 14.7878 17.4296 14.6992C17.3991 14.6106 17.3923 14.5155 17.4099 14.4234C17.411 14.3878 17.4206 14.3529 17.4379 14.3218C17.4551 14.2906 17.4796 14.2639 17.5091 14.244C17.5428 14.235 17.5781 14.2343 17.6121 14.2419C17.646 14.2495 17.6777 14.2652 17.7042 14.2877C17.7926 14.3495 17.8749 14.4195 17.95 14.4969C18.0675 14.6133 18.3659 14.9352 18.3659 14.9352C18.5622 15.1519 18.8273 15.2941 19.1163 15.338C19.8808 15.4564 20.9095 14.9865 21.3159 14.3331C21.513 14.0162 21.5755 13.7373 21.5068 13.4803C21.4651 13.3306 21.3833 13.1952 21.2702 13.0887L21.2704 13.0885ZM20.7533 12.69C20.606 12.802 20.4242 12.9209 20.4441 13.1317C20.449 13.1872 20.4676 13.2407 20.4982 13.2874C20.5288 13.334 20.5705 13.3724 20.6195 13.399C20.7786 13.4841 20.8732 13.5689 20.8934 13.6443C20.8988 13.7723 20.8573 13.898 20.7767 13.9977C20.5035 14.4368 19.7294 14.7898 19.2133 14.7103C19.0652 14.6885 18.9297 14.6149 18.8307 14.5026C18.6883 14.3485 18.5462 14.1935 18.3969 14.0454C18.096 13.7473 17.6822 13.4697 17.2489 13.6648C17.1203 13.7268 17.0098 13.8208 16.9279 13.9379C16.8461 14.0549 16.7957 14.191 16.7816 14.3331C16.7483 14.5277 16.7652 14.7275 16.8307 14.9137C16.8962 15.1 17.008 15.2664 17.1558 15.3973C17.321 15.5482 17.6799 15.8547 17.9681 16.1011C18.1586 16.2638 18.3181 16.4 18.367 16.4446C18.5443 16.5903 18.6724 16.787 18.7341 17.0081C18.7957 17.2291 18.7878 17.4638 18.7115 17.6802C18.6615 17.8583 18.5982 18.0351 18.5312 18.2226C18.4994 18.3114 18.4672 18.4012 18.4359 18.4926C18.3596 18.7157 18.531 18.8733 18.7296 18.92C18.8341 18.9444 19.0166 18.9689 19.0565 19.0903C19.062 19.1271 19.059 19.1646 19.0476 19.2C19.0362 19.2353 19.0167 19.2676 18.9907 19.2942C18.9447 19.3537 18.5426 19.7441 18.4885 19.8079C18.4202 19.8742 18.3709 19.9576 18.3455 20.0493C18.3201 20.141 18.3196 20.2379 18.344 20.3298C18.3756 20.4179 18.4301 20.4959 18.5019 20.5559C18.5737 20.6159 18.6602 20.6557 18.7525 20.6712C18.862 20.7005 18.9699 20.7209 19.0741 20.7407C19.1792 20.7605 19.2786 20.7794 19.3717 20.8055C19.526 20.8486 19.597 20.9618 19.5127 21.1096C19.446 21.2316 19.3514 21.3361 19.2366 21.4146C18.9984 21.5686 18.7252 21.6601 18.4422 21.6807C18.1593 21.7013 17.8757 21.6502 17.6177 21.5322C17.4937 21.4803 17.1165 21.3224 17.2689 20.6575C17.2977 20.5321 17.3397 20.4048 17.384 20.2698C17.4427 20.1412 17.4608 19.9978 17.4361 19.8587C17.3766 19.6709 17.1715 19.658 17.0057 19.6433C16.8851 19.6325 16.7646 19.6217 16.6444 19.6052C16.5561 19.5937 16.4712 19.5632 16.3958 19.5158C16.3203 19.4684 16.256 19.4052 16.2074 19.3305C16.1036 19.1829 16.0039 19.0326 15.9081 18.8797C15.802 18.7033 15.6616 18.5501 15.4951 18.4292C15.3286 18.3082 15.1395 18.2219 14.939 18.1755C14.618 18.0983 14.2767 18.0148 13.9438 17.917C13.762 17.8615 13.5846 17.7925 13.4131 17.7106C13.0721 17.5528 13.1623 17.1487 13.2004 16.8499C13.2161 16.7277 13.2321 16.6011 13.2415 16.4721C13.2546 16.3787 13.249 16.2837 13.2251 16.1925C13.2012 16.1013 13.1595 16.0158 13.1022 15.9409C12.9356 15.7693 12.6011 15.8509 12.422 15.9609C12.2974 16.0376 11.9204 16.3136 11.8426 16.3657C11.7443 16.4485 11.6205 16.4949 11.4921 16.4973C11.3407 16.4579 11.2052 16.3725 11.1044 16.2528C10.7896 15.9506 10.4602 15.876 10.1254 16.0314C9.94128 16.1018 9.77974 16.2208 9.65796 16.3758C9.53618 16.5307 9.45873 16.7158 9.43386 16.9113C9.42825 17.0288 9.45081 17.1459 9.49966 17.2529C9.54851 17.3599 9.62224 17.4536 9.71469 17.5263C9.88485 17.6456 10.0674 17.7461 10.2592 17.8261C10.1637 17.9508 10.0552 18.0651 9.93551 18.1669C9.67659 18.376 9.49609 18.3809 9.22019 18.1851C8.62221 17.7472 8.12945 17.1814 7.77779 16.5289C7.64195 16.2642 7.54731 15.9802 7.49712 15.6869C7.45004 15.4093 7.4252 15.1285 7.42283 14.847C7.42632 14.465 7.32116 14.09 7.11961 13.7656C6.9952 13.5769 6.8809 13.3817 6.77719 13.1809C6.69748 13.0477 6.66013 12.8934 6.67011 12.7385C6.68009 12.5836 6.73692 12.4354 6.83307 12.3135C6.94641 12.1414 7.06981 11.9761 7.20264 11.8185C7.93048 10.9895 8.40799 9.97089 8.57963 8.88116C8.70139 8.2642 8.85398 7.65373 9.03683 7.05204C9.1024 6.82233 9.29496 6.35101 9.59246 6.36418C9.64846 6.37031 9.70205 6.39032 9.74837 6.42239C9.79469 6.45447 9.83228 6.49759 9.85773 6.54786C9.93805 6.67962 10.2673 7.58084 10.3122 7.68212C10.4983 8.10392 10.8237 8.25584 11.2792 8.13392C12.0218 7.93485 12.5187 7.31573 12.6085 6.47769C12.6486 6.03743 12.7136 5.5998 12.8032 5.1669C12.8664 4.83256 13.0086 4.51818 13.2179 4.24989C13.4272 3.98161 13.6976 3.7672 14.0065 3.62449C15.2136 3.02726 16.5329 2.69067 17.8785 2.63659C18.4697 2.61341 18.7388 2.78978 18.9777 3.35858C19.073 3.58512 19.152 3.81737 19.2382 4.07565C19.3946 4.5446 19.7929 4.73875 20.2331 4.87337C20.7432 5.03053 20.8618 5.22611 20.7621 5.7449C20.6994 6.06986 20.6425 6.31449 20.5773 6.53817C20.5209 6.71414 20.5126 6.90196 20.5532 7.08221C20.5938 7.26246 20.6819 7.42858 20.8083 7.56338C20.9984 7.78118 21.1269 7.97216 21.1348 8.19679C21.1434 8.43015 21.1232 8.76654 20.8883 8.89322C20.8082 8.92343 20.7217 8.93205 20.6372 8.91823C20.5528 8.90441 20.4735 8.86863 20.4073 8.81448C20.3544 8.78051 20.0629 8.57747 19.9567 8.5173C19.8012 8.41627 19.6144 8.37492 19.4308 8.40089C19.2471 8.42686 19.0791 8.51839 18.9577 8.65859C18.6112 9.02122 18.3932 9.48758 18.3373 9.98605C18.3232 10.1201 18.343 10.2556 18.395 10.3801C18.4469 10.5045 18.5293 10.6138 18.6347 10.698C19.0336 11.0659 19.9618 11.3807 20.6657 11.014C20.83 10.9278 20.9934 10.8379 21.1637 10.7642C21.391 10.6658 21.5463 10.7547 21.5474 11.0062C21.5642 11.3305 21.5005 11.654 21.3619 11.9478C21.2233 12.2415 21.0142 12.4964 20.7532 12.6897L20.7533 12.69ZM7.53713 19.3245C7.20502 19.0572 6.78624 19.088 6.44429 19.4051C6.28062 19.5569 5.91201 19.9741 5.87105 20.0195C5.81006 20.0939 5.72719 20.1472 5.63421 20.1718C5.54123 20.1964 5.44286 20.1911 5.35305 20.1567C5.25126 20.1262 5.15143 20.0895 5.05413 20.0468C5.05413 20.0468 4.52422 19.8193 4.38897 19.7757C4.0748 19.6867 3.74069 19.698 3.4333 19.8082C3.12592 19.9183 2.86062 20.1218 2.67447 20.39C2.58905 20.5064 2.53288 20.6417 2.51069 20.7844C2.48851 20.927 2.50096 21.0729 2.547 21.2098C2.6001 21.3398 2.68371 21.455 2.79075 21.5458C2.89779 21.6367 3.02513 21.7004 3.16199 21.7316C3.32126 21.7786 3.48567 21.806 3.65157 21.813C4.18631 21.8052 4.71604 21.917 5.20208 22.1401C5.43557 22.2589 5.69398 22.3206 5.95598 22.3199C6.12538 22.3194 6.29389 22.2956 6.45684 22.2493C7.26376 22.0231 7.87653 21.1376 7.88193 20.1903C7.8962 20.0291 7.87244 19.8667 7.81256 19.7164C7.75267 19.566 7.65833 19.4318 7.53713 19.3245ZM6.28555 21.6378C6.02198 21.72 5.73684 21.6971 5.48973 21.574C4.92076 21.3067 4.29874 21.1714 3.67015 21.1784C3.55581 21.1725 3.44259 21.1529 3.33296 21.1199C3.12722 21.0625 3.09198 20.9112 3.20517 20.7388C3.29274 20.6178 3.40765 20.5192 3.54053 20.451C3.67341 20.3828 3.82051 20.347 3.96987 20.3464C4.27117 20.3464 4.54184 20.5223 4.81203 20.6337C4.93379 20.6868 5.05882 20.7321 5.18636 20.7693C5.38977 20.8352 5.60812 20.8395 5.81397 20.7817C6.01982 20.7239 6.20399 20.6065 6.34333 20.4443C6.51748 20.2503 6.68432 20.0482 6.87593 19.8707C6.96849 19.785 7.09771 19.7453 7.18502 19.8671C7.23762 19.9645 7.25922 20.0756 7.24693 20.1855C7.24328 20.8388 6.81196 21.4903 6.28555 21.6378ZM3.70872 18.3587C4.29282 18.5628 4.90702 18.6676 5.52577 18.6687C5.93026 18.6846 6.5124 18.5646 6.70639 18.161C6.75082 18.0575 6.77337 17.9459 6.77264 17.8333C6.7719 17.7207 6.74788 17.6094 6.7021 17.5065C6.65624 17.3897 6.59518 17.2795 6.52049 17.1787C6.22774 16.7916 5.84588 16.4809 5.40734 16.273C5.13794 16.1401 4.83295 16.0974 4.5374 16.1511C4.13025 16.2161 3.74747 16.3874 3.42774 16.6477C3.08801 16.9285 2.93006 17.2644 2.98276 17.5935C3.03594 17.9246 3.29359 18.1964 3.70872 18.3587ZM3.83223 17.1371C4.06706 16.9475 4.34775 16.8232 4.64598 16.7767C4.81008 16.7498 4.97846 16.7732 5.12906 16.8437C5.47709 17.0063 5.78007 17.2515 6.01154 17.5581C6.05964 17.6229 6.17728 17.7994 6.13378 17.887C6.09028 17.974 5.94154 17.988 5.85835 17.9994C5.74727 18.0198 5.63472 18.0311 5.5218 18.0331C4.9833 18.034 4.44849 17.9442 3.93986 17.7673C3.74873 17.6927 3.62522 17.59 3.60966 17.493C3.59458 17.3979 3.67777 17.2649 3.83223 17.1371ZM8.99635 5.10276C9.14493 5.16153 9.30557 5.18327 9.46443 5.16613C9.62329 5.14898 9.77559 5.09345 9.90821 5.00434C10.12 4.87033 10.296 4.68677 10.421 4.46951C10.546 4.25226 10.6162 4.00783 10.6256 3.75736C10.6262 3.7491 10.6265 3.74053 10.6265 3.73228C10.636 3.5461 10.5981 3.36057 10.5165 3.19297C10.4349 3.02536 10.3122 2.88115 10.1598 2.77375C10.0256 2.69061 9.87248 2.64303 9.71481 2.63547C9.55713 2.62792 9.40013 2.66064 9.25861 2.73057C8.96993 2.87935 8.73493 3.11458 8.58642 3.4034C8.43791 3.69222 8.38332 4.0202 8.43025 4.34156C8.45478 4.50517 8.51927 4.66021 8.61801 4.79296C8.71675 4.9257 8.8467 5.03222 8.99635 5.10276ZM9.52134 3.30889C9.56663 3.28397 9.61747 3.27087 9.66917 3.27082C9.72087 3.27076 9.77174 3.28375 9.81709 3.30857C9.87696 3.35883 9.924 3.42263 9.95431 3.49468C9.98462 3.56673 9.99733 3.64497 9.99139 3.72291C9.98687 3.8718 9.94615 4.01735 9.87274 4.14697C9.79933 4.27658 9.69544 4.38636 9.57007 4.46681C9.52508 4.50128 9.4723 4.52417 9.41639 4.53348C9.36047 4.54278 9.30313 4.5382 9.2494 4.52015C9.19523 4.48974 9.14917 4.44676 9.11511 4.39481C9.08104 4.34287 9.05996 4.2835 9.05366 4.2217C9.0344 4.04055 9.06838 3.85772 9.15145 3.69559C9.23452 3.53346 9.36306 3.39908 9.52134 3.30889Z" fill="#667EEA"/>
</svg>
