<svg width="24" height="24" viewBox="0 0 24 24" fill="none" xmlns="http://www.w3.org/2000/svg">
<g clip-path="url(#clip0_145_34974)">
<path d="M19.6446 5.46375L19.3521 3.80063C19.3385 3.72396 19.3015 3.65339 19.2461 3.59873C19.1906 3.54406 19.1195 3.50801 19.0427 3.49557L18.3977 3.39057L18.2139 2.28919C18.1978 2.19164 18.1437 2.10444 18.0635 2.04659C17.9833 1.98875 17.8835 1.96494 17.7859 1.98038L16.9749 2.10788L15.6268 1.31925C15.5526 1.27585 15.4657 1.25928 15.3807 1.27232C15.2957 1.28536 15.2177 1.32722 15.1599 1.39088L14.1624 2.48982L13.2043 2.51044L13.2572 2.01169C13.2671 1.9185 13.2417 1.825 13.186 1.74959C13.1304 1.67418 13.0486 1.62233 12.9566 1.60425L11.4774 1.31363L11.1321 0.49294C11.1065 0.432166 11.0653 0.379209 11.0128 0.33941C10.9602 0.299611 10.8981 0.274377 10.8326 0.266253L8.70225 0.00281544C8.61509 -0.00791827 8.52693 0.0122441 8.45311 0.0597945C8.37928 0.107345 8.32446 0.179274 8.29819 0.263065L7.98938 1.251C7.97005 1.31288 7.9671 1.37871 7.9808 1.44206C7.9945 1.50542 8.0244 1.56414 8.06756 1.6125L8.77031 2.4L9.00281 3.32944L8.22619 4.04719L7.9485 3.51188C7.91851 3.45413 7.87401 3.40518 7.81937 3.36984C7.76473 3.3345 7.70184 3.31399 7.63688 3.31032L6.18937 3.22782C6.12525 3.22395 6.06122 3.23674 6.0035 3.26493C5.94578 3.29311 5.89632 3.33575 5.85994 3.38869L5.20931 4.32732C5.16635 4.38941 5.14313 4.46303 5.14269 4.53853C5.14226 4.61404 5.16463 4.68792 5.20688 4.7505L5.95388 5.85844L4.85719 8.63363L3.31594 8.87982C3.26104 8.8886 3.20877 8.90948 3.16294 8.94095C3.1171 8.97242 3.07883 9.01369 3.05091 9.06176C3.02298 9.10984 3.0061 9.16353 3.00148 9.21894C2.99686 9.27435 3.00461 9.33009 3.02419 9.38213L3.42806 10.458L3.02044 11.6479C2.99526 11.7214 2.99356 11.801 3.01556 11.8755L3.49069 13.4863L3.15 13.7419C3.10344 13.7768 3.06564 13.8221 3.03961 13.8742C3.01358 13.9263 3.00001 13.9837 3 14.0419V14.7171C3 14.7712 3.01173 14.8248 3.03438 14.874C3.05704 14.9232 3.09009 14.9669 3.13125 15.0021L3.80063 15.5753L3.46631 16.0721C3.42465 16.1341 3.40243 16.2071 3.4025 16.2817C3.40257 16.3564 3.42492 16.4293 3.46669 16.4912L4.34475 17.7921C4.38739 17.8551 4.44821 17.9037 4.51912 17.9314L6.61744 18.7517L5.64581 19.9845C5.59363 20.0506 5.56523 20.1324 5.56519 20.2166V22.0279C5.56519 22.1273 5.6047 22.2227 5.67502 22.293C5.74535 22.3634 5.84073 22.4029 5.94019 22.4029H8.63869L9.38175 22.9961C9.44263 23.0447 9.51715 23.0732 9.59494 23.0775L10.3282 23.118L10.9639 23.8676C10.9991 23.9091 11.0429 23.9425 11.0924 23.9653C11.1418 23.9882 11.1956 24 11.25 24C11.2575 24 11.265 23.9998 11.2723 23.9993C11.3304 23.9958 11.3869 23.9789 11.4373 23.9498C11.4877 23.9207 11.5306 23.8803 11.5627 23.8318L12.0289 23.1274H12.4562L13.4475 23.5134C13.5295 23.5454 13.6201 23.5474 13.7034 23.5191L15.6778 22.8529L16.8915 23.643C16.9447 23.6777 17.0059 23.6983 17.0693 23.7028C17.1327 23.7074 17.1962 23.6958 17.2538 23.6691C17.3115 23.6424 17.3614 23.6014 17.3989 23.5501C17.4364 23.4988 17.4603 23.4389 17.4683 23.3758L17.6308 22.0914C17.642 22.0039 17.6218 21.9151 17.574 21.8409L17.0228 20.9863L18.6174 20.0636C18.6675 20.0347 18.7102 19.9945 18.7422 19.9463C18.7742 19.8981 18.7946 19.8432 18.8018 19.7858L18.9319 18.7483C18.9397 18.6862 18.9318 18.6231 18.9089 18.5648C18.886 18.5065 18.8489 18.4548 18.801 18.4146L17.1112 16.9943L16.0125 15.5055L15.6405 14.5577L18.9769 12.4853L19.629 13.2203C19.6707 13.2673 19.7236 13.3031 19.7828 13.3243C19.842 13.3456 19.9056 13.3516 19.9677 13.3418C20.0298 13.332 20.0885 13.3068 20.1383 13.2684C20.1882 13.2301 20.2275 13.1798 20.2528 13.1222L20.9685 11.4921C20.9972 11.4266 21.0066 11.3543 20.9956 11.2837C20.9845 11.213 20.9535 11.147 20.9062 11.0934L20.2001 10.2926L20.2991 9.21863C20.3047 9.1582 20.2955 9.09734 20.2723 9.04125L19.9356 8.22563L20.0379 7.35094C20.0452 7.28927 20.037 7.22676 20.0141 7.16903C19.9913 7.1113 19.9544 7.06016 19.9069 7.02019L19.0568 6.30488L19.5474 5.78682C19.5877 5.74431 19.6174 5.69297 19.6343 5.6369C19.6512 5.58084 19.6547 5.5216 19.6446 5.46394V5.46375ZM19.2696 7.46419L19.1794 8.23482C19.1719 8.2983 19.1807 8.36264 19.2051 8.42175L19.5439 9.24188L19.4385 10.3849C19.4338 10.4357 19.4396 10.487 19.4555 10.5356C19.4714 10.5841 19.497 10.6289 19.5308 10.6673L20.1853 11.4098L19.8013 12.2846L19.3281 11.7512C19.2694 11.685 19.1892 11.6417 19.1016 11.629C19.0141 11.6162 18.9249 11.6348 18.8497 11.6814L14.9794 14.0854C14.9049 14.1317 14.849 14.2026 14.8214 14.2858C14.7937 14.3691 14.7962 14.4594 14.8282 14.541L15.3323 15.8254C15.3442 15.8559 15.3601 15.8847 15.3795 15.9111L16.5341 17.4754C16.5517 17.4991 16.5719 17.5207 16.5945 17.5397L18.1624 18.8574L18.0808 19.5077L16.3067 20.5343C16.2628 20.5597 16.2244 20.5937 16.1941 20.6344C16.1637 20.675 16.1419 20.7214 16.13 20.7708C16.118 20.8201 16.1163 20.8713 16.1247 20.9214C16.1332 20.9714 16.1517 21.0192 16.1792 21.0619L16.8696 22.1325L16.7992 22.6879L15.9349 22.1252C15.8874 22.0942 15.8335 22.0744 15.7772 22.0673C15.721 22.0602 15.6638 22.0659 15.6101 22.0841L13.5926 22.7651L12.6626 22.4029C12.6192 22.386 12.5731 22.3774 12.5265 22.3774H11.8271C11.7652 22.3774 11.7043 22.3928 11.6497 22.4221C11.5952 22.4514 11.5487 22.4937 11.5146 22.5454L11.2127 23.0014L10.7961 22.5098C10.7631 22.4709 10.7226 22.4392 10.677 22.4165C10.6314 22.3939 10.5816 22.3807 10.5308 22.3779L9.756 22.335L9.00394 21.7346C8.93748 21.6816 8.85497 21.6527 8.76994 21.6527H6.31537V20.3466L7.51969 18.8184C7.55591 18.7724 7.58086 18.7186 7.59253 18.6612C7.60421 18.6038 7.60229 18.5445 7.58693 18.488C7.57156 18.4315 7.54318 18.3794 7.50406 18.3359C7.46493 18.2923 7.41615 18.2585 7.36163 18.2372L4.90106 17.2753L4.22981 16.2808L4.60913 15.7164C4.66039 15.6401 4.68184 15.5476 4.66939 15.4566C4.65695 15.3655 4.61148 15.2821 4.54163 15.2224L3.75 14.5444V14.2294L4.149 13.9301C4.21017 13.8842 4.25585 13.8207 4.27992 13.7481C4.30398 13.6756 4.30527 13.5973 4.28363 13.524L3.76856 11.778L4.18106 10.5737C4.20924 10.4914 4.20791 10.4018 4.17731 10.3204L3.88744 9.54807L5.18644 9.3405C5.25072 9.33021 5.31122 9.30336 5.36198 9.2626C5.41274 9.22183 5.45202 9.16855 5.47594 9.108L6.72375 5.95032C6.74614 5.89368 6.75439 5.83245 6.74779 5.77191C6.74119 5.71137 6.71994 5.65336 6.68588 5.60288L5.97188 4.54388L6.35644 3.98869L7.38094 4.04682L7.7865 4.82869C7.81305 4.87993 7.85106 4.92436 7.89759 4.9585C7.94412 4.99265 7.9979 5.01559 8.05474 5.02556C8.11159 5.03552 8.16996 5.03222 8.22533 5.01593C8.28069 4.99964 8.33155 4.97079 8.37394 4.93163L9.675 3.72938C9.72444 3.68371 9.76067 3.62558 9.77991 3.56108C9.79914 3.49659 9.80066 3.4281 9.78431 3.36282L9.47513 2.12813C9.46046 2.06915 9.43162 2.01463 9.39112 1.96932L8.76862 1.27182L8.9205 0.78544L10.5251 0.983815L10.8637 1.78819C10.8876 1.84483 10.9249 1.89475 10.9726 1.93356C11.0202 1.97237 11.0767 1.99888 11.1369 2.01075L12.4753 2.27382L12.4138 2.85469C12.4082 2.90765 12.4139 2.9612 12.4307 3.01177C12.4474 3.06234 12.4747 3.10876 12.5107 3.14794C12.5465 3.18743 12.5904 3.2187 12.6394 3.23961C12.6884 3.26052 12.7414 3.27057 12.7946 3.26907L14.3396 3.23607C14.3906 3.23498 14.4407 3.22353 14.4871 3.20242C14.5334 3.1813 14.575 3.15096 14.6093 3.11325L15.5107 2.12007L16.7117 2.82263C16.7862 2.86653 16.8737 2.8831 16.9592 2.8695L17.5354 2.77875L17.7021 3.77907C17.715 3.85638 17.7517 3.92771 17.8073 3.98304C17.8628 4.03836 17.9343 4.07489 18.0116 4.0875L18.6594 4.19288L18.8732 5.40788L18.2387 6.07763C18.2035 6.11474 18.1764 6.15864 18.1588 6.20664C18.1412 6.25463 18.1337 6.30571 18.1366 6.35674C18.1395 6.40777 18.1528 6.45767 18.1756 6.50337C18.1985 6.54907 18.2305 6.58961 18.2696 6.6225L19.2696 7.46419Z" fill="#667EEA"/>
</g>
<defs>
<clipPath id="clip0_145_34974">
<rect width="24" height="24" fill="white"/>
</clipPath>
</defs>
</svg>
