<svg width="24" height="24" viewBox="0 0 24 24" fill="none" xmlns="http://www.w3.org/2000/svg">
<path d="M19.9319 15.4977C19.8121 15.2676 19.6397 15.069 19.4287 14.9181C19.3199 14.8395 19.2102 14.762 19.0997 14.6857C18.9945 14.6132 18.8902 14.5395 18.7867 14.4645C18.8521 14.3769 18.9089 14.2832 18.9562 14.1847C19.0641 13.989 19.0964 13.7605 19.0469 13.5426C18.9974 13.3247 18.8696 13.1326 18.6877 13.0027C18.6382 12.961 18.5891 12.9188 18.5404 12.8761C18.5874 12.6937 18.585 12.5021 18.5337 12.3209C18.4824 12.1397 18.3839 11.9753 18.2483 11.8446C18.2499 11.7223 18.2284 11.6008 18.185 11.4865C18.1935 11.3885 18.1895 11.2898 18.173 11.1929L18.1726 11.1913C18.2667 11.1101 18.3419 11.0094 18.393 10.8961C18.4442 10.7829 18.4701 10.6599 18.4689 10.5356C18.4811 10.2622 18.4152 9.99089 18.279 9.75345C18.1057 9.48657 17.9672 9.19864 17.8669 8.89665C17.8385 8.79806 17.799 8.70298 17.7493 8.61323C17.7017 8.52557 17.6531 8.43878 17.6041 8.35198L17.5692 8.28993C17.5982 8.21259 17.6218 8.13851 17.6434 8.07079L17.6616 8.01442C17.6903 7.97913 17.719 7.94395 17.7478 7.90889C17.8392 7.79941 17.9278 7.68765 18.0136 7.57373C18.1806 7.36545 18.2717 7.10652 18.2719 6.83958C18.2721 6.57263 18.1813 6.31358 18.0147 6.10506C17.8945 5.95497 17.751 5.82521 17.5896 5.72075L17.5841 5.7168C17.4951 5.47956 17.3225 5.283 17.0988 5.16405C17.0858 5.10974 17.0728 5.056 17.0597 5.00283L17.0584 4.99733C17.1823 4.82401 17.2507 4.61708 17.2543 4.40402C17.2553 4.38907 17.2653 4.32753 17.2718 4.2868C17.3123 4.09834 17.3212 3.90447 17.2983 3.71308C17.316 3.67063 17.3358 3.62611 17.3562 3.58039L17.3935 3.49618C17.3944 3.49497 17.399 3.48707 17.4033 3.47899C17.5102 3.3034 17.5614 3.09953 17.5501 2.89427C17.5198 2.66039 17.4341 2.43712 17.3001 2.24305C17.1661 2.04897 16.9877 1.88969 16.7798 1.77846C16.7717 1.75268 16.763 1.72633 16.7535 1.6994C16.6881 1.50738 16.5674 1.33896 16.4066 1.2153C16.2459 1.09164 16.0521 1.01824 15.8497 1.00434C15.8158 1.00147 15.7829 1.00004 15.7511 1.00004C15.6122 0.998784 15.4746 1.02671 15.3472 1.08202C15.2198 1.13733 15.1054 1.21878 15.0115 1.3211C14.9877 1.31965 14.9639 1.3189 14.94 1.31887C14.7463 1.31564 14.5558 1.36835 14.3913 1.47069C14.2268 1.57303 14.0953 1.72065 14.0126 1.89585C13.8921 1.97857 13.7911 2.08651 13.7166 2.21217C13.642 2.33783 13.5957 2.47821 13.5808 2.62357C13.5645 2.78874 13.5554 2.92779 13.5525 3.06065C13.5517 3.09728 13.544 3.13344 13.5298 3.16721C13.4843 3.28419 13.4532 3.40625 13.4371 3.53072L13.3937 3.58624C13.3675 3.61975 13.3407 3.65396 13.3137 3.68919C13.1792 3.61506 13.0283 3.57582 12.8748 3.57507C12.7117 3.5751 12.5519 3.6216 12.4143 3.70913C12.3925 3.64746 12.3693 3.58632 12.3447 3.52574C12.1879 3.12268 11.9181 2.7734 11.5678 2.51976C11.4105 2.40503 11.2213 2.3424 11.0266 2.34066C10.859 2.34126 10.6952 2.39122 10.5558 2.48429C10.4164 2.57736 10.3075 2.70944 10.2427 2.86402L10.21 2.88946C10.0537 2.99277 9.92207 3.12927 9.82451 3.28924C9.74262 3.4417 9.70536 3.61416 9.71701 3.78683C9.72865 3.9595 9.78872 4.1254 9.89033 4.26549C10.2161 4.74619 10.5902 5.19229 11.0068 5.59683C11.1422 5.72576 11.3 5.82887 11.4724 5.90105C11.5157 6.04657 11.5874 6.18209 11.6833 6.2998C11.669 6.36222 11.6599 6.42576 11.6563 6.48972C11.5742 6.62653 11.5342 6.78449 11.5413 6.94388C11.5484 7.10328 11.6023 7.25706 11.6962 7.38604C11.654 7.5024 11.6358 7.62614 11.6429 7.74973C11.6575 7.98096 11.758 8.19837 11.9248 8.3592C11.92 8.41891 11.9064 8.47758 11.8844 8.53331C11.7368 8.86429 11.7074 9.23597 11.8012 9.58604C11.8787 9.81011 11.9217 10.0446 11.9288 10.2816C11.9261 10.4584 11.974 10.6323 12.0669 10.7827C12.1598 10.9331 12.2937 11.0539 12.453 11.1307L12.4772 11.1427C12.5518 11.2818 12.6605 11.3997 12.793 11.4854C12.7307 11.5891 12.6662 11.6914 12.5996 11.7924L12.5465 11.8539C12.46 11.9536 12.3705 12.0567 12.2825 12.1702C12.1932 12.2862 12.1055 12.4035 12.0195 12.522C11.8562 12.7571 11.6766 12.9805 11.4822 13.1906C11.386 13.2884 10.705 13.8985 10.5362 14.0355C10.4313 14.1026 10.3396 14.1885 10.2659 14.2889C10.1791 14.3734 9.86283 14.6553 9.73994 14.765C9.66432 14.8322 9.60691 14.8836 9.58646 14.9025L9.56463 14.9221C9.44995 15.0129 9.357 15.1281 9.29257 15.2594C9.22813 15.3907 9.19383 15.5348 9.19218 15.6811C9.16375 15.7227 9.13452 15.7639 9.10452 15.8045C8.95442 15.9952 8.85766 16.2223 8.82414 16.4627C8.79062 16.7031 8.82154 16.9481 8.91374 17.1726C8.92749 17.2063 8.93987 17.2406 8.95224 17.275L8.96874 17.3201C8.87167 17.5166 8.84294 17.7399 8.8871 17.9546C8.90531 18.0663 8.93314 18.1763 8.97029 18.2832C9.00398 18.3754 9.03904 18.4661 9.07393 18.5553C8.9271 18.8112 8.87922 19.1121 8.93935 19.4009C8.81765 19.6246 8.78616 19.8863 8.85135 20.1324C8.76863 20.2852 8.7285 20.4573 8.73516 20.6309C8.74068 20.7728 8.77452 20.9123 8.8347 21.041C8.89489 21.1697 8.9802 21.285 9.08562 21.3802C9.14772 21.4342 9.21632 21.4801 9.2898 21.5171C9.34331 21.6724 9.44486 21.8066 9.57976 21.9003C9.62784 21.9333 9.67915 21.9613 9.7329 21.9839C9.80355 22.0901 9.8893 22.1856 9.98744 22.2671C10.1139 22.4592 10.2945 22.6095 10.5063 22.699C10.5816 22.7931 10.6771 22.869 10.7858 22.9211C10.8944 22.9732 11.0134 23.0002 11.1338 23H11.1464C11.3968 23.007 11.6438 22.9407 11.8571 22.8092C11.8708 22.8097 11.8846 22.8099 11.8983 22.8099C12.015 22.8098 12.131 22.7908 12.2416 22.7537C12.4193 22.8263 12.616 22.8389 12.8015 22.7895C12.9871 22.7401 13.1514 22.6315 13.2696 22.4801C13.409 22.4546 13.5429 22.4052 13.6654 22.334L13.6834 22.3237C13.8152 22.3663 13.9528 22.3877 14.0913 22.3869C14.2232 22.3861 14.3546 22.3694 14.4825 22.3371C14.6982 22.2867 14.8875 22.1579 15.0136 21.9758C15.0297 21.9514 15.0448 21.9262 15.0588 21.9002C15.0722 21.8934 15.0858 21.8864 15.0997 21.879C15.1622 21.8933 15.226 21.9008 15.2901 21.9014C15.3434 21.9022 15.3965 21.904 15.4496 21.9057C15.5264 21.9082 15.6033 21.9107 15.6799 21.9108C15.887 21.9193 16.0919 21.8653 16.2679 21.7558C16.4439 21.6463 16.5828 21.4863 16.6667 21.2967C16.7468 21.1409 16.846 20.9957 16.9619 20.8645C16.9998 20.8172 17.0372 20.7699 17.0744 20.7221C17.2286 20.4899 17.4353 20.2971 17.6778 20.1594C17.8718 20.0622 18.0324 19.9095 18.1391 19.7206C18.2242 19.5807 18.3067 19.4393 18.389 19.2978C18.5105 19.0885 18.6255 18.891 18.7486 18.7004C18.895 18.4737 19.0552 18.2538 19.2247 18.0213C19.2785 17.9475 19.3322 17.8737 19.3856 17.7998C19.6499 17.4678 19.8357 17.0803 19.929 16.6662C19.9294 16.6662 19.9347 16.6509 19.9503 16.6197C20.0376 16.4449 20.0815 16.2517 20.0783 16.0564C20.0751 15.8611 20.0249 15.6695 19.9319 15.4977ZM19.3345 16.3139C19.2976 16.3844 19.2705 16.4596 19.2537 16.5373C19.1775 16.8523 19.0318 17.1463 18.8275 17.3979C18.6058 17.7056 18.3768 18.0089 18.1711 18.3272C17.953 18.665 17.761 19.0196 17.5518 19.3631C17.5136 19.4351 17.4564 19.4951 17.3863 19.5367C17.0432 19.7185 16.7494 19.981 16.5304 20.3016C16.3361 20.5202 16.1701 20.7624 16.0362 21.0224C16.0051 21.0882 15.9545 21.1428 15.8913 21.1788C15.8281 21.2148 15.7553 21.2304 15.6829 21.2235C15.5552 21.2228 15.4274 21.2158 15.2996 21.214C15.2779 21.2171 15.2558 21.2132 15.2365 21.2027C15.2172 21.1922 15.2019 21.1758 15.1927 21.156C15.1841 21.1452 15.173 21.1367 15.1602 21.1315C15.1475 21.1263 15.1336 21.1244 15.12 21.126C15.0249 21.1351 14.9338 21.1684 14.8553 21.2228C14.7109 21.332 14.4799 21.367 14.484 21.4358C14.4863 21.492 14.4713 21.5476 14.4411 21.5951C14.4103 21.6329 14.3675 21.659 14.3199 21.6692C14.2452 21.6883 14.1684 21.6985 14.0913 21.6994C13.9706 21.7016 13.8523 21.6661 13.7529 21.5977C13.722 21.5731 13.6844 21.5587 13.6451 21.5562C13.6078 21.558 13.5721 21.5723 13.5439 21.5968C13.4739 21.6484 13.4005 21.6952 13.3242 21.7369C13.2504 21.7823 13.1659 21.8073 13.0793 21.8094C13.0582 21.8094 13.0371 21.8077 13.0162 21.8044C12.9904 21.8008 12.9643 21.7992 12.9382 21.7996L12.8816 21.8H12.8593C12.8208 21.8 12.7986 21.8127 12.7936 21.8601C12.7876 21.9134 12.7737 21.9656 12.7524 22.0148C12.7378 22.0496 12.7131 22.0792 12.6817 22.1C12.6502 22.1208 12.6133 22.1319 12.5755 22.1317C12.5329 22.1316 12.4915 22.1176 12.4576 22.0918C12.4514 22.0874 12.4454 22.0826 12.4398 22.0774C12.3645 22.0043 12.334 21.9701 12.2954 21.9701C12.261 21.9701 12.2203 21.9976 12.1355 22.0488C12.0649 22.095 11.9827 22.1204 11.8983 22.1224C11.8428 22.1219 11.7879 22.1105 11.7368 22.0887C11.7202 22.0814 11.7023 22.0775 11.6842 22.077C11.6666 22.0778 11.6495 22.0828 11.6343 22.0915C11.619 22.1002 11.6061 22.1125 11.5965 22.1272C11.5418 22.1919 11.4723 22.2425 11.394 22.2748C11.3156 22.307 11.2306 22.32 11.1462 22.3125H11.1383C11.0553 22.312 11.0208 22.2486 10.9866 22.1887C10.9505 22.1252 10.6301 22.0318 10.5741 21.9064C10.5499 21.8544 10.514 21.8087 10.4692 21.773C10.3706 21.7069 10.2967 21.61 10.259 21.4975C10.2272 21.3811 10.0462 21.3868 9.96991 21.3342C9.88776 21.2775 9.95083 21.0111 9.72585 20.9518C9.65921 20.9351 9.59646 20.9056 9.54108 20.865C9.47406 20.8076 9.4325 20.726 9.42551 20.6381C9.41852 20.5501 9.44666 20.463 9.50379 20.3958C9.55131 20.3518 9.58186 20.2926 9.59009 20.2285C9.59833 20.1643 9.58371 20.0993 9.54882 20.0448C9.51491 19.9849 9.5005 19.916 9.50758 19.8476C9.51467 19.7792 9.5429 19.7147 9.58835 19.663C9.62858 19.6187 9.65444 19.5632 9.66254 19.5039C9.67064 19.4445 9.66059 19.3842 9.63372 19.3306C9.59831 19.23 9.59404 19.1211 9.62148 19.018C9.64892 18.9149 9.7068 18.8225 9.78755 18.7528C9.81214 18.7316 9.8289 18.7028 9.83513 18.671C9.84137 18.6392 9.83672 18.6062 9.82193 18.5773C9.75249 18.4008 9.68116 18.225 9.61619 18.0471C9.59256 17.9766 9.57491 17.9043 9.56343 17.8309C9.55099 17.7847 9.55039 17.7362 9.56169 17.6898C9.57299 17.6434 9.59581 17.6006 9.62805 17.5653C9.67176 17.5231 9.70009 17.4675 9.70853 17.4073C9.71697 17.3471 9.70504 17.2859 9.67463 17.2333C9.62822 17.1308 9.59437 17.0225 9.5526 16.9179C9.50372 16.8026 9.48748 16.676 9.50567 16.5521C9.52386 16.4282 9.57577 16.3116 9.65573 16.2152C9.72929 16.1166 9.79666 16.0133 9.86747 15.9127C9.89057 15.8884 9.90527 15.8573 9.90945 15.824C9.91362 15.7907 9.90704 15.7569 9.89068 15.7276C9.88696 15.7209 9.88452 15.7135 9.88346 15.7058C9.85957 15.5606 9.96458 15.4887 10.0524 15.4078C10.127 15.339 10.7329 14.8055 10.7863 14.7392C10.8187 14.6886 10.8615 14.6455 10.9118 14.6127C10.9683 14.586 11.8487 13.7989 11.9738 13.671C12.2782 13.3278 12.5627 12.9674 12.8258 12.5916C12.9246 12.4641 13.0324 12.3436 13.1376 12.2212C13.2918 11.9973 13.4321 11.764 13.5575 11.5227C13.5888 11.4412 13.5916 11.3515 13.5655 11.2682C13.5393 11.1849 13.4857 11.1129 13.4134 11.064C13.3385 11.015 13.2642 10.9645 13.1865 10.9205C13.1508 10.9026 13.1203 10.8759 13.0979 10.8429C13.0754 10.8099 13.0618 10.7717 13.0583 10.7319C13.0569 10.6946 13.0424 10.6589 13.0173 10.6312C12.9923 10.6035 12.9583 10.5854 12.9213 10.5802C12.865 10.5642 12.8105 10.5423 12.7587 10.5148C12.7158 10.496 12.6794 10.4648 12.654 10.4254C12.6287 10.3859 12.6155 10.3399 12.6161 10.293C12.6116 9.98452 12.5587 9.67869 12.4593 9.38666C12.4116 9.18254 12.4352 8.96821 12.5264 8.77943C12.6092 8.56796 12.6338 8.33815 12.5977 8.11393C12.592 8.0733 12.5772 8.03446 12.5545 8.00026C12.5318 7.96606 12.5018 7.93737 12.4666 7.91628C12.4267 7.8961 12.3929 7.86566 12.3687 7.82808C12.3445 7.79049 12.3308 7.74714 12.3289 7.70248C12.3271 7.65782 12.3371 7.61348 12.3581 7.57402C12.3791 7.53456 12.4103 7.50141 12.4483 7.478C12.4853 7.44775 12.5446 7.41526 12.5479 7.37951C12.5496 7.29764 12.541 7.21587 12.5223 7.13614C12.5204 7.12411 12.4939 7.11397 12.477 7.10692C12.4193 7.08729 12.3631 7.0634 12.309 7.03542C12.2864 7.02489 12.2671 7.00855 12.253 6.98809C12.2389 6.96762 12.2305 6.94377 12.2286 6.91898C12.2267 6.89418 12.2315 6.86934 12.2424 6.847C12.2534 6.82467 12.27 6.80564 12.2907 6.79187C12.3158 6.77516 12.335 6.75103 12.3457 6.72286C12.3563 6.69469 12.3579 6.6639 12.3502 6.63478C12.3389 6.56882 12.3412 6.50123 12.3571 6.43622C12.373 6.3712 12.402 6.31014 12.4425 6.25683C12.4633 6.23618 12.4783 6.21038 12.4859 6.18205C12.4935 6.15373 12.4934 6.12389 12.4857 6.09559C12.478 6.0673 12.4629 6.04155 12.442 6.02099C12.4211 6.00043 12.3951 5.98579 12.3667 5.97856C12.3 5.94784 12.2421 5.90092 12.1982 5.84208C12.1543 5.78324 12.1259 5.71435 12.1154 5.64169C12.1029 5.57395 12.0817 5.5081 12.0523 5.44575C12.034 5.40874 12.0071 5.37661 11.974 5.35199C11.9408 5.32738 11.9023 5.31097 11.8616 5.30413C11.7162 5.27242 11.5829 5.19992 11.4773 5.09513C11.0946 4.72318 10.7514 4.31275 10.4531 3.87035C10.4239 3.83423 10.4063 3.79018 10.4025 3.74393C10.3988 3.69767 10.409 3.65135 10.4319 3.61099C10.4775 3.52539 10.841 3.3011 10.8496 3.22599C10.8643 3.09983 10.9352 3.02799 11.0266 3.02799C11.0784 3.03006 11.1282 3.0482 11.1693 3.0799C11.4131 3.25826 11.6003 3.50326 11.7083 3.78544C11.7718 3.94168 11.8217 4.10375 11.8738 4.26463C11.9008 4.36081 11.9584 4.44557 12.038 4.50605C12.1175 4.56652 12.2145 4.59943 12.3145 4.59978C12.3469 4.59968 12.3793 4.59645 12.4112 4.59016C12.5122 4.56701 12.5999 4.50477 12.6551 4.41708C12.73 4.31361 12.7978 4.26257 12.8748 4.26257C12.9508 4.27003 13.0224 4.30207 13.0786 4.35383C13.153 4.41141 13.2177 4.48188 13.2867 4.5465C13.3261 4.58311 13.3639 4.62178 13.4053 4.65564C13.4413 4.67325 13.4825 4.67664 13.5208 4.66514C13.5591 4.65363 13.5917 4.62808 13.6119 4.5936C13.6271 4.5314 13.6459 4.47016 13.6683 4.41021C13.7618 4.17577 14.1087 3.8401 14.11 3.73921C14.1108 3.62985 14.1309 3.5215 14.1695 3.41918C14.2135 3.30991 14.2374 3.19356 14.24 3.07577C14.2427 2.94755 14.2523 2.81933 14.2651 2.69163C14.2712 2.64039 14.2892 2.59129 14.3176 2.54825C14.3461 2.50522 14.3843 2.46944 14.429 2.44379C14.5127 2.39457 14.5781 2.31963 14.6157 2.23015C14.638 2.16262 14.6818 2.10422 14.7403 2.06383C14.7988 2.02344 14.869 2.00326 14.94 2.00637C14.9653 2.00644 14.9906 2.00822 15.0156 2.01169C15.0906 2.02201 15.1653 2.03369 15.2401 2.04555C15.2532 2.04774 15.2664 2.04889 15.2796 2.04899C15.3051 2.05034 15.3304 2.04367 15.3519 2.02992C15.3733 2.01617 15.39 1.99603 15.3994 1.97234C15.4147 1.94002 15.4345 1.90977 15.4517 1.87849C15.4777 1.82108 15.5199 1.77247 15.573 1.73857C15.6262 1.70467 15.688 1.68694 15.7511 1.68754C15.7637 1.68754 15.7766 1.68811 15.7898 1.68926C15.8608 1.69101 15.9295 1.71505 15.9861 1.75799C16.0427 1.80093 16.0843 1.86058 16.1052 1.92851C16.1368 2.01771 16.1596 2.10984 16.187 2.20059C16.1958 2.238 16.2158 2.27183 16.2444 2.29754C16.2729 2.32325 16.3087 2.33962 16.3468 2.34444C16.4793 2.38815 16.5975 2.46705 16.6886 2.5727C16.7798 2.67836 16.8405 2.80679 16.8643 2.94429C16.8722 3.05308 16.803 3.1306 16.7636 3.22066C16.7004 3.3545 16.6442 3.49156 16.5953 3.63127C16.5879 3.69449 16.5958 3.75857 16.6184 3.8181C16.618 4.00775 16.6008 4.19698 16.5668 4.38357C16.5684 4.4326 16.5591 4.48136 16.5396 4.52638C16.5201 4.5714 16.4909 4.61155 16.4541 4.64396C16.4028 4.68544 16.3654 4.74166 16.347 4.80502C16.3287 4.86839 16.3301 4.93586 16.3513 4.99836C16.3982 5.19533 16.4489 5.39144 16.4903 5.58961C16.4949 5.6211 16.5091 5.65041 16.5309 5.67356C16.5528 5.69672 16.5812 5.71259 16.6124 5.71903C16.6319 5.72453 16.6514 5.73123 16.6713 5.73519C16.7374 5.74711 16.7988 5.7774 16.8485 5.82261C16.8981 5.86781 16.9341 5.92609 16.9521 5.99077C16.9979 6.11375 17.0842 6.21751 17.1967 6.28501C17.2979 6.34848 17.3886 6.42735 17.4655 6.51876C17.5417 6.60925 17.5832 6.72393 17.5824 6.84222C17.5817 6.96051 17.5388 7.07465 17.4614 7.16415C17.3411 7.3264 17.2084 7.47954 17.0823 7.6375C17.063 7.66084 17.0476 7.6872 17.0369 7.71553C16.9893 7.85045 16.9525 7.98984 16.8965 8.12115C16.8662 8.18349 16.8515 8.25227 16.8538 8.32154C16.8561 8.39081 16.8752 8.45848 16.9095 8.5187C16.9876 8.65963 17.0682 8.79954 17.145 8.94134C17.1702 8.98612 17.1903 9.03357 17.205 9.08279C17.3206 9.442 17.4825 9.78466 17.6864 10.1022C17.7577 10.2303 17.7907 10.3761 17.7814 10.5224C17.7848 10.5442 17.7836 10.5665 17.7779 10.5878C17.7722 10.6092 17.7622 10.6291 17.7484 10.6464C17.7347 10.6636 17.7175 10.6779 17.698 10.6882C17.6785 10.6985 17.657 10.7047 17.635 10.7063C17.5274 10.729 17.4958 10.8045 17.4753 10.8971C17.4549 11.0344 17.4617 11.1744 17.4953 11.3091C17.5057 11.3716 17.5034 11.4357 17.4884 11.4973C17.4802 11.5224 17.4774 11.5489 17.4801 11.5751C17.4829 11.6014 17.4911 11.6267 17.5044 11.6496C17.5457 11.7047 17.5658 11.7729 17.5611 11.8417C17.5564 11.9104 17.5272 11.9752 17.4788 12.0243C17.4668 12.0351 17.4576 12.0486 17.4518 12.0637C17.446 12.0788 17.4438 12.095 17.4454 12.1111C17.447 12.1271 17.4524 12.1426 17.461 12.1563C17.4697 12.1699 17.4814 12.1813 17.4953 12.1896C17.5237 12.2112 17.5555 12.2278 17.5895 12.2389C17.6422 12.2505 17.692 12.2732 17.7353 12.3054C17.7787 12.3377 17.8147 12.3788 17.8409 12.426C17.8671 12.4733 17.883 12.5256 17.8875 12.5794C17.892 12.6333 17.8849 12.6875 17.8669 12.7384C17.8618 12.7688 17.8523 12.7983 17.8387 12.826C17.8007 12.8869 17.7857 12.9593 17.7964 13.0303C17.8071 13.1012 17.8428 13.166 17.8971 13.2129C18.0073 13.3235 18.1229 13.4285 18.2436 13.5275C18.3909 13.6521 18.4163 13.7164 18.3333 13.8936C18.2801 13.9922 18.218 14.0857 18.1477 14.173C18.1059 14.2311 18.0532 14.2813 18.0123 14.3401C17.9891 14.3639 17.9709 14.3921 17.9587 14.4231C17.9465 14.454 17.9405 14.487 17.9412 14.5202C17.9418 14.5535 17.949 14.5863 17.9623 14.6167C17.9757 14.6471 17.9949 14.6746 18.019 14.6976C18.1097 14.8014 18.2116 14.895 18.3227 14.9767C18.5525 15.1477 18.7922 15.3052 19.0239 15.4738C19.1481 15.5617 19.2497 15.6777 19.3206 15.8124C19.3645 15.8882 19.3888 15.9738 19.3913 16.0614C19.3937 16.149 19.3742 16.2358 19.3345 16.3139ZM5.88394 21.2866C5.84336 21.1839 5.78863 21.0873 5.72134 20.9997C5.63487 20.8766 5.52051 20.7756 5.38759 20.705C5.25467 20.6345 5.10696 20.5964 4.9565 20.5938C4.78497 20.6089 4.61922 20.6633 4.47207 20.7528C4.32492 20.8422 4.2003 20.9643 4.10784 21.1096C4.01537 21.2548 3.95755 21.4194 3.93882 21.5906C3.9201 21.7618 3.94098 21.935 3.99984 22.0968C4.05451 22.2159 4.13341 22.3223 4.23152 22.4092C4.32962 22.4961 4.44477 22.5615 4.56961 22.6014C4.80648 22.8431 5.12645 22.9856 5.46456 23C5.58245 23.0029 5.69964 22.9811 5.80859 22.9359C5.91754 22.8908 6.01585 22.8234 6.09718 22.738C6.17851 22.6526 6.24107 22.5511 6.28083 22.4401C6.32059 22.3291 6.33668 22.211 6.32806 22.0934C6.32962 21.911 6.27055 21.7332 6.16014 21.588C6.09328 21.503 5.88394 21.2866 5.88394 21.2866ZM5.45837 22.3125H5.45081C5.37335 22.3198 5.29544 22.3043 5.22671 22.2678C5.15798 22.2314 5.10144 22.1755 5.06409 22.1073C5.04638 22.0718 5.02031 22.0412 4.98812 22.018C4.95593 21.9949 4.91859 21.9799 4.87933 21.9744C4.53403 21.9069 4.5758 21.6666 4.69714 21.4638C4.71192 21.4412 4.72835 21.4198 4.7463 21.3997C4.77026 21.3654 4.80161 21.337 4.83802 21.3165C4.87443 21.296 4.91498 21.284 4.95667 21.2812C4.99963 21.2841 5.04128 21.2972 5.07817 21.3194C5.11506 21.3416 5.14612 21.3723 5.16876 21.409C5.2072 21.4551 5.23543 21.5089 5.25161 21.5667C5.2814 21.6639 5.34444 21.7474 5.42967 21.8027C5.49876 21.867 5.56214 21.9372 5.61908 22.0124C5.6325 22.0366 5.63987 22.0638 5.64056 22.0915C5.64004 22.2604 5.59553 22.3111 5.45837 22.3125ZM7.81581 19.3389C7.74113 19.1479 7.60958 18.9845 7.43896 18.8708C7.26834 18.7571 7.06689 18.6986 6.8619 18.7031C6.72179 18.7011 6.58303 18.7307 6.45599 18.7898C6.32896 18.849 6.21695 18.9361 6.12834 19.0446C6.04854 19.1521 5.99259 19.2753 5.96426 19.406C5.93592 19.5368 5.93584 19.6721 5.96403 19.803C6.00678 20.033 6.1181 20.2447 6.28337 20.4104C6.4481 20.5769 6.6578 20.6918 6.88682 20.741C7.01182 20.7703 7.14142 20.7742 7.26795 20.7525C7.39448 20.7308 7.51537 20.684 7.62348 20.6147C7.71973 20.5459 7.80145 20.4588 7.86393 20.3583C7.92642 20.2578 7.96844 20.146 7.98759 20.0292C8.00674 19.9125 8.00263 19.7931 7.97551 19.6779C7.94839 19.5628 7.89879 19.4541 7.82956 19.3581L7.81581 19.3389ZM7.29125 19.9858C7.27391 20.016 7.24843 20.0406 7.21773 20.057C7.18702 20.0733 7.15234 20.0806 7.11765 20.0781C7.0053 20.075 6.89723 20.0343 6.81079 19.9625C6.72434 19.8906 6.6645 19.7918 6.64087 19.682C6.63812 19.6665 6.63675 19.6503 6.63365 19.6349C6.62674 19.6046 6.62695 19.5732 6.63429 19.5431C6.64162 19.513 6.65587 19.485 6.6759 19.4614C6.69593 19.4377 6.7212 19.4191 6.74969 19.4069C6.77819 19.3947 6.80913 19.3893 6.84007 19.3911L6.8619 19.3906C6.93498 19.3871 7.00711 19.4083 7.06666 19.4508C7.12622 19.4933 7.16973 19.5546 7.19018 19.6249C7.21085 19.6709 7.2368 19.7143 7.26753 19.7543C7.2942 19.7861 7.31072 19.8252 7.31494 19.8664C7.31917 19.9077 7.31092 19.9493 7.29125 19.9858Z" fill="#667EEA"/>
</svg>
