<svg width="24" height="24" viewBox="0 0 24 24" fill="none" xmlns="http://www.w3.org/2000/svg">
<path d="M19.2852 14.8707C19.447 14.8707 19.5781 14.7396 19.5781 14.5778C19.5781 14.416 19.447 14.2848 19.2852 14.2848C19.1234 14.2848 18.9922 14.416 18.9922 14.5778C18.9922 14.7396 19.1234 14.8707 19.2852 14.8707Z" fill="#667EEA"/>
<path d="M2.29297 22C2.45477 22 2.58594 21.8688 2.58594 21.707C2.58594 21.5452 2.45477 21.4141 2.29297 21.4141C2.13117 21.4141 2 21.5452 2 21.707C2 21.8688 2.13117 22 2.29297 22Z" fill="#667EEA"/>
<path d="M3.89925 21.4141C4.06106 21.4141 4.19222 21.2829 4.19222 21.1211C4.19222 20.9593 4.06106 20.8281 3.89925 20.8281C3.73745 20.8281 3.60629 20.9593 3.60629 21.1211C3.60629 21.2829 3.73745 21.4141 3.89925 21.4141Z" fill="#667EEA"/>
<path d="M19.2966 13.0038C19.2694 12.9766 19.2371 12.955 19.2016 12.9403C19.166 12.9255 19.1279 12.918 19.0895 12.918C19.051 12.918 19.0129 12.9255 18.9773 12.9403C18.9418 12.955 18.9095 12.9766 18.8823 13.0038L18.4921 13.3941C18.4649 13.4213 18.4433 13.4536 18.4286 13.4891C18.4138 13.5246 18.4063 13.5627 18.4063 13.6012C18.4063 13.6397 18.4138 13.6778 18.4286 13.7133C18.4433 13.7489 18.4649 13.7812 18.4921 13.8084C18.5493 13.8656 18.6243 13.8942 18.6993 13.8942C18.7742 13.8942 18.8492 13.8656 18.9064 13.8084L19.2967 13.4181C19.3516 13.3631 19.3825 13.2886 19.3824 13.2109C19.3824 13.1332 19.3515 13.0587 19.2966 13.0038ZM21.9142 9.48816L21.4999 9.07387C21.4449 9.01932 21.3705 8.98879 21.293 8.98895C21.2156 8.98912 21.1413 9.01997 21.0865 9.07475C21.0317 9.12953 21.0009 9.20379 21.0007 9.28127C21.0005 9.35874 21.031 9.43314 21.0856 9.48816L21.4999 9.90246C21.5571 9.95965 21.6321 9.98828 21.7071 9.98828C21.782 9.98828 21.857 9.95969 21.9143 9.90246C21.9692 9.8475 22 9.77299 22 9.6953C22 9.61761 21.9691 9.54311 21.9142 9.48816ZM20.6111 10.032C20.5686 10.0058 20.5201 9.99082 20.4702 9.98858C20.4203 9.98634 20.3706 9.99688 20.326 10.0192L18.5682 10.8981C18.5267 10.9189 18.4907 10.9492 18.4632 10.9866C18.4357 11.024 18.4175 11.0674 18.4101 11.1132C18.4026 11.1591 18.4062 11.206 18.4204 11.2501C18.4347 11.2943 18.4592 11.3345 18.492 11.3673L19.3709 12.2462C19.3981 12.2734 19.4304 12.295 19.466 12.3097C19.5015 12.3245 19.5396 12.332 19.5781 12.332C20.2243 12.332 20.75 11.8063 20.75 11.1602V10.2812C20.75 10.2313 20.7372 10.1822 20.7129 10.1386C20.6886 10.095 20.6535 10.0583 20.6111 10.032ZM20.1641 11.1602C20.1641 11.4454 19.9593 11.6836 19.689 11.7356L19.1938 11.2404L20.1641 10.7553V11.1602ZM2.69578 19.5471C2.58141 19.4327 2.3959 19.4327 2.28148 19.5471C2.16707 19.6615 2.16707 19.847 2.28152 19.9614L2.6718 20.3517C2.72895 20.4089 2.80395 20.4375 2.87891 20.4375C2.95387 20.4375 3.02887 20.4089 3.08609 20.3517C3.1133 20.3245 3.13488 20.2922 3.14961 20.2566C3.16433 20.2211 3.17191 20.183 3.1719 20.1445C3.1719 20.106 3.16432 20.068 3.14959 20.0324C3.13486 19.9969 3.11327 19.9646 3.08605 19.9374L2.69578 19.5471ZM6.82895 20.2422H5.07113C4.99343 20.2422 4.91891 20.2731 4.86397 20.328C4.80903 20.3829 4.77816 20.4575 4.77816 20.5352V21.1211C4.77816 21.6057 5.17246 22 5.65707 22C6.14168 22 6.53598 21.6057 6.53598 21.1211V20.8281H6.82895C6.99078 20.8281 7.12191 20.697 7.12191 20.5352C7.12191 20.3734 6.99078 20.2422 6.82895 20.2422ZM5.95004 21.1211C5.95004 21.2827 5.81863 21.4141 5.65707 21.4141C5.49551 21.4141 5.3641 21.2827 5.3641 21.1211V20.8281H5.95004V21.1211ZM8.41516 20.2925L7.79371 20.9139C7.7665 20.9411 7.74491 20.9734 7.73018 21.009C7.71545 21.0445 7.70787 21.0826 7.70786 21.1211C7.70786 21.1596 7.71544 21.1977 7.73016 21.2332C7.74488 21.2687 7.76646 21.301 7.79367 21.3282C7.82085 21.3555 7.85314 21.3771 7.8887 21.3918C7.92426 21.4066 7.96237 21.4141 8.00086 21.4141C8.03934 21.4141 8.07746 21.4066 8.11302 21.3918C8.14857 21.3771 8.18087 21.3555 8.20805 21.3282L8.82949 20.7068C8.94395 20.5923 8.94395 20.4069 8.82953 20.2925C8.71512 20.178 8.52961 20.178 8.41516 20.2925ZM9.63402 19.0736L9.24379 19.4638C9.21658 19.491 9.195 19.5233 9.18028 19.5589C9.16555 19.5944 9.15798 19.6325 9.15798 19.671C9.15798 19.7095 9.16557 19.7476 9.1803 19.7831C9.19503 19.8186 9.21662 19.8509 9.24383 19.8781C9.30102 19.9354 9.37602 19.9639 9.45098 19.9639C9.52594 19.9639 9.60094 19.9354 9.65816 19.8781L10.0484 19.4879C10.0756 19.4607 10.0972 19.4284 10.1119 19.3928C10.1266 19.3573 10.1342 19.3192 10.1342 19.2807C10.1342 19.2422 10.1266 19.2041 10.1119 19.1686C10.0972 19.133 10.0756 19.1008 10.0484 19.0736C10.0212 19.0463 9.98886 19.0248 9.95331 19.01C9.91776 18.9953 9.87967 18.9877 9.84119 18.9877C9.80272 18.9877 9.76462 18.9953 9.72907 19.01C9.69353 19.0248 9.66123 19.0463 9.63402 19.0736Z" fill="#667EEA"/>
<path d="M16.7034 10.1773L17.7768 8.43281C18.2871 8.35773 18.6914 7.95258 18.7652 7.44195L21.8643 5.46984C21.9059 5.44338 21.9401 5.40685 21.9638 5.36365C21.9876 5.32044 22 5.27195 22 5.22266V4.05078C22 3.97308 21.9691 3.89856 21.9142 3.84362C21.8592 3.78868 21.7847 3.75781 21.707 3.75781H18.7773C18.4112 3.75781 18.0966 3.98285 17.9647 4.30191L14.9471 3.79898C14.8274 3.11082 14.2258 2.58594 13.5039 2.58594C13.3421 2.58594 13.2109 2.71711 13.2109 2.87891C13.2109 3.0407 13.3421 3.17188 13.5039 3.17188C13.9885 3.17188 14.3828 3.56613 14.3828 4.05078C14.3828 4.12013 14.4074 4.18723 14.4522 4.24015C14.4971 4.29307 14.5592 4.32836 14.6276 4.33977L18.1432 4.9257C18.1852 4.93271 18.2282 4.93049 18.2692 4.91919C18.3103 4.9079 18.3483 4.8878 18.3808 4.86029C18.4133 4.83279 18.4394 4.79854 18.4572 4.75993C18.4751 4.72132 18.4844 4.67927 18.4844 4.63672C18.4844 4.47516 18.6158 4.34375 18.7773 4.34375H21.4141V5.06184L18.3271 7.02629C18.2855 7.05275 18.2513 7.08928 18.2276 7.13249C18.2038 7.17569 18.1914 7.22419 18.1914 7.27348C18.1914 7.59656 17.9286 7.85941 17.6055 7.85941C17.5554 7.85942 17.5062 7.87224 17.4626 7.89664C17.4189 7.92104 17.3822 7.95622 17.3559 7.99883L16.1059 10.0301C16.0766 10.0778 16.0615 10.1329 16.0625 10.1889C16.0635 10.245 16.0806 10.2995 16.1117 10.3461L17.1503 11.9041L15.5623 13.4921C15.5074 13.547 15.4766 13.6215 15.4766 13.6992V14.5781H14.0117C13.9573 14.5781 13.904 14.5933 13.8577 14.6219C13.8114 14.6505 13.774 14.6914 13.7497 14.7401L12.6588 16.9219H9.32422C9.24652 16.9219 9.172 16.9527 9.11706 17.0077C9.06212 17.0626 9.03125 17.1371 9.03125 17.2148C9.03125 17.6608 8.6973 18.0303 8.26633 18.0864L7.18766 17.0077C7.16045 16.9805 7.12815 16.9589 7.0926 16.9442C7.05705 16.9295 7.01895 16.9219 6.98047 16.9219H5.83184C5.34043 16.9219 4.93578 16.5327 4.92973 16.0543C4.92578 15.737 5.09426 15.4411 5.36941 15.2818C5.41387 15.2561 5.45078 15.2191 5.47644 15.1746C5.5021 15.1301 5.51562 15.0797 5.51562 15.0283V13.1133C5.51562 13.0356 5.48476 12.9611 5.42982 12.9061C5.37487 12.8512 5.30036 12.8203 5.22266 12.8203C5.06109 12.8203 4.92969 12.6889 4.92969 12.5273V11.9414C4.92969 11.8637 4.89882 11.7892 4.84388 11.7342C4.78894 11.6793 4.71442 11.6484 4.63672 11.6484C4.42027 11.6484 4.23086 11.5305 4.12941 11.3555H5.22266C5.29362 11.3555 5.36217 11.3297 5.41558 11.283C5.46899 11.2363 5.50362 11.1717 5.51305 11.1014L6.09898 6.72641C6.10452 6.68502 6.10114 6.64292 6.08908 6.60295C6.07702 6.56297 6.05656 6.52603 6.02906 6.49461C6.00156 6.46318 5.96767 6.43799 5.92965 6.42073C5.89162 6.40348 5.85035 6.39454 5.80859 6.39453C5.48551 6.39453 5.22266 6.13168 5.22266 5.80859C5.22266 5.73089 5.19179 5.65638 5.13685 5.60143C5.08191 5.54649 5.00739 5.51562 4.92969 5.51562H2.58594V4.34375C2.58594 4.02066 2.84879 3.75781 3.17188 3.75781H3.46484C3.54254 3.75781 3.61706 3.72695 3.672 3.672C3.72695 3.61706 3.75781 3.54254 3.75781 3.46484C3.75781 2.9802 4.15211 2.58594 4.63672 2.58594C4.94926 2.58594 5.2409 2.75441 5.39785 3.02562C5.42359 3.0701 5.46056 3.10702 5.50507 3.13269C5.54959 3.15836 5.60006 3.17187 5.65145 3.17188H12.332C12.4939 3.17188 12.625 3.0407 12.625 2.87891C12.625 2.71711 12.4939 2.58594 12.332 2.58594H5.80816C5.53352 2.22078 5.09887 2 4.63672 2C3.92934 2 3.33742 2.5041 3.20129 3.17188H3.17188C2.5257 3.17188 2 3.69758 2 4.34375V5.80859C2 5.88629 2.03087 5.96081 2.08581 6.01575C2.14075 6.0707 2.21527 6.10156 2.29297 6.10156H4.67379C4.77691 6.50082 5.08578 6.81828 5.48004 6.93359L4.96633 10.7695H3.75781C3.68011 10.7695 3.60559 10.8004 3.55065 10.8553C3.49571 10.9103 3.46484 10.9848 3.46484 11.0625C3.46484 11.6075 3.83887 12.0669 4.34375 12.1973V12.5273C4.34375 12.9093 4.58867 13.2352 4.92969 13.3561V14.8714C4.55891 15.15 4.33801 15.5918 4.34387 16.0616C4.35387 16.8591 5.02137 17.5078 5.83184 17.5078H6.85914L7.9452 18.5939C7.9724 18.6211 8.0047 18.6427 8.04025 18.6574C8.0758 18.6721 8.1139 18.6797 8.15238 18.6797C8.85977 18.6797 9.45168 18.1756 9.58781 17.5078H12.8398C12.8943 17.5078 12.9476 17.4927 12.9939 17.4641C13.0401 17.4355 13.0775 17.3945 13.1019 17.3459L14.1928 15.1641H15.7695C15.8472 15.1641 15.9218 15.1332 15.9767 15.0783C16.0316 15.0233 16.0625 14.9488 16.0625 14.8711V13.8205L17.7345 12.1486C17.7824 12.1007 17.8122 12.0377 17.8189 11.9703C17.8256 11.9029 17.8087 11.8353 17.7711 11.7789L16.7034 10.1773Z" fill="#667EEA"/>
</svg>
