<svg width="24" height="24" viewBox="0 0 24 24" fill="none" xmlns="http://www.w3.org/2000/svg">
<path d="M15.6446 7.86479C15.4847 7.86499 15.3297 7.80996 15.2058 7.70902C15.0818 7.60808 14.9966 7.46743 14.9644 7.31085C14.8021 6.52538 14.9753 5.85965 15.4521 5.436C15.4615 5.42926 15.4688 5.42006 15.4733 5.40942C15.4778 5.39878 15.4793 5.3871 15.4776 5.37567L15.3194 4.92537C15.2817 4.81821 15.271 4.70344 15.288 4.59114C15.3051 4.47884 15.3494 4.37245 15.4172 4.2813C15.485 4.19015 15.5741 4.11703 15.6767 4.06837C15.7794 4.01971 15.8924 3.99698 16.0058 4.0022L16.4478 4.02218C16.46 4.02279 16.472 4.01853 16.4811 4.01035C16.4902 4.00217 16.4956 3.99072 16.4963 3.9785L16.5211 3.49952C16.5304 3.32405 16.606 3.15866 16.7327 3.03682C16.8817 2.88181 16.9916 2.69348 17.0533 2.48748C17.1149 2.28147 17.1266 2.06373 17.0873 1.85232C17.0693 1.70764 17.0971 1.56096 17.1668 1.43292C17.2366 1.30487 17.3447 1.2019 17.4759 1.13847L17.616 1.07073C17.7163 1.0216 17.827 0.997415 17.9387 1.00022C18.0503 1.00302 18.1596 1.03273 18.2573 1.08683C18.526 1.23143 18.773 1.4129 18.9914 1.62597C19.0857 1.72246 19.1483 1.84548 19.1707 1.97854C19.2113 2.15315 19.2894 2.31685 19.3996 2.45829C19.5097 2.59973 19.6493 2.71554 19.8087 2.7977C20.2164 3.01182 20.6752 3.10924 21.1348 3.07921C21.3117 3.07362 21.484 3.13583 21.6166 3.25311C21.7491 3.37039 21.8319 3.53388 21.8479 3.71014L21.9439 4.76768C21.9587 4.93018 21.9157 5.09268 21.8226 5.22664C21.7294 5.3606 21.592 5.45747 21.4346 5.50022C21.0714 5.60104 20.6978 5.65954 20.3211 5.67457C20.3152 5.67488 20.3094 5.67654 20.3042 5.67943C20.299 5.68232 20.2946 5.68635 20.2912 5.69123C20.1265 5.91763 19.9945 6.1661 19.8992 6.42932C19.8691 6.51902 19.8214 6.60183 19.759 6.67295C19.6966 6.74406 19.6207 6.80204 19.5357 6.84353C19.4529 6.88362 19.3629 6.90663 19.271 6.91118C19.1792 6.91572 19.0873 6.90172 19.001 6.86999C18.5897 6.72492 18.1922 6.54331 17.8133 6.32734C17.8072 6.32369 17.8004 6.32129 17.7934 6.32028C17.7863 6.31926 17.7791 6.31965 17.7722 6.32142C17.7683 6.32229 17.7647 6.32398 17.7615 6.32637C17.7583 6.32876 17.7557 6.33181 17.7537 6.3353L17.7439 6.3551C17.6784 6.49017 17.5708 6.60032 17.4373 6.669C17.3038 6.73769 17.1516 6.7612 17.0036 6.736C16.9147 6.72205 16.8268 6.7017 16.7408 6.67511C16.6742 6.70718 16.6191 6.75892 16.5828 6.82333C16.5466 6.88773 16.531 6.96171 16.5381 7.03527C16.5399 7.15474 16.5114 7.27271 16.4552 7.37814C16.3989 7.48357 16.3169 7.573 16.2167 7.63807C16.1513 7.67953 16.0736 7.72691 15.9903 7.77466C15.8849 7.83425 15.7657 7.86532 15.6446 7.86479ZM15.9738 4.64923C15.9666 4.64903 15.9595 4.65062 15.953 4.65385C15.9465 4.65707 15.941 4.66185 15.9368 4.66774C15.9321 4.67373 15.9291 4.68084 15.9279 4.68836C15.9268 4.69588 15.9276 4.70357 15.9303 4.71068L16.0884 5.16079C16.1335 5.29344 16.1379 5.43654 16.1012 5.57174C16.0644 5.70694 15.9881 5.82807 15.882 5.91961C15.5022 6.2572 15.5182 6.79078 15.5983 7.17907C15.5996 7.18646 15.6028 7.1934 15.6074 7.19925C15.6121 7.2051 15.6182 7.20968 15.6251 7.21257C15.632 7.21579 15.6395 7.21726 15.647 7.21688C15.6545 7.21649 15.6618 7.21425 15.6683 7.21035C15.7363 7.17134 15.8034 7.1308 15.8696 7.08876C15.8771 7.08147 15.8828 7.07259 15.8863 7.06278C15.8899 7.05297 15.8911 7.04249 15.89 7.03212C15.886 6.86443 15.9229 6.6983 15.9976 6.54808C16.0723 6.39787 16.1824 6.26811 16.3184 6.17002C16.4029 6.10373 16.5018 6.05843 16.6072 6.03784C16.7125 6.01725 16.8212 6.02195 16.9244 6.05157C16.9854 6.07152 17.048 6.0862 17.1115 6.09544C17.1222 6.09669 17.1331 6.09438 17.1423 6.08886C17.1516 6.08334 17.1588 6.07492 17.1628 6.0649L17.1752 6.04028C17.2176 5.95689 17.2768 5.88322 17.3492 5.82396C17.4216 5.7647 17.5056 5.72113 17.5957 5.69604C17.6876 5.67039 17.7838 5.66373 17.8784 5.67646C17.973 5.68919 18.064 5.72104 18.1459 5.77007C18.4894 5.96485 18.8495 6.12868 19.222 6.2596C19.2271 6.26164 19.2326 6.26255 19.2381 6.2623C19.2437 6.26204 19.2491 6.26062 19.254 6.25812C19.2614 6.25441 19.2679 6.2492 19.2731 6.24282C19.2784 6.23645 19.2823 6.22906 19.2845 6.22111C19.3999 5.89652 19.5614 5.59026 19.7642 5.31181C19.8259 5.22627 19.9064 5.15596 19.9994 5.10627C20.0924 5.05658 20.1956 5.02883 20.301 5.02513C20.6265 5.0118 20.9495 4.961 21.2634 4.87373C21.2742 4.87108 21.2838 4.86465 21.2903 4.85558C21.2968 4.84652 21.2999 4.83544 21.2989 4.82432L21.2029 3.76696C21.2006 3.7429 21.179 3.71884 21.1588 3.72495C20.5733 3.762 19.9893 3.63224 19.4746 3.35072C19.2357 3.22077 19.0279 3.04059 18.8653 2.82259C18.7028 2.60458 18.5895 2.35394 18.5331 2.08792C18.359 1.91495 18.1607 1.76808 17.9445 1.65188C17.9382 1.64815 17.9309 1.64606 17.9235 1.6458C17.9161 1.64554 17.9088 1.64712 17.9022 1.6504L17.7558 1.7211C17.7468 1.72644 17.7397 1.73439 17.7354 1.74389C17.7311 1.75338 17.7298 1.76396 17.7317 1.77421C17.7819 2.08511 17.7583 2.40345 17.6629 2.70356C17.5674 3.00367 17.4028 3.27714 17.1822 3.50193C17.1734 3.51012 17.168 3.52137 17.1672 3.53339L17.1424 4.012C17.1326 4.19495 17.051 4.36665 16.9154 4.48975C16.7797 4.61286 16.6009 4.67742 16.4178 4.6694L15.9757 4.64923H15.9738Z" fill="#667EEA"/>
<path d="M12.9022 19.7854C12.8852 19.7854 12.868 19.7854 12.8508 19.7835L12.4072 19.7493C12.2915 19.7408 12.1799 19.7026 12.0832 19.6385C11.9866 19.5744 11.9081 19.4865 11.8553 19.3832L11.6146 18.9183C11.5693 18.8305 11.5437 18.7339 11.5396 18.6351C11.5354 18.5364 11.5529 18.438 11.5908 18.3467L11.8027 17.8352C11.8055 17.8278 11.8055 17.8196 11.8027 17.8122L11.682 17.485C11.6794 17.4789 11.675 17.4736 11.6694 17.4699C11.6638 17.4662 11.6573 17.4643 11.6506 17.4643L11.3718 17.4813C11.2829 17.4866 11.1939 17.474 11.1099 17.4443C10.735 17.3181 10.3316 17.3032 9.94838 17.4012C9.9417 17.4032 9.93602 17.4077 9.93247 17.4138L9.74572 17.6905C9.68895 17.7741 9.61414 17.844 9.52679 17.8949C9.43945 17.9458 9.34179 17.9765 9.24101 17.9847L8.40464 18.0551C8.31164 18.0627 8.21806 18.0512 8.12969 18.0213C8.04132 17.9913 7.96003 17.9435 7.89086 17.8809L7.5518 17.5726C7.54805 17.5693 7.5436 17.5669 7.53879 17.5656C7.53398 17.5642 7.52893 17.564 7.52403 17.565L6.79149 17.7097C6.67779 17.7321 6.56024 17.7251 6.45001 17.6893C6.33979 17.6535 6.24055 17.5901 6.16173 17.5052C6.0829 17.4202 6.02712 17.3165 5.99967 17.2039C5.97222 17.0913 5.97403 16.9736 6.00491 16.8619L6.08653 16.5667C6.13358 16.3955 6.24606 16.2497 6.39968 16.1608L8.17958 15.1243C8.25501 15.0805 8.33812 15.0515 8.42444 15.0388C9.20862 14.925 9.88527 14.8537 10.3148 14.8145C10.407 14.8061 10.4999 14.8165 10.5878 14.8453C10.6758 14.8741 10.7569 14.9205 10.8262 14.9818C10.8956 15.0431 10.9517 15.1179 10.991 15.2016C11.0304 15.2854 11.0522 15.3763 11.0552 15.4688C11.0554 15.4738 11.0568 15.4787 11.0593 15.4831C11.0618 15.4875 11.0653 15.4913 11.0695 15.4941C11.0738 15.4968 11.0786 15.4986 11.0836 15.4991C11.0886 15.4997 11.0937 15.4991 11.0985 15.4973L11.712 15.2528C11.7185 15.2499 11.7239 15.2449 11.7272 15.2387C11.7306 15.2324 11.7317 15.2252 11.7305 15.2182L11.6085 14.4616C11.5936 14.3685 11.5981 14.2733 11.6218 14.182C11.6455 14.0907 11.6879 14.0054 11.7462 13.9313L12.0054 13.6035C12.0851 13.5033 12.1915 13.4276 12.3123 13.3851C12.4332 13.3425 12.5635 13.3349 12.6885 13.3629L13.2585 13.4925C13.2637 13.4937 13.2691 13.4935 13.2743 13.492C13.2794 13.4906 13.2841 13.4879 13.2879 13.4842L14.2822 12.5218C14.6426 11.8698 15.0884 11.269 15.6079 10.7352C15.611 10.7319 15.6134 10.7279 15.6148 10.7236C15.6161 10.7193 15.6165 10.7147 15.6159 10.7102L15.5535 10.1959C15.5415 10.0981 15.551 9.99884 15.5812 9.90507C15.6115 9.8113 15.6618 9.72524 15.7286 9.65284L16.1272 9.22087C16.1319 9.21574 16.1348 9.20926 16.1356 9.20236L16.195 8.54903C16.2086 8.40118 16.2701 8.2618 16.3701 8.15204L16.7969 7.68471C16.8999 7.57131 17.0385 7.49624 17.1898 7.4718C17.3411 7.44736 17.4962 7.47498 17.6297 7.55016L17.8703 7.68453C18.0045 7.75985 18.1093 7.87837 18.1676 8.02082L18.7454 9.43093C18.7997 9.56329 18.8108 9.70947 18.7768 9.84847L18.3852 11.4662C18.3488 11.6164 18.2623 11.7497 18.14 11.8442L17.5847 12.273C17.5797 12.2768 17.5759 12.282 17.5739 12.288C17.5718 12.294 17.5716 12.3004 17.5733 12.3065L17.7234 12.8603C17.7391 12.9182 17.7473 12.9779 17.7478 13.0379C17.7304 13.8546 17.5792 14.663 17.3005 15.4308L17.3145 16.0958C17.3167 16.2121 17.2893 16.3269 17.2347 16.4296C17.1801 16.5323 17.1003 16.6193 17.0027 16.6825L15.9051 17.3901C15.756 17.4867 15.5747 17.5208 15.4006 17.4848L14.3634 17.2718C14.3576 17.2707 14.3515 17.2712 14.346 17.2733C14.3404 17.2754 14.3355 17.279 14.3318 17.2836L14.0688 17.6297C14.0659 17.6336 14.0639 17.6381 14.063 17.6428C14.062 17.6476 14.0622 17.6525 14.0634 17.6572C14.0647 17.6618 14.067 17.6662 14.0702 17.6698C14.0733 17.6735 14.0773 17.6763 14.0818 17.6782L14.1778 17.7191C14.2909 17.7672 14.3889 17.8451 14.4612 17.9445C14.5335 18.0439 14.5774 18.161 14.5883 18.2834L14.6129 18.5553C14.6284 18.719 14.5837 18.8827 14.4872 19.0157C14.3907 19.1488 14.249 19.2421 14.0886 19.2782C13.8108 19.3393 13.5502 19.462 13.3261 19.6371C13.2056 19.733 13.0562 19.7852 12.9022 19.7854ZM11.6554 16.8165C11.7943 16.8161 11.9299 16.8585 12.0438 16.938C12.1577 17.0175 12.2443 17.1302 12.2919 17.2607L12.4122 17.5877C12.4716 17.7481 12.4681 17.925 12.4023 18.0828L12.1904 18.5942C12.1887 18.5985 12.1879 18.6031 12.1881 18.6078C12.1883 18.6124 12.1896 18.6169 12.1917 18.621L12.4323 19.0859C12.4348 19.0908 12.4385 19.0949 12.4431 19.0979C12.4476 19.1009 12.4528 19.1027 12.4582 19.1032L12.9011 19.1372C12.9097 19.1371 12.918 19.1341 12.9248 19.1289C13.2267 18.8927 13.5777 18.7272 13.952 18.6447C13.9578 18.642 13.9626 18.6374 13.9656 18.6317C13.9686 18.626 13.9697 18.6194 13.9687 18.6131L13.9433 18.3416C13.9429 18.3359 13.941 18.3305 13.9377 18.3258C13.9345 18.3212 13.93 18.3176 13.9248 18.3153L13.8286 18.2742C13.7334 18.2337 13.6488 18.172 13.5811 18.0938C13.5134 18.0156 13.4644 17.9231 13.4379 17.8231C13.4114 17.7232 13.4081 17.6185 13.4281 17.517C13.4482 17.4156 13.4912 17.3201 13.5537 17.2377L13.8167 16.8917C13.8945 16.79 13.9993 16.7122 14.1191 16.6672C14.2389 16.6222 14.369 16.6117 14.4945 16.637L15.532 16.85C15.5401 16.8515 15.5485 16.8499 15.5555 16.8456L16.6523 16.138C16.6569 16.1351 16.6607 16.1311 16.6632 16.1263C16.6658 16.1216 16.6671 16.1162 16.6669 16.1108L16.6516 15.4553C16.6495 15.3716 16.6631 15.2883 16.6915 15.2097C16.9425 14.5133 17.0804 13.7814 17.1 13.0415L16.9481 12.4757C16.9126 12.346 16.9166 12.2086 16.9594 12.0812C17.0023 11.9537 17.0821 11.8419 17.1887 11.76L17.7439 11.3311C17.7496 11.3268 17.7536 11.3207 17.7554 11.3137L18.1474 9.69504C18.149 9.68849 18.1484 9.68161 18.1457 9.67542L17.5681 8.26531C17.5653 8.25856 17.5604 8.25294 17.554 8.24939L17.3134 8.11502C17.3071 8.11155 17.2999 8.11028 17.2928 8.11142C17.2857 8.11256 17.2792 8.11604 17.2744 8.12132L16.8478 8.58901C16.8431 8.59415 16.8403 8.60064 16.8396 8.60752L16.7802 9.26085C16.7664 9.40963 16.7043 9.5498 16.6033 9.65988L16.2046 10.092C16.2015 10.0954 16.1991 10.0995 16.1977 10.1039C16.1963 10.1083 16.1959 10.113 16.1965 10.1176L16.2588 10.6291C16.2715 10.73 16.2613 10.8324 16.2289 10.9288C16.1965 11.0252 16.1428 11.113 16.0717 11.1857C15.5959 11.6739 15.1875 12.2235 14.8574 12.8199C14.825 12.8809 14.7832 12.9365 14.7336 12.9846L13.7392 13.9482C13.6581 14.0269 13.5586 14.0841 13.4498 14.1146C13.3409 14.1451 13.2262 14.1478 13.116 14.1227L12.546 13.9931C12.5401 13.9917 12.534 13.9919 12.5283 13.9939C12.5226 13.9959 12.5176 13.9995 12.5139 14.0042L12.2548 14.332C12.2521 14.3355 12.2501 14.3394 12.249 14.3437C12.2478 14.348 12.2476 14.3525 12.2484 14.3568L12.3701 15.1147C12.3958 15.2675 12.3682 15.4244 12.2919 15.5592C12.2156 15.694 12.0953 15.7984 11.9511 15.855L11.3376 16.0995C11.2363 16.1396 11.1269 16.1548 11.0185 16.1438C10.9102 16.1328 10.8061 16.0958 10.715 16.0361C10.6239 15.9764 10.5485 15.8957 10.4951 15.8008C10.4417 15.7058 10.412 15.5995 10.4083 15.4906C10.4083 15.4862 10.4073 15.4818 10.4054 15.4778C10.4036 15.4738 10.4009 15.4702 10.3976 15.4673C10.3945 15.4646 10.3909 15.4625 10.387 15.4612C10.383 15.46 10.3789 15.4595 10.3748 15.4599C9.95283 15.4987 9.28839 15.5683 8.51828 15.6803L6.72523 16.7206C6.71817 16.7247 6.71294 16.7313 6.71061 16.7391L6.62918 17.0342C6.62769 17.0394 6.62758 17.045 6.62886 17.0503C6.63014 17.0556 6.63277 17.0604 6.6365 17.0644C6.64022 17.0684 6.64491 17.0714 6.65012 17.073C6.65532 17.0746 6.66086 17.0749 6.66619 17.0738L7.39892 16.9289C7.503 16.9086 7.61037 16.9129 7.71253 16.9413C7.81468 16.9697 7.90881 17.0215 7.98747 17.0926L8.32672 17.401C8.33325 17.4067 8.34175 17.4096 8.35041 17.4091L9.18715 17.3388C9.19186 17.3384 9.19642 17.3369 9.20049 17.3345C9.20456 17.3321 9.20803 17.3289 9.21066 17.3249L9.39944 17.0473C9.49074 16.9135 9.62701 16.8169 9.78348 16.7751C10.2907 16.6423 10.8257 16.6616 11.322 16.8306L11.6132 16.8167C11.6272 16.8169 11.6413 16.8165 11.6554 16.8165ZM2.96165 23.0017C2.91843 23.0017 2.87564 22.9931 2.8358 22.9763C2.79597 22.9595 2.75991 22.9349 2.72975 22.9039L2.34497 22.5095C2.26657 22.4291 2.21694 22.325 2.20378 22.2135C2.19063 22.1019 2.21469 21.9891 2.27223 21.8927L3.13119 20.4526C3.19531 20.3452 3.28735 20.2572 3.39751 20.1979L3.68809 20.0413L3.66791 19.7141L3.36327 19.8612C3.24154 19.9199 3.10148 19.9278 2.9739 19.8833C2.84632 19.8387 2.74166 19.7453 2.68292 19.6236L2.10437 18.4232C2.06979 18.3514 2.05254 18.2725 2.05401 18.1928C2.05548 18.1131 2.07564 18.0349 2.11285 17.9644C2.15006 17.8939 2.20329 17.8331 2.26826 17.787C2.33323 17.7408 2.40813 17.7105 2.48693 17.6986L2.98423 17.6229C3.08892 17.6072 3.19581 17.6156 3.29675 17.6475C3.39769 17.6793 3.49001 17.7339 3.56668 17.8069L3.71955 17.9533C3.72555 17.9588 3.73289 17.9626 3.74084 17.9644L4.68122 18.1631H4.69714L5.33344 18.0643C5.38034 18.0568 5.42833 18.0598 5.47394 18.0731C5.51955 18.0864 5.56164 18.1096 5.59718 18.1411L5.8933 18.4019C6.00781 18.503 6.08585 18.639 6.1154 18.7889L6.15797 19.0071L6.66138 18.9399C6.72791 18.9311 6.79558 18.9385 6.85865 18.9614C6.92172 18.9843 6.97832 19.0221 7.02363 19.0716C7.06895 19.1211 7.10165 19.1808 7.11894 19.2457C7.13624 19.3105 7.13762 19.3786 7.12297 19.4441L6.99822 20.0006C6.99645 20.0085 6.9969 20.0168 6.99951 20.0244C7.00212 20.0321 7.0068 20.0389 7.01303 20.0441L7.29417 20.2769C7.34317 20.3176 7.38222 20.3689 7.4083 20.427C7.43438 20.4851 7.44681 20.5484 7.44463 20.612C7.44245 20.6756 7.42572 20.7379 7.39572 20.7941C7.36572 20.8503 7.32326 20.8988 7.27159 20.936L6.60752 21.4141C6.58288 21.4317 6.55717 21.4477 6.53053 21.4622L5.89238 21.8049C5.88475 21.8091 5.8785 21.8153 5.87439 21.823C5.87028 21.8306 5.86849 21.8392 5.86924 21.8479L5.9231 22.4466C5.92948 22.5171 5.9211 22.5881 5.8985 22.6552C5.87591 22.7222 5.83959 22.7838 5.79186 22.8361C5.74413 22.8883 5.68604 22.93 5.62129 22.9586C5.55654 22.9871 5.48656 23.0019 5.4158 23.0018H5.12541C4.97665 23.0025 4.83168 22.9549 4.71225 22.8662C4.59282 22.7775 4.50537 22.6525 4.46301 22.5099L4.29552 21.9547L3.17301 22.9224C3.11438 22.9734 3.03934 23.0015 2.96165 23.0017ZM4.36585 21.2018C4.47529 21.2018 4.58184 21.237 4.66975 21.3022C4.75766 21.3673 4.82229 21.4591 4.85409 21.5638L5.08321 22.3226C5.08597 22.3317 5.09156 22.3396 5.09915 22.3453C5.10674 22.3509 5.11594 22.354 5.12541 22.3541H5.26311L5.22276 21.9062C5.21054 21.771 5.23838 21.6351 5.30282 21.5156C5.36727 21.3961 5.46545 21.2982 5.58515 21.2342L6.22422 20.8919L6.64991 20.5853L6.59938 20.5436C6.50074 20.4624 6.42663 20.3553 6.38535 20.2344C6.34407 20.1135 6.33724 19.9834 6.36562 19.8588L6.41782 19.626L5.94087 19.6897C5.85905 19.7005 5.77618 19.6798 5.70914 19.6316C5.64211 19.5835 5.59598 19.5116 5.58015 19.4306L5.4791 18.9123C5.47729 18.9027 5.47234 18.894 5.46503 18.8875L5.28236 18.7269L4.79597 18.8024C4.71305 18.8155 4.62843 18.8133 4.5463 18.7959L3.60647 18.5981C3.48057 18.5715 3.36456 18.5104 3.27148 18.4215L3.11842 18.2749C3.11359 18.2702 3.10773 18.2667 3.1013 18.2647C3.09487 18.2627 3.08805 18.2622 3.0814 18.2633L2.76954 18.3107L3.20651 19.2175L3.57204 19.041C3.64732 19.0047 3.73035 18.9875 3.81384 18.9909C3.89732 18.9942 3.9787 19.0181 4.0508 19.0603C4.12291 19.1025 4.18353 19.1618 4.22733 19.233C4.27114 19.3041 4.29678 19.3849 4.302 19.4683L4.34012 20.0898C4.3459 20.1868 4.3239 20.2835 4.2767 20.3685C4.22949 20.4534 4.15904 20.5232 4.07361 20.5695L3.70475 20.7683C3.69769 20.772 3.6918 20.7776 3.68772 20.7844L2.88318 22.1335L2.9809 22.2336L4.034 21.3256C4.12616 21.2458 4.24395 21.2019 4.36585 21.2018Z" fill="#667EEA"/>
<path d="M9.20029 21.4649C9.17611 21.4649 9.15196 21.4636 9.12792 21.4611L8.65949 21.4102C8.54936 21.3984 8.4439 21.3594 8.35264 21.2966C8.26138 21.2339 8.18721 21.1494 8.13682 21.0507L8.09481 20.9688C8.04294 20.8667 8.01795 20.7531 8.02223 20.6386C8.0265 20.5242 8.05989 20.4128 8.11924 20.3149L8.57935 19.5625C8.65221 19.4433 8.76062 19.3499 8.88934 19.2954C9.01806 19.241 9.1606 19.2283 9.2969 19.2592L9.65688 19.3406C9.66012 19.3414 9.6635 19.3414 9.66673 19.3405C9.66996 19.3397 9.67293 19.3381 9.67539 19.3358L10.0785 18.9775C10.1466 18.9168 10.2265 18.8708 10.3131 18.8421C10.3998 18.8135 10.4913 18.8029 10.5822 18.811C10.6731 18.8191 10.7614 18.8456 10.8416 18.8891C10.9218 18.9326 10.9923 18.992 11.0487 19.0637L11.3293 19.4213C11.4119 19.526 11.4611 19.6531 11.4707 19.7862C11.4803 19.9192 11.4497 20.0521 11.3829 20.1675L11.0859 20.6835C11.0123 20.8111 10.8986 20.9109 10.7626 20.9673C10.6265 21.0238 10.4757 21.0338 10.3333 20.9958L10.0633 20.9234C10.0601 20.9225 10.0567 20.9225 10.0534 20.9234C10.0502 20.9242 10.0472 20.9259 10.0448 20.9282L9.65447 21.288C9.53076 21.4021 9.36856 21.4653 9.20029 21.4649ZM9.14976 19.8905C9.14604 19.8903 9.14235 19.8912 9.13908 19.893C9.13582 19.8948 9.13311 19.8974 9.13125 19.9007L8.67133 20.6528C8.66956 20.6559 8.66863 20.6594 8.66863 20.663C8.66863 20.6666 8.66956 20.6701 8.67133 20.6732L8.71316 20.7552C8.71477 20.7582 8.71708 20.7607 8.71988 20.7626C8.72268 20.7645 8.7259 20.7657 8.72926 20.7661L9.19807 20.8172L9.60524 20.452C9.68789 20.3751 9.78879 20.3206 9.89839 20.2937C10.008 20.2667 10.1227 20.2681 10.2315 20.2978L10.5014 20.3702C10.5058 20.3715 10.5106 20.3712 10.5149 20.3694C10.5191 20.3676 10.5227 20.3645 10.5249 20.3604L10.821 19.8444C10.8231 19.8408 10.824 19.8367 10.8237 19.8326C10.8234 19.8285 10.8219 19.8245 10.8194 19.8213L10.5388 19.4639L10.5086 19.4613L10.1059 19.8196C10.0263 19.8902 9.93116 19.9409 9.82819 19.9675C9.72521 19.994 9.6174 19.9958 9.51363 19.9725L9.15383 19.891C9.1525 19.8907 9.15114 19.8905 9.14976 19.8905Z" fill="#667EEA"/>
</svg>
