<svg width="24" height="24" viewBox="0 0 24 24" fill="none" xmlns="http://www.w3.org/2000/svg">
<path fill-rule="evenodd" clip-rule="evenodd" d="M16.4063 16.8855C16.3484 16.5121 15.8056 16.512 15.7476 16.8855C15.6401 17.5779 15.1081 18.1451 14.4237 18.297C14.0777 18.3738 14.0777 18.8711 14.4237 18.9479C15.1081 19.0997 15.6401 19.667 15.7476 20.3594C15.8056 20.7329 16.3484 20.733 16.4063 20.3594C16.5139 19.667 17.0459 19.0998 17.7303 18.9479C18.0763 18.8711 18.0763 18.3738 17.7303 18.297C17.0459 18.1451 16.5138 17.5779 16.4063 16.8855ZM16.0769 19.3723C15.8898 19.0715 15.6389 18.8156 15.342 18.6224C15.6389 18.4293 15.8898 18.1733 16.0769 17.8726C16.2641 18.1733 16.5151 18.4293 16.812 18.6224C16.5151 18.8155 16.2641 19.0715 16.0769 19.3723ZM11.0874 6.53449C11.8344 6.53449 12.4421 5.92677 12.4421 5.17976C12.4421 4.4328 11.8344 3.82503 11.0874 3.82503C10.3404 3.82503 9.73263 4.43275 9.73263 5.17976C9.73258 5.92672 10.3404 6.53449 11.0874 6.53449ZM11.0874 4.49171C11.4667 4.49171 11.7754 4.8004 11.7754 5.17976C11.7754 5.55917 11.4667 5.8678 11.0874 5.8678C10.708 5.8678 10.3993 5.55912 10.3993 5.17976C10.3993 4.8004 10.708 4.49171 11.0874 4.49171ZM21.6972 16.4047C22.0433 16.4814 22.0433 16.9788 21.6972 17.0556C21.0129 17.2074 20.4808 17.7747 20.3733 18.4672C20.3154 18.8407 19.7725 18.8406 19.7146 18.4672C19.6071 17.7747 19.0751 17.2075 18.3907 17.0556C18.0447 16.9788 18.0447 16.4815 18.3907 16.4047C19.075 16.2528 19.607 15.6856 19.7146 14.9932C19.7725 14.6198 20.3154 14.6198 20.3733 14.9932C20.4808 15.6856 21.0129 16.2528 21.6972 16.4047ZM20.044 17.4799C20.2312 17.1792 20.4821 16.9232 20.779 16.7301C20.482 16.537 20.2311 16.281 20.044 15.9802C19.8568 16.281 19.6059 16.5369 19.3089 16.7301C19.6059 16.9232 19.8568 17.1792 20.044 17.4799ZM3.9906 9.09128H4.89851C4.94229 9.09129 4.98563 9.08267 5.02608 9.06593C5.06652 9.04918 5.10327 9.02463 5.13422 8.99367C5.16517 8.96272 5.18972 8.92597 5.20647 8.88553C5.22322 8.84509 5.23184 8.80174 5.23183 8.75797V7.34569C5.23184 7.30191 5.22322 7.25857 5.20647 7.21812C5.18972 7.17768 5.16517 7.14093 5.13422 7.10998C5.10327 7.07903 5.06652 7.05448 5.02608 7.03773C4.98563 7.02098 4.94229 7.01236 4.89851 7.01237H3.9906C3.94683 7.01236 3.90348 7.02098 3.86304 7.03773C3.8226 7.05448 3.78585 7.07903 3.7549 7.10998C3.72395 7.14093 3.69939 7.17768 3.68265 7.21812C3.6659 7.25857 3.65728 7.30191 3.65729 7.34569V8.75797C3.65728 8.80174 3.6659 8.84509 3.68265 8.88553C3.69939 8.92597 3.72395 8.96272 3.7549 8.99367C3.78585 9.02463 3.8226 9.04918 3.86304 9.06593C3.90348 9.08267 3.94683 9.09129 3.9906 9.09128ZM4.32397 7.67905H4.5652V8.42465H4.32397V7.67905ZM3.9906 11.8907H4.89851C4.94229 11.8907 4.98563 11.8821 5.02608 11.8653C5.06652 11.8486 5.10327 11.824 5.13422 11.7931C5.16517 11.7621 5.18972 11.7254 5.20647 11.6849C5.22322 11.6445 5.23184 11.6011 5.23183 11.5574V10.1451C5.23184 10.1013 5.22322 10.0579 5.20647 10.0175C5.18972 9.97706 5.16517 9.94032 5.13422 9.90936C5.10327 9.87841 5.06652 9.85386 5.02608 9.83711C4.98563 9.82036 4.94229 9.81175 4.89851 9.81175H3.9906C3.94683 9.81175 3.90348 9.82036 3.86304 9.83711C3.8226 9.85386 3.78585 9.87841 3.7549 9.90936C3.72395 9.94032 3.69939 9.97706 3.68265 10.0175C3.6659 10.0579 3.65728 10.1013 3.65729 10.1451V11.5574C3.65728 11.6011 3.6659 11.6445 3.68265 11.6849C3.69939 11.7254 3.72395 11.7621 3.7549 11.7931C3.78585 11.824 3.8226 11.8486 3.86304 11.8653C3.90348 11.8821 3.94683 11.8907 3.9906 11.8907ZM4.32397 10.4784H4.5652V11.224H4.32397V10.4784ZM4.99583 16.9488H3.89334C3.84957 16.9488 3.80622 16.9574 3.76578 16.9741C3.72533 16.9909 3.68859 17.0154 3.65763 17.0464C3.62668 17.0773 3.60213 17.1141 3.58538 17.1545C3.56863 17.195 3.56002 17.2383 3.56002 17.2821V18.997C3.56002 19.0408 3.56863 19.0841 3.58538 19.1246C3.60213 19.165 3.62668 19.2018 3.65763 19.2327C3.68859 19.2637 3.72533 19.2882 3.76578 19.305C3.80622 19.3217 3.84957 19.3303 3.89334 19.3303H4.99583C5.0396 19.3303 5.08295 19.3217 5.12339 19.305C5.16384 19.2882 5.20058 19.2637 5.23154 19.2327C5.26249 19.2018 5.28704 19.165 5.30379 19.1246C5.32054 19.0841 5.32915 19.0408 5.32915 18.997V17.2821C5.32915 17.2383 5.32054 17.195 5.30379 17.1545C5.28704 17.1141 5.26249 17.0773 5.23154 17.0464C5.20058 17.0154 5.16384 16.9909 5.12339 16.9741C5.08295 16.9574 5.0396 16.9488 4.99583 16.9488ZM4.66246 18.6637H4.22666V17.6155H4.66246V18.6637ZM20.5193 22.3333C20.5631 22.3333 20.6065 22.3419 20.6469 22.3586C20.6874 22.3754 20.7241 22.4 20.755 22.4309C20.786 22.4619 20.8105 22.4986 20.8273 22.5391C20.844 22.5795 20.8526 22.6229 20.8526 22.6667C20.8526 22.7104 20.844 22.7538 20.8272 22.7942C20.8105 22.8347 20.7859 22.8714 20.755 22.9024C20.724 22.9333 20.6873 22.9579 20.6469 22.9746C20.6064 22.9914 20.5631 23 20.5193 23H2.3766C2.33199 23 2.28784 22.991 2.24676 22.9736C2.20568 22.9562 2.16851 22.9307 2.13744 22.8987C2.10638 22.8667 2.08205 22.8288 2.06589 22.7872C2.04973 22.7456 2.04208 22.7012 2.04339 22.6566L2.5367 6.32839C2.54856 5.93772 2.85825 5.63814 3.2628 5.63814L4.11903 1.73877C4.19524 1.39174 4.69398 1.39179 4.77013 1.73877L5.62637 5.63814C6.03102 5.63814 6.34071 5.93772 6.35252 6.32839L6.51423 11.6791L7.37122 10.7569L7.72213 8.72148C7.49402 7.56178 7.40088 6.36051 7.44541 5.14965C7.48809 3.9902 7.65819 2.78808 7.95114 1.57672C8.03981 1.21032 8.37609 0.968995 8.75209 1.00323C9.10269 1.0352 9.37242 1.27753 9.43737 1.60753C9.86941 1.69238 10.2864 1.74048 10.6796 1.74973C12.0877 1.78306 12.8056 1.12105 14.1499 1.11391C15.7518 1.10532 16.7773 1.79914 17.5852 3.4329C18.426 5.13301 17.9161 6.65528 18.7845 8.32367C19.3055 9.32462 20.3891 10.1462 21.2315 10.9686C21.2795 11.0155 21.3122 11.0758 21.3254 11.1416C21.3386 11.2074 21.3316 11.2756 21.3054 11.3374C20.894 12.3062 20.3508 13.0467 19.6907 13.5381C18.2652 14.5995 17.0264 13.9559 16.2117 14.7384C15.8964 15.0411 15.6739 15.5123 15.5505 16.1389C15.4994 16.3983 15.1805 16.4972 14.9913 16.3137C14.6635 15.9957 14.3734 15.6443 14.1294 15.2693C13.4998 14.3017 13.2135 13.3011 13.2782 12.2953C13.3127 11.7602 13.4962 11.2314 13.6906 10.6715C13.9658 9.87866 14.0365 9.65105 14.1549 8.82779C12.9157 8.96627 11.5347 9.1698 11.164 9.44667C11.0055 9.56499 10.8986 9.70926 10.8381 9.88655L10.7671 11.3059L12.7653 19.0738L13.6972 21.194C13.7258 21.2584 13.739 21.3284 13.736 21.3987C13.733 21.469 13.7137 21.5377 13.6798 21.5993C13.5808 21.7805 13.4412 21.8182 13.2686 21.8454C13.017 21.8852 12.7705 21.8147 12.5769 21.6401L11.2172 20.4142C11.1802 20.3807 11.1511 20.3394 11.1321 20.2932L8.4818 13.8404C8.47019 13.8112 8.45222 13.7849 8.42918 13.7636C8.40615 13.7422 8.37865 13.7262 8.34867 13.7168C8.31869 13.7074 8.28699 13.7048 8.25588 13.7092C8.22477 13.7136 8.19504 13.7249 8.16884 13.7423L6.67644 14.7071C7.43154 14.7456 8.23746 14.8524 8.68478 15.3129C8.86589 15.4993 8.99311 15.7188 9.06278 15.9651C9.12285 16.1775 8.9628 16.3892 8.74208 16.3892H6.65648L6.83608 22.3332H20.5193V22.3333ZM12.6843 2.06943C13.1592 1.9223 13.6078 1.78336 14.1532 1.78055C15.4952 1.77341 16.2908 2.3197 16.9875 3.72837C17.7567 5.28391 17.2516 6.82271 18.193 8.63145C18.7414 9.68503 19.7388 10.4721 20.5991 11.2857C20.2487 12.041 19.8098 12.6183 19.2925 13.0034C18.0338 13.9406 16.7916 13.257 15.7498 14.2576C15.4514 14.5441 15.2193 14.9285 15.0564 15.4047C14.9241 15.2457 14.8011 15.0791 14.6881 14.9057C14.1387 14.0613 13.8881 13.1974 13.9434 12.3381C13.996 11.5221 14.56 10.4592 14.7331 9.44531C14.7719 9.21608 14.8069 8.98623 14.8381 8.75586L15.8636 8.65834C15.7972 10.0172 15.8958 11.0979 16.5857 12.3054C16.6779 12.4669 16.8822 12.5199 17.0405 12.4295C17.0785 12.4078 17.1119 12.3788 17.1387 12.3442C17.1655 12.3096 17.1852 12.2701 17.1968 12.2278C17.2083 12.1856 17.2114 12.1415 17.2058 12.0981C17.2003 12.0546 17.1863 12.0127 17.1646 11.9747C16.9366 11.5758 16.7674 11.1583 16.6617 10.7341C16.479 10.0012 16.4957 9.23344 16.5427 8.44571C16.5624 8.405 16.7924 8.27275 16.7924 7.84956C16.7924 7.66342 16.7239 7.49297 16.6113 7.36122C16.6588 6.4804 16.6658 5.47563 16.3366 4.4889C16.1462 3.91797 15.8583 3.36343 15.4809 2.84076C15.4553 2.80527 15.423 2.77518 15.3857 2.75219C15.3484 2.72921 15.307 2.71379 15.2638 2.70681C15.2206 2.69983 15.1764 2.70143 15.1339 2.71152C15.0913 2.72161 15.0511 2.73999 15.0156 2.76562C14.9801 2.79124 14.95 2.8236 14.927 2.86085C14.904 2.89811 14.8886 2.93952 14.8816 2.98273C14.8746 3.02595 14.8762 3.07011 14.8863 3.11271C14.8964 3.1553 14.9148 3.19549 14.9404 3.23098C15.8434 4.48141 16.0183 5.6215 15.9566 7.09546L15.0066 7.09149C15.1334 5.08566 14.903 3.80819 14.3201 3.29281C13.3542 2.43868 11.8095 2.87334 10.6783 2.76737C10.2395 2.72626 9.78943 2.65005 9.33683 2.54143C9.34925 2.45261 9.36237 2.36364 9.37609 2.27466C9.8216 2.35871 10.2535 2.40671 10.6639 2.41636C11.5007 2.43612 12.1296 2.24119 12.6843 2.06943ZM9.19403 3.9617L9.25646 3.20736C9.71448 3.31387 10.1704 3.38927 10.6161 3.43099C11.6815 3.53082 13.169 3.16473 13.8784 3.79205C14.0749 3.96583 14.4999 4.6316 14.3388 7.08852L12.4885 7.08068C11.6486 7.07621 10.1754 7.24686 9.65437 6.75626C9.03131 6.1697 9.12536 4.89349 9.19403 3.9617ZM7.92691 11.1381C7.97091 11.0907 8.00018 11.0315 8.01116 10.9678L8.38946 8.77375C8.39646 8.73321 8.39588 8.69173 8.38775 8.6514C7.92621 6.36067 8.04051 4.04756 8.59897 1.73345C8.62496 1.62588 8.80326 1.65493 8.78305 1.77019C8.64552 2.5549 8.5853 3.14769 8.52905 3.91274C8.45049 4.97824 8.34297 6.43747 9.19714 7.24178C9.94802 7.94878 11.4538 7.74294 12.4856 7.74751L16.0389 7.76249C16.1514 7.76295 16.1588 7.96024 16.047 7.97115C13.9671 8.17473 11.4919 8.36966 10.7649 8.91254C10.4809 9.12456 10.2868 9.40007 10.1878 9.73123C10.1801 9.75686 10.1756 9.78332 10.1742 9.81004L10.0986 11.3232C10.0969 11.3568 10.1003 11.3904 10.1087 11.4229C10.297 12.1535 12.1111 19.2425 12.1439 19.3172L12.8975 21.0316L11.7198 19.9698L9.09832 13.587C8.88876 13.0768 8.26993 12.8829 7.80668 13.1824L5.4336 14.7167C5.16694 14.8891 5.27204 15.3044 5.58872 15.3289C6.3391 15.3872 7.63466 15.3151 8.14557 15.7225H4.15487C3.9624 15.7225 3.86876 15.4918 4.00573 15.3569C4.00945 15.3532 4.01317 15.3494 4.01669 15.3456L7.92691 11.1381ZM4.91827 22.3333V21.1027C4.91827 20.8416 4.70579 20.629 4.44461 20.629C4.18343 20.629 3.9709 20.8416 3.9709 21.1027V22.3333H4.91827ZM5.99301 22.3333H5.5849V21.1027C5.5849 20.474 5.07334 19.9624 4.44456 19.9624C3.81583 19.9624 3.30427 20.474 3.30427 21.1027V22.3333H2.72017L3.20303 6.34845C3.20347 6.33674 3.20841 6.32566 3.21682 6.3175C3.22523 6.30935 3.23646 6.30475 3.24817 6.30467H3.53092C3.60691 6.30467 3.68062 6.2787 3.73984 6.23107C3.79905 6.18344 3.84021 6.11701 3.85649 6.04278L4.44461 3.36439L5.03273 6.04278C5.04901 6.11701 5.09017 6.18344 5.14938 6.23107C5.2086 6.2787 5.28231 6.30467 5.3583 6.30467H5.6411C5.66518 6.30467 5.68538 6.32427 5.68614 6.3484L5.8682 12.3742L3.53343 14.8866C2.96703 15.4734 3.39284 16.3891 4.15518 16.3891H5.9895L6.1691 22.3332L5.99301 22.3333Z" fill="#667EEA"/>
</svg>
