<svg width="24" height="24" viewBox="0 0 24 24" fill="none" xmlns="http://www.w3.org/2000/svg">
<path d="M8.60184 5.81615C8.70289 6.22734 8.80353 6.69266 8.30156 6.73032C7.65351 6.77893 7.57246 7.83205 8.30156 7.94549C9.03066 8.0589 7.57246 8.77177 8.5284 9.72771C9.02261 10.222 9.24132 8.80417 9.69496 9.19306C10.1486 9.58192 10.1648 10.6026 9.72736 10.8619C9.28989 11.1211 9.97038 11.6395 10.4403 11.5748C10.9101 11.51 11.947 10.4082 11.7688 11.1859C11.5906 11.9636 11.1208 12.2391 11.7365 12.8871C12.3521 13.5352 12.4331 13.4542 12.3035 13.9565C12.1739 14.4587 11.6392 15.2202 10.9425 14.7828C10.2458 14.3453 9.84076 14.6856 10.019 15.042C10.1972 15.3985 9.46812 15.5767 9.63013 15.9494C9.79215 16.322 10.6347 15.7873 10.6509 16.3382C10.6671 16.8891 10.2458 17.5371 9.66253 17.5371C9.07927 17.5371 8.99826 18.3472 9.90555 18.4607C10.8129 18.5741 11.9309 18.4769 11.947 19.0926C11.9633 19.7083 11.0235 19.1088 10.4889 19.4976C9.95416 19.8865 9.40329 19.854 9.22506 20.486C9.04687 21.1178 8.30156 21.0854 8.5284 21.7497C8.60188 21.9649 9.20888 22.2196 9.53295 21.6687C9.85697 21.1178 10.8129 21.8307 11.3152 21.5553C11.8174 21.2798 11.7526 20.0971 13.0164 20.567C14.2322 21.019 14.3533 20.2414 16.0632 20.2827" stroke="#667EEA" stroke-width="0.7" stroke-miterlimit="10" stroke-linecap="round" stroke-linejoin="round"/>
<path d="M17.4898 20.226C18.2716 20.0406 18.3516 19.5501 18.2497 19.0115C18.1433 18.4493 16.6619 18.8981 17.8446 17.7964C19.0274 16.6946 18.613 16.1749 18.4603 15.9979C17.7474 15.1716 16.8725 16.241 16.3054 15.7387C15.7384 15.2364 16.8401 15.3013 16.4998 14.2643C16.1596 13.2273 16.0948 12.4821 15.4143 12.1418C14.7338 11.8016 14.1343 10.8943 14.1343 10.0193C14.1343 9.14444 13.4538 8.78798 13.2108 8.75554C12.9678 8.72315 11.5293 9.031 11.56 8.56114C11.5906 8.09128 12.822 8.36673 13.0002 7.16773C13.1784 5.96878 13.5186 5.75819 13.8103 5.51514C14.1019 5.27212 14.0047 4.28374 12.6761 4.47819C11.3476 4.67264 11.2828 4.94805 10.9587 4.85087C10.6346 4.75365 12.6437 2.67976 12.1901 2.16129C11.7364 1.64281 10.7319 2.55014 9.71114 2.43674C8.69042 2.3233 9.56531 3.53847 8.86865 4.02455C8.70808 4.13654 8.60003 4.25115 8.52957 4.36652" stroke="#667EEA" stroke-width="0.7" stroke-miterlimit="10" stroke-linecap="round" stroke-linejoin="round"/>
<path d="M6.76487 10.6595C7.09095 10.6251 7.71397 10.3997 8.03035 11.0437C8.34673 11.6878 8.86649 12.2979 8.73087 12.6369C8.5953 12.9758 7.89474 13.5182 7.61232 13.3374C7.32983 13.1566 6.91176 12.4674 6.69707 12.5125C6.48238 12.5578 6.09823 13.5295 5.62371 13.0549C5.14914 12.5804 5.31863 12.0041 5.82705 11.6991C6.3355 11.394 6.23409 10.7156 6.76487 10.6595Z" stroke="#667EEA" stroke-width="0.7" stroke-miterlimit="10" stroke-linecap="round" stroke-linejoin="round"/>
<path d="M11.9679 16.9481V17.2716" stroke="#667EEA" stroke-width="0.7" stroke-miterlimit="10" stroke-linecap="round" stroke-linejoin="round"/>
<path d="M15.3344 16.9481V17.2716" stroke="#667EEA" stroke-width="0.7" stroke-miterlimit="10" stroke-linecap="round" stroke-linejoin="round"/>
<path d="M13.2074 17.2619C13.2626 17.3255 13.3307 17.3764 13.4073 17.4113C13.4838 17.4462 13.567 17.4642 13.6511 17.4641C13.8283 17.4641 13.987 17.3858 14.0949 17.2619" stroke="#667EEA" stroke-width="0.7" stroke-miterlimit="10" stroke-linecap="round" stroke-linejoin="round"/>
</svg>
