<svg width="24" height="24" viewBox="0 0 24 24" fill="none" xmlns="http://www.w3.org/2000/svg">
<path d="M21.3219 12.439C21.1672 11.9212 20.9366 11.321 21.1161 10.9545C21.3467 10.4838 21.6156 9.74485 22.2222 9.27549C22.4863 9.07107 22.6337 8.74623 22.6124 8.4129C22.6005 8.22727 22.6294 8.03087 22.7545 7.88256C22.9636 7.63478 23.317 7.19125 23.5428 6.90592C23.6049 6.82739 23.6414 6.73166 23.6474 6.63168C23.6533 6.53171 23.6284 6.43232 23.576 6.34698L23.1656 5.67822C23.0633 5.51153 22.8835 5.40189 22.688 5.40386C22.4405 5.40634 22.2548 5.57486 22.2072 5.7902C22.1325 6.12714 21.9224 6.7787 21.3772 7.10354C21.0746 7.28378 20.8082 7.39178 20.5975 7.45651C20.316 7.54299 20.1053 7.77404 20.0334 8.05956C19.9617 8.34385 19.8053 8.68421 19.4657 8.90255C18.7911 9.33624 17.9237 10.1233 17.5382 9.35227C17.1527 8.58127 17.49 7.81027 16.5905 7.28021C15.691 6.75015 14.7594 7.50507 14.1811 7.10354C13.7925 6.83364 13.2805 6.4622 12.9866 6.24761C12.8359 6.13766 12.6528 6.08127 12.4664 6.08739C11.3978 6.12156 10.2092 6.04933 9.03776 5.92445" stroke="#667EEA" stroke-width="0.7" stroke-miterlimit="10" stroke-linecap="round" stroke-linejoin="round"/>
<path d="M7.39718 5.71693C5.43195 5.43231 3.71905 5.06453 2.99357 4.90033C2.80049 4.85664 2.61018 4.97547 2.55946 5.16676C2.49431 5.41211 2.37103 5.68328 2.15034 5.60973C1.93495 5.53792 1.84992 5.3432 1.81687 5.18537C1.80254 5.11623 1.76852 5.05271 1.71891 5.00247C1.6693 4.95223 1.60621 4.91741 1.53726 4.9022L1.52339 4.89916C1.25086 4.8392 0.981421 5.01034 0.919405 5.2824L0.483328 7.19565C0.410173 7.51592 0.368569 7.84259 0.35911 8.17097C0.336235 8.97961 0.346454 10.5398 0.686953 11.7157C0.768937 11.9987 0.924233 12.2544 1.13489 12.4605C1.41487 12.7344 1.84373 13.2246 2.0752 13.8412C2.1959 14.1628 2.47368 14.4013 2.80781 14.4808C3.17751 14.5686 3.63763 14.7275 3.93332 15.0063C4.41364 15.4591 5.60905 15.7127 6.67826 15.6567C7.1059 15.6344 7.51564 15.8414 7.73904 16.2067C7.84845 16.3857 7.93868 16.5949 7.96498 16.8214C8.02906 17.3724 8.7169 17.3304 9.19633 17.1359C9.43919 17.0374 9.71716 17.1164 9.87649 17.3246C10.0042 17.4913 10.1285 17.7152 10.1816 17.9939C10.2768 18.4938 10.6014 18.907 11.0965 19.0874C11.3574 19.1825 11.6345 19.0011 11.65 18.7238C11.6724 18.3254 11.8234 17.7929 12.4464 17.6566C13.0405 17.5266 13.3664 17.3162 13.5356 17.1617C13.7327 16.9821 13.9621 16.8416 14.2117 16.7476C14.9187 16.4807 16.2165 16.1164 17.1909 16.5643C17.3524 16.6386 17.5308 16.6664 17.7076 16.6474C18.0329 16.6125 18.5518 16.6148 18.7751 16.9338C19.0557 17.3347 19.2363 18.1025 20.0014 18.6453C20.2782 18.8416 20.6625 18.7746 20.8612 18.4995L20.9654 18.3553C21.1491 18.1009 21.1402 17.7896 20.961 17.572C20.5672 17.0936 19.9375 16.2291 19.9155 15.5685C19.8976 15.0319 20.3029 14.5154 20.699 14.0796" stroke="#667EEA" stroke-width="0.7" stroke-miterlimit="10" stroke-linecap="round" stroke-linejoin="round"/>
</svg>
