<svg xmlns="http://www.w3.org/2000/svg" width="180.309" height="72.124" viewBox="0 0 180.309 72.124">
  <g id="Group_178" data-name="Group 178" transform="translate(-270 -4175)">
    <g id="Group_177" data-name="Group 177" transform="translate(0 -16)">
      <g id="Group_176" data-name="Group 176" transform="translate(270 4191)">
        <g id="Path_633" data-name="Path 633" fill="#f7f5f7">
          <path d="M 1.500009417533875 70.54939270019531 L 1.500009417533875 1.574226021766663 L 164.3843383789062 9.443037033081055 L 164.3843383789062 62.68060302734375 L 1.500009417533875 70.54939270019531 Z" stroke="none"/>
          <path d="M 3 3.148422241210938 L 3 68.97519683837891 L 162.8843231201172 61.25131607055664 L 162.8843231201172 10.8723030090332 L 3 3.148422241210938 M 0 0 L 165.8843231201172 8.013740539550781 L 165.8843231201172 64.10987854003906 L 0 72.12361907958984 L 0 0 Z" stroke="none" fill="#111"/>
        </g>
        <rect id="Rectangle_1055" data-name="Rectangle 1055" width="17" height="38" transform="translate(154 17)" fill="#f7f5f7"/>
      </g>
      <path id="Path_3777" data-name="Path 3777" d="M18.1-21.7H3.6V0H6.2V-7.936H18.1c4.991,0,8.308-2.542,8.308-6.882S23.1-21.7,18.1-21.7Zm-.186,11.346H6.2v-8.928H17.918c3.534,0,5.828,1.426,5.828,4.464S21.452-10.354,17.918-10.354ZM49.755,0H52.7L40.765-21.7H37.851L25.916,0H28.8l3.162-5.828H46.593ZM33.232-8.184l6.045-11.129L45.322-8.184ZM50.716-21.7,61.628-7.6V0h2.6V-7.6L75.113-21.7h-3.1L62.961-9.951,53.847-21.7ZM90.706,0V-21.7H88.1V0ZM118.42-21.7V-3.813L100.719-21.7H97.9V0h2.542V-18.383L118.668,0h2.294V-21.7Z" transform="translate(286 4239)" fill="#111"/>
      <path id="Union_5" data-name="Union 5" d="M0,22.355V20.034H24.041v2.321ZM0,12.338V10.017H24.041v2.321ZM0,2.321V0H24.041V2.321Z" transform="translate(426.268 4216.644)" fill="#111"/>
    </g>
  </g>
</svg>
