<svg xmlns="http://www.w3.org/2000/svg" xmlns:xlink="http://www.w3.org/1999/xlink" width="442.134" height="62.009" viewBox="0 0 442.134 62.009">
  <defs>
    <clipPath id="clip-path">
      <path id="Path_627" data-name="Path 627" d="M32.8,43.308l-1.314,1.051L18.879,54.475l-1.445,1.182-.788-.525s-9.328-7.488-14.057-11.3c-.394-.263-.788-.657-.788-1.051V30.828l1.576-1.182,9.065-7.226,1.182-.92c-1.839,3.547-.131,6.569,3.153,9.065C22.294,34.769,32.8,43.308,32.8,43.308Z" transform="translate(-1.8 -21.5)" fill="#005cd7"/>
    </clipPath>
    <clipPath id="clip-path-2">
      <path id="Path_630" data-name="Path 630" d="M56.3,25.361l-9.065,7.094-2.759,2.233A5.6,5.6,0,0,0,43.036,27.2c-5.78-4.729-11.824-9.459-17.736-14.188L32,7.494C34.759,5.129,40.671.4,40.671.4l1.051.788s9.2,7.226,13.663,10.9c.394.394.788.657.788,1.182C56.3,17.216,56.3,25.361,56.3,25.361Z" transform="translate(-25.3 -0.4)"/>
    </clipPath>
  </defs>
  <g id="Group_90" data-name="Group 90" transform="translate(-832 -6418)">
    <path id="Path_3777" data-name="Path 3777" d="M-66.864,0h14.5V-2.144h-12.16v-8.1h11.136v-2.08H-64.528v-7.552H-52.56v-2.144h-14.3Zm16.736,0h2.656l4.608-6.176L-38.32,0h2.752l-5.856-7.776,5.6-7.264H-38.48l-4.288,5.728-4.32-5.728h-2.784l5.664,7.3Zm23.872.32a7.655,7.655,0,0,0,5.728-2.464l-1.5-1.5a5.549,5.549,0,0,1-4.224,1.792,5.415,5.415,0,0,1-5.5-5.7,5.406,5.406,0,0,1,5.5-5.664,5.48,5.48,0,0,1,4.192,1.792l1.472-1.5a7.553,7.553,0,0,0-5.664-2.432A7.686,7.686,0,0,0-34.1-7.552,7.74,7.74,0,0,0-26.256.32ZM-17.392,0h2.24V-8.864A4.278,4.278,0,0,1-10.7-13.28,4.159,4.159,0,0,1-6.416-8.832V0h2.24V-9.216A5.791,5.791,0,0,0-10.1-15.36a5.945,5.945,0,0,0-5.056,2.528v-9.824h-2.24ZM6.544.32A6.154,6.154,0,0,0,11.952-2.5V0h2.24V-15.04h-2.24v2.5a6.248,6.248,0,0,0-5.44-2.816A7.544,7.544,0,0,0-.944-7.488,7.514,7.514,0,0,0,6.544.32ZM6.9-1.824A5.4,5.4,0,0,1,1.36-7.52a5.424,5.424,0,0,1,5.5-5.728c3.1,0,5.216,2.3,5.216,5.728S10-1.824,6.9-1.824ZM18.7,0h2.24V-8.864a4.278,4.278,0,0,1,4.448-4.416A4.159,4.159,0,0,1,29.68-8.832V0h2.24V-9.216A5.937,5.937,0,0,0,26-15.36a5.945,5.945,0,0,0-5.056,2.528V-15.04H18.7ZM42.48-.16a6.307,6.307,0,0,0,5.5-2.848v2.4c0,3.168-2.176,5.12-5.6,5.12a6.483,6.483,0,0,1-5.5-2.56L35.408,3.424A8.115,8.115,0,0,0,42.32,6.656c4.7,0,7.9-2.912,7.9-7.264V-15.04h-2.24v2.5a6.339,6.339,0,0,0-5.536-2.816,7.282,7.282,0,0,0-7.3,7.584A7.3,7.3,0,0,0,42.48-.16ZM42.9-2.3a5.216,5.216,0,0,1-5.44-5.472,5.226,5.226,0,0,1,5.408-5.472,5.1,5.1,0,0,1,5.248,5.472C48.112-4.48,46-2.3,42.9-2.3ZM61.68.32A7.739,7.739,0,0,0,67.632-2.3l-1.44-1.472a5.622,5.622,0,0,1-4.48,1.984,5.351,5.351,0,0,1-5.664-4.9h12.32a10.047,10.047,0,0,0,.16-1.376,6.911,6.911,0,0,0-7.04-7.3,7.645,7.645,0,0,0-7.744,7.808A7.7,7.7,0,0,0,61.68.32Zm-.256-13.6a4.65,4.65,0,0,1,4.9,4.672H56.048A5.157,5.157,0,0,1,61.424-13.28Z" transform="translate(1205.606 6458.137)" fill="#061a2a"/>
    <g id="logo" transform="translate(832 6418)">
      <path id="Path_611" data-name="Path 611" d="M73.5,43.93A15.4,15.4,0,0,1,57.6,29.085v-.657h0A15.962,15.962,0,0,1,89.524,28.3h0v.131a15.531,15.531,0,0,1-15.5,15.5Zm9.065-15.371a9.288,9.288,0,0,0-8.8-9.459H73.5a8.86,8.86,0,0,0-8.933,8.933v.525a9.288,9.288,0,0,0,8.8,9.459h.263a8.86,8.86,0,0,0,8.933-8.933v-.525Z" transform="translate(15.707 3.365)" fill="#061a2a"/>
      <path id="Path_612" data-name="Path 612" d="M109.685,43.153V23.579l-8.408,12.743h-.131L92.737,23.71V43.153H86.3V13.2h7.094l7.882,12.612L109.159,13.2h7.094V43.153Z" transform="translate(24.711 3.616)" fill="#061a2a"/>
      <path id="Path_613" data-name="Path 613" d="M129.365,43.78c-9.328,0-15.765-6.569-15.765-15.371h0a15.307,15.307,0,0,1,15.239-15.5h.525a16.309,16.309,0,0,1,11.824,4.073l-4.2,4.992A11,11,0,0,0,129.1,18.95c-4.729,0-8.671,4.2-8.671,9.328v.131c0,5.518,3.81,9.459,9.065,9.459a10.345,10.345,0,0,0,6.175-1.839V31.694H129.1V26.045h13.006V39.051A18.683,18.683,0,0,1,129.365,43.78Z" transform="translate(33.276 3.515)" fill="#061a2a"/>
      <path id="Path_614" data-name="Path 614" d="M146.669,19.243v6.437h14.32v6.043h-14.32V43.285H140.1V13.2h22.859v6.043Z" transform="translate(41.591 3.616)" fill="#061a2a"/>
      <path id="Path_615" data-name="Path 615" d="M161.7,43.153V13.2h6.569V43.153Z" transform="translate(48.367 3.616)" fill="#061a2a"/>
      <path id="Path_616" data-name="Path 616" d="M193.42,43.153,178.969,24.1V43.153H172.4V13.2h6.043L192.5,31.592V13.2h6.569V43.153Z" transform="translate(51.724 3.616)" fill="#061a2a"/>
      <g id="Group_89" data-name="Group 89" transform="translate(0 0)">
        <g id="Group_85" data-name="Group 85" transform="translate(0 27.72)">
          <path id="Path_625" data-name="Path 625" d="M32.8,43.308l-1.314,1.051L18.879,54.475l-1.445,1.182-.788-.525s-9.328-7.488-14.057-11.3c-.394-.263-.788-.657-.788-1.051V30.828l1.576-1.182,9.065-7.226,1.182-.92c-1.839,3.547-.131,6.569,3.153,9.065C22.294,34.769,32.8,43.308,32.8,43.308Z" transform="translate(-1.8 -21.5)" fill="#005cd7"/>
          <g id="Group_84" data-name="Group 84" clip-path="url(#clip-path)">
            <path id="Path_626" data-name="Path 626" d="M-.061,36.534-1.9,35.088,15.836,20.9l1.708,1.445Z" transform="translate(-2.961 -21.688)" fill="#0049ac"/>
          </g>
        </g>
        <g id="Group_87" data-name="Group 87" transform="translate(30.873)">
          <path id="Path_628" data-name="Path 628" d="M56.3,25.361l-9.065,7.094-2.759,2.233A5.6,5.6,0,0,0,43.036,27.2c-5.78-4.729-11.824-9.459-17.736-14.188L32,7.494C34.759,5.129,40.671.4,40.671.4l1.051.788s9.2,7.226,13.663,10.9c.394.394.788.657.788,1.182C56.3,17.216,56.3,25.361,56.3,25.361Z" transform="translate(-25.3 -0.4)" fill="#005cd7"/>
          <g id="Group_86" data-name="Group 86" clip-path="url(#clip-path-2)">
            <path id="Path_629" data-name="Path 629" d="M26.239,15.334,24.4,13.888,42.136-.3l1.708,1.445Z" transform="translate(-25.582 -0.62)" opacity="0.2"/>
          </g>
        </g>
        <g id="Group_88" data-name="Group 88" transform="translate(0.131 0)">
          <path id="Path_631" data-name="Path 631" d="M1.9,37.579V14.72a3.937,3.937,0,0,1,1.708-3.284C7.943,8.02,12.147,4.473,16.483,1.057A2.957,2.957,0,0,1,18.453.4H48.144S35.006,11.173,32.773,13.012C26.467,17.873,3.476,36.4,3.476,36.4Z" transform="translate(-1.9 -0.4)" fill="#0c8eff"/>
        </g>
        <path id="Path_632" data-name="Path 632" d="M59.975,19.4V42.916a2.131,2.131,0,0,1-.92,1.839c-4.6,3.678-9.065,7.226-13.663,10.9a3.011,3.011,0,0,1-1.971.788H13.6l1.445-1.182L27.657,45.149,28.971,44.1l1.051-.92L45,31.092l3.022-2.365,2.759-2.233Z" transform="translate(1.902 5.561)" fill="#0c8eff"/>
      </g>
    </g>
    <line id="Line_7" data-name="Line 7" y2="47.295" transform="translate(1109.2 6425.226)" fill="none" stroke="#061a2a" stroke-width="2"/>
  </g>
</svg>
