<svg width="35" height="31" viewBox="0 0 35 31" fill="none" xmlns="http://www.w3.org/2000/svg">
<path d="M10.8427 17.4197C10.818 17.6167 10.7934 17.666 10.7934 17.7152C11.2367 20.2028 11.2367 20.2028 13.7489 20.2028C18.5763 20.2028 23.4036 20.2028 28.2309 20.2028C28.625 20.2028 29.0191 20.252 29.4131 20.3013C30.0781 20.3998 30.3737 20.8924 30.4229 21.5081C30.4722 22.1239 30.1766 22.6164 29.5363 22.7888C29.2161 22.8874 28.8713 22.912 28.5265 22.912C23.4036 22.912 18.2807 22.912 13.1578 22.912C10.3008 22.912 8.82306 21.7052 8.30585 18.9221C7.36994 14.0701 6.43403 9.21812 5.52274 4.36616C5.3996 3.75043 5.1533 3.4795 4.51294 3.50413C3.67555 3.52876 2.83815 3.50413 2.00076 3.40562C1.33577 3.33173 1.04022 2.81451 1.01559 2.19878C0.990959 1.60768 1.23725 1.04121 1.82835 0.942689C3.38 0.696397 4.95627 0.523992 6.45866 1.21361C6.75421 1.36139 7.09902 1.58305 7.24679 1.85397C7.64086 2.61748 8.25659 2.61748 8.99547 2.61748C16.2118 2.59285 23.4282 2.61748 30.6446 2.61748C33.4031 2.61748 34.2405 3.70117 33.5262 6.36113C32.8612 8.89794 32.1962 11.4594 31.482 13.9716C30.8909 16.1143 29.6348 17.1241 27.4182 17.2719C27.0487 17.2965 26.6793 17.3212 26.3098 17.3212C21.4579 17.3212 16.6059 17.3212 11.7539 17.3212C11.483 17.3704 11.1628 17.395 10.8427 17.4197Z" stroke="white"/>
<path d="M8.4043 27.5178C8.42893 25.9661 9.5865 24.8332 11.1381 24.8578C12.6159 24.8824 13.7981 26.0646 13.7981 27.5424C13.7981 29.0448 12.5666 30.2516 11.0643 30.2516C9.56187 30.2516 8.4043 29.0694 8.4043 27.5178Z" stroke="white"/>
<path d="M25.0538 27.567C25.0538 25.9661 26.1375 24.8578 27.7138 24.8578C29.2408 24.8578 30.423 26.04 30.423 27.567C30.423 29.0448 29.2408 30.227 27.7631 30.2516C26.236 30.2762 25.0538 29.1187 25.0538 27.567Z" stroke="white"/>
</svg>
