<svg width="26" height="23" viewBox="0 0 26 23" fill="none" xmlns="http://www.w3.org/2000/svg">
<path d="M12.847 19.3932C16.4218 19.3932 19.9966 19.3932 23.5713 19.3932C24.8935 19.3932 25.6036 20.0298 25.6281 21.1561C25.6281 22.2824 24.869 22.968 23.5958 22.968C16.3973 22.968 9.19873 22.968 2.00019 22.968C0.898369 22.968 0.188309 22.4048 0.0413995 21.4744C-0.0810247 20.544 0.335218 19.7605 1.19219 19.4911C1.46152 19.3932 1.77982 19.3932 2.04916 19.3932C5.64843 19.3932 9.2477 19.3932 12.847 19.3932Z" fill="white"/>
<path d="M12.798 4.60438C9.19878 4.60438 5.5995 4.60438 2.00023 4.60438C1.2412 4.60438 0.580109 4.38402 0.237321 3.64947C-0.080982 2.98838 -0.129952 2.22935 0.408715 1.73965C0.800473 1.34789 1.43708 1.12753 2.00023 1.02959C2.68581 0.907168 3.42035 1.00511 4.13041 1.00511C10.472 1.00511 16.8136 1.00511 23.1551 1.00511C23.4979 1.00511 23.8407 1.00511 24.1835 1.07856C25.1139 1.24996 25.6526 1.88656 25.6526 2.81699C25.6526 3.72293 25.1139 4.38402 24.208 4.5799C23.9387 4.62887 23.6693 4.62886 23.4 4.62886C19.8497 4.60438 16.3239 4.60438 12.798 4.60438Z" fill="white"/>
<path d="M12.8225 13.7862C9.46812 13.7862 6.1137 13.7862 2.75927 13.7862C2.392 13.7862 2.02473 13.7617 1.65745 13.7372C0.653574 13.6393 0.0414526 13.0026 0.0169678 12.0233C0.0169678 11.0194 0.580119 10.3583 1.584 10.2359C1.87782 10.1869 2.17163 10.1869 2.46545 10.1869C9.32121 10.1869 16.177 10.1869 23.0082 10.1869C23.3021 10.1869 23.5959 10.1869 23.8897 10.2114C24.9915 10.3093 25.6036 10.9704 25.6036 12.0233C25.5792 13.0026 24.9425 13.7127 23.8897 13.7372C20.1925 13.7617 16.4953 13.7372 12.7981 13.7372C12.8225 13.7617 12.8225 13.7617 12.8225 13.7862Z" fill="white"/>
</svg>
