<svg width="35" height="35" viewBox="0 0 35 35" fill="none" xmlns="http://www.w3.org/2000/svg">
<path d="M17.0677 9.36074C17.741 9.36074 18.4144 9.36074 19.0877 9.36074C20.8272 9.41685 22.3983 10.5391 22.9034 12.1664C23.4645 13.9339 22.9595 15.7575 21.5286 16.8517C21.1639 17.1323 20.7711 17.3287 20.3783 17.5531C19.6769 17.974 18.9755 18.2826 18.6108 19.2085C18.246 20.1624 16.6749 20.1904 16.0296 19.4048C15.3282 18.5351 15.5807 16.6273 16.5065 16.0101C17.3482 15.477 18.246 14.972 19.1158 14.467C19.5927 14.1864 20.0136 13.7936 19.733 13.2605C19.5647 12.9239 19.0316 12.6433 18.6388 12.6153C17.5727 12.5311 16.5065 12.5591 15.4404 12.6153C15.1318 12.6433 14.739 12.8678 14.5707 13.1483C14.0376 13.9339 13.2801 14.2706 12.4945 13.962C11.6528 13.6253 11.3442 12.9239 11.5406 11.97C11.8492 10.5952 13.1679 9.4449 14.5987 9.36074C15.4404 9.33268 16.254 9.36074 17.0677 9.36074Z" stroke="white"/>
<path d="M17.2921 21.986C18.5827 21.986 19.4524 22.8276 19.4524 24.1463C19.4524 25.3808 18.4985 26.3347 17.264 26.3066C16.0576 26.2786 15.1598 25.3808 15.1318 24.1743C15.1318 22.8557 16.0015 21.986 17.2921 21.986Z" stroke="white"/>
<circle cx="17.3055" cy="17.4892" r="16.791" stroke="white"/>
</svg>
