<svg width="32" height="33" viewBox="0 0 32 33" fill="none" xmlns="http://www.w3.org/2000/svg">
<path d="M19.7809 4.17889C15.3846 -0.217345 8.13677 -0.217345 3.74054 4.17889C-0.6557 8.57513 -0.6557 15.823 3.74054 20.2192C7.89914 24.3778 14.3153 24.6154 18.8303 21.0509L20.3749 22.5956C20.1373 23.5461 20.2561 24.4966 20.969 25.3284L27.1475 31.5068C28.2169 32.5762 29.8803 32.5762 30.9497 31.5068C32.019 30.4375 32.019 28.774 30.9497 27.7047L24.7712 21.5262C24.0583 20.8133 22.9889 20.5757 22.0384 20.9321L20.4938 19.3875C24.1771 14.7536 23.9395 8.33749 19.7809 4.17889ZM6.11688 17.8429C3.02763 14.7536 3.02763 9.64448 6.11688 6.55524C9.20613 3.46599 14.3153 3.46599 17.4045 6.55524C20.4938 9.64448 20.4938 14.7536 17.4045 17.8429C14.3153 20.9321 9.20613 20.9321 6.11688 17.8429Z" fill="#30A3A3"/>
</svg>
