<svg width="31" height="25" viewBox="0 0 31 25" fill="none" xmlns="http://www.w3.org/2000/svg">
<path fill-rule="evenodd" clip-rule="evenodd" d="M15.3852 12.1982C19.0452 12.1982 22.1025 11.5763 22.8464 10.747C22.2165 10.0432 19.9195 9.48674 17.0034 9.33943V11.0907C16.4604 11.118 15.9174 11.1344 15.3743 11.1344C14.8313 11.1344 14.2883 11.1344 13.7453 11.0907V9.33943C10.8346 9.48674 8.53762 10.0432 7.90228 10.747C8.66795 11.5545 11.7252 12.1982 15.3852 12.1982ZM21.9015 3.94374V6.36062H17.0143V8.03552C20.4462 8.2101 22.9876 8.94662 23.0365 9.83045V11.669C23.0365 12.5474 20.4462 13.3057 17.0143 13.464V17.5557H13.7561V13.464C10.3296 13.2839 7.78281 12.5474 7.73937 11.669V9.83045C7.73937 8.94662 10.3296 8.19374 13.7561 8.03552V6.36062H8.86887V3.94374H21.9015ZM6.96284 0.0974633H24.1008C24.2983 0.0955969 24.4929 0.144802 24.666 0.240347C24.8391 0.335892 24.9848 0.474565 25.0891 0.643034L30.0796 9.27942C30.2108 9.49401 30.2642 9.74762 30.2305 9.99722C30.1969 10.2468 30.0783 10.477 29.8949 10.6488L16.1509 24.1026C16.0443 24.2108 15.9175 24.2967 15.7777 24.3553C15.6378 24.414 15.4878 24.4441 15.3363 24.4441C15.1848 24.4441 15.0348 24.414 14.895 24.3553C14.7552 24.2967 14.6283 24.2108 14.5218 24.1026L0.821187 10.6652C0.639117 10.4864 0.523203 10.2505 0.492596 9.99658C0.461989 9.74264 0.518519 9.48581 0.652848 9.26851L5.99082 0.643034C6.09369 0.476926 6.23682 0.339749 6.40681 0.244335C6.57681 0.14892 6.76812 0.0983875 6.96284 0.0974633Z" fill="white"/>
</svg>
