<svg width="28" height="32" viewBox="0 0 28 32" fill="none" xmlns="http://www.w3.org/2000/svg">
<path d="M13.9781 30.5305C10.3732 30.5305 6.76829 30.5305 3.1634 30.5305C1.63256 30.5305 1.01528 29.8885 1.08935 28.333C1.33626 23.296 5.13868 19.1479 10.1757 18.7282C13.2867 18.4566 16.4472 18.259 19.5336 19.0491C23.731 20.1109 26.9409 24.3824 26.8915 28.728C26.8668 29.8391 26.2001 30.5305 25.089 30.5305C21.3854 30.5305 17.6817 30.5305 13.9781 30.5305Z" stroke="white"/>
<path d="M21.2866 8.40731C21.2866 12.5307 18.0768 15.7406 13.9781 15.7159C9.95345 15.7159 6.66954 12.4566 6.64485 8.4567C6.62016 4.35798 9.87938 1 13.9534 1C18.4472 1.02469 21.4842 4.80242 21.2866 8.40731Z" stroke="white"/>
</svg>
