<svg width="200" height="30" viewBox="0 0 200 30" fill="none" xmlns="http://www.w3.org/2000/svg">
<path d="M7.5236 14.9863L4.22288 18.2633L0.922119 14.9863L4.22288 11.7089L7.5236 14.9863ZM15.5759 6.99124L21.2343 12.6454L24.5351 9.36801L18.8768 3.7138L15.5759 0.436523L12.2752 3.7138L6.58051 9.36801L9.88127 12.6454L15.5759 6.99124ZM26.9292 11.7089L23.6285 14.9863L26.9292 18.2633L30.2296 14.9863L26.9292 11.7089ZM15.5759 22.9451L9.91754 17.3272L6.58051 20.6042L12.2389 26.2224L15.5397 29.4998L18.8406 26.2224L24.5351 20.6042L21.2343 17.3272L15.5759 22.9451ZM15.5759 18.2633L18.8768 14.9863L15.5759 11.7089L12.2752 14.9863L15.5759 18.2633ZM50.5056 18.5875V18.5516C50.5056 16.4266 49.3449 15.3464 47.4951 14.6262C48.6557 13.9777 49.5989 12.9692 49.5989 11.1688V11.1326C49.5989 8.61161 47.5675 6.99124 44.3034 6.99124H36.8311V22.9451H44.4846C48.1118 22.9451 50.5056 21.5048 50.5056 18.5875ZM46.0804 11.781C46.0804 12.9692 45.1013 13.4735 43.5417 13.4735H40.2772V10.0882H43.7591C45.2463 10.0882 46.0804 10.6645 46.0804 11.7448V11.781ZM46.9874 18.1553C46.9874 19.3439 46.0442 19.884 44.4846 19.884H40.2772V16.3908H44.3759C46.1895 16.3908 46.9874 17.0388 46.9874 18.1195V18.1553ZM57.9054 22.9451V6.99124H54.3868V22.9451H57.9054ZM76.9116 22.9451V6.99124H73.4297V16.8229L65.8849 6.99124H62.6204V22.9451H66.1027V12.8254L73.9011 22.9813H76.9116V22.9451ZM96.4984 22.9451L89.6066 6.88291H86.3425L79.4507 22.9451H83.0417L84.5288 19.3797H91.3115L92.7987 22.9451H96.4984ZM90.0784 16.2828H85.7982L87.9383 11.0967L90.0784 16.2828ZM113.329 22.9451V6.99124H109.846V16.8229L102.302 6.99124H99.0375V22.9451H102.52V12.8254L110.318 22.9813H113.329V22.9451ZM131.609 20.3883L129.361 18.1195C128.091 19.2718 126.967 19.992 125.153 19.992C122.396 19.992 120.51 17.7231 120.51 14.9863V14.95C120.51 12.2132 122.469 9.98023 125.153 9.98023C126.749 9.98023 128.019 10.6645 129.252 11.781L131.501 9.18797C130.014 7.7114 128.2 6.7391 125.153 6.7391C120.22 6.7391 116.774 10.4483 116.774 14.9863V15.0221C116.774 19.596 120.293 23.2335 125.008 23.2335C128.091 23.2335 129.941 22.1528 131.609 20.3883ZM146.662 22.9451V19.8119H137.957V16.4628H145.538V13.3297H137.957V10.0882H146.554V6.955H134.439V22.9092H146.662V22.9451Z" fill="white"/>
<path d="M169.062 12.3408C169.062 9.0914 166.721 7.00073 163.017 7.00073H156.745V22.9078H159.54V17.7949H162.699C166.199 17.7949 169.062 15.9315 169.062 12.3408ZM166.222 12.4091C166.222 14.1133 164.904 15.2724 162.79 15.2724H159.54V9.54585H162.79C164.881 9.54585 166.222 10.5231 166.222 12.4091Z" fill="white"/>
<path d="M178.553 6.88696H175.962L168.963 22.9076H171.827L173.463 19.0671H180.985L182.598 22.9076H185.552L178.553 6.88696ZM179.962 16.5903H174.485L177.212 10.2274L179.962 16.5903Z" fill="white"/>
<path d="M193.271 16.5675L199.589 7.00073H196.384L191.885 14.0454L187.431 7.00073H184.136L190.454 16.6358V22.9078H193.271V16.5675Z" fill="white"/>
</svg>
