<svg width="154" height="30" viewBox="0 0 154 30" fill="none" xmlns="http://www.w3.org/2000/svg">
<path fill-rule="evenodd" clip-rule="evenodd" d="M14.4832 22.816C10.1488 22.816 6.63544 19.3024 6.63544 14.9683C6.63544 10.6342 10.1488 7.12056 14.4832 7.12056V0.699707C6.60281 0.699707 0.2146 7.08791 0.2146 14.9683C0.2146 22.8487 6.60281 29.2369 14.4832 29.2369C22.3634 29.2369 28.7518 22.8487 28.7518 14.9683H22.3309C22.3309 19.3024 18.8173 22.816 14.4832 22.816Z" fill="white"/>
<path fill-rule="evenodd" clip-rule="evenodd" d="M14.4832 14.9676H22.3309V7.11987H14.4832V14.9676Z" fill="white"/>
<path fill-rule="evenodd" clip-rule="evenodd" d="M75.656 5.64062H72.3667V9.1804H70.3951V12.2848H72.3667V20.4083C72.3667 21.2474 72.4721 21.9532 72.681 22.5071C72.887 23.0551 73.202 23.4841 73.5764 23.8193C73.9559 24.159 74.4014 24.4242 74.9289 24.5746C75.4652 24.7253 76.0569 24.784 76.6826 24.784C77.33 24.784 77.9074 24.7169 78.3998 24.5838C78.8574 24.4611 79.2959 24.2871 79.7035 24.0665V21.565C79.0546 21.8455 78.4481 21.9474 77.7561 21.9794C77.0254 22.0134 76.5932 21.8046 76.2335 21.4624C75.8564 21.1034 75.656 20.6352 75.656 19.8502V12.2848H79.7035V9.1804H75.656V5.64062Z" fill="white"/>
<path fill-rule="evenodd" clip-rule="evenodd" d="M42.465 13.787V17.4472H47.4144C47.1558 18.4931 46.6451 19.4304 45.9124 20.1792C44.8073 21.3084 43.275 21.9304 41.5977 21.9304C38.1165 21.9304 35.2845 19.0983 35.2845 15.6172C35.2845 12.1361 38.1165 9.30379 41.5977 9.30379C43.462 9.30379 45.1762 10.1017 46.3646 11.4779L49.1982 9.16253C47.3194 6.96071 44.5318 5.64331 41.5977 5.64331C36.0982 5.64331 31.6242 10.1178 31.6242 15.6172C31.6242 21.1166 36.0982 25.5907 41.5977 25.5907C44.2676 25.5907 46.8281 24.4946 48.5284 22.7899C50.0534 21.261 51.0394 19.0935 51.232 16.9368C51.3259 15.8842 51.3341 14.8398 51.279 13.787H42.465Z" fill="white"/>
<path fill-rule="evenodd" clip-rule="evenodd" d="M84.3066 15.0754C84.9831 13.2813 86.7153 12.0048 88.7461 12.0048C90.777 12.0048 92.5089 13.2813 93.1857 15.0754H84.3066ZM88.7461 8.71338C84.3091 8.71338 80.7108 12.311 80.7108 16.7489C80.7108 21.1865 84.3091 24.7841 88.7461 24.7841C91.7907 24.7841 94.4398 23.091 95.8037 20.5955L92.8341 19.1551C92.0092 20.5537 90.4877 21.4927 88.7461 21.4927C86.5461 21.4927 84.696 19.9948 84.1597 17.9633H93.3323L93.3313 17.9686H96.6908C96.7514 17.5708 96.783 17.1635 96.783 16.7489C96.783 12.311 93.1848 8.71338 88.7461 8.71338Z" fill="white"/>
<path fill-rule="evenodd" clip-rule="evenodd" d="M60.4952 21.4937C57.8747 21.4937 55.7507 19.3695 55.7507 16.7492C55.7507 14.1287 57.8747 12.0047 60.4952 12.0047C63.1155 12.0047 65.2397 14.1287 65.2397 16.7492C65.2397 19.3695 63.1155 21.4937 60.4952 21.4937ZM65.2402 10.2796C63.9105 9.30464 62.2705 8.72754 60.4952 8.72754C56.058 8.72754 52.461 12.3247 52.461 16.7619C52.461 21.199 56.058 24.796 60.4952 24.796C62.2705 24.796 63.9105 24.2192 65.2402 23.2442V24.3557H68.5293V9.16787H65.2402V10.2796Z" fill="white"/>
<path fill-rule="evenodd" clip-rule="evenodd" d="M114.81 15.3973C115.681 15.3973 116.435 15.0975 117.071 14.498C117.653 13.8984 117.943 13.1355 117.943 12.2088C117.943 11.5734 117.825 11.0193 117.589 10.5466C116.935 9.51125 116.008 8.99337 114.81 8.99337H109.932V15.3973H114.81ZM109.932 24.7986H106.58V5.72339H114.81C115.845 5.72339 116.808 5.9507 117.698 6.40465C120.133 7.51305 121.349 9.4205 121.349 12.1272C121.349 14.1438 120.65 15.7426 119.252 16.9234C118.016 18.0861 116.535 18.6672 114.81 18.6672H109.932V24.7986Z" fill="white"/>
<path fill-rule="evenodd" clip-rule="evenodd" d="M130.015 22.2912C131.25 22.2912 132.3 21.8551 133.162 20.9831C134.026 20.1111 134.457 19.0667 134.457 17.8493C134.457 16.6142 134.026 15.565 133.162 14.7019C132.3 13.8394 131.25 13.4075 130.015 13.4075C128.799 13.4075 127.758 13.8394 126.895 14.7019C126.033 15.565 125.601 16.6142 125.601 17.8493C125.601 19.0667 126.033 20.1111 126.895 20.9831C127.758 21.8551 128.799 22.2912 130.015 22.2912ZM130.015 25.2343C127.981 25.2343 126.241 24.512 124.797 23.0679C123.353 21.6236 122.631 19.8843 122.631 17.8493C122.631 15.7967 123.353 14.0479 124.797 12.6037C126.241 11.1594 127.981 10.4373 130.015 10.4373C131.705 10.4373 133.186 10.9372 134.457 11.9359V10.9006H137.428V24.7981H134.457V23.7626C133.186 24.7438 131.705 25.2343 130.015 25.2343Z" fill="white"/>
<path fill-rule="evenodd" clip-rule="evenodd" d="M143.068 28.9406C141.906 28.9406 140.815 28.6587 139.799 28.0957L140.862 25.7249C141.442 26.07 142.07 26.2428 142.741 26.2428C143.613 26.2428 144.267 25.7067 144.703 24.6351L144.731 24.6078L139.008 10.9009H142.224L146.23 20.5202L149.8 10.9009H153.124L147.646 25.0436C147.102 26.4424 146.483 27.4417 145.794 28.0413C145.103 28.6408 144.194 28.9406 143.068 28.9406Z" fill="white"/>
</svg>
