<svg width="168" height="37" viewBox="0 0 168 37" fill="none" xmlns="http://www.w3.org/2000/svg">
<path fill-rule="evenodd" clip-rule="evenodd" d="M22.4307 17.9109C27.8506 17.9109 32.3778 16.9899 33.4795 15.7619C32.5467 14.7197 29.1452 13.8957 24.8271 13.6775V16.2709C24.0229 16.3113 23.2188 16.3355 22.4147 16.3355C21.6105 16.3355 20.8064 16.3355 20.0023 16.2709V13.6775C15.6921 13.8957 12.2907 14.7197 11.3498 15.7619C12.4836 16.9576 17.0109 17.9109 22.4307 17.9109ZM32.0803 5.68744V9.26642H24.8431V11.7467C29.9252 12.0052 33.6886 13.0958 33.7609 14.4046V17.1272C33.7609 18.428 29.9252 19.5509 24.8431 19.7852V25.8444H20.0184V19.7852C14.9443 19.5186 11.1729 18.428 11.1086 17.1272V14.4046C11.1086 13.0958 14.9443 11.9809 20.0184 11.7467V9.26642H12.7812V5.68744H32.0803ZM9.95868 -0.00822499H35.337C35.6295 -0.0109887 35.9177 0.0618749 36.174 0.203361C36.4303 0.344847 36.6461 0.550198 36.8006 0.799671L44.1905 13.5887C44.3849 13.9064 44.4639 14.282 44.4141 14.6516C44.3642 15.0212 44.1886 15.3621 43.9171 15.6165L23.5646 35.5392C23.4068 35.6994 23.2189 35.8266 23.0119 35.9135C22.8049 36.0003 22.5827 36.045 22.3584 36.045C22.134 36.045 21.9119 36.0003 21.7049 35.9135C21.4978 35.8266 21.31 35.6994 21.1522 35.5392L0.863959 15.6407C0.594344 15.3759 0.422696 15.0267 0.377373 14.6506C0.332049 14.2746 0.41576 13.8943 0.614678 13.5725L8.51928 0.799671C8.67162 0.553694 8.88357 0.350558 9.1353 0.209266C9.38703 0.067974 9.67033 -0.00685645 9.95868 -0.00822499Z" fill="white"/>
<path d="M54.0977 6.90739L59.9678 6.25299V11.9083H65.058V16.8122H59.9276V24.4226C59.9276 26.2269 60.6862 27.129 62.2033 27.129C63.0345 27.1543 63.8603 26.9856 64.6157 26.6362L65.9586 31.5482C64.6024 32.0715 63.1719 32.3742 61.7208 32.445C60.7191 32.5533 59.706 32.4613 58.7399 32.1743C57.7738 31.8873 56.8738 31.4109 56.0919 30.7726C54.741 29.5123 54.0574 27.4037 54.0574 24.4226V16.8122H50.5112V11.9083H54.0977V6.90739Z" fill="white"/>
<path d="M72.2226 19.5184H81.7516C81.7405 19.0274 81.599 18.5482 81.3417 18.1306C81.0844 17.713 80.7206 17.3721 80.288 17.1432C79.2788 16.5452 78.1221 16.2456 76.9509 16.2787C75.8814 16.2505 74.829 16.5522 73.9354 17.1432C73.1005 17.704 72.4929 18.5466 72.2226 19.5184ZM87.0106 23.8164H72.2226C72.3089 24.3388 72.5021 24.8376 72.79 25.2812C73.0779 25.7248 73.4542 26.1036 73.8952 26.3936C75.0299 27.0976 76.3507 27.4386 77.6827 27.3711C79.5571 27.4851 81.409 26.9109 82.8934 25.7554L86.1984 29.4394C84.1934 31.4429 81.3146 32.4447 77.562 32.4447C73.9756 32.4447 71.1906 31.4779 69.2071 29.5444C67.2236 27.6108 66.256 24.9905 66.3042 21.6836C66.245 20.2959 66.4715 18.9109 66.9696 17.6153C67.4677 16.3197 68.2267 15.1413 69.1991 14.154C71.129 12.215 73.7237 11.2455 76.9831 11.2455C80.5373 11.2455 83.2526 12.3389 85.1289 14.5256C87.0052 16.7123 87.6324 19.8092 87.0106 23.8164Z" fill="white"/>
<path d="M91.9 6.90739L97.7621 6.25299V11.9083H102.86V16.8122H97.7219V24.4226C97.7219 26.2269 98.4832 27.129 100.006 27.129C100.837 27.1543 101.663 26.9856 102.418 26.6362L103.761 31.5482C102.405 32.0715 100.974 32.3742 99.5232 32.445C98.5215 32.5542 97.5081 32.4627 96.5419 32.1756C95.5756 31.8885 94.6757 31.4117 93.8942 30.7726C92.5353 29.5123 91.8598 27.4037 91.8598 24.4226V16.8122H88.2734V11.9083H91.8598L91.9 6.90739Z" fill="white"/>
<path d="M105.996 3.35236H111.898V14.2751C112.613 13.3433 113.543 12.6 114.608 12.1088C115.672 11.6177 116.84 11.3935 118.009 11.4556C123.37 11.4556 126.051 14.6871 126.051 21.1503V32.0003H120.18V21.1907C120.256 20.0175 119.879 18.8602 119.127 17.9591C118.775 17.5767 118.345 17.2759 117.866 17.0778C117.387 16.8796 116.87 16.7889 116.353 16.8119C115.755 16.7977 115.161 16.9073 114.608 17.1338C114.055 17.3604 113.554 17.6991 113.136 18.1288C112.696 18.6204 112.358 19.195 112.141 19.8191C111.925 20.4433 111.834 21.1045 111.874 21.7643V32.0003H106.012L105.996 3.35236Z" fill="white"/>
<path d="M134.253 19.5185H143.782C143.769 19.0281 143.626 18.5499 143.369 18.1328C143.112 17.7156 142.749 17.3742 142.319 17.1433C141.307 16.5443 140.147 16.2446 138.973 16.2789C137.906 16.2508 136.857 16.5525 135.966 17.1433C135.131 17.7042 134.523 18.5467 134.253 19.5185ZM149.041 23.8165H134.253C134.339 24.339 134.533 24.8377 134.82 25.2813C135.108 25.7249 135.485 26.1037 135.926 26.3937C137.06 27.0978 138.381 27.4387 139.713 27.3713C141.588 27.4853 143.439 26.911 144.924 25.7555L148.221 29.4395C146.211 31.4269 143.34 32.4206 139.585 32.4206C136.006 32.4206 133.216 31.4592 131.238 29.5203C129.259 27.5813 128.303 24.9637 128.303 21.6595C128.243 20.2718 128.47 18.8868 128.968 17.5912C129.466 16.2955 130.225 15.1172 131.197 14.1299C133.127 12.1909 135.719 11.2214 138.973 11.2214C142.538 11.2214 145.256 12.3148 147.127 14.5015C148.998 16.6882 149.636 19.7932 149.041 23.8165Z" fill="white"/>
<path d="M151.47 11.8193H156.93L157.38 14.033C157.971 13.1569 158.774 12.4464 159.714 11.9686C160.654 11.4909 161.699 11.2615 162.752 11.3023C164.567 11.2665 166.327 11.9217 167.681 13.1362L165.269 17.8058C164.333 17.1281 163.206 16.7686 162.052 16.7798C160.817 16.7459 159.619 17.2015 158.715 18.0482C158.26 18.4836 157.904 19.0133 157.672 19.6006C157.44 20.1878 157.338 20.8186 157.372 21.4495V31.9521H151.502L151.47 11.8193Z" fill="white"/>
</svg>
