<svg width="147" height="36" viewBox="0 0 147 36" fill="none" xmlns="http://www.w3.org/2000/svg">
<g clip-path="url(#clip0_96_487)">
<path fill-rule="evenodd" clip-rule="evenodd" d="M22.4516 17.8598C27.7516 17.8598 32.1831 16.9671 33.2644 15.7737C32.3464 14.7627 29.0209 13.9638 24.7972 13.7468V16.2693C24.0425 16.3088 23.2557 16.3285 22.4516 16.3285C21.6474 16.3285 20.8606 16.3088 20.1034 16.2693V13.7468C15.8822 13.9662 12.5567 14.7627 11.6363 15.7737C12.72 16.9671 17.1516 17.8598 22.4516 17.8598ZM31.8688 5.99419V9.46608H24.7972V11.8727C29.7632 12.1292 33.492 13.187 33.5192 14.4545V17.0954C33.492 18.3628 29.7632 19.4182 24.7972 19.6746V25.5827H20.1009V19.6746C15.135 19.4182 11.4086 18.3603 11.3814 17.0954V14.4545C11.4086 13.187 15.135 12.1292 20.1009 11.8727V9.46608H13.0293V5.99419H31.8688ZM10.2531 0.468262H35.078C35.6719 0.468262 36.2187 0.778956 36.5131 1.28445L43.7456 13.6605C44.1192 14.3016 44.0079 15.1128 43.4734 15.6331L23.5675 34.9997C22.9217 35.6261 21.8849 35.6261 21.2391 34.9997L1.35794 15.6578C0.811114 15.1252 0.709667 14.2917 1.11051 13.6457L8.8403 1.245C9.14217 0.761696 9.67662 0.468262 10.2507 0.468262H10.2531Z" fill="white"/>
<path d="M64.7773 30.8521C62.6815 30.8521 60.8456 30.5094 59.2719 29.8239C57.7007 29.1384 56.4809 28.083 55.6198 26.6553C54.7588 25.2275 54.3257 23.4102 54.3257 21.2058V6.99519C54.3257 6.73875 54.4074 6.53162 54.5707 6.36887C54.734 6.20613 54.9419 6.12476 55.1992 6.12476H59.7074C59.9623 6.12476 60.1726 6.20613 60.3359 6.36887C60.4992 6.53162 60.5808 6.74121 60.5808 6.99519V21.1688C60.5808 22.6779 60.947 23.8097 61.6819 24.5642C62.4168 25.3188 63.4461 25.6961 64.7748 25.6961C66.1035 25.6961 67.0982 25.3188 67.8331 24.5642C68.568 23.8097 68.9342 22.6779 68.9342 21.1688V6.99519C68.9342 6.73875 69.0208 6.53162 69.1964 6.36887C69.3721 6.20613 69.575 6.12476 69.8076 6.12476H74.3505C74.583 6.12476 74.7884 6.20613 74.9616 6.36887C75.1373 6.53162 75.2239 6.74121 75.2239 6.99519V21.2033C75.2239 23.4102 74.7934 25.2251 73.9298 26.6528C73.0688 28.0805 71.8563 29.1384 70.295 29.8214C68.7337 30.5044 66.8928 30.8496 64.7723 30.8496L64.7773 30.8521Z" fill="white"/>
<path d="M88.9935 30.8523C86.6627 30.8523 84.7302 30.5219 83.1937 29.8586C81.6571 29.1978 80.4917 28.3322 79.6999 27.2645C78.9081 26.1968 78.4875 25.0601 78.4405 23.8518C78.4405 23.6669 78.5172 23.4968 78.6681 23.3463C78.8191 23.1959 78.9997 23.1195 79.21 23.1195H83.6143C83.9409 23.1195 84.1908 23.1787 84.3665 23.2946C84.5422 23.4104 84.6981 23.5609 84.8391 23.7483C85.0247 24.096 85.2869 24.4338 85.6259 24.7593C85.9624 25.0847 86.4053 25.3461 86.9546 25.5434C87.5015 25.7407 88.1844 25.8393 88.9984 25.8393C90.3494 25.8393 91.3688 25.6297 92.0567 25.213C92.7446 24.7962 93.0885 24.2266 93.0885 23.5066C93.0885 22.9962 92.9004 22.5721 92.5293 22.2342C92.1557 21.8989 91.5569 21.5956 90.7305 21.3293C89.904 21.063 88.803 20.7893 87.4272 20.5106C85.6556 20.1408 84.1488 19.6575 82.9017 19.0657C81.6546 18.4739 80.7045 17.6971 80.0538 16.733C79.4005 15.7688 79.0764 14.568 79.0764 13.1279C79.0764 11.6879 79.4772 10.4476 80.2814 9.33302C81.0855 8.21847 82.2089 7.34803 83.6539 6.72171C85.0989 6.09539 86.8111 5.78223 88.7906 5.78223C90.3989 5.78223 91.8142 5.99182 93.0365 6.40855C94.2589 6.82774 95.2906 7.38255 96.1294 8.08038C96.9682 8.77575 97.6017 9.51549 98.0347 10.2922C98.4652 11.0714 98.6928 11.8309 98.7151 12.5731C98.7151 12.7605 98.6458 12.9282 98.5048 13.0786C98.3662 13.229 98.1905 13.3055 97.9802 13.3055H93.3681C93.1108 13.3055 92.8906 13.2586 92.705 13.1649C92.5169 13.0712 92.3561 12.9208 92.2151 12.7112C92.074 12.2008 91.7078 11.7545 91.114 11.3698C90.5201 10.9876 89.7457 10.7953 88.7906 10.7953C87.7662 10.7953 86.967 10.9753 86.3979 11.3353C85.8264 11.6953 85.5418 12.2452 85.5418 12.9898C85.5418 13.4559 85.7002 13.8603 86.0144 14.208C86.3286 14.5557 86.8532 14.8589 87.5856 15.1129C88.3205 15.3694 89.3275 15.6357 90.6092 15.9143C92.7297 16.3089 94.4419 16.802 95.7459 17.3938C97.0499 17.9856 98.005 18.7525 98.6112 19.692C99.2174 20.6315 99.5193 21.8101 99.5193 23.2255C99.5193 24.8061 99.0714 26.1697 98.1732 27.3163C97.275 28.4654 96.0354 29.3432 94.4519 29.9474C92.8683 30.5515 91.0497 30.8523 89.0009 30.8523H88.9935Z" fill="white"/>
<path d="M103.881 30.502C103.624 30.502 103.416 30.4206 103.253 30.2578C103.09 30.0951 103.008 29.888 103.008 29.6315V6.99519C103.008 6.73875 103.09 6.53162 103.253 6.36887C103.416 6.20613 103.627 6.12476 103.881 6.12476H112.967C115.251 6.12476 117.196 6.4897 118.804 7.22205C120.412 7.95194 121.647 9.02211 122.508 10.4252C123.369 11.8307 123.837 13.5666 123.906 15.6305C123.928 16.6514 123.941 17.5465 123.941 18.3109C123.941 19.0753 123.928 19.9605 123.906 20.9567C123.812 23.1168 123.352 24.9045 122.526 26.3199C121.699 27.7353 120.499 28.7882 118.925 29.4712C117.352 30.1567 115.424 30.4995 113.143 30.4995H103.881V30.502ZM109.263 25.4865H112.967C113.969 25.4865 114.801 25.3286 115.466 25.0155C116.129 24.7023 116.632 24.2092 116.968 23.536C117.305 22.8628 117.485 21.98 117.51 20.8901C117.557 20.217 117.584 19.6128 117.597 19.0802C117.609 18.5476 117.609 18.0125 117.597 17.4774C117.584 16.9424 117.555 16.3506 117.51 15.702C117.463 14.1239 117.05 12.9674 116.27 12.2375C115.489 11.5077 114.331 11.1403 112.794 11.1403H109.266V25.4889L109.263 25.4865Z" fill="white"/>
<path d="M134.284 30.502C134.026 30.502 133.816 30.4206 133.655 30.2578C133.492 30.0951 133.41 29.888 133.41 29.6315V11.5915H127.19C126.932 11.5915 126.724 11.5052 126.561 11.3301C126.398 11.155 126.316 10.9529 126.316 10.7211V6.99519C126.316 6.73875 126.398 6.53162 126.561 6.36887C126.724 6.20613 126.932 6.12476 127.19 6.12476H145.99C146.247 6.12476 146.455 6.20613 146.618 6.36887C146.781 6.53162 146.863 6.74121 146.863 6.99519V10.7211C146.863 10.9529 146.781 11.1575 146.618 11.3301C146.455 11.5052 146.244 11.5915 145.99 11.5915H139.769V29.6315C139.769 29.888 139.687 30.0951 139.524 30.2578C139.361 30.4206 139.151 30.502 138.896 30.502H134.284ZM129.775 19.9507C129.543 19.9753 129.337 19.8989 129.164 19.7238C128.991 19.5487 128.902 19.3342 128.902 19.0802V17.4084C128.902 17.1766 128.988 16.9793 129.164 16.8166C129.34 16.6539 129.543 16.5602 129.775 16.538L143.58 14.8316C143.812 14.8094 144.018 14.8908 144.191 15.0757C144.364 15.2607 144.453 15.4703 144.453 15.702V17.3739C144.453 17.6303 144.366 17.8325 144.191 17.9829C144.015 18.1334 143.812 18.2221 143.58 18.2443L129.775 19.9507ZM129.775 25.2103C129.543 25.2349 129.337 25.1536 129.164 24.9662C128.991 24.7788 128.902 24.5593 128.902 24.3053V22.668C128.902 22.414 128.988 22.2094 129.164 22.059C129.34 21.9085 129.543 21.8222 129.775 21.7976L143.58 20.0912C143.812 20.0444 144.018 20.1159 144.191 20.3008C144.366 20.4882 144.453 20.7077 144.453 20.9617V22.6335C144.453 22.8653 144.366 23.0576 144.191 23.208C144.015 23.3584 143.812 23.4571 143.58 23.5039L129.775 25.2103Z" fill="white"/>
</g>
<defs>
<clipPath id="clip0_96_487">
<rect width="146" height="35" fill="white" transform="translate(0.865479 0.468262)"/>
</clipPath>
</defs>
</svg>
