<svg width="125" height="40" viewBox="0 0 125 40" fill="none" xmlns="http://www.w3.org/2000/svg">
<path d="M119.9 39.24C118.719 39.24 117.799 39.0577 117.139 38.6931C116.479 38.3284 116.054 37.7901 115.863 37.0782C115.672 36.3489 115.689 35.446 115.915 34.3694L117.191 28.457H115.134C114.96 28.457 114.821 28.3962 114.717 28.2746C114.63 28.1531 114.604 28.0055 114.639 27.8318L114.951 26.3212C114.986 26.1475 115.073 25.9999 115.212 25.8784C115.368 25.7568 115.542 25.6961 115.733 25.6961H117.764L118.702 21.3724C118.737 21.1988 118.823 21.0512 118.962 20.9296C119.101 20.8081 119.258 20.7473 119.431 20.7473H121.541C121.732 20.7473 121.871 20.8081 121.958 20.9296C122.062 21.0512 122.097 21.1988 122.062 21.3724L121.124 25.6961H124.38C124.554 25.6961 124.684 25.7568 124.771 25.8784C124.875 25.9999 124.91 26.1475 124.875 26.3212L124.562 27.8318C124.528 28.0055 124.432 28.1531 124.276 28.2746C124.137 28.3962 123.981 28.457 123.807 28.457H120.551L119.353 34.109C119.249 34.5778 119.188 34.9858 119.171 35.3331C119.171 35.663 119.266 35.9235 119.457 36.1145C119.648 36.2881 119.987 36.375 120.473 36.375H122.348C122.539 36.375 122.678 36.4357 122.765 36.5573C122.852 36.6788 122.878 36.8264 122.843 37.0001L122.505 38.6149C122.47 38.7886 122.383 38.9362 122.244 39.0577C122.105 39.1793 121.94 39.24 121.749 39.24H119.9Z" fill="white"/>
<path d="M105.176 39.5004C103.908 39.5004 102.849 39.2486 101.998 38.7451C101.165 38.2415 100.583 37.5122 100.253 36.5572C99.9407 35.6022 99.8973 34.4475 100.123 33.0931C100.158 32.9195 100.201 32.7024 100.253 32.4419C100.305 32.1641 100.357 31.9471 100.41 31.7908C100.757 30.4885 101.295 29.3598 102.024 28.4048C102.754 27.4498 103.639 26.7205 104.681 26.2169C105.74 25.696 106.904 25.4355 108.171 25.4355C109.578 25.4355 110.689 25.7307 111.505 26.3211C112.321 26.8941 112.86 27.7016 113.12 28.7434C113.398 29.7679 113.407 30.9573 113.146 32.3117L113.016 32.8587C112.981 33.0323 112.886 33.1799 112.729 33.3015C112.59 33.423 112.425 33.4838 112.234 33.4838H103.587C103.587 33.4838 103.579 33.5098 103.561 33.5619C103.561 33.614 103.552 33.6574 103.535 33.6922C103.448 34.2999 103.457 34.8642 103.561 35.3851C103.665 35.8887 103.891 36.2968 104.238 36.6093C104.603 36.9219 105.081 37.0781 105.671 37.0781C106.157 37.0781 106.582 37.0087 106.947 36.8698C107.312 36.7135 107.607 36.5399 107.833 36.3489C108.076 36.1578 108.258 36.0016 108.38 35.88C108.588 35.6717 108.744 35.5501 108.849 35.5154C108.953 35.4633 109.1 35.4372 109.291 35.4372H111.557C111.714 35.4372 111.835 35.4893 111.922 35.5935C112.009 35.6977 112.035 35.8279 112 35.9842C111.913 36.262 111.696 36.6006 111.349 37C111.002 37.3994 110.533 37.7901 109.942 38.1721C109.352 38.5541 108.649 38.8753 107.833 39.1358C107.034 39.3789 106.148 39.5004 105.176 39.5004ZM104.056 31.2959H109.812L109.838 31.2178C110.012 30.5406 110.029 29.9502 109.89 29.4466C109.769 28.9431 109.517 28.5437 109.135 28.2485C108.753 27.9533 108.267 27.8057 107.676 27.8057C107.069 27.8057 106.522 27.9533 106.036 28.2485C105.549 28.5437 105.141 28.9431 104.811 29.4466C104.481 29.9502 104.238 30.5406 104.082 31.2178L104.056 31.2959Z" fill="white"/>
<path d="M93.0477 39.24C92.8741 39.24 92.7352 39.1793 92.631 39.0577C92.5442 38.9362 92.5181 38.7886 92.5528 38.6149L96.2253 21.3724C96.2601 21.1988 96.3469 21.0512 96.4858 20.9296C96.6247 20.8081 96.781 20.7473 96.9546 20.7473H99.1165C99.3075 20.7473 99.4464 20.8081 99.5332 20.9296C99.6374 21.0512 99.6721 21.1988 99.6374 21.3724L95.9649 38.6149C95.9302 38.7886 95.8433 38.9362 95.7044 39.0577C95.5655 39.1793 95.4006 39.24 95.2095 39.24H93.0477Z" fill="white"/>
<path d="M86.415 39.24C86.2414 39.24 86.1025 39.1793 85.9983 39.0577C85.9115 38.9362 85.8854 38.7886 85.9202 38.6149L89.5927 21.3724C89.6274 21.1988 89.7142 21.0512 89.8531 20.9296C89.992 20.8081 90.1483 20.7473 90.3219 20.7473H92.4838C92.6748 20.7473 92.8137 20.8081 92.9005 20.9296C93.0047 21.0512 93.0394 21.1988 93.0047 21.3724L89.3322 38.6149C89.2975 38.7886 89.2106 38.9362 89.0717 39.0577C88.9328 39.1793 88.7679 39.24 88.5769 39.24H86.415Z" fill="white"/>
<path d="M75.3337 39.5004C74.4307 39.5004 73.6667 39.3528 73.0416 39.0576C72.4165 38.7451 71.9216 38.311 71.557 37.7553C71.2097 37.1997 70.984 36.5485 70.8798 35.8019C70.7756 35.0379 70.793 34.2044 70.9319 33.3015C71.0013 32.9889 71.0621 32.7111 71.1142 32.468C71.1663 32.2075 71.2271 31.921 71.2965 31.6085C71.5223 30.7403 71.8174 29.9328 72.1821 29.1862C72.5641 28.4395 73.0242 27.7884 73.5625 27.2327C74.1182 26.6597 74.7606 26.2169 75.4899 25.9044C76.2366 25.5918 77.0874 25.4355 78.0425 25.4355C79.119 25.4355 79.9351 25.6092 80.4908 25.9565C81.0638 26.2864 81.5066 26.6944 81.8191 27.1806L82.0015 26.3211C82.0362 26.1475 82.123 25.9999 82.2619 25.8783C82.4008 25.7568 82.5571 25.696 82.7307 25.696H84.7884C84.962 25.696 85.1009 25.7568 85.2051 25.8783C85.3093 25.9999 85.344 26.1475 85.3093 26.3211L82.6787 38.6149C82.6439 38.7885 82.5571 38.9361 82.4182 39.0576C82.2793 39.1792 82.123 39.24 81.9494 39.24H79.8917C79.7007 39.24 79.5531 39.1792 79.4489 39.0576C79.3621 38.9361 79.3361 38.7885 79.3708 38.6149L79.5792 37.6512C79.0582 38.1894 78.4852 38.6322 77.8601 38.9795C77.235 39.3268 76.3929 39.5004 75.3337 39.5004ZM76.5057 36.7135C77.235 36.7135 77.8601 36.5485 78.3811 36.2186C78.902 35.8887 79.3187 35.472 79.6313 34.9684C79.9612 34.4475 80.1956 33.9179 80.3345 33.3796C80.4213 33.067 80.4995 32.7371 80.5689 32.3898C80.6384 32.0252 80.6992 31.6866 80.7512 31.3741C80.8554 30.8531 80.8554 30.3583 80.7512 29.8894C80.6644 29.4032 80.4474 29.0039 80.1001 28.6913C79.7528 28.3788 79.2232 28.2225 78.5113 28.2225C77.8341 28.2225 77.2524 28.3874 76.7662 28.7174C76.2974 29.0299 75.9067 29.4466 75.5941 29.9676C75.2816 30.4885 75.0298 31.0615 74.8388 31.6866C74.7693 31.9471 74.7086 32.2075 74.6565 32.468C74.6044 32.7284 74.561 32.9889 74.5262 33.2494C74.4394 33.8745 74.4134 34.4475 74.4481 34.9684C74.5002 35.4893 74.6825 35.9148 74.9951 36.2447C75.325 36.5572 75.8285 36.7135 76.5057 36.7135Z" fill="white"/>
<path d="M52.7358 39.2401C52.4753 39.2401 52.2756 39.1706 52.1367 39.0317C52.0152 38.8754 51.9631 38.6844 51.9804 38.4587L52.319 21.5808C52.3364 21.4245 52.3972 21.2943 52.5014 21.1901C52.6229 21.0686 52.7705 21.0078 52.9441 21.0078H55.158C55.3838 21.0078 55.5487 21.0599 55.6529 21.1641C55.7571 21.2683 55.8005 21.4159 55.7832 21.6069L55.4966 33.1453L59.4296 25.6961C59.4991 25.5572 59.6119 25.4183 59.7682 25.2794C59.9245 25.1231 60.1328 25.045 60.3933 25.045H61.7998C62.0776 25.045 62.2599 25.1231 62.3468 25.2794C62.4336 25.4183 62.4857 25.5572 62.503 25.6961L63.3105 33.3016L67.9727 21.5287C68.1116 21.1815 68.3895 21.0078 68.8062 21.0078H71.1764C71.3848 21.0078 71.515 21.0773 71.5671 21.2162C71.6365 21.3377 71.6365 21.494 71.5671 21.685L65.0556 38.4587C64.9687 38.6844 64.8298 38.8754 64.6388 39.0317C64.4652 39.1706 64.2481 39.2401 63.9877 39.2401H62.1384C61.8779 39.2401 61.6869 39.1706 61.5654 39.0317C61.4438 38.8928 61.3744 38.7452 61.357 38.5889L60.1329 29.9156L55.5748 38.5889C55.488 38.7452 55.3577 38.8928 55.1841 39.0317C55.0105 39.1706 54.7934 39.2401 54.5329 39.2401H52.7358Z" fill="white"/>
<path d="M80.4066 14.5083C80.2909 14.5083 80.1982 14.4678 80.1288 14.3868C80.0709 14.3057 80.0535 14.2073 80.0767 14.0916L81.8131 5.91311C81.8363 5.78577 81.8941 5.68158 81.9867 5.60055C82.0909 5.51952 82.2009 5.479 82.3167 5.479H83.7231C83.8389 5.479 83.9257 5.51952 83.9836 5.60055C84.0531 5.68158 84.0762 5.78577 84.0531 5.91311L83.8968 6.62503C84.1746 6.2546 84.5277 5.97099 84.956 5.77419C85.3843 5.5774 85.9052 5.479 86.5188 5.479H87.3696C87.4969 5.479 87.5895 5.51952 87.6474 5.60055C87.7053 5.68158 87.7227 5.77998 87.6995 5.89574L87.4391 7.14595C87.4159 7.26171 87.3522 7.36011 87.248 7.44114C87.1554 7.52217 87.0513 7.56269 86.9355 7.56269H85.5811C85.0254 7.56269 84.5566 7.71897 84.1746 8.03152C83.8042 8.34407 83.5611 8.77239 83.4453 9.31646L82.4208 14.0916C82.3977 14.2073 82.3398 14.3057 82.2472 14.3868C82.1546 14.4678 82.0446 14.5083 81.9173 14.5083H80.4066Z" fill="white"/>
<path d="M72.8512 14.682C72.0988 14.682 71.4852 14.5257 71.0106 14.2131C70.536 13.889 70.2176 13.4375 70.0556 12.8587C69.9051 12.2683 69.9109 11.5738 70.0729 10.775L71.1148 5.89574C71.1379 5.77998 71.1958 5.68158 71.2884 5.60055C71.3926 5.51952 71.5026 5.479 71.6183 5.479H73.1464C73.2621 5.479 73.349 5.51952 73.4068 5.60055C73.4647 5.68158 73.4821 5.77998 73.4589 5.89574L72.4518 10.6709C72.3476 11.1455 72.3129 11.5448 72.3476 11.869C72.3939 12.1815 72.5271 12.4188 72.747 12.5809C72.967 12.743 73.3084 12.824 73.7715 12.824C74.3966 12.824 74.9407 12.633 75.4037 12.251C75.8668 11.869 76.1677 11.3423 76.3066 10.6709L77.3311 5.89574C77.3543 5.77998 77.4122 5.68158 77.5048 5.60055C77.6089 5.51952 77.7189 5.479 77.8347 5.479H79.3454C79.4727 5.479 79.5653 5.51952 79.6232 5.60055C79.6811 5.68158 79.6984 5.77998 79.6753 5.89574L77.9389 14.0916C77.9157 14.2073 77.8578 14.3057 77.7652 14.3868C77.6726 14.4678 77.5626 14.5083 77.4353 14.5083H76.0288C75.9131 14.5083 75.8205 14.4678 75.751 14.3868C75.6931 14.3057 75.6757 14.2073 75.6989 14.0916L75.8378 13.3796C75.5831 13.6459 75.3169 13.8774 75.0391 14.0742C74.7728 14.271 74.4661 14.4215 74.1188 14.5257C73.7831 14.6299 73.3605 14.682 72.8512 14.682Z" fill="white"/>
<path d="M63.3393 14.682C62.4596 14.682 61.7245 14.5199 61.1341 14.1958C60.5553 13.8717 60.1386 13.4144 59.8839 12.8241C59.6408 12.2337 59.5829 11.5449 59.7103 10.7577C59.745 10.5494 59.7913 10.2947 59.8492 9.99371C59.9186 9.69274 59.9823 9.43806 60.0402 9.2297C60.2485 8.43095 60.5669 7.74218 60.9952 7.16337C61.4351 6.573 61.9907 6.11574 62.6621 5.79161C63.3451 5.46748 64.1497 5.30542 65.0757 5.30542C65.9555 5.30542 66.6848 5.46748 67.2636 5.79161C67.854 6.11574 68.2765 6.573 68.5312 7.16337C68.7859 7.74218 68.8495 8.43095 68.7222 9.2297C68.6759 9.43806 68.6238 9.69274 68.5659 9.99371C68.508 10.2947 68.4502 10.5494 68.3923 10.7577C68.1839 11.5449 67.8656 12.2337 67.4373 12.8241C67.0205 13.4144 66.4707 13.8717 65.7877 14.1958C65.1163 14.5199 64.3001 14.682 63.3393 14.682ZM63.513 12.963C64.1381 12.963 64.6648 12.772 65.0931 12.39C65.533 11.9964 65.8513 11.4234 66.0481 10.6709C66.0944 10.4973 66.1465 10.2715 66.2044 9.99371C66.2623 9.71589 66.3086 9.49016 66.3433 9.31652C66.4707 8.57565 66.4186 8.00842 66.187 7.61484C65.9555 7.22125 65.5272 7.02446 64.9021 7.02446C64.2886 7.02446 63.7619 7.22125 63.322 7.61484C62.8821 8.00842 62.5695 8.57565 62.3843 9.31652C62.338 9.49016 62.2801 9.71589 62.2107 9.99371C62.1528 10.2715 62.1123 10.4973 62.0891 10.6709C61.9618 11.4234 62.0081 11.9964 62.228 12.39C62.4596 12.772 62.8879 12.963 63.513 12.963Z" fill="white"/>
<path d="M53.2306 14.5081C53.1148 14.5081 53.0222 14.4676 52.9527 14.3866C52.8949 14.3055 52.8775 14.2071 52.9006 14.0914L53.7167 10.1671L51.1642 2.90892C51.1179 2.78159 51.1353 2.66004 51.2163 2.54428C51.3089 2.41694 51.4305 2.35327 51.581 2.35327H53.0222C53.1611 2.35327 53.2653 2.388 53.3347 2.45746C53.4042 2.52691 53.4563 2.60216 53.491 2.68319L55.3142 7.71876L59.2906 2.68319C59.3369 2.60216 59.4122 2.52691 59.5163 2.45746C59.6205 2.388 59.7421 2.35327 59.881 2.35327H61.6C61.7852 2.35327 61.8836 2.41694 61.8952 2.54428C61.9184 2.67161 61.8836 2.79316 61.791 2.90892L56.1477 10.1671L55.2969 14.0914C55.2737 14.2071 55.2158 14.3055 55.1232 14.3866C55.0306 14.4676 54.9207 14.5081 54.7933 14.5081H53.2306Z" fill="white"/>
<path d="M33.6283 10.788H31.762V6.43313C31.762 4.94817 31.1721 3.52402 30.122 2.474C29.072 1.42397 27.6478 0.834067 26.1629 0.834067H8.9613C7.23345 0.817402 5.5603 1.43937 4.26289 2.58063C2.96548 3.72189 2.1352 5.30206 1.93136 7.01793C1.83661 7.96928 1.94392 8.92992 2.24625 9.83692C2.54859 10.7439 3.03913 11.5768 3.68574 12.281C4.32651 12.9858 5.10735 13.549 5.97828 13.9347C6.84921 14.3203 7.79106 14.5199 8.74356 14.5207H33.6283C34.1233 14.5207 34.598 14.7173 34.948 15.0673C35.298 15.4173 35.4947 15.892 35.4947 16.387V33.8064C35.4947 34.3013 35.298 34.7761 34.948 35.1261C34.598 35.4761 34.1233 35.6727 33.6283 35.6727H28.135C27.6571 35.6607 27.1916 35.8255 26.8277 36.1354C26.4638 36.4454 26.2271 36.8787 26.1629 37.3524C26.1367 37.6127 26.1656 37.8756 26.2476 38.1241C26.3296 38.3725 26.4629 38.6009 26.6389 38.7945C26.8149 38.9881 27.0296 39.1425 27.2691 39.2478C27.5086 39.353 27.7676 39.4067 28.0292 39.4054H33.6283C35.1133 39.4054 36.5374 38.8155 37.5874 37.7655C38.6375 36.7155 39.2274 35.2913 39.2274 33.8064V16.387C39.2274 14.9021 38.6375 13.4779 37.5874 12.4279C36.5374 11.3779 35.1133 10.788 33.6283 10.788ZM28.0292 10.788H8.85554C8.06788 10.8002 7.30341 10.5213 6.70872 10.0047C6.11403 9.48803 5.73096 8.77007 5.63297 7.98843C5.58936 7.55458 5.63745 7.1164 5.77413 6.70234C5.9108 6.28827 6.133 5.90756 6.42631 5.58492C6.71963 5.26228 7.0775 5.00491 7.4767 4.8295C7.87591 4.6541 8.30753 4.56459 8.74356 4.56678H26.1629C26.6579 4.56678 27.1326 4.76341 27.4826 5.11342C27.8326 5.46343 28.0292 5.93815 28.0292 6.43313V10.788Z" fill="white"/>
<path d="M28.6513 26.9632C29.6821 26.9632 30.5177 26.1276 30.5177 25.0968C30.5177 24.0661 29.6821 23.2305 28.6513 23.2305C27.6206 23.2305 26.785 24.0661 26.785 25.0968C26.785 26.1276 27.6206 26.9632 28.6513 26.9632Z" fill="white"/>
<path d="M2.52254 33.1841C3.67752 33.1841 4.78518 33.6429 5.60187 34.4596C6.41856 35.2763 6.87737 36.384 6.87737 37.539C6.87737 38.0339 7.07401 38.5087 7.42402 38.8587C7.77403 39.2087 8.24874 39.4053 8.74373 39.4053C9.23872 39.4053 9.71343 39.2087 10.0634 38.8587C10.4135 38.5087 10.6101 38.0339 10.6101 37.539C10.6101 35.394 9.75801 33.3369 8.2413 31.8202C6.72459 30.3035 4.66749 29.4514 2.52254 29.4514C2.02756 29.4514 1.55284 29.648 1.20283 29.9981C0.852822 30.3481 0.656189 30.8228 0.656189 31.3178C0.656189 31.8128 0.852822 32.2875 1.20283 32.6375C1.55284 32.9875 2.02756 33.1841 2.52254 33.1841Z" fill="white"/>
<path d="M2.52254 23.2305C6.31745 23.2305 9.95693 24.738 12.6403 27.4214C15.3237 30.1048 16.8313 33.7443 16.8313 37.5392C16.8313 38.0342 17.0279 38.5089 17.3779 38.859C17.7279 39.209 18.2026 39.4056 18.6976 39.4056C19.1926 39.4056 19.6673 39.209 20.0173 38.859C20.3673 38.5089 20.564 38.0342 20.564 37.5392C20.564 32.7544 18.6632 28.1654 15.2798 24.782C11.8963 21.3986 7.30743 19.4978 2.52254 19.4978C2.02756 19.4978 1.55284 19.6944 1.20283 20.0444C0.852822 20.3945 0.656189 20.8692 0.656189 21.3642C0.656189 21.8591 0.852822 22.3339 1.20283 22.6839C1.55284 23.0339 2.02756 23.2305 2.52254 23.2305Z" fill="white"/>
</svg>
