<svg width="92" height="92" viewBox="0 0 92 92" fill="none" xmlns="http://www.w3.org/2000/svg">
<g clip-path="url(#clip0_0_46)">
<path d="M53.084 0C54.6204 0.5336 55.8532 1.61 57.2332 2.4104C58.1072 2.9164 58.9352 3.496 59.7908 4.0296C60.8396 4.6828 61.3548 5.6304 61.3548 6.8632C61.3548 15.6308 61.3548 24.3984 61.3548 33.166C61.3548 33.35 61.3548 33.5248 61.3548 33.764C61.5572 33.764 61.7136 33.7732 61.8792 33.764C69.4508 33.5156 76.1208 35.8892 81.8616 40.7928C86.4892 44.7396 89.5712 49.6984 91.0708 55.5956C91.4756 57.2056 91.632 58.8708 91.908 60.5176C91.9264 60.6464 91.9724 60.7752 92 60.9132C92 62.2012 92 63.4892 92 64.7772C91.9356 65.2648 91.8712 65.7432 91.816 66.2308C91.3928 70.0028 90.2704 73.554 88.4304 76.866C85.008 83.0024 80.0308 87.4 73.4988 90.0128C71.3736 90.8592 69.1748 91.448 66.9024 91.7332C66.194 91.8252 65.4856 91.9172 64.768 92.0092C63.5076 92.0092 62.2564 92.0092 60.996 92.0092C60.1772 91.908 59.3584 91.8344 58.5488 91.7056C53.4336 90.9052 48.8428 88.8996 44.7948 85.6796C44.3164 85.3024 43.8564 84.9068 43.3872 84.5296C42.1544 85.3116 40.9492 86.0752 39.7532 86.8388C38.5296 87.63 37.3152 87.6024 36.0916 86.8204C34.3896 85.7348 32.6784 84.6492 30.9856 83.5544C30.7464 83.398 30.5808 83.398 30.3416 83.5544C28.6028 84.6768 26.864 85.79 25.116 86.8848C23.9476 87.6208 22.7792 87.5932 21.6108 86.8664C19.8904 85.7808 18.17 84.6952 16.4588 83.582C16.1828 83.4072 15.9988 83.4072 15.732 83.582C14.0576 84.6676 12.374 85.7164 10.6996 86.7928C9.43 87.6208 8.188 87.6116 6.9184 86.7928C5.5844 85.928 4.232 85.0908 2.8888 84.2168C2.7324 84.1156 2.6496 83.9132 2.5944 83.8304C2.3552 83.766 2.1344 83.7384 1.9504 83.6464C1.012 83.122 0.322 82.3768 0 81.328C0 56.2396 0 31.1604 0 6.072C0.3404 4.9312 1.1408 4.1952 2.1528 3.6432C2.622 3.3856 3.0544 3.0544 3.5144 2.7876C5.0692 1.8492 6.6332 0.9292 8.188 0C8.6204 0 9.0436 0 9.476 0C9.8256 0.1656 10.2028 0.3036 10.534 0.506C12.0612 1.4628 13.6068 2.392 15.088 3.4224C15.8056 3.9284 16.3944 4.0848 17.0568 3.4316C17.1948 3.2936 17.388 3.2108 17.5536 3.1096C19.2832 2.07 21.0036 1.0396 22.724 0C23.1564 0 23.5796 0 24.012 0C24.4076 0.1932 24.8216 0.3404 25.1896 0.5704C26.8364 1.6008 28.4832 2.6312 30.1024 3.6984C30.5256 3.9836 30.8016 3.9652 31.2156 3.6984C33.2212 2.4472 35.2452 1.2328 37.26 0C37.6924 0 38.1156 0 38.548 0C39.1092 0.2944 39.698 0.552 40.2316 0.8832C41.8048 1.8584 43.3596 2.852 44.9144 3.8548C45.1352 3.9928 45.2916 4.0204 45.5216 3.864C46.1748 3.4224 46.8464 2.99 47.5272 2.5852C48.9716 1.7204 50.4344 0.8648 51.888 0.0092C52.2836 0 52.6884 0 53.084 0ZM58.236 34.0308C58.236 33.994 58.2452 33.902 58.2452 33.81C58.2452 24.9044 58.2452 15.9988 58.2544 7.084C58.2544 6.8172 58.1624 6.6792 57.9416 6.5412C56.2304 5.4648 54.5284 4.3792 52.8264 3.2844C52.578 3.128 52.4124 3.1372 52.1732 3.2936C50.4528 4.4068 48.714 5.5016 46.9844 6.5964C45.8068 7.3416 44.62 7.3324 43.4424 6.5872C41.722 5.5016 40.0016 4.416 38.2904 3.312C38.0144 3.1372 37.8304 3.1464 37.5636 3.3212C35.9076 4.3976 34.2424 5.4556 32.5772 6.5228C31.3168 7.3324 30.0656 7.36 28.7868 6.5412C27.1032 5.4556 25.4012 4.3884 23.7176 3.3028C23.4876 3.1556 23.322 3.1188 23.0644 3.2844C21.4176 4.3516 19.7432 5.3728 18.1148 6.4492C16.7348 7.36 15.4192 7.3416 14.0484 6.44C12.4384 5.3728 10.7916 4.37 9.1816 3.3212C8.8872 3.128 8.694 3.1556 8.4088 3.3396C6.808 4.3792 5.1888 5.4096 3.5604 6.4216C3.22 6.6332 3.0912 6.8448 3.0912 7.2588C3.1096 16.5508 3.1004 25.8428 3.1004 35.1348C3.1004 50.2044 3.1004 65.274 3.1188 80.3436C3.1188 80.5092 3.2568 80.7484 3.404 80.8404C5.0876 81.9352 6.7896 83.0024 8.4732 84.088C8.7308 84.2536 8.9056 84.2536 9.1632 84.088C10.8744 82.984 12.5948 81.8892 14.3152 80.8036C15.502 80.0492 16.7072 80.0584 17.9032 80.8128C19.6144 81.8984 21.3164 82.9748 23.0184 84.0696C23.2852 84.2444 23.4692 84.2628 23.7452 84.0788C25.438 82.9748 27.1492 81.8984 28.8512 80.8128C30.0564 80.0492 31.2708 80.04 32.476 80.8128C34.0032 81.7788 35.5488 82.7264 37.03 83.7384C37.674 84.18 38.1616 84.2904 38.824 83.7568C39.5324 83.1864 40.3512 82.754 41.0872 82.2848C33.9572 73.5448 31.648 63.8112 35.4568 53.1392C39.2564 42.4856 47.1868 36.3676 58.236 34.0308ZM88.8996 62.882C88.964 48.898 77.6756 36.846 62.8912 36.8276C48.5392 36.8092 36.8552 48.2816 36.8368 62.8544C36.8184 77.5928 48.8428 88.9456 62.9464 88.9088C77.234 88.8628 88.8996 77.2156 88.8996 62.882ZM2.6496 75.3388C2.576 74.612 2.116 74.98 1.84 74.9248C1.748 74.9064 1.5088 75.1364 1.518 75.2284C1.564 75.7988 2.0792 75.4032 2.346 75.578C2.3736 75.6148 2.576 75.4032 2.6496 75.3388ZM2.5852 71.9624C2.2264 71.9808 1.8676 72.0084 1.5088 72.0268C1.4904 72.0728 1.472 72.128 1.4536 72.174C1.7296 72.3488 2.0056 72.5328 2.2632 72.6984C2.3828 72.4316 2.4656 72.2476 2.5852 71.9624ZM1.5088 73.9588C1.4904 74.0048 1.472 74.06 1.4536 74.106C1.7296 74.2808 2.0056 74.4648 2.2632 74.6304C2.3828 74.3636 2.4564 74.1796 2.5852 73.8944C2.2264 73.9128 1.8676 73.9404 1.5088 73.9588ZM2.7324 81.0704C2.6864 81.0244 2.6312 80.9784 2.5852 80.9232C2.4564 81.0244 2.3184 81.1256 2.1804 81.236C2.0608 81.144 1.9412 81.0612 1.8308 80.9876C1.8124 81.006 1.794 81.0244 1.7848 81.0428C1.8768 81.1624 1.978 81.2728 2.1068 81.4384C1.8216 81.466 1.5916 81.4844 1.3616 81.512C1.3616 81.5488 1.3616 81.5764 1.3616 81.6132C1.7848 81.6132 2.1988 81.6132 2.7048 81.6132C2.53 81.512 2.438 81.4476 2.1712 81.282C2.4196 81.19 2.576 81.1348 2.7324 81.0704ZM2.07 77.7124C2.3184 77.4732 2.6036 77.326 2.622 77.1512C2.6588 76.8384 2.3552 76.7556 2.0792 76.7556C1.8032 76.7556 1.4996 76.8292 1.5272 77.142C1.5456 77.3076 1.8216 77.464 2.07 77.7124ZM1.5824 72.9928C1.564 72.9928 1.5364 72.9928 1.518 72.9928C1.518 73.1492 1.518 73.2964 1.518 73.4528C1.6928 73.4896 1.8308 73.5264 1.8952 73.5448C2.0516 73.3516 2.1712 73.2136 2.2908 73.0664C2.3828 73.2228 2.4748 73.3792 2.5668 73.5356C2.6036 73.5264 2.6404 73.508 2.6772 73.4988C2.5944 73.3056 2.5576 73.0204 2.4104 72.9376C1.9964 72.6984 2.0056 73.2504 1.7296 73.4068C1.6836 73.2504 1.6376 73.1216 1.5824 72.9928ZM2.5668 78.3932C2.6036 78.384 2.6404 78.384 2.6864 78.3748C2.6036 78.1816 2.5208 77.9884 2.4288 77.7952C2.1988 77.9148 1.9688 78.0436 1.702 78.1816C1.6744 78.1172 1.6192 77.9884 1.518 77.74C1.518 78.016 1.518 78.1724 1.518 78.3288C1.6928 78.3656 1.8308 78.4024 1.8952 78.4116C2.0608 78.2184 2.1804 78.0804 2.3 77.9332C2.392 78.0988 2.484 78.246 2.5668 78.3932ZM1.7388 76.3692C1.6744 76.1852 1.6284 76.0564 1.564 75.8724C1.3708 76.3692 1.6008 76.4796 1.886 76.498C2.0608 76.314 2.1896 76.1668 2.3184 76.0196C2.392 76.176 2.4748 76.3324 2.5484 76.4888C2.5852 76.4796 2.622 76.4612 2.668 76.452C2.5944 76.2588 2.5668 75.9828 2.4288 75.8908C2.0056 75.6332 2.0148 76.176 1.7388 76.3692ZM1.886 70.702C2.0608 70.5088 2.1896 70.3708 2.3184 70.2236C2.392 70.38 2.4748 70.5364 2.5484 70.6928C2.5852 70.4904 2.5944 70.2236 2.4656 70.1224C2.0056 69.782 2.024 70.4352 1.7204 70.5364C1.656 70.3892 1.6008 70.2604 1.5272 70.0856C1.3892 70.5272 1.5732 70.6836 1.886 70.702ZM2.3644 78.982C2.4104 78.9452 2.4472 78.9084 2.4932 78.8624C2.3184 78.8256 2.1436 78.7888 1.9688 78.7612C1.8768 78.7428 1.7848 78.752 1.6836 78.752C1.7204 78.8992 1.702 79.1384 1.7848 79.1752C1.9872 79.2672 2.2264 79.2672 2.4104 79.2948C2.392 79.1568 2.3736 79.074 2.3644 78.982ZM2.4932 71.1804C2.1712 71.1528 1.886 71.1068 1.6008 71.116C1.564 71.116 1.5364 71.4288 1.5088 71.5944C1.702 71.0792 1.702 71.0792 2.6036 71.6312C2.6036 71.4012 2.6036 71.1896 2.6036 70.9688C2.576 70.9688 2.5576 70.9688 2.53 70.9688C2.5116 71.0884 2.484 71.1988 2.4932 71.1804ZM2.208 83.6832C2.4012 83.444 2.6404 83.2692 2.6128 83.1496C2.576 82.984 2.3552 82.7448 2.208 82.7448C2.07 82.7448 1.84 82.984 1.8032 83.1496C1.7756 83.2692 2.0056 83.444 2.208 83.6832ZM1.8216 81.972C1.794 81.9812 1.7572 81.9812 1.7296 81.9904C1.8308 82.156 1.8952 82.3584 2.0332 82.4688C2.116 82.5332 2.3552 82.5148 2.4472 82.4412C2.5668 82.34 2.6036 82.1468 2.6772 81.9904C2.4656 82.1008 2.346 82.3032 2.1896 82.3216C2.0884 82.3308 1.9412 82.0916 1.8216 81.972Z" fill="#007C66"/>
<path d="M2.6496 75.3388C2.576 75.4032 2.3736 75.6148 2.3368 75.5872C2.0792 75.4032 1.5548 75.7988 1.5088 75.2376C1.4996 75.1364 1.7388 74.9156 1.8308 74.934C2.116 74.98 2.576 74.612 2.6496 75.3388Z" fill="#007C66"/>
<path d="M2.5852 71.9624C2.4656 72.2476 2.3828 72.4316 2.2632 72.6984C2.0056 72.5328 1.7296 72.358 1.4536 72.174C1.472 72.128 1.4904 72.0728 1.5088 72.0268C1.8676 72.0084 2.2264 71.9808 2.5852 71.9624Z" fill="#007C66"/>
<path d="M1.5088 73.9588C1.8676 73.9404 2.2264 73.9128 2.5852 73.8944C2.4656 74.1796 2.3828 74.3636 2.2632 74.6304C2.0056 74.4648 1.7296 74.2808 1.4536 74.106C1.472 74.06 1.4904 74.0048 1.5088 73.9588Z" fill="#007C66"/>
<path d="M2.7324 81.0704C2.576 81.1256 2.4104 81.19 2.162 81.2728C2.4288 81.4384 2.5208 81.4936 2.6956 81.604C2.1896 81.604 1.7664 81.604 1.3524 81.604C1.3524 81.5672 1.3524 81.5396 1.3524 81.5028C1.5824 81.4844 1.8124 81.4568 2.0976 81.4292C1.9596 81.2636 1.8676 81.1532 1.7756 81.0336C1.794 81.0152 1.8124 80.9968 1.8216 80.9784C1.932 81.0612 2.0516 81.144 2.1712 81.2268C2.3184 81.1164 2.4472 81.0152 2.576 80.914C2.6312 80.9784 2.6864 81.0244 2.7324 81.0704Z" fill="#007C66"/>
<path d="M2.07 77.7124C1.8308 77.464 1.5456 77.3168 1.5272 77.142C1.4904 76.8292 1.8032 76.7556 2.0792 76.7556C2.3552 76.7556 2.6588 76.8384 2.622 77.1512C2.5944 77.326 2.3184 77.464 2.07 77.7124ZM1.656 77.1512C1.8952 77.3904 2.2448 77.464 2.4012 77.2708C2.4472 77.2156 2.438 77.0408 2.4012 77.0132C2.1436 76.8752 1.886 76.82 1.6744 77.1052C1.656 77.1144 1.6652 77.1328 1.656 77.1512Z" fill="#007C66"/>
<path d="M1.58241 72.9928C1.62841 73.1216 1.68361 73.2504 1.73881 73.4068C2.01481 73.2504 2.00561 72.6984 2.41961 72.9376C2.56681 73.0204 2.60361 73.3056 2.68641 73.4988C2.64961 73.508 2.61281 73.5264 2.57601 73.5356C2.48401 73.3792 2.39201 73.2228 2.30001 73.0664C2.18041 73.2044 2.07001 73.3516 1.90441 73.5448C1.84001 73.5264 1.69281 73.4988 1.52721 73.4528C1.52721 73.2964 1.52721 73.14 1.52721 72.9928C1.54561 72.9928 1.56401 72.9928 1.58241 72.9928Z" fill="#007C66"/>
<path d="M2.56681 78.3932C2.47481 78.246 2.38281 78.0988 2.30001 77.9516C2.18041 78.0896 2.06081 78.2368 1.89521 78.43C1.83081 78.4116 1.69281 78.384 1.51801 78.3472C1.51801 78.1908 1.51801 78.0344 1.51801 77.7584C1.61921 78.0068 1.67441 78.1356 1.70201 78.2C1.96881 78.062 2.19881 77.9332 2.42881 77.8136C2.51161 78.0068 2.59441 78.2 2.68641 78.3932C2.64961 78.384 2.61281 78.384 2.56681 78.3932Z" fill="#007C66"/>
<path d="M1.7388 76.3692C2.0148 76.176 2.0056 75.6332 2.4288 75.8908C2.5668 75.9736 2.5944 76.2588 2.668 76.452C2.6312 76.4612 2.5944 76.4796 2.5484 76.4888C2.4748 76.3324 2.392 76.176 2.3184 76.0196C2.1896 76.1668 2.0516 76.3048 1.886 76.498C1.5916 76.4796 1.3616 76.3692 1.564 75.8724C1.6284 76.0564 1.6744 76.1852 1.7388 76.3692Z" fill="#007C66"/>
<path d="M1.886 70.702C1.5732 70.6836 1.3892 70.5364 1.5364 70.0856C1.61 70.2604 1.6652 70.3892 1.7296 70.5364C2.024 70.4352 2.0148 69.7728 2.4748 70.1224C2.6036 70.2144 2.5944 70.4812 2.5576 70.6928C2.484 70.5364 2.4012 70.38 2.3276 70.2236C2.1896 70.3616 2.0608 70.5088 1.886 70.702Z" fill="#007C66"/>
<path d="M2.36439 78.982C2.37359 79.074 2.39199 79.1568 2.41039 79.304C2.23559 79.2764 1.98719 79.2764 1.78479 79.1844C1.70199 79.1476 1.71119 78.9084 1.68359 78.7612C1.77559 78.7612 1.87679 78.7612 1.96879 78.7704C2.14359 78.798 2.31839 78.8348 2.49319 78.8716C2.44719 78.9084 2.40119 78.9452 2.36439 78.982Z" fill="#007C66"/>
<path d="M2.49321 71.1804C2.49321 71.1988 2.51161 71.0792 2.53921 70.9688C2.56681 70.9688 2.58521 70.9688 2.61281 70.9688C2.61281 71.1896 2.61281 71.4012 2.61281 71.6312C1.71121 71.0792 1.71121 71.0792 1.51801 71.5944C1.54561 71.4288 1.57321 71.116 1.61001 71.116C1.88601 71.1068 2.17121 71.1528 2.49321 71.1804Z" fill="#007C66"/>
<path d="M2.20801 83.6832C2.01481 83.4348 1.78481 83.2692 1.80321 83.1496C1.84001 82.984 2.07001 82.7448 2.20801 82.7448C2.35521 82.7448 2.57601 82.984 2.61281 83.1496C2.63121 83.2692 2.40121 83.444 2.20801 83.6832ZM2.62201 83.1496C2.41961 83.03 2.31841 82.9104 2.21721 82.9196C2.11601 82.9288 2.01481 83.0484 1.92281 83.122C2.01481 83.2048 2.08841 83.3336 2.18961 83.352C2.29081 83.3612 2.41041 83.2508 2.62201 83.1496Z" fill="#007C66"/>
<path d="M1.8216 81.972C1.9412 82.1008 2.0792 82.34 2.1804 82.3216C2.3276 82.294 2.4564 82.1008 2.668 81.9904C2.5944 82.1468 2.5576 82.34 2.438 82.4412C2.3552 82.5148 2.1068 82.5332 2.024 82.4688C1.886 82.3584 1.8216 82.156 1.7204 81.9904C1.7572 81.9812 1.794 81.972 1.8216 81.972Z" fill="#007C66"/>
<path d="M18.4 44.3716C18.4 44.9512 18.4092 45.5032 18.4 46.0552C18.3908 46.828 17.8112 47.4536 17.0476 47.5456C16.2748 47.6376 15.5112 47.1224 15.3824 46.3588C15.2904 45.816 15.3088 45.264 15.3088 44.712C15.3088 44.4452 15.2352 44.3164 14.9592 44.2336C11.684 43.2584 9.7796 41.0688 9.246 37.7016C9.1816 37.2876 9.1816 36.8368 9.2552 36.4228C9.3748 35.7328 10.0464 35.2452 10.764 35.2544C11.454 35.2544 12.098 35.742 12.236 36.4136C12.3372 36.8736 12.3188 37.3612 12.4292 37.8212C12.7972 39.376 13.754 40.4248 15.272 41.0688C15.2904 40.894 15.3088 40.7652 15.3088 40.6364C15.3088 37.9224 15.2996 35.2084 15.318 32.4944C15.318 32.154 15.2076 32.0252 14.8856 31.9424C11.7208 31.1052 9.4668 28.3544 9.2368 25.2172C8.9792 21.6844 10.8376 18.7128 14.03 17.4064C14.4348 17.2408 14.8672 17.1212 15.3088 16.974C15.3088 16.4404 15.2904 15.8976 15.3088 15.364C15.3548 14.3888 16.0264 13.7724 16.9832 13.8C17.8296 13.8276 18.4092 14.49 18.4092 15.4376C18.4092 15.824 18.4092 16.2012 18.4092 16.5876C18.4092 16.7072 18.4092 16.8268 18.4092 16.9832C19.6052 17.2684 20.7 17.7376 21.6568 18.5196C23.5336 20.056 24.5088 22.034 24.564 24.4628C24.5824 25.3828 23.8648 26.1188 23 26.1004C22.1444 26.0912 21.5004 25.3828 21.4544 24.4812C21.3716 22.5768 20.4516 21.2152 18.7404 20.3872C18.676 20.3504 18.6024 20.332 18.5288 20.3044C18.5012 20.2952 18.4736 20.3136 18.4276 20.3136C18.4276 23.2852 18.4276 26.2568 18.4276 29.21C22.3284 30.3876 24.5364 32.9176 24.5456 37.0668C24.5456 39.8452 22.6136 43.3596 18.4 44.3716ZM18.4184 32.5864C18.4184 35.4016 18.4184 38.2076 18.4184 41.0228C19.642 40.7836 21.4452 39.1368 21.4452 36.8092C21.4452 34.454 19.6236 32.8072 18.4184 32.5864ZM15.272 20.3412C13.8736 20.5436 12.3924 22.4756 12.3096 24.1684C12.2084 26.2936 13.4964 28.2992 15.272 28.7408C15.272 25.944 15.272 23.1472 15.272 20.3412Z" fill="#007C66"/>
<path d="M41.4092 24.5548C37.8488 24.5548 34.2976 24.5548 30.7372 24.5548C30.0748 24.5548 29.5872 24.2788 29.2836 23.69C28.9984 23.138 29.0536 22.586 29.4216 22.0892C29.7528 21.6384 30.2128 21.4452 30.774 21.4452C34.2424 21.4544 37.7016 21.4452 41.17 21.4452C44.804 21.4452 48.438 21.4452 52.072 21.4452C52.7988 21.4452 53.3784 21.85 53.6084 22.4756C53.8292 23.092 53.6544 23.8372 53.0932 24.196C52.7804 24.3984 52.3572 24.5364 51.9892 24.5364C48.4564 24.564 44.9328 24.5548 41.4092 24.5548Z" fill="#007C66"/>
<path d="M41.4 13.8C44.942 13.8 48.484 13.8 52.026 13.8C52.992 13.8 53.6912 14.4348 53.7096 15.3088C53.7188 16.1736 53.0288 16.8636 52.0812 16.8912C51.2716 16.9188 50.4528 16.9004 49.6432 16.9004C43.4056 16.9004 37.168 16.9004 30.9304 16.9004C29.992 16.9004 29.3848 16.4864 29.1824 15.7136C28.9248 14.7384 29.6332 13.8 30.6544 13.8C33.396 13.7908 36.1376 13.8 38.8884 13.8C39.7072 13.8 40.5536 13.8 41.4 13.8Z" fill="#007C66"/>
<path d="M41.4 32.2C37.8764 32.2 34.3528 32.1816 30.8292 32.2184C29.9736 32.2276 29.164 31.6848 29.1088 30.6912C29.0628 29.7988 29.8264 29.1088 30.8292 29.0996C33.0372 29.0904 35.2452 29.0996 37.4532 29.0996C42.2648 29.0996 47.0764 29.0996 51.888 29.0996C52.854 29.0996 53.4428 29.5228 53.636 30.3324C53.866 31.2984 53.1576 32.2 52.1548 32.2C49.5328 32.2092 46.9108 32.2 44.2888 32.2092C43.332 32.2 42.366 32.2 41.4 32.2Z" fill="#007C66"/>
<path d="M18.3816 69C21.3992 69 24.4168 69 27.4344 69C28.4556 69 29.1272 69.5888 29.1456 70.5088C29.164 71.4104 28.4464 72.0912 27.4344 72.1096C27.1124 72.1188 26.7904 72.1096 26.4684 72.1096C20.8104 72.1096 15.1616 72.1096 9.5036 72.1004C9.2 72.1004 8.8872 72.0636 8.602 71.9624C7.912 71.7048 7.5072 70.9596 7.6452 70.2604C7.7924 69.506 8.3904 69 9.1724 69C12.2544 69 15.318 69 18.3816 69Z" fill="#007C66"/>
<path d="M18.4 64.4C15.364 64.4 12.328 64.4 9.3012 64.4C8.3628 64.4 7.7096 63.8296 7.6452 62.974C7.59 62.1368 8.188 61.4468 9.0896 61.318C9.2092 61.2996 9.338 61.2996 9.4576 61.2996C15.4192 61.2996 21.3808 61.2996 27.3424 61.2996C28.198 61.2996 28.796 61.6492 29.0536 62.2932C29.4584 63.3144 28.7224 64.4 27.6 64.4C24.5272 64.4 21.4636 64.4 18.4 64.4Z" fill="#007C66"/>
<path d="M18.4 56.7548C15.3548 56.7548 12.3004 56.7548 9.2552 56.7548C8.5284 56.7548 7.958 56.35 7.7372 55.706C7.5164 55.062 7.6912 54.372 8.2616 53.9856C8.5376 53.8016 8.9056 53.6544 9.2368 53.6544C15.3548 53.636 21.4636 53.636 27.5816 53.6452C28.4832 53.6452 29.1732 54.3444 29.164 55.2092C29.1548 56.0832 28.474 56.7548 27.5632 56.7548C24.4996 56.7548 21.4452 56.7548 18.4 56.7548Z" fill="#007C66"/>
<path d="M35.2912 36.8C36.7724 36.8 38.2628 36.8 39.744 36.8C40.7376 36.8 41.3908 37.3888 41.4 38.2996C41.4092 39.2472 40.7376 39.8912 39.7164 39.9004C37.6372 39.9096 35.5488 39.9004 33.4696 39.9004C32.568 39.9004 31.6664 39.9096 30.7556 39.9004C29.8448 39.882 29.2468 39.3484 29.1088 38.4836C29.0076 37.8396 29.4676 37.1128 30.1484 36.8828C30.3324 36.8184 30.5348 36.8092 30.728 36.8092C32.2552 36.8 33.7732 36.8 35.2912 36.8Z" fill="#007C66"/>
<path d="M32.2092 44.4452C32.7152 44.4452 33.2212 44.436 33.7272 44.4452C34.592 44.4636 35.2912 45.1444 35.3004 45.9816C35.3096 46.8188 34.592 47.5364 33.7088 47.5456C32.6968 47.5548 31.6848 47.5548 30.6728 47.5456C29.808 47.5364 29.1088 46.8464 29.0996 46.0092C29.0904 45.1628 29.808 44.4544 30.6912 44.4452C31.1972 44.436 31.7032 44.4452 32.2092 44.4452Z" fill="#007C66"/>
<path d="M72.0176 52.0996C72.128 51.3176 72.3672 50.6368 72.9008 50.0848C74.0692 48.8888 75.8724 48.668 77.2064 49.6708C79.258 51.2164 81.2912 52.7988 83.2876 54.4272C84.8056 55.6692 84.7044 57.9416 83.1312 59.1928C81.2452 60.6832 79.3316 62.146 77.4548 63.6456C75.4492 65.2556 72.4592 64.2252 72.0636 61.6584C72.0544 61.5664 72.036 61.4836 72.0176 61.3548C71.1068 61.3548 70.196 61.3548 69.2944 61.3548C64.6668 61.3548 60.03 61.3548 55.4024 61.3548C53.5532 61.3548 52.3112 60.3152 52.1364 58.5028C52.026 57.3528 52.026 56.166 52.1272 55.016C52.2928 53.176 53.5808 52.1088 55.4484 52.1088C60.72 52.1088 66.0008 52.1088 71.2724 52.1088C71.5116 52.0996 71.7416 52.0996 72.0176 52.0996ZM55.2184 58.2452C55.4392 58.2452 55.614 58.2452 55.798 58.2452C61.7044 58.2452 67.6016 58.2452 73.508 58.2452C74.5016 58.2452 75.1456 58.8892 75.1548 59.8736C75.1548 60.306 75.1548 60.7476 75.1548 61.2812C77.2156 59.7264 79.1936 58.2452 81.2084 56.7272C79.1844 55.2092 77.2156 53.7188 75.1548 52.1732C75.1548 52.6792 75.1548 53.0656 75.1548 53.4612C75.1548 54.602 74.566 55.1908 73.4344 55.1908C67.5464 55.1908 61.6584 55.1908 55.7704 55.1908C55.5956 55.1908 55.4116 55.1908 55.2184 55.1908C55.2184 56.2212 55.2184 57.2056 55.2184 58.2452Z" fill="#007C66"/>
<path d="M53.7372 64.4C53.958 64.4 54.142 64.4 54.326 64.4C59.708 64.4 65.09 64.4 70.472 64.4C72.2936 64.4 73.6 65.6972 73.6 67.5188C73.6 68.5584 73.6 69.6072 73.6 70.6468C73.5908 72.174 72.3488 73.4988 70.8124 73.6C70.4904 73.6184 70.1684 73.6276 69.8464 73.6276C64.6668 73.6276 59.478 73.6368 54.2984 73.6184C53.866 73.6184 53.682 73.692 53.59 74.1796C53.1484 76.5072 50.2872 77.4548 48.3184 75.9368C46.9016 74.842 45.494 73.7288 44.0864 72.6156C43.5896 72.2292 43.0928 71.8428 42.6052 71.4564C40.986 70.1684 40.94 67.896 42.5408 66.5988C44.4728 65.044 46.4232 63.4984 48.4012 62.008C50.4528 60.4532 53.2036 61.5664 53.6452 64.0872C53.6728 64.1884 53.7004 64.2712 53.7372 64.4ZM44.5188 69C46.552 70.5272 48.5208 72.0084 50.5724 73.5448C50.5724 73.094 50.5724 72.7536 50.5724 72.4224C50.5724 71.07 51.152 70.4904 52.5044 70.4904C58.3188 70.4904 64.124 70.4904 69.9384 70.4904C70.1132 70.4904 70.288 70.4904 70.4628 70.4904C70.4628 69.46 70.4628 68.5032 70.4628 67.5004C70.2512 67.5004 70.0672 67.5004 69.8924 67.5004C64.0688 67.5004 58.236 67.5004 52.4124 67.5004C51.1888 67.5004 50.5816 66.8932 50.5724 65.6604C50.5724 65.2924 50.5724 64.9244 50.5724 64.446C48.5024 66.01 46.5428 67.482 44.5188 69Z" fill="#007C66"/>
<path d="M1.65601 77.1512C1.65601 77.1328 1.65601 77.1144 1.66521 77.1052C1.87681 76.82 2.13441 76.8752 2.39201 77.0132C2.42881 77.0316 2.43801 77.2156 2.39201 77.2708C2.24481 77.4548 1.89521 77.3904 1.65601 77.1512Z" fill="#007C66"/>
<path d="M2.62201 83.1496C2.40121 83.26 2.29081 83.3612 2.18961 83.352C2.08841 83.3336 2.01481 83.2048 1.92281 83.122C2.02401 83.0484 2.11601 82.9288 2.21721 82.9196C2.31841 82.9104 2.42881 83.0208 2.62201 83.1496Z" fill="#007C66"/>
</g>
<defs>
<clipPath id="clip0_0_46">
<rect width="92" height="92" fill="white"/>
</clipPath>
</defs>
</svg>
