<svg width="65" height="75" viewBox="0 0 65 75" fill="none" xmlns="http://www.w3.org/2000/svg">
<path d="M53.8374 30.1951C53.8374 27.7913 53.8374 25.4534 53.8374 23.1979C57.5583 26.9187 61.2956 30.6561 65.0001 34.377C61.4109 37.9496 57.6736 41.687 53.8868 45.4572C53.8868 42.823 53.8868 40.1558 53.8868 37.2088C51.9441 37.8344 50.133 38.2625 48.4372 38.9704C43.0206 41.2589 39.7442 45.4737 37.9826 50.9727C37.1758 53.4917 36.7807 56.0765 36.7972 58.7437C36.8466 62.8103 36.8301 66.8605 36.7972 70.9271C36.7807 72.4253 36.1057 73.5778 34.7227 74.2199C33.422 74.8126 32.1543 74.648 31.0183 73.7425C30.1786 73.0674 29.7176 72.1784 29.7176 71.0917C29.7176 66.2349 29.4707 61.3615 29.7835 56.5375C30.3433 47.9268 33.6196 40.551 40.7156 35.2331C44.3212 32.533 48.4702 31.1006 52.899 30.3762C53.1953 30.3103 53.4917 30.2609 53.8374 30.1951Z" fill="#007C66"/>
<path d="M32.7306 37.2087C31.825 36.3526 30.8866 35.5129 30.014 34.6074C29.8 34.3769 29.7177 33.9324 29.7177 33.5702C29.7012 26.4412 29.7012 19.3123 29.7012 12.1669C29.7012 11.8376 29.7012 11.5248 29.7012 11.1132C27.0999 11.1132 24.5973 11.1132 22.1771 11.1132C25.9145 7.37589 29.6518 3.63855 33.2903 0C36.8795 3.58916 40.6168 7.32649 44.3706 11.0803C41.901 11.0803 39.3985 11.0803 36.7807 11.0803C36.7807 11.4754 36.7807 11.8047 36.7807 12.1175C36.7807 18.983 36.7807 25.8321 36.7972 32.6976C36.7972 33.2409 36.6161 33.5866 36.2045 33.9324C35.0355 34.9861 33.8995 36.1056 32.7306 37.2087Z" fill="#007C66"/>
<path d="M0 34.2617C3.68794 30.5573 7.40882 26.8364 11.1791 23.0497C11.1791 25.3546 11.1791 27.6431 11.1791 29.9481C12.8255 30.2115 14.406 30.3926 15.9536 30.689C21.6502 31.825 26.6388 34.2617 30.5737 38.6411C31.1006 39.2338 31.2323 39.6454 30.7877 40.3863C29.5365 42.4772 28.7627 44.7493 28.2523 47.1366C28.2194 47.3177 28.1535 47.4988 28.0547 47.8281C24.7619 40.5509 18.6537 37.9332 11.2285 37.1264C11.2285 39.9418 11.2285 42.6913 11.2285 45.4902C7.40881 41.6705 3.67148 37.9496 0 34.2617Z" fill="#007C66"/>
</svg>
