<svg width="117" height="92" viewBox="0 0 117 92" fill="none" xmlns="http://www.w3.org/2000/svg">
<path d="M75.3569 92C72.5368 91.399 69.6242 90.9829 66.8504 90.1508C49.2363 84.6955 38.4644 68.5146 39.7589 49.606C40.9147 33.0553 54.368 18.4925 71.4272 15.395C72.768 15.1638 74.1549 15.0251 75.5418 14.794C75.5418 13.0372 75.5418 11.4191 75.5418 9.52362C73.369 9.52362 71.2886 9.52362 69.2544 9.52362C67.174 9.56985 66.0182 8.64523 66.2031 6.47236C66.388 4.2995 65.4634 1.84925 67.4976 0C75.2182 0 82.8926 0 90.6132 0C91.1217 0.970854 91.8152 1.84925 92.0463 2.86633C92.2775 4.02211 92.0463 5.31658 92.1388 6.56482C92.2775 8.78392 91.2142 9.61608 89.0875 9.56985C87.0534 9.52362 84.973 9.56985 82.9388 9.56985C82.9388 11.6503 82.9388 13.3608 82.9388 15.0251C83.3549 15.1176 83.5398 15.2101 83.771 15.2563C99.7669 17.7528 111.926 28.8945 115.763 44.5668C116.318 46.7859 116.595 49.0975 116.965 51.3166C116.965 52.7035 116.965 54.0905 116.965 55.4774C116.826 56.0784 116.595 56.6332 116.549 57.2342C115.069 72.6292 104.39 85.6663 89.5961 90.1045C86.9147 90.9367 84.0946 91.3528 81.3207 91.9538C79.379 92 77.3448 92 75.3569 92ZM45.7227 53.3508C45.7227 71.196 60.2393 85.8975 77.8534 85.9437C95.9298 85.99 110.77 71.4271 110.862 53.6281C110.955 35.598 96.2071 20.804 78.1308 20.804C60.3318 20.804 45.7227 35.4593 45.7227 53.3508Z" fill="#007C66"/>
<path d="M0 35.598C0.832161 33.4251 2.45025 32.8241 4.71558 32.8704C14.193 32.9628 23.6241 32.9166 33.4714 32.9166C33.009 34.9045 32.593 36.7075 32.1307 38.7417C30.4663 38.7417 28.7558 38.7417 27.0915 38.7417C19.6482 38.7417 12.1588 38.6493 4.71558 38.7879C2.45025 38.8342 0.832161 38.2332 0 36.0603C0 35.9216 0 35.7367 0 35.598Z" fill="#007C66"/>
<path d="M29.4492 56.3557C22.5145 56.3557 15.8573 56.4019 9.15374 56.3557C7.44319 56.3557 6.65726 55.0612 6.70349 53.5818C6.70349 52.1024 7.58188 50.9004 9.24621 50.8542C12.5286 50.7617 15.8573 50.7617 19.1859 50.7617C21.7286 50.7617 24.2713 50.9004 26.814 50.7155C28.8944 50.5768 29.6341 51.3627 29.4955 53.3044C29.403 54.1828 29.4492 55.1074 29.4492 56.3557Z" fill="#007C66"/>
<path d="M33.795 74.8019C27.8774 74.8019 22.2372 74.8481 16.6432 74.7557C14.794 74.7095 13.5457 73.5537 13.6382 71.6582C13.7306 69.9476 14.8864 68.9306 16.7357 68.9306C21.3588 68.9306 25.9819 68.8843 30.5588 68.9768C31.1135 68.9768 31.9457 69.5778 32.1769 70.0863C32.8241 71.4733 33.194 72.9989 33.795 74.8019Z" fill="#007C66"/>
<path d="M55.2001 15.5338C51.2242 19.0936 47.3408 22.5609 43.5036 25.982C41.8855 22.7921 42.3016 19.0011 44.6132 16.5971C47.1559 14.0082 51.0855 13.6383 55.2001 15.5338Z" fill="#007C66"/>
<path d="M112.665 26.5829C110.77 24.5487 109.105 22.5146 107.256 20.7578C105.361 19.001 103.234 17.4291 101.246 15.811C104.066 13.7769 108.458 13.9156 111.186 15.996C113.312 17.6603 114.884 21.7286 112.665 26.5829Z" fill="#007C66"/>
<path d="M81.2745 39.8049C81.2745 41.1919 81.3208 42.5788 81.2745 43.9657C81.2283 45.9537 81.3208 47.6642 83.0776 49.2823C85.574 51.5939 85.0655 55.8471 82.569 58.1587C80.1188 60.424 75.9117 60.2853 73.6002 57.8813C71.1499 55.3386 70.965 51.3627 73.6002 49.0049C75.0796 47.6642 75.3107 46.2773 75.2645 44.5667C75.2183 40.7295 75.2645 36.8924 75.2645 33.0089C75.2645 31.021 76.0504 29.7265 78.1308 29.5878C79.8876 29.4954 81.1358 30.7898 81.2283 32.8702C81.3208 35.1818 81.2745 37.4934 81.2745 39.8049Z" fill="#007C66"/>
</svg>
