<svg width="20" height="18" viewBox="0 0 20 18" fill="none" xmlns="http://www.w3.org/2000/svg">
<path d="M17.9442 4.7367C17.9569 4.92263 17.9569 5.1086 17.9569 5.29453C17.9569 10.9656 13.8326 17.5 6.29444 17.5C3.97209 17.5 1.81473 16.7961 0 15.5742C0.329962 15.6141 0.64719 15.6273 0.989848 15.6273C2.90607 15.6273 4.67006 14.95 6.0787 13.7945C4.27666 13.7547 2.76649 12.5195 2.24618 10.8195C2.50001 10.8593 2.7538 10.8859 3.02032 10.8859C3.38833 10.8859 3.75638 10.8328 4.099 10.7399C2.22083 10.3414 0.812151 8.61483 0.812151 6.52968V6.47657C1.35782 6.79533 1.99239 6.99454 2.66493 7.02107C1.56087 6.25075 0.837542 4.93592 0.837542 3.44841C0.837542 2.65155 1.04055 1.92108 1.3959 1.28357C3.41368 3.8867 6.4467 5.58667 9.84769 5.77264C9.78426 5.45389 9.74617 5.12189 9.74617 4.78985C9.74617 2.42576 11.5736 0.5 13.8452 0.5C15.0254 0.5 16.0914 1.01797 16.8401 1.85469C17.7665 1.66876 18.6548 1.31015 19.4416 0.818752C19.137 1.81487 18.4898 2.65159 17.6396 3.1828C18.4645 3.08988 19.264 2.85076 20 2.51876C19.4417 3.36873 18.7437 4.12573 17.9442 4.7367Z" fill="#F51B29"/>
</svg>
