<svg width="36" height="29" viewBox="0 0 36 29" fill="none" xmlns="http://www.w3.org/2000/svg">
<path d="M4.33335 28.1666C3.39377 28.1666 2.58943 27.832 1.92033 27.1629C1.25124 26.4938 0.916687 25.6895 0.916687 24.7499V4.24992C0.916687 3.31034 1.25124 2.506 1.92033 1.8369C2.58943 1.1678 3.39377 0.833252 4.33335 0.833252H31.6667C32.6063 0.833252 33.4106 1.1678 34.0797 1.8369C34.7488 2.506 35.0834 3.31034 35.0834 4.24992V24.7499C35.0834 25.6895 34.7488 26.4938 34.0797 27.1629C33.4106 27.832 32.6063 28.1666 31.6667 28.1666H4.33335ZM18 16.2083L4.33335 7.66659V24.7499H31.6667V7.66659L18 16.2083ZM18 12.7916L31.6667 4.24992H4.33335L18 12.7916ZM4.33335 7.66659V4.24992V24.7499V7.66659Z" fill="#FEF7FF"/>
</svg>
