<svg xmlns="http://www.w3.org/2000/svg" width="23.807" height="22.869" viewBox="0 0 23.807 22.869">
  <g id="Group_168" data-name="Group 168" transform="translate(-270 -29)">
    <g id="logo" transform="translate(270.08 29.016)">
      <path id="Path_1" data-name="Path 1" d="M111.139,16.16a.043.043,0,0,1,.029.046v14.5c0,.047,0,.095-.005.141.019.041.055.022.081.022l7.751,0c.081,0,.119-.019.106-.1a.62.62,0,0,1,0-.081V16.323c0-.051-.029-.112.034-.15a.049.049,0,0,1,.072.013.483.483,0,0,1,.055.09c.295.585.594,1.167.883,1.752q.363.733.726,1.462.4.809.811,1.616.367.728.726,1.46c.214.439.442.872.652,1.312a1.5,1.5,0,0,1,.1.185,1.365,1.365,0,0,1,.009.248V38.443c0,.155,0,.155.15.181a.086.086,0,0,1,.051.027,1.423,1.423,0,0,1-.316.09,9.425,9.425,0,0,1-1.459.224c-.228.017-.457.021-.685.025-1.179.018-2.358.014-3.538.013q-3.07,0-6.142-.006a.076.076,0,1,1-.086-.04.733.733,0,0,1,.223-.015h7.49a1.428,1.428,0,0,0,.2-.007c.06-.027.038-.081.039-.125V31.22a1.135,1.135,0,0,1,0-.16,4.443,4.443,0,0,1-.253.555c-.33.689-.654,1.382-.983,2.072-.18.377-.361.754-.536,1.133a.24.24,0,0,1-.106.136.523.523,0,0,1-.176.016H113.2a.62.62,0,0,1-.153-.01c-.078-.024-.1-.095-.132-.158l-.677-1.432-.733-1.548c-.116-.244-.228-.493-.358-.75v7.683a.331.331,0,0,1-.035.229c-.041,0-.078.006-.117.006h-1.749c-.15,0-.3-.007-.448-.012a.1.1,0,0,1-.079-.016c.027-.024.06-.014.09-.014h2.138a.4.4,0,0,1,.06,0h-2.164c-.041,0-.087-.015-.125.015a3.583,3.583,0,0,1-.541-.035c-.348-.035-.693-.1-1.036-.163a.113.113,0,0,1-.031-.017.649.649,0,0,0,.035-.279v-14.1a1.934,1.934,0,0,1,.006-.248.973.973,0,0,1,.1-.241c.244-.486.489-.971.73-1.459.889-1.82,1.806-3.626,2.707-5.44.112-.226.23-.448.339-.676.018-.037.03-.114.1-.047v.114C111.126,16.3,111.1,16.227,111.139,16.16Z" transform="translate(-103.334 -16.151)" fill="#e85c50"/>
      <path id="Path_2" data-name="Path 2" d="M17.207,26.908v14.61c0,.055-.031.065-.074.068A7.141,7.141,0,0,1,15.453,41a4.658,4.658,0,0,1-.832-.517,3.29,3.29,0,0,1-1.3-2.2.9.9,0,0,1,0-.094.326.326,0,0,1-.009-.129V19.25a.341.341,0,0,1,.009-.13c.058.006.068.053.086.089.219.435.435.874.657,1.31q.4.786.79,1.575c.244.489.494.978.733,1.471.15.308.308.614.461.92.141.282.285.562.422.847q.244.511.511,1.014c.076.143.134.294.208.438A.143.143,0,0,1,17.207,26.908Z" transform="translate(-13.358 -18.991)" fill="#cf3339"/>
      <path id="Path_3" data-name="Path 3" d="M500.443,43.159a.448.448,0,0,0-.163.02c-.046.009-.078-.005-.077-.061V28.529c-.038-.066.012-.113.037-.163q.587-1.145,1.163-2.3c.009-.018.02-.035.031-.053a.241.241,0,0,1,.014-.024c.007-.012.013-.024.019-.037s.008-.017.012-.025c.014-.026.024-.053.037-.079a.2.2,0,0,1,.017-.027c.2-.384.391-.774.586-1.164.1-.2.206-.407.307-.614.092-.182.184-.363.273-.546a.371.371,0,0,1,.022-.035c.3-.586.586-1.181.888-1.765l.373-.726c.022-.044.037-.1.1-.112a.284.284,0,0,1,.013.147V39.592a.408.408,0,0,1-.008.141,1.363,1.363,0,0,1-.088.484,3.153,3.153,0,0,1-.75,1.309,4.271,4.271,0,0,1-.884.778,6.6,6.6,0,0,1-1.331.667A4.62,4.62,0,0,1,500.443,43.159Z" transform="translate(-480.4 -20.66)" fill="#cf3339"/>
      <path id="Path_4" data-name="Path 4" d="M16.533,23.778a.31.31,0,0,0-.044-.109c-.108-.232-.231-.456-.34-.688s-.235-.437-.334-.664c-.09-.21-.216-.4-.305-.611-.113-.265-.273-.505-.38-.774-.041-.106-.109-.2-.16-.3-.077-.155-.14-.318-.226-.468-.168-.295-.3-.605-.458-.906-.1-.2-.209-.389-.3-.59-.1-.221-.228-.423-.322-.643-.114-.268-.274-.513-.385-.783-.053-.131-.139-.248-.2-.377-.127-.288-.292-.557-.438-.846V35.052a1.312,1.312,0,0,1-.03-.4q0-2.508,0-5.015V16.225a3.107,3.107,0,0,0-.011-.354.218.218,0,0,1,.116-.011h7.689c.085,0,.053.043.028.081L18.9,19.017l-.962,1.925c-.117.236-.227.475-.345.711l-.978,1.955Z" transform="translate(-12.683 -15.86)" fill="#e33936"/>
      <path id="Path_5" data-name="Path 5" d="M408.713,21.314a.2.2,0,0,1-.033.088c-.259.518-.512,1.039-.779,1.552-.127.244-.25.489-.376.736a.27.27,0,0,0-.043.109c-.046,0-.055-.041-.07-.07-.052-.1-.1-.208-.147-.31-.062-.122-.13-.244-.191-.367-.112-.226-.231-.448-.336-.677s-.249-.466-.354-.707c-.113-.26-.263-.5-.376-.762-.062-.143-.146-.279-.216-.42-.111-.222-.229-.44-.331-.666-.117-.258-.263-.5-.376-.762-.062-.143-.152-.277-.216-.42-.122-.273-.277-.53-.4-.8-.063-.143-.146-.279-.217-.42l-.677-1.353a.29.29,0,0,1-.048-.12l.019-.01c1.545,0,3.09,0,4.634,0h3.074a.249.249,0,0,1,.128.011c0,.032.041.062,0,.1a2.108,2.108,0,0,0-.246.454c-.392.759-.772,1.526-1.153,2.29h0c-.1.179-.19.361-.277.546q-.159.305-.308.616c-.2.391-.391.792-.6,1.181h0a.306.306,0,0,0-.048.095h0c-.015.013-.01.035-.024.048h0C408.723,21.279,408.727,21.3,408.713,21.314Z" transform="translate(-387.678 -15.929)" fill="#e33936"/>
      <path id="Path_6" data-name="Path 6" d="M562.13,21.049a3.054,3.054,0,0,1,.28-.595c.035-.066.059-.136.093-.2.141-.276.278-.554.416-.831.108-.218.213-.437.326-.652.076-.142.145-.285.214-.431.015-.031.028-.059.068-.033q0,1.148,0,2.3V36.952a1.119,1.119,0,0,1-.021.317c0-.041,0-.079,0-.118V18.423c-.036,0-.041.034-.051.055-.041.077-.077.156-.117.233-.388.744-.76,1.5-1.136,2.247C562.182,20.991,562.171,21.033,562.13,21.049Z" transform="translate(-539.817 -18.198)" fill="#e34c37"/>
      <path id="Path_7" data-name="Path 7" d="M214.565,15.879a.088.088,0,0,0-.073.1.814.814,0,0,1,0,.095V30.429c0,.189.019.172-.17.172h-7.631c-.051,0-.112.028-.151-.033a.252.252,0,0,0,.128.015H214.4c.055,0,.081-.018.077-.075,0-.035,0-.071,0-.106V16.034a.806.806,0,0,0,0-.081c-.007-.068.027-.094.091-.088l0,.016Z" transform="translate(-198.713 -15.867)" fill="#e9654c"/>
      <path id="Path_8" data-name="Path 8" d="M20.285,15.714c0-.031.028-.075-.041-.071-.031,0-.063,0-.095,0h-7.7c.033-.043.081-.02.12-.02.54,0,1.08,0,1.619,0h5.992c.05,0,.1-.016.149.018V30.313c-.037-.018-.021-.046-.023-.067a.8.8,0,0,1,0-.081V15.871C20.308,15.818,20.329,15.759,20.285,15.714Z" transform="translate(-12.53 -15.63)" fill="#e7563d"/>
      <path id="Path_9" data-name="Path 9" d="M403.492,15.572a.107.107,0,0,1,0-.016c.043,0,.086-.007.13-.007h7.6c.044,0,.094-.021.132.021Z" transform="translate(-387.64 -15.56)" fill="#e85c50"/>
      <path id="Path_10" data-name="Path 10" d="M213.925,481.064h-7.832c-.047,0-.095,0-.142,0a.218.218,0,0,1,.024-.137c.2-.428.4-.855.606-1.283.4-.842.8-1.69,1.2-2.532a.182.182,0,0,1,.058-.087h4.213c.1.178.183.367.27.55.163.354.332.706.5,1.059.358.756.717,1.51,1.072,2.267A.23.23,0,0,1,213.925,481.064Z" transform="translate(-198.145 -458.237)" fill="#cf3339"/>
      <path id="Path_11" data-name="Path 11" d="M207.229,383.51a.824.824,0,0,1-.075.2c-.2.407-.4.815-.587,1.224q-.2.417-.393.833c-.152.32-.3.641-.457.959-.115.237-.224.477-.335.716-.016.035-.029.073-.044.109l-.029.009h0V379.54a.175.175,0,0,1,.077.1c.079.171.155.344.236.515.125.263.256.523.38.787q.326.7.657,1.387c.132.273.255.55.389.822A2.236,2.236,0,0,0,207.229,383.51Z" transform="translate(-197.533 -364.728)" fill="#e33937"/>
      <path id="Path_12" data-name="Path 12" d="M357.748,387.67a2.306,2.306,0,0,0-.163-.39c-.068-.167-.152-.328-.231-.491-.183-.383-.37-.765-.55-1.15q-.218-.465-.44-.928c-.157-.326-.306-.656-.458-.984a.2.2,0,0,1-.027-.1c.237-.5.476-.995.71-1.494.137-.293.276-.584.414-.876.153-.324.3-.649.462-.971.081-.17.157-.344.236-.515a.252.252,0,0,1,.072-.11v7.874C357.772,387.581,357.791,387.632,357.748,387.67Z" transform="translate(-341.969 -364.843)" fill="#e33937"/>
      <path id="Path_13" data-name="Path 13" d="M146.54,575.206c.026-.033.064-.027.1-.027h2.213a.3.3,0,0,1,.048.009.293.293,0,0,1-.134.014h-2.118c-.035,0-.071,0-.106,0Z" transform="translate(-141.157 -552.397)" fill="#e75840"/>
      <path id="Path_14" data-name="Path 14" d="M533.07,115.39a.168.168,0,0,1,.026-.077l.525-1.05a.122.122,0,0,1,.041-.057c.008-.011.016-.011.024,0l-.541,1.082C533.125,115.325,533.115,115.371,533.07,115.39Z" transform="translate(-511.941 -110.195)" fill="#e04437"/>
      <path id="Path_15" data-name="Path 15" d="M547.614,99.714h-.024a3.7,3.7,0,0,1,.2-.422.716.716,0,0,1,.107-.193c.008-.011.015-.011.024,0Z" transform="translate(-525.869 -95.703)" fill="#e24837"/>
      <path id="Path_16" data-name="Path 16" d="M555.174,86.475h-.024a2.461,2.461,0,0,1,.285-.545.127.127,0,0,1-.013.068C555.326,86.15,555.258,86.317,555.174,86.475Z" transform="translate(-533.121 -83.079)" fill="#e34c37"/>
      <path id="Path_17" data-name="Path 17" d="M531.853,143.555a.081.081,0,0,1,.048-.095A.133.133,0,0,1,531.853,143.555Z" transform="translate(-510.771 -138.265)" fill="#e04437"/>
      <path id="Path_18" data-name="Path 18" d="M531.322,145.878a.049.049,0,0,1,.024-.048.049.049,0,0,1-.024.048Z" transform="translate(-510.264 -140.539)" fill="#e04437"/>
      <path id="Path_19" data-name="Path 19" d="M530.742,147a.048.048,0,0,1,.024-.048A.05.05,0,0,1,530.742,147Z" transform="translate(-509.707 -141.613)" fill="#e04437"/>
    </g>
  </g>
</svg>
