<svg width="357" height="58" viewBox="0 0 357 58" fill="none" xmlns="http://www.w3.org/2000/svg">
<path d="M21.4818 0.959403C21.4818 0.959403 21.5785 1.02416 21.5462 1.05654V37.1299C21.5462 37.1299 21.5462 37.3566 21.5462 37.4861C21.6107 37.5832 21.7074 37.5509 21.7718 37.5509C28.8291 37.5509 35.8542 37.5509 42.9116 37.5509C43.1372 37.5509 43.2338 37.5185 43.2016 37.2918C43.2016 37.2271 43.2016 37.1623 43.2016 37.0975V1.38036C43.2016 1.38036 43.1372 1.08893 43.2983 0.99178C43.3627 0.959398 43.4272 0.99178 43.4916 0.99178C43.5561 1.05654 43.5883 1.12131 43.6528 1.21846C44.4584 2.67564 45.264 4.13282 46.0696 5.55762C46.7142 6.78813 47.3909 7.98626 48.0676 9.18439C48.8088 10.512 49.55 11.8721 50.2912 13.1997C50.9679 14.3979 51.6124 15.6284 52.2891 16.8265C52.8692 17.9275 53.4815 18.9961 54.0615 20.0971C54.1582 20.259 54.2549 20.3885 54.3515 20.5504C54.3515 20.7447 54.3838 20.9714 54.3515 21.1657V56.2999C54.3515 56.559 54.4912 56.7101 54.7705 56.7533C54.7705 56.7533 54.8671 56.7533 54.8994 56.8181C54.6093 56.9152 54.3193 57.0124 54.0293 57.0447C52.708 57.3362 51.3868 57.4981 50.0656 57.5952C49.4533 57.6276 48.8088 57.66 48.1965 57.66C44.974 57.6924 41.7515 57.6924 38.5612 57.66C32.9862 57.66 27.4112 57.66 21.804 57.66C21.6751 57.66 21.5785 57.66 21.4496 57.6276C21.4818 57.6276 21.514 57.5952 21.5462 57.5628C21.7396 57.5305 21.9652 57.4981 22.1585 57.5305H42.5893C42.7827 57.5305 42.9438 57.5305 43.1372 57.5305C43.2983 57.4657 43.2338 57.3362 43.2338 57.2066V38.328C43.2338 38.328 43.2338 38.069 43.2338 37.9394C43.0405 38.4252 42.8149 38.8785 42.5571 39.3319C41.6548 41.0481 40.7847 42.7643 39.8824 44.4806C39.399 45.4197 38.8834 46.3587 38.4323 47.2978C38.4 47.4273 38.2711 47.5569 38.1422 47.6216C37.9811 47.654 37.82 47.6864 37.6589 47.654H27.1534C27.1534 47.654 26.8634 47.654 26.7345 47.654C26.5089 47.5892 26.4445 47.4273 26.38 47.2654C25.7677 46.0673 25.1555 44.9016 24.5432 43.7034L22.5452 39.85C22.223 39.2347 21.9329 38.6195 21.5785 37.9718V57.0771C21.6107 57.2714 21.5785 57.4657 21.4818 57.6276C21.3851 57.6276 21.2562 57.6276 21.1595 57.6276H16.3902C15.9713 57.6276 15.5846 57.6276 15.1656 57.6276C15.1012 57.6276 15.0045 57.6276 14.9401 57.5952C15.0045 57.5305 15.1012 57.5628 15.1979 57.5628H21.0306C21.0306 57.5628 21.1273 57.5628 21.1918 57.5628H15.2945C15.2945 57.5628 15.069 57.5305 14.9401 57.5952C14.4567 57.5952 13.9411 57.5952 13.4577 57.4981C12.4909 57.4009 11.5564 57.239 10.6219 57.1095C10.6219 57.1095 10.5574 57.1095 10.5252 57.0771C10.6219 56.8504 10.6541 56.6238 10.6219 56.3971V21.3276C10.6219 21.1333 10.6219 20.9066 10.6219 20.7123C10.6863 20.518 10.783 20.2914 10.8797 20.0971C11.5564 18.8989 12.2009 17.6684 12.8776 16.4703C15.2945 11.9368 17.8081 7.46815 20.2572 2.93469C20.5795 2.3842 20.8695 1.83371 21.1918 1.25084C21.224 1.15369 21.2562 0.959401 21.4818 1.12131V1.41275C21.4818 1.41275 21.3851 1.08893 21.4818 0.894638V0.959403Z" fill="#F94F47"/>
<path d="M10.7183 20.6148V56.9472C10.7183 56.9472 10.6217 57.1091 10.525 57.1091C8.94596 56.7853 7.39915 56.2996 5.94901 55.6519C5.14338 55.2957 4.36997 54.8748 3.69324 54.3567C1.75973 53.029 0.470715 51.0537 0.148462 48.8841C0.148462 48.8194 0.148462 48.7222 0.148462 48.6575C0.148462 48.5603 0.116237 48.4308 0.148462 48.3336V1.57427C0.148462 1.57427 0.148462 1.3476 0.148462 1.25046C0.309589 1.25046 0.341816 1.37998 0.374041 1.47713C0.986321 2.54573 1.56638 3.64671 2.17866 4.7477C2.88761 6.04297 3.62879 7.37062 4.33775 8.66589C5.01448 9.86402 5.6912 11.0945 6.33571 12.325C6.75464 13.1022 7.17356 13.847 7.59249 14.6242C7.97919 15.3366 8.3659 16.0166 8.7526 16.729C9.20376 17.5709 9.65491 18.4128 10.1383 19.2548C10.3316 19.611 10.4928 19.9995 10.7183 20.3557C10.7828 20.4529 10.7828 20.55 10.7506 20.6796L10.7183 20.6148Z" fill="#E01731"/>
<path d="M54.8665 56.8504C54.8665 56.8504 54.5765 56.8504 54.4153 56.8828C54.2864 56.8828 54.1897 56.8828 54.222 56.7209V20.4532C54.222 20.4532 54.2542 20.1618 54.3186 20.0646C55.3821 18.1541 56.4455 16.276 57.4767 14.333C57.4767 14.3007 57.5412 14.2359 57.5734 14.2035C57.5734 14.2035 57.5734 14.1711 57.6056 14.1388C57.6056 14.1388 57.6378 14.074 57.6701 14.0416C57.7023 14.0092 57.6701 14.0092 57.7023 13.9768C57.7345 13.9121 57.7668 13.8473 57.799 13.7826C57.799 13.7826 57.799 13.7178 57.8312 13.7178C58.379 12.7787 58.8946 11.8073 59.4425 10.8358C59.7325 10.3177 59.9903 9.83197 60.2803 9.31387C60.5381 8.86052 60.7959 8.40717 61.0215 7.95383L61.086 7.85668C61.8916 6.3995 62.6972 4.90993 63.5028 3.45275L64.5341 1.63937C64.5341 1.63937 64.6307 1.38031 64.8241 1.34793C64.8563 1.47746 64.8885 1.57461 64.8563 1.70413V47.913C64.8563 47.913 64.8563 48.1397 64.8563 48.2692C64.8563 48.6902 64.7919 49.0788 64.6307 49.4673C64.244 50.6978 63.5351 51.7988 62.6005 52.7055C61.8916 53.4503 61.0859 54.0979 60.1836 54.6484C59.0558 55.3284 57.8312 55.8789 56.5422 56.2999C55.9944 56.4618 55.4788 56.6237 54.8987 56.7533L54.8665 56.8504Z" fill="#E01731"/>
<path d="M10.7181 20.615C10.7181 20.615 10.6536 20.4207 10.5892 20.356C10.2991 19.7731 9.94465 19.2226 9.65463 18.6397C9.3646 18.0892 9.01012 17.5387 8.75232 16.9882C8.49451 16.4701 8.17226 15.9844 7.91446 15.4663C7.59221 14.8187 7.17328 14.2034 6.88325 13.5558C6.78658 13.2967 6.59323 13.0701 6.4321 12.811C6.23875 12.4224 6.0454 12.0338 5.81982 11.6452C5.36867 10.9005 5.01419 10.1557 4.56304 9.37852C4.30523 8.89279 3.98298 8.40707 3.7574 7.92134C3.4996 7.37085 3.14512 6.85274 2.88732 6.33463C2.56507 5.65461 2.14614 5.07174 1.82389 4.39172C1.69499 4.0679 1.43718 3.77646 1.27606 3.45264C0.921581 2.74024 0.502653 2.06023 0.0837247 1.34783V48.6901C-0.0129511 48.3662 -0.0129525 48.0424 0.0192727 47.6862C0.0192727 43.5413 0.0192727 39.3641 0.0192727 35.2192V1.86594C0.0192727 1.5745 0.0192727 1.28306 0.0192727 0.991625C0.115948 0.959243 0.244851 0.959243 0.341526 0.991625H21.2879C21.5135 0.991625 21.4168 1.08877 21.3524 1.18592L17.1309 8.82803C16.2608 10.4147 15.3907 12.0338 14.5206 13.6205C14.1984 14.2034 13.9084 14.8187 13.5861 15.4015L10.9114 20.2588L10.6858 20.6798L10.7181 20.615Z" fill="#F51B29"/>
<path d="M57.5738 14.3004C57.5738 14.3004 57.5416 14.4623 57.4771 14.527C56.7682 15.8223 56.0914 17.1176 55.3502 18.3805C54.9958 18.9957 54.6735 19.5786 54.319 20.2262C54.2546 20.3234 54.2224 20.3881 54.1901 20.4853C54.0612 20.4853 54.029 20.3881 53.9968 20.3234C53.8679 20.0643 53.739 19.8053 53.6101 19.5462C53.449 19.2548 53.2556 18.931 53.0945 18.6395C52.7722 18.089 52.45 17.5385 52.16 16.9557C51.8699 16.3728 51.4832 15.7899 51.1932 15.207C50.8709 14.5594 50.4842 13.9442 50.162 13.2965C50.0009 12.9403 49.7753 12.6165 49.5819 12.2603C49.2919 11.7098 48.9696 11.1593 48.6796 10.6088C48.3574 9.96119 47.9707 9.34594 47.6484 8.6983C47.4873 8.3421 47.2295 8.01828 47.0684 7.66208C46.7461 6.98206 46.3272 6.33442 45.9727 5.65441C45.8116 5.29821 45.586 4.97439 45.3927 4.61819C44.7804 3.48483 44.1681 2.38385 43.5558 1.25048C43.4914 1.15334 43.4591 1.05619 43.4269 0.959045H43.4914C47.7129 0.959045 51.9022 0.959045 56.1237 0.959045H64.5022C64.5022 0.959045 64.7278 0.959045 64.8567 0.959045C64.8567 1.02381 64.9534 1.12095 64.8567 1.18572C64.5667 1.54192 64.3411 1.9305 64.18 2.31908C63.1165 4.19723 62.0853 6.10775 61.0219 8.01828C60.7641 8.47162 60.5063 8.92497 60.2807 9.37831C59.9907 9.89642 59.7007 10.3822 59.4429 10.9003C58.895 11.8717 58.3794 12.8756 57.7994 13.847C57.7994 13.847 57.7027 14.0089 57.6705 14.0737C57.6705 14.0737 57.6705 14.1708 57.606 14.2032C57.606 14.2032 57.606 14.268 57.5416 14.3004H57.5738Z" fill="#F51B29"/>
<path d="M61.0537 8.01847C61.247 7.50036 61.5048 7.01463 61.8271 6.52891C61.9238 6.367 61.9882 6.20509 62.0849 6.0108C62.4716 5.33078 62.8261 4.61838 63.2128 3.93836C63.5028 3.38787 63.7928 2.83738 64.1151 2.31927C64.3084 1.96307 64.5018 1.60687 64.6951 1.25067C64.7273 1.18591 64.7596 1.08876 64.8885 1.15352C64.8885 3.06405 64.8885 4.97458 64.8885 6.85273V47.5243C64.8885 47.7834 64.8885 48.0424 64.824 48.3015C64.824 48.2043 64.824 48.1072 64.824 48.01V1.44496C64.824 1.44496 64.7273 1.5421 64.6951 1.57448C64.5984 1.76877 64.5018 1.96307 64.3729 2.15736C63.3094 4.00312 62.3104 5.88127 61.2792 7.72704C61.247 7.82418 61.2148 7.92133 61.1181 7.95371L61.0537 8.01847Z" fill="#F53B28"/>
<path d="M43.4272 0.959194C43.4272 0.959194 43.2016 1.08872 43.2339 1.21825C43.2339 1.21825 43.2339 1.38016 43.2339 1.4773V37.1621C43.2339 37.6478 43.2983 37.583 42.7827 37.583H21.9652C21.9652 37.583 21.6429 37.6478 21.5463 37.4859C21.6429 37.5183 21.7718 37.5507 21.9007 37.5183H42.9761C42.9761 37.5183 43.2016 37.4859 43.1694 37.324C43.1694 37.2268 43.1694 37.1297 43.1694 37.0649V1.34777C43.1694 1.34777 43.1694 1.21825 43.1694 1.15348C43.1694 0.991574 43.2339 0.926811 43.4272 0.926811V0.959194Z" fill="#FA5A41"/>
<path d="M21.3525 1.1213C21.3525 1.1213 21.4169 0.927013 21.2558 0.927013C21.1591 0.927013 21.0947 0.927013 20.998 0.927013H0.0193558C0.0193558 0.927013 0.244934 0.894631 0.341609 0.894631C1.82397 0.894631 3.27411 0.894631 4.75647 0.894631H21.0947C21.0947 0.894631 21.3847 0.86225 21.5136 0.927013V37.4213C21.5136 37.4213 21.4491 37.3242 21.4491 37.2594C21.4491 37.1947 21.4491 37.1299 21.4491 37.0651V1.50989C21.4491 1.50989 21.5136 1.21845 21.3847 1.1213H21.3525Z" fill="#F8482F"/>
<path d="M43.4269 0.95935C43.4269 0.95935 43.4269 0.95935 43.4269 0.926896C43.5558 0.926896 43.6525 0.926896 43.7814 0.926896H64.5022C64.5022 0.926896 64.76 0.861985 64.8567 0.991798H43.4591L43.4269 0.95935Z" fill="#F94F47"/>
<path d="M43.2329 57.6921H21.8676C21.8676 57.6921 21.6098 57.6921 21.4809 57.6921C21.4809 57.5626 21.4809 57.4654 21.5453 57.3683C22.0931 56.2997 22.641 55.2311 23.1888 54.1948C24.2845 52.09 25.3479 49.9852 26.4758 47.9128C26.4758 47.8156 26.5725 47.7509 26.6369 47.6861H38.1091C38.3669 48.1394 38.6247 48.5928 38.8503 49.0461C39.3014 49.9204 39.7526 50.7948 40.2037 51.6691C41.1705 53.5472 42.1695 55.4253 43.1362 57.3035C43.2329 57.433 43.2329 57.5625 43.2007 57.7245L43.2329 57.6921Z" fill="#E01731"/>
<path d="M26.6373 47.6215C26.6051 47.7834 26.5084 47.9453 26.4439 48.1072C25.8961 49.111 25.3805 50.1473 24.8327 51.1511C24.4782 51.8311 24.1237 52.5435 23.7692 53.2235C23.3503 54.0331 22.9636 54.8102 22.5125 55.6198C22.1902 56.2027 21.9002 56.8179 21.6102 57.4008C21.5779 57.4979 21.5457 57.5951 21.4813 57.6598H21.4168V37.745C21.5135 37.8098 21.5779 37.9069 21.6102 38.0041C21.8357 38.425 22.0291 38.846 22.2547 39.2669C22.6091 39.9146 22.9636 40.5622 23.2859 41.2099C23.8659 42.3756 24.4782 43.509 25.0905 44.6747C25.445 45.3547 25.7672 46.0348 26.1539 46.7148C26.2828 47.0386 26.4439 47.33 26.6373 47.5891V47.6215Z" fill="#F51B2B"/>
<path d="M43.2335 57.6923C43.1046 57.3685 42.9757 57.0446 42.7824 56.7208C42.589 56.2998 42.3634 55.9113 42.1701 55.4903C41.6545 54.5512 41.1711 53.5798 40.6555 52.6407C40.2688 51.8635 39.8499 51.0864 39.4632 50.3416C39.0442 49.532 38.6253 48.7225 38.2064 47.913C38.1419 47.8482 38.1419 47.751 38.1419 47.6539C38.7864 46.4234 39.4309 45.1929 40.0755 43.93C40.4622 43.2176 40.8166 42.4728 41.2033 41.7604C41.6223 40.9509 42.0412 40.1413 42.4601 39.3318C42.6857 38.9108 42.879 38.4898 43.1046 38.0689C43.1368 37.9717 43.2013 37.8746 43.298 37.8098V57.4008C43.298 57.4008 43.3302 57.6599 43.2335 57.7246V57.6923Z" fill="#F51B2B"/>
<path d="M14.8758 57.6271C14.8758 57.6271 15.037 57.5624 15.1336 57.5624H21.1598C21.1598 57.5624 21.2564 57.5624 21.2887 57.5624C21.1598 57.5948 21.0309 57.5948 20.9342 57.5948H15.1659C15.1659 57.5948 14.9725 57.5948 14.8758 57.5948V57.6271Z" fill="#F84B33"/>
<path d="M57.8309 13.8473C57.8309 13.8473 57.8309 13.7178 57.8954 13.653C58.3787 12.7787 58.8621 11.9044 59.3455 11.0301C59.3455 10.9653 59.4099 10.9329 59.4422 10.9006C59.4422 10.9006 59.4744 10.9006 59.5066 10.9006C59.0232 11.8072 58.5076 12.6816 58.0243 13.5883C57.9598 13.6854 57.9276 13.7825 57.8309 13.8473Z" fill="#F2302A"/>
<path d="M59.5071 10.9007H59.4426C59.6038 10.5445 59.7971 10.1883 59.9905 9.83212C60.0549 9.67021 60.1516 9.5083 60.2805 9.34639C60.2805 9.34639 60.3127 9.34639 60.3449 9.34639L59.5071 10.8683V10.9007Z" fill="#F43629"/>
<path d="M60.3453 9.34611H60.2809C60.4742 8.86038 60.732 8.40703 61.0543 7.98607C61.0543 8.05083 61.0543 8.11559 61.022 8.14798C60.7642 8.53656 60.5709 8.95752 60.3453 9.34611Z" fill="#F53B28"/>
<path d="M57.7021 14.0739C57.7021 14.0739 57.7021 13.8796 57.8302 13.8472C57.8302 13.9443 57.7662 14.0415 57.7021 14.0739Z" fill="#F2302A"/>
<path d="M57.638 14.2024C57.638 14.2024 57.638 14.1059 57.7033 14.0737C57.7033 14.1059 57.7033 14.1702 57.638 14.2024Z" fill="#F2302A"/>
<path d="M57.574 14.2999C57.574 14.2999 57.574 14.2034 57.6392 14.1712C57.6392 14.2034 57.6392 14.2677 57.574 14.2999Z" fill="#F2302A"/>
<path d="M97.5969 7.55708V39.6151H125.053V7.55708H138.007V41.7523C138.007 42.9504 137.717 44.019 137.105 44.9581C136.493 45.8972 135.719 46.6743 134.753 47.322C133.786 47.9696 132.722 48.4553 131.562 48.7468C130.434 49.0706 129.242 49.2001 128.05 49.2325H94.6644C93.4399 49.2325 92.1831 49.103 90.9908 48.7791C89.8629 48.5201 88.7672 48.0667 87.8005 47.4515C86.8659 46.8686 86.0925 46.0591 85.5447 45.1524C84.9969 44.2133 84.7068 43.0799 84.7068 41.7523V7.55708H97.5969Z" fill="white"/>
<path d="M144.291 15.0375C144.291 13.7098 144.581 12.5764 145.129 11.6374C145.677 10.7307 146.451 9.92113 147.385 9.33826C148.352 8.723 149.447 8.26966 150.575 8.0106C151.768 7.71917 152.992 7.55726 154.249 7.55726H187.634C188.827 7.55726 190.019 7.71917 191.147 8.04298C192.307 8.33442 193.37 8.82015 194.337 9.46779C195.272 10.1154 196.077 10.925 196.69 11.8317C197.302 12.7707 197.592 13.8393 197.592 15.0375V41.7525C197.592 42.9182 197.366 43.8573 196.851 44.5697L202.426 49.2327H154.249C153.024 49.2327 151.768 49.1031 150.575 48.7793C149.447 48.5203 148.352 48.0669 147.385 47.4517C146.451 46.8688 145.677 46.0592 145.129 45.1526C144.581 44.2135 144.291 43.0801 144.291 41.7525V15.0698V15.0375ZM179.224 29.7064L184.637 34.3046V17.1423H157.182V39.5829H171.393L159.405 29.7064H179.224Z" fill="white"/>
<path d="M217.217 7.55726V39.6153H244.673V7.55726H257.627V41.7525C257.627 42.9506 257.337 44.0192 256.725 44.9583C256.113 45.8973 255.339 46.7069 254.372 47.3221C253.406 47.9698 252.342 48.4555 251.182 48.7469C250.054 49.0708 248.862 49.2003 247.67 49.2327H214.284C213.06 49.2327 211.803 49.1031 210.611 48.7793C209.483 48.5203 208.387 48.0669 207.42 47.4517C206.486 46.8688 205.712 46.0592 205.165 45.1526C204.617 44.2135 204.327 43.0801 204.327 41.7525V7.55726H217.185H217.217Z" fill="white"/>
<path d="M263.911 39.8743H273.868V16.9156H263.911V7.55726H296.716V16.9156H286.758V39.8743H296.716V49.2327H263.911V39.8743Z" fill="white"/>
<path d="M303 24.9139H316.083V39.4857H341.541L342.701 38.6762V17.7252L341.541 16.9156H302.968V7.55726H349.727C350.5 7.55726 351.273 7.75155 351.95 8.10775C352.691 8.49633 353.4 8.98206 354.012 9.53255C354.625 10.1154 355.14 10.7307 355.559 11.4431C355.978 12.1231 356.172 12.8031 356.172 13.4184V41.2667C356.172 42.6915 355.946 43.9221 355.495 44.9259C355.044 45.9297 354.399 46.7717 353.626 47.3869C352.852 48.0022 351.95 48.4555 350.983 48.747C349.984 49.0384 348.953 49.2003 347.922 49.2003H302.968V24.9139H303Z" fill="white"/>
</svg>
