<svg xmlns="http://www.w3.org/2000/svg" width="363.916" height="36.952" viewBox="0 0 363.916 36.952">
  <g id="Group_1" data-name="Group 1" transform="translate(-584.728 -323.524)">
    <path id="Path_843" data-name="Path 843" d="M161.88,8.353c.921-.114,2.056.005,2.546-.419.874-.79.574.108,1.314.5,1.645.823.9-1.218.56-1.091a22.5,22.5,0,0,1-3.916.014c-1.559-.219-1.4,1.144-.5.993" transform="translate(584.728 322.227)" fill="#fff"/>
    <path id="Path_845" data-name="Path 845" d="M172.65,4.032a1.072,1.072,0,0,0,.727.336c.005,0,5.4-.167,6.952-.42a4.339,4.339,0,0,1,2.042-.014,2.326,2.326,0,0,0,1.189.042c.548-.172,2.72.169,2.363-.783-.125-.35-1.174-.392-1.678-.084-.266.168-.462.154-1.007-.084-1.2-.537-.913.15-3.021-.042-1.962-.2-1.131.428-5.175.462-1.343.013-3.181-.089-2.392.587" transform="translate(584.728 322.227)" fill="#fff"/>
    <path id="Path_846" data-name="Path 846" d="M164.789,4.311c.308.462.8.266.5-.2-.289-.492-1.505-.316-1.076-.21a1.357,1.357,0,0,1,.573.406" transform="translate(584.728 322.227)" fill="#fff"/>
    <path id="Path_849" data-name="Path 849" d="M150.453,4.885c-2.027,1.014,1.173,1.21,3.329.629a2.979,2.979,0,0,1,1.1-.042c.265.056.5.028.5-.056,0-.535,3.5.266,3.5-.923,0-.769-1.413-.895-2.434-.224-.828.541-2.311.042-3.161.392-1.189.4-1.535-.411-2.839.224" transform="translate(584.728 322.227)" fill="#fff"/>
    <path id="Path_850" data-name="Path 850" d="M142.62,9.724c-2.448,0-4.425,2.206,1.133.853,1.548-.394,8.141-1.126,9.3-1.189.425-.053.321-1.294,1.077-.363a2.163,2.163,0,0,0,2.294.181,3.33,3.33,0,0,1,1.734-.405c3.264-.207,3.278-1.657,0-1.1-2.3.395-2.209-.079-2.713.392-.643.641-4.748-.165-6.35.531-1.021.454-5.144.235-5.889.979a1.1,1.1,0,0,1-.587.126" transform="translate(584.728 322.227)" fill="#fff"/>
    <path id="Path_851" data-name="Path 851" d="M115.626,16.578c-.86-.364-.3.14-1.161.14-.489,0-.643.154-.4.406.308.307,3.181.122,1.566-.546" transform="translate(584.728 322.227)" fill="#fff"/>
    <path id="Path_852" data-name="Path 852" d="M111.64,19.445c-.191-.255-.171.485-.21.8-.041.33,1.206.831,1.553,1.036l.056-.42c.076-.609.5-.424,2.1-.8,1.483-.287,3.159.6,2.657-.378a.947.947,0,0,0-1.259-.447c-.252.153-.363.111-.587-.21s-1.818-1.372-1.818-.63c0,.557-1.136-.159-.924.6.056.224-1.266.919-1.566.447" transform="translate(584.728 322.227)" fill="#fff"/>
    <path id="Path_855" data-name="Path 855" d="M131.613,10.773a4.253,4.253,0,0,1-2.909.391c-.308-.168-.336-.125-.336.476,0,1.2.326.127,1.441.573a4.2,4.2,0,0,0,2.853-.713c.67-.53-.2-1.608-1.049-.727" transform="translate(584.728 322.227)" fill="#fff"/>
    <path id="Path_856" data-name="Path 856" d="M128.983,15.249c0-.126-.252-.279-.546-.35-1.676-.307.546,1.14.546.35" transform="translate(584.728 322.227)" fill="#fff"/>
    <path id="Path_857" data-name="Path 857" d="M131.669,16.913c-.937-.448-.937-.448-.937-.042,0,.551.389.578,1.86,1.231a3.139,3.139,0,0,0-.07-.392c-.042-.279-.321-.531-.853-.8" transform="translate(584.728 322.227)" fill="#fff"/>
    <path id="Path_858" data-name="Path 858" d="M127.836,16.3a2.365,2.365,0,0,0,1.329,1.329c1.007.126.489-.937-.63-1.329-.741-.252-.8-.252-.7,0" transform="translate(584.728 322.227)" fill="#fff"/>
    <path id="Path_863" data-name="Path 863" d="M142.271,19.711c0-.821-1.643-.255-1.049.154.448.294,1.049.21,1.049-.154" transform="translate(584.728 322.227)" fill="#fff"/>
    <path id="Path_864" data-name="Path 864" d="M137.6,27.543c-.471.02-.374,2,2.406,1.063,1.728-.62.133.38,4.238,0,3.367-.31,4.626-.221,4.279-.308-.643-.14-.265-.391.588-.391a1.851,1.851,0,0,0,1.413-.434c1.244-1.051,1.213.252,2.223.252a33.942,33.942,0,0,0,3.455-.616c.238-.041.364-.195.336-.377-.075-.424-.36-.314-4.294-.14-6.707.3-6.972.188-7.483.657-.815.752-3.152-.737-4.056.028-.417.394-1.282.266-3.1.266" transform="translate(584.728 322.227)" fill="#fff"/>
    <path id="Path_865" data-name="Path 865" d="M141.4,13.92c0,.35.266.433.769.238.669-.25-.769-1.026-.769-.238" transform="translate(584.728 322.227)" fill="#fff"/>
    <path id="Path_866" data-name="Path 866" d="M133.263,16.368c-.224,0-.322.685-.154,1.049.114.249,4.041,0,4.63-.518l.419-.349-.447-.42c-.574-.5-2.364-.657-2.546-.21-.282.776-1.953-.363-1.748.182.056.168,0,.266-.154.266" transform="translate(584.728 322.227)" fill="#fff"/>
    <path id="Path_867" data-name="Path 867" d="M145.991,15.92c-.547.225.8.932,1.3.433.345-.4,3.971.1,4.252-.335.154-.31,1.153-.484,1.622-.643L152.789,15c-.4-.4-1.73-.686-1.525.056.167.716-1.411.373-1.888.182-.923-.392-1.287-.336-1.6.237-.467.935-.878.116-1.79.448" transform="translate(584.728 322.227)" fill="#fff"/>
    <path id="Path_868" data-name="Path 868" d="M137.725,14.284c0-.847-4.255-.85-3.972-.154.1.252,3.972.406,3.972.154" transform="translate(584.728 322.227)" fill="#fff"/>
    <path id="Path_870" data-name="Path 870" d="M137.137,20.83c.377-.987-1.476-.647-2.21-.518-2.15.379-5.245.184-5.245.966,0,.484,1.54.372,1.665.154.248-.348,5.557.029,5.79-.6" transform="translate(584.728 322.227)" fill="#fff"/>
    <path id="Path_882" data-name="Path 882" d="M146.383,6.059a.326.326,0,0,0,.406.07c1.066-.451,2.149.462,2.363-.182.182-.461-.223-.629-1.286-.5-.724.075-1.452.045-1.287.294.042.069-.321.1-.2.321" transform="translate(584.728 322.227)" fill="#fff"/>
    <path id="Path_883" data-name="Path 883" d="M256.653,2.689c3.5-.11,4.646.393,8.532-.056,6.668-.722,5.5.321,6.238.014.621-.26,2.369-.227,2.769-.728.2-.251.238-.265.154-.041-.154.447.364.517.811.1l.406-.377a4.746,4.746,0,0,0-2.5.014c-1.147.28-2.21.21-2.335-.154-.084-.252-2.658-.2-3.161.084-.475.256-1.765-.2-2.854.21-.9.3-8.9-.19-8.364.615.191.288-.936.322.308.322" transform="translate(584.728 322.227)" fill="#fff"/>
    <path id="Path_888" data-name="Path 888" d="M254.332,2.647c.344-.383.38.026.671-.448.389-.611-1.866.146-1.412.168.126.014.168.126.112.28-.126.335.349.335.629,0" transform="translate(584.728 322.227)" fill="#fff"/>
    <path id="Path_896" data-name="Path 896" d="M149.166,13.78c.183-.368,1.863.272,2.07-.28a.366.366,0,0,0-.224-.461,9.274,9.274,0,0,0-3.231-.014c-.232.435,1.163,1.088,1.385.755" transform="translate(584.728 322.227)" fill="#fff"/>
    <path id="Path_897" data-name="Path 897" d="M183.475,7.276c-.112.448.07.658.671.741.309.04,31.47-.628,31.47-1.4,0-.4.818-.56.07-.56-.659,0-.7.461-1.147.252a7.678,7.678,0,0,0-3.86-.168c-2.426.3.177-.455-5.623-.014-8.625.642-4.652.044-18.294.35-2.35.042-3.133.238-3.287.8" transform="translate(584.728 322.227)" fill="#fff"/>
    <path id="Path_908" data-name="Path 908" d="M214.959,3.066a1.007,1.007,0,0,0,.322-.028c.161-.081.353.632.587.476a.209.209,0,0,1,.266.084c.186.309,9.441.426,9.441-.35,0-.294,1.259-.406,1.441-.112.055.1.014.126-.084.056-.31-.194-.921.463,1.119.308,1.224-.093,4.965-.084,4.965-.252,0-.116,3.982.22,4.1.224,2.34.1,2.36-.481,5.007-.2A8.239,8.239,0,0,0,245.842,3c.1,0,.181-.168.2-.363.037-.471-30.459.159-30.77.251-.294.1-.434.168-.308.182" transform="translate(584.728 322.227)" fill="#fff"/>
    <path id="Path_910" data-name="Path 910" d="M200.091,3.486c.428-.921-2.609-.071-1.874.182.14.042,1.517.587,1.874-.182" transform="translate(584.728 322.227)" fill="#fff"/>
    <path id="Path_911" data-name="Path 911" d="M193.182,3.332c-.476-.2-.643.026-1.007-.266-.6-.482-3.81.419-2.308.882.492.149,5.793.053,5.875-.434.055-.252.1-.266.209-.07.229.343.726-.1-.154-.266-.317-.063-1.944-1.049-1.944-.447,0,.1.084.168.21.168.293,0-.468.591-.881.433" transform="translate(584.728 322.227)" fill="#fff"/>
    <path id="Path_912" data-name="Path 912" d="M188.175,3.248c-.788,0-.807.35-.112.35.294,0,.921-.35.112-.35" transform="translate(584.728 322.227)" fill="#fff"/>
    <path id="Path_931" data-name="Path 931" d="M152.145,22.732c0-.2-1.133-.453-1.133-.63,0-.2-.813-.112-.559-.028.112.056.167.168.112.252-.166.289,1.58.91,1.58.406" transform="translate(584.728 322.227)" fill="#fff"/>
    <path id="Path_932" data-name="Path 932" d="M267.157,24.172c-1.441.755-1.427.741-1.105.937,1.116.71,2.006-.531,3.049-.531,1.147,0,1.5-.392.741-.812-.657-.378-1.44-.251-2.685.406" transform="translate(584.728 322.227)" fill="#fff"/>
    <path id="Path_937" data-name="Path 937" d="M257.493,24.746c0,.4,1.91,1.084,2.741.252.778-.745,5.3-.04,5.3-1.329,0-.309-8.042.321-8.042,1.077" transform="translate(584.728 322.227)" fill="#fff"/>
    <path id="Path_943" data-name="Path 943" d="M252.318,23.5c-.267.042-.379.126-.267.21.7.4,1.066-.37.267-.21" transform="translate(584.728 322.227)" fill="#fff"/>
    <path id="Path_955" data-name="Path 955" d="M326.866,18.284l-.406.335.434-.112c1.081-.254.988-1.065-.028-.223" transform="translate(584.728 322.227)" fill="#fff"/>
    <path id="Path_960" data-name="Path 960" d="M283.354,25.459c.6,0,.6,0,.322-.616-.5-1.139-1.4.616-.322.616" transform="translate(584.728 322.227)" fill="#fff"/>
    <path id="Path_962" data-name="Path 962" d="M280.375,23.948c-.574-.65-5.315.468-8.168.168-1.961-.2-1.319,1.026-.937.923,1.035-.28,1.44-.294,1.818-.014.882.6,2.606-.266,3.721-.266a22.308,22.308,0,0,0,3.552-.447c.21-.07.21-.126.014-.364" transform="translate(584.728 322.227)" fill="#fff"/>
    <path id="Path_972" data-name="Path 972" d="M308.474,2.9c.993,0,1.119-.028,1.119-.336,0-1.269-4.749.336-1.119.336" transform="translate(584.728 322.227)" fill="#fff"/>
    <path id="Path_973" data-name="Path 973" d="M316.194,2.745c.215-.5-7.21-.665-6.308.238a31.475,31.475,0,0,0,6.308-.238" transform="translate(584.728 322.227)" fill="#fff"/>
    <path id="Path_974" data-name="Path 974" d="M359.008,8.843c-.741,0-1.1.844-.546.643a1.782,1.782,0,0,1,.616-.112c.428,0,.49-.531-.07-.531" transform="translate(584.728 322.227)" fill="#fff"/>
    <path id="Path_975" data-name="Path 975" d="M342.461,5.081c0-.335-.727-.28-.839.056-.083.276.839.318.839-.056" transform="translate(584.728 322.227)" fill="#fff"/>
    <path id="Path_976" data-name="Path 976" d="M329.076,3.43c-.127.223-.487.214-.364.028.473-.728-1.544-.341-.825.378.385.384,1.757-.184,1.371-.238-.1,0-.056-.07.084-.168.368-.234-.115-.211-.266,0" transform="translate(584.728 322.227)" fill="#fff"/>
    <path id="Path_977" data-name="Path 977" d="M319.146,3.472c1.806-.03,4.688.49,5.776.2.622-.162.073-.769-.349-.769-.8-.054-4.615-.061-5.469-.224-.35-.084-3.482.8.042.8" transform="translate(584.728 322.227)" fill="#fff"/>
    <path id="Path_979" data-name="Path 979" d="M337.174,13.962c.07-.433-.154-.489-.671-.21-.632.332-.437-.942-1.3-.014-.336.378-.28.434.615.588s1.3.042,1.357-.364" transform="translate(584.728 322.227)" fill="#fff"/>
    <path id="Path_980" data-name="Path 980" d="M347.189,5.794c1.052-.188,2.82.783,3.231.783.238,0,.434.056.434.14,0,.238,2.979-.1,3.692-.406,2.249-1.035-2.09-.391-2.853-.811-.845-.474-4.3-.274-4.882-.588-.545-.335-2.951-.1-2.951.28,0,.308,2.462.742,3.329.6" transform="translate(584.728 322.227)" fill="#fff"/>
    <path id="Path_981" data-name="Path 981" d="M333.342,13.249c-.462.07-.573.518-.154.7,1.276.577,1-.812.154-.7" transform="translate(584.728 322.227)" fill="#fff"/>
    <path id="Path_982" data-name="Path 982" d="M323.7,12.424c-.309-.309-1.516.616-.783.616.349,0,.937-.462.783-.616" transform="translate(584.728 322.227)" fill="#fff"/>
    <path id="Path_983" data-name="Path 983" d="M330.069,13.053c-.685-.02-1.774.686-.448.686.476,0,.616-.056.532-.239-.118-.392.491-.411-.084-.447" transform="translate(584.728 322.227)" fill="#fff"/>
    <path id="Path_987" data-name="Path 987" d="M358.015,6.311c0,.154.07.266.14.266s.14.182.14.391c-.028.574,1.091.644,1.832.113.448-.308.574-.336.7-.14a1.122,1.122,0,0,1,.154.363c0,.2,2.131.213,2.294.294.266.084.727-.476.629-.755-.266-.622-.455.419-1.118.181-.294-.112-.294-.139,0-.349.834-.607-.159-.312-2.476-.644-1.553-.209-2.294-.112-2.294.28" transform="translate(584.728 322.227)" fill="#fff"/>
    <path id="Path_988" data-name="Path 988" d="M361.427,8.829c-.41-.41-2.539.713-1.091.713.545,0,1.315-.5,1.091-.713" transform="translate(584.728 322.227)" fill="#fff"/>
    <path id="Path_991" data-name="Path 991" d="M353.735,8.6c-.519-.353-5.047-.792-5.525-.363-.377.349-.447.783-.112.8,3.644.189,5.371,1,5.371.377,0-.308.434-.266.714.07.357.408,3.229.218,3.1-.7-.1-.595-1.7-.211-2.28-.07-.7.168-.881.154-1.273-.112" transform="translate(584.728 322.227)" fill="#fff"/>
    <path id="Path_992" data-name="Path 992" d="M357.609,6.395c.224,0,.238-.042.056-.266-.252-.308-1.86-.294-1.8.014.061.428-.872.3-.1.713.6.336,1.357-.461,1.846-.461" transform="translate(584.728 322.227)" fill="#fff"/>
    <path id="Path_993" data-name="Path 993" d="M225.085,13.654c-.2.518.657.616,1.049.14.384-.46-.466.547,3.5.224a6.985,6.985,0,0,1,2.629.237c.266.015,1.105-.363,1.105-.5a6.279,6.279,0,0,0-2.322-1.049c-.85,0-.7.406-3.832.6-1.427.085-2.07.2-2.126.35" transform="translate(584.728 322.227)" fill="#fff"/>
    <path id="Path_994" data-name="Path 994" d="M224.61,11.3a7.92,7.92,0,0,0,2.28-.182c.224-.112.363-.112.433,0,.189.3.645-.264.854-.056.186.187.275-.293-.462-.293-2.5,0-1.86-.585-3.1.531" transform="translate(584.728 322.227)" fill="#fff"/>
    <path id="Path_995" data-name="Path 995" d="M226.89,6.395c.154,0,.084-.1-.168-.252-.623-.312-.49-.031-1.259.14-.64.172-.513.811.322.811.783,0,1.427-.321,1.091-.531-.21-.126-.21-.154.014-.168" transform="translate(584.728 322.227)" fill="#fff"/>
    <path id="Path_996" data-name="Path 996" d="M235.142,24.522c-.713-.21-1.483.1-1.4.545.1.509.721.084,2.63.322,1.936.216.707-.54,3.58-.475.63.014.756.083.756.363,0,.364.265.448.769.252.252-.1.252-.14-.028-.35s-.294-.238,0-.238c.322-.013.685-.671.518-.937-.155-.309-6.541.6-6.826.518" transform="translate(584.728 322.227)" fill="#fff"/>
    <path id="Path_997" data-name="Path 997" d="M231.212,6.115c-.21.07-.294.014-.294-.238,0-.57-2.379.316-1.72.727.869.508,2.673-.708,2.014-.489" transform="translate(584.728 322.227)" fill="#fff"/>
    <path id="Path_998" data-name="Path 998" d="M223.505,6.437c-.35-.028-.392.042-.322.406.2,1.19,1.36-.312.322-.406" transform="translate(584.728 322.227)" fill="#fff"/>
    <path id="Path_1000" data-name="Path 1000" d="M218.9,5.738c-.451-.044-2.156.292-1.357,1.091.546.545,2.782-.958,1.357-1.091" transform="translate(584.728 322.227)" fill="#fff"/>
    <path id="Path_1009" data-name="Path 1009" d="M245.506,24.242c.825.2,1.091.182,1.189-.056.056-.154-.14-.2-.811-.14-.8.07-.84.084-.378.2" transform="translate(584.728 322.227)" fill="#fff"/>
    <path id="Path_1014" data-name="Path 1014" d="M225.379,25.039c.322-.042.392.014.336.266-.353,1.146,1.206,1,1.58.462.224-.35.308-.364.63-.183.421.267,4.429.273,4.643-.489.441-1.324-2.645-.431-2.769.042s-.56.308-.5-.2c.074-.685-1.039-.182-3.58-.182a1.061,1.061,0,0,0-.658.154c-.042.1.1.14.322.126" transform="translate(584.728 322.227)" fill="#fff"/>
    <path id="Path_1015" data-name="Path 1015" d="M135.263,28.075c-.294,0-.713.5-.6.7.189.316,1.27.211.951-.363-.1-.182-.252-.336-.35-.336" transform="translate(584.728 322.227)" fill="#fff"/>
    <path id="Path_1017" data-name="Path 1017" d="M163.237,22.088a.81.81,0,0,0,.364.042c1.171,0-.839-1.535-.364-.042" transform="translate(584.728 322.227)" fill="#fff"/>
    <path id="Path_1020" data-name="Path 1020" d="M144.718,14.9c.2.49,1.231.532,1.231.042s-1.528-.848-1.231-.042" transform="translate(584.728 322.227)" fill="#fff"/>
    <path id="Path_1021" data-name="Path 1021" d="M154.313,13.039c-.42,0-.434.307-.028.405.9.238.385-.405.028-.405" transform="translate(584.728 322.227)" fill="#fff"/>
    <path id="Path_1022" data-name="Path 1022" d="M158.187,26.676c-.224.14-.2.182.112.182.939,0,.707,1.192,2.462.265,1.183-.635.373-.129,2.223.112s1.54-.414,3.917-.35c2.831.125,1.84-1.328-3.917-.559-3.234.433-4.036-.354-4.615.014-.154.084-.2.154-.1.168s.056.084-.084.168" transform="translate(584.728 322.227)" fill="#fff"/>
    <path id="Path_1023" data-name="Path 1023" d="M157.516,14.563c-.392-.364-.727-.377-.727-.042,0,.917-1.581.062-1.581.8,0,.308.182.434.574.364a.118.118,0,0,1,.126.126,8.7,8.7,0,0,0,3.258-.154c1.152-.345,4.994.4,5.357-.265.182-.322.644-.308,1.133.027.35.238.392.238.56-.1.259-.467,1.46-.414,1.65-.224a4.137,4.137,0,0,0,2.2-.181c.2-.168.224-.154.112.014-.262.419.657.144.028-.252-.041-.026-2.459-.269-2.923-.378-3.125-.737-4.314.949-6.546-.056-.963-.427-2.578.9-3.217.322" transform="translate(584.728 322.227)" fill="#fff"/>
    <path id="Path_1024" data-name="Path 1024" d="M161.712,12.647c-.056.392-.042.392,2.378.392,2.576,0,2.711.036,2.531-.5-.07-.266-.237-.307-1.16-.266-1.567.071-1.539.071-1.441.224.29.436-2.145-.985-2.308.154" transform="translate(584.728 322.227)" fill="#fff"/>
    <path id="Path_1025" data-name="Path 1025" d="M209.784,21.081c.734,0,.364-.518-.126-.518-.419,0-.9.518.126.518" transform="translate(584.728 322.227)" fill="#fff"/>
    <path id="Path_1027" data-name="Path 1027" d="M209.9,28.648c-.322.042-.1.07.476.084,1.353,0,.343-.158-.476-.084" transform="translate(584.728 322.227)" fill="#fff"/>
    <path id="Path_1028" data-name="Path 1028" d="M215.966,14.438c.267.148,5.184.025,5.049-.21-.056-.084.056-.2.252-.252.685-.182.21-.545-.727-.559-1.475,0-1.745-.682-2.909-.294-1.022.364-2.029.419-1.973.112.082-.352.143.017-4.769.084-5.449.122-4.069.632-6.6.867-1.454.14-1.748.4-.783.727,1.132.4,4.829-.279,8.672-.279,3.176-.045,3.082-.566,3.79-.2" transform="translate(584.728 322.227)" fill="#fff"/>
    <path id="Path_1032" data-name="Path 1032" d="M222.526,13.039c.21-.126.182-.168-.126-.168-.507,0-.663.35-.433.35.1,0,.125.154.083.335-.141.54.582.324.966.518.251.112,1.608-.993,1.608-1.329s-.951-.266-1.455.126a1.529,1.529,0,0,1-.671.35c-.182,0-.182-.042.028-.182" transform="translate(584.728 322.227)" fill="#fff"/>
    <path id="Path_1035" data-name="Path 1035" d="M309.243,25.095a8.669,8.669,0,0,0-3.077.014c-.238.1-.42.294-.42.462,0,.237.126.265.965.167a6.859,6.859,0,0,0,2.532-.643" transform="translate(584.728 322.227)" fill="#fff"/>
    <path id="Path_1041" data-name="Path 1041" d="M310.012,25.8c.182.294,2.028.224,2.853-.112,2.618-1.1-3.349-.676-2.853.112" transform="translate(584.728 322.227)" fill="#fff"/>
    <path id="Path_1043" data-name="Path 1043" d="M304.893,25.5a.324.324,0,0,1-.2-.294c0-1.237-4.347-.677-4.755-.42s-1.021.239-1.021-.041c0-.084-.35-.168-.77-.168-1.191,0-.7-.447-1.622-.084-.741.308-1.4.336-1.483.07s-3.734-.364-4.489-.126c-.448.14-.63.14-.728-.028-.181-.294-.951-.154-1.007.2-.176.911,7.652.387,10.532.811a36.18,36.18,0,0,0,5.539.084" transform="translate(584.728 322.227)" fill="#fff"/>
    <path id="Path_1048" data-name="Path 1048" d="M294.753,16.214c.35.224.671.182.671-.084,0-.328-.994-.131-.671.084" transform="translate(584.728 322.227)" fill="#fff"/>
    <path id="Path_1052" data-name="Path 1052" d="M287.844,24.494a.812.812,0,0,0-.643-.965,15.994,15.994,0,0,1-1.875.783c-.8.173-1,.824-1.272,1.133,3.2-.737,3.616-.277,3.79-.951" transform="translate(584.728 322.227)" fill="#fff"/>
    <path id="Path_1055" data-name="Path 1055" d="M323.5,17.445c-.14-.126-.965.294-.965.49,0,.447,1.349.022.965-.49" transform="translate(584.728 322.227)" fill="#fff"/>
    <path id="Path_1056" data-name="Path 1056" d="M313.439,11.822c.434-.238.461-.755.042-.629-1.081.27-2.14.153-2.14.643,0,.224,1.678.209,2.1-.014" transform="translate(584.728 322.227)" fill="#fff"/>
    <path id="Path_1057" data-name="Path 1057" d="M310.208,11.808c.154-.252-.252-.685-.643-.685-.322,0-.462.5-.21.755a.692.692,0,0,0,.853-.07" transform="translate(584.728 322.227)" fill="#fff"/>
    <path id="Path_1058" data-name="Path 1058" d="M324.712,17.725c-.434.084-.546.224-.322.448.328.327,1.284-.646.322-.448" transform="translate(584.728 322.227)" fill="#fff"/>
    <path id="Path_1061" data-name="Path 1061" d="M276.808,11.822c.134-.234-.434-.258-.434.028,0,.445-.951.958-.517,1.091.937.266,29.629.317,31.889.979.43.143,6.289.813,7.357.545,1.934-.513.691.854,1.889.854,1.138,0,.135-.532,1.692-.532,1.37,0,.815.532,1.329.532.349,0,1.468-.868,1.468-1.133,0-.294-1.021-.434-1.622-.224-1.1.367.219-.579-4.714-.434-2.769.07-3.119.056-3.217-.209-.084-.21-.251-.252-.685-.169-.9.157-.362-.324-1.664-.153-1.4.136-.968-.376-3.553-.266-3.183.18-3.791-.5-6.839-.42-1.271.027-8.725-.569-9.581-.112a.486.486,0,0,1-.6-.056,4.394,4.394,0,0,0-1.874-.279c-10.076-.323-10.713.583-10.322-.042" transform="translate(584.728 322.227)" fill="#fff"/>
    <path id="Path_1062" data-name="Path 1062" d="M290.7,2.395c.266-.5.238-.518-.406-.322-1.318.4-.008,1.066.406.322" transform="translate(584.728 322.227)" fill="#fff"/>
    <path id="Path_1077" data-name="Path 1077" d="M200.721,3.92a1.6,1.6,0,0,1,.769.1,1.968,1.968,0,0,0,1.539-.294c.112-.139.573-.181,1.314-.139,4.824.217,5.845.238,6.518-.154a8.425,8.425,0,0,1,2.434-.462c-.509-.255.346-.769-1.133-.769-1.935,0-.051.647-4.937.573-6.043-.1-8.065,1.267-6.5,1.147" transform="translate(584.728 322.227)" fill="#fff"/>
    <path id="Path_1078" data-name="Path 1078" d="M249.017,2.689c.084-.238.168-.28.322-.154.309.263,2.648.706,3.091-.182.268-.479.176-.324-3.469-.07-1.2.084-.233,1.337.056.406" transform="translate(584.728 322.227)" fill="#fff"/>
    <path id="Path_1079" data-name="Path 1079" d="M106.758,11.584l.42-.238-.42-.377c-.518-.49-1.427-.448-1.525.056-.1.451.568,1.088,1.525.559" transform="translate(584.728 322.227)" fill="#fff"/>
    <path id="Path_1085" data-name="Path 1085" d="M23.916,34.257a.285.285,0,0,0-.308-.238c-.7,0-1.091-.351-1.091.07,0,.266-.195.364-.643.308a.345.345,0,0,0-.35.475,4.193,4.193,0,0,0,2.392-.615" transform="translate(584.728 322.227)" fill="#fff"/>
    <path id="Path_1087" data-name="Path 1087" d="M82.506,30.62c-.224-.07-.378-.042-.378.07,0,.506,3.56-.1,2.448-.168-.238,0-.238-.014,0-.168.392-.252.07-.21-.615.07-.811.338-.869-.023-.56-.126.274-.137-.783-.243-.629.168.084.224.028.252-.266.154" transform="translate(584.728 322.227)" fill="#fff"/>
    <path id="Path_1088" data-name="Path 1088" d="M79.708,30.774a.381.381,0,0,0,.014.671c.309.1.438-.278.154-.35a.177.177,0,0,1-.084-.266c.07-.1.042-.125-.084-.055" transform="translate(584.728 322.227)" fill="#fff"/>
    <path id="Path_1090" data-name="Path 1090" d="M87.289,27.026q-.441,0-.336.252c.2.506,1.385-.252.336-.252" transform="translate(584.728 322.227)" fill="#fff"/>
    <path id="Path_1092" data-name="Path 1092" d="M74.883,31.571c.285-.467-1.759-1.227-1.105-.168.238.377.909.475,1.105.168" transform="translate(584.728 322.227)" fill="#fff"/>
    <path id="Path_1093" data-name="Path 1093" d="M91.051,29.445c0,.112-.168.21-.35.21-.416,0-.693.321.518.321,1.421,0,.534-.465,1.175-.839.67-.351-1.049-.176-.756.322.168.266-.125.252-.377-.014-.168-.168-.21-.168-.21,0" transform="translate(584.728 322.227)" fill="#fff"/>
    <path id="Path_1095" data-name="Path 1095" d="M92.856,16.857c.368.625,2-.328.643-.531-.279-.042-.475-.015-.433.056.108.18-.386.192-.21.475" transform="translate(584.728 322.227)" fill="#fff"/>
    <path id="Path_1096" data-name="Path 1096" d="M81.079,17.683c0,.126.21.392.462.6.573.447.657.447,1.72-.071,1.139-.521,1.5-.558,1.5-.867,0-.209-3.678-.189-3.678.336" transform="translate(584.728 322.227)" fill="#fff"/>
    <path id="Path_1097" data-name="Path 1097" d="M98.045,12.787c-.682.562-12.578,1.011-12.364,2.126.1.574-.112.643-.56.168a1.138,1.138,0,0,0-1.105-.35,51.136,51.136,0,0,0-5.72.406,42.852,42.852,0,0,0-5.175,1.216c-.4.34-2.7,1.452-2.7.91,0-1.057-5,.918-6.252.139-.349-.21-.419-.195-.755.154-.639.685-1.217.029-1.217.853,0,.6-.051.149,1.063.588,1.161.444.583.18,1.343-.14a4.593,4.593,0,0,0,.755-.406c.364-.279,1.217-.069,1.217.294,0,.182.1.238.35.154.474-.136.472.266-.042.266a3.543,3.543,0,0,0-1.175.391c-1.2.576-12.847.823-12.966.616a3.586,3.586,0,0,0-2.21-.1c-.469.352-2.489-1.23-2.489-.56,0,.2-1.231.141-1.231.308A2.484,2.484,0,0,1,45.721,20c-1.287.07-1.357.1-1.357.671,0,.867-.279,1.119-1.273,1.091-4.018-.112-2.154-1.371-2.545-1.692l-.839.168c-1.345.247-.653-.21-1.847-.21-1.277,0-.43-.867-1.58-.867-1.134,0-1.586-1.148-2.392-.462a5.855,5.855,0,0,1-2.783.672c-1.439-.049-1.7-.925-2.014-.616-.056.056-.112-.014-.112-.154,0-.266.965-.839,1.4-.839.322,0-.263-.191.6-.587.685-.336.979-.364.979-.1,0,.334,3.068-.3,3.511-.462,3.7-1.357,2.892,0,4.867.084a2.876,2.876,0,0,1,1.175.21c.309.251,6.346.022,7.357-.714,1.131-.826.838.355,3.818-.013.384-.044,49.14-4.188,50.31-4.938.659-.447,1.538.053,1.469.378s-.476.406-3.888.727a9.5,9.5,0,0,0-2.532.434" transform="translate(584.728 322.227)" fill="#fff"/>
    <path id="Path_1098" data-name="Path 1098" d="M54.421,18.732a5.893,5.893,0,0,1-1.414-.308,6.3,6.3,0,0,0-2.4.42c-.9.5,1.286,1,1.286.405,0-.335.4-.335.686,0,.361.4.522-.1.558.476.027.693-.087-.176.728-.657Z" transform="translate(584.728 322.227)" fill="#fff"/>
    <path id="Path_1099" data-name="Path 1099" d="M55.553,18.494c-1.077.07-1.259.294-.573.714.6.377.545.377,1.258-.056.77-.476.518-.728-.685-.658" transform="translate(584.728 322.227)" fill="#fff"/>
    <path id="Path_1100" data-name="Path 1100" d="M87.9,17.654c-1.717.33-1.856.62-1.972.126-.127-.476.95-1.119,1.691-1.021,1.035.155,1.679-.607,1.679-.294,0,.042.154.014.335-.1.507-.266,1.61.618-1.733,1.287" transform="translate(584.728 322.227)" fill="#fff"/>
    <path id="Path_1101" data-name="Path 1101" d="M86.59,17.417c.135.236.216.233.35,0,.056-.1-.482-.231-.35,0" transform="translate(584.728 322.227)" fill="#fff"/>
    <path id="Path_1102" data-name="Path 1102" d="M77.652,16.689c-.173-.655,1.143.527,1.846.07,1.184-.739.689.322,1.077,1.049.368.651.165-.228-2.811.8-1.205.379-5.949.3-7.875.714-.951.223-1.133.223-1.286.084-.3-.31.116-2.14.979-1.119.391.461.559.447,1.608-.084,1.352-.676,1.316-.227,2.014-1.091.651-.775.261-.411,1.357.308a1.889,1.889,0,0,0,1.525.405c1.186-.21.6.392,1.454.392.519.02.4-.366.112-1.525" transform="translate(584.728 322.227)" fill="#fff"/>
    <path id="Path_1103" data-name="Path 1103" d="M79.862,17.235c.232,0,.211-.35,0-.35-.1,0-.253.35,0,.35" transform="translate(584.728 322.227)" fill="#fff"/>
    <path id="Path_1104" data-name="Path 1104" d="M26.531,16.913c0-.28-.532-.377-.867-.168-1.435.884,3.509.641,3.818.42,1.1-.665-1.85-.9-1.776-.308.028.126-.182.21-.56.21-.335,0-.615-.07-.615-.154" transform="translate(584.728 322.227)" fill="#fff"/>
    <path id="Path_1105" data-name="Path 1105" d="M103.835,24.578c-.913,0-1.206.565-1.86,1.091l.867-.126c1.719-.239,1.982-.965.993-.965" transform="translate(584.728 322.227)" fill="#fff"/>
    <path id="Path_1106" data-name="Path 1106" d="M105.43,17.683c-.559.1-1.091.49-1.091.8,0,.643,5.307-1.572,1.091-.8" transform="translate(584.728 322.227)" fill="#fff"/>
    <path id="Path_1107" data-name="Path 1107" d="M102.549,28.466c.041.2.209.265.53.224.822-.091,1.022-.01.728-.35-.308-.364-1.371-.266-1.258.126" transform="translate(584.728 322.227)" fill="#fff"/>
    <path id="Path_1109" data-name="Path 1109" d="M106.227,14.284c-.737.163-1.126-.473-2.112.112-1.077.64-1.637-.2-2.28.363-.266.224-.377.238-.657.07-.972-.615-1.511.7-2.546.63-.335-.014-.671.042-.741.154-.2.28-2.484-.024-2.378.293.313.836.264,1.161.937,1.161,1.021,0-.121-.44,2.308-.7,4.265-.4,4.231-1.605,4.77-.783.642.948.977-.266,2.349-.266.434,0,.728-.084.728-.2s.154-.07.349.112c.881.793-.062-1.072-.727-.951" transform="translate(584.728 322.227)" fill="#fff"/>
    <path id="Path_1110" data-name="Path 1110" d="M66.379,32.075c-.21-.336-3.259-.321-3.888.014-1.191.626.12.553,1.412.462,3.442-.186,2.165-.08,3.315-.546-.712-.506-.825-.692-.825-.335,0,.154.084.238.168.167.112-.056.14.014.07.183-.084.223-.14.237-.252.055" transform="translate(584.728 322.227)" fill="#fff"/>
    <path id="Path_1111" data-name="Path 1111" d="M14.852,35.991c-1.469.126-3.175,1.525-2.6,2.14.6.638,5.721-1.478,5.721-2.182,0-.854-1.911-.058-3.119.042" transform="translate(584.728 322.227)" fill="#fff"/>
    <path id="Path_1113" data-name="Path 1113" d="M46.756,29.459c-.294.294-.308.391-.126.629.28.336.42.336,1.483-.042,1.189-.433,1.189-.671,0-.825-.867-.112-1.049-.07-1.357.238" transform="translate(584.728 322.227)" fill="#fff"/>
    <path id="Path_1114" data-name="Path 1114" d="M1.048,35.431c.446-.014.488-.07.488-.685s.392-1.245.8-1.245c.309,0,3.23-2.113,6.238-3.483,1.189-.531,2.755-.741,2.755-.363,0,.227.518.231.518-.029,0-.111.056-.153.112-.1.1.1,1.3-.422,1.482-.294.2.112,1.2-.252,1.2-.448,0-.265,1.273-.517,1.622-.335a1.669,1.669,0,0,0,.9.084c2.289-.451,3.527.066,4.727.1,1.61,0,1.874-1.349,4.5-1.006,1.517.2,1.485-.6,1.86-.35,10.158-1.333,16.479-1.386,16.616-1.455,1.475-.805,8.146-1.008,9.819-1.049,2.331-.06,5.316-1.367.084-1.217-10.091.336-10.251-1.3-8.085-1.4,9.149-.505,9.928-1.065,10.966-.364,1.911,1.286,4.071-.526,5.259.224.615.392,3.231.587,3.608.265.294-.237,3.036.364,2.91.644-.133.311.071-.4,1.174-.545,1.177-.163,2.358-1.118,3.777-.112,1,.7.882.019,1.329.993l.293.6c3.72-.132,1.647,0,1.833-.308.056-.083-.364-.293-.91-.475-4.374-1.441.416-1.008,2.672-1.552,2.389-.58,6.441-.2,7.245-.7.516-.282,3.278-.019,3.734-.405.392-.336,1.063-.2,1.147.223.174,1.218,1.347,1.035,2.42.42l.615-.35.392.364c.378.363.713.489.546.2-.147-.222.322-.024.391-.266.056-.168-1.077-.616-1.58-.616a.285.285,0,0,1-.308-.237c0-.532,3.469-1.035,3.944-.573.322.335.322.629-.042.9-1,.729,1.693.9,1.693-.28,0-.506,1-.328,1.426-.2.567.212,1.508-.1,1.189-.126-.224-.014-.224-.042-.014-.182.625-.364-2.306-.086-1.79-.923a7.441,7.441,0,0,1,3.51-.237.944.944,0,0,1-.069.615c-.182.475-.168.5.4.6a9.87,9.87,0,0,0,2.854-.462c.88-.55,1.388,1.1.965,1.1-.322,0-.812.5-.686.714.163.325-.861.168-1.063-.714-.172-.787-.853-.183-1.3.448-2.076,3.059-8.828,1.56-10.993,2.434-1.786.722-2.594.164-4.126,1.077-.266.139-.532.139-1.119-.042-.755-.224-.811-.21-2.224.447-2.817,1.288-2.641.43-4.769,1.077-1.322.43-2.2-.433-3.5-.07-4.614,1.478-6.786.294-7.3.993-.365.5-3.567-.129-3.567.35s-1.476-.289-1.664.49c-.1.377-.238.447-1.007.545a3.391,3.391,0,0,1-.951.042c-.112-.112.154-.629.321-.629.2,0,.756-.518.658-.6-.123-.092-7.964,1.291-8.112,1.329-3.022.769-2.924.755-3.245.349-.509-.644-2.616-.332-2.616.071q0,.229-.294.125c-.167-.069-.237-.042-.167.07.112.182-.588.588-1.035.588-.322,0-.322-.336.014-.462.369-.147.329-.49.014-.363-.238.1-.979-.462-.979-.728,0-.363-2.448.316-2.448.518,0,.225-.518.232-.518-.112,0-.517-.867-.28-1.65.447-.738.695-4.248,2.411-4.546,1.637-.211-.542-5.674.26-6.126.629-.517.42-.28,1.035.336.868.311-.078,27.464-1.921,33.218-3.1.319-.064,11.834-.474,12.616-.952.89-.548,3.794.063,4.266-.251.815-.611,2.382.426,2.336-.266-.034-.411.33-.195.224.126-.14.313.5.739.783,1.049-21.126,1.985-18.4,2.67-19.134,2.377-1.892-.666-5.868.394-7.091.434-2.8.049-1.271.769-.364.769.993,0,1.385.126,1.385.448,0,.839-1.2.194-18,2.154-10.771,1.33-13.532.452-14.672,1.049a3.405,3.405,0,0,1-2.476-.168.232.232,0,0,0-.321-.084c-.179.112-1.6.118-1.6.294,0,.083-.168.125-.391.1-.5-.084-.532-.672-.042-.756.632-.089,1.789-.043,2.056-.377.449-.562-1.352-.979-.644-1.511.462-.354,1.469-.787,1.469-1.1a.215.215,0,0,1,.21-.21c.112,0,.168-.042.126-.084-.513-.383-1.148.847-8.9,1.2-2.559.13-4.378,1.163-4.378.854,0-.133-.517.37-.517.251,0-.317-2.389.553-3.329.168-2.031-.79-5.816,1.237-5.707,1.511s-.461.811-.839.811c-.14,0-.266.14-.308.308-.089.477-.349-.137-.195-.168a13.707,13.707,0,0,0-1.5-.126c-3-.2-1.777-1.231-.852-1.231" transform="translate(584.728 322.227)" fill="#fff"/>
    <path id="Path_1115" data-name="Path 1115" d="M26.867,34.369c-.216,0-.234.35.112.35.154,0,.131-.35-.112-.35" transform="translate(584.728 322.227)" fill="#fff"/>
    <path id="Path_1116" data-name="Path 1116" d="M86.478,23.207c.364-.238.07-.546-.518-.546-1.046,0-.272,1.047.518.546" transform="translate(584.728 322.227)" fill="#fff"/>
    <path id="Path_1117" data-name="Path 1117" d="M83.932,23.431c.176.462,1.064.328.6-.308a.338.338,0,0,0-.6.308" transform="translate(584.728 322.227)" fill="#fff"/>
    <path id="Path_1118" data-name="Path 1118" d="M82.114,22.941c.126-.154.028-.2-.42-.14-1.107.119-.175.829.42.14" transform="translate(584.728 322.227)" fill="#fff"/>
    <path id="Path_1119" data-name="Path 1119" d="M60.561,23.892c1.222-.428,1.7-.022,1.776-.769.07-.559-.07-.588-.489-.07-.591.73-1.276-.049-2.084.643-.6.518.1.406.8.2" transform="translate(584.728 322.227)" fill="#fff"/>
    <path id="Path_1120" data-name="Path 1120" d="M56.365,26.983a.385.385,0,0,0,.014-.336c-.107-.268-.172.463-.014.336" transform="translate(584.728 322.227)" fill="#fff"/>
    <path id="Path_1121" data-name="Path 1121" d="M6.069,34.438h.014c0-.28-.462-.322-.616-.07-.311.545.6.609.6.07" transform="translate(584.728 322.227)" fill="#fff"/>
    <path id="Path_1124" data-name="Path 1124" d="M93.317,26.242c0,.372.815.335.937,0,.07-.2-.937-.343-.937,0" transform="translate(584.728 322.227)" fill="#fff"/>
    <path id="Path_1127" data-name="Path 1127" d="M94.744,29.277c-.517.33-1.977-.354-1.161.434.224.238.336.238.937-.028.378-.154.658-.35.6-.42s-.21-.07-.378.014" transform="translate(584.728 322.227)" fill="#fff"/>
    <path id="Path_1128" data-name="Path 1128" d="M89.821,26.872c0,.2.881.21,1.189.014.608-.39-1.189-.4-1.189-.014" transform="translate(584.728 322.227)" fill="#fff"/>
    <path id="Path_1129" data-name="Path 1129" d="M109.934,15.067c1.94-.034,2.375-1.838,3.664-.7.364.307,3.2-.266,3.286-.658.14-.685-1.174-.923-2.182-.4-.558.293-1.622.349-1.622.084,0-.179-.8-.281-.35,0,.41.282-2.071.22-2.167-.043-.042-.111-.084-.041-.1.183-.031.6-.482.244-1.021.559a3.617,3.617,0,0,1-1.258.433c-.309.015-.365.462-.1.672a17.4,17.4,0,0,0,1.846-.126" transform="translate(584.728 322.227)" fill="#fff"/>
    <path id="Path_1130" data-name="Path 1130" d="M112.815,10.144c.294.28.965.392.965.153,0-.3-1.785-.973-.965-.153" transform="translate(584.728 322.227)" fill="#fff"/>
    <path id="Path_1131" data-name="Path 1131" d="M108.647,24.494c0-.279-.028-.279-.993-.294-3.109-.036.993,1.073.993.294" transform="translate(584.728 322.227)" fill="#fff"/>
    <path id="Path_1132" data-name="Path 1132" d="M114.787,9.682c-.283-.126-.93.1-.657.573.456.841,3.011.038,2.153-.615-.223-.168-.95.246-1.5.042" transform="translate(584.728 322.227)" fill="#fff"/>
    <path id="Path_1134" data-name="Path 1134" d="M139.823,6.661c.712.744,2.9-.126,3.777-.126,1.463,0-.263-.981-.448-.671-.221.346-2.037-.255-2.182,0-.07.112-.434.182-.811.182-.784,0-.826.1-.336.615" transform="translate(584.728 322.227)" fill="#fff"/>
    <path id="Path_1135" data-name="Path 1135" d="M108.493,10.633c-.224-.182-.28-.168-.35.1s0,.308.406.252c.587-.084.587-.1.21-.406-.252-.21-.28-.21-.14.014s.112.238-.126.042" transform="translate(584.728 322.227)" fill="#fff"/>
    <path id="Path_1137" data-name="Path 1137" d="M96.6,25.627c-.951,0-1.007.028-.853.336.18.315.444.547.8.447s1.077-.146,1.077-.518c0-.195-.224-.265-1.021-.265" transform="translate(584.728 322.227)" fill="#fff"/>
    <path id="Path_1138" data-name="Path 1138" d="M99.136,25.459c-.364,0-.378.028-.126.321.378.434,1.679.28,1.749-.209.081-.544-.535-.112-1.623-.112" transform="translate(584.728 322.227)" fill="#fff"/>
    <path id="Path_1139" data-name="Path 1139" d="M105.919,28.032l.42-.392-.574-.056c-1.672-.152-1.186,1.71.154.448" transform="translate(584.728 322.227)" fill="#fff"/>
    <path id="Path_1140" data-name="Path 1140" d="M71.288,31.235c0,.238-.727.574-.853.406-.2-.266-1.944-.5-1.944-.266,0,.713,1.748,1.094,1.748.713,0-.221.291.052.448-.167.055-.112.237-.141.405-.085,1.242.486,1.978-.106,1.749-.335-.168-.168-1.553-.406-1.553-.266" transform="translate(584.728 322.227)" fill="#fff"/>
    <path id="Path_1141" data-name="Path 1141" d="M174.272,12.731c0,.35.084.419.6.461s.616-.013.616-.321c0-.2-.1-.35-.224-.35-.622,0-.993-.452-.993.21" transform="translate(584.728 322.227)" fill="#fff"/>
    <path id="Path_1142" data-name="Path 1142" d="M178.86,12.577c.154.392,1.441.406,1.664.014.278-.472.269.28,1.063.28.336,0,.392-.042.224-.154-.563-.337.82-.355-1.986-.8-.587-.084-1.1.279-.965.657" transform="translate(584.728 322.227)" fill="#fff"/>
    <path id="Path_1143" data-name="Path 1143" d="M172.845,7.36c.081.566.1.633,3.343.518,3.063-.126,3.525-.252,3.091-.854-.412-.559-6.543-.291-6.434.336" transform="translate(584.728 322.227)" fill="#fff"/>
    <path id="Path_1144" data-name="Path 1144" d="M178.314,12.773c.06-.509-2.073-.822-1.427-.433.14.1.182.181.084.181-.443.064,1.28.881,1.343.252" transform="translate(584.728 322.227)" fill="#fff"/>
    <path id="Path_1145" data-name="Path 1145" d="M179.923,19.067c.35-.238.336-.252-.266-.252-1.283,0-.659.909.266.252" transform="translate(584.728 322.227)" fill="#fff"/>
    <path id="Path_1146" data-name="Path 1146" d="M181.867,7.514c.622-.589-1.935-1.11-1.762-.658a.287.287,0,0,1-.07.337c-.805.507,1.3.849,1.832.321" transform="translate(584.728 322.227)" fill="#fff"/>
    <path id="Path_1147" data-name="Path 1147" d="M196.916,14.41a.841.841,0,0,1,.643.112,3.046,3.046,0,0,0,1.273.2c1.108-.025,1.055-.419,1.525-.881l-.574-.168c-1.129-.329-1.62.949-2.727.168-.294-.21-.49-.21-.951-.056a15.459,15.459,0,0,1-2.6.237c-4.243.087-3.855.716-1.2.742.868,0,3.209.54,4.616-.35" transform="translate(584.728 322.227)" fill="#fff"/>
    <path id="Path_1148" data-name="Path 1148" d="M199.8,11.7c0-.512-.779.124-3.944-.21-1.357-.126-1.6-.112-1.791.126-.293.378-.279.448.182.658.313.15,5.553.59,5.553-.574" transform="translate(584.728 322.227)" fill="#fff"/>
    <path id="Path_1149" data-name="Path 1149" d="M182.217,14.843c.125-.35-.589-.909-1.022-.8-1.086.271-11.614-.087-7.188,1.189.6.253,5.145-.37,6.852-.266.924.056,1.287.028,1.358-.126" transform="translate(584.728 322.227)" fill="#fff"/>
    <path id="Path_1150" data-name="Path 1150" d="M187.391,12.2c.238.434,1.077.378,1.133-.084.126-.782-1.607-.77-1.133.084" transform="translate(584.728 322.227)" fill="#fff"/>
    <path id="Path_1151" data-name="Path 1151" d="M138.284,20.172c-.151,1.106,2.792-.308.923-.308-.821,0-.862-.179-.923.308" transform="translate(584.728 322.227)" fill="#fff"/>
    <path id="Path_1153" data-name="Path 1153" d="M140.005,16.1c-.462,0-.434.769.028.951,1.292.534.948-.116.727-.6-.134-.376.965-.28,1.077-.084.168.279.406.042.322-.308a2.836,2.836,0,0,0-1.553-1.091c-.139,0-.251.238-.293.573-.028.364-.14.56-.308.56" transform="translate(584.728 322.227)" fill="#fff"/>
    <path id="Path_1154" data-name="Path 1154" d="M134.7,10.6c-.979.252-1.091.378-.783.853.55.927.539-.5,1.734-.154.56.168,1.5.042,1.651-.21.248-.372,3.13.248,1.72-1.132-.7-.728-3.1.348-4.322.643" transform="translate(584.728 322.227)" fill="#fff"/>
    <path id="Path_1155" data-name="Path 1155" d="M138.145,6.479c-.414.571-.456-.294-1.525.1-1.026.326-5.835.518-6.029.616-.14.1.238.656.518.754.318.123,7.93-.248,7.93-1.188a.478.478,0,0,0-.894-.28" transform="translate(584.728 322.227)" fill="#fff"/>
    <path id="Path_1156" data-name="Path 1156" d="M126.158,8.1c-.168.14-.378.21-.476.14-.246-.141-1.928.007-1.818.448.149.521,3.552.284,3.735.056a.412.412,0,0,1,.433-.126,6,6,0,0,0,2.532-.294.926.926,0,0,0-.28-.42c-.35-.349-3.678-.2-4.126.2" transform="translate(584.728 322.227)" fill="#fff"/>
    <path id="Path_1157" data-name="Path 1157" d="M159.586,12.689c-8.176-.073,1.116,1.587,1.51.6.29-.725-.936-.569-1.51-.6" transform="translate(584.728 322.227)" fill="#fff"/>
    <path id="Path_1158" data-name="Path 1158" d="M161.251,3.78c-1.026.357,2.245,1.919,2.461.433a6.389,6.389,0,0,0-2.461-.433" transform="translate(584.728 322.227)" fill="#fff"/>
    <path id="Path_1159" data-name="Path 1159" d="M183.5,11.626a1.391,1.391,0,0,0-1.538.658c0,.251,3.093.168,1.538-.658" transform="translate(584.728 322.227)" fill="#fff"/>
    <path id="Path_1160" data-name="Path 1160" d="M123.864,12.563c.266.294.5.336,1.72.28,1.749-.07,2.112-.294,1.735-1.035-.6-1.153-.77.1-2.644.1-1.161,0-1.3.112-.811.657" transform="translate(584.728 322.227)" fill="#fff"/>
    <path id="Path_1161" data-name="Path 1161" d="M170.482,26.774c.747,1,27.958-.146,28.267-.1.042,0-.042.084-.182.182-.224.139-.224.168.042.168.435,0,.247-.409.462-.266a.157.157,0,0,0,.237-.1c.07-.238.728-.238,4.5.014,1.211.075,7.913.53,8.91-.126.671-.434.993-.49,1.091-.21.022.066,9.614.168,10.266-.168.538-.3.279-.8.279-1.146-19.7.725-50.144,1.144-50.533,1.132-1-.051-3.921-.2-3.343.616" transform="translate(584.728 322.227)" fill="#fff"/>
    <path id="Path_1162" data-name="Path 1162" d="M170.678,7.108c-.337.182-.615.168-1.47,0-1.645-.35-1.866.266-1.244.951.321.336.517.364,2.056.322,1.776-.056,2.168-.224,2.07-.881-.055-.434-.91-.657-1.412-.392" transform="translate(584.728 322.227)" fill="#fff"/>
    <path id="Path_1163" data-name="Path 1163" d="M165.558,3.892c-.042.014.07.238.238.489.321.476.671.476,1.748-.014,1.151-.555,1.739.74,1.622-.364-.055-.475-2.978-.485-3.608-.111" transform="translate(584.728 322.227)" fill="#fff"/>
    <path id="Path_1164" data-name="Path 1164" d="M185.21,14.955a2.364,2.364,0,0,0,.993.35,1.318,1.318,0,0,0,.49-.35c.587-.587.2-.783-1.469-.714-1.944.056-2.126.1-2.2.462-.121.635,1.818-.111,2.182.252" transform="translate(584.728 322.227)" fill="#fff"/>
    <path id="Path_1172" data-name="Path 1172" d="M246.989,12.619c-3.411.981,2.606-.927-9.175.21-2.117.207-2.683.068-1.888.951.474.538,2.035.175,2.769.489.968.4,1.926-.832,3.608-.531,2.773.506,10.586-.2,10.9-.2,1.506.041,2.043-.6,2.378-.4,1.391.833,7.368,0,8.042.223a2.753,2.753,0,0,0,1.147.029,27.281,27.281,0,0,1,3.763.027l.685-.685c2.192-2.193-1.864-.119-3.063-1.119-.434-.336-.476-.336-1.8-.028a20.206,20.206,0,0,1-5.916.224,1.822,1.822,0,0,0-1.259.084c-1.2.453-3-.106-4.965.28a34.649,34.649,0,0,0-5.217.447" transform="translate(584.728 322.227)" fill="#fff"/>
    <path id="Path_1174" data-name="Path 1174" d="M111.15,17.011c-.6.176-1.5.14-1.441.392.028.1-.181.195-.475.195-.378,0-.532.085-.532.28,0,.372.1.137,1.889-.112,1.216-.139,1.258-.961.559-.755" transform="translate(584.728 322.227)" fill="#fff"/>
    <path id="Path_1177" data-name="Path 1177" d="M306.544,2.2c.025-.418-1.761-.066-5.217-.252-1.245-.084-1.874-.056-1.874.056,0,.349-3.246.644.825.783,1.235.041,6.189.262,6.266-.587" transform="translate(584.728 322.227)" fill="#fff"/>
    <path id="Path_1178" data-name="Path 1178" d="M126.717,17.683c-.224-.224-.336-.5-.28-.6s0-.183-.154-.183c-.475,0,0,1.049-.615,1.049-.491,0-.738.3.993.49.406.056.434-.35.056-.755" transform="translate(584.728 322.227)" fill="#fff"/>
    <path id="Path_1180" data-name="Path 1180" d="M123.794,22.214c-.112-.294-1.1-.35-1.1-.07a.1.1,0,0,1-.168.084c-.1-.07-.182.056-.182.252,0,.783,1.584.018,1.455-.266" transform="translate(584.728 322.227)" fill="#fff"/>
    <path id="Path_1182" data-name="Path 1182" d="M114.927,26.928c.126.335.42.35.839.055.9-.662-1.354-1.409-.839-.055" transform="translate(584.728 322.227)" fill="#fff"/>
    <path id="Path_1183" data-name="Path 1183" d="M120.424,26.816a1.077,1.077,0,0,0,1.4-.322.678.678,0,0,1,.531-.335c.858,0-.316-1.223-.615-.714-.238.358-1.07.164-1.231.728-.126.377-.448.433-.741.14s-1.777.321-1.049.6c.957.4,1.148-.433,1.707-.1" transform="translate(584.728 322.227)" fill="#fff"/>
    <path id="Path_1184" data-name="Path 1184" d="M120.507,18.815a.5.5,0,0,1,.406-.168.729.729,0,0,0,.5-.336,1.289,1.289,0,0,1,.741-.433c1.265-.257.076-.854-1.692-.56-.993.14-1.091.308-.755,1.218.182.461.6.6.8.279" transform="translate(584.728 322.227)" fill="#fff"/>
    <path id="Path_1187" data-name="Path 1187" d="M124.354,17.878c-.168-.056-.238-.042-.182.07.07.084-.042.168-.238.168-.377,0-.6.223-.419.42.168.167.853.055.783-.141-.14-.28.541-.323.056-.517" transform="translate(584.728 322.227)" fill="#fff"/>
    <path id="Path_1188" data-name="Path 1188" d="M115.948,23.417c.084-.238-.014-.266-.643-.182-2.315.319-3.273.357-3.273.867,0,.392,3.748-.266,3.916-.685" transform="translate(584.728 322.227)" fill="#fff"/>
    <path id="Path_1190" data-name="Path 1190" d="M110.787,24.214l-.6.167.783.015c1.144.029.53-.411-.182-.182" transform="translate(584.728 322.227)" fill="#fff"/>
    <path id="Path_1191" data-name="Path 1191" d="M117.738,18.55c.1-.265-.559-.937-.951-.951-.711-.03.619,1.814.951.951" transform="translate(584.728 322.227)" fill="#fff"/>
    <path id="Path_1192" data-name="Path 1192" d="M110.857,27.249c.154.42,1.217.433,1.133.014-.066-.363-1.42-.645-1.329-.462a2,2,0,0,1,.2.448" transform="translate(584.728 322.227)" fill="#fff"/>
    <path id="Path_1193" data-name="Path 1193" d="M124.522,22.2a1.779,1.779,0,0,0,1.608-.1c.388-.67-2.67-.656-1.608.1" transform="translate(584.728 322.227)" fill="#fff"/>
    <path id="Path_1194" data-name="Path 1194" d="M125.892,30.13c.518-.28.406-.573-.28-.741-.447-.112-.475-.084-.475.42,0,.6.112.643.755.321" transform="translate(584.728 322.227)" fill="#fff"/>
    <path id="Path_1195" data-name="Path 1195" d="M122.507,16.1c.28.336.587.336,1.273-.014.8-.42,1.929-.091,1.846-.559-.056-.294-.839-.546-.839-.266,0,.126-.588.224-1.777.293q-.9.044-.5.546" transform="translate(584.728 322.227)" fill="#fff"/>
    <path id="Path_1196" data-name="Path 1196" d="M122.969,8.619a4.27,4.27,0,0,0-2.1.238c-.253.252-1.873.083-2.126.336a1.387,1.387,0,0,1-.643.209c-.672.084-.616.392.084.5,1.6.283,2.582-.364,3.189-.364,2.218,0,2-.759,1.594-.923" transform="translate(584.728 322.227)" fill="#fff"/>
    <path id="Path_1197" data-name="Path 1197" d="M118.06,13.738c.881,0,.547-.386,1.343-.154,1.034.258,1.53-.225,2.238-.154,1.426.14,1.888-.378.741-.853-1.392-.581-2.7.21-4.084.14-1.89-.1-1.092,1.021-.238,1.021" transform="translate(584.728 322.227)" fill="#fff"/>
  </g>
</svg>
