<svg xmlns="http://www.w3.org/2000/svg" xmlns:xlink="http://www.w3.org/1999/xlink" width="1380.039" height="332.869" viewBox="0 0 1380.039 332.869">
  <defs>
    <linearGradient id="linear-gradient" x1="0.5" x2="0.5" y2="1" gradientUnits="objectBoundingBox">
      <stop offset="0" stop-color="#e33936"/>
      <stop offset="1" stop-color="#fff" stop-opacity="0"/>
    </linearGradient>
    <linearGradient id="linear-gradient-2" x1="0.5" x2="0.5" y2="1" gradientUnits="objectBoundingBox">
      <stop offset="0" stop-color="#e43835"/>
      <stop offset="1" stop-color="#fff"/>
    </linearGradient>
  </defs>
  <g id="Group_19" data-name="Group 19" transform="translate(-269.961 -4086.065)">
    <g id="Group_14" data-name="Group 14" transform="translate(-781.109 2399.967)">
      <path id="Path_1227" data-name="Path 1227" d="M849.13,2565.431l225.353-8.8,230.94-34.39,229.078-38.39,229.078-23.993,229.078-51.986,225.474-164.219v321.776Z" transform="translate(201.979 -547.463)" fill="url(#linear-gradient)"/>
      <path id="Path_1226" data-name="Path 1226" d="M849.13,2565.431l225.353-8.8,230.94-34.39,229.078-38.39,229.078-23.993,229.078-51.986,225.474-164.219" transform="translate(201.979 -547.463)" fill="none" stroke="#e33936" stroke-width="2"/>
      <circle id="Ellipse_5" data-name="Ellipse 5" cx="6.5" cy="6.5" r="6.5" transform="translate(2190.709 1853.098)" fill="#e33936"/>
      <circle id="Ellipse_6" data-name="Ellipse 6" cx="6.5" cy="6.5" r="6.5" transform="translate(2414.109 1690.098)" fill="#e33936"/>
      <circle id="Ellipse_7" data-name="Ellipse 7" cx="10.5" cy="10.5" r="10.5" transform="translate(2410.109 1686.098)" fill="#e33936" opacity="0.4"/>
      <path id="Path_1230" data-name="Path 1230" d="M.66-1.14l5.12-5.4A14.475,14.475,0,0,0,7-7.93a4.615,4.615,0,0,0,.63-1.09,2.9,2.9,0,0,0,.19-1.04,2.1,2.1,0,0,0-.68-1.66,2.562,2.562,0,0,0-1.76-.6,3.385,3.385,0,0,0-1.86.51A4.5,4.5,0,0,0,2.1-10.24L.78-11.34a5.8,5.8,0,0,1,1.98-2.05,5.142,5.142,0,0,1,2.68-.69,4.723,4.723,0,0,1,2.23.5,3.588,3.588,0,0,1,1.47,1.4,4.123,4.123,0,0,1,.52,2.1,5.215,5.215,0,0,1-.21,1.54,4.639,4.639,0,0,1-.74,1.39A18.788,18.788,0,0,1,7.24-5.46L3.1-1.2ZM.66,0V-1.14l1.6-.54H9.98V0ZM17.42.2a4.9,4.9,0,0,1-2.84-.88,6.163,6.163,0,0,1-2.05-2.49,8.7,8.7,0,0,1-.77-3.79,8.665,8.665,0,0,1,.76-3.77,6.148,6.148,0,0,1,2.03-2.47,4.856,4.856,0,0,1,2.83-.88,4.856,4.856,0,0,1,2.83.88,6.136,6.136,0,0,1,2.03,2.48A8.782,8.782,0,0,1,23-6.92a8.748,8.748,0,0,1-.76,3.77A6.08,6.08,0,0,1,20.22-.67,4.818,4.818,0,0,1,17.42.2Zm-.04-1.76a3.276,3.276,0,0,0,1.93-.63A4.03,4.03,0,0,0,20.62-4a7.937,7.937,0,0,0,.48-2.94,7.984,7.984,0,0,0-.48-2.97,4,4,0,0,0-1.32-1.8,3.184,3.184,0,0,0-1.92-.61,3.215,3.215,0,0,0-1.94.61,3.937,3.937,0,0,0-1.31,1.8,8.072,8.072,0,0,0-.47,2.95A8.154,8.154,0,0,0,14.13-4a3.934,3.934,0,0,0,1.31,1.81A3.322,3.322,0,0,0,17.38-1.56Zm7.18.42,5.12-5.4A14.476,14.476,0,0,0,30.9-7.93a4.615,4.615,0,0,0,.63-1.09,2.9,2.9,0,0,0,.19-1.04,2.1,2.1,0,0,0-.68-1.66,2.562,2.562,0,0,0-1.76-.6,3.385,3.385,0,0,0-1.86.51A4.5,4.5,0,0,0,26-10.24l-1.32-1.1a5.8,5.8,0,0,1,1.98-2.05,5.142,5.142,0,0,1,2.68-.69,4.723,4.723,0,0,1,2.23.5,3.588,3.588,0,0,1,1.47,1.4,4.123,4.123,0,0,1,.52,2.1,5.215,5.215,0,0,1-.21,1.54,4.639,4.639,0,0,1-.74,1.39,18.788,18.788,0,0,1-1.47,1.69L27-1.2Zm0,1.14V-1.14l1.6-.54h7.72V0ZM38.2,0l-.02-13.88h1.84L40.04,0ZM35.34-12.2v-1.68h4.48l.02,1.68Z" transform="translate(2163.449 1956.033)" fill="#040404"/>
      <path id="Path_1229" data-name="Path 1229" d="M.66-1.14l5.12-5.4A14.475,14.475,0,0,0,7-7.93a4.615,4.615,0,0,0,.63-1.09,2.9,2.9,0,0,0,.19-1.04,2.1,2.1,0,0,0-.68-1.66,2.562,2.562,0,0,0-1.76-.6,3.385,3.385,0,0,0-1.86.51A4.5,4.5,0,0,0,2.1-10.24L.78-11.34a5.8,5.8,0,0,1,1.98-2.05,5.142,5.142,0,0,1,2.68-.69,4.723,4.723,0,0,1,2.23.5,3.588,3.588,0,0,1,1.47,1.4,4.123,4.123,0,0,1,.52,2.1,5.215,5.215,0,0,1-.21,1.54,4.639,4.639,0,0,1-.74,1.39A18.788,18.788,0,0,1,7.24-5.46L3.1-1.2ZM.66,0V-1.14l1.6-.54H9.98V0ZM17.42.2a4.9,4.9,0,0,1-2.84-.88,6.163,6.163,0,0,1-2.05-2.49,8.7,8.7,0,0,1-.77-3.79,8.665,8.665,0,0,1,.76-3.77,6.148,6.148,0,0,1,2.03-2.47,4.856,4.856,0,0,1,2.83-.88,4.856,4.856,0,0,1,2.83.88,6.136,6.136,0,0,1,2.03,2.48A8.782,8.782,0,0,1,23-6.92a8.748,8.748,0,0,1-.76,3.77A6.08,6.08,0,0,1,20.22-.67,4.818,4.818,0,0,1,17.42.2Zm-.04-1.76a3.276,3.276,0,0,0,1.93-.63A4.03,4.03,0,0,0,20.62-4a7.937,7.937,0,0,0,.48-2.94,7.984,7.984,0,0,0-.48-2.97,4,4,0,0,0-1.32-1.8,3.184,3.184,0,0,0-1.92-.61,3.215,3.215,0,0,0-1.94.61,3.937,3.937,0,0,0-1.31,1.8,8.072,8.072,0,0,0-.47,2.95A8.154,8.154,0,0,0,14.13-4a3.934,3.934,0,0,0,1.31,1.81A3.322,3.322,0,0,0,17.38-1.56Zm7.18.42,5.12-5.4A14.476,14.476,0,0,0,30.9-7.93a4.615,4.615,0,0,0,.63-1.09,2.9,2.9,0,0,0,.19-1.04,2.1,2.1,0,0,0-.68-1.66,2.562,2.562,0,0,0-1.76-.6,3.385,3.385,0,0,0-1.86.51A4.5,4.5,0,0,0,26-10.24l-1.32-1.1a5.8,5.8,0,0,1,1.98-2.05,5.142,5.142,0,0,1,2.68-.69,4.723,4.723,0,0,1,2.23.5,3.588,3.588,0,0,1,1.47,1.4,4.123,4.123,0,0,1,.52,2.1,5.215,5.215,0,0,1-.21,1.54,4.639,4.639,0,0,1-.74,1.39,18.788,18.788,0,0,1-1.47,1.69L27-1.2Zm0,1.14V-1.14l1.6-.54h7.72V0ZM35.38-1.14l5.12-5.4a14.475,14.475,0,0,0,1.22-1.39,4.615,4.615,0,0,0,.63-1.09,2.9,2.9,0,0,0,.19-1.04,2.1,2.1,0,0,0-.68-1.66,2.562,2.562,0,0,0-1.76-.6,3.385,3.385,0,0,0-1.86.51,4.5,4.5,0,0,0-1.42,1.57l-1.32-1.1a5.8,5.8,0,0,1,1.98-2.05,5.142,5.142,0,0,1,2.68-.69,4.723,4.723,0,0,1,2.23.5,3.588,3.588,0,0,1,1.47,1.4,4.123,4.123,0,0,1,.52,2.1,5.215,5.215,0,0,1-.21,1.54,4.639,4.639,0,0,1-.74,1.39,18.787,18.787,0,0,1-1.47,1.69L37.82-1.2Zm0,1.14V-1.14l1.6-.54H44.7V0Z" transform="translate(2317.509 1704.033)" fill="#040404"/>
      <path id="Path_1228" data-name="Path 1228" d="M5.32,0V-13.48H7.18L7.2,0ZM.62-12.16.6-13.88H11.9v1.72ZM15.24.2a4.425,4.425,0,0,1-2.36-.65,4.637,4.637,0,0,1-1.67-1.77,5.182,5.182,0,0,1-.61-2.52,5.182,5.182,0,0,1,.61-2.52,4.74,4.74,0,0,1,1.66-1.78,4.36,4.36,0,0,1,2.37-.66,4.061,4.061,0,0,1,1.93.45,3.665,3.665,0,0,1,1.37,1.24,3.647,3.647,0,0,1,.58,1.83v2.86a3.733,3.733,0,0,1-.57,1.82A3.559,3.559,0,0,1,17.19-.25,4.1,4.1,0,0,1,15.24.2Zm.3-1.7a2.768,2.768,0,0,0,2.16-.91,3.348,3.348,0,0,0,.82-2.33,3.736,3.736,0,0,0-.37-1.71A2.756,2.756,0,0,0,17.1-7.59,3,3,0,0,0,15.52-8a3,3,0,0,0-1.59.42,2.942,2.942,0,0,0-1.08,1.15,3.489,3.489,0,0,0-.39,1.67,3.533,3.533,0,0,0,.39,1.69,2.919,2.919,0,0,0,1.09,1.15A3.049,3.049,0,0,0,15.54-1.5ZM18.4,0V-2.56l.34-2.32-.34-2.3V-9.5h1.82V0Zm4.44,0V-9.5h1.8V0Zm1.8-5.42-.68-.3a4.6,4.6,0,0,1,.84-2.9A2.883,2.883,0,0,1,27.22-9.7a3.253,3.253,0,0,1,1.3.25,3.02,3.02,0,0,1,1.08.83L28.42-7.4a1.8,1.8,0,0,0-.66-.46A2.31,2.31,0,0,0,26.92-8a2.22,2.22,0,0,0-1.64.64A2.638,2.638,0,0,0,24.64-5.42Zm9.86,9.6a5.938,5.938,0,0,1-2.59-.54A4.537,4.537,0,0,1,30.1,2.12L31.26.94a3.928,3.928,0,0,0,1.38,1.13,4.3,4.3,0,0,0,1.9.39,3.312,3.312,0,0,0,2.31-.77A2.655,2.655,0,0,0,37.7-.38V-2.74l.32-2.14L37.7-7V-9.5h1.8V-.38A4.436,4.436,0,0,1,38.87,2a4.355,4.355,0,0,1-1.76,1.6A5.638,5.638,0,0,1,34.5,4.18Zm0-4.34a4.429,4.429,0,0,1-2.33-.62,4.47,4.47,0,0,1-1.63-1.71,5,5,0,0,1-.6-2.45,4.882,4.882,0,0,1,.6-2.43,4.587,4.587,0,0,1,1.63-1.7A4.376,4.376,0,0,1,34.5-9.7a4.288,4.288,0,0,1,1.98.44,3.491,3.491,0,0,1,1.37,1.23,3.594,3.594,0,0,1,.55,1.85v2.52a3.705,3.705,0,0,1-.57,1.83A3.491,3.491,0,0,1,36.46-.6,4.242,4.242,0,0,1,34.5-.16Zm.36-1.7a3.087,3.087,0,0,0,1.55-.38,2.571,2.571,0,0,0,1.03-1.07,3.433,3.433,0,0,0,.36-1.61,3.357,3.357,0,0,0-.37-1.61A2.723,2.723,0,0,0,36.4-7.61,3.011,3.011,0,0,0,34.84-8a3.12,3.12,0,0,0-1.58.39,2.822,2.822,0,0,0-1.07,1.08,3.175,3.175,0,0,0-.39,1.59,3.232,3.232,0,0,0,.39,1.6,2.783,2.783,0,0,0,1.08,1.09A3.175,3.175,0,0,0,34.86-1.86ZM46.54.2a5.076,5.076,0,0,1-2.56-.65,4.828,4.828,0,0,1-1.8-1.77,4.908,4.908,0,0,1-.66-2.54,4.928,4.928,0,0,1,.65-2.52,4.82,4.82,0,0,1,1.76-1.77,4.835,4.835,0,0,1,2.49-.65,4.475,4.475,0,0,1,2.33.6,4.209,4.209,0,0,1,1.58,1.66,4.986,4.986,0,0,1,.57,2.4q0,.2-.02.43a4.915,4.915,0,0,1-.08.53H42.78v-1.5h7.06L49.18-5a3.571,3.571,0,0,0-.34-1.63,2.5,2.5,0,0,0-.96-1.04,2.876,2.876,0,0,0-1.5-.37,3.208,3.208,0,0,0-1.62.4,2.732,2.732,0,0,0-1.08,1.12,3.594,3.594,0,0,0-.38,1.7,3.665,3.665,0,0,0,.4,1.75,2.811,2.811,0,0,0,1.14,1.16,3.449,3.449,0,0,0,1.7.41,3.775,3.775,0,0,0,1.47-.28,3.041,3.041,0,0,0,1.15-.84l1.16,1.18A4.428,4.428,0,0,1,48.65-.22,5.346,5.346,0,0,1,46.54.2Zm7.5-.2V-13.48h1.8V0ZM51.7-7.88V-9.5h6.46l.02,1.64ZM64.1-4.24v-1.7h6.56l.02,1.7ZM81.8.2a4.786,4.786,0,0,1-2.47-.64A4.807,4.807,0,0,1,77.6-2.16a4.619,4.619,0,0,1-.64-2.4,6.324,6.324,0,0,1,1.28-3.66l4.08-5.66H84.5l-4.18,5.7-.68.36a2.651,2.651,0,0,1,.58-.71,2.408,2.408,0,0,1,.84-.45,3.886,3.886,0,0,1,1.18-.16,4.291,4.291,0,0,1,2.21.58,4.512,4.512,0,0,1,1.6,1.59,4.456,4.456,0,0,1,.61,2.35,4.67,4.67,0,0,1-.65,2.42A4.867,4.867,0,0,1,84.25-.45,4.76,4.76,0,0,1,81.8.2Zm0-1.76a2.835,2.835,0,0,0,1.51-.41,3,3,0,0,0,1.06-1.1,3.094,3.094,0,0,0,.39-1.55,3.094,3.094,0,0,0-.39-1.55,2.919,2.919,0,0,0-1.06-1.09,2.889,2.889,0,0,0-1.51-.4,2.889,2.889,0,0,0-1.51.4,2.919,2.919,0,0,0-1.06,1.09,3.094,3.094,0,0,0-.39,1.55,3.15,3.15,0,0,0,.39,1.56,2.9,2.9,0,0,0,1.06,1.1A2.889,2.889,0,0,0,81.8-1.56ZM94.04.2A4.9,4.9,0,0,1,91.2-.68a6.163,6.163,0,0,1-2.05-2.49,8.7,8.7,0,0,1-.77-3.79,8.665,8.665,0,0,1,.76-3.77,6.148,6.148,0,0,1,2.03-2.47A4.856,4.856,0,0,1,94-14.08a4.856,4.856,0,0,1,2.83.88,6.135,6.135,0,0,1,2.03,2.48,8.782,8.782,0,0,1,.76,3.8,8.748,8.748,0,0,1-.76,3.77A6.08,6.08,0,0,1,96.84-.67,4.818,4.818,0,0,1,94.04.2ZM94-1.56a3.276,3.276,0,0,0,1.93-.63A4.03,4.03,0,0,0,97.24-4a7.937,7.937,0,0,0,.48-2.94,7.984,7.984,0,0,0-.48-2.97,4,4,0,0,0-1.32-1.8A3.184,3.184,0,0,0,94-12.32a3.215,3.215,0,0,0-1.94.61,3.937,3.937,0,0,0-1.31,1.8,8.072,8.072,0,0,0-.47,2.95A8.154,8.154,0,0,0,90.75-4a3.934,3.934,0,0,0,1.31,1.81A3.322,3.322,0,0,0,94-1.56ZM102.2,0V-13.88h1.32l5.88,9.66h-.9l5.88-9.66h1.32V0h-1.88V-10.58l.44.12-4.64,7.62H108.3l-4.64-7.62.42-.12V0Zm22.2-5.4V-7.04h3.78a3.088,3.088,0,0,0,1.4-.31,2.319,2.319,0,0,0,.97-.89,2.537,2.537,0,0,0,.33-1.4,2.537,2.537,0,0,0-.33-1.4,2.319,2.319,0,0,0-.97-.89,3.088,3.088,0,0,0-1.4-.31H124.4v-1.64h3.9a4.93,4.93,0,0,1,2.29.52,3.913,3.913,0,0,1,1.59,1.48,4.247,4.247,0,0,1,.58,2.24,4.017,4.017,0,0,1-.57,2.23,4.076,4.076,0,0,1-1.6,1.48,4.854,4.854,0,0,1-2.29.53ZM123.14,0V-13.88h1.88V0Zm11.8,0V-9.5h1.8V0Zm1.8-5.42-.68-.3a4.6,4.6,0,0,1,.84-2.9,2.883,2.883,0,0,1,2.42-1.08,3.253,3.253,0,0,1,1.3.25,3.02,3.02,0,0,1,1.08.83L140.52-7.4a1.8,1.8,0,0,0-.66-.46,2.31,2.31,0,0,0-.84-.14,2.22,2.22,0,0,0-1.64.64A2.638,2.638,0,0,0,136.74-5.42ZM147,.2a4.87,4.87,0,0,1-2.52-.66,4.928,4.928,0,0,1-1.78-1.79,4.923,4.923,0,0,1-.66-2.53,4.779,4.779,0,0,1,.66-2.49,4.977,4.977,0,0,1,1.78-1.77A4.87,4.87,0,0,1,147-9.7a4.943,4.943,0,0,1,2.51.65,4.85,4.85,0,0,1,1.79,1.77,4.832,4.832,0,0,1,.66,2.5,4.923,4.923,0,0,1-.66,2.53,4.9,4.9,0,0,1-1.79,1.79A4.885,4.885,0,0,1,147,.2Zm0-1.74a3.049,3.049,0,0,0,1.6-.42,2.991,2.991,0,0,0,1.1-1.15,3.418,3.418,0,0,0,.4-1.67,3.255,3.255,0,0,0-.41-1.64,3.035,3.035,0,0,0-1.1-1.13A3.053,3.053,0,0,0,147-7.96a3.106,3.106,0,0,0-1.6.41,2.938,2.938,0,0,0-1.1,1.13,3.32,3.32,0,0,0-.4,1.64,3.418,3.418,0,0,0,.4,1.67,2.991,2.991,0,0,0,1.1,1.15A3.049,3.049,0,0,0,147-1.54ZM158,.2a4.36,4.36,0,0,1-2.36-.65,4.689,4.689,0,0,1-1.65-1.77,5.141,5.141,0,0,1-.61-2.5,5.223,5.223,0,0,1,.61-2.54,4.74,4.74,0,0,1,1.66-1.78A4.325,4.325,0,0,1,158-9.7a4.078,4.078,0,0,1,1.92.45,3.724,3.724,0,0,1,1.39,1.24,3.591,3.591,0,0,1,.59,1.83v2.86a3.674,3.674,0,0,1-.58,1.82,3.616,3.616,0,0,1-1.38,1.25A4.121,4.121,0,0,1,158,.2Zm.3-1.7a2.948,2.948,0,0,0,1.57-.41,2.831,2.831,0,0,0,1.05-1.15,3.625,3.625,0,0,0,.38-1.68,3.654,3.654,0,0,0-.38-1.71,2.823,2.823,0,0,0-1.06-1.14A2.962,2.962,0,0,0,158.3-8a3.039,3.039,0,0,0-1.6.41,2.965,2.965,0,0,0-1.08,1.14,3.313,3.313,0,0,0-.38,1.69,3.67,3.67,0,0,0,.38,1.7,2.767,2.767,0,0,0,1.08,1.15A3.106,3.106,0,0,0,158.3-1.5ZM162.98,0h-1.8V-2.56l.34-2.32-.34-2.3.02-7.1H163Zm6.46.2a4.146,4.146,0,0,1-2.09-.53A3.749,3.749,0,0,1,165.9-1.8a4.388,4.388,0,0,1-.52-2.16V-9.5h1.8v5.44a3.127,3.127,0,0,0,.27,1.35,1.929,1.929,0,0,0,.79.87,2.51,2.51,0,0,0,1.2.32,2.2,2.2,0,0,0,1.68-.69,2.674,2.674,0,0,0,.6-1.85V-9.5h1.8v5.52A4.43,4.43,0,0,1,173-1.8a3.769,3.769,0,0,1-1.44,1.47A4.17,4.17,0,0,1,169.44.2Zm10.84,0a4.923,4.923,0,0,1-2.53-.66,4.827,4.827,0,0,1-1.78-1.79,4.943,4.943,0,0,1-.65-2.51,4.928,4.928,0,0,1,.65-2.52,4.774,4.774,0,0,1,1.78-1.77,4.982,4.982,0,0,1,2.53-.65,5.047,5.047,0,0,1,2.04.41,4.525,4.525,0,0,1,1.62,1.19l-1.2,1.2a2.856,2.856,0,0,0-1.07-.79,3.493,3.493,0,0,0-1.39-.27,3.106,3.106,0,0,0-1.6.41,2.938,2.938,0,0,0-1.1,1.13,3.361,3.361,0,0,0-.4,1.66,3.361,3.361,0,0,0,.4,1.66,3.011,3.011,0,0,0,1.1,1.14,3.049,3.049,0,0,0,1.6.42,3.493,3.493,0,0,0,1.39-.27,3.036,3.036,0,0,0,1.09-.79l1.18,1.2a4.526,4.526,0,0,1-1.61,1.18A5.013,5.013,0,0,1,180.28.2Zm6.78-.2V-13.48h1.8V0Zm-2.34-7.88V-9.5h6.46l.02,1.64ZM195.78.2a5.3,5.3,0,0,1-1.51-.21,4.981,4.981,0,0,1-1.31-.6,4.482,4.482,0,0,1-1.04-.93l1.16-1.16a3.314,3.314,0,0,0,1.2.95,3.623,3.623,0,0,0,1.52.31,2.44,2.44,0,0,0,1.3-.29.909.909,0,0,0,.46-.81.971.971,0,0,0-.37-.81,3.088,3.088,0,0,0-.95-.48q-.58-.19-1.23-.38a6.858,6.858,0,0,1-1.23-.49,2.63,2.63,0,0,1-.95-.82,2.333,2.333,0,0,1-.37-1.38,2.623,2.623,0,0,1,.42-1.49,2.715,2.715,0,0,1,1.17-.97,4.364,4.364,0,0,1,1.81-.34,4.818,4.818,0,0,1,1.99.39,3.489,3.489,0,0,1,1.43,1.17l-1.16,1.16a2.685,2.685,0,0,0-.99-.8,3.064,3.064,0,0,0-1.33-.28,2.169,2.169,0,0,0-1.19.27.851.851,0,0,0-.41.75.858.858,0,0,0,.36.74,3.237,3.237,0,0,0,.95.44q.59.18,1.23.37a6.128,6.128,0,0,1,1.22.51,2.738,2.738,0,0,1,.95.86,2.467,2.467,0,0,1,.37,1.42,2.6,2.6,0,0,1-.95,2.12A3.9,3.9,0,0,1,195.78.2Z" transform="translate(2163.509 1729.033)" fill="#040404"/>
      <path id="Path_1231" data-name="Path 1231" d="M4.94.2A5.847,5.847,0,0,1,2.47-.31,4.954,4.954,0,0,1,.6-1.8L1.88-3.08A3.241,3.241,0,0,0,3.14-1.97a3.845,3.845,0,0,0,1.78.41,3.391,3.391,0,0,0,1.59-.35A2.66,2.66,0,0,0,7.57-2.9a2.787,2.787,0,0,0,.39-1.48,2.774,2.774,0,0,0-.39-1.49,2.571,2.571,0,0,0-1.09-.97,3.764,3.764,0,0,0-1.66-.34,5.228,5.228,0,0,0-.72.05,4.834,4.834,0,0,0-.7.15l.8-1.08a3.958,3.958,0,0,1,.82-.28,3.96,3.96,0,0,1,.88-.1,3.91,3.91,0,0,1,2.01.52A3.833,3.833,0,0,1,9.33-6.46a4.363,4.363,0,0,1,.53,2.18,4.31,4.31,0,0,1-.63,2.33A4.356,4.356,0,0,1,7.5-.37,5.489,5.489,0,0,1,4.94.2ZM3.4-6.98V-8.12l4.06-4.62,2.24-.02L5.52-8.02ZM1.26-12.2v-1.68H9.7v1.12l-1.64.56ZM15.72.2a6,6,0,0,1-2.53-.51A4.954,4.954,0,0,1,11.32-1.8L12.6-3.08a3.225,3.225,0,0,0,1.27,1.11,3.95,3.95,0,0,0,1.81.41,3.6,3.6,0,0,0,1.65-.36,2.784,2.784,0,0,0,1.12-1.01,2.845,2.845,0,0,0,.41-1.55,2.887,2.887,0,0,0-.4-1.56,2.589,2.589,0,0,0-1.07-.97,3.281,3.281,0,0,0-1.47-.33,5.2,5.2,0,0,0-1.49.2,3.74,3.74,0,0,0-1.27.68l.02-1.2a2.9,2.9,0,0,1,.78-.68,3.734,3.734,0,0,1,1-.4,5.393,5.393,0,0,1,1.3-.14,4.662,4.662,0,0,1,2.44.6,4.019,4.019,0,0,1,1.53,1.62,4.87,4.87,0,0,1,.53,2.28,4.36,4.36,0,0,1-.65,2.36A4.5,4.5,0,0,1,18.32-.39,5.575,5.575,0,0,1,15.72.2ZM13.16-6.46,12.14-7.48l.62-6.4h1.72l-.7,6.58Zm-.02-5.74-.38-1.68h7.3v1.68ZM23.22,0V-13.88h1.32l5.88,9.66h-.9l5.88-9.66h1.32V0H34.84V-10.58l.44.12L30.64-2.84H29.32l-4.64-7.62.42-.12V0Zm22.2-5.4V-7.04H49.2a3.088,3.088,0,0,0,1.4-.31,2.319,2.319,0,0,0,.97-.89,2.537,2.537,0,0,0,.33-1.4,2.537,2.537,0,0,0-.33-1.4,2.319,2.319,0,0,0-.97-.89,3.088,3.088,0,0,0-1.4-.31H45.42v-1.64h3.9a4.93,4.93,0,0,1,2.29.52,3.913,3.913,0,0,1,1.59,1.48,4.247,4.247,0,0,1,.58,2.24,4.017,4.017,0,0,1-.57,2.23,4.076,4.076,0,0,1-1.6,1.48,4.854,4.854,0,0,1-2.29.53ZM44.16,0V-13.88h1.88V0Zm11.8,0V-9.5h1.8V0Zm1.8-5.42-.68-.3a4.6,4.6,0,0,1,.84-2.9A2.883,2.883,0,0,1,60.34-9.7a3.253,3.253,0,0,1,1.3.25,3.02,3.02,0,0,1,1.08.83L61.54-7.4a1.8,1.8,0,0,0-.66-.46A2.31,2.31,0,0,0,60.04-8a2.22,2.22,0,0,0-1.64.64A2.638,2.638,0,0,0,57.76-5.42ZM68.02.2A4.87,4.87,0,0,1,65.5-.46a4.928,4.928,0,0,1-1.78-1.79,4.923,4.923,0,0,1-.66-2.53,4.779,4.779,0,0,1,.66-2.49A4.977,4.977,0,0,1,65.5-9.04a4.87,4.87,0,0,1,2.52-.66,4.943,4.943,0,0,1,2.51.65,4.85,4.85,0,0,1,1.79,1.77,4.832,4.832,0,0,1,.66,2.5,4.923,4.923,0,0,1-.66,2.53A4.9,4.9,0,0,1,70.53-.46,4.885,4.885,0,0,1,68.02.2Zm0-1.74a3.049,3.049,0,0,0,1.6-.42,2.991,2.991,0,0,0,1.1-1.15,3.418,3.418,0,0,0,.4-1.67,3.255,3.255,0,0,0-.41-1.64,3.035,3.035,0,0,0-1.1-1.13,3.053,3.053,0,0,0-1.59-.41,3.106,3.106,0,0,0-1.6.41,2.938,2.938,0,0,0-1.1,1.13,3.32,3.32,0,0,0-.4,1.64,3.418,3.418,0,0,0,.4,1.67,2.991,2.991,0,0,0,1.1,1.15A3.049,3.049,0,0,0,68.02-1.54ZM79.02.2a4.36,4.36,0,0,1-2.36-.65,4.689,4.689,0,0,1-1.65-1.77,5.14,5.14,0,0,1-.61-2.5,5.223,5.223,0,0,1,.61-2.54,4.74,4.74,0,0,1,1.66-1.78,4.325,4.325,0,0,1,2.35-.66,4.078,4.078,0,0,1,1.92.45,3.724,3.724,0,0,1,1.39,1.24,3.591,3.591,0,0,1,.59,1.83v2.86a3.674,3.674,0,0,1-.58,1.82A3.616,3.616,0,0,1,80.96-.25,4.121,4.121,0,0,1,79.02.2Zm.3-1.7a2.948,2.948,0,0,0,1.57-.41,2.831,2.831,0,0,0,1.05-1.15,3.625,3.625,0,0,0,.38-1.68,3.654,3.654,0,0,0-.38-1.71,2.823,2.823,0,0,0-1.06-1.14A2.962,2.962,0,0,0,79.32-8a3.039,3.039,0,0,0-1.6.41,2.965,2.965,0,0,0-1.08,1.14,3.313,3.313,0,0,0-.38,1.69,3.67,3.67,0,0,0,.38,1.7,2.767,2.767,0,0,0,1.08,1.15A3.106,3.106,0,0,0,79.32-1.5ZM84,0H82.2V-2.56l.34-2.32-.34-2.3.02-7.1h1.8Zm6.46.2a4.146,4.146,0,0,1-2.09-.53A3.749,3.749,0,0,1,86.92-1.8a4.388,4.388,0,0,1-.52-2.16V-9.5h1.8v5.44a3.127,3.127,0,0,0,.27,1.35,1.929,1.929,0,0,0,.79.87,2.51,2.51,0,0,0,1.2.32,2.2,2.2,0,0,0,1.68-.69,2.674,2.674,0,0,0,.6-1.85V-9.5h1.8v5.52a4.43,4.43,0,0,1-.52,2.18A3.769,3.769,0,0,1,92.58-.33,4.17,4.17,0,0,1,90.46.2ZM101.3.2a4.923,4.923,0,0,1-2.53-.66,4.827,4.827,0,0,1-1.78-1.79,4.943,4.943,0,0,1-.65-2.51,4.928,4.928,0,0,1,.65-2.52,4.774,4.774,0,0,1,1.78-1.77,4.982,4.982,0,0,1,2.53-.65,5.047,5.047,0,0,1,2.04.41,4.525,4.525,0,0,1,1.62,1.19l-1.2,1.2a2.856,2.856,0,0,0-1.07-.79,3.493,3.493,0,0,0-1.39-.27,3.106,3.106,0,0,0-1.6.41,2.938,2.938,0,0,0-1.1,1.13,3.361,3.361,0,0,0-.4,1.66,3.361,3.361,0,0,0,.4,1.66,3.011,3.011,0,0,0,1.1,1.14,3.049,3.049,0,0,0,1.6.42,3.493,3.493,0,0,0,1.39-.27,3.036,3.036,0,0,0,1.09-.79l1.18,1.2a4.526,4.526,0,0,1-1.61,1.18A5.013,5.013,0,0,1,101.3.2Zm6.78-.2V-13.48h1.8V0Zm-2.34-7.88V-9.5h6.46l.02,1.64ZM116.8.2a5.3,5.3,0,0,1-1.51-.21,4.982,4.982,0,0,1-1.31-.6,4.482,4.482,0,0,1-1.04-.93L114.1-2.7a3.314,3.314,0,0,0,1.2.95,3.623,3.623,0,0,0,1.52.31,2.44,2.44,0,0,0,1.3-.29.909.909,0,0,0,.46-.81.971.971,0,0,0-.37-.81,3.089,3.089,0,0,0-.95-.48q-.58-.19-1.23-.38a6.858,6.858,0,0,1-1.23-.49,2.63,2.63,0,0,1-.95-.82,2.333,2.333,0,0,1-.37-1.38,2.623,2.623,0,0,1,.42-1.49,2.715,2.715,0,0,1,1.17-.97,4.364,4.364,0,0,1,1.81-.34,4.818,4.818,0,0,1,1.99.39,3.489,3.489,0,0,1,1.43,1.17l-1.16,1.16a2.685,2.685,0,0,0-.99-.8,3.064,3.064,0,0,0-1.33-.28,2.169,2.169,0,0,0-1.19.27.851.851,0,0,0-.41.75.858.858,0,0,0,.36.74,3.237,3.237,0,0,0,.95.44q.59.18,1.23.37a6.128,6.128,0,0,1,1.22.51,2.739,2.739,0,0,1,.95.86,2.467,2.467,0,0,1,.37,1.42,2.6,2.6,0,0,1-.95,2.12A3.9,3.9,0,0,1,116.8.2Z" transform="translate(2083.509 1981.033)" fill="#040404"/>
      <path id="Path_1232" data-name="Path 1232" d="M2.9,0V-1.64H7.1a2.48,2.48,0,0,0,1.88-.71,2.383,2.383,0,0,0,.68-1.71,2.526,2.526,0,0,0-.3-1.23,2.185,2.185,0,0,0-.87-.87,2.672,2.672,0,0,0-1.33-.32H2.9V-8.12H6.88a2.291,2.291,0,0,0,1.59-.53,1.95,1.95,0,0,0,.59-1.53,1.9,1.9,0,0,0-.62-1.53,2.437,2.437,0,0,0-1.64-.53H2.9v-1.64H6.84a4.746,4.746,0,0,1,2.27.49,3.449,3.449,0,0,1,1.38,1.29,3.411,3.411,0,0,1,.47,1.76,3.247,3.247,0,0,1-.61,1.96A4.005,4.005,0,0,1,8.56-7.06l.16-.6a4.464,4.464,0,0,1,2.09,1.45,3.635,3.635,0,0,1,.75,2.29,3.71,3.71,0,0,1-.54,1.98A3.886,3.886,0,0,1,9.47-.53,5.264,5.264,0,0,1,7,0ZM1.64,0V-13.88H3.52V0ZM18.18.2a5.076,5.076,0,0,1-2.56-.65,4.828,4.828,0,0,1-1.8-1.77,4.908,4.908,0,0,1-.66-2.54,4.928,4.928,0,0,1,.65-2.52,4.82,4.82,0,0,1,1.76-1.77,4.835,4.835,0,0,1,2.49-.65,4.475,4.475,0,0,1,2.33.6,4.209,4.209,0,0,1,1.58,1.66,4.986,4.986,0,0,1,.57,2.4q0,.2-.02.43a4.916,4.916,0,0,1-.08.53H14.42v-1.5h7.06L20.82-5a3.571,3.571,0,0,0-.34-1.63,2.5,2.5,0,0,0-.96-1.04,2.876,2.876,0,0,0-1.5-.37,3.208,3.208,0,0,0-1.62.4,2.732,2.732,0,0,0-1.08,1.12,3.594,3.594,0,0,0-.38,1.7,3.665,3.665,0,0,0,.4,1.75,2.811,2.811,0,0,0,1.14,1.16,3.449,3.449,0,0,0,1.7.41,3.775,3.775,0,0,0,1.47-.28,3.041,3.041,0,0,0,1.15-.84l1.16,1.18A4.428,4.428,0,0,1,20.29-.22,5.346,5.346,0,0,1,18.18.2ZM28.44,4.18a5.938,5.938,0,0,1-2.59-.54,4.537,4.537,0,0,1-1.81-1.52L25.2.94a3.928,3.928,0,0,0,1.38,1.13,4.3,4.3,0,0,0,1.9.39,3.312,3.312,0,0,0,2.31-.77,2.655,2.655,0,0,0,.85-2.07V-2.74l.32-2.14L31.64-7V-9.5h1.8V-.38A4.436,4.436,0,0,1,32.81,2a4.355,4.355,0,0,1-1.76,1.6A5.638,5.638,0,0,1,28.44,4.18Zm0-4.34a4.429,4.429,0,0,1-2.33-.62,4.47,4.47,0,0,1-1.63-1.71,5,5,0,0,1-.6-2.45,4.882,4.882,0,0,1,.6-2.43,4.587,4.587,0,0,1,1.63-1.7,4.376,4.376,0,0,1,2.33-.63,4.288,4.288,0,0,1,1.98.44,3.491,3.491,0,0,1,1.37,1.23,3.594,3.594,0,0,1,.55,1.85v2.52a3.705,3.705,0,0,1-.57,1.83A3.491,3.491,0,0,1,30.4-.6,4.242,4.242,0,0,1,28.44-.16Zm.36-1.7a3.087,3.087,0,0,0,1.55-.38,2.571,2.571,0,0,0,1.03-1.07,3.433,3.433,0,0,0,.36-1.61,3.357,3.357,0,0,0-.37-1.61,2.723,2.723,0,0,0-1.03-1.08A3.011,3.011,0,0,0,28.78-8a3.12,3.12,0,0,0-1.58.39,2.822,2.822,0,0,0-1.07,1.08,3.175,3.175,0,0,0-.39,1.59,3.232,3.232,0,0,0,.39,1.6,2.783,2.783,0,0,0,1.08,1.09A3.175,3.175,0,0,0,28.8-1.86ZM36.1,0V-9.5h1.8V0ZM37-11.4a1.092,1.092,0,0,1-.82-.33,1.144,1.144,0,0,1-.32-.83,1.119,1.119,0,0,1,.32-.81A1.092,1.092,0,0,1,37-13.7a1.092,1.092,0,0,1,.82.33,1.119,1.119,0,0,1,.32.81,1.144,1.144,0,0,1-.32.83A1.092,1.092,0,0,1,37-11.4ZM47.28,0V-5.54a2.45,2.45,0,0,0-.68-1.78,2.345,2.345,0,0,0-1.76-.7,2.519,2.519,0,0,0-1.29.32,2.346,2.346,0,0,0-.87.88,2.534,2.534,0,0,0-.32,1.28l-.74-.42a3.8,3.8,0,0,1,.48-1.92,3.538,3.538,0,0,1,1.33-1.33,3.794,3.794,0,0,1,1.93-.49,3.459,3.459,0,0,1,1.93.54A3.91,3.91,0,0,1,48.6-7.75a3.772,3.772,0,0,1,.48,1.85L49.06,0ZM40.56,0V-9.5h1.8V0Z" transform="translate(1051 2001.033)" fill="#040404"/>
      <path id="Line_3" data-name="Line 3" d="M1,96.533H-1V0H1Z" transform="translate(2197.209 1859.5)" opacity="0.1" fill="url(#linear-gradient-2)"/>
    </g>
  </g>
</svg>
