<svg xmlns="http://www.w3.org/2000/svg" xmlns:xlink="http://www.w3.org/1999/xlink" width="46.419" height="46.419" viewBox="0 0 46.419 46.419">
  <defs>
    <clipPath id="clip-path">
      <path id="Path_462" data-name="Path 462" d="M0-682.665H46.419v46.419H0Z" transform="translate(0 682.665)"/>
    </clipPath>
  </defs>
  <g id="Group_647" data-name="Group 647" transform="translate(0 -0.002)">
    <g id="Group_646" data-name="Group 646" transform="translate(0 0.002)" clip-path="url(#clip-path)">
      <path id="Path_451" data-name="Path 451" d="M-.68-167.68,3.97-179.465a.708.708,0,0,1,.919-.4l3.7,1.459a.708.708,0,0,1,.4.919L4.338-165.7a.708.708,0,0,1-.919.4l-3.7-1.459a.709.709,0,0,1-.4-.919Z" transform="translate(1.409 189.469)" fill="none" stroke="#fff" stroke-linecap="round" stroke-linejoin="round" stroke-miterlimit="10" stroke-width="1"/>
      <path id="Path_452" data-name="Path 452" d="M-33.173-25.56l-2.42-1.865" transform="translate(66.484 53.941)" fill="none" stroke="#fff" stroke-linecap="round" stroke-linejoin="round" stroke-miterlimit="10" stroke-width="1"/>
      <path id="Path_453" data-name="Path 453" d="M-29.491-22.7l-2.152-1.656" transform="translate(59.563 53.691)" fill="none" stroke="#fff" stroke-linecap="round" stroke-linejoin="round" stroke-miterlimit="10" stroke-width="1"/>
      <path id="Path_454" data-name="Path 454" d="M-21.017-16.265l-1.533-1.187" transform="translate(47.53 49.625)" fill="none" stroke="#fff" stroke-linecap="round" stroke-linejoin="round" stroke-miterlimit="10" stroke-width="1"/>
      <path id="Path_455" data-name="Path 455" d="M-8.7-70.473h0a1.8,1.8,0,0,1-.209-2.534l1.681-1.973A1.8,1.8,0,0,1-4.7-75.188a1.8,1.8,0,0,1,.209,2.533l-1.681,1.973A1.8,1.8,0,0,1-8.7-70.473Z" transform="translate(19.053 99.935)" fill="none" stroke="#fff" stroke-linecap="round" stroke-linejoin="round" stroke-miterlimit="10" stroke-width="1"/>
      <path id="Path_456" data-name="Path 456" d="M-8.7-70.473h0a1.8,1.8,0,0,1-.209-2.534l1.681-1.973A1.8,1.8,0,0,1-4.7-75.188a1.8,1.8,0,0,1,.209,2.533l-1.681,1.973A1.8,1.8,0,0,1-8.7-70.473Z" transform="translate(21.795 102.26)" fill="none" stroke="#fff" stroke-linecap="round" stroke-linejoin="round" stroke-miterlimit="10" stroke-width="1"/>
      <path id="Path_457" data-name="Path 457" d="M-8.7-70.473h0a1.8,1.8,0,0,1-.209-2.534l1.681-1.973A1.8,1.8,0,0,1-4.7-75.188a1.8,1.8,0,0,1,.208,2.533l-1.681,1.973A1.8,1.8,0,0,1-8.7-70.473Z" transform="translate(24.537 104.585)" fill="none" stroke="#fff" stroke-linecap="round" stroke-linejoin="round" stroke-miterlimit="10" stroke-width="1"/>
      <path id="Path_458" data-name="Path 458" d="M-8.7-70.473h0a1.8,1.8,0,0,1-.209-2.534l1.681-1.973A1.8,1.8,0,0,1-4.7-75.188a1.8,1.8,0,0,1,.209,2.533l-1.681,1.973A1.8,1.8,0,0,1-8.7-70.473Z" transform="translate(27.279 106.91)" fill="none" stroke="#fff" stroke-linecap="round" stroke-linejoin="round" stroke-miterlimit="10" stroke-width="1"/>
      <path id="Path_459" data-name="Path 459" d="M-418.5-179.456l-.9-.667-4.252-3.138-.487-.343a8.687,8.687,0,0,1-7.8-2.661.863.863,0,0,0-1.2-.038c-3.764,3.381-5.944,2.514-7,1.508a1.084,1.084,0,0,1,.17-1.7,37.169,37.169,0,0,0,5.262-4.223l-.24-.09a9.036,9.036,0,0,0-2.663-.56l-2.489-.14a8.146,8.146,0,0,0-.979,0,3.828,3.828,0,0,1-1.723-.289l-1.8-.754-4.42,11.2,3.494,2.2,1.106.777,1.427-1.674a1.8,1.8,0,0,1,2.533-.209,1.8,1.8,0,0,1,.208,2.534,1.8,1.8,0,0,1,2.534-.209,1.8,1.8,0,0,1,.209,2.534,1.8,1.8,0,0,1,2.534-.209,1.8,1.8,0,0,1,.208,2.533,1.8,1.8,0,0,1,2.534-.209,1.8,1.8,0,0,1,.209,2.534l-.682.8,1.5,1.108a2.073,2.073,0,0,0,2.724-.2,2.04,2.04,0,0,0,.181-2.6l.753.555a2.072,2.072,0,0,0,2.779-.264,2.04,2.04,0,0,0,.028-2.665l.423.312a2.073,2.073,0,0,0,2.688-.169,2.04,2.04,0,0,0,.127-2.749l.635.468a2.039,2.039,0,0,0,2.818-.386A2.071,2.071,0,0,0-418.5-179.456Z" transform="translate(454.826 204.994)" fill="none" stroke="#fff" stroke-linecap="round" stroke-linejoin="round" stroke-miterlimit="10" stroke-width="1"/>
      <path id="Path_460" data-name="Path 460" d="M-161.846-6.073l-2.581-.409a2.745,2.745,0,0,0-2.382.779,39.805,39.805,0,0,1-6.342,5.281,1.084,1.084,0,0,0-.17,1.7c1.058,1.006,3.238,1.872,7-1.509a.863.863,0,0,1,1.2.038,8.686,8.686,0,0,0,7.82,2.659l6.051,4.466,3.782-2.429-4.319-10.948-2.625.969a4.534,4.534,0,0,1-2.279.225l-2-.318" transform="translate(188.001 18.924)" fill="none" stroke="#fff" stroke-linecap="round" stroke-linejoin="round" stroke-miterlimit="10" stroke-width="1"/>
      <path id="Path_461" data-name="Path 461" d="M-94.019-68.424l-1.792-4.543a.708.708,0,0,0-.919-.4l-3.7,1.459a.708.708,0,0,0-.4.919L-96.179-59.2a.708.708,0,0,0,.919.4l3.7-1.459a.708.708,0,0,0,.4-.919l-1.691-4.286" transform="translate(136.851 82.971)" fill="none" stroke="#fff" stroke-linecap="round" stroke-linejoin="round" stroke-miterlimit="10" stroke-width="1"/>
    </g>
  </g>
</svg>
