<svg xmlns="http://www.w3.org/2000/svg" width="39.627" height="39.452" viewBox="0 0 39.627 39.452">
  <g id="Group_644" data-name="Group 644" transform="translate(0 -1.127)">
    <path id="Path_449" data-name="Path 449" d="M29.989,90.4a3.064,3.064,0,0,0-2.064-.66,2.973,2.973,0,0,0-1.843.523,1.433,1.433,0,0,0-.688,1.1.592.592,0,0,0,.212.488.733.733,0,0,0,.473.172.53.53,0,0,0,.363-.14,1.663,1.663,0,0,0,.267-.3,1.007,1.007,0,0,1,.411-.3,1.786,1.786,0,0,1,.754-.14,1.6,1.6,0,0,1,1.028.306,1.042,1.042,0,0,1,.384.864,1.364,1.364,0,0,1-.158.632,1.851,1.851,0,0,1-.316.462q-.158.156-.475.428l-.4.326a2.726,2.726,0,0,0-.825,2.149.922.922,0,0,0,.144.6.626.626,0,0,0,.488.163q.688,0,.688-.5a3.988,3.988,0,0,1,.11-1.073,1.581,1.581,0,0,1,.578-.743l.263-.22.36-.344q.111-.11.34-.392a3.118,3.118,0,0,0,.347-.509,3.506,3.506,0,0,0,.222-.557,2.226,2.226,0,0,0,.1-.674,2.1,2.1,0,0,0-.77-1.665ZM28.421,98.34a.9.9,0,0,0-.66-.275.772.772,0,0,0-.619.275,1.04,1.04,0,0,0,0,1.314.764.764,0,0,0,.619.282.89.89,0,0,0,.66-.282.922.922,0,0,0,0-1.314ZM28.4,114.445a3.059,3.059,0,0,0-.578-.454l-4.8-2.857a3.318,3.318,0,0,0-4.047.511l-1.089,1.1a.309.309,0,0,1-.342.066.633.633,0,1,0-.509,1.159,1.582,1.582,0,0,0,1.752-.336l1.086-1.1a2.052,2.052,0,0,1,2.5-.315l4.79,2.854a1.78,1.78,0,0,1,.324,2.787l-.751.769a8.306,8.306,0,0,1-9.022,1.818,28.832,28.832,0,0,1-15.84-15.84A8.3,8.3,0,0,1,3.7,95.593l.773-.76A1.79,1.79,0,0,1,7,94.838a1.821,1.821,0,0,1,.265.326l2.852,4.778a2.052,2.052,0,0,1-.314,2.5l-1.107,1.1a1.583,1.583,0,0,0-.309,1.748,16.775,16.775,0,0,0,6.717,7.667.633.633,0,0,0,.655-1.083,15.515,15.515,0,0,1-6.215-7.1l0-.009a.307.307,0,0,1,.054-.337l1.1-1.1a3.318,3.318,0,0,0,.508-4.046l-2.865-4.8a3.079,3.079,0,0,0-4.754-.561l-.775.761a9.569,9.569,0,0,0-2.1,10.394,30.1,30.1,0,0,0,16.535,16.535,9.571,9.571,0,0,0,10.4-2.1l.751-.769A3.05,3.05,0,0,0,28.4,114.445Z" transform="translate(0 -81.755)" fill="#f6f6f6"/>
    <path id="Path_450" data-name="Path 450" d="M228.806,4.907a11.646,11.646,0,0,0-19.528,11.848.633.633,0,0,0,1.19-.432,10.38,10.38,0,1,1,3.592,4.807.634.634,0,0,0-.587-.088l-3.684,1.3,1.587-3.614a.633.633,0,1,0-1.159-.509l-1.755,4a1.085,1.085,0,0,0,1.353,1.459l3.767-1.327a11.646,11.646,0,0,0,15.223-17.44Z" transform="translate(-192.244)" fill="#f6f6f6"/>
  </g>
</svg>
