<svg xmlns="http://www.w3.org/2000/svg" width="39.452" height="39.452" viewBox="0 0 39.452 39.452">
  <g id="Group_636" data-name="Group 636" transform="translate(-10 -10)">
    <path id="Path_440" data-name="Path 440" d="M30.264,24.411v3.745a2.813,2.813,0,0,0,2.809,2.81h1.913l1.064,12A3.937,3.937,0,0,0,39.5,46.543v2.416a.493.493,0,0,0,.986,0V46.543a3.937,3.937,0,0,0,3.454-3.579l1.064-12h1.913a2.813,2.813,0,0,0,2.809-2.81V24.411A2.813,2.813,0,0,0,46.92,21.6h-.8a7.422,7.422,0,1,0-12.253,0h-.8a2.813,2.813,0,0,0-2.809,2.809Zm12.7,18.466a2.976,2.976,0,0,1-5.928,0l-1.056-11.91h8.04Zm5.782-18.466v3.745a1.825,1.825,0,0,1-1.823,1.824H33.073a1.825,1.825,0,0,1-1.823-1.824V24.411a1.825,1.825,0,0,1,1.823-1.823H46.92a1.825,1.825,0,0,1,1.823,1.823ZM33.561,17.422A6.436,6.436,0,1,1,44.889,21.6H35.1a6.436,6.436,0,0,1-1.543-4.18Z" transform="translate(-10.271)" fill="#f6f6f6"/>
    <path id="Path_441" data-name="Path 441" d="M27.521,36.9h4.411a.493.493,0,1,0,0-.986H27.521a.493.493,0,0,0,0,.986Zm21.438,2.455H45.231a.493.493,0,0,0,0,.986h3.728a.493.493,0,0,0,0-.986Zm-5.095,8.612,3.317,1.7a.493.493,0,0,0,.45-.878l-3.317-1.7a.493.493,0,1,0-.45.877Zm.225-15.306a.488.488,0,0,0,.224-.054l3.317-1.7a.493.493,0,0,0-.45-.878l-3.317,1.7a.493.493,0,0,0,.225.932ZM10,39.85a.493.493,0,0,0,.493.493h3.728a.493.493,0,1,0,0-.986H10.493A.493.493,0,0,0,10,39.85Zm5.588-8.119-3.317-1.7a.493.493,0,0,0-.45.878l3.317,1.7a.493.493,0,0,0,.45-.878Zm-.45,15.36-3.317,1.7a.493.493,0,0,0,.45.878l3.317-1.7a.493.493,0,1,0-.45-.877Z" transform="translate(0 -10.124)" fill="#f6f6f6"/>
  </g>
</svg>
