<svg id="Capa_1" data-name="Capa 1" xmlns="http://www.w3.org/2000/svg" viewBox="0 0 480 487.99"><defs><style>.cls-1{fill:#ff3844;}.cls-2{fill:#153b99;}</style></defs><title>amount</title><path class="cls-1" d="M207.68,17.66l8.64,13.47a97.3,97.3,0,0,1,103.33,0l8.64-13.47A111.78,111.78,0,0,0,207.68,17.66Z" transform="translate(-4 0)"/><path class="cls-1" d="M172,112H156a111.15,111.15,0,0,0,8.62,43.11l14.77-6.17A95.24,95.24,0,0,1,172,112Z" transform="translate(-4 0)"/><path class="cls-1" d="M304.89,200.61A94.77,94.77,0,0,1,268,208v16a111.08,111.08,0,0,0,43.09-8.61Z" transform="translate(-4 0)"/><path class="cls-1" d="M364,112a95.09,95.09,0,0,1-7.39,36.91l14.77,6.18A111.09,111.09,0,0,0,380,112Z" transform="translate(-4 0)"/><path class="cls-1" d="M268,32a80,80,0,1,0,80,80A80,80,0,0,0,268,32Zm0,144a64,64,0,1,1,64-64A64,64,0,0,1,268,176Z" transform="translate(-4 0)"/><path class="cls-1" d="M285.6,109.44l-9.6-3.2V85.71A12,12,0,0,1,284,96h16a29,29,0,0,0-24-27V64H260v5a29,29,0,0,0-24,27,20.09,20.09,0,0,0,14.4,18.55l9.6,3.2v20.52A12,12,0,0,1,252,128H236a29,29,0,0,0,24,27v5h16v-5a29,29,0,0,0,24-27A20.12,20.12,0,0,0,285.6,109.44ZM260,100.91l-4.56-1.53c-2-.68-3.44-2.08-3.44-3.39a12,12,0,0,1,8-10.28Zm16,37.36v-15.2l4.56,1.54c2,.68,3.44,2.07,3.44,3.38A12,12,0,0,1,276,138.27Z" transform="translate(-4 0)"/><path class="cls-2" d="M481.65,330.34,455.31,304l26.34-26.34a8,8,0,0,0,0-11.31l-104-104a8,8,0,0,0-11.31,0L264,264.68,153.65,154.34a8,8,0,0,0-11.31,0l-104,104a8,8,0,0,0,0,11.31L96.69,328H4v16H108a8,8,0,0,0,3.15-.65L165.64,320H284v32H196a8,8,0,0,0-3.35,15.27l104,48a8,8,0,0,0,8-.8l138.55-100,21.06,21.07L305,472H261.43l-150.67-55.5A7.88,7.88,0,0,0,108,416H4v16H106.56L257.23,487.5A8.12,8.12,0,0,0,260,488h48a8,8,0,0,0,5.2-1.93l168-144a8,8,0,0,0,.87-11.28C481.93,330.63,481.8,330.48,481.65,330.34ZM164,304a7.9,7.9,0,0,0-3.15.65l-1.95.8A39.78,39.78,0,0,1,232.54,304Zm85.64,0A55.77,55.77,0,0,0,196,264a56.38,56.38,0,0,0-55.6,49.41l-25,10.7L55.31,264,148,171.3,280.68,304Zm49.47,94.78L232.42,368H292a8,8,0,0,0,8-8V323.3l43.44,43.44Zm1.64-97.34a35.91,35.91,0,1,1,41.81,41.81Zm54.79,54.78a52.16,52.16,0,0,0,9.17-4.84l-8.14,5.87Zm83.26-58.34-70.49,50.92a52,52,0,1,0-80.55-60.33L275.31,276,372,179.3,464.68,272Z" transform="translate(-4 0)"/></svg>