<?xml version="1.0" encoding="utf-8"?>
<!-- Generator: Adobe Illustrator 23.0.0, SVG Export Plug-In . SVG Version: 6.00 Build 0)  -->
<svg version="1.1" id="Layer_1" xmlns="http://www.w3.org/2000/svg" xmlns:xlink="http://www.w3.org/1999/xlink" x="0px" y="0px"
	 viewBox="0 0 512 512" style="enable-background:new 0 0 512 512;" xml:space="preserve">
<style type="text/css">
	.st0{fill:#F3BA2F;}
</style>
<polygon class="st0" points="159,215.4 257.8,116.7 356.6,215.5 414,158 257.8,1.8 101.6,158 "/>
<rect x="20.4" y="215.4" transform="matrix(0.7071 -0.7071 0.7071 0.7071 -163.1471 118.1129)" class="st0" width="81.3" height="81.3"/>
<polygon class="st0" points="159,296.6 257.8,395.3 356.6,296.5 414,353.9 414,354 257.8,510.2 101.6,354 101.5,353.9 "/>
<rect x="413.9" y="215.4" transform="matrix(0.7071 -0.7071 0.7071 0.7071 -47.8999 396.3985)" class="st0" width="81.3" height="81.3"/>
<polygon class="st0" points="316,256 316.1,256 257.8,197.7 214.7,240.8 214.7,240.8 209.7,245.7 199.5,255.9 199.5,255.9 
	199.4,256 199.5,256.1 257.8,314.3 316.1,256 316.1,256 "/>
</svg>
