<svg id="Layer_1" data-name="Layer 1" xmlns="http://www.w3.org/2000/svg" viewBox="0 0 333.89 402"><defs><style>.cls-1{fill:#153b99;}.cls-2{fill:#ff3844;}</style></defs><title>smartphone</title><path class="cls-1" d="M245.93,347.49H41.52a6.81,6.81,0,0,1-6.81-6.81V28.22A28.25,28.25,0,0,1,62.93,0H224.52a28.25,28.25,0,0,1,28.22,28.22V109a6.82,6.82,0,0,1-13.63,0V28.22a14.61,14.61,0,0,0-14.59-14.59H62.93a14.62,14.62,0,0,0-14.6,14.59V333.87H239.11v-81.8a6.82,6.82,0,1,1,13.63,0v88.61A6.81,6.81,0,0,1,245.93,347.49Z" transform="translate(-34.71)"/><path class="cls-1" d="M245.93,142a6.81,6.81,0,0,1-6.82-6.81V109a6.82,6.82,0,1,1,13.63,0v26.15A6.8,6.8,0,0,1,245.93,142Z" transform="translate(-34.71)"/><path class="cls-1" d="M136.91,136.27c-16.31,0-31.28-5.75-40-15.38A6.81,6.81,0,1,1,107,111.72c6.13,6.74,17.61,10.93,30,10.93s23.62-4.12,29.78-10.75a6.81,6.81,0,0,1,10,9.27C167.9,130.63,153,136.27,136.91,136.27Z" transform="translate(-34.71)"/><path class="cls-1" d="M224.52,402H62.93a28.25,28.25,0,0,1-28.22-28.22v-33.1a6.8,6.8,0,0,1,6.81-6.81H245.93a6.8,6.8,0,0,1,6.81,6.81v33.1A28.25,28.25,0,0,1,224.52,402ZM48.33,347.49v26.29a14.61,14.61,0,0,0,14.6,14.59H224.52a14.61,14.61,0,0,0,14.59-14.59V347.49Z" transform="translate(-34.71)"/><path class="cls-1" d="M157.35,367.93a13.63,13.63,0,1,1-13.63-13.62A13.63,13.63,0,0,1,157.35,367.93Z" transform="translate(-34.71)"/><path class="cls-1" d="M198.23,85.17a6.81,6.81,0,0,1-6.81-6.81,6.82,6.82,0,1,0-13.63,0,6.82,6.82,0,0,1-13.63,0,20.45,20.45,0,0,1,40.89,0A6.82,6.82,0,0,1,198.23,85.17Z" transform="translate(-34.71)"/><path class="cls-1" d="M102.84,85.17A6.81,6.81,0,0,1,96,78.36a6.82,6.82,0,1,0-13.63,0,6.82,6.82,0,0,1-13.63,0,20.45,20.45,0,0,1,40.89,0A6.82,6.82,0,0,1,102.84,85.17Z" transform="translate(-34.71)"/><path class="cls-2" d="M273.63,263.28a69.44,69.44,0,0,1-44.52-122.77c27.58-23,121.8-26.64,132.45-27A6.53,6.53,0,0,1,367,116a6.81,6.81,0,0,1,1.43,5.81c-2.25,10.41-22.82,102.43-50.4,125.42A69.15,69.15,0,0,1,273.63,263.28Zm79.52-135.74c-32.44,1.71-96.89,8.09-115.31,23.45a55.82,55.82,0,1,0,71.48,85.75C327.75,221.37,345.62,159.13,353.15,127.54ZM233.47,145.75h0Z" transform="translate(-34.71)"/><path class="cls-2" d="M203.92,301.25a6.81,6.81,0,0,1-6.69-5.58c-16.46-89.52,80.36-111.34,81.34-111.55a6.81,6.81,0,0,1,2.86,13.32c-3.47.75-84.85,19.33-70.8,95.77a6.8,6.8,0,0,1-5.47,7.93A7.42,7.42,0,0,1,203.92,301.25Z" transform="translate(-34.71)"/><path class="cls-2" d="M300.44,177.15a6.35,6.35,0,0,1-1.66-.21,6.79,6.79,0,0,1-4.95-8.25l6.81-27.26a6.81,6.81,0,0,1,13.22,3.31L307.05,172A6.82,6.82,0,0,1,300.44,177.15Z" transform="translate(-34.71)"/><path class="cls-2" d="M259.56,184a6.82,6.82,0,0,1-6.82-6.82V156.71a6.82,6.82,0,0,1,13.63,0v20.44A6.81,6.81,0,0,1,259.56,184Z" transform="translate(-34.71)"/><path class="cls-2" d="M320.87,204.41H300.43a6.82,6.82,0,0,1,0-13.63h20.44a6.82,6.82,0,1,1,0,13.63Z" transform="translate(-34.71)"/><path class="cls-2" d="M293.63,231.66a6.83,6.83,0,0,1-1.34-.13l-34.07-6.81a6.81,6.81,0,1,1,2.67-13.36L295,218.17a6.81,6.81,0,0,1-1.33,13.49Z" transform="translate(-34.71)"/><path class="cls-1" d="M150.54,299.8H96a6.82,6.82,0,0,1,0-13.63h54.51a6.82,6.82,0,0,1,0,13.63Z" transform="translate(-34.71)"/><path class="cls-1" d="M171,279.36H96a6.82,6.82,0,0,1,0-13.63H171a6.82,6.82,0,0,1,0,13.63Z" transform="translate(-34.71)"/><path class="cls-1" d="M123.28,231.66H96A6.82,6.82,0,0,1,96,218h27.25a6.82,6.82,0,1,1,0,13.63Z" transform="translate(-34.71)"/><path class="cls-1" d="M150.54,211.22H96a6.82,6.82,0,0,1,0-13.63h54.51a6.82,6.82,0,0,1,0,13.63Z" transform="translate(-34.71)"/></svg>