<?xml version="1.0" encoding="utf-8"?>
<!-- Generator: Adobe Illustrator 23.0.0, SVG Export Plug-In . SVG Version: 6.00 Build 0)  -->
<svg version="1.1" id="Layer_1" xmlns="http://www.w3.org/2000/svg" xmlns:xlink="http://www.w3.org/1999/xlink" x="0px" y="0px"
	 viewBox="0 0 512 512" style="enable-background:new 0 0 512 512;" xml:space="preserve">
<style type="text/css">
	.st0{fill:#E85C50;}
	.st1{fill:#CF3339;}
	.st2{fill:#E33936;}
	.st3{fill:#E34C37;}
	.st4{fill:#E9654C;}
	.st5{fill:#E7563D;}
	.st6{fill:#E33937;}
	.st7{fill:#E75840;}
	.st8{fill:#E04437;}
	.st9{fill:#E24837;}
</style>
<path class="st0" d="M172,25.4c0.4,0.1,0.7,0.5,0.6,1c0,0.9,0,1.7,0,2.5v300.6c0,1-0.1,2-0.1,3c0.4,0.9,1.2,0.5,1.7,0.5
	c54,0,108,0,162,0.1c1.7,0,2.5-0.4,2.2-2.2c0-0.6,0-1.1,0-1.7c0-100.1,0-200.2,0-300.2c0-1.1-0.6-2.3,0.7-3.1
	c0.4-0.4,1.1-0.3,1.4,0.2c0,0,0,0.1,0.1,0.1c0.5,0.6,0.8,1.2,1.1,1.9c6.2,12.2,12.4,24.4,18.5,36.6c5.1,10.2,10.1,20.4,15.2,30.5
	c5.6,11.3,11.3,22.5,16.9,33.8c5.1,10.1,10.2,20.3,15.2,30.5c4.5,9.2,9.2,18.2,13.6,27.4c0.6,1.3,1.7,2.4,2.2,3.9
	c0.2,1.7,0.3,3.5,0.2,5.2v292.8c0,0.9,0,1.7,0,2.5c0,3.2,0,3.2,3.1,3.8c0.4,0.1,0.8,0.3,1.1,0.6c-2.1,1-4.4,1.4-6.6,1.9
	c-10,2.4-20.2,3.9-30.5,4.7c-4.8,0.3-9.5,0.4-14.3,0.5c-24.6,0.4-49.3,0.3-73.9,0.3c-42.8,0-85.6,0-128.3-0.1
	c-0.9,0-1.8,0.2-2.6-0.3c0.3-0.2,0.5-0.4,0.9-0.5c1.5-0.3,3.1-0.4,4.7-0.3h156.5c1.4,0.1,2.8,0,4.2-0.1c1.3-0.6,0.8-1.7,0.8-2.6
	c0-34.8,0-69.5,0-104.3v-54.4c0-1.1,0-2.2,0.1-3.3c-1.3,4-3.4,7.7-5.3,11.6c-6.9,14.4-13.7,28.9-20.5,43.3
	c-3.8,7.9-7.5,15.7-11.2,23.7c-0.5,1.1-1,2.3-2.2,2.9c-1.2,0.3-2.4,0.4-3.7,0.3h-80.5c-1.1,0.1-2.1,0-3.2-0.2
	c-1.6-0.5-2.1-2-2.8-3.3c-4.7-10-9.4-20-14.1-29.9c-5.1-10.8-10.2-21.6-15.3-32.3c-2.4-5.1-4.8-10.3-7.5-15.7c0,1.5,0,2.7,0,3.8
	c0,52.2,0,104.5,0,156.7c0,1.6,0.4,3.3-0.7,4.8c-0.9,0-1.6,0.1-2.5,0.1c-12.2,0-24.4,0-36.5,0c-3.1,0-6.2-0.1-9.4-0.2
	c-0.6,0-1.2,0.1-1.6-0.3c0.6-0.5,1.3-0.3,1.9-0.3c14.9,0,29.8,0,44.7,0c0.6,0,1.1-0.1,1.3,0c-14.8,0-30,0-45.2,0
	c-0.9,0-1.8-0.3-2.6,0.3c-3.8,0.2-7.5-0.4-11.3-0.7c-7.3-0.7-14.5-2.2-21.7-3.4c-0.2-0.1-0.4-0.2-0.6-0.3c0.9-1.9,0.7-3.9,0.7-5.8
	c0-98.2,0-196.5,0-294.7c-0.1-1.7,0-3.5,0.1-5.2c0.4-1.8,1.1-3.5,2-5c5.1-10.2,10.2-20.3,15.2-30.5c18.6-38,37.7-75.8,56.6-113.7
	c2.3-4.7,4.8-9.4,7.1-14.1c0.4-0.8,0.6-2.4,2.1-1c0,94,0,187.9,0,281.9c0,7.3,0,14.7,0,22c0-100.5,0-201,0-301.5
	C171.8,28.3,171.2,26.8,172,25.4z"/>
<path class="st1" d="M89.4,190.7c0,100.9,0,201.9,0,302.8c0,0.9,0,1.7,0,2.5c0.1,1.2-0.7,1.4-1.5,1.4c-12.1-2.8-24-6.6-35.1-12.3
	c-6.1-3.1-12.1-6.5-17.4-10.8c-14.7-12-24.8-26.7-27.1-46c0-0.7,0-1.3,0-2c-0.2-0.9-0.3-1.8-0.2-2.7c0-131,0-262,0-392.9
	c-0.1-0.9,0-1.8,0.2-2.7c1.2,0.1,1.4,1.1,1.8,1.9c4.6,9.1,9.1,18.3,13.7,27.4c5.5,10.9,11,21.9,16.5,32.9
	c5.1,10.2,10.3,20.4,15.3,30.7c3.1,6.4,6.4,12.8,9.6,19.2c3,5.9,6,11.7,8.8,17.7c3.4,7.1,7,14.2,10.7,21.2c1.6,3,2.8,6.1,4.3,9.2
	C89.6,188.9,89.7,189.8,89.4,190.7z"/>
<path class="st1" d="M427.8,495.4c-1.2-0.1-2.3,0.1-3.4,0.4c-1,0.2-1.6-0.1-1.6-1.3c0-0.6,0-1.1,0-1.7V189.7
	c-0.8-1.4,0.3-2.4,0.8-3.4c8.2-15.9,16.3-32,24.3-48c0.2-0.4,0.4-0.7,0.6-1.1c0.1-0.2,0.2-0.3,0.3-0.5c0.1-0.3,0.3-0.5,0.4-0.8
	c0.1-0.3,0.2-0.3,0.3-0.5c0.3-0.5,0.5-1.1,0.8-1.7c0.1-0.2,0.2-0.4,0.3-0.6c4.3-8,8.2-16.2,12.2-24.3c2.2-4.3,4.3-8.5,6.4-12.8
	c1.9-3.8,3.8-7.6,5.7-11.4c0.1-0.2,0.3-0.5,0.5-0.7c6.3-12.2,12.2-24.7,18.5-36.9c2.6-5,5.2-10.1,7.8-15.2c0.5-0.9,0.8-2,2.1-2.3
	c0.5,1,0.3,2.1,0.3,3.1c0,77.8,0,155.6,0,233.4c0,51.6,0,103.3,0,155c0.1,1,0.1,2-0.2,2.9c0.4,3.5-1,6.8-1.8,10.1
	c-2.7,10.5-8.5,19.3-15.7,27.4c-5.4,6.2-11.6,11.7-18.5,16.3c-8.7,5.7-18,10.4-27.8,13.9C436.1,493.1,432,494.4,427.8,495.4z"/>
<path class="st2" d="M89.4,190.7c-0.2-0.8-0.5-1.6-0.9-2.3c-2.3-4.8-4.8-9.5-7.1-14.4c-2.2-4.7-4.9-9.1-7-13.9
	c-1.9-4.4-4.5-8.4-6.4-12.8c-2.4-5.5-5.7-10.6-7.9-16.2c-0.9-2.2-2.3-4.2-3.3-6.3c-1.6-3.2-2.9-6.6-4.7-9.8
	c-3.5-6.2-6.3-12.7-9.6-18.9c-2.1-4.1-4.4-8.1-6.2-12.3c-2-4.6-4.8-8.8-6.7-13.4c-2.4-5.6-5.7-10.7-8-16.4c-1.1-2.7-2.9-5.2-4.1-7.9
	c-2.7-6-6.1-11.6-9.2-17.7v394.8c0,1,0,2,0,3c-0.9-2.7-0.6-5.6-0.6-8.3c0-34.9,0-69.9,0-104.8V32.9c0.1-2.5,0-4.9-0.2-7.4
	c0.8-0.3,1.6-0.4,2.4-0.2c53.1,0,106.1,0,159.2,0h1.5c1.8,0,1.1,0.9,0.6,1.7l-32.3,64.3c-6.7,13.4-13.4,26.8-20.1,40.2
	c-2.5,4.9-4.8,9.9-7.2,14.9c-6.8,13.6-13.6,27.2-20.4,40.9L89.4,190.7z"/>
<path class="st2" d="M448.5,137.8c-0.1,0.7-0.3,1.3-0.7,1.8c-5.4,10.8-10.7,21.7-16.3,32.4c-2.7,5.1-5.2,10.2-7.9,15.4
	c-0.5,0.7-0.8,1.5-0.9,2.3c-1,0-1.1-0.9-1.5-1.5c-1.1-2.1-2-4.3-3.1-6.5c-1.3-2.6-2.7-5.1-4-7.7c-2.3-4.7-4.8-9.4-7-14.1
	c-2.3-5-5.2-9.7-7.4-14.8c-2.4-5.4-5.5-10.5-7.8-15.9c-1.3-3-3-5.8-4.5-8.8c-2.3-4.6-4.8-9.2-6.9-13.9c-2.4-5.4-5.5-10.5-7.9-15.9
	c-1.3-3-3.2-5.8-4.5-8.8c-2.6-5.7-5.8-11.1-8.3-16.8c-1.3-3-3.1-5.8-4.5-8.8c-4.7-9.4-9.4-18.8-14.1-28.3c-0.5-0.7-0.9-1.6-1-2.5
	l0.4-0.2c32.3-0.1,64.6,0,96.8,0c21.4,0,42.8,0,64.2,0c0.9,0,1.8-0.2,2.7,0.2c0.1,0.7,0.9,1.3,0.1,2c-2.4,2.8-3.5,6.3-5.2,9.5
	c-8.2,15.9-16.1,31.9-24.1,47.9l0,0c-2.1,3.7-4,7.6-5.8,11.4c-2.2,4.3-4.4,8.5-6.4,12.9c-4.3,8.2-8.2,16.6-12.5,24.7l0,0
	c-0.4,0.6-0.8,1.3-1,2l0,0c-0.3,0.3-0.2,0.7-0.5,1l0,0C448.7,137,448.8,137.5,448.5,137.8z"/>
<path class="st3" d="M475.2,84.8c1.3-4.5,3.7-8.4,5.9-12.4c0.7-1.4,1.2-2.8,1.9-4.3c2.9-5.8,5.8-11.6,8.7-17.4
	c2.3-4.5,4.5-9.1,6.8-13.6c1.6-3,3-6,4.5-9c0.3-0.6,0.6-1.2,1.4-0.7c0,16,0,32,0,48c0,113.9,0,227.8,0,341.7c0,2.2,0.2,4.5-0.4,6.6
	c0-0.9-0.1-1.6-0.1-2.5V30c-0.7,0.1-0.9,0.7-1.1,1.1c-0.9,1.6-1.6,3.3-2.4,4.9c-8.1,15.5-15.9,31.3-23.7,47
	C476.3,83.6,476.1,84.5,475.2,84.8z"/>
<path class="st4" d="M340.2,25.5c-1,0.2-1.7,1.1-1.5,2.1c0,0,0,0.1,0,0.1c0,0.7,0,1.3,0,2c0,100,0,199.9,0,299.9
	c0,4,0.4,3.6-3.6,3.6c-53.2,0-106.3,0-159.5,0c-1.1,0-2.3,0.6-3.1-0.7c0.8,0.3,1.8,0.4,2.7,0.3h160.5c0.3,0,0.7,0,1,0
	c1.1,0.1,1.7-0.4,1.6-1.6c-0.1-0.7,0-1.5,0-2.2V28.8c0-0.6,0-1.1,0-1.7c-0.1-1.4,0.6-2,1.9-1.8L340.2,25.5L340.2,25.5z"/>
<path class="st5" d="M171,27c0-0.6,0.6-1.6-0.9-1.5c-0.7,0-1.3,0-2,0H7.3C8,24.6,9,25.1,9.8,25.1c11.3,0,22.6,0,33.8,0
	c41.7,0,83.5,0,125.2,0c1,0,2.2-0.3,3.1,0.4c0,34.3,0,68.6,0,102.9v203.7c-0.8-0.4-0.4-1-0.5-1.4c0-0.6,0-1.1,0-1.7
	c0-99.6,0-199.1,0-298.7C171.5,29.2,171.9,28,171,27z"/>
<path class="st0" d="M340.2,25.5c0-0.1,0-0.2,0-0.3c0.9-0.1,1.8-0.1,2.7-0.1c52.9,0,105.8,0,158.7,0c0.9,0,2-0.4,2.7,0.4L340.2,25.5
	z"/>
<path class="st1" d="M338.7,502.3c-1.1,0-2.1,0-3.2,0H175c-1,0-2-0.1-3-0.1c-0.2-1,0-2,0.5-2.9c4.3-8.9,8.4-17.9,12.7-26.8
	c8.4-17.6,16.6-35.3,25.1-52.9c0.2-0.7,0.6-1.3,1.2-1.8h88c2.1,3.7,3.8,7.7,5.6,11.5c3.4,7.4,6.9,14.8,10.4,22.1
	c7.5,15.8,15,31.6,22.4,47.4C338.7,499.8,338.9,501.1,338.7,502.3z"/>
<path class="st6" d="M211.5,417.7c-0.3,1.4-0.9,2.8-1.6,4.1c-4.1,8.5-8.3,17-12.3,25.6c-2.7,5.8-5.5,11.6-8.2,17.4
	c-3.2,6.7-6.3,13.4-9.5,20c-2.4,5-4.7,10-7,15c-0.3,0.7-0.6,1.5-0.9,2.3l-0.6,0.2l0,0c0-1.1,0-2.1,0-3.2V334.8
	c0.8,0.5,1.4,1.2,1.6,2.1c1.7,3.6,3.2,7.2,4.9,10.8c2.6,5.5,5.4,10.9,7.9,16.5c4.5,9.7,9.1,19.3,13.7,29c2.7,5.7,5.3,11.5,8.1,17.2
	C209,412.8,209.8,415.5,211.5,417.7z"/>
<path class="st6" d="M338.7,502.3c-0.6-3-2.3-5.4-3.4-8.2c-1.4-3.5-3.2-6.9-4.8-10.3c-3.8-8-7.7-16-11.5-24
	c-3-6.5-6.1-12.9-9.2-19.4c-3.3-6.8-6.4-13.7-9.6-20.6c-0.4-0.6-0.6-1.4-0.6-2.1c5-10.4,10-20.8,14.8-31.2
	c2.9-6.1,5.8-12.2,8.7-18.3c3.2-6.8,6.4-13.6,9.7-20.3c1.7-3.5,3.3-7.2,4.9-10.8c0.3-0.9,0.8-1.7,1.5-2.3v2.6c0,54,0,108,0,162
	C339.1,500.4,339.6,501.5,338.7,502.3z"/>
<path class="st7" d="M121.4,501.9c0.6-0.7,1.3-0.6,2.1-0.6h46.2c0.3,0,0.7,0.1,1,0.2c-0.9,0.3-1.9,0.4-2.8,0.3h-44.3
	C122.9,501.8,122.2,501.9,121.4,501.9L121.4,501.9z"/>
<path class="st8" d="M450.5,133.8c0-0.6,0.2-1.1,0.6-1.6c3.6-7.3,7.3-14.6,11-21.9c0.2-0.5,0.5-0.9,0.9-1.2c0.2-0.2,0.3-0.2,0.5,0
	c-3.8,7.5-7.5,15.1-11.3,22.6C451.6,132.5,451.4,133.4,450.5,133.8z"/>
<path class="st9" d="M463.3,109.1h-0.5c1.1-3.1,2.8-5.9,4.2-8.8c0.7-1.4,1.1-2.9,2.2-4c0.2-0.2,0.3-0.2,0.5,0L463.3,109.1z"/>
<path class="st3" d="M469.7,96.2h-0.5c1.7-4,3.4-7.9,6-11.4c0,0.5-0.1,1-0.3,1.4C472.9,89.4,471.5,92.9,469.7,96.2z"/>
<path class="st8" d="M449.5,135.8c-0.2-0.8,0.2-1.7,1-2C450.4,134.6,450.1,135.3,449.5,135.8z"/>
<path class="st8" d="M449,136.8c0-0.4,0.1-0.8,0.5-1C449.5,136.2,449.3,136.6,449,136.8z"/>
<path class="st8" d="M448.5,137.8c0-0.4,0.1-0.8,0.5-1C449,137.2,448.8,137.6,448.5,137.8z"/>
</svg>
