<svg xmlns="http://www.w3.org/2000/svg" width="119.783" height="20.159" viewBox="0 0 119.783 20.159">
  <g id="Group_1" data-name="Group 1" transform="translate(2767.2 -408.5)">
    <path id="Path_1" data-name="Path 1" d="M8.182,7V22.5H20.29V7h5.72V23.533a2.944,2.944,0,0,1-.4,1.548,3.88,3.88,0,0,1-1.034,1.145,4.405,4.405,0,0,1-1.4.694,5.666,5.666,0,0,1-1.548.228H6.894a6.183,6.183,0,0,1-1.617-.212,4.455,4.455,0,0,1-1.4-.647,3.207,3.207,0,0,1-1-1.113A3.368,3.368,0,0,1,2.5,23.528V7Z" transform="translate(-2769.7 401.505)" fill="#f74d49"/>
    <path id="Path_2" data-name="Path 2" d="M498.4,10.52a3.382,3.382,0,0,1,.371-1.649,3.207,3.207,0,0,1,1-1.113,4.456,4.456,0,0,1,1.4-.647,6.153,6.153,0,0,1,1.617-.212H517.52a5.506,5.506,0,0,1,1.553.228,4.406,4.406,0,0,1,1.4.694,3.881,3.881,0,0,1,1.034,1.145,2.962,2.962,0,0,1,.4,1.553V23.439a2.51,2.51,0,0,1-.323,1.357l2.454,2.258H502.794a6.183,6.183,0,0,1-1.617-.212,4.456,4.456,0,0,1-1.4-.647,3.207,3.207,0,0,1-1-1.113,3.368,3.368,0,0,1-.371-1.649Zm15.4,7.1,2.391,2.226v-8.3H504.082V22.4h6.266l-5.3-4.781Z" transform="translate(-3239.313 401.6)" fill="#f74d49"/>
    <path id="Path_3" data-name="Path 3" d="M1003.683,7V22.5h12.112V7h5.714V23.533a2.944,2.944,0,0,1-.4,1.548,3.9,3.9,0,0,1-1.034,1.15,4.4,4.4,0,0,1-1.4.694,5.469,5.469,0,0,1-1.548.228h-14.726a6.182,6.182,0,0,1-1.617-.212,4.455,4.455,0,0,1-1.4-.647,3.206,3.206,0,0,1-1-1.113A3.368,3.368,0,0,1,998,23.533V7Z" transform="translate(-3712.43 401.505)" fill="#f74d49"/>
    <path id="Path_4" data-name="Path 4" d="M1493.9,22.627h4.394V11.522H1493.9V7h14.466v4.522h-4.389V22.627h4.394v4.522h-14.466V22.627Z" transform="translate(-4182.044 401.505)" fill="#f74d49"/>
    <path id="Path_5" data-name="Path 5" d="M1819.2,15.4h5.778v7.039h11.238l.52-.387V11.909l-.52-.387H1819.2V7h20.636a2.032,2.032,0,0,1,.986.276,3.854,3.854,0,0,1,.906.694,4.319,4.319,0,0,1,.678.922,2.024,2.024,0,0,1,.276.954V23.311a4.589,4.589,0,0,1-.307,1.776,3.146,3.146,0,0,1-.822,1.193,3.292,3.292,0,0,1-1.161.663,4.373,4.373,0,0,1-1.357.212h-19.83V15.4Z" transform="translate(-4490.1 401.505)" fill="#f74d49"/>
  </g>
</svg>
