<svg xmlns="http://www.w3.org/2000/svg" width="92.053" height="15.49" viewBox="0 0 92.053 15.49">
  <g id="logo" transform="translate(-30.183 -3.405)">
    <path id="Path_20" data-name="Path 20" d="M757.718,99.15v11.914h9.306V99.15h4.393v12.707a2.281,2.281,0,0,1-.31,1.191,3,3,0,0,1-.794.881,3.374,3.374,0,0,1-1.08.534,4.226,4.226,0,0,1-1.191.174H756.725a4.722,4.722,0,0,1-1.241-.163,3.48,3.48,0,0,1-1.08-.5,2.464,2.464,0,0,1-.77-.855,2.6,2.6,0,0,1-.285-1.266V99.15Z" transform="translate(-723.167 -95.744)" fill="#fff"/>
    <path id="Path_21" data-name="Path 21" d="M1249.26,101.911a2.6,2.6,0,0,1,.285-1.266,2.466,2.466,0,0,1,.77-.855,3.48,3.48,0,0,1,1.079-.5,4.744,4.744,0,0,1,1.241-.163h11.318a4.242,4.242,0,0,1,1.192.174,3.378,3.378,0,0,1,1.08.534,3,3,0,0,1,.794.881,2.284,2.284,0,0,1,.311,1.192v9.928a1.944,1.944,0,0,1-.248,1.042l1.886,1.737h-16.331a4.726,4.726,0,0,1-1.241-.163,3.48,3.48,0,0,1-1.079-.5,2.466,2.466,0,0,1-.77-.855,2.6,2.6,0,0,1-.285-1.266Zm11.839,5.459,1.837,1.711V102.7h-9.307v8.34h4.815l-4.07-3.673Z" transform="translate(-1198.875 -95.725)" fill="#fff"/>
    <path id="Path_22" data-name="Path 22" d="M1753.2,99.15v11.914h9.307V99.15h4.393v12.707a2.28,2.28,0,0,1-.31,1.191,2.994,2.994,0,0,1-.794.883,3.376,3.376,0,0,1-1.08.534,4.224,4.224,0,0,1-1.191.174h-11.317a4.726,4.726,0,0,1-1.241-.163,3.48,3.48,0,0,1-1.08-.5,2.464,2.464,0,0,1-.77-.855,2.6,2.6,0,0,1-.285-1.266V99.15Z" transform="translate(-1678.093 -95.744)" fill="#fff"/>
    <path id="Path_23" data-name="Path 23" d="M2244.74,111.162h3.375v-8.537h-3.375V99.15h11.119v3.475h-3.375v8.537h3.375v3.475H2244.74Z" transform="translate(-2153.8 -95.744)" fill="#fff"/>
    <path id="Path_24" data-name="Path 24" d="M2570.07,105.6h4.44v5.411h8.636l.4-.3v-7.793l-.4-.3H2570.07V99.15h15.859a1.573,1.573,0,0,1,.757.211,2.918,2.918,0,0,1,.7.534,3.329,3.329,0,0,1,.521.707,1.536,1.536,0,0,1,.211.733v10.349a3.564,3.564,0,0,1-.236,1.365,2.436,2.436,0,0,1-.633.919,2.534,2.534,0,0,1-.894.509,3.351,3.351,0,0,1-1.042.163H2570.07Z" transform="translate(-2465.877 -95.744)" fill="#fff"/>
  </g>
</svg>
