<svg width="21" height="21" viewBox="0 0 21 21" fill="none" xmlns="http://www.w3.org/2000/svg">
<path opacity="0.6" d="M18.976 0.0268555H1.44972C0.64664 0.0268555 -0.00585938 0.688481 -0.00585938 1.50068V18.995C-0.00585938 19.8072 0.64664 20.4688 1.44972 20.4688H18.976C19.779 20.4688 20.4361 19.8072 20.4361 18.995V1.50068C20.4361 0.688481 19.779 0.0268555 18.976 0.0268555ZM6.17236 17.5485H3.14257V7.79297H6.17692V17.5485H6.17236ZM4.65746 6.46059C3.68556 6.46059 2.90073 5.67121 2.90073 4.70386C2.90073 3.73652 3.68556 2.94713 4.65746 2.94713C5.6248 2.94713 6.41419 3.73652 6.41419 4.70386C6.41419 5.67577 5.62937 6.46059 4.65746 6.46059ZM17.5295 17.5485H14.4997V12.8031C14.4997 11.6715 14.4769 10.2159 12.9255 10.2159C11.3467 10.2159 11.1049 11.4479 11.1049 12.7209V17.5485H8.0751V7.79297H10.9817V9.12535H11.0228C11.4289 8.35878 12.419 7.55114 13.8928 7.55114C16.9591 7.55114 17.5295 9.57252 17.5295 12.2008V17.5485Z" fill="white"/>
</svg>
