<svg width="26" height="18" viewBox="0 0 26 18" fill="none" xmlns="http://www.w3.org/2000/svg">
<path opacity="0.6" d="M24.8351 3.22836C24.5485 2.14923 23.704 1.29934 22.6319 1.01092C20.6885 0.486816 12.8959 0.486816 12.8959 0.486816C12.8959 0.486816 5.10332 0.486816 3.15992 1.01092C2.08777 1.29938 1.24336 2.14923 0.956757 3.22836C0.436035 5.18436 0.436035 9.26536 0.436035 9.26536C0.436035 9.26536 0.436035 13.3464 0.956757 15.3023C1.24336 16.3815 2.08777 17.196 3.15992 17.4844C5.10332 18.0085 12.8959 18.0085 12.8959 18.0085C12.8959 18.0085 20.6885 18.0085 22.6319 17.4844C23.704 17.196 24.5485 16.3815 24.8351 15.3023C25.3558 13.3464 25.3558 9.26536 25.3558 9.26536C25.3558 9.26536 25.3558 5.18436 24.8351 3.22837V3.22836ZM10.3473 12.9706V5.56012L16.8604 9.26545L10.3473 12.9706V12.9706Z" fill="white"/>
</svg>
