<svg width="24" height="24" viewBox="0 0 24 24" fill="none" xmlns="http://www.w3.org/2000/svg">
<path d="M10.1748 13.4196L19.5873 22.8322C19.6406 22.8854 19.7038 22.9277 19.7734 22.9565C19.8429 22.9853 19.9175 23.0001 19.9928 23.0001C20.4717 23.0001 20.7396 22.4479 20.4433 22.0718L11.9488 11.2904L11.9486 11.2897C11.8374 10.8447 11.6312 10.4291 11.3442 10.0713C11.0572 9.71359 10.6962 9.42216 10.286 9.21705L10.1746 9.16132L8.04553 9.87099L4.45247 13.7635C4.25699 13.9753 4.13061 14.2415 4.09014 14.5269C4.04968 14.8122 4.09703 15.1031 4.22591 15.3609L6.98102 20.8711L6.62614 23.0001H7.15539C7.30961 23.0001 7.45963 22.9499 7.58275 22.857C7.70587 22.7641 7.79539 22.6337 7.83775 22.4854L8.27177 20.9663C8.35531 20.674 8.34277 20.3626 8.23601 20.078L6.27131 14.8388L9.11004 12.3549" stroke="#667EEA" stroke-width="0.8" stroke-miterlimit="10" stroke-linecap="round" stroke-linejoin="round"/>
<path d="M10.6136 4.75689L8.04555 5.61286H3.98535C3.68009 5.61286 3.43265 5.86035 3.43265 6.16561C3.43265 6.30485 3.48521 6.43896 3.57982 6.54113C3.67443 6.6433 3.80411 6.70599 3.94295 6.71667L7.61657 6.99927C7.90044 7.02109 8.18596 6.99396 8.46064 6.91906L11.054 6.21178C11.5169 6.08553 11.7486 5.56735 11.534 5.1382C11.3648 4.79974 10.9725 4.63724 10.6136 4.75689Z" stroke="#667EEA" stroke-width="0.8" stroke-miterlimit="10" stroke-linecap="round" stroke-linejoin="round"/>
<path d="M10.1746 9.16131V6.67742" stroke="#667EEA" stroke-width="0.8" stroke-miterlimit="10" stroke-linecap="round" stroke-linejoin="round"/>
<path d="M8.04556 9.87097L7.61658 6.99922" stroke="#667EEA" stroke-width="0.8" stroke-miterlimit="10" stroke-linecap="round" stroke-linejoin="round"/>
<path d="M7.33585 5.61291V4.99717C7.33585 4.4986 7.59741 4.0366 8.02493 3.78008L12.1528 1.3034C12.4837 1.10487 12.8623 1 13.2482 1H17.4266C17.7328 1 17.9811 1.2482 17.9811 1.55443C17.9811 1.84278 17.7601 2.08297 17.4728 2.10696L15.8815 2.23985" stroke="#667EEA" stroke-width="0.8" stroke-miterlimit="10" stroke-linecap="round" stroke-linejoin="round"/>
<path d="M8.86609 3.27314V3.98281C8.86609 4.37474 9.18383 4.69248 9.57576 4.69248H11.0506" stroke="#667EEA" stroke-width="0.8" stroke-miterlimit="10" stroke-linecap="round" stroke-linejoin="round"/>
<path d="M14.0334 4.11959C14.0334 4.9035 13.398 5.53893 12.6141 5.53893C11.8302 5.53893 11.1947 4.9035 11.1947 4.11959C11.1947 3.33573 11.8302 2.70025 12.6141 2.70025C13.398 2.70025 14.0334 3.33573 14.0334 4.11959Z" stroke="#667EEA" stroke-width="0.8" stroke-miterlimit="10" stroke-linecap="round" stroke-linejoin="round"/>
<path d="M12.9896 7.0315C13.2884 7.71758 13.8249 8.51954 14.7876 9.16131L15.1424 8.06723L16.5618 8.0968C16.5618 8.0968 15.5564 7.0323 15.5564 5.37635C15.5564 3.66127 14.3736 2.70026 12.6142 2.70026" stroke="#667EEA" stroke-width="0.8" stroke-miterlimit="10" stroke-linecap="round" stroke-linejoin="round"/>
<path d="M6.58182 19.8731L7.75721 19.2299" stroke="#667EEA" stroke-width="0.8" stroke-miterlimit="10" stroke-linecap="round" stroke-linejoin="round"/>
<path d="M17.6263 20.871L18.676 19.9544" stroke="#667EEA" stroke-width="0.8" stroke-miterlimit="10" stroke-linecap="round" stroke-linejoin="round"/>
</svg>
