<svg width="24" height="24" viewBox="0 0 24 24" fill="none" xmlns="http://www.w3.org/2000/svg">
<path d="M19.6667 19.6667H19.633C19.478 18.907 18.805 18.3333 18 18.3333C17.195 18.3333 16.522 18.907 16.367 19.6667H16.3333C15.7863 19.6667 15.304 19.9353 15 20.3437C14.696 19.9353 14.2137 19.6667 13.6667 19.6667H13.633C13.478 18.907 12.805 18.3333 12 18.3333C11.195 18.3333 10.522 18.907 10.367 19.6667H10.3333C9.78632 19.6667 9.30399 19.9353 8.99999 20.3437C8.69599 19.9353 8.21366 19.6667 7.66666 19.6667H7.63299C7.47799 18.907 6.80499 18.3333 5.99999 18.3333C5.19499 18.3333 4.52199 18.907 4.36699 19.6667H4.33332C3.41432 19.6667 2.66666 20.4143 2.66666 21.3333V22H3.33332V21.3333C3.33332 20.782 3.78199 20.3333 4.33332 20.3333H7.66666C8.21799 20.3333 8.66666 20.782 8.66666 21.3333V22H9.33332V21.3333C9.33332 20.782 9.78199 20.3333 10.3333 20.3333H13.6667C14.218 20.3333 14.6667 20.782 14.6667 21.3333V22H15.3333V21.3333C15.3333 20.782 15.782 20.3333 16.3333 20.3333H19.6667C20.218 20.3333 20.6667 20.782 20.6667 21.3333V22H21.3333V21.3333C21.3333 20.4143 20.5857 19.6667 19.6667 19.6667ZM5.99999 19C6.43399 19 6.80066 19.2797 6.93866 19.6667H5.06166C5.13008 19.4723 5.25702 19.3038 5.42503 19.1844C5.59304 19.0651 5.79389 19.0006 5.99999 19ZM12 19C12.434 19 12.8007 19.2797 12.9387 19.6667H11.0617C11.1301 19.4723 11.257 19.3038 11.425 19.1844C11.593 19.0651 11.7939 19.0006 12 19ZM18 19C18.434 19 18.8007 19.2797 18.9387 19.6667H17.0617C17.1301 19.4723 17.257 19.3038 17.425 19.1844C17.593 19.0651 17.7939 19.0006 18 19ZM10.4817 11.2773C10.5274 11.3077 10.5799 11.3264 10.6345 11.3316C10.6892 11.3369 10.7443 11.3287 10.795 11.3077L14.795 9.641C14.8556 9.61556 14.9073 9.57279 14.9437 9.51806C14.9801 9.46332 14.9995 9.39906 14.9995 9.33333C14.9995 9.26761 14.9801 9.20334 14.9437 9.14861C14.9073 9.09387 14.8556 9.0511 14.795 9.02567L10.795 7.359C10.7443 7.33787 10.6892 7.32957 10.6346 7.33485C10.58 7.34013 10.5275 7.35882 10.4818 7.38926C10.4361 7.4197 10.3987 7.46095 10.3728 7.50934C10.3469 7.55774 10.3333 7.61178 10.3333 7.66667V11C10.3333 11.1113 10.389 11.2153 10.4817 11.2773ZM11 8.16667L13.8 9.33333L11 10.5V8.16667Z" fill="#667EEA"/>
<path d="M22 2.33333C22 2.24493 21.9649 2.16014 21.9024 2.09763C21.8399 2.03512 21.7551 2 21.6667 2H2.33333C2.24493 2 2.16014 2.03512 2.09763 2.09763C2.03512 2.16014 2 2.24493 2 2.33333V16C2 16.0884 2.03512 16.1732 2.09763 16.2357C2.16014 16.2982 2.24493 16.3333 2.33333 16.3333H21.6667C21.7551 16.3333 21.8399 16.2982 21.9024 16.2357C21.9649 16.1732 22 16.0884 22 16V2.33333ZM21.3333 9.80733C20.1282 9.18938 19.117 8.25075 18.4112 7.09486C17.7055 5.93896 17.3325 4.61067 17.3333 3.25633V2.66667H21.3333V9.80733ZM7.33333 2.66667H16.6667V3.25633C16.6656 4.77277 17.0942 6.25847 17.9029 7.54127C18.7116 8.82407 19.8673 9.85144 21.236 10.5043L19.11 15.6667H4.89L2.764 10.5043C4.13267 9.85141 5.28831 8.82403 6.09702 7.54124C6.90572 6.25845 7.33438 4.77276 7.33333 3.25633V2.66667ZM6.66667 2.66667V3.25633C6.66754 4.61067 6.29454 5.93896 5.58876 7.09486C4.88297 8.25075 3.87181 9.18938 2.66667 9.80733V2.66667H6.66667ZM2.66667 12.0183L4.169 15.6667H2.66667V12.0183ZM19.831 15.6667L21.3333 12.0183V15.6667H19.831Z" fill="#667EEA"/>
<path d="M8.33333 5.33334H9.66667C9.75507 5.33334 9.83986 5.29822 9.90237 5.2357C9.96488 5.17319 10 5.08841 10 5V3.66667C10 3.57826 9.96488 3.49348 9.90237 3.43097C9.83986 3.36845 9.75507 3.33334 9.66667 3.33334H8.33333C8.24493 3.33334 8.16014 3.36845 8.09763 3.43097C8.03512 3.49348 8 3.57826 8 3.66667V5C8 5.08841 8.03512 5.17319 8.09763 5.2357C8.16014 5.29822 8.24493 5.33334 8.33333 5.33334ZM8.66667 4H9.33333V4.66667H8.66667V4ZM11.3333 5.33334H12.6667C12.7551 5.33334 12.8399 5.29822 12.9024 5.2357C12.9649 5.17319 13 5.08841 13 5V3.66667C13 3.57826 12.9649 3.49348 12.9024 3.43097C12.8399 3.36845 12.7551 3.33334 12.6667 3.33334H11.3333C11.2449 3.33334 11.1601 3.36845 11.0976 3.43097C11.0351 3.49348 11 3.57826 11 3.66667V5C11 5.08841 11.0351 5.17319 11.0976 5.2357C11.1601 5.29822 11.2449 5.33334 11.3333 5.33334ZM11.6667 4H12.3333V4.66667H11.6667V4ZM14.3333 5.33334H15.6667C15.7551 5.33334 15.8399 5.29822 15.9024 5.2357C15.9649 5.17319 16 5.08841 16 5V3.66667C16 3.57826 15.9649 3.49348 15.9024 3.43097C15.8399 3.36845 15.7551 3.33334 15.6667 3.33334H14.3333C14.2449 3.33334 14.1601 3.36845 14.0976 3.43097C14.0351 3.49348 14 3.57826 14 3.66667V5C14 5.08841 14.0351 5.17319 14.0976 5.2357C14.1601 5.29822 14.2449 5.33334 14.3333 5.33334ZM14.6667 4H15.3333V4.66667H14.6667V4ZM5 14.6667C5 14.7551 5.03512 14.8399 5.09763 14.9024C5.16014 14.9649 5.24493 15 5.33333 15H6.66667C6.75507 15 6.83986 14.9649 6.90237 14.9024C6.96488 14.8399 7 14.7551 7 14.6667V13.3333C7 13.2449 6.96488 13.1601 6.90237 13.0976C6.83986 13.0351 6.75507 13 6.66667 13H5.33333C5.24493 13 5.16014 13.0351 5.09763 13.0976C5.03512 13.1601 5 13.2449 5 13.3333V14.6667ZM5.66667 13.6667H6.33333V14.3333H5.66667V13.6667ZM8.33333 15H9.66667C9.75507 15 9.83986 14.9649 9.90237 14.9024C9.96488 14.8399 10 14.7551 10 14.6667V13.3333C10 13.2449 9.96488 13.1601 9.90237 13.0976C9.83986 13.0351 9.75507 13 9.66667 13H8.33333C8.24493 13 8.16014 13.0351 8.09763 13.0976C8.03512 13.1601 8 13.2449 8 13.3333V14.6667C8 14.7551 8.03512 14.8399 8.09763 14.9024C8.16014 14.9649 8.24493 15 8.33333 15ZM8.66667 13.6667H9.33333V14.3333H8.66667V13.6667ZM12.6667 13H11.3333C11.2449 13 11.1601 13.0351 11.0976 13.0976C11.0351 13.1601 11 13.2449 11 13.3333V14.6667C11 14.7551 11.0351 14.8399 11.0976 14.9024C11.1601 14.9649 11.2449 15 11.3333 15H12.6667C12.7551 15 12.8399 14.9649 12.9024 14.9024C12.9649 14.8399 13 14.7551 13 14.6667V13.3333C13 13.2449 12.9649 13.1601 12.9024 13.0976C12.8399 13.0351 12.7551 13 12.6667 13ZM12.3333 14.3333H11.6667V13.6667H12.3333V14.3333ZM15.6667 13H14.3333C14.2449 13 14.1601 13.0351 14.0976 13.0976C14.0351 13.1601 14 13.2449 14 13.3333V14.6667C14 14.7551 14.0351 14.8399 14.0976 14.9024C14.1601 14.9649 14.2449 15 14.3333 15H15.6667C15.7551 15 15.8399 14.9649 15.9024 14.9024C15.9649 14.8399 16 14.7551 16 14.6667V13.3333C16 13.2449 15.9649 13.1601 15.9024 13.0976C15.8399 13.0351 15.7551 13 15.6667 13ZM15.3333 14.3333H14.6667V13.6667H15.3333V14.3333ZM17.3333 15H18.6667C18.7551 15 18.8399 14.9649 18.9024 14.9024C18.9649 14.8399 19 14.7551 19 14.6667V13.3333C19 13.2449 18.9649 13.1601 18.9024 13.0976C18.8399 13.0351 18.7551 13 18.6667 13H17.3333C17.2449 13 17.1601 13.0351 17.0976 13.0976C17.0351 13.1601 17 13.2449 17 13.3333V14.6667C17 14.7551 17.0351 14.8399 17.0976 14.9024C17.1601 14.9649 17.2449 15 17.3333 15ZM17.6667 13.6667H18.3333V14.3333H17.6667V13.6667Z" fill="#667EEA"/>
</svg>
