<svg width="24" height="24" viewBox="0 0 24 24" fill="none" xmlns="http://www.w3.org/2000/svg">
<path d="M16.5643 8.22409V9.97916C16.5643 12.4277 15.0736 14.6295 12.8002 15.5389C12.2865 15.7443 11.7135 15.7443 11.1998 15.5389C8.92635 14.6295 7.43564 12.4277 7.43564 9.97916V8.22409L12 6.56433L16.5643 8.22409Z" stroke="#667EEA" stroke-width="0.8" stroke-miterlimit="10" stroke-linecap="round" stroke-linejoin="round"/>
<path d="M9.92527 14.8356V16.5229L6.07032 17.4299C4.19596 17.8709 2.87131 19.5435 2.87131 21.469V22.0001H21.1286V21.469C21.1286 19.5435 19.804 17.8709 17.9296 17.4299L14.0747 16.5229V14.8356" stroke="#667EEA" stroke-width="0.8" stroke-miterlimit="10" stroke-linecap="round" stroke-linejoin="round"/>
<path d="M9.81873 14.7556C9.39723 14.6206 8.9562 14.5054 8.4952 14.4241C5.11 13.8272 2.04144 15.1821 2.04144 15.1821C2.04144 15.1821 3.52771 16.6026 5.79515 17.5072" stroke="#667EEA" stroke-width="0.8" stroke-miterlimit="10" stroke-linecap="round" stroke-linejoin="round"/>
<path d="M18.6545 14.3544C20.3056 12.7911 21.1286 11.1191 21.1286 11.1191C21.1286 11.1191 18.7562 10.9652 16.23 11.9403" stroke="#667EEA" stroke-width="0.8" stroke-miterlimit="10" stroke-linecap="round" stroke-linejoin="round"/>
<path d="M12.795 6.85346C13.1336 6.33786 13.4522 5.65566 13.4522 4.90458C13.4522 3.30042 11.9999 2 11.9999 2C11.9999 2 10.5476 3.30042 10.5476 4.90458C10.5476 5.65566 10.8663 6.33786 11.2049 6.85346L11.9999 6.56433L12.795 6.85346Z" stroke="#667EEA" stroke-width="0.8" stroke-miterlimit="10" stroke-linecap="round" stroke-linejoin="round"/>
<path d="M8.00344 5.35964C6.33269 4.64408 4.53107 4.98997 4.53107 4.98997C4.53107 4.98997 5.12908 6.72446 6.58327 7.81359C6.83742 8.00396 7.12942 8.13977 7.43556 8.22409L7.43564 8.22413" stroke="#667EEA" stroke-width="0.8" stroke-miterlimit="10" stroke-linecap="round" stroke-linejoin="round"/>
<path d="M16.5643 8.22409V8.22413L16.5644 8.22409C16.8705 8.13977 17.1625 8.00392 17.4167 7.81355C18.8709 6.72441 19.4689 4.98997 19.4689 4.98997C19.4689 4.98997 17.6672 4.64408 15.9965 5.35964" stroke="#667EEA" stroke-width="0.8" stroke-miterlimit="10" stroke-linecap="round" stroke-linejoin="round"/>
<path d="M7.43564 9.88384H16.5643" stroke="#667EEA" stroke-width="0.8" stroke-miterlimit="10" stroke-linecap="round" stroke-linejoin="round"/>
<path d="M9.0954 19.0955C7.49125 19.0955 6.19083 20.3959 6.19083 22.0001H12C12 20.3959 10.6996 19.0955 9.0954 19.0955Z" stroke="#667EEA" stroke-width="0.8" stroke-miterlimit="10" stroke-linecap="round" stroke-linejoin="round"/>
<path d="M14.9045 19.0955C13.3004 19.0955 12 20.3959 12 22.0001H17.8091C17.8091 20.3959 16.5087 19.0955 14.9045 19.0955Z" stroke="#667EEA" stroke-width="0.8" stroke-miterlimit="10" stroke-linecap="round" stroke-linejoin="round"/>
<path d="M18.2048 17.5072C20.4722 16.6026 21.9585 15.1822 21.9585 15.1822C21.9585 15.1822 18.89 13.8272 15.5047 14.4241C15.0437 14.5054 14.6027 14.6206 14.1812 14.7556" stroke="#667EEA" stroke-width="0.8" stroke-miterlimit="10" stroke-linecap="round" stroke-linejoin="round"/>
<path d="M7.76995 11.9404C5.24372 10.9652 2.87131 11.1191 2.87131 11.1191C2.87131 11.1191 3.69438 12.7911 5.34542 14.3544" stroke="#667EEA" stroke-width="0.8" stroke-miterlimit="10" stroke-linecap="round" stroke-linejoin="round"/>
<path d="M10.5622 4.63956C9.47331 3.36275 7.93596 2.82988 7.93596 2.82988C7.93596 2.82988 7.51422 5.00396 8.54543 6.79015C8.71945 7.09156 8.92514 7.36019 9.14452 7.60264" stroke="#667EEA" stroke-width="0.8" stroke-miterlimit="10" stroke-linecap="round" stroke-linejoin="round"/>
<path d="M14.8554 7.60264C15.0748 7.36019 15.2805 7.09156 15.4545 6.79015C16.4857 5.00396 16.064 2.82988 16.064 2.82988C16.064 2.82988 14.5266 3.36275 13.4377 4.63956" stroke="#667EEA" stroke-width="0.8" stroke-miterlimit="10" stroke-linecap="round" stroke-linejoin="round"/>
</svg>
