<svg width="24" height="24" viewBox="0 0 24 24" fill="none" xmlns="http://www.w3.org/2000/svg">
<path d="M22.1169 8.49126V7.4386C22.1169 7.42367 22.1106 7.41081 22.1084 7.39652C22.1052 7.37475 22.1035 7.3529 22.0956 7.33289C22.0894 7.31684 22.0789 7.30384 22.07 7.28928C22.0597 7.27223 22.0506 7.25479 22.037 7.24026C22.0252 7.22754 22.0106 7.21886 21.9966 7.20843C21.9809 7.19669 21.9663 7.18442 21.9484 7.17588C21.9322 7.16819 21.9144 7.1654 21.8968 7.16072C21.8814 7.15672 21.8677 7.14899 21.8513 7.14746C18.7408 6.86144 15.8903 5.49246 12.8888 2.84533L12.2511 2.10193C12.2237 2.06995 12.1896 2.04428 12.1513 2.02668C12.1131 2.00909 12.0714 1.99999 12.0293 2H11.9708C11.8856 2 11.8044 2.03719 11.749 2.10193L11.0564 2.90918C8.73437 5.25581 5.73575 6.68334 2.13803 7.14858C2.12351 7.15047 2.11159 7.15798 2.09788 7.16185C2.0807 7.16666 2.06384 7.17057 2.0481 7.17826C2.02989 7.18721 2.01474 7.19912 1.999 7.2114C1.98574 7.22169 1.97234 7.23073 1.96105 7.24319C1.94743 7.25816 1.93785 7.27543 1.92756 7.29287C1.9191 7.30717 1.90979 7.32021 1.90381 7.33595C1.8963 7.35569 1.89433 7.37669 1.89122 7.398C1.8892 7.41185 1.883 7.42421 1.883 7.4386V8.49126C1.883 8.75574 1.96087 9.00196 2.09325 9.21015C2.09361 9.21698 2.091 9.22319 2.09181 9.23011L2.9683 16.0792C2.86474 16.1163 2.76821 16.1749 2.68718 16.2583C2.52387 16.4262 2.43403 16.6674 2.44064 16.92C2.45256 17.3558 2.74856 17.7142 3.12122 17.7765C2.91173 19.0092 3.09892 20.2371 3.70144 21.52C3.72661 21.5736 3.76748 21.6183 3.81864 21.6482C3.8698 21.6781 3.92883 21.6917 3.98791 21.6873C4.04693 21.6829 4.10324 21.6607 4.14937 21.6236C4.1955 21.5865 4.22929 21.5363 4.24627 21.4796C4.65796 20.103 4.70153 18.8843 4.38669 17.7629C4.51453 17.729 4.63077 17.661 4.72298 17.5663C4.88629 17.3983 4.97608 17.1571 4.96943 16.9045C4.95805 16.4864 4.68571 16.1368 4.33449 16.054L4.42802 9.48308C4.65624 9.69219 4.94992 9.81568 5.259 9.8325C5.32505 12.8556 5.62227 15.1071 6.1657 16.7033C6.14205 16.7231 6.11683 16.7405 6.09515 16.7629C5.93274 16.9309 5.84731 17.1533 5.85487 17.3897C5.86494 17.7005 6.03944 17.9715 6.2907 18.1248C5.91282 19.4605 6.37164 21.1328 7.36368 21.9349C7.41569 21.9771 7.48063 22.0001 7.54759 22C7.62272 22 7.69768 21.9712 7.75429 21.9144C8.24624 21.4224 8.80393 19.5131 8.364 18.1317C8.4265 18.0939 8.48613 18.051 8.53824 17.9971C8.70088 17.8293 8.78613 17.6068 8.77839 17.3708C8.76882 17.0675 8.60326 16.8008 8.36184 16.6457C8.85982 14.0454 9.07268 11.7198 8.99953 9.72018C9.17082 9.79667 9.35631 9.83623 9.54391 9.83627C9.88307 9.83627 10.1923 9.70916 10.4292 9.50134L11.7477 21.5932C11.7554 21.6648 11.7894 21.731 11.843 21.7791C11.8966 21.8272 11.9661 21.8538 12.0382 21.8538H12.0392C12.1114 21.8536 12.1809 21.8266 12.2344 21.7782C12.288 21.7297 12.3216 21.6631 12.329 21.5913L13.5728 9.50304C13.8094 9.70992 14.1179 9.83627 14.4562 9.83627C14.6392 9.83627 14.8136 9.79931 14.9727 9.73281C14.9009 11.7295 15.1139 14.0508 15.6108 16.6456C15.3693 16.8008 15.2038 17.0673 15.1942 17.3706C15.1865 17.6068 15.2717 17.8293 15.4343 17.9971C15.4865 18.051 15.546 18.094 15.6086 18.1317C15.1687 19.5132 15.7264 21.4224 16.2184 21.9144C16.2455 21.9416 16.2777 21.9631 16.3132 21.9778C16.3486 21.9925 16.3867 22.0001 16.4251 22C16.492 22.0001 16.5569 21.9771 16.609 21.9349C17.601 21.1328 18.0598 19.4605 17.6818 18.1248C17.9332 17.9715 18.1077 17.7004 18.1178 17.3895C18.1253 17.1533 18.0399 16.9308 17.8774 16.7629C17.8557 16.7405 17.8306 16.7231 17.8069 16.7033C18.3503 15.1073 18.6475 12.8564 18.7136 9.83394C19.0199 9.82364 19.3134 9.70849 19.545 9.50772L19.6381 16.054C19.2869 16.1368 19.0146 16.4865 19.0033 16.9046C18.9966 17.1572 19.0864 17.3984 19.2497 17.5663C19.3419 17.6611 19.4582 17.7291 19.586 17.7629C19.2712 18.8844 19.3147 20.103 19.7264 21.4796C19.7444 21.5399 19.7814 21.5928 19.8319 21.6303C19.8823 21.6679 19.9435 21.6882 20.0065 21.6882C20.062 21.6882 20.1164 21.6723 20.1632 21.6426C20.2101 21.6128 20.2476 21.5703 20.2712 21.52C20.8737 20.2371 21.0608 19.0092 20.8514 17.7765C21.2241 17.7142 21.5201 17.3558 21.5319 16.9201C21.5385 16.6674 21.4488 16.4262 21.2855 16.2583C21.2044 16.175 21.1079 16.1163 21.0043 16.0792L21.8776 9.25534C22.0335 9.03107 22.1171 8.76442 22.1169 8.49126ZM20.2227 16.0351L20.1323 9.67413C20.3286 9.78082 20.5485 9.83656 20.772 9.83627C20.9306 9.83627 21.0822 9.80723 21.2237 9.7566L20.4202 16.0351H20.2227ZM21.5321 7.731V8.49126C21.5321 8.91042 21.1911 9.25142 20.772 9.25142C20.3528 9.25142 20.0117 8.91037 20.0117 8.49126V7.731H21.5321ZM18.9186 7.1462H16.5787L14.8278 5.1055C16.1859 6.03037 17.537 6.70497 18.9186 7.1462ZM17.3217 8.49126C17.3217 8.91042 16.9806 9.25142 16.5614 9.25142C16.1422 9.25142 15.8012 8.91037 15.8012 8.49126V7.731H17.3217V8.49126ZM12 2.70733L12.3484 3.11336C12.3648 3.1512 12.3892 3.18507 12.4199 3.21268C12.438 3.22874 12.456 3.24385 12.474 3.2599L15.8082 7.1462H8.19179L11.498 3.29259C11.53 3.25999 11.5643 3.23031 11.5963 3.19735C11.6181 3.17483 11.6319 3.14803 11.645 3.12127L12 2.70733ZM13.1111 8.14036C13.1111 8.75304 12.6127 9.25142 12 9.25142C11.3874 9.25142 10.8889 8.753 10.8889 8.14036V7.731H13.1111V8.14036ZM8.19881 8.49126C8.19881 8.91042 7.85775 9.25142 7.43864 9.25142C7.01944 9.25142 6.67838 8.91037 6.67838 8.49126V7.731H8.19885L8.19881 8.49126ZM8.9654 5.34642L7.42124 7.14624H5.01012C6.44556 6.72349 7.7631 6.11818 8.9654 5.34642ZM3.55243 16.0351L2.74761 9.74603C2.90086 9.80541 3.06375 9.83599 3.2281 9.83623C3.44865 9.83623 3.65634 9.78187 3.84015 9.68744L3.74986 16.0351H3.55243ZM3.98836 8.49126C3.98836 8.91042 3.6473 9.25142 3.2281 9.25142C2.8089 9.25142 2.46785 8.91037 2.46785 8.49126V7.731H3.98836V8.49126ZM3.89928 20.4375C3.60773 19.5369 3.54807 18.6631 3.71048 17.7895H3.78669C4.03867 18.5993 4.07819 19.4722 3.89928 20.4375ZM4.304 17.1583C4.2741 17.1892 4.24141 17.2047 4.2067 17.2047H3.23471C3.13948 17.2047 3.03003 17.0814 3.02545 16.9046C3.02275 16.81 3.0531 16.7209 3.10611 16.6663C3.1361 16.6354 3.1687 16.6199 3.20341 16.6199H4.17541C4.27069 16.6199 4.38008 16.7432 4.38467 16.92C4.38737 17.0146 4.35702 17.1037 4.304 17.1583ZM4.57316 8.49126V7.731H6.09358V8.49126C6.09358 8.91042 5.75253 9.25142 5.33333 9.25142C4.91421 9.25147 4.57316 8.91042 4.57316 8.49126ZM7.88271 17.0877C8.04898 17.0877 8.1886 17.223 8.19408 17.3897C8.19656 17.466 8.16962 17.5373 8.11823 17.5903C8.06679 17.6432 7.99669 17.6725 7.92034 17.6725H6.75082C6.5845 17.6725 6.44471 17.5371 6.43922 17.3707C6.43688 17.2942 6.46386 17.223 6.5153 17.17C6.56674 17.117 6.63684 17.0877 6.7131 17.0877H7.88271ZM7.49943 21.2575C6.85712 20.5347 6.57285 19.244 6.86094 18.2574H7.78959C8.14791 19.281 7.79826 20.665 7.49943 21.2575ZM7.79363 16.5029H6.71535C6.1889 14.9507 5.90262 12.7342 5.84178 9.73578C6.05522 9.64797 6.24259 9.50691 6.38598 9.32606C6.63261 9.63641 7.01233 9.83623 7.43864 9.83623C7.82003 9.83623 8.16409 9.67589 8.40906 9.42008C8.40892 9.42768 8.40537 9.43434 8.40582 9.44207C8.51081 11.4534 8.30335 13.8296 7.79363 16.5029ZM10.3041 8.49126C10.3041 8.91042 9.96307 9.25142 9.54387 9.25142C9.12466 9.25142 8.78361 8.91037 8.78361 8.49126V7.731H10.3041V8.14036V8.49126ZM12.0297 18.7866L11.0194 9.52148C11.2966 9.71892 11.6345 9.83623 12 9.83623C12.3667 9.83623 12.7056 9.71806 12.9833 9.5195L12.0297 18.7866ZM13.6959 8.49126V7.731H15.2163V8.49126C15.2163 8.91042 14.8753 9.25142 14.4562 9.25142C14.037 9.25147 13.6959 8.91042 13.6959 8.49126ZM15.5582 9.38407C15.8048 9.66073 16.1626 9.83627 16.5614 9.83627C16.9877 9.83627 17.3675 9.63641 17.6141 9.32611C17.7513 9.49918 17.9289 9.63595 18.1312 9.72445C18.0709 12.7286 17.7845 14.9487 17.2573 16.503H16.1791C15.6693 13.8297 15.4618 11.4534 15.5668 9.44216C15.5679 9.4217 15.5612 9.40349 15.5582 9.38407ZM16.0522 17.6725C15.9759 17.6725 15.9058 17.6433 15.8544 17.5903C15.803 17.5373 15.776 17.466 15.7786 17.3895C15.784 17.223 15.9236 17.0877 16.0899 17.0877H17.2595C17.3358 17.0877 17.4059 17.117 17.4573 17.17C17.5087 17.223 17.5357 17.2942 17.5334 17.3705C17.5279 17.5371 17.3881 17.6725 17.2218 17.6725H16.0522ZM16.4732 21.2575C16.1742 20.665 15.8246 19.281 16.1831 18.2574H17.1117C17.3998 19.244 17.1156 20.5347 16.4732 21.2575ZM18.6667 9.25147C18.2475 9.25147 17.9065 8.91042 17.9065 8.4913V7.73105H19.4269V8.4913C19.4269 8.91042 19.0859 9.25147 18.6667 9.25147ZM20.0734 20.4375C19.8944 19.4722 19.934 18.5993 20.186 17.7895H20.2622C20.4245 18.6631 20.3649 19.5369 20.0734 20.4375ZM20.7379 17.2047H19.7659C19.7312 17.2047 19.6985 17.1892 19.6686 17.1583C19.6156 17.1037 19.5852 17.0146 19.588 16.92C19.5925 16.7432 19.7019 16.6199 19.7971 16.6199H20.7691C20.8039 16.6199 20.8365 16.6354 20.8665 16.6663C20.9195 16.7209 20.9499 16.81 20.9471 16.9046C20.9426 17.0814 20.8332 17.2047 20.7379 17.2047Z" fill="#667EEA"/>
</svg>
