<svg width="24" height="24" viewBox="0 0 24 24" fill="none" xmlns="http://www.w3.org/2000/svg">
<path d="M22.63 2.58884L21.6822 1.64054C21.648 1.60631 21.6073 1.57916 21.5626 1.56064C21.5179 1.54211 21.47 1.53258 21.4216 1.53258C21.3733 1.53258 21.3253 1.54211 21.2806 1.56064C21.2359 1.57916 21.1953 1.60631 21.1611 1.64054L20.067 2.73445L19.7188 2.38626C19.6497 2.31722 19.556 2.27843 19.4584 2.27843C19.3607 2.27843 19.267 2.31722 19.198 2.38626L18.6676 2.91665L18.1146 2.36392C18.0829 2.33336 18.0459 2.30882 18.0053 2.29148C18.0799 2.12038 18.1011 1.93079 18.0663 1.74745C18.0314 1.5641 17.9422 1.3955 17.8101 1.26363C17.458 0.912002 16.8456 0.912248 16.4938 1.26363C16.3177 1.43944 16.221 1.6732 16.221 1.92194C16.221 2.17067 16.318 2.40444 16.4938 2.58C16.6253 2.71248 16.7939 2.80205 16.9773 2.83694C17.1607 2.87183 17.3504 2.85039 17.5214 2.77546C17.5391 2.81474 17.5616 2.85256 17.5941 2.88497L18.147 3.4377L16.8113 4.77347L16.258 4.22074C16.2261 4.18994 16.1888 4.16522 16.148 4.14782C16.2221 3.97677 16.2432 3.78743 16.2085 3.60428C16.1739 3.42113 16.085 3.25259 15.9536 3.12045C15.6019 2.76883 14.9891 2.76883 14.6372 3.12045C14.4629 3.29519 14.365 3.53193 14.365 3.77876C14.365 4.02559 14.4629 4.26233 14.6372 4.43707C14.769 4.56917 14.9375 4.65848 15.1208 4.69335C15.3041 4.72821 15.4937 4.70702 15.6648 4.63253C15.6825 4.67181 15.7051 4.70963 15.7375 4.74179L16.2904 5.29452L14.9586 6.62637L14.4059 6.07364C14.3739 6.04267 14.3366 6.01787 14.2956 6.00047C14.3697 5.82946 14.3908 5.64016 14.3561 5.45704C14.3215 5.27392 14.2326 5.10542 14.1012 4.97335C13.7495 4.62197 13.1362 4.62123 12.7848 4.97335C12.6104 5.14801 12.5125 5.3847 12.5125 5.63148C12.5124 5.87827 12.6103 6.11499 12.7845 6.28972C12.9165 6.42173 13.0851 6.51096 13.2685 6.54578C13.4519 6.58059 13.6415 6.55939 13.8126 6.48493C13.8303 6.52422 13.8529 6.56203 13.8853 6.5942L14.438 7.14692L13.102 8.48294L12.5493 7.92997C12.5174 7.89909 12.4801 7.87429 12.4393 7.8568C12.5134 7.6858 12.5345 7.49649 12.4998 7.31337C12.4651 7.13026 12.3763 6.96176 12.2448 6.82968C11.893 6.47781 11.2796 6.47781 10.9284 6.82968C10.7526 7.00549 10.6556 7.23925 10.6556 7.48799C10.6556 7.73673 10.7526 7.97049 10.9282 8.14605C11.0599 8.27824 11.2285 8.36761 11.4118 8.40248C11.5952 8.43735 11.7847 8.4161 11.9558 8.34151C11.9735 8.3808 11.9961 8.41837 12.0282 8.45078L12.581 9.00375L11.4787 10.106C10.3994 9.49022 9.17783 9.16744 7.93523 9.16974C6.02119 9.16974 4.22158 9.91497 2.86813 11.2684C1.52842 12.6081 1.02284 14.1396 1.36514 15.8206C1.65783 17.258 2.55947 18.7402 4.04552 20.2255C5.86576 22.046 7.73143 23.008 9.44117 23.008C10.7391 23.008 11.9374 22.4681 13.0026 21.4029C15.3313 19.0741 15.7173 15.5282 14.1635 12.7935L21.8852 5.07181C21.9543 5.00274 21.9931 4.90907 21.9931 4.81141C21.9931 4.71374 21.9543 4.62007 21.8852 4.551L21.537 4.20282L22.631 3.10915C22.6997 3.03997 22.7382 2.94634 22.7381 2.84879C22.7379 2.75125 22.699 2.65776 22.63 2.58884ZM17.2893 2.0592C17.2523 2.09454 17.2031 2.11427 17.1519 2.11427C17.1008 2.11427 17.0516 2.09454 17.0146 2.0592C16.9964 2.04123 16.982 2.01985 16.9722 1.99629C16.9624 1.97273 16.9573 1.94746 16.9573 1.92194C16.9573 1.89641 16.9624 1.87114 16.9722 1.84758C16.982 1.82402 16.9964 1.80264 17.0146 1.78468C17.0511 1.7483 17.1005 1.72785 17.152 1.7278C17.2036 1.72776 17.253 1.74812 17.2896 1.78443C17.3262 1.82102 17.3463 1.86988 17.3463 1.92194C17.3463 1.97399 17.3259 2.02261 17.2893 2.0592ZM15.4325 3.91627C15.3954 3.9515 15.3463 3.97115 15.2951 3.97115C15.244 3.97115 15.1948 3.9515 15.1577 3.91627C15.1306 3.8891 15.1121 3.85449 15.1046 3.81682C15.0971 3.77914 15.101 3.7401 15.1157 3.70461C15.1304 3.66913 15.1553 3.6388 15.1872 3.61747C15.2192 3.59613 15.2567 3.58474 15.2951 3.58474C15.3335 3.58474 15.3711 3.59613 15.403 3.61747C15.435 3.6388 15.4599 3.66913 15.4746 3.70461C15.4893 3.7401 15.4931 3.77914 15.4856 3.81682C15.4781 3.85449 15.4597 3.8891 15.4325 3.91627ZM13.5799 5.76892C13.5062 5.84258 13.3778 5.84184 13.3051 5.76916C13.2686 5.73269 13.2481 5.68322 13.248 5.63162C13.248 5.58002 13.2685 5.53053 13.305 5.49403C13.3414 5.45753 13.3909 5.43701 13.4425 5.43698C13.4941 5.43696 13.5436 5.45744 13.5801 5.4939C13.6164 5.5305 13.6367 5.57995 13.6366 5.63146C13.6366 5.68298 13.6162 5.73238 13.5799 5.76892ZM11.723 7.62574C11.686 7.66109 11.6368 7.68081 11.5857 7.68081C11.5345 7.68081 11.4853 7.66109 11.4483 7.62574C11.4212 7.59859 11.4028 7.56402 11.3954 7.52641C11.3879 7.4888 11.3918 7.44983 11.4065 7.41442C11.4212 7.37901 11.4461 7.34875 11.4779 7.32746C11.5098 7.30617 11.5473 7.29481 11.5857 7.29481C11.624 7.29481 11.6615 7.30617 11.6934 7.32746C11.7252 7.34875 11.7501 7.37901 11.7648 7.41442C11.7795 7.44983 11.7834 7.4888 11.7759 7.52641C11.7685 7.56402 11.7501 7.59859 11.723 7.62574ZM12.4808 20.8828C11.5588 21.8048 10.5358 22.2721 9.44019 22.2721C7.93007 22.2721 6.24439 21.3847 4.56535 19.7054C3.20305 18.3431 2.3456 16.9492 2.08606 15.6743C1.79607 14.2506 2.23437 12.9438 3.3882 11.79C4.60242 10.5757 6.21714 9.90712 7.93449 9.90712C8.99845 9.90712 10.0224 10.1642 10.9365 10.6482L9.86793 11.7168C9.79888 11.7859 9.76009 11.8795 9.76009 11.9772C9.76009 12.0749 9.79888 12.1685 9.86793 12.2376L12.0329 14.4031C12.0671 14.4373 12.1077 14.4645 12.1524 14.483C12.1971 14.5015 12.2451 14.511 12.2934 14.511C12.3418 14.511 12.3897 14.5015 12.4344 14.483C12.4791 14.4645 12.5198 14.4373 12.554 14.4031L13.6211 13.3359C14.9002 15.7634 14.5201 18.8435 12.4808 20.8828ZM11.5836 11.0428C11.9044 11.2643 12.2047 11.5144 12.4805 11.79C12.756 12.0662 13.0059 12.3668 13.227 12.6882L12.2934 13.6217L10.6493 11.9771L11.5836 11.0428ZM13.7559 12.159C13.5289 11.8424 13.2766 11.5447 13.0013 11.2689C12.7256 10.9938 12.4282 10.7413 12.112 10.5139L19.4585 3.16759L19.8067 3.51578L20.7545 4.46384L20.7552 4.46433L21.1029 4.81202L13.7559 12.159ZM21.0153 3.68251L20.588 3.25525L21.4219 2.42187L21.8489 2.84912L21.0153 3.68251Z" fill="#667EEA"/>
<path d="M8.56726 13.5383C8.53329 13.5031 8.49264 13.475 8.44771 13.4557C8.40277 13.4364 8.35444 13.4263 8.30553 13.4258C8.25663 13.4254 8.20813 13.4347 8.16286 13.4532C8.1176 13.4718 8.07648 13.4991 8.04189 13.5337C8.00731 13.5683 7.97996 13.6094 7.96144 13.6547C7.94292 13.6999 7.9336 13.7484 7.93403 13.7973C7.93445 13.8462 7.94461 13.8946 7.96392 13.9395C7.98322 13.9844 8.01128 14.0251 8.04646 14.0591L10.2119 16.2245C10.2839 16.2965 10.3782 16.3323 10.4725 16.3323C10.5667 16.3323 10.661 16.2965 10.733 16.2245C10.802 16.1555 10.8408 16.0618 10.8408 15.9641C10.8408 15.8665 10.802 15.7728 10.733 15.7037L8.56726 13.5383ZM7.34149 14.764C7.30752 14.7289 7.26687 14.7008 7.22194 14.6815C7.177 14.6622 7.12867 14.652 7.07977 14.6516C7.03086 14.6512 6.98236 14.6605 6.93709 14.679C6.89183 14.6975 6.85071 14.7249 6.81612 14.7595C6.78154 14.794 6.75419 14.8352 6.73567 14.8804C6.71715 14.9257 6.70783 14.9742 6.70826 15.0231C6.70868 15.072 6.71884 15.1203 6.73815 15.1653C6.75745 15.2102 6.78551 15.2509 6.82069 15.2848L8.98617 17.4501C9.05811 17.522 9.1524 17.5579 9.24669 17.5579C9.34098 17.5579 9.43527 17.522 9.50722 17.4501C9.57626 17.381 9.61505 17.2873 9.61505 17.1897C9.61505 17.092 9.57626 16.9983 9.50722 16.9293L7.34149 14.764ZM6.02757 16.0777C5.9585 16.0087 5.86484 15.9699 5.76717 15.9699C5.66951 15.9699 5.57584 16.0087 5.50677 16.0777L4.55896 17.0255C4.48991 17.0946 4.45112 17.1883 4.45112 17.2859C4.45112 17.3836 4.48991 17.4773 4.55896 17.5463L6.72419 19.7118C6.75839 19.746 6.79901 19.7732 6.84371 19.7917C6.88841 19.8102 6.93633 19.8198 6.98471 19.8198C7.0331 19.8198 7.08102 19.8102 7.12572 19.7917C7.17042 19.7732 7.21103 19.746 7.24524 19.7118L8.1933 18.7637C8.26234 18.6947 8.30113 18.601 8.30113 18.5033C8.30113 18.4057 8.26234 18.312 8.1933 18.2429L6.02757 16.0777ZM6.98471 18.931L5.34029 17.2863L5.76729 16.8593L7.41197 18.5037L6.98471 18.931Z" fill="#667EEA"/>
</svg>
