<svg width="24" height="24" viewBox="0 0 24 24" fill="none" xmlns="http://www.w3.org/2000/svg">
<path d="M12 2C6.48601 2 2 6.48601 2 12C2 17.514 6.48601 22 12 22C17.514 22 22 17.514 22 12C22 6.48601 17.5141 2 12 2ZM12 20.9189C9.55024 20.9189 7.32811 19.9259 5.71464 18.3216C5.06722 17.678 4.52187 16.9393 4.09746 16.131C3.4488 14.8952 3.0811 13.4898 3.0811 12C3.0811 7.0821 7.0821 3.0811 12 3.0811C14.3327 3.0811 16.4586 3.98165 18.0496 5.45288C18.8745 6.2156 19.5556 7.13156 20.0468 8.15535C20.6056 9.32017 20.9189 10.6242 20.9189 12C20.9189 16.9179 16.9179 20.9189 12 20.9189Z" fill="#667EEA"/>
<path d="M8.73428 10.8513C9.33135 10.8513 9.81537 10.3673 9.81537 9.77024C9.81537 9.17317 9.33135 8.68915 8.73428 8.68915C8.13721 8.68915 7.65318 9.17317 7.65318 9.77024C7.65318 10.3673 8.13721 10.8513 8.73428 10.8513Z" fill="#667EEA"/>
<path d="M15.4236 10.8513C16.0206 10.8513 16.5047 10.3673 16.5047 9.77024C16.5047 9.17317 16.0206 8.68915 15.4236 8.68915C14.8265 8.68915 14.3425 9.17317 14.3425 9.77024C14.3425 10.3673 14.8265 10.8513 15.4236 10.8513Z" fill="#667EEA"/>
<path d="M11.9809 17.5404C14.0724 17.5404 16.0768 16.4708 17.2245 14.6949L16.3164 14.1081C15.2625 15.7389 13.3349 16.649 11.4047 16.4263C9.90044 16.2528 8.50941 15.3862 7.68352 14.1081L6.77554 14.6949C7.77487 16.2415 9.45908 17.2901 11.2807 17.5003C11.5146 17.5272 11.7481 17.5404 11.9809 17.5404Z" fill="#667EEA"/>
</svg>
