<svg width="24" height="24" viewBox="0 0 24 24" fill="none" xmlns="http://www.w3.org/2000/svg">
<path d="M13.8309 15.591H21.3674C21.7377 15.591 22.0408 15.289 22.0408 14.9176V14.2141C22.0408 13.8438 21.7377 13.5407 21.3674 13.5407H2.63246C2.26221 13.5407 1.95911 13.8438 1.95911 14.2141V14.9176C1.95911 15.2878 2.26221 15.591 2.63246 15.591H10.1644" stroke="#667EEA" stroke-width="0.8" stroke-miterlimit="10" stroke-linecap="round" stroke-linejoin="round"/>
<path d="M8.08181 17.5615H15.918C16.2038 17.5615 16.4387 17.7953 16.4387 18.0811V19.51C16.4387 19.797 16.2038 20.0307 15.918 20.0307H8.08181C7.79487 20.0307 7.56116 19.797 7.56116 19.51V18.0811C7.56116 17.7953 7.79487 17.5615 8.08181 17.5615Z" stroke="#667EEA" stroke-width="0.8" stroke-miterlimit="10" stroke-linecap="round" stroke-linejoin="round"/>
<path d="M3.44934 15.591L5.01008 21.7004C5.05984 21.8971 5.11657 22 5.29706 22H18.7029C18.8834 22 18.939 21.8971 18.9899 21.7004L20.5506 15.591" stroke="#667EEA" stroke-width="0.8" stroke-miterlimit="10" stroke-linecap="round" stroke-linejoin="round"/>
<path d="M20.7543 11.3978V13.5407" stroke="#667EEA" stroke-width="0.8" stroke-miterlimit="10" stroke-linecap="round" stroke-linejoin="round"/>
<path d="M19.5845 10.0012L20.7543 11.3978" stroke="#667EEA" stroke-width="0.8" stroke-miterlimit="10" stroke-linecap="round" stroke-linejoin="round"/>
<path d="M18.0307 8.14753C17.6465 8.47035 17.5956 9.05006 17.9185 9.43419L18.2979 9.88778C18.6207 10.2731 19.1992 10.324 19.5845 10.0012C19.9698 9.67835 20.0207 9.09982 19.6979 8.71451L19.3172 8.26092C18.9956 7.87561 18.4159 7.82471 18.0307 8.14753Z" stroke="#667EEA" stroke-width="0.8" stroke-miterlimit="10" stroke-linecap="round" stroke-linejoin="round"/>
<path d="M3.24451 11.3978V13.5407" stroke="#667EEA" stroke-width="0.8" stroke-miterlimit="10" stroke-linecap="round" stroke-linejoin="round"/>
<path d="M4.41422 10.0012L3.24451 11.3978" stroke="#667EEA" stroke-width="0.8" stroke-miterlimit="10" stroke-linecap="round" stroke-linejoin="round"/>
<path d="M5.96811 8.14753C6.35338 8.47035 6.40432 9.05006 6.08146 9.43419L5.70084 9.88778C5.37917 10.2731 4.79954 10.324 4.41431 10.0012C4.03019 9.67835 3.97925 9.09982 4.30088 8.71451L4.68154 8.26092C5.00435 7.87561 5.58284 7.82471 5.96811 8.14753Z" stroke="#667EEA" stroke-width="0.8" stroke-miterlimit="10" stroke-linecap="round" stroke-linejoin="round"/>
<path d="M14.7946 5.52793V6.52189C14.7946 7.80161 13.0164 8.99337 11.9994 8.99337C10.9824 8.99337 9.2041 7.80047 9.2041 6.52189V5.52793M14.7946 5.52793V4.79552C14.7946 3.25776 13.537 2 11.9994 2C10.4629 2 9.2041 3.25776 9.2041 4.79552V5.52793M14.7946 5.52793C11.9682 5.51985 10.7383 3.30633 9.2041 5.52793" stroke="#667EEA" stroke-width="0.8" stroke-miterlimit="10" stroke-linecap="round" stroke-linejoin="round"/>
<path d="M9.20409 9.24676C7.59246 9.99309 7.34021 11.0229 7.34021 13.5407" stroke="#667EEA" stroke-width="0.8" stroke-miterlimit="10" stroke-linecap="round" stroke-linejoin="round"/>
<path d="M10.2049 8.22389L9.2041 9.24675L11.0345 10.9349L11.9994 8.99336L12.9643 10.9349L14.7946 9.24675L13.795 8.22389" stroke="#667EEA" stroke-width="0.8" stroke-miterlimit="10" stroke-linecap="round" stroke-linejoin="round"/>
<path d="M14.7946 9.24676C16.4063 9.99309 16.6585 11.0229 16.6585 13.5407" stroke="#667EEA" stroke-width="0.8" stroke-miterlimit="10" stroke-linecap="round" stroke-linejoin="round"/>
<path d="M11.9995 15.591H11.9982" stroke="#667EEA" stroke-width="0.8" stroke-miterlimit="10" stroke-linecap="round" stroke-linejoin="round"/>
</svg>
