<svg width="24" height="24" viewBox="0 0 24 24" fill="none" xmlns="http://www.w3.org/2000/svg">
<path d="M4.06894 16.4828C4.83101 16.4828 5.44825 15.8655 5.44825 15.1034C5.44825 14.3414 4.83101 13.7241 4.06894 13.7241C3.30688 13.7241 2.68963 14.3414 2.68963 15.1034C2.68963 15.8655 3.30688 16.4828 4.06894 16.4828ZM4.06894 14.4138C4.44825 14.4138 4.7586 14.7241 4.7586 15.1034C4.7586 15.4828 4.44825 15.7931 4.06894 15.7931C3.68963 15.7931 3.37929 15.4828 3.37929 15.1034C3.37929 14.7241 3.68963 14.4138 4.06894 14.4138ZM6.13791 21.3103H5.79308V20.9655C5.79308 20.5172 5.50343 20.1379 5.10343 19.9931V17.4172C5.10343 17.2276 4.94825 17.0724 4.7586 17.0724C4.56894 17.0724 4.41377 17.2276 4.41377 17.4172V19.931H3.72412V17.4172C3.72412 17.2276 3.56894 17.0724 3.37929 17.0724C3.18963 17.0724 3.03446 17.2276 3.03446 17.4172V19.9931C2.63446 20.1345 2.34481 20.5138 2.34481 20.9655V21.3103H1.99998C1.81032 21.3103 1.65515 21.4655 1.65515 21.6552C1.65515 21.8448 1.81032 22 1.99998 22H6.13791C6.32757 22 6.48274 21.8448 6.48274 21.6552C6.48274 21.4655 6.32757 21.3103 6.13791 21.3103ZM5.10343 21.3103H3.03446V20.9655C3.03446 20.7759 3.18963 20.6207 3.37929 20.6207H4.7586C4.94825 20.6207 5.10343 20.7759 5.10343 20.9655V21.3103ZM10.6207 15.1034C10.6207 15.8655 11.2379 16.4828 12 16.4828C12.762 16.4828 13.3793 15.8655 13.3793 15.1034C13.3793 14.3414 12.762 13.7241 12 13.7241C11.2379 13.7241 10.6207 14.3414 10.6207 15.1034ZM12.6896 15.1034C12.6896 15.4828 12.3793 15.7931 12 15.7931C11.6207 15.7931 11.3103 15.4828 11.3103 15.1034C11.3103 14.7241 11.6207 14.4138 12 14.4138C12.3793 14.4138 12.6896 14.7241 12.6896 15.1034ZM14.0689 21.3103H13.7241V20.9655C13.7241 20.5172 13.4345 20.1379 13.0345 19.9931V17.4172C13.0345 17.2276 12.8793 17.0724 12.6896 17.0724C12.5 17.0724 12.3448 17.2276 12.3448 17.4172V19.931H11.6552V17.4172C11.6552 17.2276 11.5 17.0724 11.3103 17.0724C11.1207 17.0724 10.9655 17.2276 10.9655 17.4172V19.9931C10.5655 20.1345 10.2758 20.5138 10.2758 20.9655V21.3103H9.93101C9.74136 21.3103 9.58619 21.4655 9.58619 21.6552C9.58619 21.8448 9.74136 22 9.93101 22H14.0689C14.2586 22 14.4138 21.8448 14.4138 21.6552C14.4138 21.4655 14.2586 21.3103 14.0689 21.3103ZM13.0345 21.3103H10.9655V20.9655C10.9655 20.7759 11.1207 20.6207 11.3103 20.6207H12.6896C12.8793 20.6207 13.0345 20.7759 13.0345 20.9655V21.3103ZM19.931 13.7241C19.1689 13.7241 18.5517 14.3414 18.5517 15.1034C18.5517 15.8655 19.1689 16.4828 19.931 16.4828C20.6931 16.4828 21.3103 15.8655 21.3103 15.1034C21.3103 14.3414 20.6931 13.7241 19.931 13.7241ZM19.931 15.7931C19.5517 15.7931 19.2414 15.4828 19.2414 15.1034C19.2414 14.7241 19.5517 14.4138 19.931 14.4138C20.3103 14.4138 20.6207 14.7241 20.6207 15.1034C20.6207 15.4828 20.3103 15.7931 19.931 15.7931ZM22 21.3103H21.6552V20.9655C21.6552 20.5172 21.3655 20.1379 20.9655 19.9931V17.4172C20.9655 17.2276 20.8103 17.0724 20.6207 17.0724C20.431 17.0724 20.2758 17.2276 20.2758 17.4172V19.931H19.5862V17.4172C19.5862 17.2276 19.431 17.0724 19.2414 17.0724C19.0517 17.0724 18.8965 17.2276 18.8965 17.4172V19.9931C18.4965 20.1345 18.2069 20.5138 18.2069 20.9655V21.3103H17.862C17.6724 21.3103 17.5172 21.4655 17.5172 21.6552C17.5172 21.8448 17.6724 22 17.862 22H22C22.1896 22 22.3448 21.8448 22.3448 21.6552C22.3448 21.4655 22.1896 21.3103 22 21.3103ZM20.9655 21.3103H18.8965V20.9655C18.8965 20.7759 19.0517 20.6207 19.2414 20.6207H20.6207C20.8103 20.6207 20.9655 20.7759 20.9655 20.9655V21.3103ZM10.1758 16.0862C10.1509 16.0482 10.1186 16.0156 10.0809 15.9901C10.0432 15.9647 10.0009 15.947 9.95631 15.938C9.91175 15.929 9.86584 15.929 9.82125 15.9378C9.77667 15.9467 9.73427 15.9643 9.69653 15.9897C8.71722 16.6379 7.34481 16.6379 6.3655 15.9897C6.28893 15.9396 6.19574 15.9216 6.10605 15.9397C6.01636 15.9577 5.93738 16.0104 5.88619 16.0862C5.78274 16.2448 5.82412 16.4586 5.98274 16.5655C6.58619 16.9621 7.29308 17.1724 8.02757 17.1724C8.76205 17.1724 9.46894 16.9621 10.0724 16.5655C10.231 16.4621 10.2758 16.2483 10.1689 16.0862H10.1758ZM18.1069 16.0862C18.0819 16.0482 18.0496 16.0156 18.0119 15.9901C17.9743 15.9647 17.9319 15.947 17.8873 15.938C17.8428 15.929 17.7969 15.929 17.7523 15.9378C17.7077 15.9467 17.6653 15.9643 17.6276 15.9897C16.6483 16.6379 15.2758 16.6379 14.2965 15.9897C14.22 15.9396 14.1268 15.9216 14.0371 15.9397C13.9474 15.9577 13.8684 16.0104 13.8172 16.0862C13.7138 16.2448 13.7552 16.4586 13.9138 16.5655C14.5172 16.9621 15.2241 17.1724 15.9586 17.1724C16.6931 17.1724 17.4 16.9621 18.0034 16.5655C18.162 16.4621 18.2069 16.2483 18.1 16.0862H18.1069ZM10.9655 2.68966H14.7586V8.89655C14.7586 9.08621 14.9138 9.24138 15.1034 9.24138C15.2931 9.24138 15.4483 9.08621 15.4483 8.89655V2.34483C15.4483 2.15517 15.2931 2 15.1034 2H10.9655C10.7758 2 10.6207 2.15517 10.6207 2.34483C10.6207 2.53448 10.7758 2.68966 10.9655 2.68966ZM8.89653 12.3448H15.1034C15.2931 12.3448 15.4483 12.1897 15.4483 12V10.2759C15.4483 10.0862 15.2931 9.93103 15.1034 9.93103C14.9138 9.93103 14.7586 10.0862 14.7586 10.2759V11.6552H9.24136V2.68966H9.58619C9.77584 2.68966 9.93101 2.53448 9.93101 2.34483C9.93101 2.15517 9.77584 2 9.58619 2H8.89653C8.70688 2 8.5517 2.15517 8.5517 2.34483V12C8.5517 12.1897 8.70688 12.3448 8.89653 12.3448ZM3.03446 10.6207H7.17239C7.36205 10.6207 7.51722 10.4655 7.51722 10.2759V4.06897C7.51722 3.87931 7.36205 3.72414 7.17239 3.72414H3.03446C2.84481 3.72414 2.68963 3.87931 2.68963 4.06897V5.44828C2.68963 5.63793 2.84481 5.7931 3.03446 5.7931C3.22412 5.7931 3.37929 5.63793 3.37929 5.44828V4.41379H6.82757V9.93103H3.37929V6.82759C3.37929 6.63793 3.22412 6.48276 3.03446 6.48276C2.84481 6.48276 2.68963 6.63793 2.68963 6.82759V10.2759C2.68963 10.4655 2.84481 10.6207 3.03446 10.6207ZM16.8276 10.6207H20.9655C21.1552 10.6207 21.3103 10.4655 21.3103 10.2759V6.82759C21.3103 6.63793 21.1552 6.48276 20.9655 6.48276C20.7758 6.48276 20.6207 6.63793 20.6207 6.82759V9.93103H17.1724V4.41379H20.6207V5.44828C20.6207 5.63793 20.7758 5.7931 20.9655 5.7931C21.1552 5.7931 21.3103 5.63793 21.3103 5.44828V4.06897C21.3103 3.87931 21.1552 3.72414 20.9655 3.72414H16.8276C16.6379 3.72414 16.4827 3.87931 16.4827 4.06897V10.2759C16.4827 10.4655 16.6379 10.6207 16.8276 10.6207Z" fill="#667EEA"/>
</svg>
