<svg width="24" height="24" viewBox="0 0 24 24" fill="none" xmlns="http://www.w3.org/2000/svg">
<path d="M6.61385 18.6101C6.38813 20.1902 6.06568 21.7702 5.77547 21.7379C5.35627 21.7057 5.19505 20.1902 5.13055 18.3199M8.16164 21.8024C8.09715 21.9314 8.03266 21.9959 7.93592 21.9959C7.58122 21.9959 7.32326 20.3191 7.19427 18.6746M12.4181 9.5491V11.1291M12.934 21.5122C13.0307 21.8024 13.1597 21.9959 13.2887 21.9959C14.1271 21.9959 14.4173 15.1276 14.4495 14.0957V13.9668V14.0635C14.5463 15.0309 15.2557 21.7379 15.9651 21.6735C17.3194 21.5445 16.61 8.16254 16.61 8.03356C16.61 8.03356 21.4146 2.93875 20.6407 2.10036C19.9313 1.29422 16.4488 5.58289 14.0948 6.45352C13.5467 6.647 12.7728 6.74373 11.9344 6.74373M12.0956 8.61398H11.8699" stroke="#667EEA" stroke-width="0.7" stroke-miterlimit="10" stroke-linecap="round" stroke-linejoin="round"/>
<path d="M13.6756 5.22819C14.5661 5.22819 15.2879 4.50634 15.2879 3.6159C15.2879 2.72547 14.5661 2.00362 13.6756 2.00362C12.7852 2.00362 12.0634 2.72547 12.0634 3.6159C12.0634 4.50634 12.7852 5.22819 13.6756 5.22819Z" stroke="#667EEA" stroke-width="0.7" stroke-miterlimit="10"/>
<path d="M7.80696 17.7395C5.71099 17.6428 3.13134 16.9011 3.26033 15.9337C3.26033 15.9337 5.74324 10.3875 5.71099 8.4205C5.67875 6.96945 3.77626 2.9065 4.87261 2.68078C5.93671 2.48731 6.83959 7.19517 8.12942 8.0658C8.77433 8.51724 10.3221 8.54949 11.7087 8.58173H12.4181" stroke="#667EEA" stroke-width="0.7" stroke-miterlimit="10" stroke-linecap="round" stroke-linejoin="round"/>
<path d="M9.45153 13.3541C8.12946 12.7737 6.25921 11.1291 5.74328 11.9675C5.09837 12.9349 8.96784 15.3856 8.96784 15.3856M14.4818 14.0635V13.9667C14.4818 13.9667 14.4496 13.999 14.4818 14.0635Z" stroke="#667EEA" stroke-width="0.7" stroke-miterlimit="10" stroke-linecap="round" stroke-linejoin="round"/>
<path d="M10.5156 18.3844C10.5156 18.3844 10.838 21.9959 11.5475 21.9959C12.6116 21.9959 12.3858 14.6762 12.3858 14.6762C12.3858 14.6762 15.3847 12.2255 14.7398 11.4516C13.9659 10.4842 11.483 13.4831 10.2254 13.5476C9.03229 13.612 6.38815 10.9357 5.71099 11.9675C5.06608 12.9349 8.93556 15.3856 8.93556 15.3856C8.93556 15.3856 8.22615 21.9959 9.61271 21.9959C10.5156 21.9959 10.5156 18.3844 10.5156 18.3844Z" stroke="#667EEA" stroke-width="0.7" stroke-miterlimit="10" stroke-linecap="round" stroke-linejoin="round"/>
<path d="M10.2577 12.4835C10.9166 12.4835 11.4508 11.9493 11.4508 11.2904C11.4508 10.6314 10.9166 10.0973 10.2577 10.0973C9.59874 10.0973 9.06458 10.6314 9.06458 11.2904C9.06458 11.9493 9.59874 12.4835 10.2577 12.4835Z" stroke="#667EEA" stroke-width="0.7" stroke-miterlimit="10" stroke-linecap="round" stroke-linejoin="round"/>
<path d="M9.645 7.29191C10.5354 7.29191 11.2573 6.57006 11.2573 5.67963C11.2573 4.78919 10.5354 4.06734 9.645 4.06734C8.75456 4.06734 8.03271 4.78919 8.03271 5.67963C8.03271 6.57006 8.75456 7.29191 9.645 7.29191Z" stroke="#667EEA" stroke-width="0.7" stroke-miterlimit="10"/>
</svg>
