<svg width="24" height="24" viewBox="0 0 24 24" fill="none" xmlns="http://www.w3.org/2000/svg">
<path d="M10.5222 17.6232C10.5035 17.6232 8.39783 16.9984 7.22316 15.8268C6.04848 14.6553 6.0641 12.6464 6.0641 12.6246C6.06476 12.5509 6.03933 12.4793 5.99231 12.4225C5.94529 12.3657 5.87971 12.3274 5.80717 12.3143C5.73462 12.3012 5.65979 12.3142 5.59589 12.351C5.532 12.3878 5.48316 12.4459 5.45802 12.5152L2.02147 21.5752C2.00014 21.6332 1.99647 21.6962 2.01093 21.7562C2.02539 21.8163 2.05732 21.8707 2.1027 21.9126C2.16032 21.9666 2.23622 21.9967 2.31514 21.997C2.3604 21.9972 2.40517 21.9876 2.44636 21.9689L10.5691 18.2199C10.6318 18.1956 10.685 18.1518 10.7207 18.0949C10.7565 18.038 10.773 17.9711 10.7677 17.9041C10.7625 17.8371 10.7358 17.7736 10.6915 17.723C10.6473 17.6724 10.5879 17.6374 10.5222 17.6232ZM4.66449 16.3735C4.92227 17.5425 5.47754 18.6251 6.27654 19.5164L4.41768 20.3693L3.91157 18.3542L4.66449 16.3735ZM3.52418 19.3758L3.8366 20.6255L2.87749 21.0816L3.52418 19.3758ZM6.87325 19.2384C5.83147 18.1222 5.21356 16.6764 5.12686 15.152L5.59548 13.9023C5.76141 14.7868 6.17156 15.6071 6.77953 16.2704C7.59715 17.0131 8.55239 17.5884 9.59125 17.9637L6.87325 19.2384ZM5.71108 5.85146L5.43928 7.25419C5.42849 7.31481 5.43585 7.37726 5.46044 7.43371C5.48503 7.49016 5.52575 7.53808 5.57749 7.57146C5.62922 7.60484 5.68967 7.62218 5.75124 7.62132C5.8128 7.62046 5.87274 7.60142 5.92352 7.56661L7.00134 6.82306L8.07292 7.56973C8.12516 7.60619 8.18729 7.62581 8.251 7.62596C8.31086 7.62581 8.36941 7.60846 8.4197 7.57598C8.47044 7.54285 8.51046 7.49567 8.53486 7.4402C8.55927 7.38473 8.56702 7.32336 8.55716 7.26356L8.29161 5.86083L9.09763 5.03293C9.13896 4.99185 9.16796 4.94003 9.18138 4.88333C9.1948 4.82663 9.1921 4.76731 9.17358 4.71207C9.15505 4.65682 9.12145 4.60786 9.07656 4.57071C9.03167 4.53356 8.97729 4.5097 8.91956 4.50183L7.80737 4.34562L7.28876 3.13034C7.26475 3.07398 7.22471 3.02593 7.17361 2.99215C7.1225 2.95837 7.0626 2.94036 7.00134 2.94036C6.94009 2.94036 6.88018 2.95837 6.82908 2.99215C6.77798 3.02593 6.73793 3.07398 6.71392 3.13034L6.19532 4.34562L5.08312 4.50183C5.02539 4.5097 4.97101 4.53356 4.92612 4.57071C4.88123 4.60786 4.84763 4.65682 4.82911 4.71207C4.81059 4.76731 4.80788 4.82663 4.8213 4.88333C4.83472 4.94003 4.86373 4.99185 4.90505 5.03293L5.71108 5.85146ZM6.45774 4.93609C6.5085 4.92684 6.55618 4.90517 6.59652 4.873C6.63686 4.84084 6.66861 4.79919 6.68893 4.75176L7.00134 4.04571L7.31376 4.75176C7.33492 4.80037 7.3681 4.8428 7.41019 4.87505C7.45227 4.90729 7.50187 4.9283 7.55431 4.93609L8.22913 5.03606L7.74176 5.52967C7.70623 5.56572 7.67999 5.60986 7.66529 5.65829C7.6506 5.70673 7.64789 5.75801 7.65741 5.80772L7.81049 6.61999L7.18567 6.18574C7.13337 6.14946 7.07124 6.13002 7.00759 6.13002C6.94394 6.13002 6.88181 6.14946 6.82951 6.18574L6.20469 6.61999L6.35777 5.80772C6.36729 5.75801 6.36458 5.70673 6.34989 5.65829C6.33519 5.60986 6.30895 5.56572 6.27342 5.52967L5.78293 5.03606L6.45774 4.93609ZM21.7285 16.2173L20.6163 16.0611L20.0977 14.8427C20.0737 14.7864 20.0337 14.7383 19.9826 14.7045C19.9314 14.6707 19.8715 14.6527 19.8103 14.6527C19.749 14.6527 19.6891 14.6707 19.638 14.7045C19.5869 14.7383 19.5469 14.7864 19.5229 14.8427L19.0043 16.0611L17.8921 16.2236C17.835 16.2319 17.7813 16.2558 17.7369 16.2928C17.6926 16.3297 17.6594 16.3782 17.641 16.4329C17.6225 16.4876 17.6196 16.5463 17.6325 16.6025C17.6454 16.6588 17.6736 16.7104 17.714 16.7516L18.52 17.5701L18.2482 18.9666C18.2374 19.0272 18.2448 19.0896 18.2694 19.1461C18.294 19.2025 18.3347 19.2505 18.3864 19.2838C18.4382 19.3172 18.4986 19.3346 18.5602 19.3337C18.6217 19.3328 18.6817 19.3138 18.7325 19.279L19.8103 18.5354L20.8819 19.2821C20.9341 19.3186 20.9962 19.3382 21.0599 19.3383C21.1198 19.3382 21.1784 19.3208 21.2286 19.2884C21.2794 19.2552 21.3194 19.208 21.3438 19.1526C21.3682 19.0971 21.376 19.0357 21.3661 18.9759L21.1006 17.5732L21.9066 16.7547C21.947 16.7135 21.9752 16.6619 21.9881 16.6057C22.001 16.5494 21.9981 16.4907 21.9796 16.436C21.9612 16.3813 21.928 16.3328 21.8836 16.2959C21.8393 16.2589 21.7856 16.235 21.7285 16.2267V16.2173ZM20.5413 17.242C20.5058 17.2781 20.4796 17.3222 20.4649 17.3707C20.4502 17.4191 20.4475 17.4704 20.457 17.5201L20.6101 18.3324L19.9852 17.8981C19.9329 17.8618 19.8708 17.8424 19.8072 17.8424C19.7435 17.8424 19.6814 17.8618 19.6291 17.8981L19.0043 18.3324L19.1573 17.5201C19.1669 17.4704 19.1642 17.4191 19.1495 17.3707C19.1348 17.3222 19.1085 17.2781 19.073 17.242L18.5919 16.7484L19.2667 16.6485C19.3191 16.6407 19.3687 16.6197 19.4108 16.5874C19.4529 16.5552 19.4861 16.5127 19.5072 16.4641L19.8103 15.7487L20.1227 16.4548C20.1439 16.5034 20.177 16.5458 20.2191 16.578C20.2612 16.6103 20.3108 16.6313 20.3633 16.6391L21.0381 16.7391L20.5413 17.242ZM11.5626 4.78925L12.9747 5.41408L13.5995 6.82619C13.6235 6.88254 13.6636 6.9306 13.7147 6.96437C13.7658 6.99815 13.8257 7.01616 13.8869 7.01616C13.9482 7.01616 14.0081 6.99815 14.0592 6.96437C14.1103 6.9306 14.1503 6.88254 14.1744 6.82619L14.7992 5.41408L16.2113 4.78925C16.2676 4.76524 16.3157 4.7252 16.3495 4.6741C16.3833 4.62299 16.4013 4.56309 16.4013 4.50183C16.4013 4.44057 16.3833 4.38067 16.3495 4.32957C16.3157 4.27846 16.2676 4.23842 16.2113 4.21441L14.7992 3.58958L14.1619 2.18997C14.1378 2.13362 14.0978 2.08556 14.0467 2.05179C13.9956 2.01801 13.9357 2 13.8744 2C13.8132 2 13.7533 2.01801 13.7022 2.05179C13.6511 2.08556 13.611 2.13362 13.587 2.18997L12.9622 3.60208L11.5501 4.22691C11.4937 4.25091 11.4457 4.29096 11.4119 4.34206C11.3781 4.39317 11.3601 4.45307 11.3601 4.51433C11.3601 4.57558 11.3781 4.63549 11.4119 4.68659C11.4457 4.73769 11.4937 4.77774 11.5501 4.80175L11.5626 4.78925ZM13.3371 4.12694C13.4084 4.09324 13.4658 4.03582 13.4995 3.96448L13.8744 3.0991L14.2493 3.96448C14.283 4.03582 14.3405 4.09324 14.4118 4.12694L15.2772 4.50183L14.4118 4.87673C14.3405 4.91042 14.283 4.96785 14.2493 5.03918L13.8744 5.90457L13.4995 5.03918C13.4658 4.96785 13.4084 4.91042 13.3371 4.87673L12.4717 4.50183L13.3371 4.12694ZM19.5853 11.6873C19.6417 11.6633 19.6898 11.6233 19.7235 11.5722C19.7573 11.5211 19.7753 11.4612 19.7753 11.3999C19.7753 11.3387 19.7573 11.2788 19.7235 11.2277C19.6898 11.1765 19.6417 11.1365 19.5853 11.1125L18.1732 10.4877L17.5484 9.07556C17.5244 9.01921 17.4844 8.97115 17.4333 8.93737C17.3822 8.9036 17.3223 8.88559 17.261 8.88559C17.1997 8.88559 17.1398 8.9036 17.0887 8.93737C17.0376 8.97115 16.9976 9.01921 16.9736 9.07556L16.3487 10.4877L14.9366 11.1125C14.8803 11.1365 14.8322 11.1765 14.7985 11.2277C14.7647 11.2788 14.7467 11.3387 14.7467 11.3999C14.7467 11.4612 14.7647 11.5211 14.7985 11.5722C14.8322 11.6233 14.8803 11.6633 14.9366 11.6873L16.3737 12.3122L16.9986 13.7243C17.0226 13.7806 17.0626 13.8287 17.1137 13.8625C17.1648 13.8962 17.2247 13.9142 17.286 13.9142C17.3472 13.9142 17.4071 13.8962 17.4583 13.8625C17.5094 13.8287 17.5494 13.7806 17.5734 13.7243L18.1982 12.3122L19.5853 11.6873ZM17.6484 11.9373L17.2735 12.8027L16.8955 11.9373C16.864 11.8662 16.8072 11.8094 16.7361 11.7779L15.8708 11.3999L16.7361 11.025C16.8078 10.9928 16.8647 10.9348 16.8955 10.8626L17.2735 9.99718L17.6484 10.8626C17.6799 10.9354 17.738 10.9935 17.8108 11.025L18.6762 11.3999L17.8108 11.7904C17.7386 11.8212 17.6806 11.8781 17.6484 11.9498V11.9373Z" fill="#667EEA"/>
<path d="M6.60458 13.5618C6.63251 13.5664 6.661 13.5664 6.68893 13.5618C6.75905 13.5644 6.828 13.5433 6.88468 13.5019C6.94135 13.4606 6.98245 13.4013 7.00135 13.3338C7.40996 11.6603 7.51577 9.92718 7.31376 8.21642C7.30464 8.13357 7.26299 8.05772 7.19796 8.00558C7.13292 7.95344 7.04984 7.92926 6.96698 7.93838C6.88412 7.94749 6.80828 7.98915 6.75614 8.05418C6.70399 8.11921 6.67982 8.2023 6.68893 8.28516C6.86828 9.9176 6.76257 11.5688 6.37652 13.1651C6.36382 13.2061 6.35972 13.2493 6.36446 13.292C6.36921 13.3346 6.3827 13.3759 6.4041 13.4131C6.42551 13.4504 6.45435 13.4828 6.48885 13.5084C6.52334 13.5339 6.56274 13.5521 6.60458 13.5618ZM16.3737 15.4707C16.3825 15.3887 16.3586 15.3066 16.3071 15.2422C16.2556 15.1778 16.1807 15.1364 16.0988 15.127C13.2059 14.8146 10.3879 16.6578 10.2692 16.7391C10.214 16.7761 10.1721 16.8298 10.1495 16.8924C10.1269 16.9549 10.1249 17.0231 10.1437 17.0868C10.1625 17.1506 10.2012 17.2067 10.2541 17.247C10.307 17.2873 10.3714 17.3096 10.4379 17.3108C10.4993 17.3115 10.5594 17.2929 10.6097 17.2577C10.6378 17.2389 13.359 15.4488 16.027 15.7456C16.0678 15.7504 16.1092 15.7471 16.1487 15.7358C16.1883 15.7246 16.2252 15.7056 16.2574 15.6801C16.2896 15.6546 16.3165 15.6229 16.3365 15.587C16.3564 15.551 16.3691 15.5115 16.3737 15.4707ZM7.10444 14.4178C7.16174 14.4699 7.23633 14.4989 7.31376 14.4991C7.35735 14.499 7.40045 14.4897 7.44026 14.472C7.48008 14.4542 7.51574 14.4283 7.54494 14.396C7.67616 14.2522 10.7503 10.8344 11.0627 6.71372C11.066 6.67269 11.0612 6.63142 11.0485 6.59226C11.0358 6.5531 11.0156 6.51682 10.9889 6.48549C10.9622 6.45416 10.9296 6.42839 10.893 6.40966C10.8563 6.39092 10.8163 6.37959 10.7753 6.37631C10.7343 6.37303 10.693 6.37786 10.6538 6.39053C10.6147 6.4032 10.5784 6.42345 10.5471 6.45014C10.5157 6.47683 10.49 6.50943 10.4712 6.54608C10.4525 6.58273 10.4412 6.6227 10.4379 6.66373C10.1255 10.5689 7.11381 13.943 7.08257 13.9773C7.0272 14.0387 6.9984 14.1195 7.0025 14.2021C7.0066 14.2847 7.04326 14.3622 7.10444 14.4178ZM14.1431 12.937C11.8781 13.2494 9.98489 15.1239 9.90367 15.2114C9.87438 15.2404 9.85114 15.275 9.83528 15.313C9.81942 15.3511 9.81125 15.3919 9.81125 15.4332C9.81125 15.4744 9.81942 15.5152 9.83528 15.5533C9.85114 15.5914 9.87438 15.6259 9.90367 15.655C9.93271 15.6843 9.96726 15.7075 10.0053 15.7234C10.0434 15.7392 10.0842 15.7474 10.1255 15.7474C10.1667 15.7474 10.2076 15.7392 10.2456 15.7234C10.2837 15.7075 10.3182 15.6843 10.3473 15.655C10.3629 15.6362 12.1749 13.8492 14.2306 13.5556C14.2716 13.5498 14.3111 13.5361 14.3468 13.515C14.3825 13.494 14.4137 13.4662 14.4387 13.4331C14.4636 13.4001 14.4818 13.3624 14.4922 13.3223C14.5026 13.2822 14.505 13.2404 14.4993 13.1994C14.4935 13.1584 14.4798 13.1189 14.4587 13.0832C14.4377 13.0475 14.4099 13.0163 14.3768 12.9913C14.3438 12.9664 14.3061 12.9482 14.266 12.9378C14.2259 12.9274 14.1841 12.925 14.1431 12.9307V12.937ZM15.4178 9.3911C15.4035 9.35246 15.3818 9.31701 15.3537 9.28681C15.3257 9.25661 15.292 9.23224 15.2546 9.21511C15.2171 9.19798 15.1767 9.18842 15.1355 9.18699C15.0943 9.18556 15.0533 9.19229 15.0147 9.20677C12.4748 10.1596 8.50093 14.4178 8.33535 14.599C8.29407 14.6435 8.26665 14.6991 8.25645 14.7589C8.24624 14.8188 8.25369 14.8803 8.27788 14.936C8.30207 14.9916 8.34196 15.0391 8.39267 15.0724C8.44338 15.1058 8.50271 15.1237 8.56341 15.1239C8.60625 15.1237 8.6486 15.1148 8.68783 15.0976C8.72707 15.0804 8.76234 15.0553 8.79147 15.0239C8.83209 14.9802 12.831 10.6939 15.2334 9.79411C15.2721 9.77986 15.3075 9.7581 15.3377 9.7301C15.3679 9.7021 15.3923 9.6684 15.4094 9.63094C15.4266 9.59349 15.4361 9.55302 15.4375 9.51185C15.439 9.47069 15.4322 9.42965 15.4178 9.3911ZM8.87583 15.7487H9.50065V16.3735H8.87583V15.7487ZM7.31376 15.1239H7.93859V15.7487H7.31376V15.1239ZM18.9636 8.16019C18.9928 8.18915 19.0275 8.21205 19.0655 8.2276C19.1036 8.24315 19.1443 8.25103 19.1855 8.25079H19.2354C19.2841 8.24266 19.3301 8.22314 19.3697 8.19382C19.4094 8.16449 19.4415 8.12621 19.4635 8.08209L20.0883 6.83243C20.1224 6.76429 20.1305 6.68603 20.1109 6.61239C20.0914 6.53874 20.0455 6.47478 19.9821 6.43255L19.0449 5.80772C18.9939 5.77413 18.9341 5.75622 18.873 5.75622C18.812 5.75622 18.7522 5.77413 18.7012 5.80772L17.764 6.43255C17.7251 6.45775 17.6923 6.4913 17.668 6.53074C17.6437 6.57019 17.6285 6.61455 17.6234 6.66061C17.6187 6.70687 17.6244 6.7536 17.6401 6.79738C17.6558 6.84116 17.681 6.88088 17.714 6.91366L18.9636 8.16019ZM18.873 6.43879L19.4073 6.79494L19.0949 7.41977L18.4201 6.74808L18.873 6.43879ZM13.4371 20.185L12.1874 19.2477C12.1273 19.2023 12.0527 19.18 11.9775 19.1852C11.9023 19.1904 11.8315 19.2226 11.7781 19.2759L11.1533 19.9007C11.124 19.9297 11.1008 19.9643 11.0849 20.0023C11.0691 20.0404 11.0609 20.0813 11.0609 20.1225C11.0609 20.1637 11.0691 20.2046 11.0849 20.2426C11.1008 20.2807 11.124 20.3153 11.1533 20.3443L12.0906 21.2815C12.1198 21.3105 12.1544 21.3334 12.1924 21.349C12.2305 21.3645 12.2713 21.3724 12.3124 21.3721C12.3739 21.3733 12.4341 21.3547 12.4842 21.319L13.4214 20.6942C13.4644 20.6659 13.4997 20.6274 13.5243 20.5822C13.5488 20.537 13.5618 20.4864 13.562 20.4349C13.562 20.3864 13.5507 20.3386 13.529 20.2952C13.5074 20.2518 13.4759 20.2141 13.4371 20.185ZM12.353 20.6567L11.8156 20.1225L12.0281 19.9101L12.7091 20.4349L12.353 20.6567ZM3.91158 10.8907C3.93754 10.9422 3.97726 10.9855 4.02634 11.0159C4.07542 11.0462 4.13193 11.0623 4.18963 11.0625C4.21453 11.0655 4.2397 11.0655 4.26461 11.0625L5.51426 10.7501C5.5598 10.739 5.60227 10.7178 5.6385 10.688C5.67474 10.6583 5.70381 10.6208 5.72358 10.5783C5.74405 10.5359 5.75468 10.4894 5.75468 10.4424C5.75468 10.3953 5.74405 10.3488 5.72358 10.3065L5.09875 9.05682C5.06981 8.98912 5.0179 8.93383 4.95217 8.90067C4.88644 8.86752 4.81111 8.85865 4.73947 8.87562L3.48982 9.18803C3.44428 9.19913 3.40181 9.22034 3.36558 9.25008C3.32934 9.27983 3.30027 9.31735 3.2805 9.35986C3.26003 9.40224 3.2494 9.44869 3.2494 9.49576C3.2494 9.54282 3.26003 9.58928 3.2805 9.63166L3.91158 10.8907ZM4.64575 9.55043L4.98628 10.2284L4.36145 10.3877L4.0178 9.70976L4.64575 9.55043ZM15.7489 19.4977C15.6661 19.4977 15.5866 19.5306 15.528 19.5892C15.4694 19.6478 15.4365 19.7272 15.4365 19.8101V20.4349C15.4365 20.5178 15.4694 20.5972 15.528 20.6558C15.5866 20.7144 15.6661 20.7473 15.7489 20.7473C15.8318 20.7473 15.9112 20.7144 15.9698 20.6558C16.0284 20.5972 16.0613 20.5178 16.0613 20.4349V19.8101C16.0613 19.7272 16.0284 19.6478 15.9698 19.5892C15.9112 19.5306 15.8318 19.4977 15.7489 19.4977ZM15.7489 17.6232C15.6661 17.6232 15.5866 17.6561 15.528 17.7147C15.4694 17.7733 15.4365 17.8527 15.4365 17.9356V18.5604C15.4365 18.6433 15.4694 18.7227 15.528 18.7813C15.5866 18.8399 15.6661 18.8728 15.7489 18.8728C15.8318 18.8728 15.9112 18.8399 15.9698 18.7813C16.0284 18.7227 16.0613 18.6433 16.0613 18.5604V17.9356C16.0613 17.8527 16.0284 17.7733 15.9698 17.7147C15.9112 17.6561 15.8318 17.6232 15.7489 17.6232ZM15.1241 18.8728H14.4993C14.4164 18.8728 14.3369 18.9058 14.2784 18.9643C14.2198 19.0229 14.1869 19.1024 14.1869 19.1853C14.1869 19.2681 14.2198 19.3476 14.2784 19.4062C14.3369 19.4648 14.4164 19.4977 14.4993 19.4977H15.1241C15.2069 19.4977 15.2864 19.4648 15.345 19.4062C15.4036 19.3476 15.4365 19.2681 15.4365 19.1853C15.4365 19.1024 15.4036 19.0229 15.345 18.9643C15.2864 18.9058 15.2069 18.8728 15.1241 18.8728ZM16.9986 18.8728H16.3737C16.2909 18.8728 16.2114 18.9058 16.1528 18.9643C16.0942 19.0229 16.0613 19.1024 16.0613 19.1853C16.0613 19.2681 16.0942 19.3476 16.1528 19.4062C16.2114 19.4648 16.2909 19.4977 16.3737 19.4977H16.9986C17.0814 19.4977 17.1609 19.4648 17.2195 19.4062C17.2781 19.3476 17.311 19.2681 17.311 19.1853C17.311 19.1024 17.2781 19.0229 17.2195 18.9643C17.1609 18.9058 17.0814 18.8728 16.9986 18.8728ZM20.4351 3.877C20.3523 3.877 20.2728 3.90992 20.2142 3.96851C20.1556 4.0271 20.1227 4.10656 20.1227 4.18942V4.81424C20.1227 4.8971 20.1556 4.97657 20.2142 5.03515C20.2728 5.09374 20.3523 5.12666 20.4351 5.12666C20.518 5.12666 20.5974 5.09374 20.656 5.03515C20.7146 4.97657 20.7475 4.8971 20.7475 4.81424V4.18942C20.7475 4.10656 20.7146 4.0271 20.656 3.96851C20.5974 3.90992 20.518 3.877 20.4351 3.877ZM20.4351 3.25218C20.518 3.25218 20.5974 3.21926 20.656 3.16067C20.7146 3.10209 20.7475 3.02262 20.7475 2.93977V2.31494C20.7475 2.23208 20.7146 2.15262 20.656 2.09403C20.5974 2.03544 20.518 2.00253 20.4351 2.00253C20.3523 2.00253 20.2728 2.03544 20.2142 2.09403C20.1556 2.15262 20.1227 2.23208 20.1227 2.31494V2.93977C20.1227 3.02262 20.1556 3.10209 20.2142 3.16067C20.2728 3.21926 20.3523 3.25218 20.4351 3.25218ZM19.1855 3.877H19.8103C19.8931 3.877 19.9726 3.84409 20.0312 3.7855C20.0898 3.72691 20.1227 3.64745 20.1227 3.56459C20.1227 3.48173 20.0898 3.40227 20.0312 3.34368C19.9726 3.28509 19.8931 3.25218 19.8103 3.25218H19.1855C19.1026 3.25218 19.0231 3.28509 18.9646 3.34368C18.906 3.40227 18.873 3.48173 18.873 3.56459C18.873 3.64745 18.906 3.72691 18.9646 3.7855C19.0231 3.84409 19.1026 3.877 19.1855 3.877ZM21.0599 3.877H21.6848C21.7676 3.877 21.8471 3.84409 21.9057 3.7855C21.9643 3.72691 21.9972 3.64745 21.9972 3.56459C21.9972 3.48173 21.9643 3.40227 21.9057 3.34368C21.8471 3.28509 21.7676 3.25218 21.6848 3.25218H21.0599C20.9771 3.25218 20.8976 3.28509 20.839 3.34368C20.7804 3.40227 20.7475 3.48173 20.7475 3.56459C20.7475 3.64745 20.7804 3.72691 20.839 3.7855C20.8976 3.84409 20.9771 3.877 21.0599 3.877Z" fill="#667EEA"/>
</svg>
