<svg width="24" height="24" viewBox="0 0 24 24" fill="none" xmlns="http://www.w3.org/2000/svg">
<path d="M21.7297 18.6155H21.1566V18.1761C21.1566 17.7485 20.881 17.385 20.4984 17.2515V5.90555C21.0111 5.50551 21.3427 4.88359 21.3427 4.18434C21.3426 2.97992 20.3629 2 19.1585 2C17.9541 2 16.9741 2.97992 16.9741 4.18434C16.9741 4.88363 17.3057 5.50555 17.8186 5.90559V5.97012C16.4594 7.58164 14.2931 8.54242 12 8.54242C9.70691 8.54242 7.54063 7.58164 6.18145 5.97012V5.90559C6.69426 5.50555 7.02586 4.88363 7.02586 4.18434C7.02586 2.97992 6.04598 2 4.84152 2C3.63707 2 2.65719 2.97992 2.65719 4.18434C2.65719 4.88363 2.98879 5.50555 3.5016 5.90559V17.2515C3.11898 17.385 2.84336 17.7485 2.84336 18.1761V18.6155H2.27027C2.1986 18.6155 2.12986 18.644 2.07917 18.6946C2.02849 18.7453 2.00001 18.8141 2 18.8857V19.9198C2.00001 19.9915 2.02849 20.0603 2.07917 20.1109C2.12986 20.1616 2.1986 20.1901 2.27027 20.1901H7.41281C7.48449 20.1901 7.55323 20.1616 7.60391 20.1109C7.6546 20.0603 7.68308 19.9915 7.68309 19.9198V18.8857C7.68308 18.8141 7.6546 18.7453 7.60391 18.6946C7.55323 18.644 7.48449 18.6155 7.41281 18.6155H6.83973V18.1761C6.83973 17.7485 6.5641 17.385 6.18148 17.2515V8.12129C7.58465 9.68305 9.70258 10.5976 12 10.5976C14.2975 10.5976 16.4154 9.68305 17.8186 8.12129V17.2515C17.436 17.385 17.1604 17.7485 17.1604 18.1761V18.6155H16.5873C16.5156 18.6155 16.4468 18.644 16.3962 18.6946C16.3455 18.7453 16.317 18.8141 16.317 18.8857V19.9198C16.317 19.9915 16.3455 20.0603 16.3962 20.1109C16.4468 20.1616 16.5156 20.1901 16.5873 20.1901H21.7298C21.8015 20.1901 21.8702 20.1616 21.9209 20.1109C21.9716 20.0603 22.0001 19.9915 22.0001 19.9198V18.8857C22 18.8141 21.9715 18.7453 21.9208 18.6947C21.8701 18.644 21.8014 18.6155 21.7297 18.6155ZM19.9579 17.1962H18.3591V6.21496C18.607 6.31289 18.8761 6.36852 19.1585 6.36852C19.4408 6.36852 19.7099 6.31293 19.9579 6.21496V17.1962ZM17.5147 4.18434C17.5147 3.27797 18.2521 2.54055 19.1585 2.54055C20.0648 2.54055 20.8021 3.27797 20.8021 4.18434C20.8021 5.0907 20.0648 5.82797 19.1585 5.82797C18.2521 5.82793 17.5147 5.0907 17.5147 4.18434ZM3.19773 4.18434C3.19773 3.27797 3.93516 2.54055 4.84152 2.54055C5.74789 2.54055 6.48531 3.27797 6.48531 4.18434C6.48531 5.0907 5.74789 5.82793 4.84152 5.82793C3.93516 5.82793 3.19773 5.0907 3.19773 4.18434ZM4.84152 6.36848C5.12383 6.36848 5.39297 6.31289 5.6409 6.21492V17.1962H4.04215V6.21492C4.29008 6.31289 4.55922 6.36848 4.84152 6.36848ZM7.14254 19.6496H2.54055V19.156H7.14254V19.6496ZM6.29918 18.6155H3.38391V18.1761C3.38391 17.9338 3.58098 17.7367 3.82328 17.7367H5.8598C6.10211 17.7367 6.29918 17.9338 6.29918 18.1761V18.6155ZM12 10.0571C9.62231 10.0571 7.45492 9.01363 6.18145 7.26422V6.76613C7.64637 8.22633 9.76856 9.08297 12 9.08297C14.2314 9.08297 16.3536 8.22633 17.8186 6.76613V7.26422C16.5451 9.01367 14.3777 10.0571 12 10.0571ZM17.7008 18.1761C17.7008 17.9338 17.8979 17.7367 18.1402 17.7367H20.1767C20.419 17.7367 20.6161 17.9338 20.6161 18.1761V18.6155H17.7008V18.1761ZM21.4595 19.6496H16.8575V19.156H21.4595V19.6496ZM14.9352 15.8851C14.9212 15.8258 14.8877 15.7729 14.8399 15.7351C14.7922 15.6972 14.733 15.6766 14.6721 15.6766H9.32793C9.20246 15.6766 9.09355 15.763 9.06488 15.8851L7.70629 21.668C7.69694 21.7076 7.69669 21.7489 7.70555 21.7887C7.71442 21.8284 7.73217 21.8657 7.75747 21.8976C7.78277 21.9296 7.81498 21.9554 7.85167 21.9731C7.88836 21.9908 7.92859 22 7.96934 22H16.0308C16.0716 22 16.1118 21.9908 16.1484 21.973C16.1851 21.9553 16.2173 21.9295 16.2426 21.8976C16.2679 21.8656 16.2856 21.8284 16.2945 21.7886C16.3034 21.7489 16.3032 21.7076 16.2939 21.668L14.9352 15.8851ZM8.31055 21.4595L9.54207 16.2171H14.458L15.6897 21.4595H8.31055Z" fill="#667EEA"/>
</svg>
