<svg width="24" height="24" viewBox="0 0 24 24" fill="none" xmlns="http://www.w3.org/2000/svg">
<path d="M15.9472 20.2124C15.8359 20.2281 15.7318 20.2553 15.6398 20.3022C15.1763 20.5388 14.9382 21.3345 14.4365 21.4974C13.9434 21.6575 13.2838 21.1549 12.7605 21.2371C12.2507 21.3172 11.7781 22.0001 11.2457 22.0001C10.7134 22.0001 10.2409 21.3172 9.73106 21.2371C9.20763 21.1549 8.54795 21.6575 8.05479 21.4973C7.55302 21.3344 7.31495 20.5387 6.85145 20.3021C6.38312 20.063 5.59961 20.3362 5.17756 20.029C4.75349 19.7203 4.77261 18.8903 4.40259 18.5203" stroke="#667EEA" stroke-width="0.7" stroke-miterlimit="10" stroke-linecap="round" stroke-linejoin="round"/>
<path d="M12.2135 11.7177C12.2135 11.267 12.3185 10.8224 12.52 10.4193L12.8587 9.74196L11.2458 8.12908L11.3847 7.71233C11.4891 7.39909 11.8131 7.21523 12.1356 7.2863L12.7579 7.4234L12.9661 6.92766C13.0498 6.72839 13.3294 6.72086 13.4237 6.91535L14.5679 9.2754C14.7168 9.58244 14.7942 9.91926 14.7942 10.2605V13.021C14.7942 13.2067 14.8343 13.3902 14.9117 13.559C14.9892 13.7278 15.1021 13.8779 15.2429 13.999L19.5973 17.7456C19.2887 18.1697 18.4586 18.1506 18.0886 18.5206C18.0184 18.5908 17.9622 18.6776 17.9144 18.7741" stroke="#667EEA" stroke-width="0.7" stroke-miterlimit="10" stroke-linecap="round" stroke-linejoin="round"/>
<path d="M4.40265 18.5203C8.81844 16.8351 10.9799 15.1286 11.8026 14.3587C12.0646 14.1135 12.2136 13.7729 12.2136 13.414V12.9678" stroke="#667EEA" stroke-width="0.7" stroke-miterlimit="10" stroke-linecap="round" stroke-linejoin="round"/>
<path d="M10.8156 6.69064L9.61957 8.63185C9.51509 8.8014 9.45128 8.99284 9.43313 9.19117C9.41499 9.3895 9.443 9.58934 9.51498 9.77503L10.4242 12.1208C10.5267 12.3854 10.8524 12.4808 11.0816 12.3133C11.1533 12.2609 11.2071 12.1877 11.2357 12.1036C11.2642 12.0195 11.2662 11.9287 11.2413 11.8434L10.4931 9.28497L11.2457 8.12907" stroke="#667EEA" stroke-width="0.7" stroke-miterlimit="10" stroke-linecap="round" stroke-linejoin="round"/>
<path d="M13.1813 5.54838V4.61606C13.1813 4.38504 13.0987 4.16164 12.9483 3.98624L11.3636 2.13738C11.3267 2.09429 11.2808 2.0597 11.2293 2.03599C11.1777 2.01228 11.1216 2 11.0649 2C10.7407 2 10.5556 2.3701 10.7501 2.62941L12.2136 4.58065V5.54838" stroke="#667EEA" stroke-width="0.7" stroke-miterlimit="10" stroke-linecap="round" stroke-linejoin="round"/>
<path d="M12.2135 5.54838C12.2135 6.17192 11.708 6.67744 11.0845 6.67744C10.4609 6.67744 9.95544 6.17192 9.95544 5.54838C9.95544 4.92484 10.4609 4.41936 11.0845 4.41936C11.708 4.41936 12.2135 4.92484 12.2135 5.54838Z" stroke="#667EEA" stroke-width="0.7" stroke-miterlimit="10" stroke-linecap="round" stroke-linejoin="round"/>
<path d="M9.95544 5.2258C9.95544 5.5821 9.66658 5.87096 9.31028 5.87096C8.95394 5.87096 8.66513 5.5821 8.66513 5.2258C8.66513 4.8695 8.95394 4.58065 9.31028 4.58065C9.66658 4.58065 9.95544 4.8695 9.95544 5.2258Z" stroke="#667EEA" stroke-width="0.7" stroke-miterlimit="10" stroke-linecap="round" stroke-linejoin="round"/>
<path d="M14.0016 16.8138L16.9219 21.7784C16.9616 21.8459 17.0182 21.9019 17.0862 21.9407C17.1542 21.9796 17.2311 22.0001 17.3095 22.0001C17.6396 22.0001 17.8572 21.6562 17.7159 21.3579L15.2579 16.1688" stroke="#667EEA" stroke-width="0.7" stroke-miterlimit="10" stroke-linecap="round" stroke-linejoin="round"/>
<path d="M8.0603 16.9194C8.0603 16.9194 13.7861 18.2904 16.3264 14.9839" stroke="#667EEA" stroke-width="0.7" stroke-miterlimit="10" stroke-linecap="round" stroke-linejoin="round"/>
</svg>
