<svg width="24" height="24" viewBox="0 0 24 24" fill="none" xmlns="http://www.w3.org/2000/svg">
<path d="M16.1183 5.00131C15.8525 5.00131 15.59 5.02205 15.3322 5.06212V3.95956C15.3322 3.74382 15.1573 3.56894 14.9416 3.56894C14.4101 3.56867 13.8814 3.64555 13.372 3.79718C13.1594 3.1462 12.7807 2.56543 12.2606 2.09973C12.1889 2.03558 12.0961 2.00011 12 2.00011C11.9038 2.00011 11.811 2.03558 11.7394 2.09973C11.2196 2.56512 10.8411 3.14542 10.6284 3.79581C10.1254 3.64647 9.59786 3.56894 9.05837 3.56894C8.84267 3.56894 8.66775 3.74382 8.66775 3.95956V5.06209C8.40769 5.02162 8.14489 5.0013 7.8817 5.00131C7.66596 5.00131 7.49108 5.17623 7.49108 5.39193V8.07784C7.49108 9.98825 8.67357 11.5962 10.3031 12.2576C9.7693 12.9903 9.11119 13.3662 9.10427 13.37C9.03314 13.4095 8.97609 13.4701 8.9411 13.5436C8.9061 13.617 8.89489 13.6995 8.90904 13.7796C8.92319 13.8597 8.96199 13.9334 9.02003 13.9904C9.07807 14.0473 9.15244 14.0848 9.23279 14.0975C10.025 14.2225 10.8381 14.1905 11.6094 13.9274V17.3963C11.0086 16.7572 10.1425 16.413 9.23146 16.5003C9.1419 16.5088 9.05804 16.5481 8.99407 16.6113C8.9301 16.6746 8.88994 16.758 8.88037 16.8475C8.70142 18.5175 9.97145 19.9593 11.6094 20.0356V21.6093C11.6094 21.825 11.7842 21.9999 12 21.9999C12.2157 21.9999 12.3906 21.825 12.3906 21.6093V18.4918C14.0289 18.4154 15.2986 16.9734 15.1196 15.3036C15.11 15.2142 15.0698 15.1308 15.0059 15.0675C14.9419 15.0042 14.858 14.965 14.7685 14.9564C13.9009 14.8733 13.0212 15.1816 12.3906 15.8525V13.9319C13.1457 14.1868 13.9518 14.2243 14.7547 14.0974C14.835 14.0847 14.9094 14.0472 14.9674 13.9902C15.0254 13.9332 15.0642 13.8596 15.0784 13.7795C15.0925 13.6994 15.0813 13.6169 15.0463 13.5434C15.0113 13.47 14.9542 13.4094 14.8831 13.3699C14.8754 13.3657 14.2214 12.9968 13.6856 12.2605C15.3527 11.5869 16.5089 9.94747 16.5089 8.0778V5.39189C16.5089 5.17623 16.334 5.00131 16.1183 5.00131ZM9.64806 17.2727C10.7043 17.3422 11.5491 18.1929 11.6064 19.2531C10.5503 19.1835 9.7054 18.333 9.64806 17.2727ZM14.3519 15.7289C14.2945 16.7898 13.449 17.6399 12.3935 17.7093C12.4214 17.1959 13.2966 15.7984 14.3519 15.7289ZM14.551 4.36608V5.24849C14.164 5.37451 13.7938 5.54747 13.4488 5.76349C13.2137 5.45083 12.9612 5.18068 12.6765 4.93041C13.2544 4.61178 13.8933 4.41943 14.551 4.36608ZM12 2.94335C12.2909 3.27061 12.5092 3.6558 12.6405 4.07354C12.4201 4.17565 12.2068 4.29232 12.0019 4.42276C11.796 4.29152 11.5816 4.17432 11.36 4.07194C11.4913 3.65481 11.7094 3.27019 12 2.94335ZM11.6094 13.091C11.2942 13.2278 10.8771 13.3495 10.3572 13.3796C10.5993 13.1464 10.8584 12.8518 11.0877 12.4947C11.26 12.5299 11.4342 12.555 11.6094 12.5698V13.091ZM12.1467 11.8026C10.0325 11.8852 8.27233 10.1976 8.27233 8.07784V5.80005C9.7493 5.93325 10.9994 6.81711 11.6546 8.05714L11.6546 8.05721C11.6547 8.05723 11.6547 8.05726 11.6547 8.05729C11.9766 8.66569 12.1467 9.35388 12.1467 10.0475V11.8026ZM12 7.13074C11.3827 6.25997 10.4909 5.58735 9.44899 5.24837V4.36604C10.8049 4.47666 12.0173 5.16259 12.8206 6.22778C12.4981 6.50711 12.2265 6.81141 12 7.13074ZM12.3906 13.0966V12.5694C12.5607 12.5548 12.7167 12.5338 12.9004 12.4965C13.1295 12.8528 13.3883 13.1468 13.6301 13.3797C13.1162 13.3499 12.7033 13.2308 12.3906 13.0966ZM15.7276 8.07784C15.7276 9.79247 14.5519 11.2729 12.9279 11.6889V10.0475C12.9279 9.29935 12.7604 8.55608 12.4418 7.88456C13.1163 6.74047 14.3147 5.92759 15.7276 5.80013V8.07784ZM20.9591 3.68268C20.0711 3.35765 19.8579 3.14437 19.5328 2.25641C19.5053 2.18123 19.4554 2.11632 19.3898 2.07046C19.3242 2.0246 19.246 2 19.166 2C19.0859 2 19.0078 2.0246 18.9422 2.07046C18.8766 2.11632 18.8267 2.18123 18.7992 2.25641C18.4741 3.14433 18.2609 3.35761 17.3729 3.68268C17.2977 3.71019 17.2328 3.76013 17.187 3.82574C17.1411 3.89135 17.1165 3.96947 17.1165 4.04952C17.1165 4.12956 17.1411 4.20768 17.187 4.27329C17.2328 4.3389 17.2977 4.38884 17.3729 4.41635C18.2609 4.74139 18.4741 4.95466 18.7992 5.84266C18.8267 5.91784 18.8766 5.98274 18.9422 6.0286C19.0079 6.07446 19.086 6.09905 19.166 6.09905C19.2461 6.09905 19.3242 6.07446 19.3898 6.0286C19.4554 5.98274 19.5053 5.91784 19.5328 5.84266C19.8579 4.9547 20.0712 4.74142 20.9591 4.41635C21.0343 4.38884 21.0992 4.3389 21.1451 4.27328C21.1909 4.20767 21.2155 4.12955 21.2155 4.0495C21.2155 3.96946 21.1909 3.89134 21.145 3.82573C21.0992 3.76012 21.0343 3.71019 20.9591 3.68268ZM19.166 4.77506C18.9759 4.46393 18.7516 4.23959 18.4405 4.04952C18.7516 3.85944 18.9759 3.63515 19.166 3.32402C19.3561 3.63515 19.5804 3.85944 19.8915 4.04952C19.5804 4.23959 19.3561 4.46393 19.166 4.77506ZM6.62703 11.527C5.73911 11.202 5.52583 10.9887 5.20075 10.1008C5.17324 10.0256 5.12331 9.96067 5.05769 9.91481C4.99208 9.86896 4.91397 9.84436 4.83392 9.84436C4.75387 9.84436 4.67576 9.86896 4.61014 9.91481C4.54453 9.96067 4.49459 10.0256 4.46709 10.1008C4.14205 10.9887 3.92877 11.202 3.04081 11.527C2.96564 11.5545 2.90073 11.6045 2.85487 11.6701C2.80902 11.7357 2.78442 11.8138 2.78442 11.8939C2.78442 11.9739 2.80902 12.052 2.85487 12.1176C2.90073 12.1832 2.96564 12.2332 3.04081 12.2607C3.92873 12.5857 4.14201 12.799 4.46709 13.687C4.49459 13.7622 4.54453 13.8271 4.61014 13.8729C4.67576 13.9188 4.75387 13.9434 4.83392 13.9434C4.91397 13.9434 4.99208 13.9188 5.05769 13.8729C5.12331 13.8271 5.17324 13.7622 5.20075 13.687C5.52579 12.799 5.73907 12.5858 6.62703 12.2607C6.70219 12.2332 6.76708 12.1832 6.81293 12.1176C6.85877 12.052 6.88336 11.9739 6.88335 11.8939C6.88338 11.8138 6.85881 11.7357 6.81296 11.6701C6.76711 11.6045 6.7022 11.5545 6.62703 11.527ZM4.83396 12.6194C4.64388 12.3082 4.41955 12.0839 4.10846 11.8938C4.41955 11.7037 4.64388 11.4794 4.83396 11.1683C5.02403 11.4794 5.24837 11.7037 5.55946 11.8938C5.24837 12.0839 5.02403 12.3083 4.83396 12.6194Z" fill="#667EEA"/>
</svg>
