<svg width="24" height="24" viewBox="0 0 24 24" fill="none" xmlns="http://www.w3.org/2000/svg">
<path d="M12.5409 13.5609C12.5409 13.7487 12.3885 13.9011 12.2008 13.9011C12.013 13.9011 11.8607 13.7487 11.8607 13.5609C11.8607 13.3732 12.013 13.2209 12.2008 13.2209C12.3885 13.2209 12.5409 13.3732 12.5409 13.5609ZM5.74041 10.8408C5.74041 11.0284 5.58809 11.1807 5.40022 11.1807C5.21252 11.1807 5.06023 11.0284 5.06023 10.8408C5.06023 10.6528 5.21255 10.5006 5.40022 10.5006C5.58809 10.5006 5.74041 10.6528 5.74041 10.8408ZM10.8408 12.8808C10.8408 13.0688 10.6885 13.2209 10.5006 13.2209C10.3129 13.2209 10.1606 13.0688 10.1606 12.8808C10.1606 12.6932 10.3129 12.5409 10.5006 12.5409C10.6885 12.5409 10.8408 12.6932 10.8408 12.8808ZM9.14054 12.2008C9.14054 12.3886 8.98822 12.5409 8.80065 12.5409C8.61268 12.5409 8.46046 12.3886 8.46046 12.2008C8.46046 12.013 8.61268 11.8607 8.80065 11.8607C8.98822 11.8607 9.14054 12.013 9.14054 12.2008ZM7.44048 11.5208C7.44048 11.7085 7.28816 11.8607 7.10038 11.8607C6.91261 11.8607 6.76029 11.7085 6.76029 11.5208C6.76029 11.3329 6.91261 11.1807 7.10038 11.1807C7.28816 11.1807 7.44048 11.3329 7.44048 11.5208ZM19.3413 10.8408C19.3413 11.0284 19.189 11.1807 19.0014 11.1807C18.8135 11.1807 18.6612 11.0284 18.6612 10.8408C18.6612 10.6528 18.8135 10.5006 19.0014 10.5006C19.189 10.5006 19.3413 10.6528 19.3413 10.8408ZM14.2409 12.8808C14.2409 13.0688 14.0886 13.2209 13.901 13.2209C13.7131 13.2209 13.5608 13.0688 13.5608 12.8808C13.5608 12.6932 13.7131 12.5409 13.901 12.5409C14.0886 12.5409 14.2409 12.6932 14.2409 12.8808ZM15.9412 12.2008C15.9412 12.3886 15.7889 12.5409 15.601 12.5409C15.4133 12.5409 15.261 12.3886 15.261 12.2008C15.261 12.013 15.4133 11.8607 15.601 11.8607C15.7889 11.8607 15.9412 12.013 15.9412 12.2008ZM17.6413 11.5208C17.6413 11.7085 17.4889 11.8607 17.3012 11.8607C17.1134 11.8607 16.9611 11.7085 16.9611 11.5208C16.9611 11.3329 17.1134 11.1807 17.3012 11.1807C17.4889 11.1807 17.6413 11.3329 17.6413 11.5208Z" fill="#667EEA"/>
<path d="M21.3036 11.754C21.9646 11.5021 22.4015 10.8682 22.4015 10.1606C22.4015 9.45326 21.9646 8.81928 21.3036 8.56727L19.6671 7.92115C19.6745 7.87474 19.6793 7.82761 19.6814 7.78038C19.6839 7.21327 19.3328 6.70453 18.8015 6.50597C18.2703 6.30723 17.6715 6.46065 17.3012 6.89021C17.141 6.69963 16.9302 6.55832 16.693 6.48265C16.4559 6.40698 16.2022 6.40004 15.9612 6.46264L12.5888 5.13373C12.3395 5.03521 12.0621 5.03521 11.8128 5.13373L8.44034 6.46226C8.19938 6.39979 7.94565 6.40683 7.70852 6.48256C7.47139 6.55829 7.26055 6.69961 7.10039 6.89018C6.7301 6.46065 6.13142 6.30723 5.60006 6.50597C5.0688 6.70453 4.71764 7.21327 4.72014 7.78038C4.72234 7.82789 4.7271 7.87522 4.7345 7.92225L3.09809 8.56834C2.43693 8.8203 2.0001 9.45435 2.0001 10.1616C2.0001 10.869 2.43693 11.503 3.09809 11.755L6.08032 12.9291V19.0014H3.02008C2.45674 19.0014 2 19.458 2 20.0213V21.3815C2 21.9448 2.45674 22.4016 3.02008 22.4016H21.3815C21.9448 22.4016 22.4016 21.9448 22.4016 21.3815V20.0213C22.4016 19.458 21.9448 19.0014 21.3815 19.0014H18.3213V12.9291L21.3036 11.754ZM18.3213 7.10039C18.6969 7.10039 19.0014 7.40484 19.0014 7.78038C19.0008 7.85953 18.9861 7.93794 18.9581 8.01199L18.9561 8.01497C18.9209 8.10957 18.8653 8.19521 18.7931 8.26577C18.721 8.33633 18.6341 8.39006 18.5387 8.4231C18.5288 8.4266 18.5189 8.42958 18.5085 8.43229C18.4478 8.4506 18.3847 8.46009 18.3213 8.46046C17.9457 8.46046 17.6413 8.15612 17.6413 7.78038C17.6413 7.40484 17.9457 7.10039 18.3213 7.10039ZM15.6314 7.591C15.6344 7.58054 15.6375 7.57039 15.6409 7.56002C15.6745 7.4636 15.7295 7.376 15.8017 7.30374C15.8738 7.23148 15.9614 7.17641 16.0578 7.14262C16.0598 7.14163 16.0619 7.14053 16.0637 7.13916C16.3432 7.04551 16.6511 7.14283 16.8256 7.38033C17.0003 7.6174 17.0018 7.94045 16.8295 8.17936C16.6572 8.41831 16.3501 8.51853 16.0699 8.42759C15.9333 8.38325 15.8143 8.29669 15.73 8.18038C15.6458 8.06407 15.6006 7.92401 15.601 7.78038C15.6017 7.71611 15.6121 7.65228 15.6314 7.591ZM14.9209 7.78038C14.9209 8.15612 14.6165 8.46046 14.2409 8.46046C13.8654 8.46046 13.5609 8.15612 13.5609 7.78038C13.5609 7.40484 13.8654 7.10039 14.2409 7.10039C14.6165 7.10039 14.9209 7.40484 14.9209 7.78038ZM12.0621 5.76651C12.1513 5.73144 12.2504 5.73144 12.3396 5.76651L14.0486 6.43974C13.7275 6.48561 13.4337 6.64551 13.2209 6.89021C12.9658 6.59214 12.5932 6.42041 12.2008 6.42041C11.8084 6.42041 11.4357 6.59214 11.1807 6.89021C10.9679 6.64551 10.674 6.48561 10.353 6.43974L12.0621 5.76651ZM12.8808 7.7804C12.8808 8.15612 12.5764 8.46046 12.2008 8.46046C11.8252 8.46046 11.5208 8.15612 11.5208 7.78038C11.5208 7.40484 11.8252 7.10039 12.2008 7.10039C12.5764 7.10039 12.8808 7.40486 12.8808 7.7804ZM10.1606 7.10039C10.5362 7.10039 10.8408 7.40484 10.8408 7.78038C10.8408 8.15612 10.5362 8.46046 10.1606 8.46046C9.78506 8.46046 9.48065 8.15612 9.48065 7.78038C9.48065 7.40484 9.78506 7.10039 10.1606 7.10039ZM8.12047 7.10039C8.19448 7.10141 8.2679 7.11434 8.33793 7.13916C8.33964 7.14053 8.34173 7.14163 8.34392 7.14262C8.4403 7.17641 8.52783 7.23148 8.6 7.30374C8.67217 7.376 8.72713 7.4636 8.7608 7.56002C8.76412 7.57039 8.76728 7.58054 8.77026 7.591C8.78956 7.65231 8.7998 7.71611 8.80066 7.78038C8.80066 8.15612 8.49612 8.46046 8.12047 8.46046C7.7449 8.46046 7.44049 8.15612 7.44049 7.78038C7.44049 7.40484 7.7449 7.10039 8.12047 7.10039ZM6.08032 7.10039C6.45588 7.10039 6.7603 7.40484 6.7603 7.78038C6.7603 8.15612 6.45588 8.46046 6.08032 8.46046C6.01679 8.45967 5.95371 8.4497 5.89303 8.43088C5.88267 8.42828 5.87291 8.4252 5.86294 8.4217C5.76759 8.38869 5.68072 8.335 5.60856 8.26448C5.5364 8.19395 5.48073 8.10834 5.44555 8.01377L5.44356 8.01071C5.41564 7.93709 5.40097 7.85911 5.40023 7.78038C5.40023 7.40484 5.70467 7.10039 6.08032 7.10039ZM21.7216 21.3815C21.7216 21.5693 21.5693 21.7216 21.3815 21.7216H3.02008C2.83231 21.7216 2.67998 21.5693 2.67998 21.3815V21.0416H21.7216V21.3815ZM21.3815 19.6814C21.5693 19.6814 21.7216 19.8338 21.7216 20.0213V20.3614H2.67998V20.0213C2.67998 19.8338 2.83231 19.6814 3.02008 19.6814H21.3815ZM6.7603 19.0014V13.197L11.8128 15.1876C12.062 15.2863 12.3395 15.2863 12.5888 15.1876L17.6413 13.197V19.0014H6.7603ZM12.3395 14.5548C12.2504 14.5899 12.1513 14.5899 12.0621 14.5548L3.34722 11.1205C2.94587 10.971 2.67988 10.5878 2.67988 10.1596C2.67985 9.9505 2.74376 9.74638 2.86304 9.57463C2.98232 9.40287 3.15127 9.2717 3.34722 9.1987L4.96958 8.55957C4.97794 8.57122 4.9885 8.58157 4.99737 8.59343C5.02512 8.63104 5.05485 8.66715 5.08643 8.70161C5.11109 8.72794 5.13675 8.75333 5.16334 8.77771C5.19721 8.80869 5.23138 8.83759 5.26973 8.86508C5.30393 8.89102 5.3394 8.91523 5.37603 8.93761C5.41761 8.96321 5.46054 8.98655 5.50463 9.00753C5.52993 9.01949 5.55462 9.03176 5.58053 9.04171C5.6468 9.06781 5.71497 9.08882 5.78444 9.10457C5.80349 9.10865 5.8229 9.11163 5.84202 9.11543C5.92052 9.13086 6.00021 9.13933 6.08032 9.14053C6.17613 9.14027 6.27165 9.12975 6.36522 9.10916C6.39621 9.10278 6.42439 9.09021 6.45428 9.08164C6.51396 9.06591 6.5725 9.04614 6.6295 9.02248C6.66347 9.00753 6.69305 8.98861 6.72534 8.97058C6.77406 8.94536 6.82116 8.91714 6.86639 8.88609C6.89806 8.8637 6.92596 8.838 6.95526 8.81308C6.99571 8.77987 7.0342 8.74435 7.07053 8.70669C7.07976 8.69674 7.09152 8.68927 7.10039 8.67919C7.10927 8.68927 7.1211 8.69674 7.13028 8.70669C7.16662 8.74437 7.20513 8.7799 7.24563 8.81308C7.27483 8.838 7.30273 8.8637 7.33437 8.88609C7.37962 8.91712 7.42674 8.94534 7.47545 8.97058C7.50774 8.98792 7.53762 9.00756 7.57139 9.02248C7.62836 9.04614 7.68686 9.06591 7.74651 9.08164C7.7764 9.09021 7.80458 9.10278 7.83556 9.10916C8.0724 9.16135 8.31898 9.1481 8.54887 9.07085C8.77876 8.9936 8.98329 8.85525 9.14055 8.67063C9.26655 8.81798 9.42298 8.93629 9.59908 9.0174C9.77517 9.09852 9.96675 9.14052 10.1606 9.14052C10.3545 9.14052 10.5461 9.09852 10.7222 9.0174C10.8983 8.93629 11.0547 8.81798 11.1807 8.67063C11.4357 8.9688 11.8084 9.14053 12.2008 9.14053C12.5932 9.14053 12.9658 8.9688 13.2209 8.67063C13.3469 8.81798 13.5033 8.93629 13.6794 9.0174C13.8555 9.09852 14.0471 9.14052 14.2409 9.14052C14.4348 9.14052 14.6264 9.09852 14.8025 9.0174C14.9786 8.93629 15.135 8.81798 15.261 8.67063C15.4183 8.85524 15.6228 8.99359 15.8527 9.07084C16.0826 9.14809 16.3292 9.16134 16.566 9.10916C16.597 9.10278 16.6252 9.09021 16.6551 9.08164C16.7147 9.06591 16.7733 9.04614 16.8303 9.02248C16.8643 9.00753 16.8938 8.98861 16.9261 8.97058C16.9748 8.94536 17.0219 8.91714 17.0672 8.88609C17.0988 8.8637 17.1267 8.838 17.156 8.81308C17.1965 8.77987 17.235 8.74435 17.2713 8.70669C17.2805 8.69674 17.2923 8.68927 17.3012 8.67919C17.3101 8.68927 17.3219 8.69674 17.3311 8.70669C17.3674 8.74437 17.4059 8.7799 17.4464 8.81308C17.4756 8.838 17.5035 8.8637 17.5352 8.88609C17.5804 8.91712 17.6275 8.94534 17.6762 8.97058C17.7085 8.98792 17.7384 9.00756 17.7722 9.02248C17.8291 9.04614 17.8877 9.06591 17.9473 9.08164C17.9772 9.09021 18.0054 9.10278 18.0364 9.10916C18.1299 9.12975 18.2254 9.14026 18.3213 9.14053C18.4018 9.13973 18.4822 9.13166 18.5613 9.11643C18.5803 9.11263 18.5998 9.10954 18.6187 9.10546C18.6877 9.08979 18.7554 9.06881 18.8211 9.04273C18.847 9.03245 18.8716 9.02028 18.8969 9.00863C18.941 8.98755 18.9839 8.96418 19.0255 8.9386C19.0622 8.9162 19.0977 8.89199 19.1319 8.86607C19.1685 8.83858 19.2044 8.80979 19.2382 8.77881C19.2648 8.7544 19.2905 8.72902 19.3153 8.70271C19.3467 8.66821 19.3764 8.6321 19.4042 8.59453C19.4131 8.58298 19.4236 8.5727 19.432 8.56036L21.0544 9.19969C21.4557 9.34923 21.7217 9.73255 21.7217 10.1606C21.7217 10.3697 21.6578 10.5738 21.5385 10.7455C21.4192 10.9173 21.2503 11.0484 21.0544 11.1214L12.3395 14.5548ZM22.0615 4.04016H21.1822L21.622 3.60066C21.6653 3.55867 21.6968 3.50592 21.7131 3.44781C21.7293 3.3897 21.7299 3.3283 21.7147 3.2699C21.6994 3.21148 21.6688 3.15818 21.6261 3.1155C21.5834 3.07281 21.5301 3.04228 21.4717 3.02704C21.4133 3.01176 21.352 3.01229 21.2939 3.02857C21.2358 3.04485 21.1831 3.0763 21.1412 3.11969L20.7014 3.55932V2.34007C20.7014 2.15222 20.5492 2 20.3614 2C20.1736 2 20.0213 2.15222 20.0213 2.34009V3.55932L19.5818 3.11969C19.4484 2.99098 19.2362 2.99269 19.105 3.12377C18.9741 3.25508 18.9722 3.46695 19.1011 3.60066L19.5406 4.04016H18.6613C18.4736 4.04016 18.3213 4.19238 18.3213 4.38025C18.3213 4.56795 18.4736 4.72014 18.6613 4.72014H19.5406L19.1011 5.15985C19.0576 5.20177 19.0261 5.25449 19.0098 5.31261C18.9935 5.37073 18.993 5.43214 19.0082 5.49054C19.0235 5.54894 19.0541 5.60222 19.0967 5.64491C19.1394 5.6876 19.1927 5.71815 19.2511 5.73344C19.3095 5.7487 19.3709 5.74816 19.429 5.73188C19.4871 5.71561 19.5399 5.68418 19.5818 5.64081L20.0213 5.20101V6.42041C20.0213 6.6081 20.1736 6.7603 20.3614 6.7603C20.5492 6.7603 20.7014 6.60808 20.7014 6.42041V5.20101L21.1412 5.64081C21.2745 5.76952 21.4866 5.76781 21.6177 5.63653C21.749 5.50542 21.7509 5.29335 21.622 5.15985L21.1822 4.72014H22.0615C22.2495 4.72014 22.4016 4.56792 22.4016 4.38025C22.4016 4.19238 22.2495 4.04016 22.0615 4.04016ZM2.34009 4.72014H3.21933L2.7796 5.15985C2.73624 5.20181 2.70482 5.25453 2.68852 5.31263C2.67223 5.37072 2.67166 5.43209 2.68687 5.49048C2.70214 5.54888 2.73269 5.60216 2.77536 5.64486C2.81803 5.68755 2.8713 5.71812 2.92969 5.73343C2.98808 5.74873 3.0495 5.74822 3.10763 5.73194C3.16575 5.71567 3.2185 5.68421 3.26046 5.64081L3.70027 5.20101V6.42041C3.70027 6.6081 3.85239 6.7603 4.04016 6.7603C4.22793 6.7603 4.38025 6.60808 4.38025 6.42041V5.20101L4.81975 5.64081C4.95313 5.76952 5.16533 5.76781 5.29664 5.63653C5.42762 5.50542 5.42943 5.29335 5.30062 5.15985L4.86099 4.72014H5.74042C5.92799 4.72014 6.08032 4.56792 6.08032 4.38025C6.08032 4.19238 5.92799 4.04016 5.74042 4.04016H4.86101L5.30062 3.60066C5.34401 3.55869 5.37546 3.50595 5.39175 3.44783C5.40805 3.38971 5.4086 3.3283 5.39334 3.2699C5.37807 3.2115 5.34752 3.15822 5.30484 3.11554C5.26216 3.07286 5.20888 3.04231 5.15049 3.02704C5.0921 3.01177 5.03069 3.0123 4.97257 3.02858C4.91446 3.04486 4.86171 3.07631 4.81975 3.11969L4.38025 3.55932V2.34007C4.38025 2.15222 4.22793 2 4.04016 2C3.85239 2 3.70027 2.15222 3.70027 2.34009V3.55932L3.26046 3.11969C3.12708 2.99098 2.91499 2.99269 2.78388 3.12377C2.6526 3.25508 2.65081 3.46695 2.7796 3.60066L3.2193 4.04016H2.34012C2.15225 4.04016 2.00003 4.19238 2.00003 4.38025C2.00003 4.56795 2.15222 4.72014 2.34009 4.72014Z" fill="#667EEA"/>
<path d="M15.601 9.82054H8.80066C8.61269 9.82054 8.46046 9.97286 8.46046 10.1606C8.46046 10.3484 8.61269 10.5006 8.80066 10.5006H15.601C15.7889 10.5006 15.9412 10.3484 15.9412 10.1606C15.9412 9.97286 15.7889 9.82054 15.601 9.82054ZM13.9011 11.1807H10.5006C10.3129 11.1807 10.1606 11.3329 10.1606 11.5208C10.1606 11.7085 10.313 11.8607 10.5006 11.8607H13.9011C14.0886 11.8607 14.2409 11.7085 14.2409 11.5208C14.2409 11.3329 14.0886 11.1807 13.9011 11.1807Z" fill="#667EEA"/>
</svg>
