<svg width="24" height="24" viewBox="0 0 24 24" fill="none" xmlns="http://www.w3.org/2000/svg">
<path d="M11.5849 4.02797C11.8946 3.97264 12.2089 4.00926 12.5173 4.05291C12.969 4.14123 13.3932 4.35086 13.7504 4.63921C14.0868 4.92262 14.3489 5.2876 14.5263 5.68921C15.0025 5.20369 15.6846 4.92496 16.3647 4.94704C18.6071 4.946 20.8494 4.94704 23.0918 4.94652C23.2726 4.93665 23.4471 5.06861 23.4853 5.24578C23.5157 5.36267 23.4833 5.49308 23.4051 5.58478C22.9221 6.07211 22.459 6.57944 21.9802 7.07093C21.8721 7.1577 21.7594 7.2668 21.6119 7.26888C21.4822 7.27251 21.3526 7.2681 21.2232 7.27018C20.8383 7.67464 20.453 8.07859 20.0686 8.48357C19.9576 8.5841 19.8485 8.71658 19.6888 8.72879C19.5287 8.73555 19.3685 8.72749 19.2087 8.73165C19.177 8.77971 19.1448 8.82803 19.1045 8.86933C18.7655 9.22236 18.4302 9.57903 18.0912 9.9318C17.9665 10.0508 17.8257 10.1913 17.6374 10.1695C16.9752 10.1674 16.313 10.171 15.6509 10.1677C16.4476 11.0021 16.9929 12.0661 17.2357 13.1919C17.2698 13.3553 17.3298 13.5405 17.2246 13.6915C17.1422 13.8725 16.9716 13.9822 16.8289 14.1113C16.9718 14.3897 17.056 14.6989 17.0591 15.0127C17.0685 15.4899 16.9004 15.9697 16.591 16.3339C16.3767 16.5903 16.0961 16.7895 15.7867 16.9145C15.9026 17.3093 16.0174 17.7044 16.1348 18.0988C16.1748 18.226 16.1676 18.3666 16.1239 18.492C16.0824 18.6061 15.9753 18.6728 15.8839 18.7438C15.1212 19.3251 14.2136 19.7026 13.2745 19.8836C12.8721 19.965 12.4609 19.987 12.0517 20.0039C11.5834 20.0034 11.1137 19.9725 10.6524 19.8888C9.67224 19.7021 8.72433 19.3038 7.93878 18.683C7.86319 18.6209 7.78084 18.5645 7.72161 18.4858C7.66005 18.3996 7.63459 18.2863 7.65849 18.1827C7.80292 17.7577 7.91566 17.3223 8.04763 16.8932C7.60653 16.7266 7.22831 16.3973 7.00283 15.9832C6.67993 15.4054 6.67655 14.669 6.98724 14.0853C6.88956 13.9983 6.78514 13.9185 6.69448 13.8242C6.60122 13.6972 6.49913 13.5468 6.53757 13.3805C6.76487 12.1287 7.36183 10.9369 8.26791 10.0386C7.62342 10.0388 6.97893 10.0396 6.33443 10.0383C6.16688 10.0401 6.0492 9.9066 5.93464 9.80347C5.59486 9.45018 5.25872 9.09299 4.9192 8.73944C4.87893 8.69788 4.84646 8.64956 4.81503 8.60151C4.65527 8.59787 4.49525 8.60566 4.33549 8.59891C4.18716 8.58982 4.08403 8.47032 3.98012 8.37836C3.58657 7.96636 3.19431 7.55307 2.80102 7.14055C2.60385 7.12159 2.37889 7.19147 2.20588 7.06652C2.13964 7.01924 2.07314 6.97196 2.01573 6.91403C1.59724 6.47605 1.18108 6.036 0.762333 5.59803C0.68622 5.51854 0.589065 5.45048 0.552438 5.34189C0.48178 5.16629 0.565166 4.94938 0.7322 4.86287C0.832471 4.80494 0.951707 4.81689 1.06289 4.81637C3.33095 4.81741 5.60006 4.81611 7.86786 4.81715C8.47781 4.8582 9.07035 5.12135 9.49819 5.55984C9.63483 5.27565 9.8268 5.02133 10.0427 4.793C10.2081 4.63272 10.4017 4.50595 10.5962 4.38463C10.8887 4.18357 11.2397 4.09005 11.5849 4.02797ZM11.7265 4.79793C11.4839 4.83404 11.2413 4.90262 11.0324 5.03484C10.8394 5.1546 10.636 5.27149 10.4955 5.45515C10.1388 5.85442 9.96188 6.40384 10.0102 6.93637C10.0437 7.32836 10.2014 7.70789 10.4484 8.01338C10.7911 8.42772 11.3054 8.69996 11.8442 8.73113C12.1881 8.75373 12.5406 8.69554 12.8492 8.53812C13.2922 8.32823 13.6462 7.94272 13.8242 7.48657C14.0016 7.04132 14.0076 6.53113 13.8418 6.08146C13.6997 5.70583 13.4504 5.36423 13.1158 5.13849C12.9072 5.00731 12.6871 4.88314 12.4424 4.83612C12.2068 4.79403 11.9652 4.75767 11.7265 4.79793ZM1.83207 5.59387C2.07963 5.84715 2.31966 6.10744 2.56593 6.36176C3.90063 6.36201 5.23508 6.3615 6.56979 6.36202C6.7789 6.35474 6.96594 6.54308 6.95996 6.75167C6.9649 6.95897 6.77942 7.14575 6.57186 7.13977C5.67331 7.14029 4.77476 7.13977 3.87621 7.13977C4.08221 7.35668 4.28795 7.57333 4.49421 7.78972C4.51681 7.82271 4.55734 7.82271 4.59344 7.82297C5.5811 7.82219 6.56901 7.82297 7.55666 7.82271C7.75824 7.8118 7.9458 7.98065 7.95671 8.18197C7.97853 8.39421 7.79695 8.60021 7.58264 8.59995C7.00958 8.60203 6.43652 8.60047 5.86347 8.60073C6.05492 8.80049 6.24559 9.00077 6.43548 9.2021C6.46458 9.23119 6.49601 9.26912 6.54277 9.26107C7.41768 9.26081 8.29259 9.26081 9.16724 9.26107C9.22777 9.26652 9.27868 9.23041 9.32778 9.2008C9.5782 9.03844 9.85278 8.91921 10.1242 8.79685C9.48962 8.23393 9.16101 7.36162 9.23011 6.5197C8.98358 6.01132 8.45677 5.6518 7.89332 5.60582C7.72889 5.60348 7.56471 5.5866 7.40002 5.59465C5.54421 5.59439 3.68814 5.59595 1.83207 5.59387ZM15.6111 5.87027C15.2288 6.03262 14.9272 6.3524 14.7503 6.7244C14.7354 6.76674 14.7406 6.81298 14.7378 6.85714C14.7183 7.62113 14.3549 8.36329 13.7761 8.85946C14.0548 8.98519 14.3318 9.11715 14.5869 9.28704C14.6567 9.32497 14.718 9.39485 14.8035 9.39095C15.6958 9.39043 16.5881 9.39069 17.4804 9.39095C17.5288 9.39926 17.5607 9.35926 17.5914 9.32913C17.7802 9.12884 17.9699 8.92934 18.1605 8.73061C17.5867 8.73035 17.0129 8.73217 16.4393 8.72983C16.2346 8.72853 16.059 8.53968 16.0663 8.33628C16.0644 8.13703 16.2382 7.95545 16.4385 7.95363C17.4597 7.94948 18.4811 7.95675 19.5023 7.95C19.7158 7.72192 19.9332 7.49696 20.1478 7.26966C19.2498 7.26966 18.3515 7.27018 17.4537 7.26966C17.3152 7.27199 17.1802 7.1925 17.1139 7.07145C17.0279 6.92416 17.056 6.72336 17.1783 6.6049C17.2563 6.52463 17.3695 6.48645 17.4802 6.49138C18.8061 6.49216 20.1319 6.49138 21.4578 6.49164C21.7041 6.23732 21.9441 5.97703 22.1917 5.72402C20.2582 5.72609 18.3244 5.7235 16.391 5.72506C16.1247 5.72635 15.8548 5.75545 15.6111 5.87027ZM11.0698 9.36238C10.2128 12.2845 9.3535 15.2059 8.49573 18.1276C9.38181 18.7934 10.4788 19.1628 11.5834 19.2114C11.9907 19.2464 12.3996 19.2121 12.8051 19.1708C13.714 19.0487 14.6014 18.7173 15.3443 18.1754C14.4876 15.2514 13.6267 12.3287 12.7698 9.40498C12.2162 9.5637 11.6143 9.55097 11.0698 9.36238ZM8.60432 10.8129C7.9697 11.5309 7.53588 12.4194 7.33585 13.3553C7.76941 13.7445 8.27545 14.0539 8.82097 14.2598C9.27323 12.715 9.72783 11.1706 10.1814 9.62604C9.57768 9.9014 9.04593 10.3204 8.60432 10.8129ZM13.6569 9.66293C14.1078 11.2018 14.5609 12.7399 15.0118 14.2788C15.5514 14.0746 16.0509 13.766 16.4803 13.3813C16.3286 12.668 16.0392 11.9848 15.6319 11.38C15.1355 10.6524 14.4588 10.0357 13.6569 9.66293ZM7.63277 14.5425C7.50808 14.8339 7.50263 15.1737 7.61978 15.4686C7.73486 15.7683 7.97879 16.0086 8.26661 16.1453C8.3765 15.766 8.49054 15.3883 8.5999 15.009C8.26402 14.8836 7.93774 14.7311 7.63277 14.5425ZM15.2329 15.0293C15.3428 15.4075 15.4553 15.785 15.5657 16.1632C15.828 16.0341 16.0533 15.8195 16.1725 15.5504C16.3133 15.2436 16.3164 14.8786 16.1834 14.5685C15.8834 14.7542 15.5626 14.9041 15.2329 15.0293Z" fill="#667EEA" stroke="#667EEA" stroke-width="0.048128"/>
</svg>
