<svg width="24" height="24" viewBox="0 0 24 24" fill="none" xmlns="http://www.w3.org/2000/svg">
<path d="M13.5 10.875H10.5C10.4005 10.875 10.3052 10.9145 10.2348 10.9848C10.1645 11.0552 10.125 11.1505 10.125 11.25V12.75C10.125 12.8495 10.1645 12.9448 10.2348 13.0152C10.3052 13.0855 10.4005 13.125 10.5 13.125H13.5C13.5995 13.125 13.6948 13.0855 13.7652 13.0152C13.8355 12.9448 13.875 12.8495 13.875 12.75V11.25C13.875 11.1505 13.8355 11.0552 13.7652 10.9848C13.6948 10.9145 13.5995 10.875 13.5 10.875ZM10.875 11.625H11.625V12.375H10.875V11.625ZM13.125 12.375H12.375V11.625H13.125V12.375ZM13.5 15.375H10.5C10.4005 15.375 10.3052 15.4145 10.2348 15.4848C10.1645 15.5552 10.125 15.6505 10.125 15.75V17.25C10.125 17.3495 10.1645 17.4448 10.2348 17.5152C10.3052 17.5855 10.4005 17.625 10.5 17.625H13.5C13.5995 17.625 13.6948 17.5855 13.7652 17.5152C13.8355 17.4448 13.875 17.3495 13.875 17.25V15.75C13.875 15.6505 13.8355 15.5552 13.7652 15.4848C13.6948 15.4145 13.5995 15.375 13.5 15.375ZM10.875 16.125H11.625V16.875H10.875V16.125ZM13.125 16.875H12.375V16.125H13.125V16.875ZM13.5 19.875H10.5C10.4005 19.875 10.3052 19.9145 10.2348 19.9848C10.1645 20.0552 10.125 20.1505 10.125 20.25V21.75C10.125 21.8495 10.1645 21.9448 10.2348 22.0152C10.3052 22.0855 10.4005 22.125 10.5 22.125H13.5C13.5995 22.125 13.6948 22.0855 13.7652 22.0152C13.8355 21.9448 13.875 21.8495 13.875 21.75V20.25C13.875 20.1505 13.8355 20.0552 13.7652 19.9848C13.6948 19.9145 13.5995 19.875 13.5 19.875ZM10.875 20.625H11.625V21.375H10.875V20.625ZM13.125 21.375H12.375V20.625H13.125V21.375ZM10.125 8.625H10.875V9.375H10.125V8.625ZM10.875 9.375H11.625V10.125H10.875V9.375ZM11.625 8.625H12.375V9.375H11.625V8.625ZM12.375 9.375H13.125V10.125H12.375V9.375ZM13.125 8.625H13.875V9.375H13.125V8.625Z" fill="#667EEA"/>
<path d="M15 5.625V4.875H14.25V5.625H13.875V2.625C13.875 2.52555 13.8355 2.43016 13.7652 2.35984C13.6948 2.28951 13.5995 2.25 13.5 2.25V1.5C13.5 1.43828 13.4848 1.37751 13.4557 1.32308C13.4266 1.26866 13.3845 1.22226 13.3331 1.188L12.2081 0.438003C12.1465 0.396888 12.0741 0.374947 12 0.374947C11.9259 0.374947 11.8535 0.396888 11.7919 0.438003L10.6669 1.188C10.6155 1.22226 10.5734 1.26866 10.5443 1.32308C10.5152 1.37751 10.5 1.43828 10.5 1.5V2.25C10.4005 2.25 10.3052 2.28951 10.2348 2.35984C10.1645 2.43016 10.125 2.52555 10.125 2.625V5.625H9.75V4.875H9V5.625C8.90054 5.625 8.80516 5.66451 8.73483 5.73484C8.66451 5.80516 8.625 5.90055 8.625 6V23.25C8.625 23.3495 8.66451 23.4448 8.73483 23.5152C8.80516 23.5855 8.90054 23.625 9 23.625H15C15.0995 23.625 15.1948 23.5855 15.2652 23.5152C15.3355 23.4448 15.375 23.3495 15.375 23.25V6C15.375 5.90055 15.3355 5.80516 15.2652 5.73484C15.1948 5.66451 15.0995 5.625 15 5.625ZM14.625 7.125H9.375V6.375H14.625V7.125ZM11.25 1.70063L12 1.2L12.75 1.69988V2.25H11.25V1.70063ZM10.875 3H13.125V5.625H10.875V3ZM9.375 22.875V7.875H14.625V22.875H9.375Z" fill="#667EEA"/>
<path d="M11.625 3.75H12.375V4.87462H11.625V3.75Z" fill="#667EEA"/>
</svg>
