<svg width="24" height="24" viewBox="0 0 24 24" fill="none" xmlns="http://www.w3.org/2000/svg">
<path fill-rule="evenodd" clip-rule="evenodd" d="M20.9316 9.88061H6.27186L20.3527 5.80159C20.4621 5.76979 20.5545 5.69591 20.6095 5.59615C20.6368 5.54674 20.654 5.49244 20.6602 5.43637C20.6665 5.38029 20.6616 5.32353 20.6459 5.26933L19.9091 2.72563C19.6147 1.70967 18.6687 1 17.6085 1C17.3852 1 17.1626 1.03171 16.9468 1.09414L3.72631 4.92395C3.11486 5.10098 2.60809 5.50751 2.2991 6.06829C1.99024 6.62904 1.91775 7.27477 2.09483 7.88609L2.81473 10.3712V20.6087C2.81468 21.9273 3.88744 23 5.20585 23H10.3691C10.6065 23 10.7988 22.8076 10.7988 22.5703C10.7988 22.333 10.6065 22.1406 10.3691 22.1406H5.20602C4.36126 22.1406 3.6741 21.4535 3.6741 20.6087V14.7613H20.5019V20.6087C20.5019 21.4535 19.8148 22.1406 18.97 22.1406H13.8067C13.5695 22.1406 13.377 22.333 13.377 22.5703C13.377 22.8076 13.5695 23 13.8067 23H18.97C20.2886 23 21.3613 21.9273 21.3613 20.6087V10.3103C21.3613 10.0729 21.1689 9.88061 20.9316 9.88061ZM13.3548 13.9019L15.1805 10.74H17.555L15.7295 13.9019H13.3548ZM9.9878 13.9019L11.8135 10.74H14.188L12.3625 13.9019H9.9878ZM6.62098 13.9019L8.44647 10.74H10.8212L8.99552 13.9019H6.62098ZM8.21856 8.33928L5.16138 5.40297L7.452 4.73944C7.46848 4.76341 7.48737 4.78562 7.50838 4.80574L10.5656 7.74205L8.27494 8.40558C8.25845 8.38162 8.23956 8.3594 8.21856 8.33928ZM13.9764 2.93209L17.0335 5.86836L14.7429 6.53184C14.7264 6.50784 14.7075 6.48562 14.6865 6.46554L11.6293 3.52923L13.9199 2.86575C13.9364 2.88971 13.9553 2.91193 13.9763 2.93205L13.9764 2.93209ZM10.7423 3.86902L13.7994 6.80516L11.5089 7.46882C11.4924 7.44482 11.4735 7.4226 11.4524 7.40252L8.39529 4.4662L10.6859 3.80272C10.7022 3.82605 10.721 3.84836 10.7423 3.86902ZM17.1859 1.91962C17.3239 1.87966 17.4661 1.85938 17.6086 1.85938C18.2885 1.85938 18.8949 2.3139 19.0836 2.96483L19.7009 5.09565L17.977 5.59495C17.9604 5.57103 17.9415 5.54884 17.9204 5.52869L14.8634 2.59251L17.1859 1.91962ZM3.05187 6.4829C3.24996 6.12316 3.57437 5.86269 3.96547 5.74942L4.21791 5.6762C4.23447 5.70013 4.25337 5.72234 4.27433 5.7425L7.33147 8.67882L3.53763 9.77787L2.9203 7.64705C2.80699 7.25616 2.85383 6.84276 3.05187 6.4829ZM3.67406 10.74H7.45419L5.62866 13.9019H3.6741L3.67406 10.74ZM16.7218 13.9019L18.5473 10.74H20.5019V13.9019H16.7218Z" fill="#667EEA"/>
<path fill-rule="evenodd" clip-rule="evenodd" d="M15.0592 18.4072C15.0592 18.3318 15.0393 18.2577 15.0016 18.1924C14.9639 18.127 14.9097 18.0728 14.8443 18.0351L11.0693 15.8556C11.0039 15.8179 10.9299 15.7981 10.8544 15.7981C10.779 15.7981 10.7049 15.8179 10.6396 15.8556C10.5743 15.8933 10.52 15.9475 10.4823 16.0129C10.4446 16.0782 10.4247 16.1523 10.4247 16.2277V20.5867C10.4248 20.6621 10.4446 20.7362 10.4823 20.8015C10.52 20.8668 10.5743 20.921 10.6396 20.9586C10.7049 20.9964 10.779 21.0163 10.8544 21.0163C10.9299 21.0163 11.004 20.9964 11.0693 20.9586L14.8443 18.7793C14.9097 18.7416 14.9639 18.6874 15.0016 18.6221C15.0393 18.5567 15.0592 18.4826 15.0592 18.4072ZM11.2841 19.8425V16.9719L13.7701 18.4072L11.2841 19.8425ZM12.0879 22.1406C11.8513 22.1406 11.6582 22.3336 11.6582 22.5703C11.6582 22.807 11.8513 23 12.0879 23C12.3248 23 12.5176 22.807 12.5176 22.5703C12.5176 22.3336 12.3248 22.1406 12.0879 22.1406Z" fill="#667EEA"/>
</svg>
