<svg width="24" height="24" viewBox="0 0 24 24" fill="none" xmlns="http://www.w3.org/2000/svg">
<g clip-path="url(#clip0_144_34618)">
<path d="M0.448778 6.6276C0.440149 6.67499 0.435061 6.72296 0.433554 6.77111V7.75814C0.434146 7.95683 0.495212 8.15063 0.608631 8.31377C0.72205 8.47691 0.882447 8.60165 1.06849 8.67141V10.1237C1.07023 10.6099 1.45258 11.0095 1.93815 11.0325V19.4226C1.45262 19.4457 1.07023 19.8454 1.06849 20.3314V21.7794C0.881961 21.851 0.721473 21.9774 0.608142 22.1419C0.494811 22.3064 0.433946 22.5014 0.433554 22.7012V23.6667C0.433554 23.8467 0.579744 23.9927 0.75975 23.9927H22.7537C22.8402 23.9927 22.9231 23.9583 22.9842 23.8972C23.0453 23.8361 23.0797 23.7532 23.0797 23.6667V22.7012C23.0794 22.5014 23.0186 22.3065 22.9052 22.1419C22.7919 21.9774 22.6315 21.851 22.445 21.7794V20.3229C22.4432 19.8366 22.0607 19.437 21.5753 19.414V11.0325C22.0607 11.0095 22.4433 10.6099 22.445 10.1237V8.67141C22.631 8.60162 22.7913 8.47687 22.9047 8.31373C23.0181 8.1506 23.0792 7.95681 23.0798 7.75814V6.7776C23.0783 6.72945 23.0733 6.68148 23.0645 6.63409C23.1035 6.65137 23.1455 6.6608 23.1881 6.66185C23.2307 6.6629 23.2731 6.65554 23.3129 6.6402C23.3527 6.62485 23.3891 6.60183 23.4199 6.57243C23.4508 6.54303 23.4756 6.50784 23.4928 6.46886C23.5277 6.39017 23.5299 6.30085 23.499 6.22053C23.468 6.14021 23.4064 6.07547 23.3278 6.04053L11.9067 0.0377579C11.8598 0.0129956 11.8076 5.34058e-05 11.7545 5.34058e-05C11.7015 5.34058e-05 11.6492 0.0129956 11.6023 0.0377579L0.181448 6.03403C0.104941 6.0744 0.0475874 6.14349 0.0219879 6.22612C-0.0036116 6.30875 0.00463673 6.39816 0.0449208 6.47471C0.082 6.54508 0.143529 6.59947 0.217921 6.62763C0.292313 6.65579 0.374394 6.65578 0.448778 6.6276ZM1.72076 9.2366V8.73433H5.48197V9.23229L1.72076 9.2366ZM10.0956 11.0347V19.4226C9.61002 19.4457 9.22764 19.8454 9.22594 20.3314V21.7185H6.12978V20.3314C6.12803 19.8454 5.74573 19.4457 5.26011 19.4226V11.0325C5.74569 11.0095 6.12807 10.6099 6.12978 10.1237V8.73433H9.22151V10.1216C9.22232 10.6086 9.60495 11.0092 10.0913 11.0325L10.0956 11.0347ZM9.87817 9.2366V8.73433H13.6396V9.23229L9.87817 9.2366ZM18.2532 11.0347V19.4226C17.7676 19.4457 17.3851 19.8454 17.3833 20.3314V21.7185H14.2874V20.3314C14.2856 19.8454 13.9031 19.4457 13.4177 19.4226V11.0325C13.9031 11.0095 14.2856 10.6099 14.2874 10.1237V8.73433H17.3791V10.1216C17.3797 10.6086 17.7624 11.0092 18.2487 11.0325L18.2532 11.0347ZM18.0358 9.2366V8.73433H21.797V9.23229L18.0358 9.2366ZM21.797 21.2207V21.7185H18.0313V21.2208L21.797 21.2207ZM13.6396 21.2207V21.7185H9.8739V21.2208L13.6396 21.2207ZM10.4174 10.3868H10.1348C10.1005 10.3868 10.0666 10.3801 10.0349 10.367C10.0033 10.3539 9.9745 10.3346 9.95028 10.3104C9.92605 10.2862 9.90683 10.2574 9.89373 10.2258C9.88062 10.1941 9.87389 10.1602 9.8739 10.1259V9.88882H13.6351V10.1259C13.6351 10.1602 13.6284 10.1941 13.6153 10.2258C13.6022 10.2574 13.583 10.2862 13.5588 10.3104C13.5345 10.3346 13.5058 10.3538 13.4741 10.3669C13.4425 10.3801 13.4085 10.3868 13.3743 10.3868H10.4174ZM12.7677 11.039V19.4183H10.7435V11.039H12.7677ZM10.4174 20.0706H13.3743C13.4085 20.0705 13.4425 20.0773 13.4741 20.0904C13.5058 20.1035 13.5345 20.1227 13.5587 20.1469C13.583 20.1711 13.6022 20.1999 13.6153 20.2316C13.6284 20.2632 13.6351 20.2971 13.6351 20.3314V20.5685H9.87394V20.3314C9.87393 20.2971 9.88067 20.2632 9.89378 20.2315C9.90689 20.1999 9.9261 20.1711 9.95033 20.1469C9.97456 20.1227 10.0033 20.1035 10.035 20.0904C10.0666 20.0773 10.1006 20.0705 10.1348 20.0706H10.4174ZM5.47771 21.2207V21.7185H1.71629V21.2208L5.47771 21.2207ZM1.71629 10.1324V9.88882H5.47771V10.1259C5.47772 10.1602 5.47098 10.1941 5.45786 10.2258C5.44474 10.2575 5.42551 10.2862 5.40127 10.3105C5.37703 10.3347 5.34824 10.3539 5.31657 10.367C5.28489 10.3801 5.25095 10.3868 5.21667 10.3868H1.97067C1.90223 10.3851 1.8372 10.3566 1.78961 10.3073C1.74202 10.2581 1.71569 10.1922 1.71629 10.1237V10.1324ZM4.60805 11.0455V19.4183H2.58596V11.039L4.60805 11.0455ZM1.71633 20.3381C1.7163 20.3038 1.72302 20.2699 1.73612 20.2382C1.74921 20.2065 1.76842 20.1777 1.79265 20.1535C1.81687 20.1293 1.84564 20.11 1.8773 20.0969C1.90896 20.0838 1.9429 20.077 1.97717 20.077H5.21667C5.25096 20.077 5.28492 20.0838 5.3166 20.0969C5.34828 20.11 5.37707 20.1292 5.40132 20.1534C5.42556 20.1777 5.44479 20.2065 5.4579 20.2382C5.471 20.2698 5.47774 20.3038 5.47771 20.3381V20.575H1.71629L1.71633 20.3381ZM22.4275 22.7144V23.3535H1.08152V22.7144C1.0815 22.6702 1.09021 22.6263 1.10713 22.5854C1.12406 22.5445 1.14887 22.5074 1.18016 22.4761C1.21145 22.4447 1.2486 22.4199 1.28949 22.403C1.33038 22.386 1.37421 22.3773 1.41847 22.3773H22.0905C22.274 22.3773 22.424 22.5243 22.4275 22.7077V22.7144ZM21.7927 20.3381V20.575H18.0313V20.3381C18.0313 20.3038 18.038 20.2699 18.0511 20.2382C18.0642 20.2065 18.0834 20.1777 18.1076 20.1535C18.1319 20.1292 18.1606 20.11 18.1923 20.0969C18.224 20.0838 18.2579 20.077 18.2922 20.077H21.5383C21.6053 20.0787 21.669 20.106 21.7164 20.1534C21.7637 20.2007 21.7911 20.2645 21.7927 20.3314V20.3381ZM18.901 19.4248V11.039H20.9251V19.4183L18.901 19.4248ZM21.7927 10.1324C21.7927 10.1667 21.786 10.2006 21.7729 10.2323C21.7598 10.2639 21.7406 10.2927 21.7164 10.3169C21.6921 10.3411 21.6634 10.3604 21.6317 10.3735C21.6 10.3866 21.5661 10.3933 21.5319 10.3933H18.2944C18.2602 10.3933 18.2262 10.3866 18.1946 10.3735C18.1629 10.3604 18.1341 10.3411 18.1099 10.3169C18.0857 10.2927 18.0665 10.2639 18.0534 10.2323C18.0403 10.2006 18.0335 10.1667 18.0335 10.1324V9.88882H21.7948L21.7927 10.1324ZM11.7545 0.689987L21.4665 5.79488H2.04257L11.7545 0.689987ZM1.08152 6.77764C1.08155 6.69119 1.11591 6.60828 1.17705 6.54714C1.23819 6.486 1.32109 6.45164 1.40755 6.45161H22.1015C22.1879 6.45164 22.2708 6.486 22.332 6.54714C22.3931 6.60828 22.4275 6.69119 22.4275 6.77764V7.76484C22.4275 7.85128 22.3931 7.93418 22.332 7.9953C22.2708 8.05643 22.188 8.09079 22.1015 8.09083H1.40751C1.32106 8.0908 1.23816 8.05644 1.17702 7.99532C1.11589 7.93419 1.08152 7.85129 1.08148 7.76484L1.08152 6.77764Z" fill="#667EEA"/>
</g>
<defs>
<clipPath id="clip0_144_34618">
<rect width="24" height="24" fill="white"/>
</clipPath>
</defs>
</svg>
