<svg width="24" height="24" viewBox="0 0 24 24" fill="none" xmlns="http://www.w3.org/2000/svg">
<path d="M20.9285 20.3571V18.8082C20.9285 18.7697 20.9209 18.7315 20.9061 18.6959C20.8914 18.6603 20.8698 18.6279 20.8425 18.6007C20.8152 18.5734 20.7829 18.5518 20.7473 18.537C20.7116 18.5223 20.6735 18.5147 20.6349 18.5147C20.5964 18.5147 20.5582 18.5223 20.5226 18.537C20.487 18.5518 20.4546 18.5734 20.4273 18.6007C20.4001 18.6279 20.3785 18.6603 20.3637 18.6959C20.349 18.7315 20.3414 18.7697 20.3414 18.8082V20.3207H19.9643V16.2221C20.0895 16.2395 20.2162 16.2395 20.3414 16.2221V17.6342C20.3414 17.6728 20.349 17.7109 20.3637 17.7466C20.3785 17.7822 20.4001 17.8145 20.4273 17.8418C20.4546 17.8691 20.487 17.8907 20.5226 17.9054C20.5582 17.9202 20.5964 17.9278 20.6349 17.9278C20.6735 17.9278 20.7116 17.9202 20.7473 17.9054C20.7829 17.8907 20.8152 17.8691 20.8425 17.8418C20.8698 17.8145 20.8914 17.7822 20.9061 17.7466C20.9209 17.7109 20.9285 17.6728 20.9285 17.6342V15.9937C21.2865 15.7465 21.5217 15.3336 21.5217 14.8667C21.5217 14.112 20.9077 13.4979 20.1529 13.4979C19.398 13.4979 18.784 14.112 18.784 14.8667C18.784 15.3336 19.0192 15.7465 19.3772 15.9937V16.5402C19.3067 16.6872 19.0696 17.1397 18.6304 17.5848C17.932 18.2925 17.0727 18.6513 16.0764 18.6513C15.0802 18.6513 14.2209 18.2925 13.5225 17.5848C13.0829 17.1394 12.8458 16.6865 12.7757 16.5402V15.9937C13.1337 15.7465 13.3689 15.3336 13.3689 14.8667C13.3689 14.112 12.7548 13.4979 12 13.4979C11.2452 13.4979 10.6312 14.112 10.6312 14.8667C10.6312 15.3336 10.8664 15.7465 11.2244 15.9937V16.5402C11.1539 16.6872 10.9168 17.1397 10.4776 17.5848C9.77922 18.2925 8.91992 18.6513 7.92363 18.6513C6.92734 18.6513 6.06805 18.2925 5.36969 17.5848C4.93012 17.1394 4.69301 16.6865 4.62285 16.5402V15.9937C4.98086 15.7465 5.21609 15.3336 5.21609 14.8667C5.21609 14.112 4.60203 13.4979 3.84723 13.4979C3.09242 13.4979 2.47836 14.112 2.47836 14.8667C2.47836 15.3336 2.71355 15.7465 3.07156 15.9936V20.3571C2.45836 20.4999 2 21.0505 2 21.7064C1.99999 21.745 2.00758 21.7832 2.02234 21.8188C2.03709 21.8544 2.05871 21.8868 2.08597 21.914C2.11323 21.9413 2.14559 21.9629 2.18121 21.9777C2.21683 21.9924 2.255 22 2.29355 22H5.40078C5.43933 22 5.47751 21.9924 5.51313 21.9777C5.54874 21.9629 5.58111 21.9413 5.60837 21.914C5.63563 21.8868 5.65725 21.8544 5.672 21.8188C5.68675 21.7832 5.69434 21.745 5.69434 21.7064C5.69434 21.0505 5.23598 20.4999 4.62281 20.3571V17.626C4.72071 17.749 4.82474 17.867 4.93449 17.9795C5.73844 18.803 6.77207 19.2384 7.92359 19.2384C9.07516 19.2384 10.1088 18.803 10.9127 17.9795C11.0225 17.867 11.1265 17.749 11.2244 17.626V20.3571C10.6112 20.4999 10.1528 21.0505 10.1528 21.7064C10.1528 21.7843 10.1837 21.859 10.2388 21.914C10.2938 21.9691 10.3685 22 10.4464 22H13.5536C13.5922 22 13.6304 21.9924 13.666 21.9777C13.7016 21.9629 13.734 21.9413 13.7612 21.914C13.7885 21.8868 13.8101 21.8544 13.8249 21.8188C13.8396 21.7832 13.8472 21.745 13.8472 21.7064C13.8472 21.0505 13.3888 20.4999 12.7757 20.3571V17.626C12.8736 17.749 12.9776 17.867 13.0873 17.9795C13.8912 18.803 14.9249 19.2384 16.0764 19.2384C17.228 19.2384 18.2616 18.803 19.0655 17.9795C19.1753 17.867 19.2793 17.749 19.3772 17.626V20.3571C18.7641 20.4999 18.3057 21.0505 18.3057 21.7064C18.3057 21.7843 18.3366 21.859 18.3917 21.914C18.4467 21.9691 18.5214 22 18.5993 22H21.7065C21.745 22 21.7832 21.9924 21.8188 21.9777C21.8544 21.9629 21.8868 21.9413 21.9141 21.914C21.9413 21.8868 21.963 21.8544 21.9777 21.8188C21.9925 21.7832 22 21.745 22 21.7064C22 21.0505 21.5416 20.4999 20.9285 20.3571ZM20.1528 14.085C20.5839 14.085 20.9346 14.4357 20.9346 14.8667C20.9346 15.2977 20.5839 15.6484 20.1528 15.6484C19.7218 15.6484 19.371 15.2977 19.371 14.8667C19.3711 14.4357 19.7218 14.085 20.1528 14.085ZM3.84719 14.085C4.27824 14.085 4.62898 14.4357 4.62898 14.8667C4.62898 15.2977 4.27824 15.6484 3.84719 15.6484C3.41613 15.6484 3.06539 15.2977 3.06539 14.8667C3.06539 14.4357 3.41609 14.085 3.84719 14.085ZM3.84719 16.2355C3.91027 16.2354 3.97327 16.2309 4.03574 16.2222V20.3207H3.65859V16.2221C3.72027 16.2307 3.78316 16.2355 3.84719 16.2355ZM5.05137 21.4129H2.64297C2.7602 21.1174 3.04902 20.9078 3.3859 20.9078H4.30844C4.64527 20.9078 4.93414 21.1173 5.05137 21.4129ZM12 14.085C12.4311 14.085 12.7818 14.4357 12.7818 14.8667C12.7818 15.2977 12.4311 15.6484 12 15.6484C11.5689 15.6484 11.2182 15.2977 11.2182 14.8667C11.2182 14.4357 11.5689 14.085 12 14.085ZM12 16.2355C12.0631 16.2354 12.1261 16.2309 12.1886 16.2222V20.3207H11.8114V16.2221C11.8731 16.2307 11.936 16.2355 12 16.2355ZM13.2042 21.4129H10.7958C10.913 21.1174 11.2019 20.9078 11.5387 20.9078H12.4613C12.7981 20.9078 13.087 21.1173 13.2042 21.4129ZM18.9486 21.4129C19.0659 21.1174 19.3547 20.9078 19.6916 20.9078H20.6141C20.9509 20.9078 21.2398 21.1174 21.357 21.4129H18.9486ZM21.9987 2.26867C21.9861 2.11953 21.8563 2 21.7064 2H2.29355C2.13375 2 2 2.13406 2 2.29355V12.3338C2 12.4933 2.13375 12.6273 2.29355 12.6273H21.7065C21.8663 12.6273 22 12.4933 22 12.3338V2.29355C21.9999 2.28525 21.9995 2.27695 21.9987 2.26867ZM20.7625 10.9749V3.65246L21.4129 3.00215V11.6252L20.7625 10.9749ZM15.0649 10.8029L13.5357 9.36602L15.8689 7.17367C16.1482 6.91121 16.5857 6.91121 16.865 7.17367L20.1755 10.2843V10.8029L15.0649 10.8029ZM20.9977 2.58707L20.3474 3.2373H17.2657C17.1879 3.2373 17.1132 3.26823 17.0582 3.32328C17.0031 3.37834 16.9722 3.453 16.9722 3.53086C16.9722 3.60871 17.0031 3.68338 17.0582 3.73843C17.1132 3.79349 17.1879 3.82441 17.2657 3.82441H20.1754V9.47871L17.267 6.74586C16.7623 6.2716 15.9716 6.27156 15.4669 6.74582L13.107 8.9632L10.1399 6.1752C9.6352 5.70098 8.84449 5.70098 8.33973 6.1752L6.12039 8.26055C6.06365 8.31385 6.03042 8.38752 6.02799 8.46533C6.02557 8.54314 6.05415 8.61873 6.10746 8.67547C6.16077 8.73221 6.23443 8.76544 6.31224 8.76787C6.39006 8.77029 6.46565 8.74171 6.52238 8.6884L8.74172 6.60305C9.02105 6.34062 9.45852 6.34062 9.73785 6.60305L14.2075 10.8029H4.27207L5.6666 9.49254C5.72234 9.43899 5.7547 9.36563 5.75668 9.28836C5.75866 9.2111 5.73009 9.13617 5.67716 9.07984C5.62424 9.02352 5.55124 8.99033 5.474 8.98749C5.39676 8.98466 5.32152 9.01239 5.26461 9.06469L3.82453 10.4178V3.82441H16.0916C16.1301 3.82441 16.1683 3.81682 16.2039 3.80207C16.2395 3.78732 16.2719 3.76569 16.2991 3.73843C16.3264 3.71117 16.348 3.67881 16.3628 3.6432C16.3775 3.60758 16.3851 3.56941 16.3851 3.53086C16.3851 3.49231 16.3775 3.45414 16.3628 3.41852C16.348 3.38291 16.3264 3.35054 16.2991 3.32328C16.2719 3.29603 16.2395 3.2744 16.2039 3.25965C16.1683 3.2449 16.1301 3.2373 16.0916 3.2373H3.65258L3.0023 2.58707H20.9977ZM2.58707 3.00215L3.23746 3.65246V10.9749L2.58707 11.6252V3.00215ZM3.0023 12.0402L3.65262 11.39H20.3474L20.9977 12.0402H3.0023Z" fill="#667EEA"/>
<path d="M13.1162 4.46961C12.4164 4.46961 11.8471 5.03891 11.8471 5.73864C11.8471 6.43836 12.4164 7.00766 13.1162 7.00766C13.8161 7.00766 14.3853 6.4384 14.3853 5.73864C14.3853 5.03887 13.8161 4.46961 13.1162 4.46961ZM13.1162 6.42055C12.7402 6.42055 12.4342 6.11465 12.4342 5.73864C12.4342 5.36262 12.7402 5.05668 13.1162 5.05668C13.4923 5.05668 13.7983 5.36262 13.7983 5.73864C13.7983 6.11465 13.4923 6.42055 13.1162 6.42055Z" fill="#667EEA"/>
</svg>
