<svg width="24" height="24" viewBox="0 0 24 24" fill="none" xmlns="http://www.w3.org/2000/svg">
<path d="M12.0491 11.2503V7.11312M12.0491 22V17.0024M11.5662 5.99002L10.2877 4.77915M3.18269 19.1521C2.30261 17.639 2.32394 15.907 3.64828 14.5827C4.32233 13.9087 5.19678 13.4773 6.11348 13.3111C6.52474 13.2366 6.86921 12.9557 7.03179 12.5706L7.60281 11.2185C7.98913 10.3038 8.92636 9.74728 9.91469 9.84628C10.3558 9.89034 10.7743 10.0629 11.1182 10.3426C11.4622 10.6223 11.7164 10.9968 11.8495 11.4197L11.8575 11.4419M12.2881 13.2942C12.3565 13.7328 12.4724 14.1807 12.738 14.3723C12.9424 14.5196 13.3947 14.5602 13.8434 14.528C14.3835 14.489 14.7259 15.1051 14.3984 15.5361C13.8873 16.2085 13.0342 16.7276 12.0845 16.992C11.5988 17.1272 11.2334 17.5353 11.1738 18.0359C11.0523 19.0572 10.6036 20.0475 9.85831 20.7928C8.16978 22.4813 5.81887 22.0516 4.10422 20.3369C4.08048 20.3131 4.05714 20.2894 4.0342 20.2656" stroke="#667EEA" stroke-width="0.7" stroke-miterlimit="10" stroke-linecap="round" stroke-linejoin="round"/>
<path d="M14.9202 8.37928L9.71726 13.5823C9.69201 13.6075 9.67198 13.6375 9.65832 13.6705C9.64465 13.7035 9.63762 13.7388 9.63762 13.7745C9.63762 13.8102 9.64465 13.8456 9.65832 13.8786C9.67198 13.9116 9.69201 13.9416 9.71726 13.9668L10.4741 14.7237C10.5251 14.7747 10.5943 14.8033 10.6664 14.8033C10.7385 14.8033 10.8077 14.7747 10.8587 14.7237L18.501 7.08137L17.3596 5.93992L15.9159 7.38358" stroke="#667EEA" stroke-width="0.7" stroke-miterlimit="10" stroke-linecap="round" stroke-linejoin="round"/>
<path d="M8.03955 17.6854C8.74868 17.6854 9.32354 17.1105 9.32354 16.4014C9.32354 15.6923 8.74868 15.1174 8.03955 15.1174C7.33043 15.1174 6.75557 15.6923 6.75557 16.4014C6.75557 17.1105 7.33043 17.6854 8.03955 17.6854Z" stroke="#667EEA" stroke-width="0.7" stroke-miterlimit="10" stroke-linecap="round" stroke-linejoin="round"/>
<path d="M9.91545 2.83469L12.1408 2.02462C12.3525 1.94776 12.5867 2.05682 12.6635 2.26849L12.9159 2.96225C12.9931 3.17392 12.8841 3.40772 12.6724 3.48499L10.447 4.29505M8.63903 3.29907L6.76056 3.98277M9.17062 4.75944L7.29255 5.44314M9.86708 2.70197L10.4952 4.42776C10.5069 4.45977 10.5121 4.49375 10.5106 4.52778C10.5091 4.5618 10.5009 4.5952 10.4866 4.62607C10.4722 4.65694 10.4518 4.68467 10.4267 4.70767C10.4016 4.73068 10.3722 4.74851 10.3402 4.76016L9.55114 5.04736C9.51914 5.05901 9.48516 5.06425 9.45113 5.06276C9.41711 5.06128 9.38371 5.0531 9.35284 5.03871C9.32197 5.02431 9.29424 5.00398 9.27124 4.97887C9.24823 4.95376 9.23039 4.92436 9.21875 4.89235L8.59062 3.16656C8.57897 3.13455 8.57374 3.10057 8.57522 3.06654C8.57671 3.03252 8.58488 2.99912 8.59928 2.96825C8.61367 2.93738 8.634 2.90966 8.65912 2.88665C8.68423 2.86364 8.71363 2.84581 8.74563 2.83416L9.53469 2.54696C9.59932 2.52344 9.67065 2.52656 9.73298 2.55563C9.79532 2.5847 9.84355 2.63734 9.86708 2.70197Z" stroke="#667EEA" stroke-width="0.7" stroke-miterlimit="10" stroke-linecap="round" stroke-linejoin="round"/>
<path d="M5.98385 6.44716C6.73198 6.44716 7.33846 5.84068 7.33846 5.09255C7.33846 4.34442 6.73198 3.73795 5.98385 3.73795C5.23572 3.73795 4.62924 4.34442 4.62924 5.09255C4.62924 5.84068 5.23572 6.44716 5.98385 6.44716Z" stroke="#667EEA" stroke-width="0.7" stroke-miterlimit="10" stroke-linecap="round" stroke-linejoin="round"/>
<path d="M12.0491 5.78197C11.6815 5.78197 11.3835 6.07996 11.3835 6.44753C11.3835 6.81509 11.6815 7.11312 12.0491 7.11312C12.4167 7.11312 12.7147 6.81513 12.7147 6.44753C12.7147 6.07992 12.4167 5.78197 12.0491 5.78197ZM19.6246 6.82913L18.501 7.08137L17.3596 5.93992L17.5867 4.92797C17.6049 4.84703 17.6455 4.77285 17.7039 4.71394C17.7623 4.65504 17.8362 4.61379 17.917 4.59493L21.1425 3.84237C21.1673 3.83658 21.1931 3.83608 21.2182 3.84091C21.2432 3.84573 21.267 3.85577 21.2879 3.87037C21.3088 3.88498 21.3264 3.90382 21.3396 3.92567C21.3527 3.94753 21.3611 3.97191 21.3642 3.99722L21.4184 4.43867C21.4305 4.53672 21.4041 4.63563 21.3447 4.71461L19.8806 6.66362C19.8177 6.74751 19.7269 6.8062 19.6246 6.82913Z" stroke="#667EEA" stroke-width="0.7" stroke-miterlimit="10" stroke-linecap="round" stroke-linejoin="round"/>
<path d="M3.84027 11.7829C4.28063 11.7829 4.63761 11.426 4.63761 10.9856C4.63761 10.5452 4.28063 10.1882 3.84027 10.1882C3.39991 10.1882 3.04292 10.5452 3.04292 10.9856C3.04292 11.426 3.39991 11.7829 3.84027 11.7829Z" stroke="#667EEA" stroke-width="0.7" stroke-miterlimit="10" stroke-linecap="round" stroke-linejoin="round"/>
<path d="M4.63762 10.9856V8.81159C4.63762 8.57014 4.91424 8.43324 5.10619 8.57968L5.70048 9.033" stroke="#667EEA" stroke-width="0.7" stroke-miterlimit="10" stroke-linecap="round" stroke-linejoin="round"/>
<path d="M15.9175 18.3672C16.3579 18.3672 16.7149 18.0102 16.7149 17.5699C16.7149 17.1295 16.3579 16.7725 15.9175 16.7725C15.4771 16.7725 15.1202 17.1295 15.1202 17.5699C15.1202 18.0102 15.4771 18.3672 15.9175 18.3672Z" stroke="#667EEA" stroke-width="0.7" stroke-miterlimit="10" stroke-linecap="round" stroke-linejoin="round"/>
<path d="M18.8016 17.9685C19.242 17.9685 19.599 17.6116 19.599 17.1712C19.599 16.7308 19.242 16.3738 18.8016 16.3738C18.3613 16.3738 18.0043 16.7308 18.0043 17.1712C18.0043 17.6116 18.3613 17.9685 18.8016 17.9685Z" stroke="#667EEA" stroke-width="0.7" stroke-miterlimit="10" stroke-linecap="round" stroke-linejoin="round"/>
<path d="M19.599 17.1712V14.6237C19.599 14.5968 19.5932 14.5702 19.5821 14.5458C19.5709 14.5213 19.5547 14.4995 19.5344 14.4819C19.5142 14.4642 19.4904 14.4511 19.4646 14.4435C19.4389 14.4358 19.4118 14.4337 19.3851 14.4374L16.8894 14.7824C16.841 14.7891 16.7967 14.8131 16.7646 14.8499C16.7325 14.8867 16.7148 14.9339 16.7148 14.9827V17.5699" stroke="#667EEA" stroke-width="0.7" stroke-miterlimit="10" stroke-linecap="round" stroke-linejoin="round"/>
</svg>
