<svg width="24" height="24" viewBox="0 0 24 24" fill="none" xmlns="http://www.w3.org/2000/svg">
<path d="M21.0004 8.33321V4.69305C21.0001 4.5794 20.9707 4.46773 20.915 4.36864C20.8594 4.26954 20.7793 4.18632 20.6825 4.12687C20.5856 4.06742 20.4752 4.03371 20.3616 4.02896C20.2481 4.0242 20.1352 4.04855 20.0337 4.09969L19.667 4.28203V2.66629C19.6669 2.55637 19.6397 2.44816 19.5877 2.35132C19.5357 2.25447 19.4605 2.17199 19.3689 2.11121C19.2773 2.05043 19.1721 2.01325 19.0627 2.00296C18.9532 1.99268 18.843 2.00962 18.7416 2.05227C14.2371 3.94068 12.5947 5.30541 12 6.09345C11.4053 5.30541 9.76358 3.94068 5.26005 2.05293C5.15871 2.00995 5.0483 1.99272 4.93868 2.0028C4.82906 2.01288 4.72364 2.04994 4.63183 2.11068C4.54002 2.17143 4.46468 2.25396 4.41254 2.35091C4.3604 2.44786 4.33308 2.55621 4.33301 2.66629V4.28203L3.96399 4.09736C3.86241 4.04667 3.74957 4.02276 3.63616 4.02789C3.52275 4.03303 3.41253 4.06703 3.31595 4.1267C3.21936 4.18636 3.13961 4.26969 3.08425 4.3688C3.02889 4.46792 2.99976 4.57952 2.99962 4.69305V8.33321C2.73439 8.33321 2.48002 8.43857 2.29248 8.62612C2.10493 8.81366 1.99957 9.06803 1.99957 9.33325L1.99957 9.6666C2.00057 9.91328 2.09291 10.151 2.25958 10.3333C2.09291 10.5156 2.00057 10.7533 1.99957 11V11.3333C2.00057 11.58 2.09291 11.8177 2.25958 12C2.09291 12.1824 2.00057 12.4201 1.99957 12.6667V13.0001C2.00057 13.2468 2.09291 13.4844 2.25958 13.6668C2.09291 13.8491 2.00057 14.0868 1.99957 14.3335V14.6668C1.99957 14.9321 2.10493 15.1864 2.29248 15.374C2.48002 15.5615 2.73439 15.6669 2.99962 15.6669V17.9503C2.9988 18.0739 3.03274 18.1952 3.09758 18.3004C3.16242 18.4056 3.25554 18.4905 3.3663 18.5453L10.0316 21.8788C10.1251 21.9266 10.2286 21.9516 10.3336 21.9518C10.4326 21.9498 10.5296 21.9251 10.618 21.8805C10.73 21.9588 10.8633 22.0005 11 22.0005H13.0001C13.1367 22.0005 13.2694 21.9581 13.3811 21.8795C13.4714 21.9265 13.5716 21.951 13.6734 21.951C13.7752 21.951 13.8755 21.9265 13.9658 21.8795L20.6261 18.5493C20.7386 18.495 20.8336 18.4099 20.8998 18.3039C20.9661 18.1979 21.0009 18.0753 21.0004 17.9503V15.6669C21.2656 15.6669 21.52 15.5615 21.7075 15.374C21.8951 15.1864 22.0005 14.9321 22.0005 14.6668V14.3335C21.9996 14.0867 21.9069 13.849 21.7404 13.6668C21.9071 13.4844 21.9995 13.2468 22.0005 13.0001V12.6667C21.9996 12.4199 21.9069 12.1823 21.7404 12C21.9071 11.8177 21.9995 11.58 22.0005 11.3333V11C21.9996 10.7532 21.9069 10.5155 21.7404 10.3333C21.9071 10.151 21.9995 9.91328 22.0005 9.6666V9.33325C22.0005 9.06803 21.8951 8.81366 21.7075 8.62612C21.52 8.43857 21.2656 8.33321 21.0004 8.33321ZM21.3338 9.33325V9.6666C21.3338 9.75501 21.2986 9.8398 21.2361 9.90232C21.1736 9.96483 21.0888 9.99995 21.0004 9.99995H19.5003C19.3677 9.99995 19.2405 9.94727 19.1468 9.8535C19.053 9.75973 19.0003 9.63254 19.0003 9.49993C19.0003 9.36731 19.053 9.24013 19.1468 9.14636C19.2405 9.05259 19.3677 8.99991 19.5003 8.99991H21.0004C21.0888 8.99991 21.1736 9.03503 21.2361 9.09754C21.2986 9.16006 21.3338 9.24485 21.3338 9.33325ZM21.3338 11V11.3333C21.3338 11.4218 21.2986 11.5065 21.2361 11.5691C21.1736 11.6316 21.0888 11.6667 21.0004 11.6667H18.8336C18.701 11.6667 18.5739 11.614 18.4801 11.5202C18.3863 11.4265 18.3336 11.2993 18.3336 11.1667C18.3336 11.0341 18.3863 10.9069 18.4801 10.8131C18.5739 10.7193 18.701 10.6666 18.8336 10.6666H21.0004C21.0888 10.6666 21.1736 10.7018 21.2361 10.7643C21.2986 10.8268 21.3338 10.9116 21.3338 11ZM21.3338 12.6667V13.0001C21.3338 13.0885 21.2986 13.1733 21.2361 13.2358C21.1736 13.2983 21.0888 13.3334 21.0004 13.3334H19.5003C19.3677 13.3334 19.2405 13.2808 19.1468 13.187C19.053 13.0932 19.0003 12.966 19.0003 12.8334C19.0003 12.7008 19.053 12.5736 19.1468 12.4798C19.2405 12.3861 19.3677 12.3334 19.5003 12.3334H21.0004C21.0888 12.3334 21.1736 12.3685 21.2361 12.431C21.2986 12.4935 21.3338 12.5783 21.3338 12.6667ZM19.0003 2.66629V4.61538L13.3667 7.43317C13.3627 7.43517 13.3601 7.4385 13.3561 7.44051C13.2501 7.3714 13.1266 7.33414 13.0001 7.33317H12.3334V6.85415C12.3597 6.74914 12.8444 5.24707 19.0003 2.66629ZM4.9997 2.66629C11.3296 5.32008 11.663 6.83314 11.6667 6.83314V7.33317H11C10.8733 7.33317 10.7493 7.36983 10.643 7.43884C10.639 7.43684 10.6363 7.4335 10.6323 7.4315L4.9997 4.61538V2.66629ZM2.66627 9.33325C2.66627 9.24485 2.70139 9.16006 2.7639 9.09754C2.82642 9.03503 2.91121 8.99991 2.99962 8.99991H4.49968C4.6323 8.99991 4.75948 9.05259 4.85325 9.14636C4.94702 9.24013 4.9997 9.36731 4.9997 9.49993C4.9997 9.63254 4.94702 9.75973 4.85325 9.8535C4.75948 9.94727 4.6323 9.99995 4.49968 9.99995H2.99962C2.91121 9.99995 2.82642 9.96483 2.7639 9.90232C2.70139 9.8398 2.66627 9.75501 2.66627 9.6666V9.33325ZM4.9997 12.8334C4.9997 12.966 4.94702 13.0932 4.85325 13.187C4.75948 13.2808 4.6323 13.3334 4.49968 13.3334H2.99962C2.91121 13.3334 2.82642 13.2983 2.7639 13.2358C2.70139 13.1733 2.66627 13.0885 2.66627 13.0001V12.6667C2.66627 12.5783 2.70139 12.4935 2.7639 12.431C2.82642 12.3685 2.91121 12.3334 2.99962 12.3334H4.49968C4.6323 12.3334 4.75948 12.3861 4.85325 12.4798C4.94702 12.5736 4.9997 12.7008 4.9997 12.8334ZM5.16638 11.6667H2.99962C2.91121 11.6667 2.82642 11.6316 2.7639 11.5691C2.70139 11.5065 2.66627 11.4218 2.66627 11.3333V11C2.66627 10.9116 2.70139 10.8268 2.7639 10.7643C2.82642 10.7018 2.91121 10.6666 2.99962 10.6666H5.16638C5.29899 10.6666 5.42618 10.7193 5.51995 10.8131C5.61372 10.9069 5.6664 11.0341 5.6664 11.1667C5.6664 11.2993 5.61372 11.4265 5.51995 11.5202C5.42618 11.614 5.29899 11.6667 5.16638 11.6667ZM2.66627 14.6668V14.3335C2.66627 14.2451 2.70139 14.1603 2.7639 14.0978C2.82642 14.0352 2.91121 14.0001 2.99962 14.0001H4.16633C4.29895 14.0001 4.42613 14.0528 4.5199 14.1466C4.61368 14.2404 4.66636 14.3675 4.66636 14.5001C4.66636 14.6328 4.61368 14.7599 4.5199 14.8537C4.42613 14.9475 4.29895 15.0002 4.16633 15.0002H2.99962C2.91121 15.0002 2.82642 14.9651 2.7639 14.9025C2.70139 14.84 2.66627 14.7552 2.66627 14.6668ZM3.66631 17.9503V15.6669H4.16633C4.38096 15.6676 4.59161 15.6089 4.77494 15.4973C4.95827 15.3857 5.10714 15.2256 5.20505 15.0346C5.30297 14.8436 5.3461 14.6292 5.32969 14.4152C5.31327 14.2012 5.23794 13.9959 5.11204 13.8221C5.36795 13.6676 5.55346 13.4194 5.6291 13.1302C5.70475 12.841 5.66455 12.5337 5.51706 12.2737C5.7534 12.2004 5.96008 12.0534 6.10686 11.8542C6.25364 11.655 6.33283 11.4141 6.33283 11.1667C6.33283 10.9192 6.25364 10.6783 6.10686 10.4791C5.96008 10.2799 5.7534 10.1329 5.51706 10.0596C5.61373 9.88895 5.66507 9.69627 5.6664 9.49993C5.6664 9.1905 5.54348 8.89374 5.32468 8.67493C5.10587 8.45613 4.80912 8.33321 4.49968 8.33321H3.66631V4.69438L4.52935 5.1254L4.54068 5.13107L10.3333 8.02653V21.2824L3.66631 17.9503ZM11 21.3338V7.99986H13.0001V21.3338H11ZM20.3337 17.949L13.6668 21.2824V8.02753L19.457 5.13307C19.4633 5.1304 19.4687 5.12707 19.4747 5.12407L20.3337 4.69305V8.33321H19.5003C19.1909 8.33321 18.8942 8.45613 18.6753 8.67493C18.4565 8.89374 18.3336 9.1905 18.3336 9.49993C18.335 9.69627 18.3863 9.88895 18.483 10.0596C18.2466 10.1329 18.04 10.2799 17.8932 10.4791C17.7464 10.6783 17.6672 10.9192 17.6672 11.1667C17.6672 11.4141 17.7464 11.655 17.8932 11.8542C18.04 12.0534 18.2466 12.2004 18.483 12.2737C18.3355 12.5337 18.2953 12.841 18.3709 13.1302C18.4466 13.4194 18.6321 13.6676 18.888 13.8221C18.7621 13.9959 18.6868 14.2012 18.6703 14.4152C18.6539 14.6292 18.6971 14.8436 18.795 15.0346C18.8929 15.2256 19.0418 15.3857 19.2251 15.4973C19.4084 15.6089 19.6191 15.6676 19.8337 15.6669H20.3337V17.949ZM21.3338 14.6668C21.3338 14.7552 21.2986 14.84 21.2361 14.9025C21.1736 14.9651 21.0888 15.0002 21.0004 15.0002H19.8337C19.7011 15.0002 19.5739 14.9475 19.4801 14.8537C19.3863 14.7599 19.3337 14.6328 19.3337 14.5001C19.3337 14.3675 19.3863 14.2404 19.4801 14.1466C19.5739 14.0528 19.7011 14.0001 19.8337 14.0001H21.0004C21.0888 14.0001 21.1736 14.0352 21.2361 14.0978C21.2986 14.1603 21.3338 14.2451 21.3338 14.3335V14.6668Z" fill="#667EEA"/>
</svg>
