<svg width="24" height="24" viewBox="0 0 24 24" fill="none" xmlns="http://www.w3.org/2000/svg">
<path d="M21.3548 2H2.64516C2.47405 2 2.30995 2.06797 2.18896 2.18896C2.06797 2.30995 2 2.47405 2 2.64516V3.29032C2 3.46143 2.06797 3.62553 2.18896 3.74652C2.30995 3.86751 2.47405 3.93548 2.64516 3.93548H3.93548V5.02645C3.80527 5.17274 3.71052 5.34707 3.65857 5.5359C3.60662 5.72473 3.59888 5.923 3.63594 6.11531C3.67301 6.30761 3.75388 6.4888 3.87229 6.6448C3.9907 6.8008 4.14345 6.92742 4.31871 7.01484C3.95129 8.66677 3.95065 8.67194 3.95065 8.70581C3.95067 8.77923 3.97575 8.85045 4.02174 8.9077C4.06772 8.96494 4.13186 9.00479 4.20355 9.02065C4.43334 9.07121 4.66794 9.09674 4.90323 9.09677C5.17891 9.09653 5.45341 9.06086 5.72 8.99064L8.37774 16.1339L5.09226 19.4194H4.90323C4.64656 19.4194 4.40042 19.5213 4.21893 19.7028C4.03744 19.8843 3.93548 20.1304 3.93548 20.3871V21.6774C3.93548 21.763 3.96947 21.845 4.02997 21.9055C4.09046 21.966 4.17251 22 4.25806 22H19.7419C19.8275 22 19.9095 21.966 19.97 21.9055C20.0305 21.845 20.0645 21.763 20.0645 21.6774V20.3871C20.0645 20.1304 19.9626 19.8843 19.7811 19.7028C19.5996 19.5213 19.3534 19.4194 19.0968 19.4194H18.9077L15.6223 16.1339L18.2803 8.99064C18.5468 9.06088 18.8212 9.09655 19.0968 9.09677C19.3321 9.09674 19.5667 9.07121 19.7965 9.02065C19.8681 9.00479 19.9323 8.96494 19.9783 8.9077C20.0242 8.85045 20.0493 8.77923 20.0494 8.70581C20.0494 8.67194 20.0494 8.66677 19.6813 7.01484C19.8565 6.92742 20.0093 6.8008 20.1277 6.6448C20.2461 6.4888 20.327 6.30761 20.3641 6.11531C20.4011 5.923 20.3934 5.72473 20.3414 5.5359C20.2895 5.34707 20.1947 5.17274 20.0645 5.02645V3.93548H21.3548C21.5259 3.93548 21.69 3.86751 21.811 3.74652C21.932 3.62553 22 3.46143 22 3.29032V2.64516C22 2.47405 21.932 2.30995 21.811 2.18896C21.69 2.06797 21.5259 2 21.3548 2ZM5.22581 3.93548V4.62645C5.01509 4.56537 4.79136 4.56537 4.58065 4.62645V3.93548H5.22581ZM18.129 5.02645C17.9406 5.24138 17.8296 5.51329 17.8139 5.79871C15.9316 6.17548 15.9268 6.18774 15.9268 6.44064C15.9269 6.46165 15.9289 6.4826 15.9329 6.50323C16.0364 7.02006 16.266 7.50331 16.6013 7.91L12 12.5116L7.39839 7.91032C7.73392 7.50361 7.96364 7.02023 8.0671 6.50323C8.07107 6.4826 8.07312 6.46165 8.07323 6.44064C8.07323 6.18774 8.06839 6.17548 6.18613 5.79871C6.17039 5.51329 6.05943 5.24138 5.87097 5.02645V3.93548H18.129V5.02645ZM4.90323 5.22581C5.03083 5.22581 5.15556 5.26364 5.26166 5.33454C5.36775 5.40543 5.45045 5.50619 5.49928 5.62408C5.54811 5.74196 5.56088 5.87168 5.53599 5.99683C5.5111 6.12198 5.44965 6.23694 5.35942 6.32717C5.2692 6.41739 5.15424 6.47884 5.02909 6.50373C4.90394 6.52863 4.77422 6.51585 4.65633 6.46702C4.53845 6.41819 4.43769 6.3355 4.36679 6.2294C4.2959 6.1233 4.25806 5.99857 4.25806 5.87097C4.25806 5.69986 4.32604 5.53576 4.44703 5.41477C4.56802 5.29378 4.73212 5.22581 4.90323 5.22581ZM4.66258 8.44064L4.94806 7.15677C5.1819 7.1484 5.40903 7.07643 5.60501 6.9486C5.80099 6.82077 5.95841 6.64192 6.06032 6.43129L7.35065 6.68935C7.17812 7.20208 6.84924 7.64783 6.41024 7.96393C5.97123 8.28003 5.44419 8.45059 4.90323 8.45161C4.8229 8.45161 4.74194 8.44774 4.66258 8.44064ZM6.32387 8.76323C6.54478 8.65524 6.75268 8.52245 6.94355 8.36742L11.5439 12.9677L8.87968 15.6319L6.32387 8.76323ZM19.4194 20.3871V21.3548H4.58065V20.3871C4.58065 20.3015 4.61463 20.2195 4.67513 20.159C4.73562 20.0985 4.81767 20.0645 4.90323 20.0645H19.0968C19.1823 20.0645 19.2644 20.0985 19.3249 20.159C19.3854 20.2195 19.4194 20.3015 19.4194 20.3871ZM17.9955 19.4194H14.3997L15.3748 16.7987L17.9955 19.4194ZM13.7113 19.4194H6.00452L17.0565 8.36742C17.2477 8.5226 17.456 8.6554 17.6774 8.76323L13.7113 19.4194ZM19.0968 8.45161C18.5557 8.45081 18.0285 8.2804 17.5893 7.96434C17.1501 7.64829 16.821 7.20249 16.6484 6.68968L17.9387 6.43161C18.0406 6.64224 18.198 6.82109 18.394 6.94892C18.59 7.07675 18.8171 7.14872 19.051 7.1571L19.3365 8.44097C19.2567 8.44794 19.1768 8.45149 19.0968 8.45161ZM19.0968 6.51613C18.9692 6.51613 18.8444 6.47829 18.7383 6.4074C18.6322 6.33651 18.5496 6.23575 18.5007 6.11786C18.4519 5.99997 18.4391 5.87025 18.464 5.7451C18.4889 5.61995 18.5503 5.505 18.6406 5.41477C18.7308 5.32454 18.8458 5.2631 18.9709 5.2382C19.0961 5.21331 19.2258 5.22609 19.3437 5.27492C19.4616 5.32375 19.5623 5.40644 19.6332 5.51254C19.7041 5.61863 19.7419 5.74337 19.7419 5.87097C19.7419 6.04208 19.674 6.20617 19.553 6.32717C19.432 6.44816 19.2679 6.51613 19.0968 6.51613ZM19.4194 4.62645C19.2086 4.56537 18.9849 4.56537 18.7742 4.62645V3.93548H19.4194V4.62645ZM2.64516 3.29032V2.64516H21.3548V3.29032H2.64516Z" fill="#667EEA"/>
</svg>
