<svg width="24" height="24" viewBox="0 0 24 24" fill="none" xmlns="http://www.w3.org/2000/svg">
<path d="M21.3389 15.0492H20.9367V11.4853C21.3154 11.3694 21.5917 11.0166 21.5917 10.6005C21.5917 10.1843 21.3154 9.83154 20.9367 9.71562V6.22006C20.9354 6.14129 20.9032 6.06617 20.8471 6.01092C20.7909 5.95567 20.7153 5.9247 20.6365 5.9247C20.5577 5.9247 20.4821 5.95567 20.4259 6.01092C20.3697 6.06617 20.3376 6.14129 20.3363 6.22006V9.67529H19.4C18.0566 8.0415 17.4669 5.27753 17.2415 3.85034H20.3363V4.81901C20.3376 4.89779 20.3698 4.9729 20.426 5.02815C20.4821 5.08341 20.5577 5.11437 20.6365 5.11437C20.7153 5.11437 20.7909 5.08341 20.8471 5.02815C20.9033 4.9729 20.9355 4.89779 20.9368 4.81901V3.8503H21.3389C21.8491 3.8503 22.2641 3.43525 22.2641 2.92513C22.2641 2.41501 21.849 2 21.3389 2H2.66107C2.15095 2 1.7359 2.41497 1.7359 2.92513C1.7359 3.43529 2.15095 3.8503 2.66107 3.8503H3.30286V9.71558C2.43197 9.98201 2.43314 11.2191 3.30286 11.4853V15.0492H2.66107C2.15095 15.0492 1.7359 15.4642 1.7359 15.9743C1.7359 16.4845 2.15095 16.8995 2.66107 16.8995H21.3389C21.849 16.8995 22.264 16.4844 22.264 15.9743C22.2641 15.4642 21.849 15.0492 21.3389 15.0492ZM19.3865 10.2757H20.6665C20.8455 10.2757 20.9912 10.4214 20.9912 10.6004C20.9912 10.7625 20.8726 10.9251 20.6364 10.9251H18.2638C17.8846 10.9251 17.8156 10.3807 18.1831 10.2865C18.2412 10.2716 18.1801 10.2757 19.1711 10.2757C19.2404 10.3026 19.3172 10.3027 19.3865 10.2757ZM5.18768 11.5257H5.59516C6.11758 12.257 6.7157 13.4225 6.86762 15.0492H5.81956C5.74543 13.4918 5.46285 12.3221 5.18768 11.5257ZM5.21867 15.0491H3.90335V11.5256H4.54982C4.82888 12.2725 5.13917 13.4381 5.21867 15.0491ZM6.28405 11.4727C6.89737 11.2554 7.10069 10.4903 6.67713 9.99801C9.29496 8.19061 10.3993 5.26747 10.7995 3.8503H13.4402C13.8402 5.26747 14.9446 8.19057 17.5625 9.99801C17.1392 10.4901 17.3422 11.2552 17.9556 11.4727C17.4375 12.2815 16.9071 13.4683 16.7696 15.0492H7.47004C7.33247 13.4683 6.80211 12.2815 6.28405 11.4727ZM7.60575 3.8503H10.1743C9.74361 5.29726 8.62342 8.06547 6.06995 9.68002C6.00784 9.67373 6.00456 9.67525 5.59143 9.67525C6.84982 7.87418 7.39787 5.20388 7.60575 3.8503ZM4.83966 9.67525H3.90335V3.8503H6.99817C6.77272 5.27753 6.18298 8.04142 4.83966 9.67525ZM18.6444 11.5257H19.0519C18.7767 12.3221 18.4941 13.4918 18.4201 15.0492H17.372C17.5239 13.4225 18.122 12.257 18.6444 11.5257ZM19.6898 11.5256H20.3362V15.0491H19.021C19.1004 13.4381 19.4107 12.2725 19.6898 11.5256ZM18.6481 9.67525C18.2247 9.67525 18.2304 9.67385 18.1696 9.68002C15.6161 8.06547 14.4959 5.29726 14.0652 3.8503H16.6338C16.8417 5.20388 17.3897 7.87422 18.6481 9.67525ZM2.66107 3.24985C2.48201 3.24985 2.33635 3.10419 2.33635 2.92513C2.33635 2.74607 2.48201 2.60041 2.66107 2.60041H21.3389C21.5179 2.60041 21.6636 2.74607 21.6636 2.92513C21.6636 3.10419 21.5179 3.24985 21.3389 3.24985H2.66107ZM3.24833 10.6004C3.24833 10.4383 3.36697 10.2757 3.60312 10.2757H4.85309C4.92236 10.3027 4.99922 10.3027 5.06848 10.2757C6.07825 10.2757 5.99401 10.2715 6.06017 10.2872C6.42358 10.3852 6.35342 10.9252 5.97581 10.9252H3.57305C3.39399 10.9252 3.24833 10.7795 3.24833 10.6004ZM21.3389 16.2991H2.66107C2.48201 16.2991 2.33635 16.1534 2.33635 15.9744C2.33635 15.7953 2.48201 15.6497 2.66107 15.6497H21.3389C21.5179 15.6497 21.6636 15.7953 21.6636 15.9744C21.6636 16.1534 21.518 16.2991 21.3389 16.2991ZM21.3389 20.1497H20.1341V18.6015C20.1341 18.0865 19.7152 17.6675 19.2002 17.6675H17.6687C17.1537 17.6675 16.7347 18.0864 16.7347 18.6015V20.1497H15.9244V18.6015C15.9244 18.0865 15.5054 17.6675 14.9904 17.6675H13.4588C12.9438 17.6675 12.5249 18.0864 12.5249 18.6015V20.1497H11.7146V18.6015C11.7146 18.0865 11.2956 17.6675 10.7806 17.6675H9.24905C8.73404 17.6675 8.31506 18.0864 8.31506 18.6015V20.1497H7.50488V18.6015C7.50488 18.0865 7.08593 17.6675 6.57089 17.6675H5.03933C4.52432 17.6675 4.10534 18.0864 4.10534 18.6015V20.1497H2.66107C2.15095 20.1497 1.7359 20.5647 1.7359 21.0748C1.7359 21.585 2.15095 22 2.66107 22H4.83036C4.90914 21.9987 4.98425 21.9665 5.0395 21.9104C5.09475 21.8542 5.12572 21.7786 5.12572 21.6998C5.12572 21.621 5.09475 21.5454 5.0395 21.4892C4.98425 21.433 4.90914 21.4008 4.83036 21.3996H2.66107C2.48201 21.3996 2.33635 21.2539 2.33635 21.0748C2.33635 20.8958 2.48201 20.7502 2.66107 20.7502H21.3389C21.5179 20.7502 21.6636 20.8958 21.6636 21.0748C21.6636 21.2539 21.5179 21.3996 21.3389 21.3996H6.23141C6.15263 21.4008 6.07752 21.433 6.02227 21.4892C5.96702 21.5454 5.93605 21.621 5.93605 21.6998C5.93605 21.7786 5.96702 21.8542 6.02227 21.9104C6.07752 21.9665 6.15263 21.9987 6.23141 22H21.3389C21.849 22 22.264 21.585 22.264 21.0748C22.2641 20.5647 21.849 20.1497 21.3389 20.1497ZM6.90455 20.1497H4.70591V18.6015C4.70591 18.4176 4.8555 18.2679 5.03945 18.2679H6.57101C6.75492 18.2679 6.90455 18.4175 6.90455 18.6015V20.1497ZM11.1142 20.1497H8.91559V18.6015C8.91559 18.4176 9.06518 18.2679 9.24913 18.2679H10.7806C10.9646 18.2679 11.1142 18.4175 11.1142 18.6015V20.1497ZM15.324 20.1497H13.1254V18.6015C13.1254 18.4176 13.275 18.2679 13.4589 18.2679H14.9905C15.1744 18.2679 15.324 18.4175 15.324 18.6015V20.1497ZM19.5337 20.1497H17.3351V18.6015C17.3351 18.4176 17.4847 18.2679 17.6687 18.2679H19.2002C19.3841 18.2679 19.5337 18.4175 19.5337 18.6015V20.1497Z" fill="#667EEA"/>
</svg>
