<svg width="24" height="24" viewBox="0 0 24 24" fill="none" xmlns="http://www.w3.org/2000/svg">
<path d="M17.7045 3.36257C17.699 3.35707 17.6913 3.35523 17.6858 3.3501C16.1762 1.84511 14.1316 1 12 1C9.8684 1 7.82376 1.84511 6.31422 3.3501C6.30872 3.35523 6.30102 3.35707 6.29552 3.36257C6.29002 3.36807 6.28818 3.37577 6.28305 3.38127C4.77806 4.89081 3.93295 6.93546 3.93295 9.06705C3.93295 11.1986 4.77806 13.2433 6.28305 14.7528C6.28818 14.7583 6.29002 14.766 6.29552 14.7715C6.30102 14.777 6.30872 14.7789 6.31422 14.784C7.82376 16.289 9.8684 17.1341 12 17.1341C14.1316 17.1341 16.1762 16.289 17.6858 14.784C17.6913 14.7789 17.699 14.777 17.7045 14.7715C17.71 14.766 17.7118 14.7583 17.717 14.7528C19.2219 13.2433 20.0671 11.1986 20.0671 9.06705C20.0671 6.93546 19.2219 4.89081 17.717 3.38127C17.7118 3.37577 17.71 3.36807 17.7045 3.36257ZM17.4302 13.9806L16.4999 13.0503C16.6376 12.9517 16.7367 12.8082 16.7802 12.6445C16.8237 12.4808 16.8089 12.307 16.7383 12.1531L15.5029 9.43374H19.3164C19.2337 11.1222 18.5669 12.7294 17.4302 13.9806ZM4.68504 9.43374H6.20274C6.28615 9.58207 6.41945 9.69602 6.57896 9.75532L9.6624 10.8862L6.56979 13.9806C5.4336 12.7292 4.76738 11.122 4.68504 9.43374ZM6.56979 4.15533L9.6624 7.24831L6.57933 8.37879C6.41978 8.43818 6.28639 8.55209 6.20274 8.70037H4.68504C4.7678 7.01276 5.43399 5.40626 6.56979 4.15533ZM14.6687 8.76307C14.6253 8.85847 14.6028 8.96206 14.6028 9.06687C14.6028 9.17168 14.6253 9.27527 14.6687 9.37067L16.0702 12.4548L15.7471 12.3364H15.7424L12.1448 11.0163L12.1371 11.0134L10.4673 10.401H10.4618L6.83344 9.06705L10.4636 7.73636H10.4691L12.139 7.124L12.1467 7.12107L15.7442 5.80101L15.749 5.79917L16.072 5.68074L14.6687 8.76307ZM15.4069 5.14355L12.3667 6.25643V1.7521C14.0549 1.83449 15.6621 2.5007 16.9136 3.63685L15.4069 5.14355ZM11.6333 6.52557L10.4233 6.96999L7.09012 3.63685C8.3406 2.50148 9.94637 1.83533 11.6333 1.7521V6.52557ZM10.4233 11.1641L11.6333 11.6089V16.382C9.94573 16.2992 8.33924 15.633 7.08828 14.4973L10.4233 11.1641ZM12.3667 11.8777L15.4069 12.9924L16.9103 14.4958C15.6599 15.6318 14.054 16.2985 12.3667 16.382V11.8777ZM15.5029 8.70037L16.7383 5.98288C16.7981 5.85122 16.8177 5.7048 16.7945 5.56205C16.7713 5.41929 16.7065 5.28658 16.6081 5.18058C16.5738 5.14659 16.5359 5.11635 16.4952 5.09038L17.4302 4.15533C18.566 5.40626 19.2322 7.01276 19.315 8.70037H15.5029ZM18.967 18.6008H16.0335C15.9363 18.6008 15.843 18.6394 15.7742 18.7082C15.7055 18.777 15.6668 18.8702 15.6668 18.9675C15.6668 19.0647 15.7055 19.158 15.7742 19.2268C15.843 19.2955 15.9363 19.3342 16.0335 19.3342H17.1336V22.6343C17.1336 22.7316 17.1722 22.8248 17.241 22.8936C17.3097 22.9624 17.403 23.001 17.5002 23.001C17.5975 23.001 17.6908 22.9624 17.7595 22.8936C17.8283 22.8248 17.8669 22.7316 17.8669 22.6343V19.3342H18.967C19.0642 19.3342 19.1575 19.2955 19.2263 19.2268C19.295 19.158 19.3337 19.0647 19.3337 18.9675C19.3337 18.8702 19.295 18.777 19.2263 18.7082C19.1575 18.6394 19.0642 18.6008 18.967 18.6008ZM14.2001 20.4342C13.8026 20.4342 13.4667 20.1823 13.4667 19.8842C13.4667 19.5861 13.8026 19.3342 14.2001 19.3342C14.3247 19.3293 14.4487 19.3541 14.562 19.4063C14.6752 19.4586 14.7745 19.5369 14.8517 19.6349C14.9078 19.7131 14.9924 19.7661 15.0873 19.7825C15.1821 19.7989 15.2796 19.7773 15.3587 19.7225C15.4378 19.6676 15.4922 19.5838 15.51 19.4892C15.5279 19.3946 15.5078 19.2968 15.4542 19.2168C15.3102 19.0208 15.121 18.8624 14.9026 18.7551C14.6843 18.6478 14.4433 18.5949 14.2001 18.6008C13.8359 18.5785 13.4776 18.7008 13.203 18.9411C12.9284 19.1814 12.7596 19.5203 12.7334 19.8842C12.7596 20.2481 12.9284 20.587 13.203 20.8273C13.4776 21.0676 13.8359 21.1899 14.2001 21.1676C14.5976 21.1676 14.9335 21.4195 14.9335 21.7176C14.9335 22.0157 14.5976 22.2676 14.2001 22.2676C14.0755 22.2725 13.9515 22.2478 13.8382 22.1955C13.725 22.1432 13.6257 22.0649 13.5485 21.967C13.4924 21.8887 13.4078 21.8357 13.3129 21.8193C13.2181 21.8029 13.1206 21.8245 13.0415 21.8793C12.9624 21.9342 12.908 22.018 12.8902 22.1126C12.8723 22.2072 12.8924 22.305 12.946 22.385C13.09 22.5811 13.2792 22.7395 13.4976 22.8467C13.7159 22.954 13.9569 23.0069 14.2001 23.001C14.383 23.0254 14.5689 23.0104 14.7456 22.9571C14.9222 22.9038 15.0853 22.8133 15.2242 22.6918C15.363 22.5703 15.4742 22.4205 15.5504 22.2525C15.6266 22.0845 15.666 21.9021 15.666 21.7176C15.666 21.5331 15.6266 21.3508 15.5504 21.1828C15.4742 21.0147 15.363 20.865 15.2242 20.7434C15.0853 20.6219 14.9222 20.5315 14.7456 20.4781C14.5689 20.4248 14.383 20.4098 14.2001 20.4342ZM12 19.3342C12.0973 19.3342 12.1905 19.2955 12.2593 19.2268C12.3281 19.158 12.3667 19.0647 12.3667 18.9675C12.3667 18.8702 12.3281 18.777 12.2593 18.7082C12.1905 18.6394 12.0973 18.6008 12 18.6008H10.1666C9.97209 18.6008 9.78555 18.6781 9.64802 18.8156C9.51049 18.9531 9.43322 19.1397 9.43322 19.3342V22.2676C9.43322 22.4621 9.51049 22.6487 9.64802 22.7862C9.78555 22.9237 9.97209 23.001 10.1666 23.001H12C12.0973 23.001 12.1905 22.9624 12.2593 22.8936C12.3281 22.8248 12.3667 22.7316 12.3667 22.6343C12.3667 22.5371 12.3281 22.4438 12.2593 22.375C12.1905 22.3063 12.0973 22.2676 12 22.2676H10.1666V21.1676H11.6333C11.7306 21.1676 11.8238 21.129 11.8926 21.0602C11.9614 20.9914 12 20.8982 12 20.8009C12 20.7037 11.9614 20.6104 11.8926 20.5416C11.8238 20.4729 11.7306 20.4342 11.6333 20.4342H10.1666V19.3342H12ZM8.77319 18.6081C8.67789 18.5891 8.57895 18.6087 8.49809 18.6626C8.41724 18.7166 8.36109 18.8003 8.34197 18.8956L7.81798 21.5145L7.19462 20.2703C7.16074 20.2135 7.11268 20.1664 7.05516 20.1338C6.99763 20.1011 6.9326 20.0839 6.86644 20.0839C6.80028 20.0839 6.73525 20.1011 6.67772 20.1338C6.6202 20.1664 6.57214 20.2135 6.53826 20.2703L5.9149 21.5145L5.39238 18.8942C5.37053 18.8016 5.31361 18.7212 5.23362 18.6698C5.15362 18.6185 5.05681 18.6002 4.96359 18.6188C4.87037 18.6375 4.78803 18.6916 4.73395 18.7698C4.67986 18.848 4.65825 18.9441 4.67368 19.0379L5.40704 22.7047C5.42203 22.7796 5.46006 22.848 5.5158 22.9003C5.57154 22.9525 5.64221 22.9861 5.71795 22.9962C5.79368 23.0064 5.87069 22.9926 5.93821 22.9568C6.00574 22.9211 6.0604 22.8651 6.09457 22.7968L6.86644 21.2541L7.63831 22.7982C7.67237 22.8666 7.72691 22.9226 7.79433 22.9584C7.86175 22.9943 7.93868 23.0082 8.01438 22.9982C8.09009 22.9882 8.16079 22.9549 8.21663 22.9028C8.27246 22.8507 8.31064 22.7825 8.32584 22.7077L9.0592 19.0408C9.06885 18.9936 9.06909 18.945 9.05994 18.8977C9.05078 18.8504 9.0324 18.8054 9.00584 18.7652C8.97928 18.7251 8.94506 18.6905 8.90514 18.6635C8.86522 18.6366 8.82039 18.6178 8.77319 18.6081Z" fill="#667EEA"/>
</svg>
