<?xml version="1.0" encoding="utf-8"?>
<!-- Generator: Adobe Illustrator 25.2.0, SVG Export Plug-In . SVG Version: 6.00 Build 0)  -->
<svg version="1.1" xmlns="http://www.w3.org/2000/svg" xmlns:xlink="http://www.w3.org/1999/xlink" x="0px" y="0px"
	 viewBox="0 0 2133.17 592.99" style="enable-background:new 0 0 2133.17 592.99;" xml:space="preserve">
<style type="text/css">
	.st0{fill:#FFFFFF;}
</style>
<g id="BG_1_">
</g>
<g id="graphics">
	<g>
		<path class="st0" d="M1103.29,103.78v385.19h-87.76L862.5,279.94v209.04H759.66V103.78h92.88l147.91,202.09V103.78H1103.29z"/>
		<path class="st0" d="M1244.93,199.8v61.31h123.78v92.88h-123.78v134.98h-107.06V103.78h245.14v96.02H1244.93z"/>
		<path class="st0" d="M1730.29,199.33h-104.64v289.64h-106.58V199.33h-104.64v-95.55h315.86V199.33z"/>
		<path class="st0" d="M2121.39,296.06c0,112.41-82.54,192.91-198.85,192.91h-155.9V103.78h155.9
			C2039.17,103.78,2121.39,183.5,2121.39,296.06z M2012.6,296.06c0-57.15-38.02-95.1-95.06-95.1h-44.31V391.8h44.31
			C1974.58,391.8,2012.6,352.89,2012.6,296.06z"/>
	</g>
	<g>
		<path class="st0" d="M479.54,583.6c-32.69-0.52-58.15-11.65-79.45-33c-95.37-95.61-190.84-191.12-286.28-286.66
			c-24.65-24.68-49.48-49.17-73.9-74.07C-13.58,135.32,6.99,42.38,78.78,16.55c41.66-14.99,80.27-7.28,111.75,24.01
			c120.71,120,240.88,240.54,361.03,361.1c55.79,55.98,35.02,149.84-38.57,175.67c-5.81,2.04-11.87,3.58-17.93,4.67
			C489.13,583.06,483.05,583.26,479.54,583.6z M476.83,541.04c17.4-0.16,32.14-5.83,44.37-17.49c26.32-25.1,26.26-65.9-0.14-92.34
			C401.5,311.47,281.92,191.78,162.34,72.07c-1.02-1.02-2.04-2.04-3.1-3.01c-23.78-21.83-60.32-22.63-84.57-1.86
			c-28.48,24.39-30.12,67.1-3.36,94.06c32.68,32.94,65.57,65.69,98.37,98.52c86.99,87.07,174.01,174.11,260.95,261.23
			C443.6,534.01,458.98,540.89,476.83,541.04z"/>
		<path class="st0" d="M582.02,371.73c-0.9-1.13-1.7-2.36-2.71-3.37c-58.57-58.61-117.15-117.23-175.77-175.8
			c-24.46-24.44-35.28-53.86-31.99-88.23c4.23-44.2,38.75-82.58,82.34-92.05c60.47-13.14,118.98,26.95,128.27,88.01
			c0.82,5.39,1.09,10.91,1.09,16.37c0.07,83.59,0.05,167.17,0.05,250.76c0,1.24,0,2.49,0,3.73
			C582.87,371.34,582.44,371.54,582.02,371.73z M540.65,269.22c0.11-1.13,0.2-1.65,0.2-2.17c-0.01-51.31,0.52-102.64-0.21-153.94
			c-0.57-40.09-41.02-69.34-79.73-58.81c-47.5,12.92-63.52,71.5-28.89,106.5c35.07,35.45,70.48,70.58,105.75,105.84
			C538.53,267.4,539.38,268.09,540.65,269.22z"/>
		<path class="st0" d="M9.84,221.23c1.54,1.41,2.38,2.13,3.16,2.91c59.3,59.3,118.77,118.44,177.85,177.97
			c49.56,49.93,38.94,131.4-21.36,166.91c-63.29,37.27-145.71-0.91-157.94-73.26c-1.03-6.08-1.64-12.3-1.65-18.46
			c-0.11-83.87-0.07-167.74-0.07-251.6C9.84,224.55,9.84,223.41,9.84,221.23z M52.56,324.02c-0.17,1.03-0.26,1.32-0.26,1.6
			c0,51.28-0.42,102.56,0.14,153.84c0.45,40.99,41.81,70.67,81.18,59.09c46.4-13.64,61.73-71.28,27.76-105.84
			C126.14,396.86,90.37,361.54,54.82,326C54.24,325.42,53.59,324.92,52.56,324.02z"/>
	</g>
</g>
</svg>
