<svg xmlns="http://www.w3.org/2000/svg" width="49" height="49" viewBox="0 0 49 49">
  <g id="Group_110" data-name="Group 110" transform="translate(-1801 -24)">
    <rect id="Rectangle_6" data-name="Rectangle 6" width="49" height="49" rx="24.5" transform="translate(1801 24)" fill="#25242a"/>
    <path id="Exclusion_1" data-name="Exclusion 1" d="M16.576,19.75H6.144a1,1,0,0,1-.862-.494l-5.2-8.876a1,1,0,0,1,0-1.011L5.282.494A1,1,0,0,1,6.144,0H16.576a1,1,0,0,1,.863.494l5.2,8.876a1,1,0,0,1,0,1.011l-5.2,8.876A1,1,0,0,1,16.576,19.75ZM11.361,6.419a3.457,3.457,0,1,0,3.523,3.457A3.495,3.495,0,0,0,11.361,6.419Z" transform="translate(1814.034 38.753)" fill="#fff"/>
  </g>
</svg>
