<svg id="Group_661" data-name="Group 661" xmlns="http://www.w3.org/2000/svg" width="21.219" height="21.219" viewBox="0 0 21.219 21.219">
  <path id="Path_466" data-name="Path 466" d="M20.609,12.861a9.842,9.842,0,0,0,.233-2.142A10.05,10.05,0,0,0,10.722.741,10.355,10.355,0,0,0,8.991.887,5.906,5.906,0,0,0,5.87,0,5.828,5.828,0,0,0,0,5.787,5.7,5.7,0,0,0,.806,8.714,9.889,9.889,0,0,0,.6,10.719,10.051,10.051,0,0,0,10.721,20.7a10.4,10.4,0,0,0,1.854-.167,5.919,5.919,0,0,0,2.776.687,5.828,5.828,0,0,0,5.868-5.786A5.7,5.7,0,0,0,20.609,12.861Zm-4.7,2.627a4.587,4.587,0,0,1-2.057,1.537,8.32,8.32,0,0,1-3.162.55,7.8,7.8,0,0,1-3.624-.751A4.7,4.7,0,0,1,5.4,15.366a3.136,3.136,0,0,1-.647-1.8,1.241,1.241,0,0,1,.422-.94,1.493,1.493,0,0,1,1.057-.387,1.353,1.353,0,0,1,.891.305,2.288,2.288,0,0,1,.593.854A4.935,4.935,0,0,0,8.3,14.41a2.251,2.251,0,0,0,.85.65,3.555,3.555,0,0,0,1.469.259,3.6,3.6,0,0,0,2.038-.524,1.457,1.457,0,0,0,.749-1.245,1.223,1.223,0,0,0-.39-.946,2.79,2.79,0,0,0-1.08-.589c-.46-.141-1.085-.294-1.857-.454a14.839,14.839,0,0,1-2.652-.782A4.373,4.373,0,0,1,5.689,9.525a3.087,3.087,0,0,1-.655-2,3.211,3.211,0,0,1,.687-2.018A4.26,4.26,0,0,1,7.686,4.16,8.7,8.7,0,0,1,10.656,3.7a8.113,8.113,0,0,1,2.362.308,5.229,5.229,0,0,1,1.671.821,3.583,3.583,0,0,1,.984,1.091,2.382,2.382,0,0,1,.317,1.138,1.346,1.346,0,0,1-.415.963,1.4,1.4,0,0,1-1.04.428,1.3,1.3,0,0,1-.871-.268,3.247,3.247,0,0,1-.6-.793,3.325,3.325,0,0,0-.908-1.109,2.878,2.878,0,0,0-1.691-.383,3.2,3.2,0,0,0-1.753.427,1.138,1.138,0,0,0-.627.956.866.866,0,0,0,.2.58,1.791,1.791,0,0,0,.6.452,4.489,4.489,0,0,0,.814.312c.281.077.752.192,1.4.34.82.172,1.572.367,2.237.578a7.17,7.17,0,0,1,1.733.778A3.433,3.433,0,0,1,16.211,11.5a3.523,3.523,0,0,1,.411,1.759,3.756,3.756,0,0,1-.71,2.225Z" fill="#00aff0"/>
</svg>
