<svg xmlns="http://www.w3.org/2000/svg" xmlns:xlink="http://www.w3.org/1999/xlink" width="25.462" height="25.697" viewBox="0 0 25.462 25.697">
  <defs>
    <linearGradient id="linear-gradient" x1="0.422" y1="0.006" x2="0.578" y2="0.994" gradientUnits="objectBoundingBox">
      <stop offset="0.012" stop-color="#00b7f0"/>
      <stop offset="0.339" stop-color="#009de5"/>
      <stop offset="0.755" stop-color="#0082d9"/>
      <stop offset="1" stop-color="#0078d4"/>
    </linearGradient>
    <linearGradient id="linear-gradient-2" x1="0.067" y1="0.751" x2="0.933" y2="0.249" gradientUnits="objectBoundingBox">
      <stop offset="0" stop-color="#0078d4"/>
      <stop offset="0.37" stop-color="#007ad5"/>
      <stop offset="0.573" stop-color="#0082d9"/>
      <stop offset="0.735" stop-color="#0090df"/>
      <stop offset="0.875" stop-color="#00a3e7"/>
      <stop offset="1" stop-color="#00bcf2"/>
    </linearGradient>
    <linearGradient id="linear-gradient-3" x1="0.305" y1="0.161" x2="0.804" y2="1.028" gradientUnits="objectBoundingBox">
      <stop offset="0" stop-color="#00b7f0"/>
      <stop offset="1" stop-color="#007cc1"/>
    </linearGradient>
  </defs>
  <g id="Skype_logo__2019_present_" data-name="Skype_logo_(2019–present)" transform="translate(-381.726 -337.143)">
    <path id="Path_421" data-name="Path 421" d="M48.339,40.811a7.5,7.5,0,1,1-7.5-7.478,7.49,7.49,0,0,1,7.5,7.478" transform="translate(348.393 303.81)" fill="url(#linear-gradient)"/>
    <path id="Path_422" data-name="Path 422" d="M455.044,458.614a7.505,7.505,0,1,1-7.505-7.481,7.493,7.493,0,0,1,7.505,7.481" transform="translate(-47.856 -103.254)" fill="url(#linear-gradient-2)"/>
    <path id="Path_423" data-name="Path 423" d="M34.4,43.627a7.5,7.5,0,1,0,8.409-8.06,13.633,13.633,0,0,0-8.409,8.06Z" transform="translate(347.354 301.634)" fill-rule="evenodd" opacity="0.05"/>
    <path id="Path_424" data-name="Path 424" d="M455,456.255a7.5,7.5,0,1,0-8.166,7.987A13.633,13.633,0,0,0,455,456.254Z" transform="translate(-47.836 -101.432)" fill-rule="evenodd" opacity="0.05"/>
    <path id="Path_425" data-name="Path 425" d="M48.067,61.218a7.5,7.5,0,1,0,9.763-9.351A12.757,12.757,0,0,0,48.067,61.218Z" transform="translate(334.038 285.752)" fill-rule="evenodd" opacity="0.1"/>
    <path id="Path_426" data-name="Path 426" d="M454.657,454.767a7.5,7.5,0,1,0-9.587,9.37A12.757,12.757,0,0,0,454.657,454.767Z" transform="translate(-47.829 -101.702)" fill-rule="evenodd" opacity="0.1"/>
    <path id="Path_427" data-name="Path 427" d="M58.8,73.456A7.5,7.5,0,1,0,68.988,63.7,12.324,12.324,0,0,0,58.8,73.456Z" transform="translate(323.581 274.223)" fill-rule="evenodd" opacity="0.1"/>
    <path id="Path_428" data-name="Path 428" d="M454.361,454.141a7.5,7.5,0,1,0-10.033,9.8A12.323,12.323,0,0,0,454.361,454.141Z" transform="translate(-47.811 -101.8)" fill-rule="evenodd" opacity="0.1"/>
    <path id="Path_429" data-name="Path 429" d="M90.133,86.444A11.883,11.883,0,1,1,78.25,74.6,11.864,11.864,0,0,1,90.133,86.444" transform="translate(316.208 263.603)" fill="url(#linear-gradient-3)"/>
    <path id="Path_430" data-name="Path 430" d="M339.117,266.1a3.734,3.734,0,0,1-1.171-1.235,3.414,3.414,0,0,1-.4-1.707,3.068,3.068,0,0,1,.723-2.066,4.351,4.351,0,0,1,1.884-1.259,7.277,7.277,0,0,1,2.467-.415,9.582,9.582,0,0,1,1.641.126,5.93,5.93,0,0,1,1.138.294,2.206,2.206,0,0,1,.891.569,1.152,1.152,0,0,1,.275.765,1.109,1.109,0,0,1-.29.8.963.963,0,0,1-.727.3,1.309,1.309,0,0,1-.54-.122,9.8,9.8,0,0,0-1.287-.471,4.672,4.672,0,0,0-1.24-.154,2.831,2.831,0,0,0-1.554.4,1.293,1.293,0,0,0-.62,1.161,1.168,1.168,0,0,0,.322.816,2.935,2.935,0,0,0,.868.621q.546.271,1.627.718a1.682,1.682,0,0,1,.233.093,11.561,11.561,0,0,1,2.015,1.036,4.061,4.061,0,0,1,1.24,1.273,3.358,3.358,0,0,1,.448,1.768,3.556,3.556,0,0,1-.62,2.131,3.687,3.687,0,0,1-1.735,1.287,7.311,7.311,0,0,1-2.607.425,8.214,8.214,0,0,1-3.554-.672,1.934,1.934,0,0,1-.732-.569,1.279,1.279,0,0,1-.238-.774,1.012,1.012,0,0,1,.313-.788,1.152,1.152,0,0,1,.806-.284,2.062,2.062,0,0,1,.942.242q.541.271.854.406a4.287,4.287,0,0,0,.737.233,4.212,4.212,0,0,0,.947.1,2.527,2.527,0,0,0,1.591-.424,1.4,1.4,0,0,0,.536-1.161,1.234,1.234,0,0,0-.336-.848,3.569,3.569,0,0,0-.988-.72q-.654-.344-1.838-.839a11.386,11.386,0,0,1-2.019-1.049" transform="translate(52 83.536)" fill="#fff" fill-rule="evenodd"/>
  </g>
</svg>
