<svg xmlns="http://www.w3.org/2000/svg" width="23.997" height="19.497" viewBox="0 0 23.997 19.497">
  <g id="Group_658" data-name="Group 658" transform="translate(0 -48)">
    <path id="Path_465" data-name="Path 465" d="M24,50.308a10.257,10.257,0,0,1-2.835.777,4.892,4.892,0,0,0,2.164-2.719,9.831,9.831,0,0,1-3.12,1.191,4.919,4.919,0,0,0-8.51,3.364,5.066,5.066,0,0,0,.114,1.122A13.925,13.925,0,0,1,1.671,48.9a4.921,4.921,0,0,0,1.512,6.575A4.858,4.858,0,0,1,.96,54.866v.054A4.942,4.942,0,0,0,4.9,59.754a4.91,4.91,0,0,1-1.29.162,4.35,4.35,0,0,1-.931-.084,4.966,4.966,0,0,0,4.6,3.427,9.885,9.885,0,0,1-6.1,2.1A9.213,9.213,0,0,1,0,65.29,13.85,13.85,0,0,0,7.547,67.5a13.906,13.906,0,0,0,14-14c0-.217-.007-.427-.018-.636A9.814,9.814,0,0,0,24,50.308Z" fill="#00acee"/>
  </g>
</svg>
