<svg width="154" height="256" viewBox="0 0 154 256" fill="none" xmlns="http://www.w3.org/2000/svg">
<path d="M50.6432 208.091H34.6129V211.954H50.6432V208.091Z" fill="#E6D4A1"/>
<path d="M50.5863 133.203H34.6699V138.319H50.5863V133.203Z" fill="#E6D4A1"/>
<path d="M43.0001 0L42.6224 234.774" stroke="url(#paint0_linear_26_2262)" stroke-width="0.84" stroke-miterlimit="10"/>
<path d="M42.6223 209.572C66.162 209.572 85.2447 193.484 85.2447 173.638C85.2447 153.792 66.162 137.703 42.6223 137.703C19.0827 137.703 0 153.792 0 173.638C0 193.484 19.0827 209.572 42.6223 209.572Z" fill="url(#paint1_linear_26_2262)"/>
<path d="M42.6224 209.356C62.2041 209.356 78.0783 193.364 78.0783 173.638C78.0783 153.911 62.2041 137.92 42.6224 137.92C23.0406 137.92 7.16641 153.911 7.16641 173.638C7.16641 193.364 23.0406 209.356 42.6224 209.356Z" stroke="#E6D4A1" stroke-width="0.84" stroke-miterlimit="10"/>
<path d="M42.6224 209.356C57.0192 209.356 68.6902 193.364 68.6902 173.638C68.6902 153.911 57.0192 137.92 42.6224 137.92C28.2255 137.92 16.5545 153.911 16.5545 173.638C16.5545 193.364 28.2255 209.356 42.6224 209.356Z" stroke="#E6D4A1" stroke-width="0.84" stroke-miterlimit="10"/>
<path d="M42.6223 209.356C51.6896 209.356 59.0401 193.364 59.0401 173.638C59.0401 153.911 51.6896 137.92 42.6223 137.92C33.555 137.92 26.2046 153.911 26.2046 173.638C26.2046 193.364 33.555 209.356 42.6223 209.356Z" stroke="#E6D4A1" stroke-width="0.84" stroke-miterlimit="10"/>
<path d="M48.8316 173.638C48.8316 193.371 46.0516 209.356 42.6222 209.356C39.1928 209.356 36.4129 193.36 36.4129 173.638C36.4129 153.916 39.1928 137.92 42.6222 137.92C46.0516 137.92 48.8316 153.916 48.8316 173.638Z" stroke="#E6D4A1" stroke-width="0.84" stroke-miterlimit="10"/>
<path d="M45.7555 245.906H39.4892V233.43C39.4892 231.698 40.8906 230.297 42.6224 230.297C44.3542 230.297 45.7555 231.698 45.7555 233.43V245.906Z" fill="#E6D4A1"/>
<path d="M40.4007 243.399H39.4892V256H40.4007V243.399Z" fill="#E6D4A1"/>
<path d="M42.1893 243.399H41.2779V256H42.1893V243.399Z" fill="#E6D4A1"/>
<path d="M43.9782 243.399H43.0667V256H43.9782V243.399Z" fill="#E6D4A1"/>
<path d="M45.7669 243.399H44.8554V256H45.7669V243.399Z" fill="#E6D4A1"/>
<path d="M128.451 143.161H116.716V145.986H128.451V143.161Z" fill="#E6D4A1"/>
<path d="M128.406 88.3249H116.75V92.0733H128.406V88.3249Z" fill="#E6D4A1"/>
<path d="M122.584 0L122.584 162.689" stroke="url(#paint2_linear_26_2262)" stroke-width="0.84" stroke-miterlimit="10"/>
<path d="M122.584 144.232C139.819 144.232 153.79 132.454 153.79 117.925C153.79 103.396 139.819 91.6175 122.584 91.6175C105.349 91.6175 91.3776 103.396 91.3776 117.925C91.3776 132.454 105.349 144.232 122.584 144.232Z" fill="url(#paint3_linear_26_2262)"/>
<path d="M122.584 144.072C136.918 144.072 148.538 132.366 148.538 117.925C148.538 103.484 136.918 91.7771 122.584 91.7771C108.25 91.7771 96.6298 103.484 96.6298 117.925C96.6298 132.366 108.25 144.072 122.584 144.072Z" stroke="#E6D4A1" stroke-width="0.62" stroke-miterlimit="10"/>
<path d="M122.584 144.072C133.123 144.072 141.668 132.366 141.668 117.925C141.668 103.484 133.123 91.7771 122.584 91.7771C112.044 91.7771 103.5 103.484 103.5 117.925C103.5 132.366 112.044 144.072 122.584 144.072Z" stroke="#E6D4A1" stroke-width="0.62" stroke-miterlimit="10"/>
<path d="M122.584 144.072C129.222 144.072 134.604 132.366 134.604 117.925C134.604 103.484 129.222 91.7771 122.584 91.7771C115.945 91.7771 110.564 103.484 110.564 117.925C110.564 132.366 115.945 144.072 122.584 144.072Z" stroke="#E6D4A1" stroke-width="0.62" stroke-miterlimit="10"/>
<path d="M127.13 117.925C127.13 132.371 125.09 144.072 122.584 144.072C120.077 144.072 118.038 132.36 118.038 117.925C118.038 103.489 120.077 91.7771 122.584 91.7771C125.09 91.7771 127.13 103.489 127.13 117.925Z" stroke="#E6D4A1" stroke-width="0.62" stroke-miterlimit="10"/>
<path d="M124.874 170.847H120.282V161.709C120.282 160.444 121.308 159.419 122.572 159.419C123.837 159.419 124.862 160.444 124.862 161.709V170.847H124.874Z" fill="#E6D4A1"/>
<path d="M120.955 169.001H120.294V178.229H120.955V169.001Z" fill="#E6D4A1"/>
<path d="M122.253 169.001H121.593V178.229H122.253V169.001Z" fill="#E6D4A1"/>
<path d="M123.564 169.001H122.903V178.229H123.564V169.001Z" fill="#E6D4A1"/>
<path d="M124.874 169.001H124.213V178.229H124.874V169.001Z" fill="#E6D4A1"/>
<defs>
<linearGradient id="paint0_linear_26_2262" x1="42.8112" y1="0" x2="42.8112" y2="234.774" gradientUnits="userSpaceOnUse">
<stop stop-color="#2F1C4B"/>
<stop offset="0.335" stop-color="#E6D4A1"/>
<stop offset="1" stop-color="#E6D4A1"/>
</linearGradient>
<linearGradient id="paint1_linear_26_2262" x1="33.9293" y1="136.644" x2="52.5117" y2="215.702" gradientUnits="userSpaceOnUse">
<stop stop-color="#C34D9E"/>
<stop offset="0.16" stop-color="#AC408A"/>
<stop offset="0.55" stop-color="#78235C"/>
<stop offset="0.84" stop-color="#58113F"/>
<stop offset="1" stop-color="#4C0B35"/>
</linearGradient>
<linearGradient id="paint2_linear_26_2262" x1="123.084" y1="0" x2="123.084" y2="162.689" gradientUnits="userSpaceOnUse">
<stop stop-color="#2F1C4B"/>
<stop offset="0.335" stop-color="#E6D4A1"/>
<stop offset="1" stop-color="#E6D4A1"/>
</linearGradient>
<linearGradient id="paint3_linear_26_2262" x1="116.215" y1="90.8542" x2="129.819" y2="148.732" gradientUnits="userSpaceOnUse">
<stop stop-color="#C34D9E"/>
<stop offset="0.16" stop-color="#AC408A"/>
<stop offset="0.55" stop-color="#78235C"/>
<stop offset="0.84" stop-color="#58113F"/>
<stop offset="1" stop-color="#4C0B35"/>
</linearGradient>
</defs>
</svg>
