<svg width="100" height="97" viewBox="0 0 100 97" fill="none" xmlns="http://www.w3.org/2000/svg">
<g id="Group 14058">
<path id="Vector" d="M0.0142342 54.6966C0.0696526 53.7434 0.202657 52.7902 0.402163 51.8591C0.790091 49.986 1.42186 48.1904 2.23097 46.4946L2.54131 45.8629L2.85165 45.2533L3.47234 44.0452C3.68293 43.6461 3.9046 43.236 4.11519 42.837C4.33686 42.438 4.55854 42.0279 4.78021 41.6289C5.68907 40.0329 6.6866 38.459 7.82822 36.9738C8.95875 35.4886 10.2223 34.0809 11.5967 32.8063C11.774 32.6511 11.9403 32.4849 12.1176 32.3297L12.6607 31.8753C13.0265 31.576 13.3701 31.2657 13.758 30.9886L14.3232 30.5674L14.6114 30.3568L14.7555 30.246L14.8996 30.1462L16.0745 29.3704C16.2629 29.2374 16.4735 29.1265 16.6841 29.0046L17.2937 28.6499C17.4932 28.5391 17.7038 28.4061 17.9033 28.2953L18.535 27.9738L18.8454 27.8076L19.1668 27.6524L19.8097 27.3531L20.4525 27.0761C20.6631 26.9874 20.8848 26.8876 21.1065 26.81C22.8577 26.1118 24.6643 25.5687 26.5042 25.1918C27.4241 25.0034 28.3552 24.8593 29.2862 24.7485L29.9734 24.6709C30.2061 24.6487 30.4389 24.6266 30.6717 24.6044C31.1372 24.5601 31.6138 24.5379 32.0904 24.5268C33.9857 24.4714 35.9253 24.5822 37.865 25.1586C38.1088 25.2362 38.3526 25.3138 38.5854 25.4024C38.8292 25.5022 39.0731 25.5908 39.2947 25.7017C39.7492 25.9123 40.1814 26.1339 40.6026 26.3778C41.0238 26.6216 41.4339 26.8766 41.8218 27.1426C41.8662 27.1758 41.9105 27.198 41.9548 27.2312C44.7479 23.762 47.7848 20.4924 51.0767 17.4887C54.69 14.2079 58.6247 11.2597 62.8365 8.78801C67.0482 6.30527 71.526 4.29912 76.159 2.80283C77.3228 2.42598 78.4977 2.09347 79.6947 1.81638C80.8917 1.52821 82.0888 1.29545 83.3191 1.1292C85.7575 0.807769 88.2624 0.763435 90.7008 1.16245L91.5321 1.29545L91.1885 2.02697C90.7673 2.92475 90.2796 3.80036 89.7587 4.63163C89.2156 5.46291 88.6392 6.26093 88.0185 7.02571C87.8634 7.21413 87.6971 7.40255 87.5419 7.59097L87.2981 7.86806L87.0432 8.13407C86.8769 8.31141 86.7107 8.49983 86.5444 8.67717L86.0235 9.1981C85.8572 9.37544 85.6688 9.5417 85.4915 9.70795C85.3141 9.87421 85.1368 10.0405 84.9484 10.2067C84.5826 10.5281 84.2168 10.8496 83.84 11.1599C82.3326 12.4013 80.7477 13.5207 79.0962 14.5515C77.4558 15.5823 75.7822 16.5466 74.0864 17.4776C75.7046 16.4247 77.3228 15.3606 78.8856 14.2301C80.4595 13.1106 81.9669 11.9247 83.3745 10.6279C83.7292 10.3065 84.0728 9.97396 84.4164 9.64145C84.5826 9.4752 84.7489 9.29786 84.9151 9.1316C85.0814 8.95426 85.2476 8.78801 85.4028 8.61067L85.8794 8.07865C86.0346 7.90132 86.1897 7.71289 86.3449 7.53555L86.5777 7.25846L86.7993 6.98137C86.9434 6.79295 87.0986 6.60453 87.2316 6.4161C87.7969 5.65133 88.3178 4.86439 88.7944 4.05528C89.1158 3.49002 89.4151 2.90258 89.6922 2.31515C87.6417 2.15998 85.5801 2.2819 83.5407 2.63657C81.2353 3.04667 78.9521 3.67844 76.7243 4.47646C72.2576 6.06143 67.9682 8.13407 63.9448 10.6279C62.9473 11.2597 61.9498 11.8914 60.9855 12.5786C60.4978 12.9111 60.0212 13.2658 59.5335 13.6094L58.8242 14.1414C58.5914 14.3188 58.3476 14.4961 58.1148 14.6734C56.2417 16.1143 54.4461 17.6549 52.7171 19.2732C49.259 22.5096 46.1001 26.0564 43.1962 29.8137L42.3982 30.8445L41.3674 30.0354C41.057 29.7916 40.7024 29.5366 40.3588 29.3039C40.0041 29.0711 39.6494 28.8494 39.2947 28.6389C38.929 28.4393 38.5632 28.2398 38.1975 28.0736C38.009 27.9849 37.8317 27.9184 37.6544 27.8519C37.477 27.7854 37.2886 27.73 37.1002 27.6635C36.3354 27.4418 35.5263 27.2977 34.7061 27.2201C33.8748 27.1426 33.0325 27.1315 32.179 27.1536C31.7579 27.1647 31.3256 27.198 30.8933 27.2312C30.6827 27.2423 30.4611 27.2756 30.2505 27.2866L29.5965 27.3642C28.732 27.464 27.8897 27.597 27.0362 27.7743C25.3515 28.1179 23.6889 28.6056 22.0929 29.2485C21.8934 29.326 21.6939 29.4036 21.4944 29.4923L20.8959 29.7472L20.3084 30.0243L20.0203 30.1573L19.7321 30.3014L19.1557 30.6007C18.9673 30.7004 18.7789 30.8113 18.5905 30.9221L18.0363 31.2435C17.8479 31.3544 17.6594 31.4541 17.4821 31.576L16.407 32.2854L16.274 32.3741L16.141 32.4738L15.886 32.6622L15.3651 33.0502C15.0104 33.294 14.689 33.5822 14.3565 33.8482L13.8577 34.2583C13.7026 34.4024 13.5363 34.5464 13.3811 34.6905C12.1065 35.8543 10.9427 37.1289 9.8787 38.5033C8.81467 39.8777 7.85039 41.3407 6.96369 42.8592C6.74202 43.2471 6.52035 43.624 6.30976 44.0119C6.09917 44.3998 5.87749 44.7878 5.6669 45.1757L5.03513 46.3616L4.72479 46.9602L4.43662 47.5365C3.68293 49.0771 3.07333 50.6954 2.70757 52.3468C2.51914 53.1781 2.38614 54.0094 2.31964 54.8517C2.25313 55.683 2.24205 56.5475 2.31964 57.3566C2.39722 58.1657 2.56348 58.9305 2.87382 59.6288C2.95141 59.8061 3.04008 59.9724 3.12875 60.1497C3.21741 60.316 3.31717 60.4711 3.41692 60.6263C3.62751 60.9367 3.88243 61.2359 4.17061 61.5241C4.4477 61.8123 4.75804 62.0894 5.07947 62.3443C5.23464 62.4773 5.41198 62.5992 5.57823 62.7211C5.75557 62.8431 5.92183 62.965 6.09917 63.0869C6.27651 63.1977 6.45384 63.3196 6.63118 63.4305C6.71985 63.4859 6.80852 63.5413 6.89719 63.5857L7.17428 63.7408C7.35162 63.8406 7.55113 63.9292 7.73955 64.029C7.92797 64.1177 8.12748 64.2063 8.3159 64.295C9.8787 64.9822 11.5745 65.492 13.2814 65.8911C14.9994 66.2901 16.7506 66.6004 18.5129 66.8332C20.2752 67.0548 22.0486 67.21 23.822 67.2765L24.5646 67.2987L24.5424 68.008C24.5091 69.1607 24.5646 70.3245 24.7086 71.4772C24.7751 72.0536 24.8749 72.6188 24.9857 73.1841C25.0966 73.7494 25.2517 74.3257 25.3847 74.9132L25.7838 76.6755L25.9389 77.5732L26.0165 78.0166L26.0719 78.471C26.1052 78.7703 26.1495 79.0695 26.1939 79.3688L26.2714 80.2777C26.3047 80.5769 26.3158 80.8762 26.3269 81.1865L26.349 81.6409V81.8626V82.0843V82.9931C26.349 83.2924 26.3269 83.5917 26.3158 83.902L26.2936 84.3564L26.2604 84.8109C26.2382 85.1101 26.216 85.4094 26.1828 85.7086C26.0609 86.9057 25.8613 88.0916 25.6397 89.2665C25.1742 91.6162 24.5535 93.9216 23.9328 96.216C24.1655 95.0411 24.3983 93.8773 24.62 92.7024C24.8306 91.5276 25.0301 90.3638 25.1963 89.1778C25.3515 88.003 25.4845 86.8281 25.5399 85.6421C25.5621 85.3429 25.5621 85.0547 25.5732 84.7555V84.3121V83.8688C25.5732 83.5695 25.5732 83.2813 25.5621 82.9821L25.5177 82.1065V81.8848L25.4845 81.6631L25.4402 81.2198C25.418 80.9316 25.3958 80.6323 25.3515 80.3442L25.2407 79.4685C25.1963 79.1804 25.1409 78.8922 25.0855 78.604L25.0079 78.1718L24.9081 77.7395L24.7197 76.886L24.2542 75.1792C24.099 74.6139 23.9217 74.0376 23.7776 73.439C23.6224 72.8516 23.5005 72.242 23.4008 71.6324C23.2456 70.657 23.1458 69.6817 23.1126 68.7063C21.5165 68.6841 19.9316 68.6066 18.3355 68.4514C17.4267 68.3627 16.5178 68.2519 15.609 68.1189C14.7001 67.9859 13.8023 67.8307 12.8935 67.6534C11.0868 67.2765 9.29126 66.7999 7.54004 66.0906C7.31837 66.0019 7.10778 65.9021 6.88611 65.8135C6.67552 65.7137 6.45384 65.614 6.24325 65.5031C5.81099 65.2925 5.38981 65.0376 4.9908 64.7827C4.7913 64.6608 4.59179 64.5167 4.39228 64.3837C4.19278 64.2396 3.99327 64.1066 3.80485 63.9514C3.41692 63.6632 3.04008 63.3418 2.6854 62.9871C2.33072 62.6435 1.98713 62.2556 1.67678 61.8344C1.52161 61.6238 1.37752 61.3911 1.24452 61.1694C1.1226 60.9477 1.00068 60.7261 0.889844 60.4933C0.668171 60.0278 0.501915 59.529 0.368911 59.0414C0.235907 58.5426 0.147238 58.0549 0.0918196 57.5561C-0.0190171 56.5697 -0.0190162 55.6165 0.0364021 54.6633L0.0142342 54.6966Z" fill="#893F03"/>
<path id="Vector_2" d="M94.2476 24.0947C94.0259 24.2498 93.7821 24.405 93.5493 24.5491C93.3166 24.6932 93.0838 24.8484 92.84 24.9814L92.1195 25.4025L91.388 25.7905C91.1442 25.9235 90.8892 26.0343 90.6454 26.1562C90.3905 26.2782 90.1466 26.4001 89.8917 26.5109L89.1269 26.8545C88.872 26.9653 88.6171 27.0651 88.3622 27.1648L87.9742 27.32L87.5863 27.4641L86.8105 27.7523C86.2895 27.9296 85.7686 28.118 85.2366 28.2732L84.4385 28.517L83.6516 28.7498C83.1196 28.905 82.5876 29.0491 82.0556 29.1821C79.9275 29.7473 77.7884 30.2239 75.6603 30.6784C71.3931 31.5761 67.1369 32.352 62.9917 33.4271C61.9498 33.6931 60.919 33.9702 59.9104 34.2806C58.8907 34.5909 57.8821 34.9123 56.8735 35.267C55.3328 35.8101 53.8033 36.3975 52.2959 37.0404C52.3181 37.0736 52.3403 37.0958 52.3624 37.1291C52.44 37.251 52.5176 37.3618 52.6063 37.4948C52.6949 37.6278 52.7725 37.7719 52.8501 37.9049C53.0053 38.182 53.1383 38.4702 53.2491 38.7584C53.4819 39.3458 53.626 39.9443 53.7257 40.5207C53.8255 41.097 53.8809 41.6512 53.9474 42.1721L54.0361 42.948C54.0693 43.1918 54.1026 43.4357 54.1469 43.6684C54.2356 44.1339 54.3686 44.5662 54.557 44.943C54.6567 45.1315 54.7676 45.3088 54.8784 45.4529C55.0003 45.597 55.1444 45.7411 55.3218 45.8852C55.6653 46.1622 56.0865 46.395 56.541 46.6056C56.9954 46.8162 57.4831 47.0268 57.9708 47.2041C58.4584 47.3925 58.9461 47.5588 59.4449 47.714C60.4424 48.0243 61.4621 48.2681 62.504 48.4455C63.0249 48.5342 63.5458 48.6007 64.0668 48.645C64.3328 48.6672 64.5988 48.6893 64.8537 48.7004C65.1197 48.7226 65.3857 48.7337 65.6517 48.7337C66.1838 48.7447 66.7158 48.7558 67.2589 48.7558H68.8771C68.3451 48.8445 67.8131 48.9332 67.281 49.0218C66.749 49.1105 66.217 49.1881 65.6739 49.2435C64.5988 49.3654 63.5015 49.4098 62.4042 49.3654C61.8611 49.3433 61.3069 49.2989 60.7638 49.2213C60.2207 49.1548 59.6776 49.0551 59.1345 48.9553C58.5914 48.8445 58.0594 48.7115 57.5274 48.5674C57.2614 48.4898 56.9954 48.4122 56.7294 48.3346C56.4634 48.2571 56.1974 48.1684 55.9314 48.0686C55.3993 47.8691 54.8452 47.6253 54.3242 47.2817C54.0582 47.1044 53.8033 46.9049 53.5595 46.6499C53.3156 46.395 53.1161 46.129 52.9499 45.8408C52.6173 45.2756 52.3957 44.6881 52.2405 44.1118C52.1629 43.8236 52.0964 43.5354 52.041 43.2583L51.8969 42.4492C51.7972 41.9061 51.7196 41.4074 51.6087 40.9308C51.4979 40.4542 51.3538 40.0108 51.1765 39.6118C51.0878 39.4123 50.988 39.2128 50.8661 39.0244C50.8107 38.9246 50.7442 38.847 50.6888 38.7473C50.6223 38.6586 50.5447 38.5478 50.4782 38.448C50.1789 38.049 49.8575 37.6722 49.525 37.3175L48.4277 36.1537L49.9018 35.4333C51.8858 34.4579 53.9141 33.5712 55.9979 32.8064C57.0286 32.4185 58.0816 32.0527 59.1456 31.7202C60.2097 31.3877 61.2737 31.0995 62.3377 30.8114C66.616 29.7141 70.9386 28.9936 75.2169 28.2621C77.3561 27.8964 79.4841 27.5306 81.59 27.1094C82.643 26.8878 83.707 26.6772 84.7378 26.4222C85.2587 26.3003 85.7686 26.1562 86.2895 26.0343L87.0654 25.8126L87.4533 25.7018L87.8301 25.5799C88.8498 25.2695 89.8585 24.9149 90.856 24.5269C91.8535 24.139 92.8178 23.6957 93.771 23.208C94.0037 23.0861 94.2476 22.9641 94.4803 22.8311L95.1786 22.4321C95.6331 22.155 96.0986 21.8669 96.5419 21.5676C96.6527 21.49 96.7636 21.4235 96.8744 21.3348L97.1959 21.091L97.5284 20.8582C97.6392 20.7807 97.7389 20.692 97.8498 20.6144C98.282 20.293 98.6811 19.9272 99.0912 19.5836L99.0136 19.5282L99.1133 19.5725H99.1244V19.5836C97.7722 21.2905 96.1096 22.7979 94.2698 24.0392L94.2476 24.0947Z" fill="#893F03"/>
<path id="Vector_3" d="M0.878797 53.8209C0.934215 52.8677 1.06722 51.9145 1.26673 50.9835C1.65465 49.1104 2.28642 47.3148 3.09553 45.619L3.40587 44.9872L3.71622 44.3776L4.3369 43.1695C4.54749 42.7705 4.76916 42.3604 4.97975 41.9614C5.20143 41.5624 5.4231 41.1523 5.64477 40.7533C6.55364 39.1572 7.55117 37.5833 8.69278 36.0981C9.82332 34.6129 11.0869 33.2053 12.4612 31.9307C12.6386 31.7755 12.8048 31.6092 12.9822 31.4541L13.5253 30.9996C13.891 30.7004 14.2346 30.39 14.6225 30.113L15.1878 29.6918L15.476 29.4812L15.6201 29.3703L15.7642 29.2706L16.939 28.4947C17.1275 28.3617 17.338 28.2509 17.5486 28.129L18.1582 27.7743C18.3577 27.6635 18.5683 27.5305 18.7678 27.4196L19.3996 27.0982L19.7099 26.9319L20.0314 26.7768L20.6742 26.4775L21.3171 26.2004C21.5277 26.1117 21.7493 26.012 21.971 25.9344C23.7222 25.2361 25.5289 24.693 27.3688 24.3162C28.2887 24.1278 29.2197 23.9837 30.1508 23.8728L30.8379 23.7953C31.0707 23.7731 31.3035 23.7509 31.5362 23.7288C32.0017 23.6844 32.4783 23.6623 32.9549 23.6512C34.8502 23.5958 36.7899 23.7066 38.7295 24.2829C38.9734 24.3605 39.2172 24.4381 39.45 24.5268C39.6938 24.6265 39.9376 24.7152 40.1593 24.826C40.6137 25.0366 41.046 25.2583 41.4672 25.5021C41.8884 25.746 42.2985 26.0009 42.6864 26.2669C42.7307 26.3002 42.7751 26.3223 42.8194 26.3556C45.6125 22.8864 48.6494 19.6167 51.9412 16.613C55.5545 13.3323 59.4892 10.384 63.701 7.91237C67.9128 5.42963 72.3906 3.42348 77.0236 1.92719C78.1874 1.55034 79.3622 1.21783 80.5593 0.940742C81.7563 0.652567 82.9533 0.41981 84.1836 0.253555C86.622 -0.0678715 89.1269 -0.112206 91.5654 0.286806L92.3966 0.41981L92.053 1.15133C91.6319 2.04911 91.1442 2.92472 90.6232 3.75599C90.0801 4.58727 89.5038 5.38529 88.8831 6.15006C88.7279 6.33849 88.5617 6.52691 88.4065 6.71533L88.1627 6.99242L87.9077 7.25843C87.7415 7.43577 87.5752 7.62419 87.409 7.80153L86.888 8.32246C86.7218 8.4998 86.5334 8.66606 86.356 8.83231C86.1787 8.99857 86.0014 9.16482 85.8129 9.33108C85.4472 9.6525 85.0814 9.97393 84.7046 10.2843C83.1972 11.5256 81.6122 12.6451 79.9607 13.6759C78.3204 14.7067 76.6467 15.6709 74.9509 16.602C76.5692 15.549 78.1874 14.485 79.7502 13.3544C81.3241 12.235 82.8314 11.049 84.239 9.75226C84.5937 9.43083 84.9373 9.09832 85.2809 8.76581C85.4472 8.59956 85.6134 8.42222 85.7797 8.25596C85.9459 8.07862 86.1122 7.91237 86.2674 7.73503L86.744 7.20301C86.8991 7.02567 87.0543 6.83725 87.2095 6.65991L87.4422 6.38282L87.6639 6.10573C87.808 5.91731 87.9632 5.72889 88.0962 5.54046C88.6614 4.77569 89.1824 3.98875 89.659 3.17964C89.9804 2.61438 90.2796 2.02694 90.5567 1.43951C88.5063 1.28434 86.4447 1.40626 84.4053 1.76093C82.0999 2.17103 79.8167 2.8028 77.5888 3.60082C73.1221 5.18579 68.8328 7.25843 64.8094 9.75226C63.8119 10.384 62.8143 11.0158 61.85 11.703C61.3624 12.0355 60.8858 12.3902 60.3981 12.7338L59.6887 13.2658C59.456 13.4431 59.2121 13.6205 58.9794 13.7978C57.1062 15.2387 55.3107 16.7793 53.5816 18.3975C50.1235 21.6339 46.9647 25.1807 44.0608 28.9381L43.2627 29.9689L42.232 29.1598C41.9216 28.9159 41.5669 28.661 41.2233 28.4282C40.8687 28.1955 40.514 27.9738 40.1593 27.7632C39.7935 27.5637 39.4278 27.3642 39.062 27.1979C38.8736 27.1093 38.6963 27.0428 38.5189 26.9763C38.3416 26.9098 38.1532 26.8544 37.9647 26.7879C37.2 26.5662 36.3909 26.4221 35.5707 26.3445C34.7394 26.2669 33.897 26.2558 33.0436 26.278C32.6224 26.2891 32.1902 26.3223 31.7579 26.3556C31.5473 26.3667 31.3256 26.3999 31.115 26.411L30.4611 26.4886C29.5966 26.5883 28.7542 26.7213 27.9008 26.8987C26.2161 27.2423 24.5535 27.73 22.9575 28.3728C22.758 28.4504 22.5584 28.528 22.3589 28.6167L21.7604 28.8716L21.173 29.1487L20.8848 29.2817L20.5966 29.4258L20.0203 29.725C19.8319 29.8248 19.6434 29.9356 19.455 30.0464L18.9008 30.3679C18.7124 30.4787 18.524 30.5785 18.3467 30.7004L17.2715 31.4097L17.1385 31.4984L17.0055 31.5982L16.7506 31.7866L16.2297 32.1745C15.875 32.4184 15.5536 32.7065 15.2211 32.9725L14.7223 33.3826C14.5671 33.5267 14.4009 33.6708 14.2457 33.8149C12.9711 34.9787 11.8073 36.2533 10.7433 37.6277C9.67923 39.002 8.71495 40.4651 7.82826 41.9836C7.60658 42.3715 7.38491 42.7483 7.17432 43.1363C6.96373 43.5242 6.74206 43.9121 6.53147 44.3L5.8997 45.486L5.58935 46.0845L5.30118 46.6609C4.54749 48.2015 3.93789 49.8197 3.57213 51.4712C3.38371 52.3024 3.2507 53.1337 3.1842 53.9761C3.1177 54.8074 3.10661 55.6719 3.1842 56.481C3.26179 57.2901 3.42804 58.0549 3.73838 58.7531C3.81597 58.9305 3.90464 59.0967 3.99331 59.2741C4.08198 59.4403 4.18173 59.5955 4.28148 59.7507C4.49207 60.061 4.747 60.3603 5.03517 60.6484C5.31226 60.9366 5.62261 61.2137 5.94403 61.4686C6.0992 61.6016 6.27654 61.7236 6.4428 61.8455C6.62014 61.9674 6.78639 62.0893 6.96373 62.2112C7.14107 62.3221 7.31841 62.444 7.49575 62.5548C7.58442 62.6103 7.67309 62.6657 7.76175 62.71L8.03885 62.8652C8.21619 62.9649 8.41569 63.0536 8.60411 63.1534C8.79254 63.242 8.99204 63.3307 9.18046 63.4194C10.7433 64.1066 12.4391 64.6164 14.1459 65.0154C15.8639 65.4144 17.6151 65.7248 19.3774 65.9575C21.1397 66.1792 22.9131 66.3344 24.6865 66.4009L25.4291 66.4341L25.407 67.1435C25.3737 68.2962 25.4291 69.46 25.5732 70.6127C25.6397 71.189 25.7395 71.7543 25.8503 72.3195C25.9611 72.8848 26.1163 73.4612 26.2493 74.0486L26.6483 75.8109L26.8035 76.7087L26.8811 77.152L26.9365 77.6065C26.9697 77.9057 27.0141 78.205 27.0584 78.5042L27.136 79.4131C27.1693 79.7124 27.1803 80.0116 27.1914 80.322L27.2136 80.7764V80.9981V81.2197V82.1286C27.2136 82.4279 27.1914 82.7271 27.1803 83.0375L27.1582 83.4919L27.1249 83.9463C27.1028 84.2456 27.0806 84.5448 27.0473 84.8441C26.9254 86.0411 26.7259 87.2271 26.5042 88.402C26.0387 90.7517 25.418 93.0571 24.7973 95.3514C25.0301 94.1765 25.2629 93.0128 25.4845 91.8379C25.6951 90.663 25.8946 89.4992 26.0609 88.3133C26.2161 87.1384 26.3491 85.9635 26.4045 84.7776C26.4266 84.4783 26.4266 84.1902 26.4377 83.8909V83.4476V83.0042C26.4377 82.7049 26.4377 82.4168 26.4266 82.1175L26.3823 81.2419V81.0202L26.3491 80.7986L26.3047 80.3552C26.2826 80.067 26.2604 79.7678 26.2161 79.4796L26.1052 78.604C26.0609 78.3158 26.0055 78.0276 25.95 77.7395L25.8725 77.3072L25.7727 76.8749L25.5843 76.0215L25.1188 74.3146C24.9636 73.7493 24.7863 73.173 24.6422 72.5745C24.487 71.987 24.3651 71.3774 24.2653 70.7678C24.1102 69.7925 24.0104 68.8171 23.9772 67.8418C22.3811 67.8196 20.7961 67.742 19.2001 67.5868C18.2912 67.4982 17.3824 67.3873 16.4735 67.2543C15.5647 67.1213 14.6669 66.9661 13.758 66.7888C11.9514 66.412 10.1558 65.9354 8.40461 65.226C8.18293 65.1373 7.97234 65.0376 7.75067 64.9489C7.54008 64.8492 7.31841 64.7494 7.10782 64.6386C6.67556 64.428 6.25437 64.1731 5.85536 63.9181C5.65586 63.7962 5.45635 63.6521 5.25685 63.5191C5.05734 63.375 4.85783 63.242 4.66941 63.0869C4.28148 62.7987 3.90464 62.4773 3.54996 62.1226C3.19528 61.779 2.85169 61.3911 2.54135 60.9699C2.38618 60.7593 2.24209 60.5265 2.10908 60.3049C1.98716 60.0832 1.86524 59.8615 1.75441 59.6288C1.53273 59.1632 1.36648 58.6645 1.23347 58.1768C1.10047 57.678 1.0118 57.1903 0.956383 56.6916C0.845547 55.7051 0.845546 54.7519 0.900965 53.7987L0.878797 53.8209Z" fill="#F9F7BB"/>
<path id="Vector_4" d="M95.1232 23.219C94.9015 23.3742 94.6577 23.5293 94.4249 23.6734C94.1922 23.8175 93.9594 23.9727 93.7156 24.1057L92.9951 24.5269L92.2636 24.9148C92.0198 25.0478 91.7648 25.1586 91.521 25.2806C91.2661 25.4025 91.0222 25.5244 90.7673 25.6352L90.0025 25.9788C89.7476 26.0897 89.4927 26.1894 89.2378 26.2892L88.8498 26.4443L88.4619 26.5884L87.6861 26.8766C87.1651 27.0539 86.6442 27.2424 86.1122 27.3975L85.3141 27.6414L84.5272 27.8741C83.9952 28.0293 83.4632 28.1734 82.9312 28.3064C80.8031 28.8717 78.6639 29.3483 76.5359 29.8027C72.2687 30.7005 68.0125 31.4763 63.8673 32.5514C62.8254 32.8175 61.7946 33.0945 60.786 33.4049C59.7663 33.7152 58.7577 34.0367 57.7491 34.3913C56.2084 34.9344 54.6789 35.5219 53.1715 36.1647C53.1937 36.198 53.2159 36.2201 53.238 36.2534C53.3156 36.3753 53.3932 36.4861 53.4819 36.6191C53.5705 36.7522 53.6481 36.8962 53.7257 37.0292C53.8809 37.3063 54.0139 37.5945 54.1247 37.8827C54.3575 38.4701 54.5016 39.0686 54.6013 39.645C54.7011 40.2213 54.7565 40.7755 54.823 41.2965L54.9117 42.0723C54.9449 42.3162 54.9782 42.56 55.0225 42.7927C55.1112 43.2583 55.2442 43.6905 55.4326 44.0674C55.5323 44.2558 55.6432 44.4331 55.754 44.5772C55.8759 44.7213 56.02 44.8654 56.1974 45.0095C56.5409 45.2866 56.9621 45.5193 57.4166 45.7299C57.871 45.9405 58.3587 46.1511 58.8464 46.3284C59.334 46.5169 59.8217 46.6831 60.3205 46.8383C61.318 47.1486 62.3377 47.3925 63.3796 47.5698C63.9005 47.6585 64.4214 47.725 64.9424 47.7693C65.2084 47.7915 65.4744 47.8137 65.7293 47.8247C65.9953 47.8469 66.2613 47.858 66.5273 47.858C67.0594 47.8691 67.5914 47.8802 68.1345 47.8802H69.7527C69.2207 47.9688 68.6886 48.0575 68.1566 48.1462C67.6246 48.2348 67.0926 48.3124 66.5495 48.3678C65.4744 48.4898 64.3771 48.5341 63.2798 48.4898C62.7367 48.4676 62.1825 48.4233 61.6394 48.3457C61.0963 48.2792 60.5532 48.1794 60.0101 48.0797C59.467 47.9688 58.935 47.8358 58.403 47.6917C58.137 47.6141 57.871 47.5366 57.605 47.459C57.339 47.3814 57.073 47.2927 56.807 47.193C56.2749 46.9935 55.7208 46.7496 55.1998 46.406C54.9338 46.2287 54.6789 46.0292 54.4351 45.7743C54.1912 45.5193 53.9917 45.2533 53.8255 44.9652C53.4929 44.3999 53.2713 43.8124 53.1161 43.2361C53.0385 42.9479 52.972 42.6597 52.9166 42.3827L52.7725 41.5735C52.6727 41.0304 52.5952 40.5317 52.4843 40.0551C52.3735 39.5785 52.2294 39.1351 52.0521 38.7361C51.9634 38.5366 51.8636 38.3371 51.7417 38.1487C51.6863 38.0489 51.6198 37.9714 51.5644 37.8716C51.4979 37.7829 51.4203 37.6721 51.3538 37.5723C51.0545 37.1733 50.7331 36.7965 50.4006 36.4418L49.3033 35.278L50.7774 34.5576C52.7614 33.5822 54.7897 32.6955 56.8735 31.9308C57.9042 31.5428 58.9572 31.1771 60.0212 30.8446C61.0853 30.512 62.1493 30.2239 63.2133 29.9357C67.4916 28.8384 71.8142 28.118 76.0925 27.3865C78.2317 27.0207 80.3597 26.6549 82.4656 26.2338C83.5186 26.0121 84.5826 25.8015 85.6134 25.5466C86.1343 25.4246 86.6442 25.2806 87.1651 25.1586L87.941 24.937L88.3289 24.8261L88.7057 24.7042C89.7254 24.3939 90.7341 24.0392 91.7316 23.6513C92.7291 23.2633 93.6934 22.82 94.6466 22.3323C94.8793 22.2104 95.1232 22.0885 95.3559 21.9555L96.0542 21.5564C96.5087 21.2794 96.9742 20.9912 97.4175 20.6919C97.5283 20.6143 97.6392 20.5478 97.75 20.4592L98.0714 20.2153L98.404 19.9826C98.5148 19.905 98.6145 19.8163 98.7254 19.7387C99.1576 19.4173 99.5567 19.0515 99.9668 18.7079L99.8892 18.6525L99.9889 18.6969H100V18.7079C98.6478 20.4148 96.9853 21.9222 95.1454 23.1636L95.1232 23.219Z" fill="#F9F7BB"/>
<path id="Vector_5" d="M0.446516 54.2533C0.501935 53.3001 0.634938 52.3469 0.834444 51.4159C1.22237 49.5428 1.85414 47.7472 2.66325 46.0514L2.97359 45.4196L3.28393 44.81L3.90462 43.6019C4.11521 43.2029 4.33688 42.7928 4.54747 42.3938C4.76915 41.9948 4.99082 41.5847 5.21249 41.1857C6.12135 39.5896 7.11888 38.0157 8.2605 36.5305C9.39103 35.0453 10.6546 33.6377 12.0289 32.3631C12.2063 32.2079 12.3725 32.0417 12.5499 31.8865L13.093 31.432C13.4587 31.1328 13.8023 30.8224 14.1903 30.5454L14.7555 30.1242L15.0437 29.9136L15.1878 29.8028L15.3319 29.703L16.5067 28.9271C16.6952 28.7941 16.9058 28.6833 17.1163 28.5614L17.726 28.2067C17.9255 28.0959 18.136 27.9629 18.3356 27.852L18.9673 27.5306L19.2777 27.3643L19.5991 27.2092L20.2419 26.9099L20.8848 26.6328C21.0954 26.5442 21.3171 26.4444 21.5387 26.3668C23.29 25.6685 25.0966 25.1254 26.9365 24.7486C27.8564 24.5602 28.7875 24.4161 29.7185 24.3053L30.4057 24.2277C30.6384 24.2055 30.8712 24.1833 31.1039 24.1612C31.5695 24.1168 32.046 24.0947 32.5226 24.0836C34.418 24.0282 36.3576 24.139 38.2972 24.7153C38.5411 24.7929 38.7849 24.8705 39.0177 24.9592C39.2615 25.0589 39.5054 25.1476 39.727 25.2584C40.1815 25.469 40.6137 25.6907 41.0349 25.9345C41.4561 26.1784 41.8662 26.4333 42.2541 26.6993C42.2984 26.7326 42.3428 26.7547 42.3871 26.788C45.1802 23.3188 48.2171 20.0491 51.509 17.0455C55.1222 13.7647 59.0569 10.8164 63.2687 8.34477C67.4805 5.86203 71.9583 3.85589 76.5913 2.35959C77.7551 1.98275 78.93 1.65024 80.127 1.37315C81.324 1.08497 82.5211 0.852213 83.7513 0.685958C86.1898 0.364532 88.6947 0.320197 91.1331 0.719209L91.9643 0.852213L91.6208 1.58374C91.1996 2.48151 90.7119 3.35712 90.191 4.1884C89.6479 5.01967 89.0715 5.8177 88.4508 6.58247C88.2957 6.77089 88.1294 6.95931 87.9742 7.14774L87.7304 7.42483L87.4755 7.69084C87.3092 7.86817 87.143 8.0566 86.9767 8.23393L86.4558 8.75487C86.2895 8.93221 86.1011 9.09846 85.9238 9.26472C85.7464 9.43097 85.5691 9.59723 85.3806 9.76348C85.0149 10.0849 84.6491 10.4063 84.2723 10.7167C82.7649 11.958 81.1799 13.0775 79.5285 14.1083C77.8881 15.1391 76.2145 16.1033 74.5187 17.0344C76.1369 15.9814 77.7551 14.9174 79.3179 13.7869C80.8918 12.6674 82.3991 11.4814 83.8068 10.1847C84.1614 9.86323 84.505 9.53072 84.8486 9.19821C85.0149 9.03196 85.1811 8.85462 85.3474 8.68836C85.5136 8.51103 85.6799 8.34477 85.8351 8.16743L86.3117 7.63542C86.4669 7.45808 86.622 7.26966 86.7772 7.09232L87.0099 6.81523L87.2316 6.53813C87.3757 6.34971 87.5309 6.16129 87.6639 5.97287C88.2291 5.20809 88.7501 4.42115 89.2267 3.61205C89.5481 3.04678 89.8474 2.45934 90.1245 1.87191C88.074 1.71674 86.0124 1.83866 83.973 2.19334C81.6676 2.60343 79.3844 3.2352 77.1566 4.03323C72.6898 5.61819 68.4005 7.69083 64.3771 10.1847C63.3796 10.8164 62.382 11.4482 61.4178 12.1354C60.9301 12.4679 60.4535 12.8226 59.9658 13.1662L59.2564 13.6982C59.0237 13.8755 58.7799 14.0529 58.5471 14.2302C56.674 15.6711 54.8784 17.2117 53.1493 18.8299C49.6912 22.0664 46.5324 25.6131 43.6285 29.3705L42.8305 30.4013L41.7997 29.5922C41.4893 29.3483 41.1347 29.0934 40.7911 28.8606C40.4364 28.6279 40.0817 28.4062 39.727 28.1956C39.3613 27.9961 38.9955 27.7966 38.6297 27.6304C38.4413 27.5417 38.264 27.4752 38.0866 27.4087C37.9093 27.3422 37.7209 27.2868 37.5325 27.2203C36.7677 26.9986 35.9586 26.8545 35.1384 26.7769C34.3071 26.6993 33.4648 26.6882 32.6113 26.7104C32.1901 26.7215 31.7579 26.7547 31.3256 26.788C31.115 26.7991 30.8933 26.8323 30.6828 26.8434L30.0288 26.921C29.1643 27.0208 28.3219 27.1538 27.4685 27.3311C25.7838 27.6747 24.1212 28.1624 22.5252 28.8052C22.3257 28.8828 22.1262 28.9604 21.9267 29.0491L21.3281 29.304L20.7407 29.5811L20.4525 29.7141L20.1644 29.8582L19.588 30.1574C19.3996 30.2572 19.2112 30.368 19.0227 30.4789L18.4686 30.8003C18.2801 30.9111 18.0917 31.0109 17.9144 31.1328L16.8393 31.8421L16.7063 31.9308L16.5732 32.0306L16.3183 32.219L15.7974 32.6069C15.4427 32.8508 15.1213 33.1389 14.7888 33.4049L14.29 33.815C14.1348 33.9591 13.9686 34.1032 13.8134 34.2473C12.5388 35.4111 11.375 36.6857 10.311 38.0601C9.24695 39.4345 8.28267 40.8975 7.39598 42.416C7.1743 42.8039 6.95263 43.1807 6.74204 43.5687C6.53145 43.9566 6.30978 44.3445 6.09919 44.7324L5.46742 45.9184L5.15707 46.5169L4.8689 47.0933C4.11521 48.6339 3.50561 50.2521 3.13985 51.9036C2.95142 52.7349 2.81842 53.5661 2.75192 54.4085C2.68542 55.2398 2.67433 56.1043 2.75192 56.9134C2.8295 57.7225 2.99576 58.4873 3.3061 59.1855C3.38369 59.3629 3.47236 59.5291 3.56103 59.7065C3.6497 59.8727 3.74945 60.0279 3.8492 60.1831C4.05979 60.4934 4.31472 60.7927 4.60289 61.0809C4.87998 61.369 5.19033 61.6461 5.51175 61.901C5.66692 62.034 5.84426 62.156 6.01052 62.2779C6.18786 62.3998 6.35411 62.5217 6.53145 62.6437C6.70879 62.7545 6.88613 62.8764 7.06346 62.9872C7.15213 63.0427 7.2408 63.0981 7.32947 63.1424L7.60656 63.2976C7.7839 63.3973 7.98341 63.486 8.17183 63.5858C8.36025 63.6744 8.55976 63.7631 8.74818 63.8518C10.311 64.539 12.0068 65.0488 13.7137 65.4478C15.4316 65.8468 17.1829 66.1572 18.9452 66.3899C20.7075 66.6116 22.4808 66.7668 24.2542 66.8333L24.9968 66.8554L24.9747 67.5648C24.9414 68.7175 24.9968 69.8813 25.1409 71.034C25.2074 71.6103 25.3072 72.1756 25.418 72.7409C25.5289 73.3061 25.684 73.8825 25.817 74.4699L26.216 76.2322L26.3712 77.13L26.4488 77.5733L26.5042 78.0278C26.5375 78.327 26.5818 78.6263 26.6261 78.9256L26.7037 79.8344C26.737 80.1337 26.7481 80.4329 26.7591 80.7433L26.7813 81.1977V81.4194V81.6411V82.5499C26.7813 82.8492 26.7591 83.1484 26.7481 83.4588L26.7259 83.9132L26.6926 84.3676C26.6705 84.6669 26.6483 84.9662 26.6151 85.2654C26.4931 86.4624 26.2936 87.6484 26.072 88.8233C25.6064 91.173 24.9858 93.4784 24.3651 95.7727C24.5978 94.5979 24.8306 93.4341 25.0523 92.2592C25.2628 91.0843 25.4624 89.9206 25.6286 88.7346C25.7838 87.5597 25.9168 86.3849 25.9722 85.1989C25.9944 84.8997 25.9944 84.6115 26.0055 84.3122V83.8689V83.4255C26.0055 83.1263 26.0055 82.8381 25.9944 82.5388L25.95 81.6632V81.4415L25.9168 81.2199L25.8724 80.7765C25.8503 80.4883 25.8281 80.1891 25.7838 79.9009L25.6729 79.0253C25.6286 78.7371 25.5732 78.449 25.5178 78.1608L25.4402 77.7285L25.3404 77.2963L25.152 76.4428L24.6865 74.7359C24.5313 74.1707 24.354 73.5943 24.2099 72.9958C24.0547 72.4084 23.9328 71.7988 23.8331 71.1892C23.6779 70.2138 23.5781 69.2384 23.5449 68.2631C21.9488 68.2409 20.3639 68.1633 18.7678 68.0081C17.859 67.9195 16.9501 67.8086 16.0412 67.6756C15.1324 67.5426 14.2346 67.3875 13.3257 67.2101C11.5191 66.8333 9.72354 66.3567 7.97232 65.6473C7.75065 65.5587 7.54006 65.4589 7.31839 65.3702C7.1078 65.2705 6.88613 65.1707 6.67554 65.0599C6.24327 64.8493 5.82209 64.5944 5.42308 64.3395C5.22358 64.2175 5.02407 64.0734 4.82456 63.9404C4.62506 63.7964 4.42555 63.6633 4.23713 63.5082C3.8492 63.22 3.47236 62.8986 3.11768 62.5439C2.763 62.2003 2.41941 61.8124 2.10907 61.3912C1.95389 61.1806 1.80981 60.9478 1.6768 60.7262C1.55488 60.5045 1.43296 60.2828 1.32213 60.0501C1.10045 59.5846 0.934197 59.0858 0.801193 58.5981C0.668189 58.0993 0.57952 57.6117 0.524102 57.1129C0.413265 56.1265 0.413265 55.1733 0.468683 54.2201L0.446516 54.2533Z" fill="url(#paint0_linear_59_1786)"/>
<path id="Vector_6" d="M94.6909 23.6514C94.4692 23.8066 94.2254 23.9618 93.9926 24.1059C93.7599 24.2499 93.5271 24.4051 93.2833 24.5381L92.5628 24.9593L91.8313 25.3472C91.5875 25.4802 91.3326 25.5911 91.0887 25.713C90.8338 25.8349 90.59 25.9568 90.335 26.0677L89.5703 26.4113C89.3153 26.5221 89.0604 26.6219 88.8055 26.7216L88.4176 26.8768L88.0296 27.0209L87.2538 27.309C86.7328 27.4864 86.2119 27.6748 85.6799 27.83L84.8819 28.0738L84.0949 28.3066C83.5629 28.4617 83.0309 28.6058 82.4989 28.7388C80.3708 29.3041 78.2317 29.7807 76.1036 30.2351C71.8364 31.1329 67.5803 31.9088 63.435 32.9839C62.3931 33.2499 61.3623 33.527 60.3537 33.8373C59.334 34.1477 58.3254 34.4691 57.3168 34.8238C55.7762 35.3669 54.2466 35.9543 52.7392 36.5972C52.7614 36.6304 52.7836 36.6526 52.8057 36.6858C52.8833 36.8077 52.9609 36.9186 53.0496 37.0516C53.1382 37.1846 53.2158 37.3287 53.2934 37.4617C53.4486 37.7388 53.5816 38.0269 53.6924 38.3151C53.9252 38.9026 54.0693 39.5011 54.169 40.0774C54.2688 40.6538 54.3242 41.208 54.3907 41.7289L54.4794 42.5047C54.5126 42.7486 54.5459 42.9924 54.5902 43.2252C54.6789 43.6907 54.8119 44.123 55.0003 44.4998C55.1001 44.6882 55.2109 44.8656 55.3217 45.0097C55.4436 45.1537 55.5877 45.2978 55.7651 45.4419C56.1087 45.719 56.5298 45.9518 56.9843 46.1624C57.4387 46.3729 57.9264 46.5835 58.4141 46.7609C58.9018 46.9493 59.3894 47.1156 59.8882 47.2707C60.8857 47.5811 61.9054 47.8249 62.9473 48.0022C63.4682 48.0909 63.9892 48.1574 64.5101 48.2017C64.7761 48.2239 65.0421 48.2461 65.297 48.2572C65.563 48.2793 65.829 48.2904 66.0951 48.2904C66.6271 48.3015 67.1591 48.3126 67.7022 48.3126H69.3204C68.7884 48.4013 68.2564 48.4899 67.7243 48.5786C67.1923 48.6673 66.6603 48.7449 66.1172 48.8003C65.0421 48.9222 63.9448 48.9665 62.8475 48.9222C62.2934 48.9 61.7503 48.8557 61.2072 48.7781C60.6641 48.7116 60.121 48.6118 59.5779 48.5121C59.0348 48.4013 58.5027 48.2683 57.9707 48.1242C57.7047 48.0466 57.4387 47.969 57.1727 47.8914C56.9067 47.8138 56.6407 47.7252 56.3747 47.6254C55.8427 47.4259 55.2885 47.1821 54.7675 46.8385C54.5015 46.6611 54.2466 46.4616 54.0028 46.2067C53.7589 45.9518 53.5594 45.6858 53.3932 45.3976C53.0607 44.8323 52.839 44.2449 52.6838 43.6685C52.6062 43.3804 52.5397 43.0922 52.4843 42.8151L52.3402 42.006C52.2405 41.4629 52.1629 40.9641 52.052 40.4875C51.9412 40.0109 51.7971 39.5676 51.6198 39.1686C51.5311 38.9691 51.4314 38.7696 51.3094 38.5811C51.254 38.4814 51.1875 38.4038 51.1321 38.304C51.0656 38.2154 50.988 38.1045 50.9215 38.0048C50.6223 37.6058 50.3008 37.2289 49.9683 36.8742L48.871 35.7105L50.3452 34.99C52.3291 34.0147 54.3574 33.128 56.4412 32.3632C57.472 31.9753 58.5249 31.6095 59.5889 31.277C60.653 30.9445 61.717 30.6563 62.781 30.3681C67.0593 29.2708 71.382 28.5504 75.6603 27.8189C77.7994 27.4531 79.9275 27.0874 82.0334 26.6662C83.0863 26.4445 84.1503 26.2339 85.1811 25.979C85.7021 25.8571 86.2119 25.713 86.7328 25.5911L87.5087 25.3694L87.8966 25.2586L88.2735 25.1366C89.2932 24.8263 90.3018 24.4716 91.2993 24.0837C92.2968 23.6958 93.2611 23.2524 94.2143 22.7647C94.4471 22.6428 94.6909 22.5209 94.9237 22.3879L95.6219 21.9889C96.0764 21.7118 96.5419 21.4236 96.9852 21.1244C97.0961 21.0468 97.2069 20.9803 97.3177 20.8916L97.6392 20.6478L97.9717 20.415C98.0825 20.3374 98.1823 20.2487 98.2931 20.1712C98.7254 19.8497 99.1244 19.484 99.5345 19.1404L99.4569 19.085L99.5566 19.1293H99.5677V19.1404C98.2155 20.8473 96.553 22.3546 94.7131 23.596L94.6909 23.6514Z" fill="url(#paint1_linear_59_1786)"/>
</g>
<defs>
<linearGradient id="paint0_linear_59_1786" x1="5.41199" y1="76.8307" x2="86.6553" y2="-4.42362" gradientUnits="userSpaceOnUse">
<stop stop-color="#EC9500"/>
<stop offset="1" stop-color="#FFBB40"/>
</linearGradient>
<linearGradient id="paint1_linear_59_1786" x1="54.7454" y1="47.0269" x2="91.0666" y2="10.7057" gradientUnits="userSpaceOnUse">
<stop stop-color="#EC9500"/>
<stop offset="1" stop-color="#FFBB40"/>
</linearGradient>
</defs>
</svg>
