<svg width="43" height="62" viewBox="0 0 43 62" fill="none" xmlns="http://www.w3.org/2000/svg">
<path d="M36.3654 35.622C34.1554 38.635 31.8295 41.8062 30.5507 45.4879H12.4548C11.1705 41.7631 8.79853 38.5449 6.5489 35.4928L6.52202 35.4563L6.52133 35.4554C5.88483 34.5939 5.25716 33.7443 4.65482 32.8844L4.65375 32.8829C2.34971 29.6069 1 25.6169 1 21.3125C1 10.1027 10.1701 1 21.5 1C32.8295 1 42 10.1023 42 21.3246C42 25.6282 40.6508 29.6068 38.3453 32.8964L38.3452 32.8965C37.7428 33.7564 37.1152 34.606 36.4787 35.4675L36.4766 35.4704L36.3654 35.622ZM30.2727 52.3125C30.2727 57.1043 26.3554 61 21.5 61C16.6446 61 12.7273 57.1043 12.7273 52.3125V51.375H30.2727V52.3125ZM9.77273 24.25C11.3917 24.25 12.7273 22.9386 12.7273 21.3125C12.7273 16.5207 16.6446 12.625 21.5 12.625C23.119 12.625 24.4545 11.3137 24.4545 9.6875C24.4545 8.06135 23.119 6.75 21.5 6.75C13.3943 6.75 6.81818 13.2563 6.81818 21.3125C6.81818 22.9386 8.15372 24.25 9.77273 24.25Z" stroke="#007C66" stroke-width="2"/>
</svg>
