<svg width="61" height="50" viewBox="0 0 61 50" fill="none" xmlns="http://www.w3.org/2000/svg">
<path d="M61 32.8281C60.7577 33.1848 60.5488 33.57 60.2683 33.8945C56.1158 38.7072 51.9549 43.5128 47.7928 48.3183C47.0421 49.185 46.5611 49.1803 45.8198 48.3219C44.2419 46.4957 42.6604 44.6708 41.0621 42.8256C35.6181 47.4849 29.3398 49.575 22.2272 48.9068C15.9644 48.3183 10.6803 45.635 6.42872 41.0196C-1.79039 32.0957 -2.16757 18.5862 5.52278 9.06546C13.3599 -0.637188 28.0806 -3.26467 39.1942 4.69386C39.2145 4.4965 39.2431 4.336 39.2455 4.17431C39.2586 3.50258 39.2204 2.82728 39.2801 2.15911C39.3863 0.973777 40.309 0.10231 41.4978 0.0951767C45.0309 0.0749653 48.5639 0.0737764 52.097 0.0951767C53.3813 0.10231 54.3194 1.08553 54.3445 2.38025C54.3636 3.36823 54.3505 4.3574 54.3505 5.34538C54.3505 13.5702 54.3505 21.7951 54.3505 30.0211V30.7951C54.5916 30.8081 54.7993 30.8295 55.0069 30.8307C56.2578 30.8343 57.5099 30.8735 58.7584 30.82C59.767 30.7772 60.5369 31.0661 60.9988 31.9982V32.8293L61 32.8281ZM39.1906 30.8319C39.2204 30.6976 39.2371 30.6583 39.2371 30.6203C39.2407 25.1038 39.2467 19.5861 39.2347 14.0696C39.2347 13.8579 39.119 13.6083 38.9793 13.4394C34.557 8.07035 28.8445 5.68303 21.9634 6.67219C11.7295 8.14287 4.98685 17.6517 6.77844 27.761C9.10954 40.9174 24.9581 47.0676 35.6014 38.9426C36.0192 38.624 36.4143 38.278 36.8273 37.9392C36.6816 37.7668 36.5933 37.661 36.5038 37.5564C35.3651 36.2379 34.2276 34.9158 33.0841 33.6009C32.6091 33.054 32.4766 32.4476 32.775 31.7878C33.0758 31.122 33.6427 30.8426 34.3565 30.8331C34.6143 30.8295 34.8721 30.8331 35.1312 30.8331C36.4763 30.8331 37.8215 30.8331 39.1906 30.8331V30.8319ZM34.8447 32.7306C38.897 37.4125 42.8382 41.9672 46.8069 46.5516C50.8031 41.9315 54.7336 37.3887 58.7632 32.7306C57.0444 32.7306 55.4856 32.7306 53.9255 32.7306C52.6735 32.7306 52.4443 32.5 52.4443 31.2385C52.4443 21.7689 52.4443 12.2981 52.4443 2.82847C52.4443 2.01288 52.418 1.98672 51.61 1.98672C48.4541 1.98672 45.2982 1.98672 42.1424 1.98672C41.1541 1.98672 41.1517 1.9891 41.1517 2.97946C41.1517 12.4301 41.1517 21.8807 41.1517 31.3313C41.1517 32.4881 40.9106 32.7318 39.7695 32.733C38.1868 32.733 36.6041 32.733 34.8459 32.733L34.8447 32.7306ZM38.0937 39.3932C29.7516 46.7525 17.5459 45.8763 10.3413 38.517C3.25494 31.2778 2.60921 20.0628 8.81591 12.2553C11.9873 8.26533 16.0825 5.71869 21.1195 4.87338C28.0997 3.70231 34.1035 5.78408 39.2467 10.7561C39.2467 9.66586 39.2312 8.70165 39.2538 7.73864C39.2634 7.34868 39.1524 7.08712 38.8301 6.84102C32.8741 2.29822 26.221 0.813275 18.9627 2.64538C7.01597 5.66044 -0.23275 17.6149 2.49581 29.5681C6.21984 45.8894 26.178 52.6578 39.0939 41.9803C39.3314 41.7841 39.5606 41.5772 39.8041 41.3656C39.2097 40.6784 38.6654 40.0519 38.0949 39.3932H38.0937Z" fill="#007C66"/>
<path d="M24.5368 38.9975C23.0997 38.9963 22.084 38.0725 22.1508 36.6363C22.195 35.6662 21.9419 35.1787 20.999 34.7483C20.0608 34.3191 19.2372 33.5499 18.5032 32.795C17.5554 31.8224 17.6617 30.4065 18.5951 29.5683C19.6705 28.6029 21.1768 28.6029 22.115 29.6408C23.0854 30.7144 24.2468 31.0294 25.6098 30.6811C25.9858 30.5848 26.3618 30.4124 26.6793 30.1924C27.3059 29.7597 27.6604 29.1545 27.5375 28.3651C27.4205 27.6185 26.8154 27.3022 26.1983 27.1857C25.1121 26.9812 23.9925 26.9563 22.9016 26.772C20.1957 26.3154 18.0985 25.0112 17.1795 22.3064C16.0778 19.0679 17.892 15.4298 21.3212 14.0899C22.1663 13.7606 22.3847 13.3599 22.3418 12.5265C22.2809 11.3198 22.904 10.4792 23.9221 10.1535C25.648 9.60301 27.2188 10.698 27.1556 12.5004C27.1245 13.3956 27.3537 13.8391 28.2238 14.254C29.193 14.7165 30.0524 15.494 30.8175 16.2739C31.7664 17.2405 31.6375 18.6625 30.6779 19.4959C29.5988 20.4327 28.1128 20.4327 27.2021 19.421C26.1064 18.2035 24.8054 17.9729 23.3157 18.4722C22.6939 18.6803 22.1985 19.0667 21.9061 19.6718C21.5015 20.5112 21.7116 21.3197 22.5817 21.6335C23.3671 21.9177 24.2324 21.9843 25.0644 22.1329C25.9584 22.2922 26.887 22.3362 27.7452 22.6061C30.2768 23.4026 31.9562 25.0742 32.3477 27.7409C32.7285 30.3292 31.7091 32.4407 29.649 34.0076C28.9698 34.5248 28.1331 34.8423 27.3477 35.2096C27.0792 35.3356 26.9252 35.4438 26.9538 35.7589C26.9801 36.0526 26.9646 36.351 26.9574 36.6482C26.9264 38.0785 25.9739 39.001 24.5356 38.9999L24.5368 38.9975ZM24.0271 33.8043C24.0271 34.7115 24.0307 35.5972 24.0259 36.4841C24.0236 36.8408 24.094 37.1047 24.5416 37.1035C24.9892 37.1035 25.0572 36.842 25.0548 36.4829C25.0477 35.596 25.0524 34.7091 25.0524 33.8008C25.3305 33.7461 25.5621 33.6961 25.7949 33.6545C27.0147 33.437 28.1045 32.9567 29.002 32.0876C31.6292 29.5421 30.759 25.5926 27.2868 24.4489C26.5277 24.198 25.697 24.1623 24.8985 24.0268C23.9842 23.871 23.0269 23.8366 22.1639 23.5346C19.7541 22.6928 19.0498 20.0749 20.6707 18.1001C21.9169 16.5819 23.6118 16.1658 25.4905 16.394C26.6984 16.5403 27.7022 17.1228 28.4924 18.0466C28.7884 18.3926 29.0987 18.301 29.3804 18.0811C29.7003 17.8314 29.4795 17.5924 29.2945 17.3784C28.4972 16.4523 27.5077 15.8269 26.326 15.5035C25.9858 15.4108 25.6421 15.3311 25.2709 15.2372C25.2709 14.3016 25.2649 13.3944 25.2732 12.4861C25.2768 12.1175 25.1288 11.9404 24.7457 11.9392C24.3005 11.9392 24.2265 12.2115 24.2277 12.5658C24.2288 13.4515 24.2277 14.3372 24.2277 15.2432C23.9615 15.2979 23.7526 15.3478 23.5401 15.3846C22.4444 15.5713 21.4358 15.9625 20.5884 16.6924C19.1931 17.8932 18.5235 19.4091 18.8648 21.2341C19.1978 23.0162 20.3998 24.1053 22.0899 24.6177C22.8753 24.8555 23.718 24.9434 24.5416 25.0148C25.6146 25.1075 26.6757 25.2121 27.6473 25.721C28.9746 26.4165 29.6108 27.5578 29.4365 29.0368C29.2563 30.5717 28.3396 31.5965 26.9753 32.2148C25.0107 33.1053 22.4576 32.9091 20.8271 31.0223C20.5359 30.6858 20.2375 30.7239 19.9426 30.9498C19.5881 31.2197 19.8257 31.4658 20.0262 31.6952C20.8164 32.5988 21.7939 33.2111 22.9517 33.5345C23.2931 33.6296 23.6392 33.708 24.0271 33.8043Z" fill="#007C66"/>
</svg>
