<svg width="35" height="35" viewBox="0 0 35 35" fill="none" xmlns="http://www.w3.org/2000/svg">
<path d="M16.3539 0.346436C17.0274 0.346436 17.7009 0.346436 18.3744 0.346436C18.4723 0.366681 18.5688 0.397723 18.6673 0.404472C20.4246 0.527967 22.1339 0.891704 23.7502 1.58476C29.5673 4.07964 33.1216 8.42761 34.3397 14.6537C34.4639 15.288 34.5192 15.9365 34.6063 16.5776V18.5981C34.5867 18.6946 34.5557 18.7911 34.5489 18.8883C34.3809 21.2947 33.7573 23.5818 32.577 25.6805C29.4013 31.3282 24.5573 34.4035 18.0856 34.8023C14.9874 34.9933 12.0235 34.3292 9.30662 32.8162C3.63259 29.6567 0.553306 24.8012 0.149753 18.316C-0.0439252 15.2057 0.64171 12.2398 2.14525 9.50465C4.81963 4.64043 8.90037 1.66844 14.3598 0.618395C15.0178 0.4922 15.6892 0.435514 16.3539 0.346436ZM12.4419 17.5818C12.4419 19.1859 12.4379 20.79 12.4433 22.3934C12.4473 23.4799 13.3448 24.0548 14.3099 23.575C17.5194 21.9797 20.7228 20.3729 23.9283 18.7695C24.4108 18.5279 24.7476 18.1655 24.7496 17.5987C24.7509 17.0196 24.421 16.6552 23.9169 16.4042C20.7384 14.8224 17.5646 13.2318 14.3875 11.6473C13.3314 11.1209 12.4446 11.6648 12.4426 12.8377C12.4399 14.4195 12.4426 16.0006 12.4426 17.5825L12.4419 17.5818Z" fill="#007C66"/>
</svg>
