<svg width="65" height="65" viewBox="0 0 65 65" fill="none" xmlns="http://www.w3.org/2000/svg">
<g clip-path="url(#clip0_3_50)">
<path d="M37.505 0C38.5905 0.377 39.4615 1.1375 40.4365 1.703C41.054 2.0605 41.639 2.47 42.2435 2.847C42.9845 3.3085 43.3485 3.978 43.3485 4.849C43.3485 11.0435 43.3485 17.238 43.3485 23.4325C43.3485 23.5625 43.3485 23.686 43.3485 23.855C43.4915 23.855 43.602 23.8615 43.719 23.855C49.0685 23.6795 53.781 25.3565 57.837 28.821C61.1065 31.6095 63.284 35.113 64.3435 39.2795C64.6295 40.417 64.74 41.5935 64.935 42.757C64.948 42.848 64.9805 42.939 65 43.0365C65 43.9465 65 44.8565 65 45.7665C64.9545 46.111 64.909 46.449 64.87 46.7935C64.571 49.4585 63.778 51.9675 62.478 54.3075C60.06 58.643 56.5435 61.75 51.9285 63.596C50.427 64.194 48.8735 64.61 47.268 64.8115C46.7675 64.8765 46.267 64.9415 45.76 65.0065C44.8695 65.0065 43.9855 65.0065 43.095 65.0065C42.5165 64.935 41.938 64.883 41.366 64.792C37.752 64.2265 34.5085 62.8095 31.6485 60.5345C31.3105 60.268 30.9855 59.9885 30.654 59.722C29.783 60.2745 28.9315 60.814 28.0865 61.3535C27.222 61.9125 26.364 61.893 25.4995 61.3405C24.297 60.5735 23.088 59.8065 21.892 59.033C21.723 58.9225 21.606 58.9225 21.437 59.033C20.2085 59.826 18.98 60.6125 17.745 61.386C16.9195 61.906 16.094 61.8865 15.2685 61.373C14.053 60.606 12.8375 59.839 11.6285 59.0525C11.4335 58.929 11.3035 58.929 11.115 59.0525C9.932 59.8195 8.7425 60.5605 7.5595 61.321C6.6625 61.906 5.785 61.8995 4.888 61.321C3.9455 60.71 2.99 60.1185 2.041 59.501C1.9305 59.4295 1.872 59.2865 1.833 59.228C1.664 59.1825 1.508 59.163 1.378 59.098C0.715 58.7275 0.2275 58.201 0 57.46C0 39.7345 0 22.0155 0 4.29C0.2405 3.484 0.806 2.964 1.521 2.574C1.8525 2.392 2.158 2.158 2.483 1.9695C3.5815 1.3065 4.6865 0.6565 5.785 0C6.0905 0 6.3895 0 6.695 0C6.942 0.117 7.2085 0.2145 7.4425 0.3575C8.5215 1.0335 9.6135 1.69 10.66 2.418C11.167 2.7755 11.583 2.886 12.051 2.4245C12.1485 2.327 12.285 2.2685 12.402 2.197C13.624 1.4625 14.8395 0.7345 16.055 0C16.3605 0 16.6595 0 16.965 0C17.2445 0.1365 17.537 0.2405 17.797 0.403C18.9605 1.131 20.124 1.859 21.268 2.613C21.567 2.8145 21.762 2.8015 22.0545 2.613C23.4715 1.729 24.9015 0.871 26.325 0C26.6305 0 26.9295 0 27.235 0C27.6315 0.208 28.0475 0.39 28.4245 0.624C29.536 1.313 30.6345 2.015 31.733 2.7235C31.889 2.821 31.9995 2.8405 32.162 2.73C32.6235 2.418 33.098 2.1125 33.579 1.8265C34.5995 1.2155 35.633 0.611 36.66 0.0065C36.9395 0 37.2255 0 37.505 0ZM41.145 24.0435C41.145 24.0175 41.1515 23.9525 41.1515 23.8875C41.1515 17.5955 41.1515 11.3035 41.158 5.005C41.158 4.8165 41.093 4.719 40.937 4.6215C39.728 3.861 38.5255 3.094 37.323 2.3205C37.1475 2.21 37.0305 2.2165 36.8615 2.327C35.646 3.1135 34.4175 3.887 33.1955 4.6605C32.3635 5.187 31.525 5.1805 30.693 4.654C29.4775 3.887 28.262 3.12 27.053 2.34C26.858 2.2165 26.728 2.223 26.5395 2.3465C25.3695 3.107 24.193 3.8545 23.0165 4.6085C22.126 5.1805 21.242 5.2 20.3385 4.6215C19.149 3.8545 17.9465 3.1005 16.757 2.3335C16.5945 2.2295 16.4775 2.2035 16.2955 2.3205C15.132 3.0745 13.949 3.796 12.7985 4.5565C11.8235 5.2 10.894 5.187 9.9255 4.55C8.788 3.796 7.6245 3.0875 6.487 2.3465C6.279 2.21 6.1425 2.2295 5.941 2.3595C4.81 3.094 3.666 3.822 2.5155 4.537C2.275 4.6865 2.184 4.836 2.184 5.1285C2.197 11.6935 2.1905 18.2585 2.1905 24.8235C2.1905 35.4705 2.1905 46.1175 2.2035 56.7645C2.2035 56.8815 2.301 57.0505 2.405 57.1155C3.5945 57.889 4.797 58.643 5.9865 59.41C6.1685 59.527 6.292 59.527 6.474 59.41C7.683 58.63 8.8985 57.8565 10.114 57.0895C10.9525 56.5565 11.804 56.563 12.649 57.096C13.858 57.863 15.0605 58.6235 16.263 59.397C16.4515 59.5205 16.5815 59.5335 16.7765 59.4035C17.9725 58.6235 19.1815 57.863 20.384 57.096C21.2355 56.5565 22.0935 56.55 22.945 57.096C24.024 57.7785 25.116 58.448 26.1625 59.163C26.6175 59.475 26.962 59.553 27.43 59.176C27.9305 58.773 28.509 58.4675 29.029 58.136C23.9915 51.961 22.36 45.084 25.051 37.544C27.7355 30.017 33.3385 25.6945 41.145 24.0435ZM62.8095 44.4275C62.855 34.5475 54.8795 26.0325 44.434 26.0195C34.294 26.0065 26.039 34.112 26.026 44.408C26.013 54.821 34.5085 62.842 44.473 62.816C54.5675 62.7835 62.8095 54.5545 62.8095 44.4275ZM1.872 53.2285C1.82 52.715 1.495 52.975 1.3 52.936C1.235 52.923 1.066 53.0855 1.0725 53.1505C1.105 53.5535 1.469 53.274 1.6575 53.3975C1.677 53.4235 1.82 53.274 1.872 53.2285ZM1.8265 50.843C1.573 50.856 1.3195 50.8755 1.066 50.8885C1.053 50.921 1.04 50.96 1.027 50.9925C1.222 51.116 1.417 51.246 1.599 51.363C1.6835 51.1745 1.742 51.0445 1.8265 50.843ZM1.066 52.2535C1.053 52.286 1.04 52.325 1.027 52.3575C1.222 52.481 1.417 52.611 1.599 52.728C1.6835 52.5395 1.7355 52.4095 1.8265 52.208C1.573 52.221 1.3195 52.2405 1.066 52.2535ZM1.9305 57.278C1.898 57.2455 1.859 57.213 1.8265 57.174C1.7355 57.2455 1.638 57.317 1.5405 57.395C1.456 57.33 1.3715 57.2715 1.2935 57.2195C1.2805 57.2325 1.2675 57.2455 1.261 57.2585C1.326 57.343 1.3975 57.421 1.4885 57.538C1.287 57.5575 1.1245 57.5705 0.962 57.59C0.962 57.616 0.962 57.6355 0.962 57.6615C1.261 57.6615 1.5535 57.6615 1.911 57.6615C1.7875 57.59 1.7225 57.5445 1.534 57.4275C1.7095 57.3625 1.82 57.3235 1.9305 57.278ZM1.4625 54.9055C1.638 54.7365 1.8395 54.6325 1.8525 54.509C1.8785 54.288 1.664 54.2295 1.469 54.2295C1.274 54.2295 1.0595 54.2815 1.079 54.5025C1.092 54.6195 1.287 54.73 1.4625 54.9055ZM1.118 51.571C1.105 51.571 1.0855 51.571 1.0725 51.571C1.0725 51.6815 1.0725 51.7855 1.0725 51.896C1.196 51.922 1.2935 51.948 1.339 51.961C1.4495 51.8245 1.534 51.727 1.6185 51.623C1.6835 51.7335 1.7485 51.844 1.8135 51.9545C1.8395 51.948 1.8655 51.935 1.8915 51.9285C1.833 51.792 1.807 51.5905 1.703 51.532C1.4105 51.363 1.417 51.753 1.222 51.8635C1.1895 51.753 1.157 51.662 1.118 51.571ZM1.8135 55.3865C1.8395 55.38 1.8655 55.38 1.898 55.3735C1.8395 55.237 1.781 55.1005 1.716 54.964C1.5535 55.0485 1.391 55.1395 1.2025 55.237C1.183 55.1915 1.144 55.1005 1.0725 54.925C1.0725 55.12 1.0725 55.2305 1.0725 55.341C1.196 55.367 1.2935 55.393 1.339 55.3995C1.456 55.263 1.5405 55.1655 1.625 55.0615C1.69 55.1785 1.755 55.2825 1.8135 55.3865ZM1.2285 53.9565C1.183 53.8265 1.1505 53.7355 1.105 53.6055C0.9685 53.9565 1.131 54.0345 1.3325 54.0475C1.456 53.9175 1.547 53.8135 1.638 53.7095C1.69 53.82 1.7485 53.9305 1.8005 54.041C1.8265 54.0345 1.8525 54.0215 1.885 54.015C1.833 53.8785 1.8135 53.6835 1.716 53.6185C1.417 53.4365 1.4235 53.82 1.2285 53.9565ZM1.3325 49.9525C1.456 49.816 1.547 49.7185 1.638 49.6145C1.69 49.725 1.7485 49.8355 1.8005 49.946C1.8265 49.803 1.833 49.6145 1.742 49.543C1.417 49.3025 1.43 49.764 1.2155 49.8355C1.17 49.7315 1.131 49.6405 1.079 49.517C0.9815 49.829 1.1115 49.9395 1.3325 49.9525ZM1.6705 55.8025C1.703 55.7765 1.729 55.7505 1.7615 55.718C1.638 55.692 1.5145 55.666 1.391 55.6465C1.326 55.6335 1.261 55.64 1.1895 55.64C1.2155 55.744 1.2025 55.913 1.261 55.939C1.404 56.004 1.573 56.004 1.703 56.0235C1.69 55.926 1.677 55.8675 1.6705 55.8025ZM1.7615 50.2905C1.534 50.271 1.3325 50.2385 1.131 50.245C1.105 50.245 1.0855 50.466 1.066 50.583C1.2025 50.219 1.2025 50.219 1.8395 50.609C1.8395 50.4465 1.8395 50.297 1.8395 50.141C1.82 50.141 1.807 50.141 1.7875 50.141C1.7745 50.2255 1.755 50.3035 1.7615 50.2905ZM1.56 59.124C1.6965 58.955 1.8655 58.8315 1.846 58.747C1.82 58.63 1.664 58.461 1.56 58.461C1.4625 58.461 1.3 58.63 1.274 58.747C1.2545 58.8315 1.417 58.955 1.56 59.124ZM1.287 57.915C1.2675 57.9215 1.2415 57.9215 1.222 57.928C1.2935 58.045 1.339 58.188 1.4365 58.266C1.495 58.3115 1.664 58.2985 1.729 58.2465C1.8135 58.175 1.8395 58.0385 1.8915 57.928C1.742 58.006 1.6575 58.149 1.547 58.162C1.4755 58.1685 1.3715 57.9995 1.287 57.915Z" fill="#007C66"/>
<path d="M1.8721 53.2285C1.8201 53.274 1.6771 53.4235 1.6511 53.404C1.4691 53.274 1.0986 53.5535 1.0661 53.157C1.0596 53.0855 1.2286 52.9295 1.2936 52.9425C1.4951 52.975 1.8201 52.715 1.8721 53.2285Z" fill="#007C66"/>
<path d="M1.8266 50.843C1.7421 51.0445 1.6836 51.1745 1.5991 51.363C1.4171 51.246 1.2221 51.1225 1.0271 50.9925C1.0401 50.96 1.0531 50.921 1.0661 50.8885C1.3196 50.8755 1.5731 50.856 1.8266 50.843Z" fill="#007C66"/>
<path d="M1.0661 52.2535C1.3196 52.2405 1.5731 52.221 1.8266 52.208C1.7421 52.4095 1.6836 52.5395 1.5991 52.728C1.4171 52.611 1.2221 52.481 1.0271 52.3575C1.0401 52.325 1.0531 52.286 1.0661 52.2535Z" fill="#007C66"/>
<path d="M1.93057 57.278C1.82007 57.317 1.70307 57.3625 1.52757 57.421C1.71607 57.538 1.78107 57.577 1.90457 57.655C1.54707 57.655 1.24807 57.655 0.955566 57.655C0.955566 57.629 0.955566 57.6095 0.955566 57.5835C1.11807 57.5705 1.28057 57.551 1.48207 57.5315C1.38457 57.4145 1.31957 57.3365 1.25457 57.252C1.26757 57.239 1.28057 57.226 1.28707 57.213C1.36507 57.2715 1.44957 57.33 1.53407 57.3885C1.63807 57.3105 1.72907 57.239 1.82007 57.1675C1.85907 57.213 1.89807 57.2455 1.93057 57.278Z" fill="#007C66"/>
<path d="M1.4625 54.9055C1.2935 54.73 1.092 54.626 1.079 54.5025C1.053 54.2815 1.274 54.2295 1.469 54.2295C1.664 54.2295 1.8785 54.288 1.8525 54.509C1.833 54.6325 1.638 54.73 1.4625 54.9055ZM1.17 54.509C1.339 54.678 1.586 54.73 1.6965 54.5935C1.729 54.5545 1.7225 54.431 1.6965 54.4115C1.5145 54.314 1.3325 54.275 1.183 54.4765C1.17 54.483 1.1765 54.496 1.17 54.509Z" fill="#007C66"/>
<path d="M1.1181 51.5711C1.1506 51.6621 1.1896 51.7531 1.2286 51.8636C1.4236 51.7531 1.4171 51.3631 1.7096 51.5321C1.8136 51.5906 1.8396 51.7921 1.8981 51.9286C1.8721 51.9351 1.8461 51.9481 1.8201 51.9546C1.7551 51.8441 1.6901 51.7336 1.6251 51.6231C1.5406 51.7206 1.4626 51.8246 1.3456 51.9611C1.3001 51.9481 1.1961 51.9286 1.0791 51.8961C1.0791 51.7856 1.0791 51.6751 1.0791 51.5711C1.0921 51.5711 1.1051 51.5711 1.1181 51.5711Z" fill="#007C66"/>
<path d="M1.81351 55.3865C1.74851 55.2825 1.68351 55.1785 1.62501 55.0745C1.54051 55.172 1.45601 55.276 1.33901 55.4125C1.29351 55.3995 1.19601 55.38 1.07251 55.354C1.07251 55.2435 1.07251 55.133 1.07251 54.938C1.14401 55.1135 1.18301 55.2045 1.20251 55.25C1.39101 55.1525 1.55351 55.0615 1.71601 54.977C1.77451 55.1135 1.83301 55.25 1.89801 55.3865C1.87201 55.38 1.84601 55.38 1.81351 55.3865Z" fill="#007C66"/>
<path d="M1.22844 53.9564C1.42344 53.8199 1.41694 53.4364 1.71594 53.6184C1.81344 53.6769 1.83294 53.8784 1.88494 54.0149C1.85894 54.0214 1.83294 54.0344 1.80044 54.0409C1.74844 53.9304 1.68994 53.8199 1.63794 53.7094C1.54694 53.8134 1.44944 53.9109 1.33244 54.0474C1.12444 54.0344 0.961945 53.9564 1.10494 53.6054C1.15044 53.7354 1.18294 53.8264 1.22844 53.9564Z" fill="#007C66"/>
<path d="M1.33249 49.9525C1.11149 49.9395 0.981494 49.8355 1.08549 49.517C1.13749 49.6405 1.17649 49.7315 1.22199 49.8355C1.42999 49.764 1.42349 49.296 1.74849 49.543C1.83949 49.608 1.83299 49.7965 1.80699 49.946C1.75499 49.8355 1.69649 49.725 1.64449 49.6145C1.54699 49.712 1.45599 49.816 1.33249 49.9525Z" fill="#007C66"/>
<path d="M1.67045 55.8025C1.67695 55.8675 1.68995 55.926 1.70295 56.03C1.57945 56.0105 1.40395 56.0105 1.26095 55.9455C1.20245 55.9195 1.20895 55.7505 1.18945 55.6465C1.25445 55.6465 1.32595 55.6465 1.39095 55.653C1.51445 55.6725 1.63795 55.6985 1.76145 55.7245C1.72895 55.7505 1.69645 55.7765 1.67045 55.8025Z" fill="#007C66"/>
<path d="M1.76151 50.2906C1.76151 50.3036 1.77451 50.2191 1.79401 50.1411C1.81351 50.1411 1.82651 50.1411 1.84601 50.1411C1.84601 50.2971 1.84601 50.4466 1.84601 50.6091C1.20901 50.2191 1.20901 50.2191 1.07251 50.5831C1.09201 50.4661 1.11151 50.2451 1.13751 50.2451C1.33251 50.2386 1.53401 50.2711 1.76151 50.2906Z" fill="#007C66"/>
<path d="M1.55993 59.1239C1.42343 58.9484 1.26093 58.8314 1.27393 58.7469C1.29993 58.6299 1.46243 58.4609 1.55993 58.4609C1.66393 58.4609 1.81993 58.6299 1.84593 58.7469C1.85893 58.8314 1.69643 58.9549 1.55993 59.1239ZM1.85243 58.7469C1.70943 58.6624 1.63793 58.5779 1.56643 58.5844C1.49493 58.5909 1.42343 58.6754 1.35843 58.7274C1.42343 58.7859 1.47543 58.8769 1.54693 58.8899C1.61843 58.8964 1.70293 58.8184 1.85243 58.7469Z" fill="#007C66"/>
<path d="M1.28708 57.915C1.37158 58.006 1.46908 58.175 1.54058 58.162C1.64458 58.1425 1.73558 58.006 1.88508 57.928C1.83308 58.0385 1.80708 58.175 1.72258 58.2465C1.66408 58.2985 1.48858 58.3115 1.43008 58.266C1.33258 58.188 1.28708 58.045 1.21558 57.928C1.24158 57.9215 1.26758 57.915 1.28708 57.915Z" fill="#007C66"/>
<path d="M13.0001 31.3494C13.0001 31.7589 13.0066 32.1489 13.0001 32.5389C12.9936 33.0849 12.5841 33.5269 12.0446 33.5919C11.4986 33.6569 10.9591 33.2929 10.8681 32.7534C10.8031 32.3699 10.8161 31.9799 10.8161 31.5899C10.8161 31.4014 10.7641 31.3104 10.5691 31.2519C8.25512 30.5629 6.90962 29.0159 6.53262 26.6369C6.48712 26.3444 6.48712 26.0259 6.53912 25.7334C6.62362 25.2459 7.09812 24.9014 7.60512 24.9079C8.09262 24.9079 8.54762 25.2524 8.64512 25.7269C8.71662 26.0519 8.70362 26.3964 8.78162 26.7214C9.04162 27.8199 9.71762 28.5609 10.7901 29.0159C10.8031 28.8924 10.8161 28.8014 10.8161 28.7104C10.8161 26.7929 10.8096 24.8754 10.8226 22.9579C10.8226 22.7174 10.7446 22.6264 10.5171 22.5679C8.28112 21.9764 6.68862 20.0329 6.52612 17.8164C6.34412 15.3204 7.65712 13.2209 9.91262 12.2979C10.1986 12.1809 10.5041 12.0964 10.8161 11.9924C10.8161 11.6154 10.8031 11.2319 10.8161 10.8549C10.8486 10.1659 11.3231 9.7304 11.9991 9.7499C12.5971 9.7694 13.0066 10.2374 13.0066 10.9069C13.0066 11.1799 13.0066 11.4464 13.0066 11.7194C13.0066 11.8039 13.0066 11.8884 13.0066 11.9989C13.8516 12.2004 14.6251 12.5319 15.3011 13.0844C16.6271 14.1699 17.3161 15.5674 17.3551 17.2834C17.3681 17.9334 16.8611 18.4534 16.2501 18.4404C15.6456 18.4339 15.1906 17.9334 15.1581 17.2964C15.0996 15.9509 14.4496 14.9889 13.2406 14.4039C13.1951 14.3779 13.1431 14.3649 13.0911 14.3454C13.0716 14.3389 13.0521 14.3519 13.0196 14.3519C13.0196 16.4514 13.0196 18.5509 13.0196 20.6374C15.7756 21.4694 17.3356 23.2569 17.3421 26.1884C17.3421 28.1514 15.9771 30.6344 13.0001 31.3494ZM13.0131 23.0229C13.0131 25.0119 13.0131 26.9944 13.0131 28.9834C13.8776 28.8144 15.1516 27.6509 15.1516 26.0064C15.1516 24.3424 13.8646 23.1789 13.0131 23.0229ZM10.7901 14.3714C9.80212 14.5144 8.75562 15.8794 8.69712 17.0754C8.62562 18.5769 9.53562 19.9939 10.7901 20.3059C10.7901 18.3299 10.7901 16.3539 10.7901 14.3714Z" fill="#007C66"/>
<path d="M29.2566 17.3486C26.7411 17.3486 24.2321 17.3486 21.7166 17.3486C21.2486 17.3486 20.9041 17.1536 20.6896 16.7376C20.4881 16.3476 20.5271 15.9576 20.7871 15.6066C21.0211 15.2881 21.3461 15.1516 21.7426 15.1516C24.1931 15.1581 26.6371 15.1516 29.0876 15.1516C31.6551 15.1516 34.2226 15.1516 36.7901 15.1516C37.3036 15.1516 37.7131 15.4376 37.8756 15.8796C38.0316 16.3151 37.9081 16.8416 37.5116 17.0951C37.2906 17.2381 36.9916 17.3356 36.7316 17.3356C34.2356 17.3551 31.7461 17.3486 29.2566 17.3486Z" fill="#007C66"/>
<path d="M29.2499 9.74996C31.7524 9.74996 34.2549 9.74996 36.7574 9.74996C37.4399 9.74996 37.9339 10.1985 37.9469 10.816C37.9534 11.427 37.4659 11.9145 36.7964 11.934C36.2244 11.9535 35.6459 11.9405 35.0739 11.9405C30.6669 11.9405 26.2599 11.9405 21.8529 11.9405C21.1899 11.9405 20.7609 11.648 20.6179 11.102C20.4359 10.413 20.9364 9.74996 21.6579 9.74996C23.5949 9.74346 25.5319 9.74996 27.4754 9.74996C28.0539 9.74996 28.6519 9.74996 29.2499 9.74996Z" fill="#007C66"/>
<path d="M29.2501 22.75C26.7606 22.75 24.2711 22.737 21.7816 22.763C21.1771 22.7695 20.6051 22.386 20.5661 21.684C20.5336 21.0535 21.0731 20.566 21.7816 20.5595C23.3416 20.553 24.9016 20.5595 26.4616 20.5595C29.8611 20.5595 33.2606 20.5595 36.6601 20.5595C37.3426 20.5595 37.7586 20.8585 37.8951 21.4305C38.0576 22.113 37.5571 22.75 36.8486 22.75C34.9961 22.7565 33.1436 22.75 31.2911 22.7565C30.6151 22.75 29.9326 22.75 29.2501 22.75Z" fill="#007C66"/>
<path d="M12.9871 48.75C15.1191 48.75 17.2511 48.75 19.3831 48.75C20.1046 48.75 20.5791 49.166 20.592 49.816C20.6051 50.453 20.0981 50.934 19.3831 50.947C19.1556 50.9535 18.9281 50.947 18.7006 50.947C14.7031 50.947 10.7121 50.947 6.71455 50.9405C6.50005 50.9405 6.27905 50.9145 6.07755 50.843C5.59005 50.661 5.30405 50.1345 5.40155 49.6405C5.50555 49.1075 5.92805 48.75 6.48055 48.75C8.65805 48.75 10.8226 48.75 12.9871 48.75Z" fill="#007C66"/>
<path d="M12.9999 45.5001C10.8549 45.5001 8.70992 45.5001 6.57142 45.5001C5.90842 45.5001 5.44692 45.0971 5.40142 44.4926C5.36242 43.9011 5.78492 43.4136 6.42192 43.3226C6.50642 43.3096 6.59742 43.3096 6.68192 43.3096C10.8939 43.3096 15.1059 43.3096 19.3179 43.3096C19.9224 43.3096 20.3449 43.5566 20.5269 44.0116C20.8129 44.7331 20.2929 45.5001 19.4999 45.5001C17.3289 45.5001 15.1644 45.5001 12.9999 45.5001Z" fill="#007C66"/>
<path d="M12.9999 40.0985C10.8484 40.0985 8.69043 40.0985 6.53893 40.0985C6.02543 40.0985 5.62243 39.8125 5.46643 39.3575C5.31043 38.9025 5.43393 38.415 5.83693 38.142C6.03193 38.012 6.29193 37.908 6.52593 37.908C10.8484 37.895 15.1644 37.895 19.4869 37.9015C20.1239 37.9015 20.6114 38.3955 20.6049 39.0065C20.5984 39.624 20.1174 40.0985 19.4739 40.0985C17.3094 40.0985 15.1514 40.0985 12.9999 40.0985Z" fill="#007C66"/>
<path d="M24.934 26C25.9805 26 27.0335 26 28.08 26C28.782 26 29.2435 26.416 29.25 27.0595C29.2565 27.729 28.782 28.184 28.0605 28.1905C26.5915 28.197 25.116 28.1905 23.647 28.1905C23.01 28.1905 22.373 28.197 21.7295 28.1905C21.086 28.1775 20.6635 27.8005 20.566 27.1895C20.4945 26.7345 20.8195 26.221 21.3005 26.0585C21.4305 26.013 21.5735 26.0065 21.71 26.0065C22.789 26 23.8615 26 24.934 26Z" fill="#007C66"/>
<path d="M22.7564 31.4016C23.1139 31.4016 23.4714 31.3951 23.8289 31.4016C24.4399 31.4146 24.9339 31.8956 24.9404 32.4871C24.9469 33.0786 24.4399 33.5856 23.8159 33.5921C23.1009 33.5986 22.3859 33.5986 21.6709 33.5921C21.0599 33.5856 20.5659 33.0981 20.5594 32.5066C20.5529 31.9086 21.0599 31.4081 21.6839 31.4016C22.0414 31.3951 22.3989 31.4016 22.7564 31.4016Z" fill="#007C66"/>
<path d="M50.882 36.8094C50.96 36.2569 51.129 35.7759 51.506 35.3859C52.3315 34.5409 53.6055 34.3849 54.548 35.0934C55.9975 36.1854 57.434 37.3034 58.8445 38.4539C59.917 39.3314 59.8455 40.9369 58.734 41.8209C57.4015 42.8739 56.0495 43.9074 54.7235 44.9669C53.3065 46.1044 51.194 45.3764 50.9145 43.5629C50.908 43.4979 50.895 43.4394 50.882 43.3484C50.2385 43.3484 49.595 43.3484 48.958 43.3484C45.6885 43.3484 42.4125 43.3484 39.143 43.3484C37.8365 43.3484 36.959 42.6139 36.8355 41.3334C36.7575 40.5209 36.7575 39.6824 36.829 38.8699C36.946 37.5699 37.856 36.8159 39.1755 36.8159C42.9 36.8159 46.631 36.8159 50.3555 36.8159C50.5245 36.8094 50.687 36.8094 50.882 36.8094ZM39.013 41.1514C39.169 41.1514 39.2925 41.1514 39.4225 41.1514C43.5955 41.1514 47.762 41.1514 51.935 41.1514C52.637 41.1514 53.092 41.6064 53.0985 42.3019C53.0985 42.6074 53.0985 42.9194 53.0985 43.2964C54.5545 42.1979 55.952 41.1514 57.3755 40.0789C55.9455 39.0064 54.5545 37.9534 53.0985 36.8614C53.0985 37.2189 53.0985 37.4919 53.0985 37.7714C53.0985 38.5774 52.6825 38.9934 51.883 38.9934C47.723 38.9934 43.563 38.9934 39.403 38.9934C39.2795 38.9934 39.1495 38.9934 39.013 38.9934C39.013 39.7214 39.013 40.4169 39.013 41.1514Z" fill="#007C66"/>
<path d="M37.9665 45.5C38.1225 45.5 38.2525 45.5 38.3825 45.5C42.185 45.5 45.9875 45.5 49.79 45.5C51.077 45.5 52 46.4165 52 47.7035C52 48.438 52 49.179 52 49.9135C51.9935 50.9925 51.116 51.9285 50.0305 52C49.803 52.013 49.5755 52.0195 49.348 52.0195C45.6885 52.0195 42.0225 52.026 38.363 52.013C38.0575 52.013 37.9275 52.065 37.8625 52.4095C37.5505 54.054 35.529 54.7235 34.138 53.651C33.137 52.8775 32.1425 52.091 31.148 51.3045C30.797 51.0315 30.446 50.7585 30.1015 50.4855C28.9575 49.5755 28.925 47.97 30.056 47.0535C31.421 45.955 32.799 44.863 34.1965 43.81C35.646 42.7115 37.5895 43.498 37.9015 45.279C37.921 45.3505 37.9405 45.409 37.9665 45.5ZM31.4535 48.75C32.89 49.829 34.281 50.8755 35.7305 51.961C35.7305 51.6425 35.7305 51.402 35.7305 51.168C35.7305 50.2125 36.14 49.803 37.0955 49.803C41.2035 49.803 45.305 49.803 49.413 49.803C49.5365 49.803 49.66 49.803 49.7835 49.803C49.7835 49.075 49.7835 48.399 49.7835 47.6905C49.634 47.6905 49.504 47.6905 49.3805 47.6905C45.266 47.6905 41.145 47.6905 37.0305 47.6905C36.166 47.6905 35.737 47.2615 35.7305 46.3905C35.7305 46.1305 35.7305 45.8705 35.7305 45.5325C34.268 46.6375 32.8835 47.6775 31.4535 48.75Z" fill="#007C66"/>
<path d="M1.16992 54.5089C1.16992 54.4959 1.16992 54.4829 1.17642 54.4764C1.32592 54.2749 1.50792 54.3139 1.68992 54.4114C1.71592 54.4244 1.72242 54.5544 1.68992 54.5934C1.58592 54.7234 1.33892 54.6779 1.16992 54.5089Z" fill="#007C66"/>
<path d="M1.8524 58.7471C1.6964 58.8251 1.6184 58.8966 1.5469 58.8901C1.4754 58.8771 1.4234 58.7861 1.3584 58.7276C1.4299 58.6756 1.4949 58.5911 1.5664 58.5846C1.6379 58.5781 1.7159 58.6561 1.8524 58.7471Z" fill="#007C66"/>
</g>
<defs>
<clipPath id="clip0_3_50">
<rect width="65" height="65" fill="white"/>
</clipPath>
</defs>
</svg>
