<svg width="68" height="65" viewBox="0 0 68 65" fill="none" xmlns="http://www.w3.org/2000/svg">
<path d="M67.6691 40.1854C67.4506 41.5044 67.2798 42.8326 67.003 44.1384C66.3581 47.1802 65.1649 50.0076 63.4976 52.631C63.0037 53.4083 62.2607 53.6348 61.592 53.2269C60.91 52.8111 60.7709 52.0205 61.2755 51.2127C63.1586 48.2026 64.3849 44.9528 64.7875 41.4196C65.6668 33.711 63.4976 26.9677 58.072 21.4177C46.3919 9.4674 26.1834 12.9953 19.1608 28.149C12.5989 42.3069 20.9419 58.7889 36.2612 61.8466C42.435 63.0782 48.2512 62.028 53.6423 58.7438C54.6951 58.1029 55.4208 58.1386 55.8989 58.871C56.3796 59.6086 56.0777 60.3489 55.0302 61.0017C41.108 69.6731 22.5165 63.6715 16.3175 48.486C16.0805 47.9059 15.7971 47.755 15.2104 47.7616C12.546 47.792 9.88021 47.7761 7.21443 47.7735C6.97209 47.7735 6.72842 47.7761 6.48873 47.7497C5.78421 47.6689 5.30482 47.1551 5.28893 46.485C5.27171 45.795 5.76435 45.2441 6.49402 45.1541C6.71121 45.1276 6.93368 45.1329 7.15352 45.1329C9.55443 45.1316 11.9554 45.1329 14.3563 45.1329H15.078C14.8026 43.414 14.539 41.7745 14.2622 40.053C13.5802 40.053 12.8612 40.053 12.1408 40.053C10.929 40.053 9.71732 40.0662 8.50693 40.0463C7.70442 40.0331 7.1416 39.4716 7.13895 38.7353C7.1363 38.0003 7.69912 37.4269 8.50031 37.4176C10.1742 37.3978 11.8481 37.411 13.522 37.4097C13.7603 37.4097 14 37.4097 14.2199 37.4097C14.4371 35.7199 14.6463 34.0884 14.8701 32.343H14.1563C10.059 32.343 5.96166 32.3443 1.86567 32.339C1.55976 32.339 1.24458 32.3271 0.949268 32.2543C0.346721 32.106 -0.0426175 31.5219 0.0037323 30.9115C0.0500821 30.293 0.510931 29.8004 1.13467 29.7222C1.37436 29.6931 1.61803 29.6997 1.86037 29.6997C6.26625 29.6997 10.6708 29.6905 15.0767 29.7103C15.5521 29.713 15.7468 29.5527 15.9269 29.1197C16.5466 27.6233 17.2286 26.152 17.9053 24.6291C17.7305 24.6198 17.5226 24.5999 17.316 24.5986C15.0687 24.596 12.8228 24.5999 10.5755 24.596C9.618 24.5946 9.00618 24.0755 9.00486 23.2836C9.00486 22.4983 9.62727 21.958 10.5728 21.9567C13.4359 21.9514 16.3003 21.9448 19.1634 21.9633C19.6401 21.9659 19.9527 21.8441 20.2731 21.4548C24.0447 16.8741 28.7975 13.8283 34.5701 12.398C34.7383 12.357 34.9011 12.2921 35.0905 12.2298C35.0998 12.0233 35.1143 11.8273 35.1157 11.6313C35.1183 10.7308 35.1157 9.82893 35.1157 8.9218C33.4802 8.39606 32.3453 7.39225 31.8738 5.76074C31.0594 2.94268 33.0988 0.119313 36.0811 0.0504509C39.3176 -0.025033 42.5568 -0.00649313 45.7947 0.0451538C48.0618 0.0809093 49.7728 1.65945 50.1502 3.90808C50.4879 5.91966 49.2881 7.9511 47.2726 8.72448C46.9123 8.86221 46.764 9.02112 46.7773 9.41973C46.8091 10.3414 46.7879 11.2644 46.7879 12.1292C48.3532 12.6722 49.9132 13.084 51.3646 13.7356C60.5365 17.858 65.876 24.9257 67.4307 34.8578C67.5155 35.3981 67.5883 35.9411 67.6678 36.4814V40.1827L67.6691 40.1854ZM40.9147 6.37388C42.4098 6.37388 43.9062 6.37918 45.4013 6.36859C45.7046 6.36594 46.0238 6.35137 46.3098 6.26C47.1401 5.99646 47.6645 5.13568 47.544 4.30536C47.3997 3.31745 46.6501 2.68179 45.5417 2.6765C42.5065 2.66325 39.4712 2.66458 36.436 2.67517C35.1713 2.67915 34.3423 3.44855 34.3555 4.55962C34.3688 5.65083 35.1739 6.36329 36.428 6.36991C37.9231 6.37786 39.4196 6.37124 40.9147 6.37256V6.37388ZM44.1274 9.06085H37.7987V11.6975H44.1274V9.06085Z" fill="#007C66"/>
<path d="M41.0167 17.8079C52.3989 17.8662 61.5391 27.0831 61.4649 38.4296C61.3921 49.7137 52.146 58.8738 40.8922 58.8102C29.5723 58.7467 20.4215 49.5111 20.4758 38.2058C20.5301 26.911 29.755 17.7496 41.0154 17.8079H41.0167ZM40.9585 20.4525C31.0939 20.4657 23.1164 28.4524 23.1191 38.313C23.1217 48.1524 31.1522 56.1762 40.9836 56.167C50.8243 56.1577 58.8336 48.1286 58.8217 38.2879C58.8097 28.4233 50.8137 20.4406 40.9585 20.4525Z" fill="#007C66"/>
<path d="M2.63653 46.4571C2.63653 47.1762 2.06047 47.7496 1.33344 47.7576C0.5786 47.7655 -0.0186503 47.1656 0.00121391 46.4214C0.0210781 45.7089 0.619652 45.1368 1.33609 45.1461C2.05385 45.1567 2.63785 45.7447 2.63653 46.4571Z" fill="#007C66"/>
<path d="M57.6125 56.1882C57.6377 55.4638 58.2243 54.9208 58.9567 54.9407C59.6744 54.9606 60.2558 55.5605 60.2399 56.2663C60.224 57.0039 59.5923 57.584 58.8454 57.5469C58.121 57.5098 57.586 56.9205 57.6125 56.1882Z" fill="#007C66"/>
<path d="M36.8479 38.1937C36.8903 37.9368 36.8691 37.5739 37.0135 37.2958C37.3737 36.6019 37.0532 36.19 36.5646 35.7438C35.8336 35.075 35.1476 34.3586 34.4576 33.6474C33.8432 33.0131 33.8114 32.2662 34.3477 31.71C34.8867 31.1512 35.6998 31.1763 36.3394 31.8014C37.1592 32.6012 37.9683 33.4117 38.7655 34.2341C39.0198 34.4976 39.2277 34.5956 39.6117 34.446C40.5016 34.1003 41.4326 34.1017 42.3238 34.4433C42.7026 34.5877 42.9105 34.5042 43.1727 34.2407C45.0942 32.3006 47.0303 30.3738 48.9611 28.443C49.1015 28.3026 49.2353 28.1543 49.3875 28.0298C49.949 27.5677 50.6959 27.5888 51.1859 28.0722C51.6733 28.5529 51.7196 29.3223 51.2495 29.8666C50.8906 30.2824 50.4841 30.6572 50.0947 31.0465C48.4447 32.6979 46.8026 34.3572 45.1353 35.9914C44.8002 36.3198 44.7036 36.5714 44.8572 37.0561C45.3856 38.7247 44.9817 40.2119 43.6706 41.368C42.3834 42.5029 40.8777 42.7439 39.3032 42.0354C37.7048 41.3163 36.9354 40.0066 36.8479 38.1963V38.1937ZM40.9665 36.8562C40.1481 36.8575 39.5045 37.509 39.5164 38.3221C39.5283 39.0995 40.1666 39.7457 40.9413 39.7643C41.7345 39.7828 42.4165 39.1167 42.4245 38.3142C42.4324 37.5011 41.7849 36.8548 40.9665 36.8562Z" fill="#007C66"/>
<path d="M42.2973 24.7736C42.2973 24.9921 42.3092 25.2119 42.2946 25.4304C42.247 26.1588 41.7345 26.6752 41.0432 26.7044C40.3334 26.7335 39.7388 26.2223 39.6752 25.4781C39.6368 25.0212 39.6368 24.5564 39.6739 24.0995C39.7335 23.3486 40.3109 22.8428 41.03 22.8626C41.753 22.8825 42.2602 23.4069 42.2986 24.1829C42.3079 24.3802 42.2999 24.5776 42.2999 24.7749C42.2999 24.7749 42.2986 24.7749 42.2973 24.7749V24.7736Z" fill="#007C66"/>
<path d="M54.4926 39.6598C54.2092 39.6439 53.9192 39.6598 53.6424 39.6068C52.9617 39.4757 52.5459 38.9208 52.579 38.2362C52.6121 37.5648 53.1034 37.0562 53.8 37.0125C54.237 36.9847 54.6766 36.99 55.1137 37.0086C55.8619 37.0403 56.4128 37.5939 56.4234 38.2971C56.4326 38.9685 55.9241 39.5419 55.2156 39.628C54.9786 39.6571 54.7349 39.632 54.4939 39.632V39.6571L54.4926 39.6598Z" fill="#007C66"/>
<path d="M39.6433 51.8298C39.6433 51.6113 39.6328 51.3914 39.646 51.1729C39.691 50.4525 40.2101 49.9268 40.8961 49.8937C41.5755 49.8606 42.1807 50.3466 42.2588 51.0551C42.3118 51.5305 42.3051 52.0192 42.2681 52.4985C42.2111 53.2428 41.6112 53.7765 40.916 53.7526C40.2154 53.7288 39.6818 53.1726 39.6433 52.4204C39.6341 52.2244 39.642 52.0258 39.6433 51.8298Z" fill="#007C66"/>
<path d="M27.501 36.9607C27.7433 36.9713 27.987 36.966 28.2267 36.9951C28.8928 37.0786 29.3457 37.5791 29.3643 38.2373C29.3841 38.9034 28.9842 39.4623 28.3168 39.5523C27.7764 39.6251 27.2163 39.6265 26.6733 39.5722C25.9794 39.502 25.508 38.9206 25.5172 38.2664C25.5278 37.5778 26.0403 37.0481 26.774 36.9859C27.015 36.966 27.2573 36.9832 27.4997 36.9832C27.4997 36.9753 27.4997 36.9686 27.4997 36.9607H27.501Z" fill="#007C66"/>
</svg>
