<svg width="59" height="65" viewBox="0 0 59 65" fill="none" xmlns="http://www.w3.org/2000/svg">
<path d="M28.9643 64.9987C20.3032 60.945 12.9444 55.3102 7.546 47.2993C4.51711 42.8042 2.35089 37.9262 1.1312 32.6399C1.04734 32.2748 1.09816 31.7546 1.30907 31.4697C1.75756 30.8617 2.62405 31.1988 2.8629 32.0166C3.3368 33.6371 3.73066 35.2869 4.30874 36.8705C7.60699 45.904 13.3637 53.0461 21.2472 58.4532C23.7107 60.1424 26.408 61.4919 29.0164 62.9661C29.2451 63.0959 29.6554 63.0997 29.8956 62.9839C37.9239 59.121 44.7554 53.8143 49.7981 46.3631C52.6923 42.0868 54.7747 37.4505 55.9791 32.4224C56.0185 32.2583 56.0528 32.0917 56.1049 31.9314C56.2713 31.4188 56.6245 31.1657 57.1632 31.2446C57.6638 31.3171 57.9891 31.7673 57.8773 32.3308C57.7172 33.1372 57.5101 33.9373 57.2776 34.7259C54.0797 45.5516 47.609 53.9784 38.3343 60.2543C35.6891 62.0439 32.772 63.4291 29.9794 65H28.9655L28.9643 64.9987Z" fill="#007C66"/>
<path d="M4.53087 21.6005C4.53087 19.7434 4.53849 18.432 4.5296 17.1206C4.51943 15.6223 5.18264 14.6009 6.5802 14.0209C10.4349 12.4195 13.352 9.78776 15.2248 6.03037C15.7978 4.88179 16.7214 4.29541 18.0135 4.29541C25.662 4.29668 33.3092 4.29541 40.9577 4.29668C42.2218 4.29668 43.1379 4.86907 43.7007 5.9973C45.5734 9.75214 48.474 12.3991 52.3326 14.0005C53.7517 14.5894 54.4454 15.6197 54.4124 17.1474C54.3514 20.1059 54.4086 23.0734 54.1938 26.0219C53.7974 31.4506 52.1382 36.5347 49.5146 41.2918C45.1707 49.1678 38.855 55.0189 30.9715 59.2393C29.983 59.7684 28.9958 59.7862 28.0061 59.2558C19.7249 54.8179 13.1792 48.6209 8.85441 40.2056C5.76961 34.2019 4.37078 27.8026 4.53087 21.6031V21.6005ZM29.4989 6.12577C25.737 6.12577 21.9762 6.13086 18.2143 6.12068C17.5841 6.11941 17.1318 6.31402 16.8358 6.91057C14.7839 11.0483 11.5555 13.928 7.3298 15.7113C6.67803 15.986 6.37184 16.3778 6.382 17.0977C6.40868 18.9803 6.37946 20.864 6.39598 22.7465C6.45315 29.0237 8.02604 34.9116 11.0486 40.3989C15.2006 47.9353 21.2521 53.5243 28.7836 57.5755C29.3427 57.8757 29.8178 57.7638 30.3337 57.4852C36.1056 54.3664 41.0479 50.2719 44.961 44.9818C49.0419 39.4665 51.6274 33.3217 52.2855 26.4721C52.5739 23.4703 52.485 20.4316 52.5485 17.4094C52.5739 16.1845 52.4761 16.0904 51.3746 15.6095C47.3178 13.8402 44.2 11.0432 42.1939 7.07211C41.8356 6.36235 41.3579 6.11051 40.593 6.11559C36.8946 6.13849 33.1974 6.12577 29.4989 6.12577Z" fill="#007C66"/>
<path d="M29.4787 0C34.487 0 39.4954 0 44.5037 0C46.196 0 47.0346 0.765724 47.3662 2.41801C48.145 6.30641 50.5984 8.72314 54.2409 10.018C54.9893 10.2838 55.7922 10.4174 56.5812 10.5433C58.0944 10.7837 58.9304 11.6716 58.9304 13.1966C58.9304 17.1321 58.9126 21.0663 58.8846 25.0018C58.8796 25.6988 58.8084 26.3958 58.7449 27.0903C58.6826 27.7759 58.2672 28.1461 57.6815 28.0748C57.139 28.0087 56.876 27.5699 56.8874 26.9046C56.9674 22.3383 57.0322 17.7706 57.1021 13.203C57.1097 12.6815 56.8378 12.4627 56.3322 12.3979C53.6247 12.0468 51.2006 11.0318 49.1601 9.19123C47.2328 7.45245 45.975 5.31809 45.5532 2.73346C45.449 2.09747 45.1669 1.84944 44.5037 1.85071C34.487 1.86725 24.4703 1.86597 14.4536 1.85325C13.8527 1.85325 13.5287 2.01607 13.3991 2.65459C12.3331 7.9358 8.92054 10.8855 3.87153 12.1791C3.44337 12.2885 3.00123 12.3597 2.56164 12.4055C2.03184 12.4602 1.83364 12.7476 1.83745 13.2501C1.8438 14.5411 1.82855 15.8309 1.84126 17.1219C1.87175 20.0195 1.91114 22.917 1.9556 25.8146C1.96196 26.1936 2.02294 26.5726 2.05216 26.9517C2.10425 27.6284 1.7663 28.099 1.20092 28.1423C0.673659 28.183 0.241686 27.7861 0.203571 27.1387C0.118446 25.6823 0.0282403 24.2246 0.0155351 22.7656C-0.0124161 19.6557 0.00537107 16.5457 0.00791209 13.4358C0.0091826 11.6105 0.766407 10.757 2.56672 10.5344C6.79244 10.0116 10.3245 7.1052 11.3866 3.27022C11.4933 2.88482 11.5492 2.48542 11.6331 2.09366C11.9139 0.770811 12.8706 0.00254393 14.2643 0.00254393C19.3362 -0.00127197 24.4081 0.00127197 29.4799 0.00127197L29.4787 0Z" fill="#007C66"/>
<path d="M38.5336 23.0952C39.0113 23.0952 39.4077 23.0939 39.8054 23.0952C41.7963 23.1028 42.9944 24.2921 42.9995 26.3018C43.0096 29.7717 43.002 33.2404 43.002 36.7103C43.002 37.4086 43.002 38.1069 43.002 38.8052C42.9982 41.0604 41.856 42.2179 39.6186 42.2179C33.7019 42.2204 27.7851 42.2179 21.8683 42.2179C20.9599 42.2179 20.0515 42.2281 19.1431 42.2154C17.2221 42.1874 16.0291 40.9815 16.0265 39.0609C16.0214 34.7871 16.0214 30.5145 16.0265 26.2407C16.0291 24.3137 17.231 23.1066 19.1418 23.0952C19.5598 23.0926 19.9791 23.0952 20.4746 23.0952C20.4746 21.6744 20.4314 20.3057 20.4898 18.9409C20.5292 18.0187 20.608 17.0737 20.8519 16.1897C22.017 11.9693 26.1766 9.17603 30.4519 9.67592C34.8771 10.1936 38.249 13.703 38.4942 18.1078C38.573 19.5209 38.5247 20.9417 38.5336 22.3587C38.5349 22.5864 38.5336 22.8128 38.5336 23.0952ZM29.5155 40.3697C32.8938 40.3697 36.2734 40.3697 39.6517 40.3697C40.7888 40.3697 41.142 40.0238 41.142 38.9095C41.1432 34.7451 41.1432 30.5794 41.142 26.415C41.142 25.2817 40.804 24.9395 39.6694 24.9395C32.8913 24.937 26.1118 24.937 19.3337 24.9395C18.2321 24.9395 17.8738 25.2855 17.8726 26.3654C17.8675 30.5514 17.8688 34.7375 17.8726 38.9235C17.8726 40.0136 18.2334 40.3685 19.3159 40.3697C22.7158 40.3723 26.1156 40.3697 29.5155 40.3697ZM36.591 23.0595C36.591 21.1923 36.7524 19.381 36.5567 17.6092C36.1781 14.2003 33.3372 11.7238 29.8306 11.5088C26.5629 11.3091 23.3408 13.4956 22.6637 16.7379C22.238 18.7717 22.3486 20.9188 22.2152 23.0608H36.5923L36.591 23.0595Z" fill="#007C66"/>
<path d="M28.5842 35.0871C28.5842 34.876 28.5665 34.6636 28.5881 34.4537C28.6414 33.9436 28.5182 33.5824 28.071 33.225C27.1104 32.4567 27.1066 31.0092 27.968 30.1315C28.8104 29.2755 30.1864 29.2704 31.0363 30.1214C31.8965 30.9825 31.8977 32.444 30.9512 33.2186C30.5129 33.5773 30.3998 33.9411 30.4303 34.4524C30.4621 34.9994 30.4506 35.5501 30.4316 36.0983C30.41 36.7521 30.0364 37.1668 29.5054 37.1655C28.9667 37.1655 28.602 36.747 28.5855 36.0983C28.5766 35.7613 28.5842 35.4229 28.5842 35.0846V35.0871Z" fill="#007C66"/>
</svg>
