<svg width="62" height="55" viewBox="0 0 62 55" fill="none" xmlns="http://www.w3.org/2000/svg">
<path d="M12.1361 3.86948L12.4082 4.4375H13.038H57.6559C59.8679 4.4375 61.4519 6.51108 60.882 8.58683L60.8814 8.58905L56.4308 24.948C56.4308 24.9482 56.4308 24.9483 56.4307 24.9484C55.6279 27.8826 52.932 29.9375 49.8505 29.9375H18.5311H17.3215L17.5489 31.1256L18.1352 34.1871L18.1361 34.1921C18.4681 35.8791 19.9574 37.0938 21.6793 37.0938H52.977C53.8785 37.0938 54.5825 37.8054 54.5825 38.6719C54.5825 39.5384 53.8785 40.25 52.977 40.25H21.6793C18.3947 40.25 15.5897 37.9402 14.9865 34.7784L14.9862 34.7769L9.38561 5.67148C9.3854 5.67032 9.38518 5.66916 9.38496 5.668C9.21601 4.76973 8.42988 4.15625 7.54488 4.15625H2.60543C1.70391 4.15625 1 3.44465 1 2.57812C1 1.7116 1.70391 1 2.60543 1H7.54488C9.54541 1 11.3132 2.15148 12.1361 3.86948ZM14.8956 49.8438C14.8956 49.2994 15.0039 48.7602 15.2147 48.2567C15.4255 47.7532 15.7347 47.295 16.1252 46.9086C16.5158 46.5221 16.98 46.215 17.4916 46.0053C18.0033 45.7956 18.552 45.6875 19.1065 45.6875C19.6609 45.6875 20.2097 45.7956 20.7213 46.0053C21.233 46.215 21.6972 46.5221 22.0877 46.9086C22.4782 47.295 22.7875 47.7532 22.9982 48.2567C23.209 48.7602 23.3173 49.2994 23.3173 49.8438C23.3173 50.3881 23.209 50.9273 22.9982 51.4308C22.7875 51.9343 22.4782 52.3925 22.0877 52.7789C21.6972 53.1654 21.233 53.4725 20.7213 53.6822C20.2097 53.8919 19.6609 54 19.1065 54C18.552 54 18.0033 53.8919 17.4916 53.6822C16.98 53.4725 16.5158 53.1654 16.1252 52.7789C15.7347 52.3925 15.4255 51.9343 15.2147 51.4308C15.0039 50.9273 14.8956 50.3881 14.8956 49.8438ZM50.3716 45.6875C51.4918 45.6875 52.564 46.1279 53.3529 46.9086C54.1414 47.6888 54.5825 48.7449 54.5825 49.8438C54.5825 50.9426 54.1414 51.9987 53.3529 52.7789C52.564 53.5596 51.4918 54 50.3716 54C49.2514 54 48.1792 53.5596 47.3903 52.7789C46.6018 51.9987 46.1607 50.9426 46.1607 49.8438C46.1607 48.7449 46.6018 47.6888 47.3903 46.9086C48.1792 46.1279 49.2514 45.6875 50.3716 45.6875Z" stroke="#007C66" stroke-width="2"/>
</svg>
