<svg width="35" height="34" viewBox="0 0 35 34" fill="none" xmlns="http://www.w3.org/2000/svg">
<path d="M6.23488 31.4597C6.50916 29.8298 6.8383 27.9236 7.14 26.0174C7.332 24.9399 7.49657 23.8349 7.71599 22.7575C7.8257 22.2326 7.68856 21.8734 7.30457 21.5143C5.32977 19.5804 3.35496 17.619 1.40758 15.6299C1.05102 15.2431 0.694457 14.7459 0.584745 14.2486C0.337894 13.1435 0.996163 12.2042 2.12071 12.0109C4.75378 11.5688 7.35943 11.1268 9.9925 10.7953C11.0622 10.6572 11.693 10.2704 12.1319 9.24823C13.1741 6.9 14.3261 4.63465 15.4232 2.31404C15.8346 1.45763 16.4655 0.849854 17.4255 0.849854C18.3854 0.849854 18.9888 1.45763 19.4003 2.3693C20.5797 4.88328 21.8139 7.39727 23.0207 9.91126C23.2127 10.3257 23.4596 10.6019 23.9807 10.6572C26.6138 11.0439 29.2194 11.4583 31.8525 11.8727C32.0994 11.9003 32.3462 11.9556 32.5931 11.9832C33.3885 12.0937 33.9645 12.4805 34.2387 13.2817C34.5404 14.1381 34.2662 14.8564 33.6628 15.4641C32.0445 17.0941 30.5085 18.7793 28.7806 20.2711C27.4092 21.459 26.9429 22.647 27.4092 24.4703C27.9578 26.708 28.1772 29.0286 28.5612 31.3216C28.6983 32.178 28.5612 32.9239 27.8206 33.4488C27.1075 33.9737 26.3669 33.9461 25.5715 33.5317C23.0756 32.2056 20.5797 30.8796 18.0837 29.5535C17.59 29.2773 17.206 29.2773 16.7123 29.5535C14.4084 30.8243 12.077 32.0675 9.74565 33.2831C9.33423 33.5041 8.92282 33.7251 8.45654 33.808C7.24972 34.0842 6.23488 33.0897 6.23488 31.4597Z" fill="#FF5E5E"/>
</svg>
