<svg width="60" height="59" viewBox="0 0 60 59" fill="none" xmlns="http://www.w3.org/2000/svg">
<path d="M32.361 2.50315L32.3624 2.50619L39.6685 17.75L39.8977 18.2283L40.4223 18.3068L56.7477 20.7491C56.7481 20.7492 56.7486 20.7493 56.749 20.7493C57.73 20.8991 58.5502 21.5973 58.8674 22.5706C59.1827 23.5384 58.9242 24.6091 58.2127 25.3222L58.2123 25.3226L46.3726 37.2019L46.0099 37.5659L46.0946 38.0728L48.9007 54.8578C48.9008 54.8584 48.9009 54.859 48.901 54.8597C49.0665 55.871 48.6504 56.8909 47.8281 57.4973C47.0208 58.0927 45.9485 58.1638 45.0548 57.6863C45.0542 57.686 45.0536 57.6857 45.0531 57.6854L30.4793 49.795L30.0032 49.5372L29.5271 49.795L14.9534 57.6854C14.9528 57.6857 14.9522 57.686 14.9516 57.6863C14.0634 58.1608 12.9876 58.0858 12.1729 57.4933C11.3591 56.9015 10.939 55.8745 11.1056 54.8589C11.1056 54.8585 11.1057 54.8582 11.1057 54.8578L13.9005 38.0721L13.9849 37.5656L13.6224 37.2019L1.78277 25.3226L1.78239 25.3222C1.07539 24.6136 0.819598 23.5416 1.13002 22.5632C1.43522 21.6013 2.25978 20.8998 3.2461 20.7493C3.24652 20.7492 3.24695 20.7492 3.24737 20.7491L19.5615 18.3068L20.086 18.2282L20.3152 17.75L27.6195 2.50972C27.6198 2.50918 27.6201 2.50865 27.6203 2.50811C28.0713 1.57808 28.9877 1 29.9918 1C31.0014 1 31.9236 1.58255 32.361 2.50315Z" stroke="#007C66" stroke-width="2"/>
</svg>
