<svg width="81" height="65" viewBox="0 0 81 65" fill="none" xmlns="http://www.w3.org/2000/svg">
<path d="M80.8712 43.5221C80.55 43.995 80.2731 44.5056 79.9012 44.936C74.396 51.3164 68.8796 57.6874 63.3617 64.0584C62.3664 65.2075 61.7287 65.2011 60.746 64.0631C58.654 61.6421 56.5573 59.2226 54.4385 56.7764C47.221 62.9535 38.8975 65.7244 29.4679 64.8386C21.1649 64.0584 14.1595 60.5009 8.52292 54.3821C-2.37363 42.5512 -2.87367 24.6408 7.32187 12.0186C17.712 -0.844757 37.2281 -4.32816 51.962 6.22292C51.9889 5.96127 52.0269 5.74848 52.03 5.53412C52.0474 4.64357 51.9968 3.74829 52.0759 2.86246C52.2167 1.29099 53.44 0.135638 55.0161 0.126181C59.7 0.0993859 64.384 0.0978097 69.0679 0.126181C70.7706 0.135638 72.0144 1.43916 72.0476 3.15564C72.073 4.46546 72.0556 5.77686 72.0556 7.08668C72.0556 17.9908 72.0556 28.895 72.0556 39.8007V40.8268C72.3752 40.8441 72.6506 40.8725 72.9259 40.8741C74.5843 40.8788 76.2442 40.9308 77.8994 40.8599C79.2366 40.8032 80.2572 41.1862 80.8696 42.4219V43.5237L80.8712 43.5221ZM51.9572 40.8757C51.9968 40.6975 52.0189 40.6455 52.0189 40.5951C52.0237 33.2815 52.0316 25.9664 52.0158 18.6528C52.0158 18.3723 51.8623 18.0413 51.6771 17.8174C45.8143 10.6993 38.2408 7.53432 29.1181 8.84572C15.5505 10.7955 6.61136 23.4019 8.98657 36.8043C12.077 54.2466 33.0884 62.4002 47.1989 51.6285C47.7527 51.2061 48.2765 50.7474 48.824 50.2982C48.631 50.0696 48.5139 49.9294 48.3952 49.7906C46.8856 48.0426 45.3775 46.2899 43.8616 44.5466C43.2318 43.8216 43.0561 43.0177 43.4517 42.1429C43.8505 41.2603 44.6021 40.8898 45.5484 40.8772C45.8902 40.8725 46.232 40.8772 46.5754 40.8772C48.3588 40.8772 50.1422 40.8772 51.9572 40.8772V40.8757ZM46.1956 43.3928C51.568 49.5999 56.7931 55.6383 62.0547 61.7162C67.3526 55.5911 72.5635 49.5684 77.9058 43.3928C75.6271 43.3928 73.5604 43.3928 71.4922 43.3928C69.8323 43.3928 69.5284 43.0871 69.5284 41.4147C69.5284 28.8603 69.5284 16.3043 69.5284 3.74986C69.5284 2.66859 69.4936 2.63391 68.4223 2.63391C64.2384 2.63391 60.0545 2.63391 55.8706 2.63391C54.5603 2.63391 54.5571 2.63707 54.5571 3.95004C54.5571 16.4792 54.5571 29.0085 54.5571 41.5377C54.5571 43.0713 54.2375 43.3944 52.7247 43.396C50.6264 43.396 48.5281 43.396 46.1972 43.396L46.1956 43.3928ZM50.503 52.2259C39.4434 61.9825 23.2616 60.8209 13.7101 51.0642C4.31527 41.4667 3.45918 26.5984 11.6878 16.2475C15.8923 10.9578 21.3215 7.5816 27.9994 6.46093C37.2534 4.90837 45.2129 7.66829 52.0316 14.26C52.0316 12.8146 52.011 11.5363 52.0411 10.2596C52.0538 9.74257 51.9066 9.39581 51.4793 9.06954C43.5831 3.04688 34.7626 1.07821 25.1399 3.50713C9.30147 7.50437 -0.30857 23.3531 3.30885 39.2002C8.246 60.8382 34.7057 69.8115 51.8291 55.6557C52.144 55.3956 52.4478 55.1213 52.7706 54.8408C51.9825 53.9297 51.261 53.0991 50.5046 52.2259H50.503Z" fill="#007C66"/>
<path d="M32.5298 51.7013C30.6246 51.6997 29.278 50.475 29.3666 48.5709C29.4251 47.2848 29.0896 46.6385 27.8395 46.0679C26.5958 45.4989 25.5039 44.4791 24.5307 43.4782C23.2743 42.1889 23.4151 40.3117 24.6525 39.2004C26.0783 37.9206 28.0753 37.9206 29.3191 39.2966C30.6056 40.7199 32.1453 41.1376 33.9524 40.6758C34.4509 40.5481 34.9494 40.3195 35.3703 40.0279C36.2011 39.4542 36.671 38.6519 36.508 37.6053C36.353 36.6155 35.5507 36.1962 34.7326 36.0417C33.2926 35.7706 31.8082 35.7375 30.3619 35.4932C26.7746 34.888 23.9943 33.1589 22.7758 29.573C21.3152 25.2795 23.7205 20.4563 28.2668 18.6799C29.3871 18.2433 29.6767 17.7121 29.6198 16.6072C29.5391 15.0074 30.3651 13.893 31.7149 13.4611C34.0031 12.7313 36.0855 14.183 36.0017 16.5725C35.9605 17.7594 36.2643 18.3473 37.4179 18.8974C38.7029 19.5106 39.8422 20.5414 40.8565 21.5754C42.1146 22.8568 41.9437 24.742 40.6714 25.8469C39.2409 27.0889 37.2708 27.0889 36.0634 25.7476C34.6107 24.1336 32.8859 23.8278 30.911 24.4898C30.0866 24.7656 29.4299 25.2779 29.0422 26.0802C28.5057 27.193 28.7842 28.2648 29.9378 28.6809C30.9791 29.0576 32.1263 29.1459 33.2293 29.3429C34.4145 29.5541 35.6456 29.6124 36.7834 29.9702C40.1397 31.0263 42.3662 33.2424 42.8852 36.7778C43.39 40.2092 42.0386 43.0085 39.3073 45.086C38.4069 45.7716 37.2977 46.1925 36.2564 46.6795C35.9004 46.8466 35.6963 46.99 35.7342 47.4077C35.7691 47.797 35.7485 48.1927 35.739 48.5867C35.6978 50.4829 34.4351 51.706 32.5283 51.7044L32.5298 51.7013ZM31.8541 44.8164C31.8541 46.0191 31.8589 47.1933 31.8526 48.3692C31.8494 48.8421 31.9428 49.192 32.5362 49.1904C33.1296 49.1904 33.2198 48.8436 33.2166 48.3676C33.2071 47.1918 33.2134 46.0159 33.2134 44.8117C33.5821 44.7392 33.8891 44.673 34.1977 44.6178C35.8149 44.3294 37.2597 43.6926 38.4497 42.5404C41.9326 39.1658 40.779 33.9296 36.1757 32.4133C35.1693 32.0808 34.0679 32.0335 33.0093 31.8538C31.7972 31.6473 30.5281 31.6016 29.384 31.2012C26.1891 30.0853 25.2554 26.6145 27.4044 23.9964C29.0564 21.9836 31.3035 21.432 33.7942 21.7346C35.3956 21.9285 36.7264 22.7008 37.774 23.9255C38.1664 24.3842 38.5778 24.2628 38.9513 23.9712C39.3754 23.6402 39.0826 23.3234 38.8374 23.0397C37.7803 21.8118 36.4685 20.9827 34.9019 20.554C34.4509 20.4311 33.9952 20.3255 33.503 20.2009C33.503 18.9605 33.4951 17.7578 33.5062 16.5536C33.5109 16.065 33.3147 15.8301 32.8068 15.8286C32.2165 15.8286 32.1184 16.1895 32.12 16.6592C32.1216 17.8335 32.12 19.0078 32.12 20.2088C31.7671 20.2813 31.4902 20.3475 31.2085 20.3964C29.7558 20.6439 28.4187 21.1624 27.2952 22.1302C25.4453 23.7222 24.5576 25.7318 25.0102 28.1513C25.4517 30.514 27.0452 31.9578 29.2859 32.6372C30.3271 32.9524 31.4443 33.069 32.5362 33.1636C33.9588 33.2865 35.3655 33.4253 36.6536 34.0999C38.4133 35.0219 39.2567 36.5351 39.0257 38.4959C38.7867 40.5308 37.5714 41.8894 35.7627 42.7091C33.1581 43.8896 29.7733 43.6296 27.6117 41.1281C27.2256 40.6821 26.83 40.7325 26.4391 41.032C25.9691 41.3898 26.284 41.7161 26.5499 42.0203C27.5974 43.2182 28.8934 44.0299 30.4284 44.4586C30.8809 44.5847 31.3399 44.6888 31.8541 44.8164Z" fill="#007C66"/>
</svg>
