<svg width="190" height="30" viewBox="0 0 190 30" fill="none" xmlns="http://www.w3.org/2000/svg">
<path d="M11.4109 0.0385785C11.4109 0.0385785 11.4623 0.0727596 11.4452 0.0898511V19.1299C11.4452 19.1299 11.4452 19.2495 11.4452 19.3179C11.4794 19.3692 11.5308 19.3521 11.565 19.3521C15.3138 19.3521 19.0456 19.3521 22.7944 19.3521C22.9142 19.3521 22.9656 19.335 22.9485 19.2153C22.9485 19.1812 22.9485 19.147 22.9485 19.1128V0.260768C22.9485 0.260768 22.9142 0.106942 22.9998 0.0556672C23.034 0.0385756 23.0683 0.0556672 23.1025 0.0556672C23.1368 0.0898504 23.1539 0.124036 23.1881 0.175311C23.6161 0.944432 24.044 1.71355 24.472 2.46558C24.8143 3.11506 25.1738 3.74745 25.5333 4.37984C25.927 5.08059 26.3207 5.79844 26.7144 6.49919C27.0739 7.13158 27.4162 7.78106 27.7757 8.41345C28.0838 8.99457 28.4091 9.55859 28.7172 10.1397C28.7686 10.2252 28.8199 10.2935 28.8713 10.379C28.8713 10.4815 28.8884 10.6012 28.8713 10.7037V29.2481C28.8713 29.3848 28.9454 29.4646 29.0938 29.4874C29.0938 29.4874 29.1452 29.4874 29.1623 29.5216C29.0082 29.5728 28.8542 29.6241 28.7001 29.6412C27.9983 29.795 27.2964 29.8805 26.5946 29.9318C26.2693 29.9488 25.927 29.9659 25.6017 29.9659C23.8899 29.983 22.1781 29.983 20.4835 29.9659C17.5221 29.9659 14.5606 29.9659 11.5821 29.9659C11.5136 29.9659 11.4623 29.9659 11.3938 29.9488C11.4109 29.9488 11.4281 29.9318 11.4452 29.9147C11.5479 29.8976 11.6677 29.8805 11.7704 29.8976H22.6232C22.7259 29.8976 22.8115 29.8976 22.9142 29.8976C22.9998 29.8634 22.9656 29.795 22.9656 29.7267V19.7623C22.9656 19.7623 22.9656 19.6255 22.9656 19.5572C22.8629 19.8135 22.743 20.0528 22.6061 20.2921C22.1268 21.198 21.6646 22.1038 21.1853 23.0097C20.9285 23.5053 20.6546 24.001 20.415 24.4966C20.3979 24.565 20.3294 24.6334 20.2609 24.6675C20.1753 24.6846 20.0898 24.7017 20.0042 24.6846H14.4237C14.4237 24.6846 14.2696 24.6846 14.2012 24.6846C14.0813 24.6505 14.0471 24.565 14.0129 24.4795C13.6876 23.8472 13.3624 23.2319 13.0371 22.5995L11.9758 20.5656C11.8046 20.2408 11.6506 19.9161 11.4623 19.5743V29.6583C11.4794 29.7608 11.4623 29.8634 11.4109 29.9488C11.3596 29.9488 11.2911 29.9488 11.2398 29.9488H8.70629C8.48376 29.9488 8.27834 29.9488 8.05581 29.9488C8.02157 29.9488 7.97022 29.9488 7.93598 29.9318C7.97022 29.8976 8.02157 29.9147 8.07293 29.9147H11.1713C11.1713 29.9147 11.2226 29.9147 11.2569 29.9147H8.12428C8.12428 29.9147 8.00445 29.8976 7.93598 29.9318C7.67921 29.9318 7.40533 29.9318 7.14856 29.8805C6.63502 29.8292 6.13859 29.7437 5.64217 29.6754C5.64217 29.6754 5.60794 29.6754 5.59082 29.6583C5.64217 29.5386 5.65929 29.419 5.64217 29.2994V10.7892C5.64217 10.6866 5.64217 10.567 5.64217 10.4644C5.67641 10.3619 5.72776 10.2423 5.77912 10.1397C6.13859 9.50732 6.48095 8.85783 6.84043 8.22544C8.12428 5.83262 9.45948 3.47398 10.7604 1.08116C10.9316 0.790606 11.0857 0.500051 11.2569 0.192403C11.274 0.141128 11.2911 0.0385772 11.4109 0.124035V0.27786C11.4109 0.27786 11.3596 0.106944 11.4109 0.00439453V0.0385785Z" fill="#F94F47"/>
<path d="M5.6936 10.4127V29.5894C5.6936 29.5894 5.64224 29.6749 5.59089 29.6749C4.75211 29.504 3.93044 29.2476 3.16014 28.9058C2.73219 28.7177 2.32135 28.4956 1.96188 28.2221C0.934797 27.5213 0.250077 26.4788 0.0788971 25.3336C0.0788971 25.2994 0.0788971 25.2482 0.0788971 25.214C0.0788971 25.1627 0.0617791 25.0943 0.0788971 25.0431V0.362808C0.0788971 0.362808 0.0788971 0.243169 0.0788971 0.191895C0.164487 0.191895 0.181606 0.26026 0.198724 0.311535C0.523966 0.875557 0.83209 1.45667 1.15733 2.03779C1.53393 2.72145 1.92764 3.4222 2.30424 4.10587C2.66371 4.73825 3.02319 5.38773 3.36555 6.03721C3.58808 6.44741 3.81062 6.84052 4.03315 7.25072C4.23857 7.62673 4.44398 7.98566 4.6494 8.36167C4.88905 8.80605 5.1287 9.25043 5.38547 9.69481C5.48818 9.88282 5.57377 10.0879 5.6936 10.2759C5.72783 10.3272 5.72783 10.3785 5.71071 10.4468L5.6936 10.4127Z" fill="#E01731"/>
<path d="M29.145 29.5386C29.145 29.5386 28.9909 29.5386 28.9053 29.5557C28.8369 29.5557 28.7855 29.5557 28.8026 29.4703V10.3277C28.8026 10.3277 28.8197 10.1739 28.854 10.1226C29.4189 9.11419 29.9838 8.12287 30.5315 7.09738C30.5315 7.08029 30.5658 7.04611 30.5829 7.02901C30.5829 7.02901 30.5829 7.01192 30.6 6.99483C30.6 6.99483 30.6171 6.96065 30.6343 6.94355C30.6514 6.92646 30.6343 6.92646 30.6514 6.90937C30.6685 6.87519 30.6856 6.841 30.7027 6.80682C30.7027 6.80682 30.7027 6.77264 30.7198 6.77264C31.0109 6.27698 31.2847 5.76424 31.5757 5.25149C31.7298 4.97802 31.8668 4.72165 32.0208 4.44818C32.1578 4.2089 32.2947 3.96962 32.4145 3.73034L32.4488 3.67906C32.8767 2.90994 33.3047 2.12373 33.7326 1.3546L34.2804 0.397477C34.2804 0.397477 34.3317 0.260744 34.4345 0.243652C34.4516 0.312019 34.4687 0.363294 34.4516 0.431661V24.8214C34.4516 24.8214 34.4516 24.941 34.4516 25.0094C34.4516 25.2316 34.4173 25.4367 34.3317 25.6418C34.1263 26.2912 33.7497 26.8723 33.2533 27.3509C32.8767 27.744 32.4488 28.0858 31.9695 28.3764C31.3703 28.7353 30.7199 29.0259 30.0351 29.2481C29.7441 29.3335 29.4702 29.419 29.1621 29.4874L29.145 29.5386Z" fill="#E01731"/>
<path d="M5.69341 10.4128C5.69341 10.4128 5.65917 10.3103 5.62494 10.2761C5.47087 9.96842 5.28258 9.67786 5.12852 9.37021C4.97445 9.07966 4.78616 8.7891 4.64921 8.49854C4.51227 8.22508 4.34109 7.9687 4.20414 7.69524C4.03296 7.35341 3.81043 7.02867 3.65637 6.68683C3.60501 6.5501 3.50231 6.43046 3.41672 6.29373C3.31401 6.08863 3.2113 5.88353 3.09148 5.67843C2.85182 5.28532 2.66353 4.89222 2.42387 4.48202C2.28693 4.22565 2.11575 3.96927 1.99593 3.7129C1.85898 3.42234 1.67068 3.14888 1.53374 2.87541C1.36256 2.51649 1.14003 2.20884 0.968845 1.84992C0.900374 1.679 0.76343 1.52518 0.67784 1.35426C0.489542 0.978245 0.267008 0.619322 0.0444744 0.243308V25.2312C-0.00687958 25.0603 -0.00688036 24.8894 0.0102376 24.7014C0.0102376 22.5136 0.0102376 20.3088 0.0102376 18.1211V0.516773C0.0102376 0.362948 0.0102376 0.209123 0.0102376 0.0552992C0.0615916 0.0382076 0.130064 0.0382076 0.181418 0.0552992H11.3081C11.4279 0.0552992 11.3766 0.106576 11.3423 0.157851L9.09989 4.19146C8.6377 5.02895 8.17552 5.88353 7.71333 6.72102C7.54215 7.02867 7.38809 7.35341 7.21691 7.66105L5.79612 10.2248L5.67629 10.447L5.69341 10.4128Z" fill="#F51B29"/>
<path d="M30.5832 7.07982C30.5832 7.07982 30.566 7.16527 30.5318 7.19946C30.1552 7.88312 29.7957 8.56678 29.402 9.23336C29.2137 9.5581 29.0425 9.86574 28.8542 10.2076C28.82 10.2589 28.8029 10.293 28.7858 10.3443C28.7173 10.3443 28.7002 10.293 28.6831 10.2589C28.6146 10.1221 28.5461 9.98539 28.4776 9.84865C28.3921 9.69483 28.2893 9.52391 28.2038 9.37009C28.0326 9.07953 27.8614 8.78897 27.7073 8.48133C27.5533 8.17368 27.3479 7.86603 27.1938 7.55838C27.0226 7.21655 26.8172 6.89181 26.646 6.54998C26.5604 6.36197 26.4406 6.19105 26.3379 6.00305C26.1838 5.71249 26.0127 5.42193 25.8586 5.13138C25.6874 4.78955 25.482 4.4648 25.3108 4.12297C25.2252 3.93497 25.0883 3.76405 25.0027 3.57604C24.8315 3.21712 24.609 2.87529 24.4207 2.51636C24.3351 2.32836 24.2153 2.15744 24.1126 1.96943C23.7873 1.37123 23.4621 0.790116 23.1368 0.19191C23.1026 0.140636 23.0855 0.0893607 23.0684 0.0380859H23.1026C25.3451 0.0380859 27.5704 0.0380859 29.8128 0.0380859H34.2635C34.2635 0.0380859 34.3833 0.0380859 34.4518 0.0380859C34.4518 0.0722691 34.5032 0.123543 34.4518 0.157726C34.2978 0.345734 34.1779 0.550834 34.0923 0.755933C33.5274 1.74724 32.9797 2.75564 32.4148 3.76405C32.2778 4.00333 32.1409 4.24261 32.0211 4.48189C31.867 4.75536 31.7129 5.01174 31.576 5.2852C31.285 5.79795 31.0111 6.32779 30.703 6.84053C30.703 6.84053 30.6516 6.92599 30.6345 6.96018C30.6345 6.96018 30.6345 7.01145 30.6003 7.02854C30.6003 7.02854 30.6003 7.06272 30.566 7.07982H30.5832Z" fill="#F51B29"/>
<path d="M32.4316 3.76457C32.5343 3.4911 32.6713 3.23473 32.8425 2.97836C32.8938 2.8929 32.9281 2.80744 32.9794 2.70489C33.1848 2.34597 33.3731 1.96996 33.5785 1.61103C33.7326 1.32048 33.8867 1.02992 34.0579 0.756454C34.1606 0.568446 34.2633 0.380439 34.366 0.192432C34.3831 0.158248 34.4002 0.106972 34.4687 0.141156C34.4687 1.14956 34.4687 2.15796 34.4687 3.14928V24.6163C34.4687 24.753 34.4687 24.8898 34.4344 25.0265C34.4344 24.9752 34.4344 24.924 34.4344 24.8727V0.29498C34.4344 0.29498 34.3831 0.346253 34.366 0.363345C34.3146 0.465894 34.2633 0.568444 34.1948 0.670994C33.6299 1.64521 33.0992 2.63653 32.5515 3.61075C32.5343 3.66202 32.5172 3.7133 32.4659 3.73039L32.4316 3.76457Z" fill="#F53B28"/>
<path d="M23.0684 0.0385763C23.0684 0.0385763 22.9486 0.106943 22.9657 0.175309C22.9657 0.175309 22.9657 0.260767 22.9657 0.312041V19.147C22.9657 19.4033 22.9999 19.3692 22.7261 19.3692H11.6678C11.6678 19.3692 11.4967 19.4033 11.4453 19.3179C11.4967 19.335 11.5651 19.3521 11.6336 19.335H22.8288C22.8288 19.335 22.9486 19.3179 22.9315 19.2324C22.9315 19.1811 22.9315 19.1299 22.9315 19.0957V0.243674C22.9315 0.243674 22.9315 0.175308 22.9315 0.141125C22.9315 0.055667 22.9657 0.0214844 23.0684 0.0214844V0.0385763Z" fill="#FA5A41"/>
<path d="M11.3424 0.123913C11.3424 0.123913 11.3766 0.0213647 11.291 0.0213647C11.2397 0.0213647 11.2054 0.0213647 11.1541 0.0213647H0.0102539C0.0102539 0.0213647 0.13008 0.0042727 0.181434 0.0042727C0.968862 0.0042727 1.73917 0.0042727 2.5266 0.0042727H11.2054C11.2054 0.0042727 11.3595 -0.0128185 11.4279 0.0213647V19.2836C11.4279 19.2836 11.3937 19.2323 11.3937 19.1981C11.3937 19.1639 11.3937 19.1298 11.3937 19.0956V0.329014C11.3937 0.329014 11.4279 0.175188 11.3595 0.123913H11.3424Z" fill="#F8482F"/>
<path d="M23.0684 0.0383343C23.0684 0.0383343 23.0684 0.0383339 23.0684 0.0212423C23.1368 0.0212423 23.1882 0.0212423 23.2567 0.0212423H34.2635C34.2635 0.0212423 34.4005 -0.0129433 34.4518 0.055423H23.0855L23.0684 0.0383343Z" fill="#F94F47"/>
<path d="M22.9653 29.983H11.6161C11.6161 29.983 11.4791 29.983 11.4106 29.983C11.4106 29.9146 11.4106 29.8633 11.4449 29.812C11.7359 29.248 12.0269 28.684 12.3179 28.1371C12.8999 27.0261 13.4648 25.9152 14.0639 24.8213C14.0639 24.77 14.1153 24.7358 14.1495 24.7017H20.2435C20.3805 24.9409 20.5174 25.1802 20.6372 25.4195C20.8769 25.881 21.1165 26.3425 21.3562 26.8039C21.8697 27.7952 22.4004 28.7865 22.9139 29.7779C22.9653 29.8462 22.9653 29.9146 22.9482 30L22.9653 29.983Z" fill="#E01731"/>
<path d="M14.1496 24.6675C14.1325 24.753 14.0811 24.8384 14.0469 24.9239C13.7559 25.4537 13.482 26.0007 13.191 26.5305C13.0027 26.8894 12.8144 27.2654 12.6261 27.6244C12.4035 28.0517 12.1981 28.4619 11.9585 28.8891C11.7873 29.1968 11.6332 29.5215 11.4792 29.8292C11.4621 29.8805 11.4449 29.9317 11.4107 29.9659H11.3765V19.4546C11.4278 19.4888 11.4621 19.54 11.4792 19.5913C11.599 19.8135 11.7017 20.0357 11.8215 20.2579C12.0098 20.5997 12.1981 20.9416 12.3693 21.2834C12.6774 21.8987 13.0027 22.4969 13.3279 23.1122C13.5162 23.4711 13.6874 23.83 13.8928 24.189C13.9613 24.3599 14.0469 24.5137 14.1496 24.6504V24.6675Z" fill="#F51B2B"/>
<path d="M22.9654 29.983C22.8969 29.8121 22.8284 29.6412 22.7257 29.4702C22.623 29.2481 22.5032 29.043 22.4005 28.8208C22.1266 28.3251 21.8698 27.8124 21.5959 27.3167C21.3905 26.9065 21.168 26.4963 20.9626 26.1032C20.74 25.6759 20.5175 25.2486 20.295 24.8213C20.2607 24.7872 20.2607 24.7359 20.2607 24.6846C20.6031 24.0351 20.9455 23.3856 21.2878 22.7191C21.4932 22.3431 21.6815 21.95 21.8869 21.5739C22.1095 21.1466 22.332 20.7194 22.5546 20.2921C22.6744 20.0699 22.7771 19.8477 22.8969 19.6255C22.914 19.5742 22.9483 19.523 22.9996 19.4888V29.8292C22.9996 29.8292 23.0167 29.9659 22.9654 30.0001V29.983Z" fill="#F51B2B"/>
<path d="M7.90186 29.9482C7.90186 29.9482 7.98745 29.9141 8.0388 29.9141H11.2399C11.2399 29.9141 11.2912 29.9141 11.3083 29.9141C11.2399 29.9312 11.1714 29.9312 11.12 29.9312H8.05592C8.05592 29.9312 7.95321 29.9312 7.90186 29.9312V29.9482Z" fill="#F84B33"/>
<path d="M30.7197 6.84098C30.7197 6.84098 30.7197 6.77261 30.754 6.73843C31.0107 6.27696 31.2675 5.81548 31.5243 5.35401C31.5243 5.31983 31.5585 5.30274 31.5756 5.28564C31.5756 5.28564 31.5927 5.28564 31.6099 5.28564C31.3531 5.76421 31.0792 6.22568 30.8224 6.70425C30.7882 6.75552 30.7711 6.8068 30.7197 6.84098Z" fill="#F2302A"/>
<path d="M31.6099 5.28573H31.5757C31.6613 5.09772 31.764 4.90971 31.8667 4.72171C31.9009 4.63625 31.9523 4.55079 32.0208 4.46533C32.0208 4.46533 32.0379 4.46533 32.055 4.46533L31.6099 5.26864V5.28573Z" fill="#F43629"/>
<path d="M32.0552 4.46492H32.021C32.1237 4.20854 32.2606 3.96926 32.4318 3.74707C32.4318 3.78125 32.4318 3.81544 32.4147 3.83253C32.2778 4.03763 32.1751 4.25982 32.0552 4.46492Z" fill="#F53B28"/>
<path d="M30.6514 6.96046C30.6514 6.96046 30.6514 6.85791 30.7194 6.84082C30.7194 6.8921 30.6854 6.94337 30.6514 6.96046Z" fill="#F2302A"/>
<path d="M30.6172 7.02882C30.6172 7.02882 30.6172 6.97754 30.6512 6.96045C30.6512 6.97754 30.6512 7.01173 30.6172 7.02882Z" fill="#F2302A"/>
<path d="M30.583 7.08008C30.583 7.08008 30.583 7.02881 30.617 7.01172C30.617 7.02881 30.617 7.06299 30.583 7.08008Z" fill="#F2302A"/>
<path d="M51.8433 4.021V20.9417H66.4278V4.021H73.3092V22.0697C73.3092 22.7021 73.1552 23.2661 72.8299 23.7618C72.5047 24.2574 72.0939 24.6676 71.5803 25.0095C71.0668 25.3513 70.5019 25.6077 69.8856 25.7615C69.2865 25.9324 68.6531 26.0008 68.0198 26.0179H50.2856C49.6351 26.0179 48.9675 25.9495 48.3341 25.7786C47.735 25.6418 47.153 25.4026 46.6394 25.0778C46.143 24.7702 45.7322 24.3429 45.4412 23.8643C45.1502 23.3687 44.9961 22.7705 44.9961 22.0697V4.021H51.8433Z" fill="white"/>
<path d="M76.6475 7.96915C76.6475 7.2684 76.8015 6.67019 77.0925 6.17454C77.3835 5.69597 77.7944 5.26868 78.2908 4.96103C78.8043 4.63629 79.3863 4.39701 79.9855 4.26028C80.6188 4.10645 81.2693 4.021 81.9369 4.021H99.6711C100.305 4.021 100.938 4.10645 101.537 4.27737C102.153 4.43119 102.718 4.68757 103.232 5.0294C103.728 5.37123 104.156 5.79852 104.481 6.27708C104.807 6.77274 104.961 7.33676 104.961 7.96915V22.0697C104.961 22.685 104.841 23.1807 104.567 23.5567L107.528 26.0179H81.9369C81.2864 26.0179 80.6188 25.9495 79.9855 25.7786C79.3863 25.6418 78.8043 25.4026 78.2908 25.0778C77.7944 24.7702 77.3835 24.3429 77.0925 23.8643C76.8015 23.3687 76.6475 22.7705 76.6475 22.0697V7.98624V7.96915ZM95.2034 15.7116L98.0792 18.1386V9.0801H83.4946V20.9246H91.0437L84.6758 15.7116H95.2034Z" fill="white"/>
<path d="M115.385 4.021V20.9417H129.97V4.021H136.851V22.0697C136.851 22.7021 136.697 23.2661 136.372 23.7618C136.047 24.2574 135.636 24.6847 135.122 25.0095C134.609 25.3513 134.044 25.6077 133.428 25.7615C132.829 25.9324 132.195 26.0008 131.562 26.0179H113.828C113.177 26.0179 112.509 25.9495 111.876 25.7786C111.277 25.6418 110.695 25.4026 110.181 25.0778C109.685 24.7702 109.274 24.3429 108.983 23.8643C108.692 23.3687 108.538 22.7705 108.538 22.0697V4.021H115.368H115.385Z" fill="white"/>
<path d="M140.189 21.0784H145.478V8.96046H140.189V4.021H157.615V8.96046H152.326V21.0784H157.615V26.0179H140.189V21.0784Z" fill="white"/>
<path d="M160.953 13.1821H167.903V20.8733H181.426L182.042 20.446V9.38775L181.426 8.96046H160.936V4.021H185.774C186.185 4.021 186.596 4.12355 186.955 4.31155C187.349 4.51665 187.726 4.77302 188.051 5.06358C188.376 5.37123 188.65 5.69597 188.873 6.07198C189.095 6.43091 189.198 6.78983 189.198 7.11457V21.8133C189.198 22.5654 189.078 23.2148 188.838 23.7447C188.599 24.2745 188.256 24.7189 187.845 25.0436C187.435 25.3684 186.955 25.6077 186.442 25.7615C185.911 25.9153 185.363 26.0008 184.816 26.0008H160.936V13.1821H160.953Z" fill="white"/>
</svg>
