<svg width="190" height="31" viewBox="0 0 190 31" fill="none" xmlns="http://www.w3.org/2000/svg">
<g id="Group 14046">
<g id="UquidSVG">
<path id="Path 65" d="M11.4109 0.538334C11.4109 0.538334 11.4623 0.572515 11.4452 0.589607V19.6296C11.4452 19.6296 11.4452 19.7493 11.4452 19.8176C11.4794 19.8689 11.5308 19.8518 11.565 19.8518C15.3138 19.8518 19.0456 19.8518 22.7944 19.8518C22.9142 19.8518 22.9656 19.8347 22.9485 19.7151C22.9485 19.6809 22.9485 19.6467 22.9485 19.6125V0.760523C22.9485 0.760523 22.9142 0.606698 22.9998 0.555423C23.034 0.538331 23.0683 0.555423 23.1025 0.555423C23.1368 0.589606 23.1539 0.623792 23.1881 0.675067C23.6161 1.44419 24.044 2.21331 24.472 2.96534C24.8143 3.61482 25.1738 4.24721 25.5333 4.87959C25.927 5.58035 26.3207 6.2982 26.7144 6.99895C27.0739 7.63134 27.4162 8.28082 27.7757 8.91321C28.0838 9.49432 28.4091 10.0583 28.7172 10.6395C28.7686 10.7249 28.8199 10.7933 28.8713 10.8787C28.8713 10.9813 28.8884 11.1009 28.8713 11.2035V29.7479C28.8713 29.8846 28.9454 29.9643 29.0938 29.9871C29.0938 29.9871 29.1452 29.9871 29.1623 30.0213C29.0082 30.0726 28.8542 30.1239 28.7001 30.141C27.9983 30.2948 27.2964 30.3802 26.5946 30.4315C26.2693 30.4486 25.927 30.4657 25.6017 30.4657C23.8899 30.4828 22.1781 30.4828 20.4835 30.4657C17.5221 30.4657 14.5606 30.4657 11.5821 30.4657C11.5136 30.4657 11.4623 30.4657 11.3938 30.4486C11.4109 30.4486 11.4281 30.4315 11.4452 30.4144C11.5479 30.3973 11.6677 30.3802 11.7704 30.3973H22.6232C22.7259 30.3973 22.8115 30.3973 22.9142 30.3973C22.9998 30.3631 22.9656 30.2948 22.9656 30.2264V20.262C22.9656 20.262 22.9656 20.1253 22.9656 20.0569C22.8629 20.3133 22.743 20.5526 22.6061 20.7919C22.1268 21.6977 21.6646 22.6036 21.1853 23.5094C20.9285 24.0051 20.6546 24.5007 20.415 24.9964C20.3979 25.0648 20.3294 25.1331 20.2609 25.1673C20.1753 25.1844 20.0898 25.2015 20.0042 25.1844H14.4237C14.4237 25.1844 14.2696 25.1844 14.2012 25.1844C14.0813 25.1502 14.0471 25.0648 14.0129 24.9793C13.6876 24.3469 13.3624 23.7316 13.0371 23.0992L11.9758 21.0653C11.8046 20.7406 11.6506 20.4158 11.4623 20.074V30.158C11.4794 30.2606 11.4623 30.3631 11.4109 30.4486C11.3596 30.4486 11.2911 30.4486 11.2398 30.4486H8.70629C8.48376 30.4486 8.27834 30.4486 8.05581 30.4486C8.02157 30.4486 7.97022 30.4486 7.93598 30.4315C7.97022 30.3973 8.02157 30.4144 8.07293 30.4144H11.1713C11.1713 30.4144 11.2226 30.4144 11.2569 30.4144H8.12428C8.12428 30.4144 8.00445 30.3973 7.93598 30.4315C7.67921 30.4315 7.40533 30.4315 7.14856 30.3802C6.63502 30.329 6.13859 30.2435 5.64217 30.1751C5.64217 30.1751 5.60794 30.1751 5.59082 30.158C5.64217 30.0384 5.65929 29.9188 5.64217 29.7991V11.2889C5.64217 11.1864 5.64217 11.0667 5.64217 10.9642C5.67641 10.8616 5.72776 10.742 5.77912 10.6395C6.13859 10.0071 6.48095 9.35759 6.84043 8.7252C8.12428 6.33238 9.45948 3.97374 10.7604 1.58092C10.9316 1.29036 11.0857 0.999807 11.2569 0.692159C11.274 0.640884 11.2911 0.538333 11.4109 0.623791V0.777615C11.4109 0.777615 11.3596 0.6067 11.4109 0.50415V0.538334Z" fill="#F94F47"/>
<path id="Path 66" d="M5.6936 10.9129V30.0897C5.6936 30.0897 5.64224 30.1751 5.59089 30.1751C4.75211 30.0042 3.93044 29.7478 3.16014 29.406C2.73219 29.218 2.32135 28.9958 1.96188 28.7223C0.934797 28.0216 0.250077 26.979 0.0788971 25.8339C0.0788971 25.7997 0.0788971 25.7484 0.0788971 25.7142C0.0788971 25.6629 0.0617791 25.5946 0.0788971 25.5433V0.863052C0.0788971 0.863052 0.0788971 0.743413 0.0788971 0.692139C0.164487 0.692139 0.181606 0.760504 0.198724 0.811779C0.523966 1.3758 0.83209 1.95692 1.15733 2.53803C1.53393 3.22169 1.92764 3.92245 2.30424 4.60611C2.66371 5.2385 3.02319 5.88798 3.36555 6.53746C3.58808 6.94766 3.81062 7.34076 4.03315 7.75096C4.23857 8.12698 4.44398 8.4859 4.6494 8.86191C4.88905 9.3063 5.1287 9.75068 5.38547 10.1951C5.48818 10.3831 5.57377 10.5882 5.6936 10.7762C5.72783 10.8274 5.72783 10.8787 5.71071 10.9471L5.6936 10.9129Z" fill="#E01731"/>
<path id="Path 67" d="M29.145 30.0386C29.145 30.0386 28.9909 30.0386 28.9053 30.0557C28.8369 30.0557 28.7855 30.0557 28.8026 29.9703V10.8277C28.8026 10.8277 28.8197 10.6739 28.854 10.6226C29.4189 9.61419 29.9838 8.62287 30.5315 7.59738C30.5315 7.58029 30.5658 7.54611 30.5829 7.52901C30.5829 7.52901 30.5829 7.51192 30.6 7.49483C30.6 7.49483 30.6171 7.46065 30.6343 7.44355C30.6514 7.42646 30.6343 7.42646 30.6514 7.40937C30.6685 7.37519 30.6856 7.341 30.7027 7.30682C30.7027 7.30682 30.7027 7.27264 30.7198 7.27264C31.0109 6.77698 31.2847 6.26424 31.5757 5.75149C31.7298 5.47802 31.8668 5.22165 32.0208 4.94818C32.1578 4.7089 32.2947 4.46962 32.4145 4.23034L32.4488 4.17906C32.8767 3.40994 33.3047 2.62373 33.7326 1.8546L34.2804 0.897477C34.2804 0.897477 34.3317 0.760744 34.4345 0.743652C34.4516 0.812019 34.4687 0.863294 34.4516 0.931661V25.3214C34.4516 25.3214 34.4516 25.441 34.4516 25.5094C34.4516 25.7316 34.4173 25.9367 34.3317 26.1418C34.1263 26.7912 33.7497 27.3723 33.2533 27.8509C32.8767 28.244 32.4488 28.5858 31.9695 28.8764C31.3703 29.2353 30.7199 29.5259 30.0351 29.7481C29.7441 29.8335 29.4702 29.919 29.1621 29.9874L29.145 30.0386Z" fill="#E01731"/>
<path id="Path 68" d="M5.69341 10.913C5.69341 10.913 5.65917 10.8105 5.62494 10.7763C5.47087 10.4687 5.28258 10.1781 5.12852 9.87046C4.97445 9.5799 4.78616 9.28934 4.64921 8.99879C4.51227 8.72532 4.34109 8.46895 4.20414 8.19548C4.03296 7.85365 3.81043 7.52891 3.65637 7.18708C3.60501 7.05035 3.50231 6.93071 3.41672 6.79397C3.31401 6.58887 3.2113 6.38377 3.09148 6.17868C2.85182 5.78557 2.66353 5.39246 2.42387 4.98226C2.28693 4.72589 2.11575 4.46952 1.99593 4.21314C1.85898 3.92259 1.67068 3.64912 1.53374 3.37566C1.36256 3.01673 1.14003 2.70908 0.968845 2.35016C0.900374 2.17925 0.76343 2.02542 0.67784 1.8545C0.489542 1.47849 0.267008 1.11957 0.0444744 0.743552V25.7314C-0.00687958 25.5605 -0.00688036 25.3896 0.0102376 25.2016C0.0102376 23.0139 0.0102376 20.8091 0.0102376 18.6213V1.01702C0.0102376 0.863193 0.0102376 0.709368 0.0102376 0.555543C0.0615916 0.538452 0.130064 0.538452 0.181418 0.555543H11.3081C11.4279 0.555543 11.3766 0.60682 11.3423 0.658095L9.09989 4.69171C8.6377 5.52919 8.17552 6.38378 7.71333 7.22126C7.54215 7.52891 7.38809 7.85365 7.21691 8.1613L5.79612 10.725L5.67629 10.9472L5.69341 10.913Z" fill="#F51B29"/>
<path id="Path 69" d="M30.5832 7.58006C30.5832 7.58006 30.566 7.66552 30.5318 7.6997C30.1552 8.38336 29.7957 9.06703 29.402 9.7336C29.2137 10.0583 29.0425 10.366 28.8542 10.7078C28.82 10.7591 28.8029 10.7933 28.7858 10.8446C28.7173 10.8446 28.7002 10.7933 28.6831 10.7591C28.6146 10.6224 28.5461 10.4856 28.4776 10.3489C28.3921 10.1951 28.2893 10.0242 28.2038 9.87033C28.0326 9.57977 27.8614 9.28922 27.7073 8.98157C27.5533 8.67392 27.3479 8.36627 27.1938 8.05863C27.0226 7.71679 26.8172 7.39205 26.646 7.05022C26.5604 6.86221 26.4406 6.6913 26.3379 6.50329C26.1838 6.21273 26.0127 5.92218 25.8586 5.63162C25.6874 5.28979 25.482 4.96505 25.3108 4.62322C25.2252 4.43521 25.0883 4.26429 25.0027 4.07629C24.8315 3.71736 24.609 3.37553 24.4207 3.01661C24.3351 2.8286 24.2153 2.65768 24.1126 2.46968C23.7873 1.87147 23.4621 1.29036 23.1368 0.692155C23.1026 0.64088 23.0855 0.589605 23.0684 0.53833H23.1026C25.3451 0.53833 27.5704 0.53833 29.8128 0.53833H34.2635C34.2635 0.53833 34.3833 0.53833 34.4518 0.53833C34.4518 0.572513 34.5032 0.623787 34.4518 0.657971C34.2978 0.845978 34.1779 1.05108 34.0923 1.25618C33.5274 2.24749 32.9797 3.25589 32.4148 4.26429C32.2778 4.50357 32.1409 4.74286 32.0211 4.98214C31.867 5.2556 31.7129 5.51198 31.576 5.78545C31.285 6.29819 31.0111 6.82803 30.703 7.34078C30.703 7.34078 30.6516 7.42624 30.6345 7.46042C30.6345 7.46042 30.6345 7.5117 30.6003 7.52879C30.6003 7.52879 30.6003 7.56297 30.566 7.58006H30.5832Z" fill="#F51B29"/>
<path id="Path 70" d="M32.4316 4.26433C32.5343 3.99086 32.6713 3.73449 32.8425 3.47811C32.8938 3.39266 32.9281 3.3072 32.9794 3.20465C33.1848 2.84573 33.3731 2.46971 33.5785 2.11079C33.7326 1.82023 33.8867 1.52967 34.0579 1.25621C34.1606 1.0682 34.2633 0.880195 34.366 0.692187C34.3831 0.658004 34.4002 0.606728 34.4687 0.640912C34.4687 1.64931 34.4687 2.65772 34.4687 3.64903V25.1161C34.4687 25.2528 34.4687 25.3895 34.4344 25.5263C34.4344 25.475 34.4344 25.4237 34.4344 25.3724V0.794736C34.4344 0.794736 34.3831 0.846009 34.366 0.863101C34.3146 0.96565 34.2633 1.0682 34.1948 1.17075C33.6299 2.14497 33.0992 3.13628 32.5515 4.1105C32.5343 4.16178 32.5172 4.21305 32.4659 4.23014L32.4316 4.26433Z" fill="#F53B28"/>
<path id="Path 71" d="M23.0684 0.538332C23.0684 0.538332 22.9486 0.606698 22.9657 0.675065C22.9657 0.675065 22.9657 0.760523 22.9657 0.811797V19.6467C22.9657 19.9031 22.9999 19.8689 22.7261 19.8689H11.6678C11.6678 19.8689 11.4967 19.9031 11.4453 19.8176C11.4967 19.8347 11.5651 19.8518 11.6336 19.8347H22.8288C22.8288 19.8347 22.9486 19.8176 22.9315 19.7322C22.9315 19.6809 22.9315 19.6296 22.9315 19.5954V0.743429C22.9315 0.743429 22.9315 0.675064 22.9315 0.640881C22.9315 0.555423 22.9657 0.52124 23.0684 0.52124V0.538332Z" fill="#FA5A41"/>
<path id="Path 72" d="M11.3424 0.623913C11.3424 0.623913 11.3766 0.521365 11.291 0.521365C11.2397 0.521365 11.2054 0.521365 11.1541 0.521365H0.0102539C0.0102539 0.521365 0.13008 0.504273 0.181434 0.504273C0.968862 0.504273 1.73917 0.504273 2.5266 0.504273H11.2054C11.2054 0.504273 11.3595 0.487182 11.4279 0.521365V19.7836C11.4279 19.7836 11.3937 19.7323 11.3937 19.6981C11.3937 19.6639 11.3937 19.6298 11.3937 19.5956V0.829014C11.3937 0.829014 11.4279 0.675188 11.3595 0.623913H11.3424Z" fill="#F8482F"/>
<path id="Path 73" d="M23.0684 0.538334C23.0684 0.538334 23.0684 0.538334 23.0684 0.521242C23.1368 0.521242 23.1882 0.521242 23.2567 0.521242H34.2635C34.2635 0.521242 34.4005 0.487057 34.4518 0.555423H23.0855L23.0684 0.538334Z" fill="#F94F47"/>
<path id="Path 74" d="M22.9653 30.4827H11.6161C11.6161 30.4827 11.4791 30.4827 11.4106 30.4827C11.4106 30.4143 11.4106 30.3631 11.4449 30.3118C11.7359 29.7478 12.0269 29.1838 12.3179 28.6368C12.8999 27.5259 13.4648 26.4149 14.0639 25.3211C14.0639 25.2698 14.1153 25.2356 14.1495 25.2014H20.2435C20.3805 25.4407 20.5174 25.68 20.6372 25.9193C20.8769 26.3807 21.1165 26.8422 21.3562 27.3037C21.8697 28.295 22.4004 29.2863 22.9139 30.2776C22.9653 30.346 22.9653 30.4143 22.9482 30.4998L22.9653 30.4827Z" fill="#E01731"/>
<path id="Path 75" d="M14.1496 25.1673C14.1325 25.2527 14.0811 25.3382 14.0469 25.4236C13.7559 25.9535 13.482 26.5004 13.191 27.0303C13.0027 27.3892 12.8144 27.7652 12.6261 28.1241C12.4035 28.5514 12.1981 28.9616 11.9585 29.3889C11.7873 29.6965 11.6332 30.0213 11.4792 30.3289C11.4621 30.3802 11.4449 30.4315 11.4107 30.4657H11.3765V19.9543C11.4278 19.9885 11.4621 20.0398 11.4792 20.0911C11.599 20.3133 11.7017 20.5355 11.8215 20.7576C12.0098 21.0995 12.1981 21.4413 12.3693 21.7831C12.6774 22.3984 13.0027 22.9966 13.3279 23.6119C13.5162 23.9709 13.6874 24.3298 13.8928 24.6887C13.9613 24.8596 14.0469 25.0134 14.1496 25.1502V25.1673Z" fill="#F51B2B"/>
<path id="Path 76" d="M22.9654 30.483C22.8969 30.3121 22.8284 30.1412 22.7257 29.9702C22.623 29.7481 22.5032 29.543 22.4005 29.3208C22.1266 28.8251 21.8698 28.3124 21.5959 27.8167C21.3905 27.4065 21.168 26.9963 20.9626 26.6032C20.74 26.1759 20.5175 25.7486 20.295 25.3213C20.2607 25.2872 20.2607 25.2359 20.2607 25.1846C20.6031 24.5351 20.9455 23.8856 21.2878 23.2191C21.4932 22.8431 21.6815 22.45 21.8869 22.0739C22.1095 21.6466 22.332 21.2194 22.5546 20.7921C22.6744 20.5699 22.7771 20.3477 22.8969 20.1255C22.914 20.0742 22.9483 20.023 22.9996 19.9888V30.3292C22.9996 30.3292 23.0167 30.4659 22.9654 30.5001V30.483Z" fill="#F51B2B"/>
<path id="Path 77" d="M7.90186 30.4485C7.90186 30.4485 7.98745 30.4143 8.0388 30.4143H11.2399C11.2399 30.4143 11.2912 30.4143 11.3083 30.4143C11.2399 30.4314 11.1714 30.4314 11.12 30.4314H8.05592C8.05592 30.4314 7.95321 30.4314 7.90186 30.4314V30.4485Z" fill="#F84B33"/>
<path id="Path 78" d="M30.7197 7.34098C30.7197 7.34098 30.7197 7.27261 30.754 7.23843C31.0107 6.77696 31.2675 6.31548 31.5243 5.85401C31.5243 5.81983 31.5585 5.80274 31.5756 5.78564C31.5756 5.78564 31.5927 5.78564 31.6099 5.78564C31.3531 6.26421 31.0792 6.72568 30.8224 7.20425C30.7882 7.25552 30.7711 7.3068 30.7197 7.34098Z" fill="#F2302A"/>
<path id="Path 79" d="M31.6099 5.78573H31.5757C31.6613 5.59772 31.764 5.40971 31.8667 5.22171C31.9009 5.13625 31.9523 5.05079 32.0208 4.96533C32.0208 4.96533 32.0379 4.96533 32.055 4.96533L31.6099 5.76864V5.78573Z" fill="#F43629"/>
<path id="Path 80" d="M32.0552 4.96516H32.021C32.1237 4.70879 32.2606 4.46951 32.4318 4.24731C32.4318 4.2815 32.4318 4.31568 32.4147 4.33277C32.2778 4.53787 32.1751 4.76006 32.0552 4.96516Z" fill="#F53B28"/>
<path id="Path 81" d="M30.6514 7.46046C30.6514 7.46046 30.6514 7.35791 30.7194 7.34082C30.7194 7.3921 30.6854 7.44337 30.6514 7.46046Z" fill="#F2302A"/>
<path id="Path 82" d="M30.6172 7.52882C30.6172 7.52882 30.6172 7.47754 30.6512 7.46045C30.6512 7.47754 30.6512 7.51173 30.6172 7.52882Z" fill="#F2302A"/>
<path id="Path 83" d="M30.583 7.58008C30.583 7.58008 30.583 7.52881 30.617 7.51172C30.617 7.52881 30.617 7.56299 30.583 7.58008Z" fill="#F2302A"/>
</g>
<g id="Group 14035">
<g id="Group 12909">
<path id="Path 4258" d="M51.8433 4.02075V20.9414H66.4278V4.02075H73.3092V22.0695C73.3092 22.7019 73.1552 23.2659 72.8299 23.7615C72.5047 24.2572 72.0939 24.6674 71.5803 25.0092C71.0668 25.351 70.5019 25.6074 69.8856 25.7612C69.2865 25.9322 68.6531 26.0005 68.0198 26.0176H50.2856C49.6351 26.0176 48.9675 25.9492 48.3341 25.7783C47.735 25.6416 47.153 25.4023 46.6394 25.0776C46.143 24.7699 45.7322 24.3426 45.4412 23.8641C45.1502 23.3684 44.9961 22.7702 44.9961 22.0695V4.02075H51.8433Z" fill="white"/>
<path id="Path 4259" d="M76.6475 7.96891C76.6475 7.26815 76.8015 6.66995 77.0925 6.17429C77.3835 5.69573 77.7944 5.26844 78.2908 4.96079C78.8043 4.63605 79.3863 4.39677 79.9855 4.26003C80.6188 4.10621 81.2693 4.02075 81.9369 4.02075H99.6711C100.305 4.02075 100.938 4.10621 101.537 4.27713C102.153 4.43095 102.718 4.68732 103.232 5.02916C103.728 5.37099 104.156 5.79828 104.481 6.27684C104.807 6.7725 104.961 7.33652 104.961 7.96891V22.0695C104.961 22.6848 104.841 23.1804 104.567 23.5564L107.528 26.0176H81.9369C81.2864 26.0176 80.6188 25.9492 79.9855 25.7783C79.3863 25.6416 78.8043 25.4023 78.2908 25.0776C77.7944 24.7699 77.3835 24.3426 77.0925 23.8641C76.8015 23.3684 76.6475 22.7702 76.6475 22.0695V7.986V7.96891ZM95.2034 15.7114L98.0792 18.1384V9.07986H83.4946V20.9243H91.0437L84.6758 15.7114H95.2034Z" fill="white"/>
<path id="Path 4260" d="M115.385 4.02075V20.9414H129.97V4.02075H136.851V22.0695C136.851 22.7019 136.697 23.2659 136.372 23.7615C136.047 24.2572 135.636 24.6845 135.122 25.0092C134.609 25.351 134.044 25.6074 133.428 25.7612C132.829 25.9322 132.195 26.0005 131.562 26.0176H113.828C113.177 26.0176 112.509 25.9492 111.876 25.7783C111.277 25.6416 110.695 25.4023 110.181 25.0776C109.685 24.7699 109.274 24.3426 108.983 23.8641C108.692 23.3684 108.538 22.7702 108.538 22.0695V4.02075H115.368H115.385Z" fill="white"/>
<path id="Path 4261" d="M140.189 21.0781H145.478V8.96022H140.189V4.02075H157.615V8.96022H152.326V21.0781H157.615V26.0176H140.189V21.0781Z" fill="white"/>
<path id="Path 4262" d="M160.953 13.1818H167.903V20.8731H181.426L182.042 20.4458V9.38751L181.426 8.96022H160.936V4.02075H185.774C186.185 4.02075 186.596 4.1233 186.955 4.31131C187.349 4.51641 187.726 4.77278 188.051 5.06334C188.376 5.37099 188.65 5.69573 188.873 6.07174C189.095 6.43066 189.198 6.78959 189.198 7.11433V21.8131C189.198 22.5651 189.078 23.2146 188.838 23.7444C188.599 24.2743 188.256 24.7187 187.845 25.0434C187.435 25.3681 186.955 25.6074 186.442 25.7612C185.911 25.9151 185.363 26.0005 184.816 26.0005H160.936V13.1818H160.953Z" fill="white"/>
</g>
</g>
</g>
</svg>
